#
# Exported by OpenBRF -- marco tarini
#
s zhangbashemao
newmtl zhangbashemao
Ka 0.8 0.8 0.8
Kd 0.2 0.2 0.2
usemtl zhangbashemao
v 0.041118 0.047017 1.4029
v 0.036853 0.037439 1.4095
v 0.043589 0.034958 1.40153
v 0.043589 0.04076 1.3925
v 0.036853 0.049042 1.39145
v 0.030117 0.051522 1.39942
v 0.030117 0.045721 1.40845
v 0.028322 0.029884 1.40464
v 0.035058 0.027404 1.39667
v 0.035058 0.033205 1.38765
v 0.028322 0.041487 1.3866
v 0.021586 0.043968 1.39457
v 0.021586 0.038166 1.40359
v -0.000438 0.06289 1.40474
v -0.000438 0.05188 1.41042
v 0.008852 0.05478 1.40591
v 0.008852 0.060582 1.39688
v -0.000438 0.063483 1.39237
v -0.009728 0.060582 1.39688
v -0.009728 0.05478 1.40591
v -0.000438 0.041461 1.40372
v 0.008852 0.044362 1.39921
v 0.008852 0.050163 1.39018
v -0.000438 0.053064 1.38567
v -0.009728 0.050163 1.39018
v -0.009728 0.044362 1.39921
v -0.038205 0.050995 1.40347
v -0.034564 0.040979 1.40978
v -0.027049 0.048473 1.40822
v -0.027049 0.054274 1.3992
v -0.034564 0.052582 1.39173
v -0.04208 0.045088 1.39329
v -0.04208 0.039287 1.40231
v -0.027284 0.03255 1.40436
v -0.019768 0.040044 1.4028
v -0.019768 0.045845 1.39378
v -0.027284 0.044153 1.38631
v -0.0348 0.036659 1.38787
v -0.0348 0.030858 1.3969
v -0.061546 0.019853 1.40012
v -0.055656 0.012441 1.4081
v -0.052785 0.022774 1.40837
v -0.052785 0.028575 1.39935
v -0.055656 0.024044 1.39006
v -0.058527 0.013712 1.38979
v -0.058527 0.00791 1.39881
v -0.043876 0.009222 1.40603
v -0.041005 0.019554 1.4063
v -0.041005 0.025356 1.39728
v -0.043876 0.020825 1.38799
v -0.046747 0.010492 1.38772
v -0.046747 0.004691 1.39674
v -0.061546 -0.018642 1.39598
v -0.055656 -0.022833 1.40603
v -0.058527 -0.012501 1.4063
v -0.058527 -0.0067 1.39728
v -0.055656 -0.01123 1.38799
v -0.052785 -0.021563 1.38772
v -0.052785 -0.027364 1.39674
v -0.043876 -0.019614 1.4081
v -0.046747 -0.009282 1.40837
v -0.046747 -0.00348 1.39935
v -0.043876 -0.008011 1.39006
v -0.041005 -0.018343 1.38979
v -0.041005 -0.024145 1.39881
v -0.038205 -0.049784 1.39263
v -0.034564 -0.051371 1.40436
v -0.04208 -0.043878 1.4028
v -0.04208 -0.038076 1.39378
v -0.034564 -0.039768 1.38631
v -0.027049 -0.047262 1.38787
v -0.027049 -0.053064 1.3969
v -0.027284 -0.042943 1.40978
v -0.0348 -0.035449 1.40822
v -0.0348 -0.029647 1.3992
v -0.027284 -0.031339 1.39173
v -0.019768 -0.038833 1.39329
v -0.019768 -0.044635 1.40231
v -0.000438 -0.06168 1.39135
v -0.000438 -0.062272 1.40372
v -0.009728 -0.059371 1.39921
v -0.009728 -0.05357 1.39018
v -0.000438 -0.050669 1.38567
v 0.008852 -0.05357 1.39018
v 0.008852 -0.059371 1.39921
v -0.000438 -0.051853 1.41042
v -0.009728 -0.048952 1.40591
v -0.009728 -0.043151 1.39688
v -0.000438 -0.04025 1.39237
v 0.008852 -0.043151 1.39688
v 0.008852 -0.048952 1.40591
v 0.037329 -0.049784 1.39263
v 0.033689 -0.051371 1.40436
v 0.026173 -0.053064 1.3969
v 0.026173 -0.047262 1.38787
v 0.033689 -0.039768 1.38631
v 0.041204 -0.038076 1.39378
v 0.041204 -0.043878 1.4028
v 0.026408 -0.042943 1.40978
v 0.018892 -0.044635 1.40231
v 0.018892 -0.038833 1.39329
v 0.026408 -0.031339 1.39173
v 0.033924 -0.029647 1.3992
v 0.033924 -0.035449 1.40822
v 0.06067 -0.018642 1.39598
v 0.05478 -0.022834 1.40603
v 0.051909 -0.027364 1.39674
v 0.051909 -0.021563 1.38772
v 0.05478 -0.01123 1.38799
v 0.057651 -0.0067 1.39728
v 0.057651 -0.012501 1.4063
v 0.042999 -0.019614 1.4081
v 0.040129 -0.024145 1.39881
v 0.040129 -0.018343 1.38979
v 0.042999 -0.008011 1.39006
v 0.04587 -0.00348 1.39935
v 0.04587 -0.009282 1.40837
v 0.06067 0.019853 1.40012
v 0.05478 0.012441 1.4081
v 0.057651 0.00791 1.39881
v 0.057651 0.013712 1.38979
v 0.05478 0.024044 1.39006
v 0.051909 0.028575 1.39935
v 0.051909 0.022774 1.40837
v 0.042999 0.009222 1.40603
v 0.04587 0.004691 1.39674
v 0.04587 0.010492 1.38772
v 0.042999 0.020825 1.38799
v 0.040129 0.025356 1.39728
v 0.040129 0.019554 1.4063
v -0.053283 0.018133 1.36861
v -0.056668 -0.001063 1.36861
v -0.054576 -0.001063 1.40089
v -0.051318 0.017418 1.40089
v -0.043537 0.035014 1.36861
v -0.041934 0.03367 1.40089
v -0.028605 0.047543 1.36861
v -0.027559 0.045732 1.40089
v -0.010288 0.05421 1.36861
v -0.009924 0.052151 1.40089
v 0.009205 0.05421 1.36861
v 0.008842 0.052151 1.40089
v 0.027522 0.047543 1.36861
v 0.026476 0.045732 1.40089
v 0.042453 0.035014 1.36861
v 0.040852 0.03367 1.40089
v 0.052199 0.018133 1.36861
v 0.050234 0.017418 1.40089
v 0.055584 -0.001063 1.36861
v 0.053493 -0.001063 1.40089
v 0.052199 -0.020259 1.36861
v 0.050234 -0.019544 1.40089
v 0.042453 -0.03714 1.36861
v 0.040852 -0.035796 1.40089
v 0.027522 -0.04967 1.36861
v 0.026476 -0.047859 1.40089
v 0.009205 -0.056336 1.36861
v 0.008842 -0.054277 1.40089
v -0.010288 -0.056336 1.36861
v -0.009924 -0.054277 1.40089
v -0.028605 -0.04967 1.36861
v -0.027559 -0.047859 1.40089
v -0.043537 -0.03714 1.36861
v -0.041934 -0.035796 1.40089
v -0.053283 -0.02026 1.36861
v -0.051318 -0.019544 1.40089
v -0.046674 0.000371 1.42688
v -0.043892 0.016149 1.42688
v -0.043892 0.016149 1.41921
v -0.046674 0.000371 1.41921
v -0.043892 -0.015407 1.42688
v -0.043892 -0.015407 1.41921
v -0.035882 -0.029283 1.42688
v -0.035882 -0.029283 1.41921
v -0.023608 -0.039581 1.42688
v -0.023608 -0.039581 1.41921
v -0.008553 -0.045061 1.42688
v -0.008553 -0.045061 1.41921
v 0.007469 -0.045061 1.42688
v 0.007469 -0.045061 1.41921
v 0.022525 -0.039581 1.42688
v 0.022525 -0.039581 1.41921
v 0.034798 -0.029282 1.42688
v 0.034798 -0.029282 1.41921
v 0.042809 -0.015407 1.42688
v 0.042809 -0.015407 1.41921
v 0.045591 0.000371 1.42688
v 0.045591 0.000371 1.41921
v 0.042809 0.016149 1.42688
v 0.042809 0.016149 1.41921
v 0.034798 0.030025 1.42688
v 0.034798 0.030025 1.41921
v 0.022525 0.040323 1.42688
v 0.022525 0.040323 1.41921
v 0.007469 0.045803 1.42688
v 0.007469 0.045803 1.41921
v -0.008553 0.045803 1.42688
v -0.008553 0.045803 1.41921
v -0.023608 0.040323 1.42688
v -0.023608 0.040323 1.41921
v -0.035882 0.030025 1.42688
v -0.035882 0.030025 1.41921
v -0.037413 0.000371 1.42966
v -0.03519 0.012982 1.42966
v -0.03519 -0.01224 1.42966
v -0.028787 -0.023329 1.42966
v -0.018978 -0.031561 1.42966
v -0.006944 -0.03594 1.42966
v 0.005861 -0.03594 1.42966
v 0.017894 -0.031561 1.42966
v 0.027704 -0.023329 1.42966
v 0.034106 -0.01224 1.42966
v 0.03633 0.000371 1.42966
v 0.034106 0.012982 1.42966
v 0.027704 0.024072 1.42966
v 0.017894 0.032303 1.42966
v 0.005861 0.036682 1.42966
v -0.006944 0.036682 1.42966
v -0.018978 0.032303 1.42966
v -0.028787 0.024072 1.42966
v -0.046832 0.001259 1.37756
v -0.064546 0.001259 1.3624
v -0.038878 -0.05204 1.3624
v -0.027834 -0.038191 1.37756
v -0.081369 0.001259 1.34118
v -0.049367 -0.065193 1.34118
v -0.092631 0.001259 1.31433
v -0.056389 -0.073998 1.31433
v -0.098109 0.001259 1.28682
v -0.085341 -0.025254 1.28682
v -0.072573 -0.051768 1.28682
v -0.059805 -0.078281 1.28682
v 0.018796 -0.065204 1.3624
v -0.029096 -0.053966 1.36269
v -0.028912 -0.043403 1.37251
v 0.02254 -0.081606 1.34118
v 0.025046 -0.092585 1.31433
v -0.031115 -0.084829 1.28682
v -0.002425 -0.091377 1.28682
v 0.026264 -0.097926 1.28682
v 0.014854 -0.047934 1.37756
v 0.065047 -0.02832 1.3624
v 0.049088 -0.020634 1.37756
v 0.080205 -0.035619 1.34118
v 0.090352 -0.040506 1.31433
v 0.049272 -0.079578 1.28682
v 0.072279 -0.06123 1.28682
v 0.095287 -0.042882 1.28682
v 0.065047 0.030838 1.3624
v 0.049088 0.023152 1.37756
v 0.080205 0.038137 1.34118
v 0.090352 0.043024 1.31433
v 0.095287 -0.013455 1.28682
v 0.095287 0.015973 1.28682
v 0.095287 0.045401 1.28682
v 0.018796 0.067722 1.3624
v 0.014854 0.050452 1.37756
v 0.02254 0.084124 1.34118
v 0.025045 0.095103 1.31433
v 0.072279 0.063748 1.28682
v 0.049272 0.082096 1.28682
v 0.026264 0.100444 1.28682
v -0.038878 0.054558 1.3624
v -0.027834 0.040709 1.37756
v -0.049368 0.067711 1.34118
v -0.056389 0.076516 1.31433
v -0.002425 0.093896 1.28682
v -0.031115 0.087347 1.28682
v -0.059805 0.080799 1.28682
v -0.072573 0.054286 1.28682
v -0.085341 0.027772 1.28682
v -0.029426 0.08316 1.28101
v -0.056719 0.07693 1.28101
v 0.025163 0.095619 1.28101
v -0.002131 0.08939 1.28101
v -0.015906 0.102486 1.26311
v 0.047051 0.078164 1.28101
v 0.090828 0.043253 1.28101
v 0.06894 0.060709 1.28101
v 0.090828 0.015257 1.28101
v 0.090828 -0.040735 1.28101
v 0.090828 -0.012739 1.28101
v 0.06894 -0.058191 1.28101
v 0.025163 -0.093101 1.28101
v 0.047051 -0.075646 1.28101
v -0.002131 -0.086871 1.28101
v -0.056719 -0.074412 1.28101
v -0.029425 -0.080642 1.28101
v -0.068867 -0.049188 1.28101
v -0.093161 0.001259 1.28101
v -0.081013 -0.023965 1.28101
v -0.081014 0.026483 1.28101
v -0.068867 0.051706 1.28101
v -0.092438 -0.045003 1.27073
v -0.0201 -0.102691 1.27073
v 0.070105 -0.082103 1.27073
v 0.11025 0.001259 1.27073
v 0.070105 0.084621 1.27073
v -0.092438 0.047521 1.27073
v 0.003584 0.044438 -0.888034
v -0.027028 0.031758 -0.888035
v -0.039708 0.001146 -0.888035
v -0.027028 -0.029467 -0.888035
v 0.003584 -0.042147 -0.888034
v 0.034196 -0.029467 -0.888034
v 0.046876 0.001146 -0.888034
v 0.034196 0.031758 -0.888034
v -0.027028 0.031758 -0.912158
v -0.039708 0.001145 -0.912158
v 0.003584 0.044438 -0.912158
v 0.034196 0.031758 -0.912158
v 0.046876 0.001145 -0.912158
v 0.034196 -0.029467 -0.912158
v 0.003584 -0.042147 -0.912158
v -0.027028 -0.029467 -0.912158
v 0.016202 0.001145 -1.05889
v 0.012506 -0.007777 -1.05889
v 0.003584 -0.011472 -1.05889
v -0.005338 -0.007777 -1.05889
v -0.009034 0.001145 -1.05889
v -0.005338 0.010068 -1.05889
v 0.003584 0.013763 -1.05889
v 0.012506 0.010068 -1.05889
v -0.011268 0.015997 -0.932172
v -0.017419 0.001145 -0.932172
v 0.003584 0.022149 -0.932172
v 0.018436 0.015997 -0.932172
v 0.024588 0.001145 -0.932172
v 0.018436 -0.013706 -0.932172
v 0.003584 -0.019858 -0.932172
v -0.011268 -0.013706 -0.932172
v -0.015866 0.020595 -0.948916
v -0.023922 0.001145 -0.948916
v 0.003584 0.028652 -0.948916
v 0.023034 0.020595 -0.948916
v 0.03109 0.001145 -0.948916
v 0.023034 -0.018305 -0.948916
v 0.003584 -0.026361 -0.948916
v -0.015866 -0.018305 -0.948916
v -0.065231 0.00102 1.19489
v -0.111892 -0.029967 1.02586
v -0.088063 0.00102 1.19727
v -0.069583 0.010122 1.2635
v -0.044127 0.010122 1.23896
v -0.041106 0.027583 1.30644
v 0.010931 0.027583 1.29444
v -0.009207 0.027583 1.34993
v 0.025612 0.027583 1.34657
v -0.112531 -0.044564 1.14484
v -0.10041 -0.05023 1.21771
v -0.089362 -0.02617 1.26769
v -0.073555 -0.004754 1.30038
v -0.016354 -0.004754 1.355
v -0.018812 0.16512 1.03965
v -0.063295 0.078969 1.18613
v -0.026885 0.110437 1.16679
v 0.003493 0.099447 1.24525
v 0.063773 0.055379 1.20908
v 0.037552 0.099825 1.16207
v 0.018249 0.07027 1.30253
v 0.050583 0.052899 1.30058
v 0.010869 0.07027 1.34818
v 0.028141 0.07027 1.34652
v -0.058585 0.060402 1.25126
v -0.024405 0.07027 1.31226
v -0.006679 0.07027 1.34987
v -0.048451 -0.12824 1.01202
v -0.026652 -0.094524 1.18036
v -0.09109 -0.077425 1.19239
v 0.003726 -0.081844 1.25151
v 0.037785 -0.066511 1.16833
v 0.094499 -0.037776 1.24044
v 0.07585 -0.023974 1.30167
v 0.018481 -0.044219 1.30878
v 0.013902 -0.025811 1.35277
v 0.011102 -0.025811 1.35444
v -0.058352 -0.085677 1.25752
v -0.024172 -0.052667 1.31852
v -0.006446 -0.025811 1.35613
v 0.175097 -6.3e-05 1.07888
v 0.108492 -0.02218 1.21276
v 0.101123 -0.072022 1.22665
v 0.086616 0.018501 1.27055
v 0.095572 0.025045 1.1942
v 0.063799 0.073071 1.25627
v 0.028221 0.085066 1.30774
v 0.04274 0.040127 1.3203
v 0.009333 0.059837 1.3531
v 0.006133 0.046303 1.35537
v 0.079347 -0.031584 1.28037
v 0.044201 -0.000368 1.32772
v 0.002881 0.032553 1.35766
v -0.103603 0.09499 1.01687
v -0.128102 -0.005929 1.15874
v -0.099567 0.042525 1.15274
v -0.067713 0.043679 1.25137
v -4.3e-05 0.058692 1.28261
v -0.044504 0.069649 1.18119
v -0.042268 0.037165 1.32448
v -0.00737 0.04869 1.34001
v -0.052578 0.032338 1.33732
v -0.03555 0.043636 1.3443
v -0.105471 0.005198 1.23869
v -0.066703 0.009265 1.32242
v -0.05889 0.02086 1.33647
v 0.034814 -0.14333 1.02934
v 0.040184 -0.118117 1.20805
v -0.002124 -0.095105 1.20897
v 0.063948 -0.098181 1.24813
v 0.093229 -0.057637 1.18296
v 0.083212 -0.042884 1.21192
v 0.075097 -0.028336 1.27326
v 0.067759 -0.03449 1.30058
v 0.058745 -0.012642 1.3443
v 0.051027 -0.016869 1.37424
v 0.025791 -0.078636 1.27104
v 0.022557 -0.046528 1.33052
v 0.036774 -0.021164 1.37593
v -0.080061 -0.047412 1.19191
v -0.06641 -0.11356 1.07342
v -0.063574 -0.07594 1.19448
v -0.070654 -0.059636 1.26051
v -0.07836 -0.016042 1.23597
v -0.05597 -0.021663 1.30346
v -0.044079 0.01887 1.29146
v -0.034093 -0.003424 1.34694
v -0.010212 0.016487 1.34359
v -0.042092 -0.09597 1.2005
v -0.042944 -0.083411 1.25295
v -0.048276 -0.071869 1.29739
v -0.009044 -0.029688 1.35201
v -0.018288 0.001146 1.38182
v -0.011881 0.016611 1.38182
v -0.011881 0.016611 -0.888689
v -0.018288 0.001145 -0.888689
v 0.003584 0.023017 1.38182
v 0.003584 0.023017 -0.888689
v 0.019049 0.016611 1.38182
v 0.01905 0.016611 -0.888689
v 0.025455 0.001146 1.38182
v 0.025455 0.001145 -0.888689
v 0.009839 -0.01432 1.38182
v 0.01905 -0.01432 -0.888689
v 0.003584 -0.020726 1.38182
v 0.003584 -0.020726 -0.888689
v -0.011881 -0.01432 1.38182
v -0.011881 -0.01432 -0.888689
v -0.001627 0.017663 1.42736
v 0.035203 0.001259 1.4285
v -0.037114 0.001259 1.4285
v 0.062185 0.001259 1.94729
v 0.058239 0.002284 1.96961
v 0.098145 0.001259 2.01184
v -0.018085 0.017663 1.85013
v -0.004087 0.011741 1.87225
v -0.017485 0.017663 1.83828
v -0.017294 0.017663 1.85685
v 0.001115 0.010486 1.8921
v 0.016156 0.00524 1.5702
v 0.02276 0.001259 1.57043
v 0.022108 0.001259 1.55642
v 0.025167 0.001259 1.58384
v 0.022909 0.005197 1.59639
v 0.029223 0.001259 1.59661
v 0.039275 0.001259 1.62085
v 0.037122 0.005127 1.63248
v 0.043595 0.001259 1.63267
v 0.039669 0.005101 1.64436
v 0.046278 0.001259 1.64454
v 0.039731 0.005075 1.65646
v 0.046489 0.001259 1.65664
v 0.044462 0.001259 1.6691
v 0.038252 0.001259 1.69562
v 0.026106 0.00536 1.92969
v 0.013805 0.007033 1.89582
v 0.043123 0.001259 1.90866
v 0.034518 0.001259 1.88613
v 0.007656 0.008288 1.86062
v 0.031412 0.001259 1.87015
v 0.031364 0.001259 1.85643
v 0.051198 0.001259 1.77461
v 0.006931 0.017663 1.79395
v 0.053029 0.001259 1.79143
v 0.02109 0.008981 1.69528
v 0.036484 0.001259 1.70993
v 0.025151 0.001259 1.52719
v 0.008373 0.009375 1.52667
v 0.022981 0.001259 1.54195
v -0.001145 0.017663 1.48158
v -0.018611 0.017663 1.55537
v 0.006136 0.009327 1.55592
v 0.009689 0.009273 1.58337
v -0.012772 0.017663 1.5956
v 0.030206 0.009116 1.64414
v 0.002731 0.017663 1.64357
v -0.009193 0.017663 1.70901
v 0.020993 0.00893 1.73272
v 0.036859 0.001259 1.45435
v 0.037309 0.001259 1.48268
v 0.0284 0.001259 1.51229
v 0.037297 0.001259 1.72509
v 0.041196 0.001259 1.74112
v 0.046524 0.001259 1.75774
v -0.015512 0.017663 1.83286
v 0.03719 0.001259 1.83406
v 0.033542 0.001259 1.84451
v 0.049751 0.001259 1.80789
v 0.052166 0.001259 1.79972
v -0.061712 0.002284 1.96553
v -0.081489 0.001259 1.96987
v -0.10295 0.001259 2.016
v -0.037051 0.001259 1.45465
v -0.017317 0.013818 1.87054
v -0.068375 0.001259 1.93486
v -0.020135 0.010486 1.88599
v -0.058912 0.001259 1.89076
v -0.061441 0.001259 1.9091
v -0.059253 0.001259 1.87801
v -0.025649 0.01272 1.84374
v -0.02079 0.01493 1.84781
v -0.02554 0.012899 1.83705
v -0.023555 0.013022 1.83083
v -0.061063 0.001259 1.86904
v -0.036969 0.008578 1.84225
v -0.064182 0.001259 1.85564
v -0.064345 0.001259 1.84431
v -0.033008 0.008844 1.82774
v -0.062227 0.001259 1.83457
v -0.058576 0.001259 1.82607
v -0.041129 0.009357 1.55723
v -0.045203 0.001259 1.62264
v -0.053947 0.001259 1.59913
v -0.053465 0.001259 1.72556
v -0.053289 0.001259 1.71037
v -0.05061 0.001259 1.74157
v -0.046325 0.001259 1.75796
v -0.015317 0.008899 1.79904
v -0.038456 0.001259 1.48367
v -0.049366 0.001259 1.51409
v -0.053627 0.001259 1.52937
v -0.056792 0.001259 1.54444
v -0.058619 0.001259 1.55912
v -0.058863 0.001259 1.57323
v -0.057272 0.001259 1.58658
v -0.041513 0.001259 1.63406
v -0.039477 0.001259 1.64556
v -0.039957 0.001259 1.65738
v -0.042727 0.001259 1.66966
v -0.050597 0.001259 1.69606
v -0.042633 0.001259 1.77423
v -0.041654 0.001259 1.78988
v -0.04287 0.001259 1.79731
v -0.045575 0.001259 1.80441
v -0.034585 0.00536 1.92221
v 0.000341 0.001259 1.91908
v -0.008486 0.001259 1.90577
v 0.010395 0.001259 1.93238
v 0.034299 0.001259 1.95894
v 0.063468 0.001259 1.98543
v -0.016712 0.001259 1.9205
v -0.025925 0.001259 1.93496
v -0.036144 0.001259 1.94914
v -0.047389 0.001259 1.96306
v -0.059675 0.001259 1.9767
v -0.07302 0.001259 1.99007
v -0.08744 0.001259 2.00317
v -0.001627 -0.01574 1.42736
v -0.037114 0.000664 1.4285
v 0.035203 0.000664 1.4285
v 0.062185 0.000664 1.94729
v 0.098145 0.000664 2.01184
v 0.058239 -0.000362 1.96961
v -0.018085 -0.01574 1.85013
v -0.017485 -0.01574 1.83828
v -0.004087 -0.009818 1.87225
v -0.017294 -0.01574 1.85685
v 0.001115 -0.008563 1.8921
v 0.016156 -0.003317 1.5702
v 0.022108 0.000664 1.55642
v 0.02276 0.000664 1.57043
v 0.025167 0.000664 1.58384
v 0.022909 -0.003274 1.59639
v 0.029223 0.000664 1.59661
v 0.039275 0.000664 1.62085
v 0.037122 -0.003204 1.63248
v 0.043595 0.000664 1.63267
v 0.039669 -0.003179 1.64436
v 0.046278 0.000664 1.64454
v 0.039731 -0.003152 1.65646
v 0.046489 0.000664 1.65664
v 0.044462 0.000664 1.6691
v 0.038252 0.000664 1.69562
v 0.026106 -0.003437 1.92969
v 0.013805 -0.00511 1.89582
v 0.043123 0.000664 1.90866
v 0.034518 0.000664 1.88613
v 0.007656 -0.006365 1.86062
v 0.031412 0.000664 1.87015
v 0.031364 0.000664 1.85643
v 0.051198 0.000664 1.77461
v 0.053029 0.000664 1.79143
v 0.006931 -0.01574 1.79395
v 0.02109 -0.007058 1.69528
v 0.036484 0.000664 1.70993
v 0.025151 0.000664 1.52719
v 0.022981 0.000664 1.54195
v 0.008373 -0.007452 1.52667
v -0.001145 -0.01574 1.48158
v -0.018611 -0.01574 1.55537
v 0.006136 -0.007404 1.55592
v 0.009689 -0.00735 1.58337
v -0.012772 -0.01574 1.5956
v 0.030206 -0.007193 1.64414
v 0.002731 -0.01574 1.64357
v -0.009193 -0.01574 1.70901
v 0.020993 -0.007007 1.73272
v 0.036859 0.000664 1.45435
v 0.037309 0.000664 1.48268
v 0.0284 0.000664 1.51229
v 0.037297 0.000664 1.72509
v 0.041196 0.000664 1.74112
v 0.046524 0.000664 1.75774
v -0.015512 -0.01574 1.83286
v 0.03719 0.000664 1.83406
v 0.033542 0.000664 1.84451
v 0.049751 0.000664 1.80789
v 0.052166 0.000664 1.79972
v -0.061712 -0.000362 1.96553
v -0.10295 0.000664 2.016
v -0.081489 0.000664 1.96987
v -0.037051 0.000664 1.45465
v -0.017317 -0.011895 1.87054
v -0.068375 0.000664 1.93486
v -0.020135 -0.008563 1.88599
v -0.061441 0.000664 1.9091
v -0.058912 0.000664 1.89076
v -0.059253 0.000664 1.87801
v -0.025649 -0.010797 1.84374
v -0.02079 -0.013007 1.84781
v -0.02554 -0.010976 1.83705
v -0.023555 -0.011099 1.83083
v -0.061063 0.000664 1.86904
v -0.036969 -0.006655 1.84225
v -0.064182 0.000664 1.85564
v -0.064345 0.000664 1.84431
v -0.033008 -0.006921 1.82774
v -0.062227 0.000664 1.83457
v -0.058576 0.000664 1.82607
v -0.041129 -0.007434 1.55723
v -0.045203 0.000664 1.62264
v -0.053947 0.000664 1.59913
v -0.053465 0.000664 1.72556
v -0.053289 0.000664 1.71037
v -0.046325 0.000664 1.75796
v -0.05061 0.000664 1.74157
v -0.015317 -0.006977 1.79904
v -0.038456 0.000664 1.48367
v -0.049366 0.000664 1.51409
v -0.053627 0.000664 1.52937
v -0.056792 0.000664 1.54444
v -0.058619 0.000664 1.55912
v -0.058863 0.000664 1.57323
v -0.057272 0.000664 1.58658
v -0.041513 0.000664 1.63406
v -0.039477 0.000664 1.64556
v -0.039957 0.000664 1.65738
v -0.042727 0.000664 1.66966
v -0.050597 0.000664 1.69606
v -0.042633 0.000664 1.77423
v -0.041654 0.000664 1.78988
v -0.04287 0.000664 1.79731
v -0.045575 0.000664 1.80441
v -0.034585 -0.003437 1.92221
v 0.000341 0.000664 1.91908
v -0.008486 0.000664 1.90577
v 0.010395 0.000664 1.93238
v 0.034299 0.000664 1.95894
v 0.063468 0.000664 1.98543
v -0.016712 0.000664 1.9205
v -0.025925 0.000664 1.93496
v -0.036144 0.000664 1.94914
v -0.047389 0.000664 1.96306
v -0.059675 0.000664 1.9767
v -0.07302 0.000664 1.99007
v -0.08744 0.000664 2.00317
vn 0.002318 0.002053 0.00132
vt 0.26294 0.37388
vn 0.001282 -0.001019 0.00294
vt 0.22329 0.35108
vn 0.003027 -0.001397 0.000462
vt 0.26286 0.32815
vn 0.002719 0.000485 -0.001923
vt 0.30251 0.35095
vn 0.000666 0.002744 -0.001831
vt 0.30259 0.39668
vn -0.001079 0.003122 0.000647
vt 0.26302 0.41962
vn -0.000771 0.00124 0.003032
vt 0.22337 0.39682
vn -0.000461 -0.001419 0.003017
vt 0.19972 0.30755
vn 0.001845 -0.002665 0.000906
vt 0.23679 0.28606
vn 0.001845 -0.002665 0.000906
vt 0.28879 0.28597
vn 0.002306 -0.001246 -0.002111
vt 0.32593 0.30734
vn 0.002306 -0.001246 -0.002111
vt 0.35199 0.3523
vn 0.000461 0.001419 -0.003017
vt 0.35207 0.39515
vn 0.000461 0.001419 -0.003017
vt 0.32616 0.44022
vn -0.001845 0.002665 -0.000906
vt 0.28908 0.46171
vn -0.001845 0.002665 -0.000906
vt 0.2371 0.4618
vn -0.002306 0.001246 0.002111
vt 0.19995 0.44044
vn -0.002306 0.001246 0.002111
vt 0.17389 0.39547
vn -0.000461 -0.001419 0.003017
vt 0.17381 0.35261
vn 0 0.002831 0.00182
vt 0.26263 0.37521
vn 0.000425 -0.000446 0.003309
vt 0.26263 0.32949
vn 0.002832 0.000571 0.001727
vt 0.30225 0.35237
vn 0.002407 0.002206 -0.000817
vt 0.30224 0.39813
vn -0.000425 0.002825 -0.001779
vt 0.26263 0.42094
vn -0.002832 0.001808 -0.000198
vt 0.22303 0.39813
vn -0.002407 0.000173 0.002346
vt 0.22302 0.35237
vn -0.000636 -0.001787 0.00278
vt 0.28864 0.28736
vn 0.002544 -0.001192 0.001853
vt 0.32575 0.3088
vn 0.002544 -0.001192 0.001853
vt 0.35173 0.35383
vn 0.00318 0.000596 -0.000927
vt 0.35172 0.39668
vn 0.00318 0.000596 -0.000927
vt 0.3257 0.44172
vn 0.000636 0.001787 -0.00278
vt 0.28857 0.4631
vn 0.000636 0.001787 -0.00278
vt 0.2367 0.4631
vn -0.002544 0.001192 -0.001853
vt 0.19957 0.44172
vn -0.002544 0.001192 -0.001853
vt 0.17355 0.39668
vn -0.00318 -0.000596 0.000927
vt 0.17354 0.35383
vn -0.00318 -0.000596 0.000927
vt 0.19952 0.3088
vn -0.000636 -0.001787 0.00278
vt 0.23663 0.28736
vn -0.001978 0.00229 0.001473
vt 0.26159 0.37399
vn -0.000487 -0.000463 0.003298
vt 0.30107 0.35089
vn 0.00146 0.001743 0.002481
vt 0.30134 0.39662
vn 0.001116 0.003169 -0.000198
vt 0.26186 0.41972
vn -0.001175 0.002388 -0.00206
vt 0.22212 0.39709
vn -0.003122 0.000181 -0.001244
vt 0.22185 0.35135
vn -0.002778 -0.001244 0.001435
vt 0.26132 0.32825
vn -0.000515 -0.002102 0.002578
vt 0.35056 0.35203
vn 0.002058 6.6e-05 0.002662
vt 0.35081 0.39489
vn 0.002058 6.6e-05 0.002662
vt 0.32508 0.44006
vn 0.002573 0.002168 8.4e-05
vt 0.2881 0.4617
vn 0.002573 0.002168 8.4e-05
vt 0.23612 0.46201
vn 0.000515 0.002102 -0.002578
vt 0.19888 0.4408
vn 0.000515 0.002102 -0.002578
vt 0.17263 0.39594
vn -0.002058 -6.6e-05 -0.002662
vt 0.17238 0.35308
vn -0.002058 -6.6e-05 -0.002662
vt 0.1981 0.30792
vn -0.002573 -0.002168 -8.4e-05
vt 0.23509 0.28627
vn -0.002573 -0.002168 -8.4e-05
vt 0.28706 0.28597
vn -0.000515 -0.002102 0.002578
vt 0.3243 0.30717
vn -0.003201 0.000875 0.000562
vt 0.26205 0.37463
vn -0.001214 -0.000928 0.002999
vt 0.3013 0.35111
vn -0.00047 0.002014 0.002655
vt 0.302 0.39686
vn -0.000601 0.00331 -0.000107
vt 0.26274 0.42034
vn -0.001476 0.001663 -0.002526
vt 0.22278 0.39806
vn -0.00222 -0.001279 -0.002183
vt 0.2221 0.35232
vn -0.002089 -0.002575 0.00058
vt 0.26135 0.3289
vn -0.000197 -0.002296 0.002453
vt 0.3508 0.3518
vn 0.000786 0.000844 0.003162
vt 0.35146 0.39465
vn 0.000786 0.000844 0.003162
vt 0.32616 0.44007
vn 0.000983 0.00314 0.000709
vt 0.28938 0.46207
vn 0.000983 0.00314 0.000709
vt 0.23737 0.46285
vn 0.000197 0.002296 -0.002453
vt 0.19995 0.44198
vn 0.000197 0.002296 -0.002453
vt 0.17328 0.39735
vn -0.000786 -0.000844 -0.003162
vt 0.17264 0.35451
vn -0.000786 -0.000844 -0.003162
vt 0.19797 0.30909
vn -0.000983 -0.00314 -0.000709
vt 0.23477 0.28713
vn -0.000983 -0.00314 -0.000709
vt 0.28664 0.28635
vn -0.000197 -0.002296 0.002453
vt 0.3241 0.30717
vn -0.003201 -0.000875 -0.000562
vt 0.26295 0.37436
vn -0.001476 -0.001663 0.002526
vt 0.30262 0.35161
vn -0.00222 0.001279 0.002183
vt 0.30251 0.39736
vn -0.002089 0.002575 -0.00058
vt 0.26285 0.42009
vn -0.001214 0.000928 -0.002999
vt 0.2233 0.39719
vn -0.00047 -0.002014 -0.002655
vt 0.22339 0.35143
vn -0.000601 -0.00331 0.000107
vt 0.26306 0.32864
vn 0.000197 -0.002296 0.002453
vt 0.3521 0.35318
vn -0.000786 0.000844 0.003162
vt 0.35199 0.39603
vn -0.000786 0.000844 0.003162
vt 0.32587 0.441
vn -0.000983 0.00314 0.000709
vt 0.28869 0.46231
vn -0.000983 0.00314 0.000709
vt 0.23682 0.4622
vn -0.000197 0.002296 -0.002453
vt 0.19974 0.44072
vn -0.000197 0.002296 -0.002453
vt 0.17382 0.39563
vn 0.000786 -0.000844 -0.003162
vt 0.1739 0.35278
vn 0.000786 -0.000844 -0.003162
vt 0.19999 0.30781
vn 0.000983 -0.00314 -0.000709
vt 0.23715 0.28646
vn 0.000983 -0.00314 -0.000709
vt 0.28916 0.28657
vn 0.000197 -0.002296 0.002453
vt 0.32621 0.30809
vn -0.001978 -0.00229 -0.001473
vt 0.26282 0.37487
vn -0.001175 -0.002388 0.00206
vt 0.30229 0.35177
vn -0.003122 -0.000181 0.001244
vt 0.30256 0.3975
vn -0.002778 0.001244 -0.001435
vt 0.26309 0.42061
vn -0.000487 0.000463 -0.003298
vt 0.22335 0.39797
vn 0.00146 -0.001743 -0.002481
vt 0.22308 0.35223
vn 0.001116 -0.003169 0.000198
vt 0.26255 0.32913
vn 0.000515 -0.002102 0.002578
vt 0.35178 0.35292
vn -0.002058 6.6e-05 0.002662
vt 0.35204 0.39577
vn -0.002058 6.6e-05 0.002662
vt 0.32631 0.44094
vn -0.002573 0.002168 8.4e-05
vt 0.28933 0.46258
vn -0.002573 0.002168 8.4e-05
vt 0.23735 0.46289
vn -0.000515 0.002102 -0.002578
vt 0.20011 0.44168
vn -0.000515 0.002102 -0.002578
vt 0.17386 0.39682
vn 0.002058 -6.6e-05 -0.002662
vt 0.1736 0.35397
vn 0.002058 -6.6e-05 -0.002662
vt 0.19933 0.3088
vn 0.002573 -0.002168 -8.4e-05
vt 0.23631 0.28715
vn 0.002573 -0.002168 -8.4e-05
vt 0.28829 0.28685
vn 0.000515 -0.002102 0.002578
vt 0.32553 0.30806
vn 0 -0.002831 -0.00182
vt 0.2631 0.3737
vn -0.000425 -0.002825 0.001779
vt 0.2631 0.32797
vn -0.002832 -0.001808 0.000198
vt 0.30271 0.35078
vn -0.002407 -0.000173 -0.002346
vt 0.30271 0.39654
vn 0.000425 0.000446 -0.003309
vt 0.2631 0.41942
vn 0.002832 -0.000571 -0.001727
vt 0.22349 0.39654
vn 0.002407 -0.002206 0.000817
vt 0.22349 0.35078
vn 0.000636 -0.001787 0.00278
vt 0.28903 0.2858
vn -0.002544 -0.001192 0.001853
vt 0.32617 0.30719
vn -0.002544 -0.001192 0.001853
vt 0.35219 0.35222
vn -0.00318 0.000596 -0.000927
vt 0.3522 0.39508
vn -0.00318 0.000596 -0.000927
vt 0.32621 0.44011
vn -0.000636 0.001787 -0.00278
vt 0.28911 0.46154
vn -0.000636 0.001787 -0.00278
vt 0.23709 0.46154
vn 0.002544 0.001192 -0.001853
vt 0.19999 0.44011
vn 0.002544 0.001192 -0.001853
vt 0.174 0.39508
vn 0.00318 -0.000596 0.000927
vt 0.17401 0.35222
vn 0.00318 -0.000596 0.000927
vt 0.20003 0.30719
vn 0.000636 -0.001787 0.00278
vt 0.23716 0.2858
vn 0.001978 -0.00229 -0.001473
vt 0.26169 0.37403
vn 0.000487 -0.002808 0.00179
vt 0.22202 0.35128
vn -0.00146 -0.002981 -0.000556
vt 0.26156 0.3283
vn -0.001116 -0.001135 -0.002965
vt 0.30124 0.35105
vn 0.001175 0.000883 -0.003028
vt 0.30137 0.39679
vn 0.003122 0.001056 -0.000681
vt 0.26182 0.41977
vn 0.002778 -0.000789 0.001728
vt 0.22215 0.39701
vn 0.000515 -0.001473 0.002982
vt 0.1984 0.30777
vn -0.002058 -0.002449 0.001044
vt 0.23546 0.28624
vn -0.002058 -0.002449 0.001044
vt 0.28743 0.28609
vn -0.002573 -0.000976 -0.001938
vt 0.32461 0.30741
vn -0.002573 -0.000976 -0.001938
vt 0.35072 0.35235
vn -0.000515 0.001473 -0.002982
vt 0.35085 0.39521
vn -0.000515 0.001473 -0.002982
vt 0.32498 0.44029
vn 0.002058 0.002449 -0.001044
vt 0.28793 0.46183
vn 0.002058 0.002449 -0.001044
vt 0.23596 0.46197
vn 0.002573 0.000976 0.001938
vt 0.19878 0.44065
vn 0.002573 0.000976 0.001938
vt 0.17266 0.39571
vn 0.000515 -0.001473 0.002982
vt 0.17254 0.35286
vn 0.003201 -0.000875 -0.000562
vt 0.26222 0.37363
vn 0.001214 -0.002343 0.002089
vt 0.22255 0.35088
vn 0.00047 -0.003252 -0.00073
vt 0.26211 0.32791
vn 0.000601 -0.001276 -0.003056
vt 0.30178 0.35071
vn 0.001476 0.001608 -0.002562
vt 0.30187 0.39646
vn 0.00222 0.002516 0.000258
vt 0.26232 0.41936
vn 0.002089 0.000541 0.002583
vt 0.22266 0.39664
vn 0.000197 -0.001279 0.003107
vt 0.19895 0.30737
vn -0.000786 -0.003227 0.000545
vt 0.23601 0.28585
vn -0.000786 -0.003227 0.000545
vt 0.28803 0.28573
vn -0.000983 -0.001948 -0.002562
vt 0.32518 0.30708
vn -0.000983 -0.001948 -0.002562
vt 0.35127 0.35206
vn -0.000197 0.001279 -0.003107
vt 0.35135 0.39491
vn -0.000197 0.001279 -0.003107
vt 0.32543 0.44
vn 0.000786 0.003227 -0.000545
vt 0.28835 0.46147
vn 0.000786 0.003227 -0.000545
vt 0.23647 0.46159
vn 0.000983 0.001948 0.002562
vt 0.19929 0.44028
vn 0.000983 0.001948 0.002562
vt 0.17318 0.39531
vn 0.000197 -0.001279 0.003107
vt 0.17307 0.35245
vn 0.003201 0.000875 0.000562
vt 0.26227 0.3742
vn 0.001476 -0.001608 0.002562
vt 0.22282 0.35103
vn 0.00222 -0.002516 -0.000258
vt 0.26257 0.32847
vn 0.002089 -0.000541 -0.002583
vt 0.30203 0.35155
vn 0.001214 0.002343 -0.002089
vt 0.30173 0.3973
vn 0.00047 0.003252 0.00073
vt 0.26197 0.41992
vn 0.000601 0.001276 0.003056
vt 0.22251 0.39678
vn -0.000197 -0.001279 0.003107
vt 0.19964 0.30728
vn 0.000786 -0.003227 0.000545
vt 0.23691 0.28614
vn 0.000786 -0.003227 0.000545
vt 0.28878 0.28648
vn 0.000983 -0.001948 -0.002562
vt 0.32578 0.30811
vn 0.000983 -0.001948 -0.002562
vt 0.3515 0.35331
vn 0.000197 0.001279 -0.003107
vt 0.35123 0.39616
vn 0.000197 0.001279 -0.003107
vt 0.32495 0.44102
vn -0.000786 0.003227 -0.000545
vt 0.2877 0.46221
vn -0.000786 0.003227 -0.000545
vt 0.23569 0.46187
vn -0.000983 0.001948 0.002562
vt 0.19873 0.4402
vn -0.000983 0.001948 0.002562
vt 0.17304 0.39499
vn -0.000197 -0.001279 0.003107
vt 0.17333 0.35214
vn -0.003218 0.000962 0.000217
vt 0.62641 0.1357
vn -0.003353 -0.000197 0.000217
vt 0.64602 0.15989
vn -0.003271 9e-06 0.000794
vt 0.60659 0.18892
vn -0.003079 0.001129 0.000756
vt 0.58953 0.16785
vn -0.002695 0.002004 0.000217
vt 0.60497 0.11339
vn -0.002514 0.002119 0.000721
vt 0.57059 0.14816
vn -0.001847 0.002805 0.000217
vt 0.58221 0.09303
vn -0.001641 0.002855 0.000694
vt 0.54992 0.12981
vn -0.000776 0.003268 0.000217
vt 0.55905 0.0741
vn -0.000567 0.003247 0.000679
vt 0.52768 0.11259
vn 0.000388 0.003336 0.000217
vt 0.66451 0.54242
vn -0.000776 0.003268 0.000217
vt 0.64975 0.56845
vn -0.000567 0.003247 0.000679
vt 0.60656 0.54389
vn 0.000578 0.003246 0.000676
vt 0.62114 0.5198
vn 0.001506 0.003002 0.000217
vt 0.67838 0.5152
vn 0.001652 0.002851 0.000688
vt 0.63379 0.49515
vn 0.002442 0.002306 0.000217
vt 0.69035 0.48667
vn 0.002523 0.00211 0.000711
vt 0.64438 0.46989
vn 0.003083 0.001332 0.000217
vt 0.7 0.45708
vn 0.003086 0.001117 0.000744
vt 0.65281 0.44402
vn 0.003353 0.000197 0.000217
vt 0.70713 0.42668
vn 0.003274 -6e-06 0.000781
vt 0.65899 0.41766
vn 0.003218 -0.000962 0.000217
vt 0.71158 0.39573
vn 0.003065 -0.001123 0.000818
vt 0.66283 0.39096
vn 0.002695 -0.002004 0.000217
vt 0.71324 0.36449
vn 0.002489 -0.002099 0.000851
vt 0.66425 0.36413
vn 0.001847 -0.002805 0.000217
vt 0.71204 0.33321
vn 0.001617 -0.002819 0.000876
vt 0.66323 0.33735
vn 0.000776 -0.003268 0.000217
vt 0.70796 0.30216
vn 0.000554 -0.003198 0.00089
vt 0.65975 0.31083
vn -0.000388 -0.003336 0.000217
vt 0.70098 0.27162
vn -0.000574 -0.003194 0.000892
vt 0.65379 0.28477
vn -0.001506 -0.003002 0.000217
vt 0.69116 0.24187
vn -0.001633 -0.002807 0.000882
vt 0.6454 0.25937
vn -0.002442 -0.002306 0.000217
vt 0.67861 0.21318
vn -0.002499 -0.002083 0.00086
vt 0.63466 0.23481
vn -0.003083 -0.001332 0.000217
vt 0.6635 0.18578
vn -0.003068 -0.001106 0.00083
vt 0.62168 0.21128
vn -0.003314 0.000584 0
vt 0.5717 0.21206
vn -0.003314 0.000584 0
vt 0.55719 0.19377
vn -0.003314 0.000584 0
vt 0.56585 0.18609
vn -0.003314 0.000584 0
vt 0.58106 0.20516
vn -0.003314 -0.000584 0
vt 0.58463 0.23155
vn -0.003314 -0.000584 0
vt 0.59459 0.22549
vn -0.002915 -0.001683 0
vt 0.59583 0.25211
vn -0.002915 -0.001683 0
vt 0.6063 0.24697
vn -0.002163 -0.002578 0
vt 0.60514 0.27362
vn -0.002163 -0.002578 0
vt 0.61604 0.26946
vn -0.001151 -0.003163 0
vt 0.61244 0.29591
vn -0.001151 -0.003163 0
vt 0.62369 0.29278
vn 0 -0.003366 0
vt 0.61765 0.31878
vn 0 -0.003366 0
vt 0.62915 0.31671
vn 0.001151 -0.003163 0
vt 0.62072 0.34203
vn 0.001151 -0.003163 0
vt 0.63238 0.34103
vn 0.002163 -0.002578 0
vt 0.62165 0.36544
vn 0.002163 -0.002578 0
vt 0.63339 0.36551
vn 0.002915 -0.001683 0
vt 0.62072 0.38884
vn 0.002915 -0.001683 0
vt 0.63227 0.38996
vn 0.003314 -0.000584 0
vt 0.61747 0.41202
vn 0.003314 -0.000584 0
vt 0.62891 0.41415
vn 0.003314 0.000584 0
vt 0.61227 0.43479
vn 0.003314 0.000584 0
vt 0.62347 0.4379
vn 0.002915 0.001683 0
vt 0.60524 0.45702
vn 0.002915 0.001683 0
vt 0.61607 0.46109
vn 0.002163 0.002578 0
vt 0.59645 0.47858
vn 0.002163 0.002578 0
vt 0.60679 0.48361
vn 0.001151 0.003163 0
vt 0.5857 0.49929
vn 0.001151 0.003163 0
vt 0.59555 0.50529
vn 0 0.003366 0
vt 0.57209 0.51884
vn 0 0.003366 0
vt 0.58232 0.52575
vn -0.001151 0.003163 0
vt 0.52379 0.1613
vn 0 0.003366 0
vt 0.50379 0.14838
vn 0 0.003366 0
vt 0.51073 0.13795
vn -0.001151 0.003163 0
vt 0.53066 0.15211
vn -0.002163 0.002578 0
vt 0.54126 0.17676
vn -0.002163 0.002578 0
vt 0.54905 0.16836
vn -0.000969 0.000171 0.003219
vt 0.55992 0.22064
vn -0.000969 0.000171 0.003219
vt 0.54623 0.20332
vn -0.000969 -0.000171 0.003219
vt 0.57214 0.23908
vn -0.000852 -0.000492 0.003219
vt 0.58271 0.2585
vn -0.000632 -0.000754 0.003219
vt 0.59149 0.2788
vn -0.000336 -0.000924 0.003219
vt 0.59838 0.29981
vn 0 -0.000984 0.003219
vt 0.60329 0.32136
vn 0.000336 -0.000924 0.003219
vt 0.60617 0.3433
vn 0.000632 -0.000754 0.003219
vt 0.60704 0.36547
vn 0.000852 -0.000492 0.003219
vt 0.60622 0.38757
vn 0.000969 -0.000171 0.003219
vt 0.60315 0.4094
vn 0.000969 0.000171 0.003219
vt 0.59822 0.43095
vn 0.000852 0.000492 0.003219
vt 0.59158 0.45202
vn 0.000632 0.000754 0.003219
vt 0.58335 0.47234
vn 0.000336 0.000924 0.003219
vt 0.57357 0.49142
vn 0 0.000984 0.003219
vt 0.56165 0.50775
vn -0.000336 0.000924 0.003219
vt 0.51538 0.17313
vn 0 0.000984 0.003219
vt 0.49827 0.16251
vn -0.000632 0.000754 0.003219
vt 0.53131 0.18732
vn 0.000632 -0.000754 0.003219
vt 0.01171 0.0858
vn 0.000852 -0.000492 0.003219
vt 0.00424 0.09893
vn 0.000969 -0.000171 0.003219
vt 0.00165 0.11386
vn 0.000969 0.000171 0.003219
vt 0.00424 0.12879
vn 0.000852 0.000492 0.003219
vt 0.01171 0.14192
vn 0.000632 0.000754 0.003219
vt 0.02314 0.15167
vn 0.000336 0.000924 0.003219
vt 0.03718 0.15685
vn 0 0.000984 0.003219
vt 0.05211 0.15685
vn -0.000336 0.000924 0.003219
vt 0.06614 0.15167
vn -0.000632 0.000754 0.003219
vt 0.07758 0.14192
vn -0.000969 0.000171 0.003219
vt 0.08504 0.12879
vn -0.000969 0.000171 0.003219
vt 0.08763 0.11386
vn -0.000969 -0.000171 0.003219
vt 0.08504 0.09893
vn -0.000852 -0.000492 0.003219
vt 0.07758 0.0858
vn -0.000632 -0.000754 0.003219
vt 0.06614 0.07605
vn -0.000336 -0.000924 0.003219
vt 0.05211 0.07087
vn 0 -0.000984 0.003219
vt 0.03718 0.07087
vn 0.000336 -0.000924 0.003219
vt 0.02314 0.07605
vn -0.002176 -0.000349 0.002544
vt 0.22221 0.24364
vn -0.002088 -0.001006 0.002441
vt 0.21444 0.21432
vn -0.004176 -0.002011 0.004881
vt 0.28824 0.21582
vn -0.001084 -0.001919 0.002544
vt 0.28394 0.24493
vn -0.002468 -0.001188 0.001956
vt 0.20849 0.1807
vn -0.004935 -0.002377 0.003912
vt 0.29621 0.18188
vn -0.003218 -0.000405 0.000898
vt 0.20372 0.14618
vn -0.00169 -0.002768 0.000898
vt 0.30533 0.1473
vn -0.008954 0.001437 0.001783
vt 0.19484 0.11214
vn -0.005969 -0.002875 0.001188
vt 0.23225 0.10711
vn -0.005969 -0.002875 0.001188
vt 0.27249 0.10623
vn -0.006706 -0.006104 0.001783
vt 0.30992 0.11142
vn -0.000516 -0.002259 0.002441
vt 0.35663 0.24369
vn -0.000516 -0.002259 0.002441
vt 0.29937 0.22152
vn -0.000516 -0.002259 0.002441
vt 0.29007 0.23758
vn -0.001219 -0.005341 0.003912
vt 0.37669 0.21622
vn 0.001111 -0.003047 0.000898
vt 0.39836 0.18811
vn -0.001474 -0.006459 0.001188
vt 0.34641 0.12196
vn -0.001474 -0.006459 0.001188
vt 0.38405 0.13703
vn 0.000591 -0.009049 0.001783
vt 0.41654 0.15672
vn 0.000487 -0.002133 0.002557
vt 0.33973 0.26927
vn 0.00289 -0.003624 0.004881
vt 0.40728 0.29737
vn 0.002112 -0.000629 0.002544
vt 0.3833 0.31424
vn 0.003415 -0.004283 0.003912
vt 0.43682 0.28051
vn 0.003075 -0.001032 0.000898
vt 0.46759 0.26281
vn 0.004131 -0.00518 0.001188
vt 0.44594 0.18096
vn 0.004131 -0.00518 0.001188
vt 0.47456 0.20985
vn 0.007444 -0.00518 0.001783
vt 0.49661 0.2409
vn 0.004635 0 0.004881
vt 0.43447 0.36605
vn 0.001809 0.001259 0.002544
vt 0.40576 0.36905
vn 0.005478 0 0.003912
vt 0.46783 0.36382
vn 0.002724 0.001761 0.000898
vt 0.50282 0.35886
vn 0.006625 0 0.001188
vt 0.5142 0.2746
vn 0.006625 0 0.001188
vt 0.52939 0.31205
vn 0.008691 0.00259 0.001782
vt 0.53806 0.34896
vn 0.00289 0.003624 0.004881
vt 0.4234 0.4384
vn 0.000144 0.002199 0.002544
vt 0.39741 0.42391
vn 0.003415 0.004283 0.003912
vt 0.45747 0.45394
vn 0.000322 0.003227 0.000898
vt 0.49955 0.46324
vn 0.004131 0.00518 0.001188
vt 0.54242 0.38604
vn 0.004131 0.00518 0.001188
vt 0.54374 0.42504
vn 0.003394 0.00841 0.001783
vt 0.54188 0.46353
vn 0.000144 0.002199 0.002544
vt 0.12775 0.30948
vn 0.00289 0.003624 0.004881
vt 0.09749 0.2988
vn -0.001031 0.004519 0.004881
vt 0.14646 0.24277
vn -0.00163 0.001484 0.002544
vt 0.1659 0.26597
vn 0.003415 0.004283 0.003912
vt 0.06451 0.2809
vn -0.001219 0.005341 0.003912
vt 0.12712 0.21552
vn 0.000322 0.003227 0.000898
vt 0.03571 0.25591
vn -0.002323 0.002264 0.000898
vt 0.10996 0.18572
vn 0.003394 0.00841 0.001783
vt 0.00679 0.2351
vn -0.001474 0.006459 0.001188
vt 0.03053 0.20697
vn -0.001474 0.006459 0.001188
vt 0.06273 0.17902
vn -0.004459 0.007897 0.001783
vt 0.09099 0.15703
vn -0.005969 0.002875 0.001188
vt 0.1233 0.13868
vn -0.005969 0.002875 0.001188
vt 0.1593 0.12276
vn -0.000594 0.002604 -0.002048
vt 0.05753 0.17089
vn -0.001598 0.002004 -0.002181
vt 0.08724 0.15041
vn 0.00057 0.002499 -0.002181
vt 0.00144 0.22696
vn -0.000594 0.002604 -0.002048
vt 0.02417 0.20025
vn -0.000675 0.002958 0.001456
vt 0.034 0.18497
vn -0.000594 0.002604 -0.002048
vt 0.05293 0.16423
vn -0.000594 0.002604 -0.002048
vt 0.01626 0.18521
vn 0.001665 0.002088 -0.002048
vt 0.55298 0.42498
vn 0.00057 0.002499 -0.002181
vt 0.55104 0.46016
vn 0.002309 0.001112 -0.002181
vt 0.54515 0.34756
vn 0.001665 0.002088 -0.002048
vt 0.55181 0.38356
vn 0.002671 0 -0.002048
vt 0.53918 0.31141
vn 0.002309 -0.001112 -0.002181
vt 0.50261 0.23725
vn 0.002671 0 -0.002048
vt 0.52199 0.26859
vn 0.001665 -0.002088 -0.002048
vt 0.48357 0.20573
vn 0.00057 -0.002499 -0.002181
vt 0.42066 0.15105
vn 0.001665 -0.002088 -0.002048
vt 0.45075 0.17234
vn -0.000594 -0.002604 -0.002048
vt 0.39068 0.12965
vn -0.001598 -0.002004 -0.002181
vt 0.3115 0.1045
vn -0.000594 -0.002604 -0.002048
vt 0.3475 0.11215
vn -0.002406 -0.001159 -0.002048
vt 0.27556 0.09681
vn -0.002563 0 -0.002181
vt 0.1936 0.10503
vn -0.002406 -0.001159 -0.002048
vt 0.22951 0.09769
vn -0.002406 0.001159 -0.002048
vt 0.15795 0.11303
vn -0.002406 0.001159 -0.002048
vt 0.11775 0.13077
vn -0.002221 -0.001069 0.002292
vt 0.25198 0.07977
vn -0.002406 -0.001159 -0.002048
vt 0.27844 0.09904
vn -0.002406 -0.001159 -0.002048
vt 0.28063 0.06403
vn -0.002406 -0.001159 -0.002048
vt 0.22614 0.10007
vn -0.000548 -0.002403 0.002292
vt 0.37538 0.10467
vn -0.000594 -0.002604 -0.002048
vt 0.39227 0.13273
vn -0.000594 -0.002604 -0.002048
vt 0.4079 0.10134
vn -0.000594 -0.002604 -0.002048
vt 0.34359 0.11309
vn 0.001537 -0.001927 0.002292
vt 0.47942 0.17673
vn 0.001665 -0.002088 -0.002048
vt 0.48377 0.2092
vn 0.001665 -0.002088 -0.002048
vt 0.51058 0.18663
vn 0.001665 -0.002088 -0.002048
vt 0.4469 0.17172
vn 0.002465 0 0.002292
vt 0.54672 0.28354
vn 0.002671 0 -0.002048
vt 0.53803 0.31513
vn 0.002671 0 -0.002048
vt 0.57152 0.30486
vn 0.002671 0 -0.002048
vt 0.51861 0.26645
vn 0.001537 0.001927 0.002292
vt 0.5701 0.40503
vn 0.001665 0.002088 -0.002048
vt 0.55046 0.43118
vn 0.001665 0.002088 -0.002048
vt 0.58535 0.43396
vn 0.001665 0.002088 -0.002048
vt 0.54916 0.37975
vn -0.002221 0.001069 0.002292
vt 0.13056 0.10584
vn -0.002406 0.001159 -0.002048
vt 0.16226 0.11389
vn -0.002406 0.001159 -0.002048
vt 0.1513 0.08056
vn -0.002406 0.001159 -0.002048
vt 0.11489 0.13467
vn 0 0 0.010097
vt 0.12051 0.81867
vn 0 0 0.003366
vt 0.12051 0.86721
vn 0 0 0.013462
vt 0.08618 0.90154
vn 0 0 0.003366
vt 0.03764 0.90154
vn 0 0 0.010097
vt 0.00331 0.86721
vn 0 0 0.003366
vt 0.00331 0.81867
vn 0 0 0.013462
vt 0.03765 0.78497
vn 0 0 0.003366
vt 0.08617 0.78371
vn -0.002683 0.002032 0
vt 0.0346 0.75161
vn -0.003334 -0.00046 0
vt 0.08296 0.74743
vn 0 0 0.013462
vt 0.086 0.78264
vn 0 0 0.003366
vt 0.03764 0.78681
vn -0.00046 0.003334 0
vt 0.03441 0.75122
vn -0.002683 0.002032 0
vt 0.08279 0.74734
vn 0 0 0.003366
vt 0.08562 0.78256
vn 0 0 0.010097
vt 0.03724 0.78644
vn 0.002032 0.002683 0
vt 0.03349 0.75191
vn -0.00046 0.003334 0
vt 0.08191 0.74852
vn 0 0 0.010097
vt 0.08437 0.78377
vn 0 0 0.003366
vt 0.03596 0.78716
vn 0.003334 0.00046 0
vt 0.03588 0.75093
vn 0.002032 0.002683 0
vt 0.08426 0.74716
vn 0.002683 -0.002032 0
vt 0.0334 0.75036
vn 0.003334 0.00046 0
vt 0.08182 0.7469
vn 0 0 0.013462
vt 0.08434 0.78215
vn 0 0 0.003366
vt 0.03592 0.78561
vn 0.00046 -0.003334 0
vt 0.03503 0.75203
vn 0.002683 -0.002032 0
vt 0.0834 0.74807
vn 0 0 0.003366
vt 0.08629 0.78328
vn 0 0 0.010097
vt 0.03791 0.78725
vn -0.002032 -0.002683 0
vt 0.03422 0.74958
vn 0.00046 -0.003334 0
vt 0.08266 0.7464
vn 0 0 0.010097
vt 0.08498 0.78166
vn 0 0 0.003366
vt 0.03654 0.78485
vn -0.003334 -0.00046 0
vt 0.03428 0.75117
vn -0.002032 -0.002683 0
vt 0.08267 0.74735
vn 0 0 0.003366
vt 0.08545 0.78258
vn 0 0 0.013462
vt 0.03707 0.7864
vn 0 0 -0.003366
vt 0.03361 0.52041
vn 0 0 -0.003366
vt 0.02036 0.51865
vn 0 0 -0.003366
vt 0.01297 0.50659
vn 0 0 -0.003366
vt 0.01627 0.49283
vn 0 0 -0.003366
vt 0.02834 0.48544
vn 0 0 -0.003366
vt 0.0421 0.48874
vn 0 0 -0.003366
vt 0.04949 0.5008
vn 0 0 -0.003366
vt 0.0467 0.51611
vn -0.002167 0.000898 -0.002413
vt 0.04343 0.70862
vn -0.002167 0.000898 -0.002413
vt 0.0669 0.7066
vn -0.000898 0.002167 -0.002413
vt 0.04351 0.70828
vn -0.002167 0.000898 -0.002413
vt 0.06698 0.70641
vn 0.000898 0.002167 -0.002413
vt 0.04301 0.70908
vn -0.000898 0.002167 -0.002413
vt 0.0665 0.70743
vn 0.002167 0.000898 -0.002413
vt 0.04412 0.70914
vn 0.000898 0.002167 -0.002413
vt 0.0673 0.70526
vn 0.002167 -0.000898 -0.002413
vt 0.04287 0.70751
vn 0.002167 0.000898 -0.002413
vt 0.06636 0.70584
vn 0.000898 -0.002167 -0.002413
vt 0.04405 0.70908
vn 0.002167 -0.000898 -0.002413
vt 0.06752 0.70717
vn -0.000898 -0.002167 -0.002413
vt 0.04393 0.7068
vn 0.000898 -0.002167 -0.002413
vt 0.06743 0.70524
vn -0.002167 0.000898 -0.002413
vt 0.04343 0.70827
vn -0.000898 -0.002167 -0.002413
vt 0.0669 0.70639
vn -0.002927 0.001212 0.001137
vt 0.03757 0.68297
vn -0.002927 0.001212 0.001137
vt 0.0683 0.68033
vn -0.001212 0.002927 0.001137
vt 0.03781 0.68259
vn -0.002927 0.001212 0.001137
vt 0.06855 0.68015
vn 0.001212 0.002927 0.001137
vt 0.03756 0.68334
vn -0.001212 0.002927 0.001137
vt 0.06832 0.68119
vn 0.000898 0.002167 -0.002413
vt 0.06562 0.70692
vn 0.002167 0.000898 -0.002413
vt 0.04217 0.70528
vn 0.002927 0.001212 0.001137
vt 0.03871 0.68064
vn 0.001212 0.002927 0.001137
vt 0.0695 0.67944
vn 0.002927 -0.001212 0.001137
vt 0.03741 0.68175
vn 0.002927 0.001212 0.001137
vt 0.06817 0.67961
vn 0.001212 -0.002927 0.001137
vt 0.03831 0.68339
vn 0.002927 -0.001212 0.001137
vt 0.06905 0.68091
vn -0.001212 -0.002927 0.001137
vt 0.03857 0.68104
vn 0.001212 -0.002927 0.001137
vt 0.06934 0.67899
vn -0.002927 0.001212 0.001137
vt 0.03768 0.68261
vn -0.001212 -0.002927 0.001137
vt 0.06842 0.6801
vn 0 0 -0.003366
vt 0.03206 0.5205
vn 0 0 -0.003366
vt 0.04615 0.51929
vn 0 0 -0.003366
vt 0.03334 0.52009
vn 0 0 -0.003366
vt 0.04744 0.51897
vn 0 0 -0.003366
vt 0.03456 0.52081
vn 0 0 -0.003366
vt 0.04867 0.51982
vn 0 0 -0.003366
vt 0.03453 0.51921
vn 0 0 -0.003366
vt 0.04865 0.51823
vn 0 0 -0.003366
vt 0.03364 0.52089
vn 0 0 -0.003366
vt 0.04774 0.51976
vn 0 0 -0.003366
vt 0.03607 0.51851
vn 0 0 -0.003366
vt 0.05019 0.51756
vn 0 0 -0.003366
vt 0.03267 0.52014
vn 0 0 -0.003366
vt 0.04677 0.51898
vn -0.000186 0.003323 -0.000502
vt 0.36603 0.70452
vn -0.001831 0.002812 -0.000254
vt 0.18575 0.50829
vn -0.00229 0.002464 0.000111
vt 0.33772 0.72272
vn -0.001956 0.002739 1.1e-05
vt 0.40478 0.80072
vn -0.000469 0.003259 -0.000699
vt 0.42321 0.75053
vn -0.001554 0.002982 0.000132
vt 0.47578 0.83734
vn -6.5e-05 0.003353 -0.00028
vt 0.53744 0.78762
vn -0.001338 0.002849 0.001192
vt 0.54427 0.87733
vn 0 0.003366 0
vt 0.59043 0.85066
vn -0.00311 0.001228 0.000384
vt 0.23711 0.68119
vn -0.003108 0.001226 0.000409
vt 0.2814 0.7846
vn -0.002748 0.001933 0.000197
vt 0.35279 0.83531
vn -0.002469 0.001892 0.001284
vt 0.41233 0.86235
vn -0.002246 0.000865 0.002352
vt 0.51756 0.92017
vn -0.000622 0.003053 0.001273
vt 0.26104 0.49618
vn -0.001798 0.002675 0.000967
vt 0.28574 0.75676
vn -0.000874 0.003101 0.000974
vt 0.33154 0.6927
vn 0.000563 0.003192 0.000905
vt 0.41345 0.78748
vn 0.002196 0.002464 0.000658
vt 0.50704 0.71173
vn 0.001192 0.003022 0.00088
vt 0.42122 0.65419
vn 0.000604 0.00329 0.00037
vt 0.46793 0.8676
vn 0.001782 0.002833 0.000355
vt 0.52103 0.85006
vn 0 0.003366 0
vt 0.47993 0.93647
vn 0.000809 0.003262 -0.000182
vt 0.50225 0.92756
vn -0.00174 0.002764 0.000812
vt 0.32604 0.84875
vn -0.000496 0.003256 0.000694
vt 0.41367 0.90326
vn 0 0.003366 0
vt 0.45645 0.94743
vn 0.000361 -0.00329 0.000612
vt 0.22017 0.47694
vn 0.000297 -0.003335 0.000345
vt 0.33696 0.70907
vn -0.000791 -0.003249 0.000379
vt 0.25101 0.7634
vn 0.001029 -0.003073 0.00091
vt 0.41445 0.79577
vn 0.001406 -0.003054 0.000151
vt 0.43389 0.66259
vn 0.001505 -0.002955 0.000575
vt 0.55552 0.74102
vn 0.001282 -0.002821 0.001313
vt 0.56484 0.83953
vn 0.000856 -0.002914 0.001449
vt 0.48028 0.8761
vn 0.000985 -0.002931 0.001329
vt 0.50406 0.9438
vn 0.00046 -0.003066 0.00131
vt 0.50101 0.94769
vn -9.7e-05 -0.003296 0.000672
vt 0.33236 0.83741
vn 0.000726 -0.002896 0.001553
vt 0.42326 0.91117
vn 0.000526 -0.002995 0.001442
vt 0.47843 0.96095
vn 0.002907 0.00067 0.001557
vt 0.26303 0.49578
vn 0.003091 0.000427 0.001261
vt 0.31319 0.71734
vn 0.003056 -5.9e-05 0.001409
vt 0.25032 0.76524
vn 0.002942 0.00082 0.001413
vt 0.39911 0.78624
vn 0.002998 0.001278 0.000841
vt 0.37973 0.67451
vn 0.002868 0.001458 0.000987
vt 0.48248 0.75181
vn 0.002586 0.001374 0.001658
vt 0.53334 0.83606
vn 0.002479 0.000572 0.002203
vt 0.46613 0.8647
vn 0.002495 0.000606 0.002176
vt 0.51927 0.91855
vn 0.002314 -0.000139 0.00244
vt 0.50311 0.93138
vn 0.002983 -9.4e-05 0.001555
vt 0.33547 0.82818
vn 0.002522 0.000339 0.002202
vt 0.41153 0.89335
vn 0.002278 0.000198 0.00247
vt 0.48576 0.9452
vn -0.002357 0.002217 0.000926
vt 0.25767 0.47193
vn -0.002808 0.001735 0.000656
vt 0.26091 0.73521
vn -0.002369 0.002272 0.000746
vt 0.32546 0.68005
vn -0.001816 0.002723 0.000783
vt 0.43291 0.79228
vn -0.000987 0.003157 0.00062
vt 0.54643 0.79105
vn -0.001537 0.002886 0.000797
vt 0.42673 0.6753
vn -0.002031 0.002673 -0.000239
vt 0.51032 0.87961
vn -0.000999 0.003211 0.000124
vt 0.57049 0.87569
vn -0.002269 0.002292 -0.000961
vt 0.50568 0.9048
vn -0.001245 0.003072 -0.000581
vt 0.53635 0.90145
vn -0.002592 0.001996 0.000791
vt 0.35448 0.81843
vn -0.002518 0.002163 0.000554
vt 0.46087 0.90639
vn -0.002588 0.00191 -0.000991
vt 0.48914 0.91328
vn 0.000634 -0.003276 0.000443
vt 0.20887 0.47483
vn 0.000384 -0.003232 0.000857
vt 0.32678 0.71507
vn -0.001531 -0.002851 0.000925
vt 0.26971 0.75787
vn 0.002284 -0.002078 0.001339
vt 0.37978 0.75593
vn 0.00289 -0.001678 0.000402
vt 0.43121 0.64601
vn 0.003197 -0.000512 0.000919
vt 0.45571 0.69131
vn 0.003238 -0.000592 0.000702
vt 0.48093 0.78522
vn 0.002646 -0.001689 0.001214
vt 0.47425 0.82887
vn 0.003256 -0.000272 0.000807
vt 0.5187 0.88972
vn 0.002532 -0.001956 0.001043
vt 0.51887 0.93642
vn -0.000831 -0.002867 0.001555
vt 0.36403 0.82272
vn 0.001002 -0.002722 0.001707
vt 0.43397 0.90194
vn 0.001262 -0.002942 0.001039
vt 0.5003 0.94972
vn -0.003105 -0.001246 0.000361
vt 0.31189 0.72821
vn -0.002643 -0.001971 0.000674
vt 0.22326 0.5438
vn -0.002654 -0.00202 0.00045
vt 0.34426 0.69068
vn -0.002775 -0.001687 0.000883
vt 0.4072 0.76937
vn -0.003239 0.000292 0.000866
vt 0.34208 0.80441
vn -0.003103 -0.000161 0.001293
vt 0.44147 0.84775
vn -0.002683 0.001658 0.001173
vt 0.40123 0.8993
vn -0.002766 0.000474 0.001858
vt 0.4922 0.90586
vn -0.001868 0.002465 0.001327
vt 0.47917 0.949
vn -0.002255 -0.002433 0.000567
vt 0.37947 0.66181
vn -0.002522 -0.001992 0.001
vt 0.43351 0.72397
vn -0.002929 -0.000897 0.001394
vt 0.47268 0.77902
vn -0.001909 -0.001355 0.002418
vt 0.53855 0.87783
vn -0.003334 0.00046 0
vt 0.9868 0.04437
vn -0.002032 0.002683 0
vt 0.9868 0.05157
vn -0.002683 0.002032 0
vt 0.00988 0.05157
vn -0.003334 -0.00046 0
vt 0.00988 0.04437
vn 0.00046 0.003334 0
vt 0.9868 0.05877
vn -0.00046 0.003334 0
vt 0.00989 0.05877
vn 0.002683 0.002032 0
vt 0.9868 0.06598
vn 0.002032 0.002683 0
vt 0.00989 0.06598
vn 0.002683 0.002032 0
vt 0.98676 0.00915998
vn 0.003242 -0.000903 4e-06
vt 0.98676 0.01608
vn 0.003334 0.00046 0
vt 0.00985 0.01665
vn 0.002032 0.002683 0
vt 0.00985 0.00915998
vn 0.002057 -0.002664 5e-06
vt 0.98678 0.0253
vn 0.002376 -0.002384 5e-06
vt 0.00986 0.02377
vn -6.6e-05 -0.003365 0
vt 0.98679 0.02939
vn 0.00091 -0.00324 2e-06
vt 0.00987 0.03053
vn -0.002683 -0.002032 0
vt 0.98679 0.03697
vn -0.002032 -0.002683 0
vt 0.00988 0.03735
vn 0 -0.000233 -0.003357
vt 0.07176 0.35518
vn 0 -0.000233 -0.003357
vt 0.03005 0.35785
vn 0 -0.000233 -0.003357
vt 0.10476 0.33215
vn 0.00022 0.003356 -0.000115
vt 0.12319 0.91436
vn 0.000212 0.003359 1.6e-05
vt 0.13243 0.93695
vn -5e-06 0.003364 8.7e-05
vt 0.09994 0.99042
vn 0.002777 0.006115 -0.00012
vt 0.18818 0.79345
vn 0.001171 0.003155 -7e-05
vt 0.17702 0.82017
vn 0.004239 0.01274 0.000772
vt 0.18472 0.78126
vn 0.003144 0.005937 -0.000414
vt 0.1889 0.80056
vn 0.002196 0.006266 -0.00018
vt 0.17616 0.84228
vn 0.001624 0.002935 -0.000269
vt 0.08632 0.50601
vn 0.001739 0.002875 -0.000196
vt 0.07821 0.50796
vn 0.001593 0.002964 -6.6e-05
vt 0.07571 0.49314
vn 0.00182 0.002794 -0.000458
vt 0.07895 0.5225
vn 0.001653 0.002878 -0.000558
vt 0.08567 0.53508
vn 0.001764 0.002793 -0.000646
vt 0.07783 0.53675
vn 0.001707 0.002823 -0.000666
vt 0.0733 0.56457
vn 0.001513 0.002968 -0.00048
vt 0.07964 0.57631
vn 0.001709 0.002863 -0.000457
vt 0.0717 0.57811
vn 0.001552 0.002979 -0.000205
vt 0.07991 0.58933
vn 0.001681 0.002913 -0.000138
vt 0.07192 0.59121
vn 0.001469 0.003024 0.000163
vt 0.08257 0.60206
vn 0.001652 0.00293 0.000119
vt 0.07446 0.60397
vn 0.001567 0.002963 0.000308
vt 0.07918 0.61673
vn 0.001411 0.003042 0.000289
vt 0.09117 0.6435
vn 0.000254 0.00335 0.000194
vt 0.15735 0.88756
vn 0.000746 0.00328 -9.4e-05
vt 0.1628 0.84917
vn 0.000729 0.003279 -0.00021
vt 0.13443 0.86947
vn 0.001148 0.003145 -0.000342
vt 0.13799 0.84384
vn 0.000985 0.003218 -5.2e-05
vt 0.16146 0.81072
vn 0.000992 0.003215 -0.000101
vt 0.13753 0.82633
vn 0.000981 0.003214 0.00019
vt 0.13454 0.81194
vn 0.001163 0.00315 -0.000226
vt 0.09635 0.72946
vn 0.007551 0.022189 0.000978
vt 0.15034 0.73924
vn 0.001128 0.003171 -2e-06
vt 0.09827 0.74756
vn 0.001215 0.003135 0.000154
vt 0.11103 0.63887
vn 0.001428 0.003047 3.4e-05
vt 0.09618 0.65816
vn 0.001432 0.003035 0.000255
vt 0.06605 0.46337
vn 0.001361 0.003072 0.000195
vt 0.08568 0.45842
vn 0.001502 0.003008 0.000143
vt 0.07159 0.47822
vn 0.006733 0.015353 0.001231
vt 0.08799 0.40829
vn 0.004521 0.012653 9.6e-05
vt 0.12199 0.48216
vn 0.001373 0.003073 -3.8e-05
vt 0.09448 0.48863
vn 0.001232 0.003118 -0.000301
vt 0.09729 0.51821
vn 0.003112 0.009566 -0.000816
vt 0.12542 0.5256
vn 0.001115 0.003174 -9.3e-05
vt 0.09057 0.58681
vn 0.001996 0.006407 -0.000142
vt 0.12085 0.5797
vn 0.004011 0.012832 0.00017
vt 0.14728 0.64628
vn 0.001244 0.003121 -0.000197
vt 0.11951 0.67827
vn 0.001352 0.003082 -5.4e-05
vt 0.03242 0.38912
vn 0.001321 0.003093 0.00012
vt 0.04185 0.42126
vn 0.001342 0.003067 0.000347
vt 0.05961 0.44905
vn 0.001355 0.003075 -0.000196
vt 0.09883 0.67426
vn 0.001322 0.003073 -0.000373
vt 0.09865 0.692
vn 0.001308 0.003076 -0.000391
vt 0.09722 0.7107
vn 0.003938 0.012781 0.00144
vt 0.18153 0.77605
vn 0.001003 0.003178 0.00047
vt 0.12374 0.7896
vn 0.001007 0.0032 0.000266
vt 0.12971 0.7999
vn 0.001076 0.003162 0.000415
vt 0.10524 0.76431
vn 0.00112 0.003166 0.000222
vt 0.10099 0.75612
vn -8e-06 0.003364 0.000118
vt 0.26181 0.90577
vn -0.000192 0.003359 -8.1e-05
vt 0.28364 0.90591
vn -1e-05 0.003365 6e-05
vt 0.31647 0.94975
vn -0.001435 0.003044 -3.4e-05
vt 0.12078 0.36122
vn -0.003079 0.001309 0.000363
vt 0.19288 0.81523
vn -0.000351 0.003346 -7.1e-05
vt 0.2621 0.8719
vn -0.001568 0.006544 -8.8e-05
vt 0.19996 0.83103
vn -0.000784 0.003273 -4.4e-05
vt 0.24291 0.82717
vn -0.000619 0.003308 -2e-06
vt 0.24937 0.84611
vn -0.00079 0.00327 9.1e-05
vt 0.24047 0.81361
vn -0.009448 0.01757 0.000681
vt 0.19575 0.78514
vn -0.00207 0.00264 0.000271
vt 0.19141 0.79043
vn -0.003005 0.005986 -0.000388
vt 0.19402 0.7781
vn -0.003047 0.005847 -0.001292
vt 0.1906 0.77189
vn -0.000799 0.003265 0.000171
vt 0.24036 0.80366
vn -0.003342 0.013025 0.000183
vt 0.20794 0.78094
vn -0.000829 0.003261 9.8e-05
vt 0.2406 0.78876
vn -0.000879 0.003247 -0.00012
vt 0.23827 0.77675
vn -0.001064 0.003163 -0.000435
vt 0.20066 0.76647
vn -0.000907 0.003228 -0.000295
vt 0.234 0.76691
vn -0.000914 0.003201 -0.000499
vt 0.22853 0.75857
vn -0.001288 0.003108 -7.1e-05
vt 0.14807 0.47824
vn -0.001219 0.003108 0.000423
vt 0.16959 0.54619
vn -0.001209 0.003117 0.000385
vt 0.17291 0.51938
vn -0.001139 0.003166 9.2e-05
vt 0.20068 0.65316
vn -0.001176 0.003151 -0.000118
vt 0.1971 0.6372
vn -0.001075 0.003181 0.000235
vt 0.20143 0.67068
vn -0.001085 0.003176 0.000254
vt 0.20083 0.68891
vn -0.00104 0.003196 -0.000183
vt 0.17657 0.73938
vn -0.001395 0.003057 -0.000183
vt 0.13284 0.39531
vn -0.001328 0.003063 -0.000425
vt 0.15034 0.42738
vn -0.001306 0.003085 -0.000325
vt 0.15756 0.44441
vn -0.001391 0.003056 -0.000231
vt 0.1638 0.46051
vn -0.001422 0.003049 -0.000101
vt 0.16879 0.47585
vn -0.00135 0.003082 6.4e-05
vt 0.17213 0.49076
vn -0.001232 0.003124 0.000227
vt 0.17346 0.5053
vn -0.001228 0.003115 0.000338
vt 0.16849 0.55907
vn -0.001215 0.003137 8.2e-05
vt 0.169 0.57166
vn -0.001253 0.003119 -0.00017
vt 0.1721 0.58403
vn -0.001309 0.003081 -0.000344
vt 0.17756 0.59645
vn -0.001231 0.00312 -0.000278
vt 0.19119 0.62272
vn -0.001037 0.003198 0.000157
vt 0.20084 0.70688
vn -0.000924 0.003236 -4.3e-05
vt 0.20337 0.72359
vn -0.000883 0.003239 -0.00024
vt 0.20627 0.73117
vn -0.00089 0.003216 -0.000438
vt 0.21058 0.73815
vn 0.000142 0.003346 0.000333
vt 0.22343 0.86618
vn -0.0013 0.002911 0.001078
vt 0.18293 0.87217
vn -0.001795 0.002586 0.00119
vt 0.19047 0.85686
vn -0.001167 0.003008 0.000958
vt 0.17474 0.88789
vn -0.001046 0.003057 0.000941
vt 0.1547 0.92032
vn -0.000232 0.003338 0.000366
vt 0.13046 0.95479
vn 0.001356 0.002986 0.000757
vt 0.20268 0.86975
vn 0.000806 0.003203 0.000645
vt 0.21654 0.88235
vn 0.000703 0.003248 0.000535
vt 0.23092 0.89461
vn 0.000611 0.003269 0.00052
vt 0.24598 0.9066
vn 0.000303 0.003333 0.000353
vt 0.26206 0.91809
vn 0.000239 0.003348 0.00025
vt 0.27911 0.92917
vn 0.000196 0.003352 0.000226
vt 0.29723 0.93974
vn 0 0.000233 -0.003357
vt 0.07176 0.35518
vn 0 0.000233 -0.003357
vt 0.10476 0.33215
vn 0 0.000233 -0.003357
vt 0.03005 0.35785
vn 0.00022 -0.003356 -0.000115
vt 0.12319 0.91436
vn -5e-06 -0.003364 8.7e-05
vt 0.09994 0.99042
vn 0.000212 -0.003359 1.6e-05
vt 0.13243 0.93695
vn 0.002777 -0.006115 -0.00012
vt 0.18818 0.79345
vn 0.004239 -0.01274 0.000772
vt 0.18472 0.78126
vn 0.001171 -0.003155 -7e-05
vt 0.17702 0.82017
vn 0.003144 -0.005937 -0.000414
vt 0.1889 0.80056
vn 0.002196 -0.006266 -0.00018
vt 0.17616 0.84228
vn 0.001624 -0.002935 -0.000269
vt 0.08632 0.50601
vn 0.001593 -0.002964 -6.6e-05
vt 0.07571 0.49314
vn 0.001739 -0.002875 -0.000196
vt 0.07821 0.50796
vn 0.00182 -0.002794 -0.000458
vt 0.07895 0.5225
vn 0.001653 -0.002878 -0.000558
vt 0.08567 0.53508
vn 0.001764 -0.002793 -0.000646
vt 0.07783 0.53675
vn 0.001707 -0.002823 -0.000666
vt 0.0733 0.56457
vn 0.001513 -0.002968 -0.00048
vt 0.07964 0.57631
vn 0.001709 -0.002863 -0.000457
vt 0.0717 0.57811
vn 0.001552 -0.002979 -0.000205
vt 0.07991 0.58933
vn 0.001681 -0.002913 -0.000138
vt 0.07192 0.59121
vn 0.001469 -0.003024 0.000163
vt 0.08257 0.60206
vn 0.001652 -0.00293 0.000119
vt 0.07446 0.60397
vn 0.001567 -0.002963 0.000308
vt 0.07918 0.61673
vn 0.001411 -0.003042 0.000289
vt 0.09117 0.6435
vn 0.000254 -0.00335 0.000194
vt 0.15735 0.88756
vn 0.000746 -0.00328 -9.4e-05
vt 0.1628 0.84917
vn 0.000729 -0.003279 -0.00021
vt 0.13443 0.86947
vn 0.001148 -0.003145 -0.000342
vt 0.13799 0.84384
vn 0.000985 -0.003218 -5.2e-05
vt 0.16146 0.81072
vn 0.000992 -0.003215 -0.000101
vt 0.13753 0.82633
vn 0.000981 -0.003214 0.00019
vt 0.13454 0.81194
vn 0.001163 -0.00315 -0.000226
vt 0.09635 0.72946
vn 0.001128 -0.003171 -2e-06
vt 0.09827 0.74756
vn 0.007551 -0.022189 0.000978
vt 0.15034 0.73924
vn 0.001215 -0.003135 0.000154
vt 0.11103 0.63887
vn 0.001428 -0.003047 3.4e-05
vt 0.09618 0.65816
vn 0.001432 -0.003035 0.000255
vt 0.06605 0.46337
vn 0.001502 -0.003008 0.000143
vt 0.07159 0.47822
vn 0.001361 -0.003072 0.000195
vt 0.08568 0.45842
vn 0.006733 -0.015353 0.001231
vt 0.08799 0.40829
vn 0.004521 -0.012653 9.6e-05
vt 0.12199 0.48216
vn 0.001373 -0.003073 -3.8e-05
vt 0.09448 0.48863
vn 0.001232 -0.003118 -0.000301
vt 0.09729 0.51821
vn 0.003112 -0.009566 -0.000816
vt 0.12542 0.5256
vn 0.001115 -0.003174 -9.3e-05
vt 0.09057 0.58681
vn 0.001996 -0.006407 -0.000142
vt 0.12085 0.5797
vn 0.004011 -0.012832 0.00017
vt 0.14728 0.64628
vn 0.001244 -0.003121 -0.000197
vt 0.11951 0.67827
vn 0.001352 -0.003082 -5.4e-05
vt 0.03242 0.38912
vn 0.001321 -0.003093 0.00012
vt 0.04185 0.42126
vn 0.001342 -0.003067 0.000347
vt 0.05961 0.44905
vn 0.001355 -0.003075 -0.000196
vt 0.09883 0.67426
vn 0.001322 -0.003073 -0.000373
vt 0.09865 0.692
vn 0.001308 -0.003076 -0.000391
vt 0.09722 0.7107
vn 0.003938 -0.012781 0.00144
vt 0.18153 0.77605
vn 0.001003 -0.003178 0.00047
vt 0.12374 0.7896
vn 0.001007 -0.0032 0.000266
vt 0.12971 0.7999
vn 0.001076 -0.003162 0.000415
vt 0.10524 0.76431
vn 0.00112 -0.003166 0.000222
vt 0.10099 0.75612
vn -8e-06 -0.003364 0.000118
vt 0.26181 0.90577
vn -1e-05 -0.003365 6e-05
vt 0.31647 0.94975
vn -0.000192 -0.003359 -8.1e-05
vt 0.28364 0.90591
vn -0.001435 -0.003044 -3.4e-05
vt 0.12078 0.36122
vn -0.003079 -0.001309 0.000363
vt 0.19288 0.81523
vn -0.000351 -0.003346 -7.1e-05
vt 0.2621 0.8719
vn -0.001568 -0.006544 -8.8e-05
vt 0.19996 0.83103
vn -0.000619 -0.003308 -2e-06
vt 0.24937 0.84611
vn -0.000784 -0.003273 -4.4e-05
vt 0.24291 0.82717
vn -0.00079 -0.00327 9.1e-05
vt 0.24047 0.81361
vn -0.009448 -0.01757 0.000681
vt 0.19575 0.78514
vn -0.00207 -0.00264 0.000271
vt 0.19141 0.79043
vn -0.003005 -0.005986 -0.000388
vt 0.19402 0.7781
vn -0.003047 -0.005847 -0.001292
vt 0.1906 0.77189
vn -0.000799 -0.003265 0.000171
vt 0.24036 0.80366
vn -0.003342 -0.013025 0.000183
vt 0.20794 0.78094
vn -0.000829 -0.003261 9.8e-05
vt 0.2406 0.78876
vn -0.000879 -0.003247 -0.00012
vt 0.23827 0.77675
vn -0.001064 -0.003163 -0.000435
vt 0.20066 0.76647
vn -0.000907 -0.003228 -0.000295
vt 0.234 0.76691
vn -0.000914 -0.003201 -0.000499
vt 0.22853 0.75857
vn -0.001288 -0.003108 -7.1e-05
vt 0.14807 0.47824
vn -0.001219 -0.003108 0.000423
vt 0.16959 0.54619
vn -0.001209 -0.003117 0.000385
vt 0.17291 0.51938
vn -0.001139 -0.003166 9.2e-05
vt 0.20068 0.65316
vn -0.001176 -0.003151 -0.000118
vt 0.1971 0.6372
vn -0.001085 -0.003176 0.000254
vt 0.20083 0.68891
vn -0.001075 -0.003181 0.000235
vt 0.20143 0.67068
vn -0.00104 -0.003196 -0.000183
vt 0.17657 0.73938
vn -0.001395 -0.003057 -0.000183
vt 0.13284 0.39531
vn -0.001328 -0.003063 -0.000425
vt 0.15034 0.42738
vn -0.001306 -0.003085 -0.000325
vt 0.15756 0.44441
vn -0.001391 -0.003056 -0.000231
vt 0.1638 0.46051
vn -0.001422 -0.003049 -0.000101
vt 0.16879 0.47585
vn -0.00135 -0.003082 6.4e-05
vt 0.17213 0.49076
vn -0.001232 -0.003124 0.000227
vt 0.17346 0.5053
vn -0.001228 -0.003115 0.000338
vt 0.16849 0.55907
vn -0.001215 -0.003137 8.2e-05
vt 0.169 0.57166
vn -0.001253 -0.003119 -0.00017
vt 0.1721 0.58403
vn -0.001309 -0.003081 -0.000344
vt 0.17756 0.59645
vn -0.001231 -0.00312 -0.000278
vt 0.19119 0.62272
vn -0.001037 -0.003198 0.000157
vt 0.20084 0.70688
vn -0.000924 -0.003236 -4.3e-05
vt 0.20337 0.72359
vn -0.000883 -0.003239 -0.00024
vt 0.20627 0.73117
vn -0.00089 -0.003216 -0.000438
vt 0.21058 0.73815
vn 0.000142 -0.003346 0.000333
vt 0.22343 0.86618
vn -0.0013 -0.002911 0.001078
vt 0.18293 0.87217
vn -0.001795 -0.002586 0.00119
vt 0.19047 0.85686
vn -0.001167 -0.003008 0.000958
vt 0.17474 0.88789
vn -0.001046 -0.003057 0.000941
vt 0.1547 0.92032
vn -0.000232 -0.003338 0.000366
vt 0.13046 0.95479
vn 0.001356 -0.002986 0.000757
vt 0.20268 0.86975
vn 0.000806 -0.003203 0.000645
vt 0.21654 0.88235
vn 0.000703 -0.003248 0.000535
vt 0.23092 0.89461
vn 0.000611 -0.003269 0.00052
vt 0.24598 0.9066
vn 0.000303 -0.003333 0.000353
vt 0.26206 0.91809
vn 0.000239 -0.003348 0.00025
vt 0.27911 0.92917
vn 0.000196 -0.003352 0.000226
vt 0.29723 0.93974
f 1/1/1 2/2/2 3/3/3
f 1/1/1 3/3/3 4/4/4
f 1/1/1 4/4/4 5/5/5
f 1/1/1 5/5/5 6/6/6
f 1/1/1 6/6/6 7/7/7
f 1/1/1 7/7/7 2/2/2
f 2/2/2 8/8/8 9/9/9
f 9/9/9 3/3/3 2/2/2
f 3/3/3 9/10/10 10/11/11
f 10/11/11 4/4/4 3/3/3
f 4/4/4 10/12/12 11/13/13
f 11/13/13 5/5/5 4/4/4
f 5/5/5 11/14/14 12/15/15
f 12/15/15 6/6/6 5/5/5
f 6/6/6 12/16/16 13/17/17
f 13/17/17 7/7/7 6/6/6
f 7/7/7 13/18/18 8/19/19
f 8/19/19 2/2/2 7/7/7
f 14/20/20 15/21/21 16/22/22
f 14/20/20 16/22/22 17/23/23
f 14/20/20 17/23/23 18/24/24
f 14/20/20 18/24/24 19/25/25
f 14/20/20 19/25/25 20/26/26
f 14/20/20 20/26/26 15/21/21
f 15/21/21 21/27/27 22/28/28
f 22/28/28 16/22/22 15/21/21
f 16/22/22 22/29/29 23/30/30
f 23/30/30 17/23/23 16/22/22
f 17/23/23 23/31/31 24/32/32
f 24/32/32 18/24/24 17/23/23
f 18/24/24 24/33/33 25/34/34
f 25/34/34 19/25/25 18/24/24
f 19/25/25 25/35/35 26/36/36
f 26/36/36 20/26/26 19/25/25
f 20/26/26 26/37/37 21/38/38
f 21/38/38 15/21/21 20/26/26
f 27/39/39 28/40/40 29/41/41
f 27/39/39 29/41/41 30/42/42
f 27/39/39 30/42/42 31/43/43
f 27/39/39 31/43/43 32/44/44
f 27/39/39 32/44/44 33/45/45
f 27/39/39 33/45/45 28/40/40
f 28/40/40 34/46/46 35/47/47
f 35/47/47 29/41/41 28/40/40
f 29/41/41 35/48/48 36/49/49
f 36/49/49 30/42/42 29/41/41
f 30/42/42 36/50/50 37/51/51
f 37/51/51 31/43/43 30/42/42
f 31/43/43 37/52/52 38/53/53
f 38/53/53 32/44/44 31/43/43
f 32/44/44 38/54/54 39/55/55
f 39/55/55 33/45/45 32/44/44
f 33/45/45 39/56/56 34/57/57
f 34/57/57 28/40/40 33/45/45
f 40/58/58 41/59/59 42/60/60
f 40/58/58 42/60/60 43/61/61
f 40/58/58 43/61/61 44/62/62
f 40/58/58 44/62/62 45/63/63
f 40/58/58 45/63/63 46/64/64
f 40/58/58 46/64/64 41/59/59
f 41/59/59 47/65/65 48/66/66
f 48/66/66 42/60/60 41/59/59
f 42/60/60 48/67/67 49/68/68
f 49/68/68 43/61/61 42/60/60
f 43/61/61 49/69/69 50/70/70
f 50/70/70 44/62/62 43/61/61
f 44/62/62 50/71/71 51/72/72
f 51/72/72 45/63/63 44/62/62
f 45/63/63 51/73/73 52/74/74
f 52/74/74 46/64/64 45/63/63
f 46/64/64 52/75/75 47/76/76
f 47/76/76 41/59/59 46/64/64
f 53/77/77 54/78/78 55/79/79
f 53/77/77 55/79/79 56/80/80
f 53/77/77 56/80/80 57/81/81
f 53/77/77 57/81/81 58/82/82
f 53/77/77 58/82/82 59/83/83
f 53/77/77 59/83/83 54/78/78
f 54/78/78 60/84/84 61/85/85
f 61/85/85 55/79/79 54/78/78
f 55/79/79 61/86/86 62/87/87
f 62/87/87 56/80/80 55/79/79
f 56/80/80 62/88/88 63/89/89
f 63/89/89 57/81/81 56/80/80
f 57/81/81 63/90/90 64/91/91
f 64/91/91 58/82/82 57/81/81
f 58/82/82 64/92/92 65/93/93
f 65/93/93 59/83/83 58/82/82
f 59/83/83 65/94/94 60/95/95
f 60/95/95 54/78/78 59/83/83
f 66/96/96 67/97/97 68/98/98
f 66/96/96 68/98/98 69/99/99
f 66/96/96 69/99/99 70/100/100
f 66/96/96 70/100/100 71/101/101
f 66/96/96 71/101/101 72/102/102
f 66/96/96 72/102/102 67/97/97
f 67/97/97 73/103/103 74/104/104
f 74/104/104 68/98/98 67/97/97
f 68/98/98 74/105/105 75/106/106
f 75/106/106 69/99/99 68/98/98
f 69/99/99 75/107/107 76/108/108
f 76/108/108 70/100/100 69/99/99
f 70/100/100 76/109/109 77/110/110
f 77/110/110 71/101/101 70/100/100
f 71/101/101 77/111/111 78/112/112
f 78/112/112 72/102/102 71/101/101
f 72/102/102 78/113/113 73/114/114
f 73/114/114 67/97/97 72/102/102
f 79/115/115 80/116/116 81/117/117
f 79/115/115 81/117/117 82/118/118
f 79/115/115 82/118/118 83/119/119
f 79/115/115 83/119/119 84/120/120
f 79/115/115 84/120/120 85/121/121
f 79/115/115 85/121/121 80/116/116
f 80/116/116 86/122/122 87/123/123
f 87/123/123 81/117/117 80/116/116
f 81/117/117 87/124/124 88/125/125
f 88/125/125 82/118/118 81/117/117
f 82/118/118 88/126/126 89/127/127
f 89/127/127 83/119/119 82/118/118
f 83/119/119 89/128/128 90/129/129
f 90/129/129 84/120/120 83/119/119
f 84/120/120 90/130/130 91/131/131
f 91/131/131 85/121/121 84/120/120
f 85/121/121 91/132/132 86/133/133
f 86/133/133 80/116/116 85/121/121
f 92/134/134 93/135/135 94/136/136
f 92/134/134 94/136/136 95/137/137
f 92/134/134 95/137/137 96/138/138
f 92/134/134 96/138/138 97/139/139
f 92/134/134 97/139/139 98/140/140
f 92/134/134 98/140/140 93/135/135
f 93/135/135 99/141/141 100/142/142
f 100/142/142 94/136/136 93/135/135
f 94/136/136 100/143/143 101/144/144
f 101/144/144 95/137/137 94/136/136
f 95/137/137 101/145/145 102/146/146
f 102/146/146 96/138/138 95/137/137
f 96/138/138 102/147/147 103/148/148
f 103/148/148 97/139/139 96/138/138
f 97/139/139 103/149/149 104/150/150
f 104/150/150 98/140/140 97/139/139
f 98/140/140 104/151/151 99/152/152
f 99/152/152 93/135/135 98/140/140
f 105/153/153 106/154/154 107/155/155
f 105/153/153 107/155/155 108/156/156
f 105/153/153 108/156/156 109/157/157
f 105/153/153 109/157/157 110/158/158
f 105/153/153 110/158/158 111/159/159
f 105/153/153 111/159/159 106/154/154
f 106/154/154 112/160/160 113/161/161
f 113/161/161 107/155/155 106/154/154
f 107/155/155 113/162/162 114/163/163
f 114/163/163 108/156/156 107/155/155
f 108/156/156 114/164/164 115/165/165
f 115/165/165 109/157/157 108/156/156
f 109/157/157 115/166/166 116/167/167
f 116/167/167 110/158/158 109/157/157
f 110/158/158 116/168/168 117/169/169
f 117/169/169 111/159/159 110/158/158
f 111/159/159 117/170/170 112/171/171
f 112/171/171 106/154/154 111/159/159
f 118/172/172 119/173/173 120/174/174
f 118/172/172 120/174/174 121/175/175
f 118/172/172 121/175/175 122/176/176
f 118/172/172 122/176/176 123/177/177
f 118/172/172 123/177/177 124/178/178
f 118/172/172 124/178/178 119/173/173
f 119/173/173 125/179/179 126/180/180
f 126/180/180 120/174/174 119/173/173
f 120/174/174 126/181/181 127/182/182
f 127/182/182 121/175/175 120/174/174
f 121/175/175 127/183/183 128/184/184
f 128/184/184 122/176/176 121/175/175
f 122/176/176 128/185/185 129/186/186
f 129/186/186 123/177/177 122/176/176
f 123/177/177 129/187/187 130/188/188
f 130/188/188 124/178/178 123/177/177
f 124/178/178 130/189/189 125/190/190
f 125/190/190 119/173/173 124/178/178
f 131/191/191 132/192/192 133/193/193
f 133/193/193 134/194/194 131/191/191
f 135/195/195 131/191/191 134/194/194
f 134/194/194 136/196/196 135/195/195
f 137/197/197 135/195/195 136/196/196
f 136/196/196 138/198/198 137/197/197
f 139/199/199 137/197/197 138/198/198
f 138/198/198 140/200/200 139/199/199
f 141/201/201 139/202/202 140/203/203
f 140/203/203 142/204/204 141/201/201
f 143/205/205 141/201/201 142/204/204
f 142/204/204 144/206/206 143/205/205
f 145/207/207 143/205/205 144/206/206
f 144/206/206 146/208/208 145/207/207
f 147/209/209 145/207/207 146/208/208
f 146/208/208 148/210/210 147/209/209
f 149/211/211 147/209/209 148/210/210
f 148/210/210 150/212/212 149/211/211
f 151/213/213 149/211/211 150/212/212
f 150/212/212 152/214/214 151/213/213
f 153/215/215 151/213/213 152/214/214
f 152/214/214 154/216/216 153/215/215
f 155/217/217 153/215/215 154/216/216
f 154/216/216 156/218/218 155/217/217
f 157/219/219 155/217/217 156/218/218
f 156/218/218 158/220/220 157/219/219
f 159/221/221 157/219/219 158/220/220
f 158/220/220 160/222/222 159/221/221
f 161/223/223 159/221/221 160/222/222
f 160/222/222 162/224/224 161/223/223
f 163/225/225 161/223/223 162/224/224
f 162/224/224 164/226/226 163/225/225
f 165/227/227 163/225/225 164/226/226
f 164/226/226 166/228/228 165/227/227
f 132/192/192 165/227/227 166/228/228
f 166/228/228 133/193/193 132/192/192
f 167/229/229 168/230/230 169/231/231
f 169/231/231 170/232/232 167/229/229
f 171/233/233 167/229/229 170/232/232
f 170/232/232 172/234/234 171/233/233
f 173/235/235 171/233/233 172/234/234
f 172/234/234 174/236/236 173/235/235
f 175/237/237 173/235/235 174/236/236
f 174/236/236 176/238/238 175/237/237
f 177/239/239 175/237/237 176/238/238
f 176/238/238 178/240/240 177/239/239
f 179/241/241 177/239/239 178/240/240
f 178/240/240 180/242/242 179/241/241
f 181/243/243 179/241/241 180/242/242
f 180/242/242 182/244/244 181/243/243
f 183/245/245 181/243/243 182/244/244
f 182/244/244 184/246/246 183/245/245
f 185/247/247 183/245/245 184/246/246
f 184/246/246 186/248/248 185/247/247
f 187/249/249 185/247/247 186/248/248
f 186/248/248 188/250/250 187/249/249
f 189/251/251 187/249/249 188/250/250
f 188/250/250 190/252/252 189/251/251
f 191/253/253 189/251/251 190/252/252
f 190/252/252 192/254/254 191/253/253
f 193/255/255 191/253/253 192/254/254
f 192/254/254 194/256/256 193/255/255
f 195/257/257 193/255/255 194/256/256
f 194/256/256 196/258/258 195/257/257
f 197/259/259 195/257/257 196/258/258
f 196/258/258 198/260/260 197/259/259
f 199/261/261 197/262/262 198/263/263
f 198/263/263 200/264/264 199/261/261
f 201/265/265 199/261/261 200/264/264
f 200/264/264 202/266/266 201/265/265
f 168/230/230 201/265/265 202/266/266
f 202/266/266 169/231/231 168/230/230
f 203/267/267 204/268/268 168/230/230
f 168/230/230 167/229/229 203/267/267
f 205/269/269 203/267/267 167/229/229
f 167/229/229 171/233/233 205/269/269
f 206/270/270 205/269/269 171/233/233
f 171/233/233 173/235/235 206/270/270
f 207/271/271 206/270/270 173/235/235
f 173/235/235 175/237/237 207/271/271
f 208/272/272 207/271/271 175/237/237
f 175/237/237 177/239/239 208/272/272
f 209/273/273 208/272/272 177/239/239
f 177/239/239 179/241/241 209/273/273
f 210/274/274 209/273/273 179/241/241
f 179/241/241 181/243/243 210/274/274
f 211/275/275 210/274/274 181/243/243
f 181/243/243 183/245/245 211/275/275
f 212/276/276 211/275/275 183/245/245
f 183/245/245 185/247/247 212/276/276
f 213/277/277 212/276/276 185/247/247
f 185/247/247 187/249/249 213/277/277
f 214/278/278 213/277/277 187/249/249
f 187/249/249 189/251/251 214/278/278
f 215/279/279 214/278/278 189/251/251
f 189/251/251 191/253/253 215/279/279
f 216/280/280 215/279/279 191/253/253
f 191/253/253 193/255/255 216/280/280
f 217/281/281 216/280/280 193/255/255
f 193/255/255 195/257/257 217/281/281
f 218/282/282 217/281/281 195/257/257
f 195/257/257 197/259/259 218/282/282
f 219/283/283 218/284/284 197/262/262
f 197/262/262 199/261/261 219/283/283
f 220/285/285 219/283/283 199/261/261
f 199/261/261 201/265/265 220/285/285
f 204/268/268 220/285/285 201/265/265
f 201/265/265 168/230/230 204/268/268
f 211/286/286 212/287/287 213/288/288
f 213/288/288 214/289/289 215/290/290
f 211/286/286 213/288/288 215/290/290
f 215/290/290 216/291/291 217/292/292
f 217/292/292 218/293/293 219/294/294
f 215/290/290 217/292/292 219/294/294
f 211/286/286 215/290/290 219/294/294
f 219/294/294 220/295/295 204/296/296
f 204/296/296 203/297/297 205/298/298
f 205/298/298 206/299/299 207/300/300
f 204/296/296 205/298/298 207/300/300
f 219/294/294 204/296/296 207/300/300
f 211/286/286 219/294/294 207/300/300
f 207/300/300 208/301/301 209/302/302
f 211/286/286 207/300/300 209/302/302
f 211/286/286 209/302/302 210/303/303
f 134/194/194 133/193/193 170/232/232
f 170/232/232 169/231/231 134/194/194
f 136/196/196 134/194/194 169/231/231
f 169/231/231 202/266/266 136/196/196
f 138/198/198 136/196/196 202/266/266
f 202/266/266 200/264/264 138/198/198
f 140/200/200 138/198/198 200/264/264
f 200/264/264 198/263/263 140/200/200
f 142/204/204 140/203/203 198/260/260
f 198/260/260 196/258/258 142/204/204
f 144/206/206 142/204/204 196/258/258
f 196/258/258 194/256/256 144/206/206
f 146/208/208 144/206/206 194/256/256
f 194/256/256 192/254/254 146/208/208
f 148/210/210 146/208/208 192/254/254
f 192/254/254 190/252/252 148/210/210
f 150/212/212 148/210/210 190/252/252
f 190/252/252 188/250/250 150/212/212
f 152/214/214 150/212/212 188/250/250
f 188/250/250 186/248/248 152/214/214
f 154/216/216 152/214/214 186/248/248
f 186/248/248 184/246/246 154/216/216
f 156/218/218 154/216/216 184/246/246
f 184/246/246 182/244/244 156/218/218
f 158/220/220 156/218/218 182/244/244
f 182/244/244 180/242/242 158/220/220
f 160/222/222 158/220/220 180/242/242
f 180/242/242 178/240/240 160/222/222
f 162/224/224 160/222/222 178/240/240
f 178/240/240 176/238/238 162/224/224
f 164/226/226 162/224/224 176/238/238
f 176/238/238 174/236/236 164/226/226
f 166/228/228 164/226/226 174/236/236
f 174/236/236 172/234/234 166/228/228
f 133/193/193 166/228/228 172/234/234
f 172/234/234 170/232/232 133/193/193
f 221/304/304 222/305/305 223/306/306
f 223/306/306 224/307/307 221/304/304
f 222/305/305 225/308/308 226/309/309
f 226/309/309 223/306/306 222/305/305
f 225/308/308 227/310/310 228/311/311
f 228/311/311 226/309/309 225/308/308
f 227/310/310 229/312/312 230/313/313
f 227/310/310 230/313/313 231/314/314
f 227/310/310 231/314/314 232/315/315
f 228/311/311 227/310/310 232/315/315
f 223/306/306 233/316/316 234/317/317
f 223/306/306 234/317/317 235/318/318
f 224/307/307 223/306/306 235/318/318
f 223/306/306 226/309/309 236/319/319
f 236/319/319 233/316/316 223/306/306
f 226/309/309 228/311/311 237/320/320
f 237/320/320 236/319/319 226/309/309
f 228/311/311 232/315/315 238/321/321
f 228/311/311 238/321/321 239/322/322
f 228/311/311 239/322/322 240/323/323
f 237/320/320 228/311/311 240/323/323
f 241/324/324 233/316/316 242/325/325
f 242/325/325 243/326/326 241/324/324
f 233/316/316 236/319/319 244/327/327
f 244/327/327 242/325/325 233/316/316
f 236/319/319 237/320/320 245/328/328
f 245/328/328 244/327/327 236/319/319
f 237/320/320 240/323/323 246/329/329
f 237/320/320 246/329/329 247/330/330
f 237/320/320 247/330/330 248/331/331
f 245/328/328 237/320/320 248/331/331
f 243/326/326 242/325/325 249/332/332
f 249/332/332 250/333/333 243/326/326
f 242/325/325 244/327/327 251/334/334
f 251/334/334 249/332/332 242/325/325
f 244/327/327 245/328/328 252/335/335
f 252/335/335 251/334/334 244/327/327
f 245/328/328 248/331/331 253/336/336
f 245/328/328 253/336/336 254/337/337
f 245/328/328 254/337/337 255/338/338
f 252/335/335 245/328/328 255/338/338
f 250/333/333 249/332/332 256/339/339
f 256/339/339 257/340/340 250/333/333
f 249/332/332 251/334/334 258/341/341
f 258/341/341 256/339/339 249/332/332
f 251/334/334 252/335/335 259/342/342
f 259/342/342 258/341/341 251/334/334
f 252/335/335 255/338/338 260/343/343
f 252/335/335 260/343/343 261/344/344
f 252/335/335 261/344/344 262/345/345
f 259/342/342 252/335/335 262/345/345
f 257/346/346 256/347/347 263/348/348
f 263/348/348 264/349/349 257/346/346
f 256/347/347 258/350/350 265/351/351
f 265/351/351 263/348/348 256/347/347
f 258/350/350 259/352/352 266/353/353
f 266/353/353 265/351/351 258/350/350
f 259/352/352 262/354/354 267/355/355
f 259/352/352 267/355/355 268/356/356
f 259/352/352 268/356/356 269/357/357
f 266/353/353 259/352/352 269/357/357
f 264/349/349 263/348/348 222/305/305
f 222/305/305 221/304/304 264/349/349
f 263/348/348 265/351/351 225/308/308
f 225/308/308 222/305/305 263/348/348
f 265/351/351 266/353/353 227/310/310
f 227/310/310 225/308/308 265/351/351
f 266/353/353 269/357/357 270/358/358
f 266/353/353 270/358/358 271/359/359
f 266/353/353 271/359/359 229/312/312
f 227/310/310 266/353/353 229/312/312
f 235/318/318 234/317/317 233/316/316
f 235/318/318 233/316/316 241/324/324
f 224/307/307 235/318/318 241/324/324
f 268/356/356 272/360/360 273/361/361
f 273/361/361 269/357/357 268/356/356
f 274/362/362 275/363/363 267/355/355
f 267/355/355 262/354/354 274/362/362
f 268/356/356 267/355/355 276/364/364
f 272/365/365 268/356/356 276/364/364
f 275/366/366 272/365/365 276/364/364
f 267/355/355 275/366/366 276/364/364
f 261/344/344 277/367/367 274/368/368
f 274/368/368 262/345/345 261/344/344
f 278/369/369 279/370/370 260/343/343
f 260/343/343 255/338/338 278/369/369
f 254/337/337 280/371/371 278/369/369
f 278/369/369 255/338/338 254/337/337
f 281/372/372 282/373/373 253/336/336
f 253/336/336 248/331/331 281/372/372
f 247/330/330 283/374/374 281/372/372
f 281/372/372 248/331/331 247/330/330
f 284/375/375 285/376/376 246/329/329
f 246/329/329 240/323/323 284/375/375
f 239/322/322 286/377/377 284/375/375
f 284/375/375 240/323/323 239/322/322
f 287/378/378 288/379/379 238/321/321
f 238/321/321 232/315/315 287/378/378
f 231/314/314 289/380/380 287/378/378
f 287/378/378 232/315/315 231/314/314
f 290/381/381 291/382/382 230/313/313
f 230/313/313 229/312/312 290/381/381
f 271/359/359 292/383/383 290/381/381
f 290/381/381 229/312/312 271/359/359
f 273/361/361 293/384/384 270/358/358
f 270/358/358 269/357/357 273/361/361
f 231/314/314 230/313/313 294/385/385
f 289/386/386 231/314/314 294/385/385
f 291/387/387 289/386/386 294/385/385
f 230/313/313 291/388/388 294/385/385
f 239/322/322 238/321/321 295/389/389
f 286/390/390 239/322/322 295/389/389
f 288/391/391 286/390/390 295/389/389
f 238/321/321 288/392/392 295/389/389
f 247/330/330 246/329/329 296/393/393
f 283/394/394 247/330/330 296/393/393
f 285/395/395 283/394/394 296/393/393
f 246/329/329 285/396/396 296/393/393
f 254/337/337 253/336/336 297/397/397
f 280/398/398 254/337/337 297/397/397
f 282/399/399 280/398/398 297/397/397
f 253/336/336 282/400/400 297/397/397
f 261/344/344 260/343/343 298/401/401
f 277/402/402 261/344/344 298/401/401
f 279/403/403 277/402/402 298/401/401
f 260/343/343 279/404/404 298/401/401
f 271/359/359 270/358/358 299/405/405
f 292/406/406 271/359/359 299/405/405
f 293/407/407 292/406/406 299/405/405
f 270/358/358 293/408/408 299/405/405
f 300/409/409 301/410/410 302/411/411
f 302/411/411 303/412/412 304/413/413
f 304/413/413 305/414/414 306/415/415
f 302/411/411 304/413/413 306/415/415
f 300/409/409 302/411/411 306/415/415
f 300/409/409 306/415/415 307/416/416
f 308/417/417 309/418/418 302/419/419
f 302/419/419 301/420/420 308/417/417
f 310/421/421 308/422/422 301/423/423
f 301/423/423 300/424/424 310/421/421
f 311/425/425 310/426/426 300/427/427
f 300/427/427 307/428/428 311/425/425
f 312/429/429 311/430/430 307/416/416
f 307/416/416 306/415/415 312/429/429
f 313/431/431 312/432/432 306/433/433
f 306/433/433 305/434/434 313/431/431
f 314/435/435 313/436/436 305/437/437
f 305/437/437 304/438/438 314/435/435
f 315/439/439 314/440/440 304/441/441
f 304/441/441 303/442/442 315/439/439
f 309/443/443 315/444/444 303/445/445
f 303/445/445 302/446/446 309/443/443
f 316/447/447 317/448/448 318/449/449
f 318/449/449 319/450/450 320/451/451
f 320/451/451 321/452/452 322/453/453
f 318/449/449 320/451/451 322/453/453
f 316/447/447 318/449/449 322/453/453
f 316/447/447 322/453/453 323/454/454
f 309/418/418 308/417/417 324/455/455
f 324/455/455 325/456/456 309/418/418
f 308/422/422 310/421/421 326/457/457
f 326/457/457 324/458/458 308/422/422
f 310/426/426 311/425/425 327/459/459
f 327/459/459 326/460/460 310/426/426
f 311/430/430 312/429/429 328/461/461
f 328/461/461 327/462/462 311/430/430
f 312/432/432 313/431/431 329/463/463
f 329/463/463 328/464/464 312/432/432
f 313/436/436 314/435/435 330/465/465
f 330/465/465 329/466/466 313/436/436
f 314/440/440 315/439/439 331/467/467
f 331/467/467 330/468/468 314/440/440
f 315/444/444 309/443/443 325/469/469
f 325/469/469 331/470/470 315/444/444
f 325/456/456 324/455/455 332/471/471
f 332/471/471 333/472/472 325/456/456
f 324/458/458 326/457/457 334/473/473
f 334/473/473 332/474/474 324/458/458
f 326/460/460 327/459/459 335/475/475
f 335/475/475 334/476/476 326/460/460
f 327/477/477 328/478/478 336/479/479
f 336/479/479 335/480/480 327/477/477
f 328/464/464 329/463/463 337/481/481
f 337/481/481 336/482/482 328/464/464
f 329/466/466 330/465/465 338/483/483
f 338/483/483 337/484/484 329/466/466
f 330/468/468 331/467/467 339/485/485
f 339/485/485 338/486/486 330/468/468
f 331/470/470 325/469/469 333/487/487
f 333/487/487 339/488/488 331/470/470
f 333/472/472 332/471/471 321/489/489
f 321/489/489 320/490/490 333/472/472
f 332/474/474 334/473/473 322/491/491
f 322/491/491 321/492/492 332/474/474
f 334/476/476 335/475/475 323/493/493
f 323/493/493 322/494/494 334/476/476
f 335/480/480 336/479/479 316/447/447
f 316/447/447 323/454/454 335/480/480
f 336/482/482 337/481/481 317/495/495
f 317/495/495 316/496/496 336/482/482
f 337/484/484 338/483/483 318/497/497
f 318/497/497 317/498/498 337/484/484
f 338/486/486 339/485/485 319/499/499
f 319/499/499 318/500/500 338/486/486
f 339/488/488 333/487/487 320/501/501
f 320/501/501 319/502/502 339/488/488
f 340/503/503 341/504/504 342/505/505
f 343/506/506 344/507/507 340/503/503
f 340/503/503 342/505/505 343/506/506
f 345/508/508 346/509/509 344/507/507
f 344/507/507 343/506/506 345/508/508
f 347/510/510 348/511/511 346/509/509
f 346/509/509 345/508/508 347/510/510
f 349/512/512 350/513/513 342/505/505
f 342/505/505 341/504/504 349/512/512
f 350/513/513 351/514/514 343/506/506
f 343/506/506 342/505/505 350/513/513
f 351/514/514 352/515/515 345/508/508
f 345/508/508 343/506/506 351/514/514
f 352/515/515 353/516/516 347/510/510
f 347/510/510 345/508/508 352/515/515
f 354/517/517 355/518/518 356/519/519
f 357/520/520 358/521/521 359/522/522
f 359/522/522 356/519/519 357/520/520
f 357/520/520 360/523/523 361/524/524
f 361/524/524 358/521/521 357/520/520
f 360/523/523 362/525/525 363/526/526
f 363/526/526 361/524/524 360/523/523
f 364/527/527 357/520/520 356/519/519
f 356/519/519 355/518/518 364/527/527
f 365/528/528 360/523/523 357/520/520
f 357/520/520 364/527/527 365/528/528
f 356/519/519 359/522/522 354/517/517
f 366/529/529 362/525/525 360/523/523
f 360/523/523 365/528/528 366/529/529
f 367/530/530 368/531/531 369/532/532
f 370/533/533 368/531/531 371/534/534
f 371/534/534 372/535/535 370/533/533
f 370/533/533 372/535/535 373/536/536
f 373/536/536 374/537/537 370/533/533
f 374/537/537 373/536/536 375/538/538
f 375/538/538 376/539/539 374/537/537
f 377/540/540 369/532/532 368/531/531
f 368/531/531 370/533/533 377/540/540
f 378/541/541 377/540/540 370/533/533
f 370/533/533 374/537/537 378/541/541
f 368/531/531 367/530/530 371/534/534
f 379/542/542 378/541/541 374/537/537
f 374/537/537 376/539/539 379/542/542
f 380/543/543 381/544/544 382/545/545
f 383/546/546 381/544/544 384/547/547
f 384/547/547 385/548/548 383/546/546
f 383/546/546 385/548/548 386/549/549
f 386/549/549 387/550/550 383/546/546
f 387/550/550 386/549/549 388/551/551
f 388/551/551 389/552/552 387/550/550
f 390/553/553 382/545/545 381/544/544
f 381/544/544 383/546/546 390/553/553
f 391/554/554 390/553/553 383/546/546
f 383/546/546 387/550/550 391/554/554
f 381/544/544 380/543/543 384/547/547
f 392/555/555 391/554/554 387/550/550
f 387/550/550 389/552/552 392/555/555
f 393/556/556 394/557/557 395/558/558
f 396/559/559 397/560/560 398/561/561
f 398/561/561 395/558/558 396/559/559
f 396/559/559 399/562/562 400/563/563
f 400/563/563 397/560/560 396/559/559
f 399/562/562 401/564/564 402/565/565
f 402/565/565 400/563/563 399/562/562
f 403/566/566 396/559/559 395/558/558
f 395/558/558 394/557/557 403/566/566
f 404/567/567 399/562/562 396/559/559
f 396/559/559 403/566/566 404/567/567
f 395/558/558 398/561/561 393/556/556
f 405/568/568 401/564/564 399/562/562
f 399/562/562 404/567/567 405/568/568
f 406/569/569 407/570/570 408/571/571
f 409/572/572 407/570/570 410/573/573
f 410/573/573 411/574/574 409/572/572
f 409/572/572 411/574/574 412/575/575
f 412/575/575 413/576/576 409/572/572
f 413/576/576 412/575/575 414/577/577
f 414/577/577 415/578/578 413/576/576
f 416/579/579 408/571/571 407/570/570
f 407/570/570 409/572/572 416/579/579
f 417/580/580 416/579/579 409/572/572
f 409/572/572 413/576/576 417/580/580
f 407/570/570 406/569/569 410/573/573
f 418/581/581 417/580/580 413/576/576
f 413/576/576 415/578/578 418/581/581
f 419/582/582 420/583/583 421/584/584
f 422/585/585 423/586/586 419/582/582
f 419/582/582 421/584/584 422/585/585
f 424/587/587 425/588/588 423/586/586
f 423/586/586 422/585/585 424/587/587
f 426/589/589 427/590/590 425/588/588
f 425/588/588 424/587/587 426/589/589
f 428/591/591 421/584/584 420/583/583
f 428/591/591 429/592/592 422/585/585
f 422/585/585 421/584/584 428/591/591
f 429/592/592 430/593/593 424/587/587
f 424/587/587 422/585/585 429/592/592
f 430/593/593 431/594/594 426/589/589
f 426/589/589 424/587/587 430/593/593
f 432/595/595 433/596/596 434/597/597
f 434/597/597 435/598/598 432/595/595
f 433/596/596 436/599/599 437/600/600
f 437/600/600 434/597/597 433/596/596
f 436/599/599 438/601/601 439/602/602
f 439/602/602 437/600/600 436/599/599
f 438/603/603 440/604/604 441/605/605
f 441/605/605 439/606/606 438/603/603
f 440/604/604 442/607/607 443/608/608
f 443/608/608 441/605/605 440/604/604
f 442/607/607 444/609/609 445/610/610
f 445/610/610 443/608/608 442/607/607
f 444/609/609 446/611/611 447/612/612
f 447/612/612 445/610/610 444/609/609
f 446/611/611 432/595/595 435/598/598
f 435/598/598 447/612/612 446/611/611
f 448/613/613 449/614/614 450/615/615
f 451/616/616 452/617/617 453/618/618
f 454/619/619 455/620/620 456/621/621
f 457/622/622 455/620/620 454/619/619
f 458/623/623 455/620/620 457/622/622
f 459/624/624 460/625/625 461/626/626
f 459/624/624 462/627/627 460/625/625
f 463/628/628 462/627/627 459/624/624
f 463/628/628 464/629/629 462/627/627
f 463/628/628 465/630/630 464/629/629
f 466/631/631 465/630/630 463/628/628
f 466/631/631 467/632/632 465/630/630
f 468/633/633 467/632/632 466/631/631
f 468/633/633 469/634/634 467/632/632
f 470/635/635 469/634/634 468/633/633
f 470/635/635 471/636/636 469/634/634
f 470/635/635 472/637/637 471/636/636
f 473/638/638 472/637/637 470/635/635
f 474/639/639 455/620/620 458/623/623
f 474/639/639 475/640/640 455/620/620
f 452/617/617 475/640/640 474/639/639
f 452/617/617 476/641/641 475/640/640
f 451/616/616 476/641/641 452/617/617
f 477/642/642 478/643/643 476/641/641
f 479/644/644 478/643/643 477/642/642
f 479/644/644 480/645/645 478/643/643
f 481/646/646 482/647/647 483/648/648
f 484/649/649 485/650/650 473/638/638
f 486/651/651 487/652/652 488/653/653
f 486/651/651 489/654/654 487/652/652
f 490/655/655 491/656/656 487/652/652
f 490/655/655 492/657/657 491/656/656
f 493/658/658 492/657/657 490/655/655
f 493/658/658 494/659/659 492/657/657
f 495/660/660 494/659/659 493/658/658
f 496/661/661 494/659/659 495/660/660
f 496/661/661 484/649/649 494/659/659
f 496/661/661 497/662/662 484/649/649
f 497/662/662 482/647/647 481/646/646
f 449/614/614 448/613/613 498/663/663
f 499/664/664 448/613/613 489/654/654
f 448/613/613 499/664/664 498/663/663
f 489/654/654 500/665/665 499/664/664
f 487/652/652 489/654/654 490/655/655
f 489/654/654 486/651/651 500/665/665
f 484/649/649 497/662/662 485/650/650
f 497/662/662 501/666/666 485/650/650
f 497/662/662 502/667/667 501/666/666
f 497/662/662 503/668/668 502/667/667
f 497/662/662 481/646/646 503/668/668
f 482/647/647 497/662/662 496/661/661
f 478/643/643 455/620/620 475/640/640
f 475/640/640 476/641/641 478/643/643
f 455/620/620 478/643/643 456/621/621
f 478/643/643 480/645/645 456/621/621
f 504/669/669 505/670/670 482/647/647
f 456/621/621 480/645/645 504/669/669
f 504/669/669 506/671/671 505/670/670
f 506/671/671 504/669/669 480/645/645
f 505/670/670 507/672/672 482/647/647
f 508/673/673 482/647/647 507/672/672
f 483/648/648 482/647/647 508/673/673
f 470/635/635 484/649/649 473/638/638
f 484/649/649 470/635/635 494/659/659
f 468/633/633 494/659/659 470/635/635
f 466/631/631 494/659/659 468/633/633
f 494/659/659 466/631/631 492/657/657
f 463/628/628 492/657/657 466/631/631
f 459/624/624 492/657/657 463/628/628
f 492/657/657 459/624/624 491/656/656
f 461/626/626 491/656/656 459/624/624
f 491/656/656 488/653/653 487/652/652
f 488/653/653 491/656/656 461/626/626
f 509/674/674 510/675/675 511/676/676
f 512/677/677 448/613/613 450/615/615
f 454/619/619 513/678/678 457/622/622
f 514/679/679 510/675/675 509/674/674
f 515/680/680 516/681/681 517/682/682
f 515/680/680 518/683/683 516/681/681
f 513/678/678 519/684/684 515/680/680
f 454/619/619 520/685/685 513/678/678
f 456/621/621 520/685/685 454/619/619
f 456/621/621 519/684/684 520/685/685
f 504/669/669 519/684/684 456/621/621
f 504/669/669 521/686/686 519/684/684
f 504/669/669 522/687/687 521/686/686
f 482/647/647 522/687/687 504/669/669
f 523/688/688 518/683/683 515/680/680
f 524/689/689 525/690/690 523/688/688
f 524/689/689 526/691/691 525/690/690
f 527/692/692 526/691/691 524/689/689
f 527/692/692 528/693/693 526/691/691
f 527/692/692 529/694/694 528/693/693
f 482/647/647 527/692/692 522/687/687
f 530/695/695 490/655/655 489/654/654
f 493/658/658 490/655/655 530/695/695
f 531/696/696 493/658/658 532/697/697
f 533/698/698 496/661/661 534/699/699
f 496/661/661 535/700/700 536/701/701
f 537/702/702 496/661/661 536/701/701
f 527/692/692 537/702/702 529/694/694
f 448/613/613 538/703/703 489/654/654
f 538/703/703 448/613/613 512/677/677
f 539/704/704 489/654/654 538/703/703
f 540/705/705 489/654/654 539/704/704
f 530/695/695 489/654/654 540/705/705
f 541/706/706 530/695/695 540/705/705
f 542/707/707 530/695/695 541/706/706
f 543/708/708 530/695/695 542/707/707
f 544/709/709 530/695/695 543/708/708
f 493/658/658 530/695/695 544/709/709
f 532/697/697 493/658/658 544/709/709
f 545/710/710 493/658/658 531/696/696
f 545/710/710 495/660/660 493/658/658
f 495/660/660 545/710/710 546/711/711
f 547/712/712 495/660/660 546/711/711
f 548/713/713 495/660/660 547/712/712
f 495/660/660 549/714/714 496/661/661
f 549/714/714 495/660/660 548/713/713
f 549/714/714 534/699/699 496/661/661
f 535/700/700 496/661/661 533/698/698
f 537/702/702 536/701/701 550/715/715
f 496/661/661 537/702/702 482/647/647
f 551/716/716 537/702/702 550/715/715
f 552/717/717 537/702/702 551/716/716
f 553/718/718 537/702/702 552/717/717
f 529/694/694 537/702/702 553/718/718
f 537/702/702 527/692/692 482/647/647
f 519/684/684 513/678/678 520/685/685
f 515/680/680 524/689/689 523/688/688
f 519/684/684 524/689/689 515/680/680
f 524/689/689 519/684/684 521/686/686
f 524/689/689 521/686/686 522/687/687
f 522/687/687 527/692/692 524/689/689
f 554/719/719 514/679/679 509/674/674
f 554/719/719 517/682/682 514/679/679
f 517/682/682 554/719/719 515/680/680
f 555/720/720 457/622/622 556/721/721
f 555/720/720 458/623/623 457/622/622
f 557/722/722 458/623/623 555/720/720
f 558/723/723 458/623/623 557/722/722
f 558/723/723 474/639/639 458/623/623
f 559/724/724 474/639/639 558/723/723
f 559/724/724 452/617/617 474/639/639
f 453/618/618 452/617/617 559/724/724
f 457/622/622 560/725/725 556/721/721
f 513/678/678 560/725/725 457/622/622
f 515/680/680 560/725/725 513/678/678
f 515/680/680 561/726/726 560/725/725
f 554/719/719 561/726/726 515/680/680
f 554/719/719 562/727/727 561/726/726
f 554/719/719 563/728/728 562/727/727
f 554/719/719 564/729/729 563/728/728
f 509/674/674 564/729/729 554/719/719
f 509/674/674 565/730/730 564/729/729
f 509/674/674 566/731/731 565/730/730
f 511/676/676 566/731/731 509/674/674
f 567/732/732 568/733/733 569/734/734
f 570/735/735 571/736/736 572/737/737
f 573/738/738 574/739/739 575/740/740
f 576/741/741 573/738/738 575/740/740
f 577/742/742 576/741/741 575/740/740
f 578/743/743 579/744/744 580/745/745
f 578/743/743 580/745/745 581/746/746
f 582/747/747 578/743/743 581/746/746
f 582/747/747 581/746/746 583/748/748
f 582/747/747 583/748/748 584/749/749
f 585/750/750 582/747/747 584/749/749
f 585/750/750 584/749/749 586/751/751
f 587/752/752 585/750/750 586/751/751
f 587/752/752 586/751/751 588/753/753
f 589/754/754 587/752/752 588/753/753
f 589/754/754 588/753/753 590/755/755
f 589/754/754 590/755/755 591/756/756
f 592/757/757 589/754/754 591/756/756
f 593/758/758 577/742/742 575/740/740
f 593/758/758 575/740/740 594/759/759
f 572/737/737 593/758/758 594/759/759
f 572/737/737 594/759/759 595/760/760
f 570/735/735 572/737/737 595/760/760
f 596/761/761 595/760/760 597/762/762
f 598/763/763 596/761/761 597/762/762
f 598/763/763 597/762/762 599/764/764
f 600/765/765 601/766/766 602/767/767
f 603/768/768 592/757/757 604/769/769
f 605/770/770 606/771/771 607/772/772
f 605/770/770 607/772/772 608/773/773
f 609/774/774 607/772/772 610/775/775
f 609/774/774 610/775/775 611/776/776
f 612/777/777 609/774/774 611/776/776
f 612/777/777 611/776/776 613/778/778
f 614/779/779 612/777/777 613/778/778
f 615/780/780 614/779/779 613/778/778
f 615/780/780 613/778/778 603/768/768
f 615/780/780 603/768/768 616/781/781
f 616/781/781 600/765/765 602/767/767
f 569/734/734 617/782/782 567/732/732
f 618/783/783 608/773/773 567/732/732
f 567/732/732 617/782/782 618/783/783
f 608/773/773 618/783/783 619/784/784
f 607/772/772 609/774/774 608/773/773
f 608/773/773 619/784/784 605/770/770
f 603/768/768 604/769/769 616/781/781
f 616/781/781 604/769/769 620/785/785
f 616/781/781 620/785/785 621/786/786
f 616/781/781 621/786/786 622/787/787
f 616/781/781 622/787/787 600/765/765
f 602/767/767 615/780/780 616/781/781
f 597/762/762 594/759/759 575/740/740
f 594/759/759 597/762/762 595/760/760
f 575/740/740 574/739/739 597/762/762
f 597/762/762 574/739/739 599/764/764
f 623/788/788 602/767/767 624/789/789
f 574/739/739 623/788/788 599/764/764
f 623/788/788 624/789/789 625/790/790
f 625/790/790 599/764/764 623/788/788
f 624/789/789 602/767/767 626/791/791
f 627/792/792 626/791/791 602/767/767
f 601/766/766 627/792/792 602/767/767
f 589/754/754 592/757/757 603/768/768
f 603/768/768 613/778/778 589/754/754
f 587/752/752 589/754/754 613/778/778
f 585/750/750 587/752/752 613/778/778
f 613/778/778 611/776/776 585/750/750
f 582/747/747 585/750/750 611/776/776
f 578/743/743 582/747/747 611/776/776
f 611/776/776 610/775/775 578/743/743
f 579/744/744 578/743/743 610/775/775
f 610/775/775 607/772/772 606/771/771
f 606/771/771 579/744/744 610/775/775
f 628/793/793 629/794/794 630/795/795
f 631/796/796 568/733/733 567/732/732
f 573/738/738 576/741/741 632/797/797
f 633/798/798 628/793/793 630/795/795
f 634/799/799 635/800/800 636/801/801
f 634/799/799 636/801/801 637/802/802
f 632/797/797 634/799/799 638/803/803
f 573/738/738 632/797/797 639/804/804
f 574/739/739 573/738/738 639/804/804
f 574/739/739 639/804/804 638/803/803
f 623/788/788 574/739/739 638/803/803
f 623/788/788 638/803/803 640/805/805
f 623/788/788 640/805/805 641/806/806
f 602/767/767 623/788/788 641/806/806
f 642/807/807 634/799/799 637/802/802
f 643/808/808 642/807/807 644/809/809
f 643/808/808 644/809/809 645/810/810
f 646/811/811 643/808/808 645/810/810
f 646/811/811 645/810/810 647/812/812
f 646/811/811 647/812/812 648/813/813
f 602/767/767 641/806/806 646/811/811
f 649/814/814 608/773/773 609/774/774
f 612/777/777 649/814/814 609/774/774
f 650/815/815 651/816/816 612/777/777
f 652/817/817 653/818/818 615/780/780
f 615/780/780 654/819/819 655/820/820
f 656/821/821 654/819/819 615/780/780
f 646/811/811 648/813/813 656/821/821
f 567/732/732 608/773/773 657/822/822
f 657/822/822 631/796/796 567/732/732
f 658/823/823 657/822/822 608/773/773
f 659/824/824 658/823/823 608/773/773
f 649/814/814 659/824/824 608/773/773
f 660/825/825 659/824/824 649/814/814
f 661/826/826 660/825/825 649/814/814
f 662/827/827 661/826/826 649/814/814
f 663/828/828 662/827/827 649/814/814
f 612/777/777 663/828/828 649/814/814
f 651/816/816 663/828/828 612/777/777
f 664/829/829 650/815/815 612/777/777
f 664/829/829 612/777/777 614/779/779
f 614/779/779 665/830/830 664/829/829
f 666/831/831 665/830/830 614/779/779
f 667/832/832 666/831/831 614/779/779
f 614/779/779 615/780/780 668/833/833
f 668/833/833 667/832/832 614/779/779
f 668/833/833 615/780/780 653/818/818
f 655/820/820 652/817/817 615/780/780
f 656/821/821 669/834/834 654/819/819
f 615/780/780 602/767/767 656/821/821
f 670/835/835 669/834/834 656/821/821
f 671/836/836 670/835/835 656/821/821
f 672/837/837 671/836/836 656/821/821
f 648/813/813 672/837/837 656/821/821
f 656/821/821 602/767/767 646/811/811
f 638/803/803 639/804/804 632/797/797
f 634/799/799 642/807/807 643/808/808
f 638/803/803 634/799/799 643/808/808
f 643/808/808 640/805/805 638/803/803
f 643/808/808 641/806/806 640/805/805
f 641/806/806 643/808/808 646/811/811
f 673/838/838 628/793/793 633/798/798
f 673/838/838 633/798/798 635/800/800
f 635/800/800 634/799/799 673/838/838
f 674/839/839 675/840/840 576/741/741
f 674/839/839 576/741/741 577/742/742
f 676/841/841 674/839/839 577/742/742
f 677/842/842 676/841/841 577/742/742
f 677/842/842 577/742/742 593/758/758
f 678/843/843 677/842/842 593/758/758
f 678/843/843 593/758/758 572/737/737
f 571/736/736 678/843/843 572/737/737
f 576/741/741 675/840/840 679/844/844
f 632/797/797 576/741/741 679/844/844
f 634/799/799 632/797/797 679/844/844
f 634/799/799 679/844/844 680/845/845
f 673/838/838 634/799/799 680/845/845
f 673/838/838 680/845/845 681/846/846
f 673/838/838 681/846/846 682/847/847
f 673/838/838 682/847/847 683/848/848
f 628/793/793 673/838/838 683/848/848
f 628/793/793 683/848/848 684/849/849
f 628/793/793 684/849/849 685/850/850
f 629/794/794 628/793/793 685/850/850
