#
# Exported by OpenBRF -- marco tarini
#
s wushuang_weapon_shuanggujianr.on_abdomen
newmtl wushuang_weapon_shuanggujian
Ka 0.8 0.8 0.8
Kd 0.2 0.2 0.2
usemtl wushuang_weapon_shuanggujian
v -0.002293 0.705974 0.044204
v 0.049322 0.706503 -0.003546
v -0.050045 0.706328 -0.00741
v 0.00157 0.706858 -0.05516
v -0.000158 1.05596 -0.026508
v -0.025205 1.05571 -0.003338
v -0.000131 0.931124 -0.021562
v -0.020145 0.93093 -0.004251
v 0.018478 0.930997 -0.002748
v 0.023012 1.05579 -0.001462
v -0.001536 0.930802 0.014563
v -0.002034 1.05554 0.021707
v -0.019788 0.967563 -0.003911
v -0.001591 0.967441 0.014325
v -0.029843 0.955109 -0.004413
v -0.019736 0.942691 -0.00413
v -0.001539 0.942568 0.014107
v -0.002222 0.954854 0.0311
v 0.028074 0.955211 -0.00216
v 0.017968 0.96763 -0.002442
v 0.018019 0.942757 -0.002662
v -0.00023 0.967752 -0.02068
v -0.000178 0.94288 -0.020899
v 0.000452 0.955465 -0.037672
v 0.018071 0.918501 -0.002875
v -0.000127 0.918624 -0.021112
v 0.028177 0.906082 -0.002593
v 0.018122 0.893628 -0.003095
v -7.5e-05 0.893751 -0.021332
v 0.000556 0.906337 -0.038105
v -0.029739 0.905981 -0.004846
v -0.019684 0.918435 -0.004344
v -0.019633 0.893562 -0.004563
v -0.001488 0.918312 0.013892
v -0.002118 0.905726 0.030667
v -0.001435 0.893439 0.013674
v 0.047576 1.18752 0.000651
v -0.00082 1.04202 -0.008889
v 0.018603 1.042 -0.001756
v 0.046932 1.49397 0.003316
v -0.001747 1.49395 -0.005499
v -0.050321 1.18735 -0.003156
v -0.020737 1.04193 -0.003286
v -0.050964 1.4938 -0.000491
v -0.001311 1.04191 0.003752
v -0.002284 1.49383 0.008325
v 0.046288 1.80043 0.006016
v -0.003268 2.08911 0.006656
v -0.051608 1.80026 0.002209
v -0.069502 1.08766 -0.016844
v -0.070441 1.08745 0.007301
v -0.084163 1.0765 -0.005422
v -0.041525 1.08717 -0.026356
v -0.043285 1.08677 0.018944
v -0.067514 1.08293 -0.004717
v 0.027679 1.19089 0.009462
v 0.038801 1.11049 0.016249
v 0.02097 1.08694 0.022783
v 0.0609 1.16259 0.000932
v 0.059695 1.17613 0.010575
v 0.073463 1.16718 0.00146
v 0.070656 1.19473 0.001597
v 0.046287 1.17431 0.005485
v 0.043216 1.15395 0.006586
v 0.063597 1.11601 0.009573
v 0.071561 1.15483 0.001329
v 0.075645 1.12989 0.001266
v 0.040089 1.11078 -0.016875
v 0.064288 1.11617 -0.008197
v 0.043711 1.15407 -0.006128
v 0.040374 1.08732 -0.023169
v 0.067527 1.0879 -0.011515
v 0.063346 1.11022 -0.009449
v 0.072577 1.09942 0.000876
v 0.07706 1.11982 0.001231
v 0.081295 1.07679 0.001014
v 0.065431 1.03247 -0.014193
v 0.050524 1.03566 -0.021242
v 0.084755 1.03914 0.000813
v 0.082556 1.06608 0.000967
v 0.06462 1.08316 0.000421
v 0.058199 1.00957 -0.015171
v 0.013866 1.03681 -0.029175
v 0.011532 1.06802 -0.029156
v 0.022835 1.08736 -0.02519
v 0.028422 1.19106 -0.009648
v 0.046677 1.1744 -0.004533
v 0.060438 1.1763 -0.008535
v -0.000299 1.06671 -0.030928
v -0.000236 1.03768 -0.031224
v 0.070361 1.02454 0.000123
v 0.074105 1.00462 -0.008927
v 0.089581 1.01795 0.000812
v 0.09369 0.972166 0.000565
v 0.041468 0.976956 -0.012742
v 0.066588 1.08769 0.01263
v 0.062566 1.11004 0.010642
v 0.038614 1.08691 0.022129
v 0.009406 1.06753 0.025515
v 0.011754 1.03632 0.025162
v -0.002466 1.03717 0.026123
v -0.002525 1.0662 0.02634
v 0.06433 1.03222 0.014152
v 0.048918 1.03529 0.020079
v 0.057059 1.00931 0.01416
v 0.040589 0.976755 0.00986
v 0.073405 1.00446 0.009082
v -0.014361 1.06749 0.024591
v -0.016565 1.03628 0.02406
v -0.064125 1.16237 -0.003931
v -0.076707 1.16691 -0.004379
v -0.063719 1.17592 0.005776
v -0.074016 1.19447 -0.00403
v -0.031765 1.19078 0.00715
v -0.04995 1.17414 0.001742
v -0.046902 1.1538 0.003081
v -0.043099 1.11034 0.013065
v -0.025746 1.08685 0.020965
v -0.053217 1.03511 0.016107
v -0.060784 1.0091 0.009577
v -0.078735 1.12962 -0.004738
v -0.074757 1.15457 -0.004362
v -0.06732 1.11578 0.004481
v -0.043915 0.976607 0.006574
v -0.096117 0.971833 -0.006817
v -0.076668 1.00419 0.003245
v -0.0922 1.01763 -0.006258
v -0.073008 1.02429 -0.005452
v -0.080108 1.11954 -0.004881
v -0.066353 1.10982 0.005628
v -0.075539 1.09916 -0.004885
v -0.087464 1.03884 -0.005885
v -0.085378 1.06578 -0.005564
v -0.068112 1.03199 0.009002
v -0.06663 1.11593 -0.013288
v -0.04181 1.11064 -0.020061
v -0.012236 1.06798 -0.03008
v -0.023881 1.08728 -0.027007
v -0.031023 1.19095 -0.01196
v -0.062977 1.17608 -0.013334
v -0.04956 1.17423 -0.008276
v -0.046407 1.15391 -0.009633
v -0.065573 1.10999 -0.014463
v -0.014453 1.03676 -0.030277
v -0.075967 1.00435 -0.014763
v -0.059643 1.00936 -0.019755
v -0.043035 0.976808 -0.016029
v -0.051611 1.03548 -0.025214
v -0.06701 1.03224 -0.019344
vn 0.00210344 -0.999959 -0.00880451
vt 0.111419 0.484375
vn 0.00210383 -0.999959 -0.00881454
vt 0.179688 0.552644
vn 0.00210383 -0.999959 -0.00881454
vt 0.179688 0.416106
vn 0.00210422 -0.999959 -0.00882457
vt 0.247956 0.484375
vn 0.0389172 -0.0395489 -0.99846
vt 0.054377 0.452349
vn 0.0385053 0.098796 -0.994362
vt 0.054375 0.671422
vn 0.0388534 0.00888556 -0.999205
vt 0.100938 0.452349
vn 0.0388685 0.00888222 -0.999205
vt 0.100936 0.671422
vn -0.669393 0.102309 -0.73583
vt 0.100936 0.992188
vn -0.675971 0.104166 -0.729529
vt 0.054375 0.992188
vn 0.724162 0.104762 -0.681627
vt 0.007813 0.992188
vn 0.709981 0.0576665 -0.701856
vt 0.007813 0.671422
vn 0.0388749 0.00888169 -0.999205
vt 0.007815 0.452349
vn 0.0388836 -0.0810976 -0.995947
vt 0.054375 0.671422
vn 0.0387532 -0.130738 -0.990659
vt 0.054375 0.992188
vn -0.678757 0.0392897 -0.733311
vt 0.054377 0.452349
vn -0.620867 0.476169 0.622725
vt 0.257813 0.926041
vn -0.607558 0.598563 0.522107
vt 0.222587 0.926041
vn -0.607558 0.598563 0.522107
vt 0.257813 0.840897
vn -0.038836 -0.00883716 0.999207
vt 0.1875 0.926041
vn -0.605029 -0.61021 0.511452
vt 0.1875 0.840897
vn -0.038854 -0.00883883 0.999206
vt 0.222587 0.840897
vn 0.563065 0.600577 0.567684
vt 0.222587 0.755705
vn 0.568943 0.478171 0.669071
vt 0.257813 0.755705
vn 0.565611 -0.608146 0.556995
vt 0.187499 0.840897
vn -0.0388358 -0.00892144 0.999206
vt 0.187499 0.755705
vn -0.0243259 -0.751584 0.659188
vt 0.257813 0.840897
vn 0.563058 0.600633 0.567632
vt 0.1875 0.840897
vn 0.554944 0.655271 0.512502
vt 0.222587 0.840897
vn -0.607558 0.598552 0.522119
vt 0.187499 0.840897
vn 0.618851 0.489644 -0.614225
vt 0.257813 0.75511
vn 0.605037 0.610179 -0.51148
vt 0.222587 0.75511
vn 0.605037 0.610179 -0.51148
vt 0.257813 0.840302
vn 0.777343 -0.628596 0.0245977
vt 0.187499 0.75511
vn 0.607558 -0.598553 -0.522119
vt 0.187499 0.840302
vn 0.0388547 0.00891912 -0.999205
vt 0.222587 0.840302
vn -0.565612 0.608132 -0.557009
vt 0.222587 0.925446
vn -0.570984 0.487618 -0.660459
vt 0.257813 0.925446
vn -0.774744 -0.631265 -0.0357255
vt 0.1875 0.925446
vn -0.56309 -0.600573 -0.567663
vt 0.1875 0.840302
vn 0.563062 0.600605 0.567658
vt 0.257813 0.840302
vn -0.595377 0.653244 0.467758
vt 0.222587 0.840302
vn 0.565625 -0.608129 0.556999
vt 0.187499 0.840302
vn -0.60505 -0.610165 0.511482
vt 0.1875 0.840302
vn 0.186773 0.00366747 -0.982396
vt 0.815048 0.757813
vn 0.344195 -0.0530251 -0.9374
vt 0.813711 0.993464
vn 0.0388583 0.000246286 -0.999245
vt 0.892956 0.993464
vn 0.178175 0.00893104 -0.983958
vt 0.817828 0.277456
vn 0.0388433 0.00805831 -0.999213
vt 0.894473 0.277456
vn -0.10993 0.00314522 -0.993934
vt 0.970864 0.757813
vn -0.270177 -0.0541066 -0.961289
vt 0.97095 0.993464
vn -0.101252 0.00843871 -0.994825
vt 0.970502 0.277456
vn -0.339863 -0.0699815 0.937868
vt 0.97718 0.993464
vn -0.0388228 -0.0173906 0.999095
vt 0.892956 0.993464
vn -0.185678 -0.0142615 0.982507
vt 0.976563 0.757813
vn 0.266239 -0.0689124 0.961441
vt 0.808732 0.993464
vn 0.108867 -0.0137429 0.993961
vt 0.80935 0.757813
vn -0.03884 -0.00961912 0.999199
vt 0.894473 0.277456
vn -0.178191 -0.00893051 0.983955
vt 0.971898 0.277456
vn 0.101274 -0.00843829 0.994823
vt 0.816433 0.277456
vn 0.178175 0.0090434 -0.983957
vt 0.637313 0.991846
vn 0.0388246 0.0165545 -0.999109
vt 0.722136 0.991846
vn 0.0388391 0.00888378 -0.999206
vt 0.638954 0.507813
vn 0.0388417 0.00888324 -0.999206
vt 0.718967 0.063217
vn 0.0388444 0.00888383 -0.999206
vt 0.796875 0.507813
vn -0.101252 0.00855196 -0.994824
vt 0.796658 0.991846
vn 0.101274 -0.0085519 0.994822
vt 0.638737 0.991846
vn -0.0388391 -0.00888377 0.999206
vt 0.638954 0.507813
vn -0.0388566 -0.00121266 0.999244
vt 0.722136 0.991846
vn -0.0388417 -0.00888324 0.999206
vt 0.718967 0.063217
vn -0.0388444 -0.00888383 0.999206
vt 0.796875 0.507813
vn -0.178191 -0.00904346 0.983954
vt 0.798083 0.991846
vn -0.614053 0.789085 -0.0168542
vt 0.530527 0.024066
vn -0.614053 0.789085 -0.0168542
vt 0.514264 0.035843
vn -0.614053 0.789085 -0.0168542
vt 0.530527 0.047619
vn -0.046897 0.998875 0.00706615
vt 0.564214 0.057938
vn -0.0657048 0.997819 0.00632412
vt 0.564214 0.013747
vn -0.158938 0.987285 0.0026081
vt 0.5951 0.035843
vn 0.269946 0.162982 0.948982
vt 0.228634 0.417793
vn 0.157003 0.13473 0.978365
vt 0.223253 0.260889
vn 0.264701 0.160678 0.95085
vt 0.254273 0.296336
vn 0.342653 -0.939449 0.00496562
vt 0.292296 0.374805
vn 0.956113 -0.29095 0.0345857
vt 0.314465 0.381702
vn 0.203923 0.0339317 0.978399
vt 0.290876 0.395404
vn 0.575653 0.0545867 0.81587
vt 0.309617 0.423354
vn 0.0315173 -0.199572 0.979376
vt 0.267152 0.389366
vn 0.281549 0.151937 0.947442
vt 0.261519 0.361885
vn 0.244809 0.16599 0.955257
vt 0.297491 0.304512
vn 0.265895 0.147749 0.952612
vt 0.311069 0.363047
vn 0.50169 0.0799935 0.861341
vt 0.318177 0.325349
vn 0.338755 0.176885 -0.924098
vt 0.254273 0.296336
vn 0.37782 0.160808 -0.911808
vt 0.261519 0.361885
vn 0.339177 0.233885 -0.911184
vt 0.297491 0.304512
vn -0.101017 -0.0889225 -0.990903
vt 0.311069 0.363047
vn 0.33957 0.086952 -0.936553
vt 0.254273 0.260788
vn 0.346669 0.201111 -0.916174
vt 0.302879 0.261744
vn 0.304155 0.144156 -0.941652
vt 0.295729 0.295513
vn 0.767775 0.129699 -0.627455
vt 0.312601 0.2811
vn 0.975913 -0.215172 0.035982
vt 0.320634 0.310114
vn 0.761517 0.289755 -0.57977
vt 0.327944 0.24507
vn 0.52519 0.0845505 -0.846774
vt 0.298834 0.177948
vn 0.261159 -0.0294721 -0.964846
vt 0.272114 0.182712
vn 0.600854 0.0536103 -0.797559
vt 0.333906 0.188156
vn 0.550264 0.0938933 -0.829695
vt 0.330127 0.228877
vn 0.60145 0.615004 -0.50993
vt 0.298563 0.25475
vn 0.222176 -0.167666 -0.960482
vt 0.285963 0.143344
vn 0.199503 -0.0757672 -0.976964
vt 0.220975 0.183828
vn 0.162615 0.0333536 -0.986126
vt 0.203021 0.231639
vn 0.233308 0.151234 -0.960571
vt 0.223253 0.260889
vn 0.343919 0.178543 -0.921869
vt 0.228634 0.417793
vn 0.296346 0.0316492 -0.954556
vt 0.267152 0.389366
vn 0.279216 0.0511779 -0.958863
vt 0.290876 0.395404
vn 0.0388267 0.0102727 -0.999193
vt 0.182581 0.229674
vn 0.0388461 0.010848 -0.999186
vt 0.182581 0.185799
vn 0.180736 0.434615 -0.882295
vt 0.308469 0.166139
vn 0.180736 0.434615 -0.882295
vt 0.342336 0.156122
vn 0.180736 0.434615 -0.882295
vt 0.31438 0.135889
vn 0.928195 -0.370645 0.0328067
vt 0.350679 0.081208
vn 0.211908 -0.180235 -0.960526
vt 0.256569 0.094138
vn 0.746314 0.240661 0.620562
vt 0.302879 0.261744
vn 0.502314 0.0730991 0.86159
vt 0.295729 0.295513
vn 0.308447 0.0981526 0.946164
vt 0.254273 0.260788
vn 0.0855026 0.0157347 0.996214
vt 0.203021 0.231639
vn 0.123097 -0.0932367 0.988005
vt 0.220975 0.183828
vn -0.0388541 -0.00694728 0.999221
vt 0.182581 0.185799
vn -0.0388337 -0.00754833 0.999217
vt 0.182581 0.229674
vn 0.486713 0.156988 0.85934
vt 0.298834 0.177948
vn 0.185514 -0.0467721 0.981528
vt 0.272114 0.182712
vn 0.147059 -0.184856 0.971701
vt 0.285963 0.143344
vn 0.136815 -0.197428 0.970723
vt 0.256569 0.094138
vn 0.325021 0.0968657 0.940733
vt 0.31438 0.135889
vn -0.162675 0.015299 0.986561
vt 0.203021 0.231639
vn -0.199127 -0.0938084 0.975473
vt 0.220975 0.183828
vn -0.338721 -0.940641 -0.0215208
vt 0.292296 0.374805
vn -0.279387 0.0331041 0.959608
vt 0.290876 0.395404
vn -0.954884 -0.294315 -0.0396947
vt 0.314465 0.381702
vn -0.637435 0.0525 0.768714
vt 0.309617 0.423354
vn -0.343362 0.161924 0.925139
vt 0.228634 0.417793
vn -0.106759 -0.199841 0.973995
vt 0.267152 0.389366
vn -0.35485 0.150831 0.922676
vt 0.261519 0.361885
vn -0.338298 0.159623 0.927402
vt 0.254273 0.296336
vn -0.232878 0.134052 0.963223
vt 0.223253 0.260889
vn -0.254959 0.0595992 0.965113
vt 0.254273 0.260788
vn -0.260996 -0.0475614 0.964168
vt 0.272114 0.182712
vn -0.221432 -0.185497 0.957371
vt 0.285963 0.143344
vn -0.56734 0.078105 0.819771
vt 0.318177 0.325349
vn -0.318866 0.165008 0.933326
vt 0.297491 0.304512
vn -0.339592 0.146681 0.929065
vt 0.311069 0.363047
vn -0.2111 -0.198033 0.957194
vt 0.256569 0.094138
vn -0.926639 -0.373882 -0.039404
vt 0.350679 0.081208
vn -0.397451 0.0956038 0.912629
vt 0.31438 0.135889
vn -0.501138 0.0323053 0.864764
vt 0.342336 0.156122
vn -0.18254 0.41821 0.88982
vt 0.308469 0.166139
vn -0.975 -0.21861 -0.0398006
vt 0.320634 0.310114
vn -0.986261 0.161023 -0.0368935
vt 0.312601 0.2811
vn -0.568004 0.0712532 0.819935
vt 0.295729 0.295513
vn -0.793115 0.238019 0.560638
vt 0.302879 0.261744
vn -0.762694 0.276338 0.584752
vt 0.327944 0.24507
vn -0.601056 0.0370197 0.798349
vt 0.333906 0.188156
vn -0.552522 0.155155 0.81893
vt 0.298834 0.177948
vn -0.422932 0.167756 0.890498
vt 0.330127 0.228877
vn -0.570394 0.219831 0.791407
vt 0.298563 0.25475
vn 0.985151 0.167019 0.0397671
vt 0.7678 0.035843
vn 0.985151 0.167019 0.0397671
vt 0.744394 0.044626
vn 0.985151 0.167019 0.0397671
vt 0.744394 0.027059
vn 0.76214 -0.646972 0.0238839
vt 0.371138 0.035843
vn 0.469337 -0.882958 0.0103999
vt 0.390197 0.04451
vn 0.338065 -0.941111 0.00475454
vt 0.390197 0.027176
vn 0.10008 -0.994967 -0.00497705
vt 0.420121 0.052
vn 0.102732 -0.994697 -0.00489398
vt 0.420121 0.019686
vn 0.0426875 0.999033 0.0105482
vt 0.564214 0.013747
vn 0.0615015 0.998043 0.0112688
vt 0.564214 0.057938
vn 0.154761 0.987841 0.0148016
vt 0.5951 0.035843
vn -0.759425 -0.64964 -0.0352299
vt 0.371138 0.035843
vn -0.334088 -0.942301 -0.021329
vt 0.390197 0.027176
vn -0.465629 -0.884601 -0.0258972
vt 0.390197 0.04451
vn -0.0958938 -0.995312 -0.012562
vt 0.420121 0.052
vn -0.0985663 -0.99505 -0.0126667
vt 0.420121 0.019686
vn -0.00210975 0.999959 0.00882325
vt 0.007813 0.063679
vn -0.0020886 0.999959 0.00882019
vt 0.007813 0.00781298
vn 0.106529 0.994225 0.012996
vt 0.018715 0.062509
vn 0.106534 0.994224 0.0129972
vt 0.018715 0.00917703
vn 0.983168 0.178319 0.0397964
vt 0.040841 0.012443
vn 0.988609 0.145171 0.0397231
vt 0.040841 0.059242
vn 0.99724 0.0629864 0.0393152
vt 0.159531 0.045114
vn 0.99724 0.0629978 0.039281
vt 0.159531 0.026472
vn 0.0837916 0.99641 0.012117
vt 0.209011 0.035793
vn 0.610741 0.791232 0.0307975
vt 0.530527 0.024066
vn 0.610741 0.791232 0.0307975
vt 0.530527 0.047619
vn 0.610741 0.791232 0.0307975
vt 0.514264 0.035843
vn -0.0426875 -0.999033 -0.0105482
vt 0.564214 0.013747
vn -0.0615015 -0.998043 -0.0112688
vt 0.564214 0.057938
vn 0.997625 -0.0572975 0.038226
vt 0.255519 0.035793
vn 0.634569 -0.772662 0.0177646
vt 0.273683 0.026472
vn 0.450799 -0.892575 0.00953258
vt 0.273683 0.045114
vn -0.740294 -0.671382 -0.0348096
vt 0.289684 0.026472
vn -0.797654 -0.602012 -0.0364612
vt 0.289684 0.045114
vn -0.844222 0.535256 -0.0281157
vt 0.310472 0.042044
vn -0.616727 0.786993 -0.017017
vt 0.310472 0.029642
vn 0.0251765 0.999634 0.00986445
vt 0.342621 0.035843
vn -0.0879973 0.996106 0.00549074
vt 0.209011 0.035793
vn -0.0879972 0.996106 0.00549074
vt 0.159531 0.026472
vn -0.0879975 0.996106 0.00549074
vt 0.159531 0.045114
vn -0.98391 0.174855 -0.0366946
vt 0.040841 0.012443
vn -0.989211 0.141695 -0.0371924
vt 0.040841 0.059242
vn -0.860439 0.508732 -0.0289255
vt 0.018715 0.062509
vn -0.860452 0.508709 -0.0289383
vt 0.018715 0.00917703
vn -0.271911 0.177452 -0.94582
vt 0.228634 0.417793
vn -0.158478 0.150564 -0.975815
vt 0.223253 0.260889
vn -0.266587 0.175836 -0.947635
vt 0.254273 0.296336
vn -0.204096 0.0503069 -0.977657
vt 0.290876 0.395404
vn -0.0282695 -0.185064 -0.98232
vt 0.267152 0.389366
vn -0.306438 0.159599 -0.938416
vt 0.261519 0.361885
vn -0.268219 0.232815 -0.934803
vt 0.297491 0.304512
vn -0.502683 0.0861434 -0.860168
vt 0.295729 0.295513
vn -0.747366 0.248451 -0.616212
vt 0.302879 0.261744
vn -0.308883 0.1135 -0.944303
vt 0.254273 0.260788
vn -0.0855833 0.0329436 -0.995786
vt 0.203021 0.231639
vn -0.122743 -0.0763344 -0.989498
vt 0.220975 0.183828
vn -0.113152 0.434098 -0.893731
vt 0.31438 0.135889
vn -0.14633 -0.16831 -0.974812
vt 0.285963 0.143344
vn -0.136026 -0.180866 -0.974056
vt 0.256569 0.094138
vn -0.185341 -0.0302748 -0.982208
vt 0.272114 0.182712
vn -0.48741 0.170048 -0.856455
vt 0.298834 0.177948
vn -0.985848 0.163524 -0.0369144
vt 0.7678 0.035843
vn -0.985848 0.163524 -0.0369144
vt 0.744394 0.027059
vn -0.985848 0.163524 -0.0369144
vt 0.744394 0.044626
vn -0.613398 -0.78917 -0.0308955
vt 0.310472 0.042044
vn -0.841971 -0.538214 -0.0375575
vt 0.310472 0.029642
vn 0.0294201 -0.999537 -0.00773794
vt 0.342621 0.035843
vn -0.988424 0.147096 -0.0371677
vt 0.289684 0.045114
vn -0.988425 0.14709 -0.0371579
vt 0.289684 0.026472
vn -0.135866 0.990721 0.0035583
vt 0.273683 0.026472
vn -0.135894 0.990717 0.00352929
vt 0.273683 0.045114
vn 0.997378 0.0607511 0.0393187
vt 0.255519 0.035793
vn -0.0882277 -0.996025 -0.012289
vt 0.842129 0.035842
vn -0.812515 -0.58178 -0.0367595
vt 0.902392 0.046867
vn -0.621991 -0.782404 -0.0311475
vt 0.902392 0.024818
vn -0.779937 -0.624829 -0.0358751
vt 0.975558 0.00933897
vn -0.818485 -0.573342 -0.0369096
vt 0.975558 0.062346
vn 0.00207314 -0.999959 -0.00881011
vt 0.991424 0.063815
vn 0.00207295 -0.999959 -0.00881212
vt 0.991424 0.00787097
vn -0.565564 0.824575 -0.0146519
vt 0.465061 0.035843
vn -0.565564 0.824574 -0.0146519
vt 0.448901 0.026043
vn -0.565564 0.824575 -0.0146519
vt 0.448901 0.045643
vn -0.10008 0.994967 0.00497705
vt 0.420121 0.052
vn -0.102732 0.994697 0.00489398
vt 0.420121 0.019686
vn -0.0924081 0.995707 0.00525681
vt 0.902392 0.046867
vn -0.0924084 0.995707 0.00525681
vt 0.902392 0.024818
vn -0.0924084 0.995707 0.00525681
vt 0.842129 0.035842
vn -0.905091 0.424054 -0.0314268
vt 0.975558 0.00933897
vn -0.905088 0.424063 -0.0314099
vt 0.975558 0.062346
vn -0.00207314 0.999959 0.00881011
vt 0.991424 0.063815
vn -0.00207295 0.999959 0.00881212
vt 0.991424 0.00787097
vn -0.842073 -0.538057 -0.0375092
vt 0.725352 0.050149
vn -0.788824 -0.613557 -0.0361186
vt 0.725352 0.021536
vn -0.955265 0.293732 -0.0345161
vt 0.695572 0.015688
vn -0.952598 0.30229 -0.034332
vt 0.695572 0.055997
vn 0.201282 0.979394 0.0165374
vt 0.677602 0.049669
vn 0.201308 0.979389 0.0165266
vt 0.677602 0.022017
vn -0.323139 0.946343 -0.00413819
vt 0.650675 0.035843
vn 0.0985663 0.99505 0.0126667
vt 0.420121 0.019686
vn -0.0252066 0.999651 0.00790518
vt 0.448901 0.026043
vn 0.0958938 0.995312 0.012562
vt 0.420121 0.052
vn -0.0252334 0.99965 0.00792708
vt 0.448901 0.045643
vn 0.562092 0.82656 0.0291868
vt 0.465061 0.035843
vn -0.319113 -0.947488 -0.0208294
vt 0.650675 0.035843
vn 0.0194434 -0.999778 -0.0081298
vt 0.677602 0.022017
vn -0.100009 -0.994905 -0.0127329
vt 0.677602 0.049669
vn -0.954024 -0.297085 -0.0397324
vt 0.695572 0.055997
vn -0.95132 -0.305637 -0.0396889
vt 0.695572 0.015688
vn -0.957242 0.287205 -0.0346649
vt 0.725352 0.021536
vn -0.957235 0.287225 -0.0346802
vt 0.725352 0.050149
vn -0.00210383 0.999959 0.00881454
vt 0.179688 0.416106
vn -0.00210383 0.999959 0.00881454
vt 0.179688 0.552644
vn -0.00210344 0.999959 0.00880451
vt 0.111419 0.484375
vn -0.00210422 0.999959 0.00882457
vt 0.247956 0.484375
vn -0.0388534 -0.00888556 0.999205
vt 0.100938 0.452349
vn -0.532639 -0.0629383 0.843999
vt 0.054375 0.671422
vn -0.0389172 0.0395489 0.99846
vt 0.054377 0.452349
vn -0.439716 0.0459174 0.896962
vt 0.100936 0.671422
vn 0.669393 -0.102309 0.73583
vt 0.100936 0.992188
vn 0.669393 -0.102309 0.73583
vt 0.054375 0.671422
vn 0.65162 -0.0973272 0.752276
vt 0.100936 0.671422
vn 0.675971 -0.104166 0.729529
vt 0.054375 0.992188
vn -0.724162 -0.104762 0.681627
vt 0.007813 0.992188
vn -0.709981 -0.0576665 0.701856
vt 0.007813 0.671422
vn -0.0388749 -0.00888169 0.999205
vt 0.007815 0.452349
vn -0.0388836 0.0810976 0.995947
vt 0.054375 0.671422
vn -0.0387532 0.130738 0.990659
vt 0.054375 0.992188
vn 0.678757 -0.0392897 0.733311
vt 0.054377 0.452349
vn 0.607558 -0.598563 -0.522107
vt 0.257813 0.840897
vn 0.607558 -0.598563 -0.522107
vt 0.222587 0.926041
vn 0.620867 -0.476169 -0.622725
vt 0.257813 0.926041
vn 0.605029 0.61021 -0.511452
vt 0.1875 0.840897
vn 0.038836 0.00883716 -0.999207
vt 0.1875 0.926041
vn 0.038854 0.00883883 -0.999206
vt 0.222587 0.840897
vn -0.563065 -0.600577 -0.567684
vt 0.222587 0.755705
vn -0.568942 -0.478171 -0.669071
vt 0.257813 0.755705
vn -0.565611 0.608146 -0.556995
vt 0.187499 0.840897
vn 0.0388358 0.00892145 -0.999206
vt 0.187499 0.755705
vn 0.0243259 0.751584 -0.659188
vt 0.257813 0.840897
vn -0.563058 -0.600633 -0.567632
vt 0.1875 0.840897
vn -0.554944 -0.65527 -0.512502
vt 0.222587 0.840897
vn 0.607558 -0.598553 -0.522119
vt 0.187499 0.840897
vn -0.605037 -0.610179 0.51148
vt 0.257813 0.840302
vn -0.605037 -0.610179 0.51148
vt 0.222587 0.75511
vn -0.618851 -0.489644 0.614225
vt 0.257813 0.75511
vn -0.607558 0.598553 0.522119
vt 0.187499 0.840302
vn -0.777343 0.628596 -0.0245977
vt 0.187499 0.75511
vn -0.0388547 -0.00891912 0.999205
vt 0.222587 0.840302
vn 0.565612 -0.608132 0.557009
vt 0.222587 0.925446
vn 0.570984 -0.487618 0.660459
vt 0.257813 0.925446
vn 0.56309 0.600573 0.567663
vt 0.1875 0.840302
vn 0.774744 0.631265 0.0357255
vt 0.1875 0.925446
vn -0.563062 -0.600605 -0.567658
vt 0.257813 0.840302
vn 0.595377 -0.653244 -0.467758
vt 0.222587 0.840302
vn -0.565625 0.608129 -0.556999
vt 0.187499 0.840302
vn 0.60505 0.610165 -0.511482
vt 0.1875 0.840302
vn -0.0388583 -0.000246286 0.999245
vt 0.892956 0.993464
vn -0.344195 0.0530251 0.9374
vt 0.813711 0.993464
vn -0.186773 -0.00366747 0.982396
vt 0.815048 0.757813
vn -0.0388433 -0.00805831 0.999213
vt 0.894473 0.277456
vn -0.178175 -0.00893104 0.983958
vt 0.817828 0.277456
vn 0.0968987 -0.00774562 0.995264
vt 0.970864 0.757813
vn 0.270177 0.0541066 0.961289
vt 0.970864 0.757813
vn 0.270177 0.0541066 0.961289
vt 0.97095 0.993464
vn 0.101252 -0.00843871 0.994825
vt 0.970502 0.277456
vn 0.185678 0.0142615 -0.982507
vt 0.976563 0.757813
vn 0.0388228 0.0173906 -0.999095
vt 0.892956 0.993464
vn 0.339863 0.0699815 -0.937868
vt 0.97718 0.993464
vn -0.108867 0.0137429 -0.993961
vt 0.80935 0.757813
vn -0.266239 0.0689124 -0.961441
vt 0.808732 0.993464
vn 0.03884 0.00961912 -0.999199
vt 0.894473 0.277456
vn 0.178191 0.00893051 -0.983955
vt 0.971898 0.277456
vn -0.101274 0.00843829 -0.994823
vt 0.816433 0.277456
vn -0.0388246 -0.0165545 0.999109
vt 0.722136 0.991846
vn -0.178175 -0.0090434 0.983957
vt 0.637313 0.991846
vn 0.101252 -0.00855196 0.994824
vt 0.796658 0.991846
vn 0.0388566 0.00121266 -0.999244
vt 0.722136 0.991846
vn -0.101274 0.0085519 -0.994822
vt 0.638737 0.991846
vn 0.178191 0.00904346 -0.983954
vt 0.798083 0.991846
vn 0.614053 -0.789085 0.0168542
vt 0.530527 0.047619
vn 0.614053 -0.789085 0.0168542
vt 0.514264 0.035843
vn 0.614053 -0.789085 0.0168542
vt 0.530527 0.024066
vn 0.0657048 -0.997819 -0.00632412
vt 0.564214 0.013747
vn 0.046897 -0.998875 -0.00706615
vt 0.564214 0.057938
vn 0.158938 -0.987285 -0.0026081
vt 0.5951 0.035843
vn -0.264701 -0.160678 -0.95085
vt 0.254273 0.296336
vn -0.157003 -0.13473 -0.978365
vt 0.223253 0.260889
vn -0.269946 -0.162982 -0.948982
vt 0.228634 0.417793
vn -0.203923 -0.0339317 -0.978399
vt 0.290876 0.395404
vn -0.956113 0.29095 -0.0345857
vt 0.314465 0.381702
vn -0.342653 0.939449 -0.00496562
vt 0.292296 0.374805
vn -0.575653 -0.0545867 -0.81587
vt 0.309617 0.423354
vn -0.0315173 0.199572 -0.979376
vt 0.267152 0.389366
vn -0.281549 -0.151937 -0.947441
vt 0.261519 0.361885
vn -0.244809 -0.16599 -0.955257
vt 0.297491 0.304512
vn -0.50169 -0.0799935 -0.861341
vt 0.318177 0.325349
vn -0.339177 -0.233885 0.911184
vt 0.297491 0.304512
vn -0.37782 -0.160808 0.911808
vt 0.261519 0.361885
vn -0.338755 -0.176885 0.924098
vt 0.254273 0.296336
vn -0.25725 -0.0445728 0.965317
vt 0.311069 0.363047
vn -0.346669 -0.20111 0.916174
vt 0.302879 0.261744
vn -0.33957 -0.086952 0.936553
vt 0.254273 0.260788
vn -0.304155 -0.144156 0.941652
vt 0.295729 0.295513
vn -0.767775 -0.129699 0.627455
vt 0.312601 0.2811
vn -0.975913 0.215172 -0.035982
vt 0.320634 0.310114
vn -0.761517 -0.289755 0.57977
vt 0.327944 0.24507
vn -0.280452 -0.0193056 0.959674
vt 0.272114 0.182712
vn -0.52519 -0.0845505 0.846774
vt 0.298834 0.177948
vn -0.550264 -0.0938934 0.829695
vt 0.330127 0.228877
vn -0.600854 -0.0536103 0.797559
vt 0.333906 0.188156
vn -0.60145 -0.615003 0.50993
vt 0.298563 0.25475
vn -0.203684 0.164677 0.965088
vt 0.272114 0.182712
vn -0.199503 0.0757672 0.976964
vt 0.220975 0.183828
vn -0.222176 0.167666 0.960482
vt 0.285963 0.143344
vn -0.162615 -0.0333536 0.986126
vt 0.203021 0.231639
vn -0.233308 -0.151234 0.960571
vt 0.223253 0.260889
vn -0.343919 -0.178543 0.921869
vt 0.228634 0.417793
vn -0.296346 -0.0316492 0.954556
vt 0.267152 0.389366
vn -0.279216 -0.0511779 0.958863
vt 0.290876 0.395404
vn -0.0388461 -0.010848 0.999186
vt 0.182581 0.185799
vn -0.0388267 -0.0102727 0.999193
vt 0.182581 0.229674
vn -0.180736 -0.434615 0.882295
vt 0.31438 0.135889
vn -0.180736 -0.434615 0.882295
vt 0.342336 0.156122
vn -0.180736 -0.434615 0.882295
vt 0.308469 0.166139
vn -0.500978 -0.0496219 0.864036
vt 0.350679 0.081208
vn -0.771142 0.432505 -0.467204
vt 0.350679 0.081208
vn -0.211908 0.180235 0.960526
vt 0.256569 0.094138
vn -0.746314 -0.240661 -0.620562
vt 0.302879 0.261744
vn -0.380544 -0.026578 -0.924381
vt 0.295729 0.295513
vn -0.782506 -0.193425 -0.591838
vt 0.295729 0.295513
vn -0.308447 -0.0981526 -0.946164
vt 0.254273 0.260788
vn -0.0855026 -0.0157347 -0.996214
vt 0.203021 0.231639
vn -0.123097 0.0932367 -0.988005
vt 0.220975 0.183828
vn 0.0388541 0.00694728 -0.999221
vt 0.182581 0.185799
vn 0.0388337 0.00754833 -0.999217
vt 0.182581 0.229674
vn -0.486713 -0.156988 -0.85934
vt 0.298834 0.177948
vn -0.20512 -0.00207561 -0.978735
vt 0.272114 0.182712
vn -0.147059 0.184856 -0.971701
vt 0.285963 0.143344
vn -0.128274 0.181924 -0.97491
vt 0.272114 0.182712
vn -0.136815 0.197428 -0.970723
vt 0.256569 0.094138
vn -0.325021 -0.0968658 -0.940733
vt 0.31438 0.135889
vn 0.171967 0.00486201 -0.985091
vt 0.203021 0.231639
vn 0.199127 0.0938084 -0.975473
vt 0.220975 0.183828
vn 0.954884 0.294315 0.0396947
vt 0.314465 0.381702
vn 0.279387 -0.0331041 -0.959608
vt 0.290876 0.395404
vn 0.338721 0.940641 0.0215208
vt 0.292296 0.374805
vn 0.637435 -0.0524999 -0.768714
vt 0.309617 0.423354
vn 0.343362 -0.161924 -0.925139
vt 0.228634 0.417793
vn 0.106759 0.199841 -0.973995
vt 0.267152 0.389366
vn 0.35485 -0.150831 -0.922676
vt 0.261519 0.361885
vn 0.338298 -0.159623 -0.927402
vt 0.254273 0.296336
vn 0.232878 -0.134052 -0.963223
vt 0.223253 0.260889
vn 0.254959 -0.0595992 -0.965113
vt 0.254273 0.260788
vn 0.114247 -0.117557 -0.986473
vt 0.203021 0.231639
vn 0.209386 0.0704501 -0.975292
vt 0.272114 0.182712
vn 0.221432 0.185497 -0.957371
vt 0.285963 0.143344
vn 0.339592 -0.146681 -0.929065
vt 0.311069 0.363047
vn 0.318866 -0.165008 -0.933326
vt 0.297491 0.304512
vn 0.56734 -0.0781051 -0.819771
vt 0.318177 0.325349
vn 0.2111 0.198034 -0.957194
vt 0.256569 0.094138
vn 0.926639 0.373882 0.039404
vt 0.350679 0.081208
vn 0.397451 -0.0956038 -0.912629
vt 0.31438 0.135889
vn 0.501138 -0.0323053 -0.864764
vt 0.342336 0.156122
vn 0.18254 -0.41821 -0.88982
vt 0.308469 0.166139
vn 0.451323 -0.0251279 -0.892007
vt 0.295729 0.295513
vn 0.901274 -0.07489 0.426727
vt 0.312601 0.2811
vn 0.975 0.21861 0.0398006
vt 0.320634 0.310114
vn 0.826783 -0.190686 -0.529215
vt 0.295729 0.295513
vn 0.793115 -0.238019 -0.560638
vt 0.302879 0.261744
vn 0.793115 -0.238019 -0.560638
vt 0.312601 0.2811
vn 0.762694 -0.276338 -0.584752
vt 0.327944 0.24507
vn 0.422932 -0.167756 -0.890498
vt 0.330127 0.228877
vn 0.552522 -0.155155 -0.81893
vt 0.298834 0.177948
vn 0.601056 -0.0370197 -0.798349
vt 0.333906 0.188156
vn 0.570394 -0.219831 -0.791407
vt 0.298563 0.25475
vn 0.436153 -0.0344729 -0.899212
vt 0.272114 0.182712
vn -0.985151 -0.167019 -0.0397671
vt 0.744394 0.027059
vn -0.985151 -0.167019 -0.0397671
vt 0.744394 0.044626
vn -0.985151 -0.167019 -0.0397671
vt 0.7678 0.035843
vn -0.338065 0.941111 -0.00475454
vt 0.390197 0.027176
vn -0.469337 0.882958 -0.0103999
vt 0.390197 0.04451
vn -0.76214 0.646972 -0.0238839
vt 0.371138 0.035843
vn -0.154761 -0.987841 -0.0148016
vt 0.5951 0.035843
vn 0.465629 0.884601 0.0258972
vt 0.390197 0.04451
vn 0.334088 0.942301 0.021329
vt 0.390197 0.027176
vn 0.759425 0.64964 0.0352299
vt 0.371138 0.035843
vn -0.106529 -0.994225 -0.012996
vt 0.018715 0.062509
vn 0.0020886 -0.999959 -0.00882019
vt 0.007813 0.00781298
vn 0.00210975 -0.999959 -0.00882325
vt 0.007813 0.063679
vn -0.106534 -0.994224 -0.0129972
vt 0.018715 0.00917703
vn -0.983168 -0.178319 -0.0397964
vt 0.040841 0.012443
vn -0.988609 -0.145171 -0.0397231
vt 0.040841 0.059242
vn -0.99724 -0.0629864 -0.0393152
vt 0.159531 0.045114
vn -0.99724 -0.0629978 -0.039281
vt 0.159531 0.026472
vn -0.0837916 -0.99641 -0.012117
vt 0.209011 0.035793
vn -0.610741 -0.791232 -0.0307975
vt 0.514264 0.035843
vn -0.610741 -0.791232 -0.0307975
vt 0.530527 0.047619
vn -0.610741 -0.791232 -0.0307975
vt 0.530527 0.024066
vn -0.450799 0.892575 -0.00953258
vt 0.273683 0.045114
vn -0.634569 0.772662 -0.0177646
vt 0.273683 0.026472
vn -0.997625 0.0572975 -0.038226
vt 0.255519 0.035793
vn 0.740294 0.671382 0.0348096
vt 0.289684 0.026472
vn 0.797654 0.602012 0.0364612
vt 0.289684 0.045114
vn 0.844222 -0.535256 0.0281157
vt 0.310472 0.042044
vn 0.616727 -0.786993 0.017017
vt 0.310472 0.029642
vn -0.0251765 -0.999634 -0.00986445
vt 0.342621 0.035843
vn 0.0879973 -0.996106 -0.00549074
vt 0.159531 0.045114
vn 0.0879973 -0.996106 -0.00549074
vt 0.159531 0.026472
vn 0.0879973 -0.996106 -0.00549074
vt 0.209011 0.035793
vn 0.98391 -0.174855 0.0366946
vt 0.040841 0.012443
vn 0.989211 -0.141695 0.0371924
vt 0.040841 0.059242
vn 0.860439 -0.508732 0.0289255
vt 0.018715 0.062509
vn 0.860452 -0.508709 0.0289383
vt 0.018715 0.00917703
vn 0.266587 -0.175836 0.947635
vt 0.254273 0.296336
vn 0.158478 -0.150564 0.975815
vt 0.223253 0.260889
vn 0.271911 -0.177452 0.94582
vt 0.228634 0.417793
vn 0.204096 -0.0503069 0.977657
vt 0.290876 0.395404
vn 0.0282695 0.185064 0.98232
vt 0.267152 0.389366
vn 0.306438 -0.159599 0.938416
vt 0.261519 0.361885
vn 0.268219 -0.232815 0.934803
vt 0.297491 0.304512
vn 0.380719 -0.0412385 0.923771
vt 0.295729 0.295513
vn 0.747366 -0.248451 0.616212
vt 0.302879 0.261744
vn 0.783367 -0.200548 0.588317
vt 0.295729 0.295513
vn 0.308883 -0.1135 0.944303
vt 0.254273 0.260788
vn 0.0855833 -0.0329435 0.995786
vt 0.203021 0.231639
vn 0.120825 -0.00827247 0.992639
vt 0.220975 0.183828
vn 0.113152 -0.434098 0.893731
vt 0.31438 0.135889
vn 0.14633 0.16831 0.974813
vt 0.285963 0.143344
vn 0.136026 0.180866 0.974056
vt 0.256569 0.094138
vn 0.12385 0.171124 0.977434
vt 0.220975 0.183828
vn 0.185341 0.0302748 0.982208
vt 0.272114 0.182712
vn 0.48741 -0.170048 0.856455
vt 0.298834 0.177948
vn 0.985848 -0.163524 0.0369144
vt 0.744394 0.044626
vn 0.985848 -0.163524 0.0369144
vt 0.744394 0.027059
vn 0.985848 -0.163524 0.0369144
vt 0.7678 0.035843
vn -0.0294201 0.999537 0.00773794
vt 0.342621 0.035843
vn 0.841971 0.538214 0.0375575
vt 0.310472 0.029642
vn 0.613398 0.78917 0.0308955
vt 0.310472 0.042044
vn 0.988424 -0.147096 0.0371677
vt 0.289684 0.045114
vn 0.988425 -0.14709 0.0371579
vt 0.289684 0.026472
vn 0.135866 -0.990721 -0.0035583
vt 0.273683 0.026472
vn 0.135894 -0.990717 -0.00352929
vt 0.273683 0.045114
vn -0.997378 -0.0607511 -0.0393187
vt 0.255519 0.035793
vn 0.621991 0.782404 0.0311475
vt 0.902392 0.024818
vn 0.812515 0.58178 0.0367595
vt 0.902392 0.046867
vn 0.0882277 0.996025 0.012289
vt 0.842129 0.035842
vn 0.779937 0.624829 0.0358751
vt 0.975558 0.00933897
vn 0.818485 0.573342 0.0369096
vt 0.975558 0.062346
vn 0.565564 -0.824575 0.0146519
vt 0.448901 0.045643
vn 0.565564 -0.824575 0.0146519
vt 0.448901 0.026043
vn 0.565564 -0.824575 0.0146519
vt 0.465061 0.035843
vn 0.0924084 -0.995707 -0.00525681
vt 0.842129 0.035842
vn 0.0924084 -0.995707 -0.00525681
vt 0.902392 0.024818
vn 0.0924084 -0.995707 -0.00525681
vt 0.902392 0.046867
vn 0.905091 -0.424054 0.0314268
vt 0.975558 0.00933897
vn 0.905088 -0.424063 0.0314099
vt 0.975558 0.062346
vn 0.842073 0.538057 0.0375092
vt 0.725352 0.050149
vn 0.788824 0.613558 0.0361186
vt 0.725352 0.021536
vn 0.955265 -0.293732 0.0345161
vt 0.695572 0.015688
vn 0.952598 -0.30229 0.034332
vt 0.695572 0.055997
vn -0.201282 -0.979394 -0.0165374
vt 0.677602 0.049669
vn -0.201308 -0.979389 -0.0165266
vt 0.677602 0.022017
vn 0.323139 -0.946343 0.00413819
vt 0.650675 0.035843
vn 0.0252066 -0.999651 -0.00790518
vt 0.448901 0.026043
vn 0.0252334 -0.99965 -0.00792708
vt 0.448901 0.045643
vn -0.562092 -0.82656 -0.0291868
vt 0.465061 0.035843
vn 0.100009 0.994905 0.0127329
vt 0.677602 0.049669
vn -0.0194434 0.999778 0.0081298
vt 0.677602 0.022017
vn 0.319113 0.947488 0.0208294
vt 0.650675 0.035843
vn 0.954024 0.297085 0.0397324
vt 0.695572 0.055997
vn 0.95132 0.305637 0.0396889
vt 0.695572 0.015688
vn 0.957242 -0.287205 0.0346649
vt 0.725352 0.021536
vn 0.957235 -0.287225 0.0346802
vt 0.725352 0.050149
f 1/1/1 3/2/2 2/3/3
f 3/2/2 4/4/4 2/3/3
f 5/5/5 7/6/6 6/7/7
f 6/7/7 7/6/6 8/8/8
f 8/8/8 7/6/6 3/9/9
f 3/9/9 7/6/6 4/10/10
f 4/10/10 7/6/6 2/11/11
f 2/11/11 7/6/6 9/12/12
f 9/12/12 7/6/6 10/13/13
f 7/6/6 5/5/5 10/13/13
f 11/14/14 3/9/9 8/8/8
f 11/14/14 1/15/15 3/9/9
f 11/14/14 2/11/11 1/15/15
f 11/14/14 9/12/12 2/11/11
f 11/14/14 10/13/13 9/12/12
f 11/14/14 12/16/16 10/13/13
f 11/14/14 6/7/7 12/16/16
f 8/8/8 6/7/7 11/14/14
f 13/17/17 15/18/18 14/19/19
f 16/20/20 17/21/21 15/18/18
f 17/21/21 18/22/22 15/18/18
f 15/18/18 18/22/22 14/19/19
f 18/22/22 19/23/23 14/19/19
f 14/19/19 19/23/23 20/24/24
f 18/22/22 17/25/25 19/23/23
f 19/23/23 17/25/25 21/26/26
f 15/18/18 22/27/27 13/17/17
f 23/28/28 15/18/18 16/20/20
f 24/29/29 15/18/18 23/28/28
f 24/29/29 22/27/27 15/18/18
f 19/23/23 22/27/27 24/29/29
f 19/23/23 20/24/24 22/27/27
f 23/30/30 19/23/23 24/29/29
f 21/26/26 19/23/23 23/30/30
f 25/31/31 27/32/32 26/33/33
f 28/34/34 29/35/35 27/32/32
f 29/35/35 30/36/36 27/32/32
f 27/32/32 30/36/36 26/33/33
f 30/36/36 31/37/37 26/33/33
f 26/33/33 31/37/37 32/38/38
f 33/39/39 31/37/37 29/40/40
f 29/40/40 31/37/37 30/36/36
f 25/31/31 34/41/41 27/32/32
f 32/38/38 31/37/37 34/41/41
f 31/37/37 35/42/42 34/41/41
f 34/41/41 35/42/42 27/32/32
f 35/42/42 36/43/43 27/32/32
f 27/32/32 36/43/43 28/34/34
f 33/39/39 36/44/44 31/37/37
f 31/37/37 36/44/44 35/42/42
f 37/45/45 39/46/46 38/47/47
f 40/48/48 37/45/45 41/49/49
f 37/45/45 38/47/47 41/49/49
f 41/49/49 38/47/47 42/50/50
f 38/47/47 43/51/51 42/50/50
f 44/52/52 41/49/49 42/50/50
f 43/53/53 45/54/54 42/55/55
f 39/56/56 37/57/57 45/54/54
f 37/57/57 46/58/58 45/54/54
f 45/54/54 46/58/58 42/55/55
f 46/58/58 44/59/59 42/55/55
f 40/60/60 46/58/58 37/57/57
f 40/61/61 41/62/62 47/63/63
f 47/63/63 41/62/62 48/64/64
f 48/64/64 41/62/62 49/65/65
f 41/62/62 44/66/66 49/65/65
f 40/67/67 47/68/68 46/69/69
f 47/68/68 48/70/70 46/69/69
f 48/70/70 49/71/71 46/69/69
f 46/69/69 49/71/71 44/72/72
f 50/73/73 52/74/74 51/75/75
f 50/73/73 54/76/76 53/77/77
f 51/75/75 54/76/76 50/73/73
f 54/76/76 53/77/77 55/78/78
f 56/79/79 58/80/80 57/81/81
f 59/82/82 61/83/83 60/84/84
f 61/83/83 62/85/85 60/84/84
f 62/85/85 56/79/79 60/84/84
f 60/84/84 56/79/79 63/86/86
f 63/86/86 56/79/79 64/87/87
f 56/79/79 57/81/81 64/87/87
f 57/81/81 65/88/88 64/87/87
f 64/87/87 65/88/88 66/89/89
f 65/88/88 67/90/90 66/89/89
f 68/91/91 70/92/92 69/93/93
f 69/93/93 70/92/92 67/90/90
f 70/92/92 66/94/94 67/90/90
f 71/95/95 68/91/91 72/96/96
f 68/91/91 73/97/97 72/96/96
f 72/96/96 73/97/97 74/98/98
f 73/97/97 75/99/99 74/98/98
f 74/98/98 76/100/100 72/96/96
f 77/101/101 78/102/102 71/95/95
f 79/103/103 77/101/101 80/104/104
f 77/101/101 71/95/95 80/104/104
f 80/104/104 71/95/95 81/105/105
f 82/106/106 83/107/107 78/102/102
f 78/102/102 83/107/107 71/95/95
f 83/107/107 84/108/108 71/95/95
f 84/108/108 85/109/109 71/95/95
f 71/95/95 85/109/109 68/91/91
f 85/109/109 86/110/110 68/91/91
f 68/91/91 86/110/110 70/92/92
f 70/92/92 86/110/110 87/111/111
f 87/111/111 86/110/110 88/112/112
f 86/110/110 62/85/85 88/112/112
f 62/85/85 61/83/83 88/112/112
f 88/112/112 61/83/83 59/82/82
f 89/113/113 84/108/108 90/114/114
f 84/108/108 83/107/107 90/114/114
f 91/115/115 93/116/116 92/117/117
f 93/116/116 94/118/118 92/117/117
f 92/117/117 94/118/118 82/106/106
f 94/118/118 95/119/119 82/106/106
f 82/106/106 95/119/119 83/107/107
f 76/100/100 74/98/98 96/120/120
f 75/99/99 97/121/121 74/98/98
f 74/98/98 97/121/121 96/120/120
f 97/121/121 57/81/81 96/120/120
f 96/120/120 57/81/81 98/122/122
f 57/81/81 58/80/80 98/122/122
f 58/80/80 99/123/123 98/122/122
f 98/122/122 99/123/123 100/124/124
f 100/124/124 99/123/123 101/125/125
f 99/123/123 102/126/126 101/125/125
f 79/103/103 80/104/104 103/127/127
f 80/104/104 81/105/105 103/127/127
f 81/105/105 98/122/122 103/127/127
f 103/127/127 98/122/122 104/128/128
f 98/122/122 100/124/124 104/128/128
f 104/128/128 100/124/124 105/129/129
f 100/124/124 106/130/130 105/129/129
f 106/130/130 94/118/118 105/129/129
f 105/129/129 94/118/118 107/131/131
f 94/118/118 93/116/116 107/131/131
f 107/131/131 93/116/116 91/115/115
f 102/126/126 108/132/132 101/125/125
f 108/132/132 109/133/133 101/125/125
f 110/134/134 112/135/135 111/136/136
f 111/136/136 112/135/135 113/137/137
f 113/137/137 112/135/135 114/138/138
f 112/135/135 115/139/139 114/138/138
f 115/139/139 116/140/140 114/138/138
f 116/140/140 117/141/141 114/138/138
f 114/138/138 117/141/141 118/142/142
f 117/141/141 54/143/143 118/142/142
f 118/142/142 54/143/143 108/132/132
f 108/132/132 54/143/143 109/133/133
f 54/143/143 119/144/144 109/133/133
f 109/133/133 119/144/144 120/145/145
f 121/146/146 123/147/147 122/148/148
f 122/148/148 123/147/147 116/140/140
f 116/140/140 123/147/147 117/141/141
f 109/133/133 120/145/145 124/149/149
f 124/149/149 120/145/145 125/150/150
f 120/145/145 126/151/151 125/150/150
f 125/150/150 126/151/151 127/152/152
f 126/151/151 128/153/153 127/152/152
f 129/154/154 131/155/155 130/156/156
f 131/155/155 51/157/157 130/156/156
f 130/156/156 51/157/157 117/141/141
f 51/157/157 54/143/143 117/141/141
f 131/155/155 52/158/158 51/157/157
f 132/159/159 134/160/160 133/161/161
f 133/161/161 134/160/160 55/162/162
f 55/162/162 134/160/160 54/143/143
f 134/160/160 119/144/144 54/143/143
f 91/163/163 107/164/164 92/165/165
f 67/166/166 65/167/167 69/168/168
f 65/167/167 57/169/169 69/168/168
f 69/168/168 57/169/169 68/170/170
f 71/171/171 98/172/172 81/173/173
f 121/174/174 135/175/175 123/176/176
f 123/176/176 135/175/175 117/177/177
f 135/175/175 136/178/178 117/177/177
f 102/179/179 89/180/180 108/181/181
f 89/180/180 137/182/182 108/181/181
f 137/182/182 138/183/183 108/181/181
f 108/181/181 138/183/183 118/184/184
f 118/184/184 138/183/183 114/185/185
f 138/183/183 139/186/186 114/185/185
f 114/185/185 139/186/186 113/187/187
f 72/188/188 96/189/189 76/190/190
f 72/188/188 96/189/189 71/191/191
f 71/191/191 96/189/189 98/192/192
f 110/193/193 140/194/194 112/195/195
f 140/194/194 141/196/196 112/195/195
f 112/195/195 141/196/196 115/197/197
f 115/197/197 141/196/196 116/198/198
f 141/196/196 142/199/199 116/198/198
f 142/199/199 122/200/200 116/198/198
f 62/201/201 86/202/202 56/203/203
f 86/202/202 85/204/204 56/203/203
f 56/203/203 85/204/204 58/205/205
f 58/205/205 85/204/204 99/206/206
f 85/204/204 84/207/207 99/206/206
f 84/207/207 89/180/180 99/206/206
f 99/206/206 89/180/180 102/179/179
f 139/208/208 138/209/209 136/210/210
f 110/134/134 111/136/136 140/211/211
f 111/136/136 113/137/137 140/211/211
f 113/137/137 139/208/208 140/211/211
f 140/211/211 139/208/208 141/212/212
f 141/212/212 139/208/208 142/213/213
f 139/208/208 136/210/210 142/213/213
f 136/210/210 135/214/214 142/213/213
f 135/214/214 121/146/146 142/213/213
f 142/213/213 121/146/146 122/148/148
f 129/154/154 143/215/215 131/155/155
f 131/155/155 143/215/215 50/216/216
f 143/215/215 136/210/210 50/216/216
f 50/216/216 136/210/210 53/217/217
f 136/210/210 138/209/209 53/217/217
f 138/209/209 137/218/218 53/217/217
f 53/217/217 137/218/218 144/219/219
f 144/219/219 137/218/218 90/114/114
f 137/218/218 89/113/113 90/114/114
f 52/158/158 131/155/155 50/216/216
f 128/153/153 145/220/220 127/152/152
f 127/152/152 145/220/220 125/150/150
f 145/220/220 146/221/221 125/150/150
f 125/150/150 146/221/221 147/222/222
f 147/222/222 146/221/221 144/219/219
f 146/221/221 148/223/223 144/219/219
f 144/219/219 148/223/223 53/217/217
f 148/223/223 149/224/224 53/217/217
f 53/217/217 149/224/224 55/162/162
f 55/162/162 149/224/224 133/161/161
f 149/224/224 132/159/159 133/161/161
f 128/225/225 145/226/226 126/227/227
f 64/228/228 70/229/229 66/230/230
f 63/231/231 70/229/229 64/228/228
f 63/231/231 87/232/232 70/229/229
f 63/231/231 88/233/233 87/232/232
f 60/234/234 88/233/233 63/231/231
f 60/234/234 59/235/235 88/233/233
f 94/236/236 106/237/237 95/238/238
f 95/238/238 106/237/237 83/239/239
f 106/237/237 100/240/240 83/239/239
f 100/240/240 101/241/241 83/239/239
f 83/239/239 101/241/241 90/242/242
f 75/243/243 73/244/244 97/245/245
f 97/245/245 73/244/244 57/246/246
f 73/244/244 68/247/247 57/246/246
f 124/248/248 147/249/249 125/250/250
f 124/248/248 144/251/251 147/249/249
f 109/252/252 144/251/251 124/248/248
f 101/253/253 144/251/251 109/252/252
f 101/253/253 90/254/254 144/251/251
f 105/255/255 92/165/165 107/164/164
f 105/255/255 82/256/256 92/165/165
f 105/255/255 78/257/257 82/256/256
f 104/258/258 78/257/257 105/255/255
f 103/259/259 78/257/257 104/258/258
f 103/259/259 77/260/260 78/257/257
f 79/261/261 77/260/260 103/259/259
f 136/262/262 143/263/263 117/264/264
f 117/264/264 143/263/263 130/265/265
f 143/263/263 129/266/266 130/265/265
f 132/267/267 149/268/268 134/269/269
f 134/269/269 149/268/268 119/270/270
f 149/268/268 148/271/271 119/270/270
f 148/271/271 146/272/272 119/270/270
f 119/270/270 146/272/272 120/273/273
f 120/273/273 146/272/272 126/227/227
f 146/272/272 145/226/226 126/227/227
f 2/274/274 3/275/275 1/276/276
f 2/274/274 4/277/277 3/275/275
f 6/278/278 7/279/279 5/280/280
f 8/281/281 7/279/279 6/278/278
f 3/282/282 7/283/283 8/284/284
f 4/285/285 7/283/283 3/282/282
f 2/286/286 7/279/279 4/10/10
f 9/287/287 7/279/279 2/286/286
f 10/288/288 7/279/279 9/287/287
f 10/288/288 5/280/280 7/279/279
f 8/281/281 3/9/9 11/289/289
f 3/9/9 1/290/290 11/289/289
f 1/290/290 2/11/11 11/289/289
f 2/11/11 9/12/12 11/289/289
f 9/12/12 10/288/288 11/289/289
f 10/288/288 12/291/291 11/289/289
f 12/16/16 6/278/278 11/289/289
f 11/289/289 6/278/278 8/281/281
f 14/292/292 15/293/293 13/294/294
f 15/18/18 17/295/295 16/296/296
f 15/18/18 18/297/297 17/295/295
f 14/292/292 18/297/297 15/293/293
f 14/19/19 19/298/298 18/297/297
f 20/299/299 19/298/298 14/19/19
f 19/23/23 17/300/300 18/297/297
f 21/301/301 17/300/300 19/23/23
f 13/17/17 22/302/302 15/18/18
f 16/296/296 15/18/18 23/303/303
f 23/303/303 15/18/18 24/304/304
f 15/18/18 22/302/302 24/29/29
f 24/29/29 22/302/302 19/23/23
f 22/302/302 20/24/24 19/23/23
f 24/29/29 19/23/23 23/305/305
f 23/305/305 19/23/23 21/301/301
f 26/306/306 27/307/307 25/308/308
f 27/32/32 29/309/309 28/310/310
f 27/32/32 30/311/311 29/309/309
f 26/306/306 30/311/311 27/307/307
f 26/33/33 31/312/312 30/311/311
f 32/313/313 31/312/312 26/33/33
f 29/314/314 31/37/37 33/315/315
f 30/311/311 31/37/37 29/314/314
f 27/32/32 34/316/316 25/31/31
f 34/41/41 31/37/37 32/38/38
f 34/41/41 35/317/317 31/37/37
f 27/32/32 35/42/42 34/316/316
f 27/32/32 36/318/318 35/42/42
f 28/310/310 36/318/318 27/32/32
f 31/37/37 36/319/319 33/315/315
f 35/42/42 36/319/319 31/37/37
f 38/320/320 39/321/321 37/322/322
f 41/323/323 37/322/322 40/324/324
f 41/323/323 38/320/320 37/322/322
f 42/325/325 38/320/320 41/323/323
f 42/326/326 43/327/327 38/320/320
f 42/325/325 41/323/323 44/328/328
f 42/329/329 45/330/330 43/331/331
f 45/330/330 37/332/332 39/333/333
f 45/330/330 46/334/334 37/332/332
f 42/329/329 46/334/334 45/330/330
f 42/329/329 44/335/335 46/334/334
f 37/332/332 46/334/334 40/336/336
f 47/68/68 41/337/337 40/338/338
f 48/70/70 41/337/337 47/68/68
f 49/71/71 41/337/337 48/70/70
f 49/71/71 44/339/339 41/337/337
f 46/340/340 47/63/63 40/341/341
f 46/340/340 48/64/64 47/63/63
f 46/340/340 49/65/65 48/64/64
f 44/342/342 49/65/65 46/340/340
f 51/343/343 52/344/344 50/345/345
f 53/346/346 54/347/347 50/73/73
f 50/73/73 54/347/347 51/75/75
f 55/348/348 53/346/346 54/347/347
f 57/349/349 58/350/350 56/351/351
f 60/352/352 61/353/353 59/354/354
f 60/352/352 62/355/355 61/353/353
f 60/352/352 56/351/351 62/85/85
f 63/356/356 56/79/79 60/352/352
f 64/357/357 56/351/351 63/356/356
f 64/357/357 57/349/349 56/351/351
f 64/357/357 65/358/358 57/349/349
f 66/94/94 65/358/358 64/357/357
f 66/94/94 67/359/359 65/358/358
f 69/360/360 70/361/361 68/362/362
f 67/90/90 70/361/361 69/360/360
f 67/90/90 66/363/363 70/361/361
f 72/364/364 68/362/362 71/365/365
f 72/364/364 73/366/366 68/362/362
f 74/367/367 73/97/97 72/96/96
f 74/367/367 75/368/368 73/97/97
f 72/96/96 76/369/369 74/367/367
f 71/365/365 78/370/370 77/371/371
f 80/372/372 77/371/371 79/373/373
f 80/372/372 71/365/365 77/371/371
f 81/374/374 71/95/95 80/104/104
f 78/375/375 83/376/376 82/377/377
f 71/365/365 83/376/376 78/370/370
f 71/365/365 84/378/378 83/376/376
f 71/365/365 85/379/379 84/378/378
f 68/362/362 85/379/379 71/365/365
f 68/362/362 86/380/380 85/379/379
f 70/361/361 86/380/380 68/362/362
f 87/381/381 86/380/380 70/361/361
f 88/382/382 86/110/110 87/111/111
f 88/382/382 62/85/85 86/380/380
f 88/382/382 61/353/353 62/85/85
f 59/354/354 61/353/353 88/382/382
f 90/383/383 84/378/378 89/384/384
f 90/383/383 83/376/376 84/378/378
f 92/385/385 93/386/386 91/387/387
f 92/117/117 94/388/388 93/116/116
f 82/377/377 94/389/389 92/117/117
f 82/377/377 95/390/390 94/389/389
f 83/376/376 95/390/390 82/377/377
f 96/391/391 74/98/98 76/100/100
f 74/98/98 97/392/392 75/368/368
f 96/391/391 97/393/393 74/98/98
f 96/120/120 57/349/349 97/392/392
f 98/394/394 57/349/349 96/120/120
f 98/394/394 58/350/350 57/349/349
f 98/394/394 99/395/395 58/350/350
f 100/396/396 99/395/395 98/394/394
f 101/397/397 99/395/395 100/396/396
f 101/397/397 102/398/398 99/395/395
f 103/399/399 80/104/104 79/103/103
f 103/399/399 81/105/105 80/104/104
f 103/399/399 98/394/394 81/105/105
f 104/400/400 98/394/394 103/399/399
f 104/400/400 100/396/396 98/394/394
f 105/401/401 100/396/396 104/402/402
f 105/401/401 106/403/403 100/396/396
f 105/401/401 94/389/389 106/403/403
f 107/404/404 94/389/389 105/401/401
f 107/404/404 93/116/116 94/389/389
f 91/115/115 93/116/116 107/404/404
f 101/397/397 108/405/405 102/398/398
f 101/397/397 109/406/406 108/405/405
f 111/407/407 112/408/408 110/409/409
f 113/410/410 112/408/408 111/407/407
f 114/411/411 112/408/408 113/137/137
f 114/138/138 115/412/412 112/408/408
f 114/411/411 116/413/413 115/412/412
f 114/411/411 117/414/414 116/413/413
f 118/415/415 117/414/414 114/411/411
f 118/415/415 54/416/416 117/414/414
f 108/417/417 54/416/416 118/415/415
f 109/406/406 54/416/416 108/405/405
f 109/406/406 119/418/418 54/416/416
f 120/419/419 119/418/418 109/406/406
f 122/420/420 123/421/421 121/422/422
f 116/413/413 123/421/421 122/420/420
f 117/414/414 123/421/421 116/413/413
f 124/423/423 120/419/419 109/406/406
f 125/424/424 120/419/419 124/423/423
f 125/424/424 126/425/425 120/419/419
f 127/426/426 126/425/425 125/424/424
f 127/152/152 128/427/427 126/425/425
f 130/428/428 131/429/429 129/430/430
f 130/431/431 51/432/432 131/433/433
f 117/414/414 51/157/157 130/428/428
f 117/414/414 54/416/416 51/157/157
f 51/432/432 52/434/434 131/433/433
f 133/435/435 134/436/436 132/437/437
f 55/438/438 134/436/436 133/435/435
f 54/143/143 134/436/436 55/438/438
f 54/416/416 119/439/439 134/436/436
f 92/440/440 107/441/441 91/442/442
f 69/443/443 65/444/444 67/445/445
f 69/443/443 57/246/246 65/444/444
f 68/247/247 57/246/246 69/443/443
f 81/446/446 98/192/192 71/191/191
f 123/447/447 135/448/448 121/449/449
f 117/264/264 135/448/448 123/447/447
f 117/264/264 136/262/262 135/448/448
f 108/450/450 89/451/451 102/452/452
f 108/450/450 137/453/453 89/451/451
f 108/181/181 138/454/454 137/182/182
f 118/455/455 138/454/454 108/181/181
f 114/456/456 138/454/454 118/455/455
f 114/456/456 139/457/457 138/454/454
f 113/458/458 139/186/186 114/185/185
f 76/459/459 96/460/460 72/461/461
f 71/171/171 96/189/189 72/188/188
f 98/172/172 96/189/189 71/171/171
f 112/462/462 140/463/463 110/464/464
f 112/462/462 141/465/465 140/463/463
f 115/466/466 141/465/465 112/462/462
f 116/467/467 141/465/465 115/466/466
f 116/467/467 142/468/468 141/465/465
f 116/467/467 122/469/469 142/468/468
f 56/470/470 86/471/471 62/472/472
f 56/203/203 85/473/473 86/202/202
f 58/474/474 85/473/473 56/203/203
f 99/475/475 85/473/473 58/474/474
f 99/475/475 84/476/476 85/473/473
f 99/206/206 89/451/451 84/207/207
f 102/452/452 89/451/451 99/206/206
f 136/477/477 138/478/478 139/479/479
f 140/480/480 111/407/407 110/409/409
f 140/480/480 113/137/137 111/407/407
f 140/480/480 139/479/479 113/137/137
f 141/481/481 139/208/208 140/480/480
f 142/482/482 139/479/479 141/481/481
f 142/482/482 136/477/477 139/479/479
f 142/482/482 135/483/483 136/477/477
f 142/482/482 121/146/146 135/483/483
f 122/148/148 121/146/146 142/482/482
f 131/429/429 143/484/484 129/430/430
f 50/485/485 143/486/486 131/429/429
f 50/216/216 136/477/477 143/484/484
f 53/487/487 136/477/477 50/216/216
f 53/487/487 138/478/478 136/477/477
f 53/487/487 137/488/488 138/478/478
f 144/489/489 137/488/488 53/487/487
f 90/383/383 137/488/488 144/489/489
f 90/383/383 89/384/384 137/488/488
f 50/485/485 131/429/429 52/158/158
f 127/152/152 145/490/490 128/153/153
f 125/424/424 145/220/220 127/152/152
f 125/424/424 146/491/491 145/220/220
f 147/492/492 146/491/491 125/424/424
f 144/493/493 146/491/491 147/492/492
f 144/493/493 148/494/494 146/491/491
f 53/487/487 148/494/494 144/489/489
f 53/487/487 149/495/495 148/494/494
f 55/162/162 149/495/495 53/487/487
f 133/161/161 149/495/495 55/162/162
f 133/161/161 132/159/159 149/495/495
f 126/496/496 145/497/497 128/498/498
f 66/499/499 70/500/500 64/501/501
f 64/501/501 70/500/500 63/502/502
f 70/500/500 87/503/503 63/502/502
f 87/232/232 88/504/504 63/231/231
f 63/231/231 88/504/504 60/505/505
f 88/233/233 59/506/506 60/234/234
f 95/507/507 106/508/508 94/509/509
f 83/510/510 106/508/508 95/507/507
f 83/510/510 100/511/511 106/508/508
f 83/510/510 101/253/253 100/511/511
f 90/254/254 101/253/253 83/510/510
f 97/512/512 73/513/513 75/514/514
f 57/169/169 73/244/244 97/245/245
f 57/169/169 68/170/170 73/244/244
f 125/515/515 147/516/516 124/517/517
f 147/249/249 144/518/518 124/248/248
f 124/248/248 144/518/518 109/519/519
f 109/252/252 144/251/251 101/241/241
f 144/251/251 90/242/242 101/241/241
f 107/164/164 92/165/165 105/520/520
f 92/165/165 82/521/521 105/520/520
f 82/521/521 78/522/522 105/520/520
f 105/520/520 78/522/522 104/523/523
f 104/523/523 78/522/522 103/524/524
f 78/522/522 77/525/525 103/524/524
f 103/259/259 77/260/260 79/526/526
f 117/177/177 143/527/527 136/178/178
f 130/528/528 143/527/527 117/177/177
f 130/265/265 129/529/529 143/263/263
f 134/530/530 149/531/531 132/532/532
f 119/533/533 149/531/531 134/530/530
f 119/533/533 148/534/534 149/531/531
f 119/533/533 146/535/535 148/534/534
f 120/536/536 146/535/535 119/533/533
f 126/227/227 146/272/272 120/273/273
f 126/227/227 145/226/226 146/272/272
