#
# Exported by OpenBRF -- marco tarini
#
s wushuang_weapon_shuanggujianl
newmtl wushuang_weapon_shuanggujian
Ka 0.8 0.8 0.8
Kd 0.2 0.2 0.2
usemtl wushuang_weapon_shuanggujian
v -0.183717 -0.025538 0.305798
v -0.229397 -0.02576 0.305642
v -0.183777 -0.028731 0.327984
v -0.597776 -0.027515 0.291266
v -0.597871 -0.032594 0.326559
v -0.257658 -0.025388 0.292433
v -0.243605 -0.029947 0.327777
v -0.229548 -0.025879 0.350031
v -0.183869 -0.025657 0.350187
v -0.598016 -0.027705 0.361879
v -0.257895 -0.026526 0.363044
v -0.59792 -0.022625 0.326585
v -0.872552 -0.028852 0.291142
v -0.94918 -0.029317 0.325368
v -0.872787 -0.029038 0.360117
v -0.183809 -0.022464 0.328002
v -0.243644 -0.021829 0.327799
v -0.121209 -0.039768 0.377832
v -0.092083 -0.039492 0.327781
v -0.179116 -0.04005 0.377633
v -0.120867 -0.039498 0.277531
v -0.178774 -0.03978 0.277332
v -0.2079 -0.040055 0.327383
v -0.12134 -0.012815 0.377904
v -0.179248 -0.013097 0.377704
v -0.092215 -0.01254 0.327852
v -0.120997 -0.012545 0.277603
v -0.178905 -0.012827 0.277405
v -0.208031 -0.013103 0.327455
v 0.152868 0.000782 0.329156
v 0.153114 -0.024944 0.293725
v 0.152873 -0.025134 0.364448
v 0.15312 -0.05086 0.329018
v -0.11209 -0.026281 0.310783
v 0.126613 -0.025135 0.316749
v -0.112211 -0.013626 0.328211
v 0.142621 -0.025184 0.364413
v 0.142615 0.000731 0.329121
v 0.142863 -0.024994 0.29369
v 0.126527 -0.016225 0.32902
v 0.126529 -0.0252 0.341243
v -0.112209 -0.026374 0.345572
v 0.142867 -0.050909 0.328983
v 0.126615 -0.03411 0.328972
v -0.112088 -0.039029 0.328144
v -0.194518 -0.02843 0.304924
v -0.194557 -0.020568 0.304945
v -0.201965 -0.020586 0.29828
v -0.201927 -0.028449 0.29826
v -0.209743 -0.028515 0.308763
v -0.209781 -0.020652 0.308784
v -0.207105 -0.024593 0.317233
v -0.191045 -0.024468 0.299409
v -0.204246 -0.024495 0.285276
v -0.21578 -0.02461 0.307577
v -0.181329 -0.028564 0.378762
v -0.178181 -0.028523 0.369308
v -0.181367 -0.020702 0.378783
v -0.178219 -0.020661 0.369329
v -0.193314 -0.028608 0.373491
v -0.193353 -0.020746 0.373512
v -0.195202 -0.024663 0.364835
v -0.197974 -0.02471 0.377516
v -0.176928 -0.024644 0.391206
v -0.172432 -0.024572 0.372396
v -0.202713 -0.028608 0.356268
v -0.195259 -0.028554 0.349654
v -0.202751 -0.020745 0.356289
v -0.195298 -0.020691 0.349675
v -0.210456 -0.028617 0.345711
v -0.210495 -0.020755 0.345732
v -0.207762 -0.024651 0.337281
v -0.216503 -0.024719 0.346876
v -0.205121 -0.024723 0.369256
v -0.191822 -0.024621 0.355215
v -0.153563 -0.028426 0.377788
v -0.151564 -0.028442 0.387551
v -0.151601 -0.02058 0.387572
v -0.153602 -0.020563 0.377809
v -0.164578 -0.02851 0.388979
v -0.164617 -0.020647 0.389
v -0.170549 -0.02459 0.382418
v -0.16661 -0.024603 0.394786
v -0.141538 -0.024485 0.396119
v -0.147049 -0.024462 0.377581
v -0.128005 -0.028288 0.372825
v -0.121391 -0.028276 0.380279
v -0.12143 -0.020414 0.3803
v -0.128044 -0.020426 0.372846
v -0.131948 -0.028348 0.388023
v -0.131986 -0.020485 0.388044
v -0.140408 -0.024451 0.385319
v -0.130812 -0.024427 0.39406
v -0.108433 -0.024288 0.382679
v -0.122475 -0.024321 0.36938
v -0.098898 -0.028109 0.358895
v -0.108352 -0.028147 0.355746
v -0.098936 -0.020247 0.358917
v -0.10839 -0.020285 0.355768
v -0.104168 -0.028167 0.370881
v -0.104207 -0.020305 0.370902
v -0.112854 -0.024284 0.372759
v -0.100173 -0.024229 0.375533
v -0.086484 -0.024105 0.354486
v -0.105293 -0.024186 0.34999
v -0.177218 -0.028296 0.285728
v -0.177255 -0.020433 0.285749
v -0.180338 -0.020423 0.276273
v -0.180301 -0.028285 0.276252
v -0.192321 -0.028357 0.28144
v -0.19236 -0.020495 0.281462
v -0.194268 -0.024459 0.290105
v -0.171447 -0.024328 0.282699
v -0.175814 -0.024298 0.263859
v -0.196955 -0.024438 0.277405
v -0.152635 -0.028154 0.277755
v -0.152673 -0.020292 0.277775
v -0.150606 -0.020256 0.268028
v -0.150568 -0.028118 0.268007
v -0.163572 -0.028177 0.266489
v -0.16361 -0.020315 0.26651
v -0.169588 -0.024293 0.27303
v -0.146122 -0.024192 0.278029
v -0.140484 -0.024115 0.259529
v -0.165565 -0.02424 0.260689
v -0.125904 -0.027987 0.283928
v -0.125946 -0.020125 0.283957
v -0.11904 -0.020063 0.276774
v -0.118997 -0.027924 0.276745
v -0.129237 -0.02795 0.268585
v -0.129279 -0.020087 0.268613
v -0.1378 -0.024072 0.270974
v -0.120517 -0.024041 0.287618
v -0.105956 -0.023917 0.274891
v -0.127863 -0.023989 0.262624
v -0.107296 -0.027945 0.301853
v -0.107342 -0.020083 0.301879
v -0.09777 -0.020018 0.299111
v -0.097723 -0.02788 0.299085
v -0.104475 -0.024017 0.307752
v -0.0855 -0.023895 0.304012
v -0.098339 -0.023898 0.282434
v -0.102511 -0.027867 0.286899
v -0.11112 -0.023979 0.284698
v -0.102556 -0.020006 0.286924
v -0.209549 -0.024756 0.360175
v -0.205666 -0.024755 0.366915
v -0.218091 -0.024781 0.367493
v -0.220423 -0.024805 0.372072
v -0.232928 -0.024818 0.354411
v -0.226902 -0.024786 0.353256
v -0.224124 -0.024759 0.348213
v -0.223984 -0.024648 0.307204
v -0.232745 -0.024675 0.300945
v -0.226728 -0.024649 0.302142
v -0.217819 -0.024568 0.287967
v -0.22012 -0.024567 0.283371
v -0.205399 -0.024545 0.288629
v -0.209327 -0.024581 0.295343
vn 0.00529668 -0.98979 -0.142436
vt 0.59375 0.992188
vn 0.0136371 -0.999904 -0.0026348
vt 0.548685 0.992188
vn 0.0251282 -0.987224 -0.157346
vt 0.59375 0.899438
vn 0.00667849 -0.989784 -0.142421
vt 0.619879 0.139092
vn 0.00888676 -0.990526 -0.137038
vt 0.620395 0.841969
vn 0.00622476 -0.999935 -0.00951883
vt 0.548685 0.139092
vn 0.0121727 -0.99982 -0.0145668
vt 0.548685 0.880282
vn 0.0306911 -0.988495 0.148109
vt 0.503621 0.899438
vn 0.00434555 -0.99054 0.137158
vt 0.503621 0.992188
vn 0.00296397 -0.990549 0.137124
vt 0.476998 0.139092
vn 0.00754232 -0.992948 0.118308
vt 0.476998 0.841969
vn -0.00475784 0.990537 -0.137162
vt 0.471901 0.992195
vn -0.0101929 0.99534 -0.0958917
vt 0.470267 0.44406
vn -0.012935 0.999913 0.00264978
vt 0.400371 0.992195
vn -0.0190202 0.999788 -0.00785927
vt 0.399376 0.291433
vn -0.0153056 0.997745 0.0653563
vt 0.33058 0.44406
vn -0.00571523 0.989786 0.142448
vt 0.328945 0.992195
vn 0.00390492 0.999989 0.00269337
vt 0.548685 0.992188
vn -0.00434561 0.990541 -0.137152
vt 0.59375 0.992188
vn 0.0301826 0.990604 -0.133388
vt 0.59375 0.899438
vn -0.00572386 0.990532 -0.137165
vt 0.619879 0.139092
vn -0.00355933 0.999948 0.00952766
vt 0.548685 0.139092
vn -0.00129632 0.992976 -0.118305
vt 0.619879 0.841969
vn 0.00235675 0.99989 0.0146169
vt 0.548685 0.880282
vn 0.0110307 0.98576 -0.167797
vt 0.59375 0.899438
vn 0.00986419 0.984845 0.173155
vt 0.503621 0.899438
vn 0.0178088 0.989118 0.146045
vt 0.503621 0.899438
vn -0.00529687 0.989789 0.142442
vt 0.503621 0.992188
vn -0.00391898 0.989794 0.142454
vt 0.476998 0.139092
vn -0.00168088 0.990558 0.137085
vt 0.477514 0.841969
vn 0.0039261 -0.990546 0.137128
vt 0.328945 0.992195
vn 0.0039261 -0.990546 0.137128
vt 0.33058 0.44406
vn -0.00319756 -0.999991 -0.00270483
vt 0.400371 0.992195
vn -0.00942112 -0.999543 0.028737
vt 0.33058 0.44406
vn -0.00942112 -0.999543 0.028737
vt 0.399376 0.291433
vn -0.00920621 -0.999373 -0.0341893
vt 0.399376 0.291433
vn -0.00920621 -0.999373 -0.0341893
vt 0.470267 0.44406
vn 0.0048804 -0.989793 -0.142427
vt 0.470267 0.44406
vn 0.0048804 -0.989793 -0.142427
vt 0.471901 0.992195
vn 0.00487901 -0.999985 -0.00267505
vt 0.921253 0.217806
vn 0.00487315 -0.999985 -0.00267524
vt 0.832132 0.217806
vn 0.00487892 -0.999985 -0.0026752
vt 0.965813 0.140625
vn 0.00487891 -0.999985 -0.00267525
vt 0.921253 0.063444
vn 0.00486737 -0.999985 -0.00267528
vt 0.832132 0.063444
vn 0.00484421 -0.999985 -0.00267535
vt 0.787571 0.140625
vn -0.0048789 0.999985 0.00265519
vt 0.921253 0.217806
vn -0.00486744 0.999985 0.00267521
vt 0.965813 0.140625
vn -0.00487314 0.999985 0.00267522
vt 0.832132 0.217806
vn -0.00487028 0.999985 0.00268022
vt 0.921253 0.063444
vn -0.00487885 0.999985 0.00267523
vt 0.832132 0.063444
vn -0.00487882 0.999985 0.00267523
vt 0.787571 0.140625
vn -0.981315 -0.00424866 -0.192361
vt 0.375 0.073603
vn -0.982607 -0.00527689 0.185624
vt 0.375 0.125
vn -0.50295 -0.00474659 0.864302
vt 0.473297 0.073603
vn -0.502955 -0.00473976 0.8643
vt 0.473297 0.125
vn 0.497027 0.000123015 0.867735
vt 0.579911 0.125
vn 0.497031 9.759e-05 0.867733
vt 0.579911 0.073603
vn 0.999982 0.00486046 0.00342778
vt 0.678208 0.073603
vn 0.999982 0.00488856 0.00342287
vt 0.678208 0.125
vn -0.652051 -0.00112299 -0.758175
vt 0.473297 0.125
vn -0.32409 0.00097277 -0.946026
vt 0.473297 0.073603
vn 0.502945 0.0047587 -0.864305
vt 0.579911 0.125
vn 0.502945 0.00473468 -0.864306
vt 0.579911 0.073603
vn 0.999982 0.004851 0.00342079
vt 0.226563 0.934382
vn 0.999982 0.0048704 0.00342085
vt 0.190196 0.960938
vn 0.999982 0.0048704 0.00342085
vt 0.262929 0.960938
vn 0.999982 0.00488979 0.0034209
vt 0.226563 0.987492
vn 0.0249723 0.00275743 -0.999684
vt 0.185986 0.561721
vn 0.0108759 0.999937 0.00270207
vt 0.147919 0.561721
vn -0.116539 0.00206973 -0.993184
vt 0.185986 0.962492
vn -0.00340255 -0.00268907 0.999991
vt 0.109853 0.992173
vn -0.00493479 0.999984 0.00268741
vt 0.147919 0.992173
vn -0.536072 -0.00487151 0.844158
vt 0.109853 0.984758
vn -0.582666 0.812712 0.000185453
vt 0.147919 0.984758
vn -0.53031 -0.000322161 -0.847804
vt 0.185986 0.984758
vn -0.0562598 0.998413 0.00245654
vt 0.147919 0.962492
vn -0.123323 -0.00324084 0.992361
vt 0.109853 0.962492
vn 0.0181423 -0.00254901 0.999832
vt 0.109853 0.561721
vn 0.00340288 0.00268911 -0.999991
vt 0.185986 0.992173
vn 0.00483737 -0.999985 -0.00265218
vt 0.147919 0.992173
vn -0.574719 -0.81834 -0.00415984
vt 0.147919 0.984758
vn -0.0465365 -0.998913 -0.00281047
vt 0.147919 0.962492
vn 0.0206111 -0.999784 -0.00259424
vt 0.147919 0.561721
vn 0.668773 0.00521189 -0.743448
vt 0.024692 0.239871
vn -0.244545 0.00137234 -0.969637
vt 0.012129 0.265164
vn 0.668825 0.00530131 -0.743401
vt 0.012129 0.239871
vn -0.244504 0.00128446 -0.969647
vt 0.024692 0.265164
vn -0.915192 -0.00337821 -0.403003
vt 0.024692 0.293797
vn -0.964918 -0.00396332 -0.262521
vt 0.012129 0.293797
vn -0.954036 -0.00541286 0.299643
vt 0.01841 0.318442
vn 0.352431 -0.850974 -0.389404
vt 0.290541 0.643732
vn -0.088981 -0.945269 -0.313925
vt 0.271469 0.649906
vn 0.710315 0.00527435 -0.703864
vt 0.284378 0.632283
vn -0.313571 0.000899711 -0.949564
vt 0.246447 0.641065
vn -0.969808 -0.00405213 -0.243835
vt 0.273887 0.68286
vn -0.545938 -0.837557 0.021228
vt 0.282006 0.673691
vn -0.743867 -0.00538193 0.668306
vt 0.299457 0.677452
vn -0.55412 0.832042 0.025633
vt 0.282006 0.673691
vn -0.098208 0.945978 -0.309
vt 0.271469 0.649906
vn 0.344226 0.856359 -0.384913
vt 0.290541 0.643732
vn -0.857428 -0.00551726 0.514574
vt 0.012513 0.265164
vn -0.857415 -0.00553824 0.514596
vt 0.024692 0.265164
vn -0.948772 -0.0037427 -0.315939
vt 0.012513 0.239871
vn -0.948772 -0.003743 -0.315939
vt 0.024692 0.239871
vn -0.596576 -0.00508161 0.80254
vt 0.012513 0.293797
vn -0.709199 -0.00540173 0.704988
vt 0.024692 0.293797
vn -0.977526 -0.00541183 0.210745
vt 0.01841 0.318442
vn -0.976919 -0.00427491 -0.213565
vt 0.267729 0.623268
vn -0.821927 -0.00559897 0.569565
vt 0.241818 0.628748
vn -0.345382 0.879075 0.32854
vt 0.24967 0.61903
vn -0.00401045 -0.00269403 0.999988
vt 0.214012 0.586396
vn 0.253801 0.941178 0.22309
vt 0.239368 0.595355
vn 0.965308 0.00396796 0.261083
vt 0.252449 0.577497
vn 0.489875 0.855681 0.16683
vt 0.258694 0.589099
vn -0.336851 -0.884095 0.323894
vt 0.24967 0.61903
vn 0.262997 -0.939818 0.218117
vt 0.239368 0.595355
vn 0.49823 -0.851737 0.162207
vt 0.258694 0.589099
vn -0.999847 -0.00487669 0.0168158
vt 0.254438 0.00344598
vn -0.999846 -0.00494051 0.0168459
vt 0.254438 0.015625
vn -0.663723 -0.00125092 -0.747977
vt 0.273333 0.00344598
vn -0.663748 -0.00129323 -0.747956
vt 0.273333 0.015625
vn -0.917916 -0.00557128 0.396735
vt 0.225683 0.00344598
vn -0.96667 -0.00547884 0.255965
vt 0.225683 0.015625
vn -0.952001 -0.00390407 -0.30607
vt 0.205707 0.00953603
vn -0.739232 -0.00186693 -0.673449
vt 0.299457 0.677452
vn -0.996594 -0.00516318 0.0823031
vt 0.273887 0.68286
vn -0.462853 0.879034 0.114302
vt 0.282006 0.673691
vn -0.503487 -0.00477382 0.86399
vt 0.246447 0.641065
vn 0.108917 0.940178 0.322805
vt 0.271469 0.649906
vn 0.705433 0.00151977 0.708775
vt 0.284378 0.632283
vn 0.341493 0.854334 0.391787
vt 0.290541 0.643732
vn -0.454171 -0.884149 0.109587
vt 0.282006 0.673691
vn 0.11804 -0.9408 0.317746
vt 0.271469 0.649906
vn 0.349737 -0.853093 0.38719
vt 0.290541 0.643732
vn 0.979644 0.00527086 -0.200676
vt 0.012513 0.239871
vn 0.712682 0.00157138 0.701486
vt 0.024692 0.265164
vn 0.712681 0.00148196 0.701486
vt 0.012513 0.265164
vn 0.979623 0.00539599 -0.200772
vt 0.024692 0.239871
vn -0.115397 -0.00323637 0.993314
vt 0.012513 0.293797
vn -0.261704 -0.00387686 0.96514
vt 0.024692 0.293797
vn -0.74119 -0.00546961 0.671273
vt 0.01841 0.318442
vn -0.95283 -0.00553637 0.303455
vt 0.314744 0.601087
vn -0.427023 -0.00453397 0.904229
vt 0.289696 0.606384
vn -0.136589 0.879738 0.455417
vt 0.297649 0.597402
vn 0.496499 6.74891e-05 0.868037
vt 0.262816 0.565441
vn 0.329522 0.94195 0.0643854
vt 0.287327 0.574103
vn 0.966536 0.0053201 -0.256477
vt 0.299973 0.556838
vn 0.506021 0.856442 -0.102222
vt 0.30601 0.568054
vn -0.128034 -0.883405 0.45078
vt 0.297649 0.597402
vn 0.338709 -0.93902 0.0593151
vt 0.287327 0.574103
vn 0.514401 -0.850883 -0.106719
vt 0.30601 0.568054
vn 0.74798 0.00548284 -0.663698
vt 0.012513 0.239871
vn 0.967941 0.00409997 0.251144
vt 0.024692 0.265164
vn 0.967942 0.0041318 0.251141
vt 0.012513 0.265164
vn 0.74798 0.00548375 -0.663699
vt 0.024692 0.239871
vn 0.39673 -0.000503261 0.917935
vt 0.012513 0.293797
vn 0.255942 -0.00134576 0.966691
vt 0.024692 0.293797
vn -0.306127 -0.00402372 0.951982
vt 0.01841 0.318442
vn -0.673389 -0.00523082 0.73927
vt 0.301388 0.545447
vn 0.0822961 -0.00226514 0.996605
vt 0.276066 0.550802
vn 0.10766 0.880915 0.460867
vt 0.284107 0.541721
vn 0.864004 0.00289539 0.503477
vt 0.248893 0.509412
vn 0.315668 0.942351 -0.111031
vt 0.273672 0.518168
vn 0.708745 0.00539843 -0.705444
vt 0.286456 0.500716
vn 0.385374 0.856513 -0.343325
vt 0.292558 0.512054
vn 0.116251 -0.882248 0.456206
vt 0.284107 0.541721
vn 0.324842 -0.938628 -0.116
vt 0.273672 0.518168
vn 0.393647 -0.85088 -0.347916
vt 0.292558 0.512054
vn 0.514606 8.8482e-05 0.857427
vt 0.012513 0.265164
vn 0.514572 0.000152014 0.857447
vt 0.024692 0.265164
vn -0.315999 -0.00418156 0.94875
vt 0.012513 0.239871
vn -0.315999 -0.00418171 0.94875
vt 0.024692 0.239871
vn 0.802539 0.00231897 0.596596
vt 0.012513 0.293797
vn 0.704934 0.00160174 0.709271
vt 0.024692 0.293797
vn 0.21066 -0.00156736 0.977558
vt 0.01841 0.318442
vn -0.202534 -0.301122 0.931829
vt 0.315793 0.487585
vn 0.299176 -0.765083 0.570212
vt 0.290722 0.492888
vn -0.159435 0.680334 0.71535
vt 0.298683 0.483897
vn 0.610376 -0.78499 0.10598
vt 0.263818 0.451908
vn 0.342289 0.926718 0.155024
vt 0.288351 0.460577
vn 0.261093 0.00396261 -0.965306
vt 0.301009 0.443298
vn 0.160381 0.855795 -0.491825
vt 0.307051 0.454524
vn 0.330527 -0.880925 0.338707
vt 0.298683 0.483897
vn 0.225245 -0.938723 -0.260891
vt 0.288351 0.460577
vn 0.168745 -0.851574 -0.496334
vt 0.307051 0.454524
vn 0.950925 0.00530104 -0.309375
vt 0.024692 0.239871
vn 0.273091 0.00386281 -0.96198
vt 0.012129 0.265164
vn 0.950925 0.00530011 -0.309376
vt 0.012129 0.239871
vn 0.273107 0.00385609 -0.961976
vt 0.024692 0.265164
vn -0.591091 -0.000679515 -0.806604
vt 0.024692 0.293797
vn -0.704385 -0.0015054 -0.709817
vt 0.012129 0.293797
vn -0.97607 -0.00423236 -0.217416
vt 0.01841 0.318442
vn 0.499275 -0.850892 -0.163425
vt 0.258694 0.589099
vn 0.0792831 -0.944423 -0.31903
vt 0.239368 0.595355
vn 0.967069 0.00522977 -0.254462
vt 0.252449 0.577497
vn 0.203196 0.00357286 -0.979132
vt 0.214012 0.586396
vn -0.717973 -0.00155786 -0.69607
vt 0.241818 0.628748
vn -0.483892 -0.836596 -0.256819
vt 0.250045 0.619457
vn -0.935464 0.292476 0.198404
vt 0.267729 0.623268
vn -0.492057 0.83316 -0.252439
vt 0.250045 0.619457
vn 0.0700454 0.946862 -0.31392
vt 0.239368 0.595355
vn 0.491009 0.85655 -0.158845
vt 0.258694 0.589099
vn 0.978236 0.00418913 0.207455
vt 0.024692 0.239871
vn 0.717474 0.00533759 -0.696565
vt 0.012129 0.265164
vn 0.978233 0.00420207 0.207465
vt 0.012129 0.239871
vn 0.71749 0.00532791 -0.696549
vt 0.024692 0.265164
vn -0.108552 0.00213054 -0.994088
vt 0.024692 0.293797
vn -0.255084 0.00135117 -0.966918
vt 0.012129 0.293797
vn -0.736545 -0.00175221 -0.676386
vt 0.01841 0.318442
vn 0.513549 -0.851519 0.10575
vt 0.30601 0.568054
vn 0.479601 -0.868197 0.127344
vt 0.287327 0.574103
vn 0.828935 0.5107 0.228151
vt 0.299973 0.556838
vn 0.346976 0.912366 -0.217247
vt 0.262816 0.565441
vn -0.273717 0.00124517 -0.961809
vt 0.289696 0.606384
vn -0.291203 -0.835061 -0.466769
vt 0.297649 0.597402
vn -0.950747 -0.00376675 -0.309946
vt 0.314744 0.601087
vn -0.299334 0.834684 -0.462279
vt 0.297649 0.597402
vn 0.21832 0.947354 -0.234217
vt 0.287327 0.574103
vn 0.505258 0.855889 0.110309
vt 0.30601 0.568054
vn 0.720839 0.00134054 0.693101
vt 0.024692 0.239871
vn 0.977188 0.00602492 -0.21229
vt 0.012129 0.265164
vn 0.720864 0.00129526 0.693075
vt 0.012129 0.239871
vn 0.977193 0.00612795 -0.212263
vt 0.024692 0.265164
vn 0.433088 0.0055973 -0.901334
vt 0.024692 0.293797
vn 0.294398 0.00497761 -0.95567
vt 0.012129 0.293797
vn -0.267889 0.00200142 -0.963448
vt 0.01841 0.318442
vn -0.00530993 0.999979 0.00363204
vt 0.286456 0.500716
vn -0.31939 0.943651 0.0866788
vt 0.273672 0.518168
vn -0.37983 0.853078 -0.357752
vt 0.292558 0.512054
vn -0.00533438 0.999979 0.00364834
vt 0.248893 0.509412
vn 0.0103925 0.976751 -0.214126
vt 0.276066 0.550802
vn -0.36499 0.812008 0.455439
vt 0.284107 0.541721
vn -0.22092 0.941759 -0.253546
vt 0.301388 0.545447
vn -0.00956705 0.836784 -0.547449
vt 0.284107 0.541721
vn 0.309308 0.94761 -0.0797663
vt 0.273672 0.518168
vn 0.370869 0.854402 0.363941
vt 0.292558 0.512054
vn 0.27779 -0.00153423 0.96064
vt 0.024692 0.239871
vn 0.999983 0.00583525 -1.35033e-05
vt 0.012129 0.265164
vn 0.277802 -0.00154996 0.960637
vt 0.012129 0.239871
vn 0.999982 0.0059781 -9.08724e-05
vt 0.024692 0.265164
vn 0.149634 -0.8545 0.497433
vt 0.307051 0.454524
vn 0.319286 -0.944104 0.0819987
vt 0.288351 0.460577
vn 0.22228 -0.00193441 0.974981
vt 0.301009 0.443298
vn 0.971847 0.00503002 0.235558
vt 0.263818 0.451908
vn 0.719461 0.00647627 -0.694502
vt 0.290722 0.492888
vn 0.275427 -0.831753 -0.482003
vt 0.298683 0.483897
vn -0.174437 0.00213359 -0.984666
vt 0.315793 0.487585
vn 0.825731 0.0066356 -0.564025
vt 0.024692 0.293797
vn 0.732756 0.00635848 -0.680461
vt 0.012129 0.293797
vn 0.249603 0.00450873 -0.968338
vt 0.01841 0.318442
vn 0.265918 0.837943 -0.476591
vt 0.298683 0.483897
vn 0.308411 0.947151 0.0882514
vt 0.288351 0.460577
vn 0.139691 0.852867 0.503094
vt 0.307051 0.454524
vn -0.00204471 0.999997 0.00102958
vt 0.442792 0.145084
vn -0.00364861 0.99999 0.00252338
vt 0.424093 0.152559
vn -0.00198542 0.999995 0.00230402
vt 0.4375 0.132813
vn -0.00382207 0.999987 0.00329478
vt 0.406983 0.154896
vn -0.00485087 0.999985 0.00268699
vt 0.429935 0.196506
vn -0.00480348 0.999985 0.00264412
vt 0.439809 0.183233
vn -0.00478987 0.999985 0.00271513
vt 0.452409 0.183817
vn -0.00479938 0.999986 0.00240404
vt 0.452409 0.183817
vn -0.00483985 0.999985 0.00260747
vt 0.439809 0.183233
vn -0.00484995 0.999985 0.0026273
vt 0.429935 0.196506
vn -0.00365787 0.999989 0.00279485
vt 0.424093 0.152559
vn -0.00379917 0.999991 0.00211969
vt 0.406983 0.154896
vn -0.00201079 0.999994 0.00298212
vt 0.4375 0.132813
vn -0.00207297 0.999989 0.00414898
vt 0.442792 0.145084
vn -0.0189402 0.999405 -0.0288268
vt 0.470267 0.44406
vn -0.019155 0.999235 0.0340878
vt 0.399376 0.291433
vn -0.00571523 0.989786 0.142448
vt 0.33058 0.44406
vn -0.999982 -0.0048704 -0.00342085
vt 0.262929 0.960938
vn -0.999982 -0.0048704 -0.00342085
vt 0.190196 0.960938
vn -0.999982 -0.004851 -0.00342079
vt 0.226563 0.934382
vn -0.999982 -0.00488979 -0.0034209
vt 0.226563 0.987492
vn 0.948772 0.0037427 0.315939
vt 0.012513 0.239871
vn 0.266423 -0.0013071 0.963855
vt 0.024692 0.265164
vn 0.266431 -0.00128448 0.963853
vt 0.012513 0.265164
vn 0.948772 0.003743 0.315939
vt 0.024692 0.239871
vn 0.663723 0.00125092 0.747977
vt 0.273333 0.00344598
vn -0.251094 -0.00381611 0.967955
vt 0.254438 0.015625
vn -0.251127 -0.00380001 0.967947
vt 0.254438 0.00344598
vn 0.663748 0.00129323 0.747956
vt 0.273333 0.015625
vn 0.159435 -0.680334 -0.71535
vt 0.298683 0.483897
vn 0.159435 -0.680334 -0.71535
vt 0.290722 0.492888
vn 0.159435 -0.680334 -0.71535
vt 0.315793 0.487585
vn -0.411866 -0.87873 -0.241248
vt 0.263818 0.451908
vn -0.342289 -0.926718 -0.155024
vt 0.288351 0.460577
vn 0.00491928 -0.999984 -0.00262044
vt 0.301009 0.443298
vn -0.160381 -0.855795 0.491825
vt 0.307051 0.454524
vn -0.0049042 0.999984 0.00272046
vt 0.252449 0.577497
vn -0.0792831 0.944423 0.31903
vt 0.239368 0.595355
vn -0.499275 0.850892 0.163425
vt 0.258694 0.589099
vn -0.00488128 0.999984 0.00274179
vt 0.214012 0.586396
vn -0.00488582 0.999984 0.00269471
vt 0.241818 0.628748
vn 0.483892 0.836596 0.256819
vt 0.250045 0.619457
vn 0.711076 0.687079 -0.149309
vt 0.267729 0.623268
vn -0.479601 0.868197 -0.127344
vt 0.299973 0.556838
vn -0.479601 0.868197 -0.127344
vt 0.287327 0.574103
vn -0.513549 0.851519 -0.10575
vt 0.30601 0.568054
vn -0.463168 0.875538 -0.137509
vt 0.262816 0.565441
vn -0.00486318 0.999985 0.00269449
vt 0.289696 0.606384
vn 0.291203 0.835061 0.466769
vt 0.297649 0.597402
vn -0.00489974 0.999984 0.00269728
vt 0.314744 0.601087
vn 0.37983 -0.853078 0.357752
vt 0.292558 0.512054
vn 0.31939 -0.943651 -0.0866788
vt 0.273672 0.518168
vn 0.680027 0.000968049 0.733187
vt 0.286456 0.500716
vn 0.959404 0.00628787 -0.281966
vt 0.248893 0.509412
vn 0.262056 -0.874464 -0.408215
vt 0.276066 0.550802
vn 0.36499 -0.812008 -0.455439
vt 0.284107 0.541721
vn -0.466239 -0.683503 -0.561645
vt 0.301388 0.545447
vn -0.277802 0.00154996 -0.960637
vt 0.012129 0.239871
vn -0.27779 0.00153423 -0.96064
vt 0.012129 0.265164
vn -0.27779 0.00153423 -0.96064
vt 0.024692 0.239871
vn -0.277778 0.00151849 -0.960644
vt 0.024692 0.265164
f 1/1/1 3/2/2 2/3/3
f 4/4/4 6/5/5 5/6/6
f 5/6/6 6/5/5 7/7/7
f 6/5/5 2/3/3 7/7/7
f 2/3/3 3/2/2 7/7/7
f 7/7/7 3/2/2 8/8/8
f 3/2/2 9/9/9 8/8/8
f 10/10/10 5/6/6 11/11/11
f 5/6/6 7/7/7 11/11/11
f 11/11/11 7/7/7 8/8/8
f 4/12/12 13/13/13 12/14/14
f 13/13/13 14/15/15 12/14/14
f 14/15/15 15/16/16 12/14/14
f 12/14/14 15/16/16 10/17/17
f 16/18/18 1/19/19 2/20/20
f 4/21/21 12/22/22 6/23/23
f 12/22/22 17/24/24 6/23/23
f 6/23/23 17/24/24 2/20/20
f 2/25/25 17/24/24 16/18/18
f 17/24/24 8/26/26 16/18/18
f 16/18/18 8/27/27 9/28/28
f 10/29/29 11/30/30 12/22/22
f 12/22/22 11/30/30 17/24/24
f 11/30/30 8/27/27 17/24/24
f 10/31/31 15/32/32 5/33/33
f 15/34/34 14/35/35 5/33/33
f 14/36/36 13/37/37 5/33/33
f 5/33/33 13/38/38 4/39/39
f 18/40/40 20/41/41 19/42/42
f 19/42/42 20/41/41 21/43/43
f 21/43/43 20/41/41 22/44/44
f 20/41/41 23/45/45 22/44/44
f 24/46/46 26/47/47 25/48/48
f 26/47/47 27/49/49 25/48/48
f 27/49/49 28/50/50 25/48/48
f 25/48/48 28/50/50 29/51/51
f 29/52/52 23/53/53 25/54/54
f 23/53/53 20/55/55 25/54/54
f 20/55/55 18/56/56 25/54/54
f 25/54/54 18/56/56 24/57/57
f 24/57/57 18/56/56 26/58/58
f 18/56/56 19/59/59 26/58/58
f 23/53/53 29/52/52 22/60/60
f 29/52/52 28/61/61 22/60/60
f 22/60/60 28/61/61 21/62/62
f 28/61/61 27/63/63 21/62/62
f 27/63/63 26/58/58 21/62/62
f 21/62/62 26/58/58 19/59/59
f 30/64/64 32/65/65 31/66/66
f 31/66/66 32/65/65 33/67/67
f 34/68/68 36/69/69 35/70/70
f 32/71/71 30/72/72 37/73/73
f 37/73/73 30/72/72 38/74/74
f 30/72/72 39/75/75 38/74/74
f 39/75/75 35/70/70 38/74/74
f 38/74/74 35/70/70 40/76/76
f 35/70/70 36/69/69 40/76/76
f 40/76/76 36/69/69 41/77/77
f 36/69/69 42/78/78 41/77/77
f 37/73/73 38/74/74 41/77/77
f 41/77/77 38/74/74 40/76/76
f 31/79/79 39/75/75 30/72/72
f 31/79/79 33/80/80 39/75/75
f 39/75/75 33/80/80 43/81/81
f 33/80/80 37/73/73 43/81/81
f 37/73/73 41/77/77 43/81/81
f 43/81/81 41/77/77 44/82/82
f 41/77/77 45/83/83 44/82/82
f 44/82/82 45/83/83 35/70/70
f 45/83/83 34/68/68 35/70/70
f 44/82/82 35/70/70 43/81/81
f 43/81/81 35/70/70 39/75/75
f 32/71/71 37/73/73 33/80/80
f 41/77/77 42/78/78 45/83/83
f 46/84/84 48/85/85 47/86/86
f 49/87/87 48/85/85 46/84/84
f 50/88/88 48/85/85 49/87/87
f 50/88/88 51/89/89 48/85/85
f 52/90/90 51/89/89 50/88/88
f 46/91/91 49/92/92 53/93/93
f 53/93/93 49/92/92 54/94/94
f 54/94/94 49/92/92 55/95/95
f 49/92/92 50/96/96 55/95/95
f 50/96/96 52/97/97 55/95/95
f 52/97/97 51/98/98 55/95/95
f 51/98/98 48/99/99 55/95/95
f 55/95/95 48/99/99 54/94/94
f 54/94/94 48/99/99 53/93/93
f 48/99/99 47/100/100 53/93/93
f 56/101/101 58/102/102 57/103/103
f 57/103/103 58/102/102 59/104/104
f 58/102/102 60/105/105 56/101/101
f 61/106/106 60/105/105 58/102/102
f 61/106/106 62/107/107 60/105/105
f 62/108/108 63/109/109 61/110/110
f 63/109/109 64/111/111 61/110/110
f 61/110/110 64/111/111 58/112/112
f 64/111/111 65/113/113 58/112/112
f 58/112/112 65/113/113 59/114/114
f 62/108/108 60/115/115 63/109/109
f 63/109/109 60/115/115 64/111/111
f 60/115/115 56/116/116 64/111/111
f 64/111/111 56/116/116 65/113/113
f 56/116/116 57/117/117 65/113/113
f 66/118/118 68/119/119 67/120/120
f 67/120/120 68/119/119 69/121/121
f 68/119/119 70/122/122 66/118/118
f 71/123/123 70/122/122 68/119/119
f 71/123/123 72/124/124 70/122/122
f 72/125/125 73/126/126 71/127/127
f 73/126/126 74/128/128 71/127/127
f 71/127/127 74/128/128 68/129/129
f 74/128/128 75/130/130 68/129/129
f 68/129/129 75/130/130 69/131/131
f 72/125/125 70/132/132 73/126/126
f 73/126/126 70/132/132 74/128/128
f 70/132/132 66/133/133 74/128/128
f 74/128/128 66/133/133 75/130/130
f 66/133/133 67/134/134 75/130/130
f 76/135/135 78/136/136 77/137/137
f 79/138/138 78/136/136 76/135/135
f 78/136/136 80/139/139 77/137/137
f 81/140/140 80/139/139 78/136/136
f 81/140/140 82/141/141 80/139/139
f 82/142/142 83/143/143 81/144/144
f 83/143/143 84/145/145 81/144/144
f 81/144/144 84/145/145 78/146/146
f 84/145/145 85/147/147 78/146/146
f 78/146/146 85/147/147 79/148/148
f 82/142/142 80/149/149 83/143/143
f 83/143/143 80/149/149 84/145/145
f 80/149/149 77/150/150 84/145/145
f 84/145/145 77/150/150 85/147/147
f 77/150/150 76/151/151 85/147/147
f 86/152/152 88/153/153 87/154/154
f 89/155/155 88/153/153 86/152/152
f 88/153/153 90/156/156 87/154/154
f 91/157/157 90/156/156 88/153/153
f 91/157/157 92/158/158 90/156/156
f 92/159/159 93/160/160 91/161/161
f 93/160/160 94/162/162 91/161/161
f 91/161/161 94/162/162 88/163/163
f 94/162/162 95/164/164 88/163/163
f 88/163/163 95/164/164 89/165/165
f 92/159/159 90/166/166 93/160/160
f 93/160/160 90/166/166 94/162/162
f 90/166/166 87/167/167 94/162/162
f 94/162/162 87/167/167 95/164/164
f 87/167/167 86/168/168 95/164/164
f 96/169/169 98/170/170 97/171/171
f 97/171/171 98/170/170 99/172/172
f 98/170/170 100/173/173 96/169/169
f 101/174/174 100/173/173 98/170/170
f 101/174/174 102/175/175 100/173/173
f 102/176/176 103/177/177 101/178/178
f 103/177/177 104/179/179 101/178/178
f 101/178/178 104/179/179 98/180/180
f 104/179/179 105/181/181 98/180/180
f 98/180/180 105/181/181 99/182/182
f 102/176/176 100/183/183 103/177/177
f 103/177/177 100/183/183 104/179/179
f 100/183/183 96/184/184 104/179/179
f 104/179/179 96/184/184 105/181/181
f 96/184/184 97/185/185 105/181/181
f 106/186/186 108/187/187 107/188/188
f 109/189/189 108/187/187 106/186/186
f 110/190/190 108/187/187 109/189/189
f 110/190/190 111/191/191 108/187/187
f 112/192/192 111/191/191 110/190/190
f 106/193/193 109/194/194 113/195/195
f 113/195/195 109/194/194 114/196/196
f 114/196/196 109/194/194 115/197/197
f 109/194/194 110/198/198 115/197/197
f 110/198/198 112/199/199 115/197/197
f 112/199/199 111/200/200 115/197/197
f 111/200/200 108/201/201 115/197/197
f 115/197/197 108/201/201 114/196/196
f 114/196/196 108/201/201 113/195/195
f 108/201/201 107/202/202 113/195/195
f 116/203/203 118/204/204 117/205/205
f 119/206/206 118/204/204 116/203/203
f 120/207/207 118/204/204 119/206/206
f 120/207/207 121/208/208 118/204/204
f 122/209/209 121/208/208 120/207/207
f 116/210/210 119/211/211 123/212/212
f 123/212/212 119/211/211 124/213/213
f 124/213/213 119/211/211 125/214/214
f 119/211/211 120/215/215 125/214/214
f 120/215/215 122/216/216 125/214/214
f 122/216/216 121/217/217 125/214/214
f 121/217/217 118/218/218 125/214/214
f 125/214/214 118/218/218 124/213/213
f 124/213/213 118/218/218 123/212/212
f 118/218/218 117/219/219 123/212/212
f 126/220/220 128/221/221 127/222/222
f 129/223/223 128/221/221 126/220/220
f 130/224/224 128/221/221 129/223/223
f 130/224/224 131/225/225 128/221/221
f 132/226/226 131/225/225 130/224/224
f 133/227/227 129/228/228 126/229/229
f 134/230/230 129/228/228 133/227/227
f 135/231/231 129/228/228 134/230/230
f 135/231/231 130/232/232 129/228/228
f 135/231/231 132/233/233 130/232/232
f 132/233/233 131/234/234 135/231/231
f 131/234/234 128/235/235 135/231/231
f 135/231/231 128/235/235 134/230/230
f 134/230/230 128/235/235 133/227/227
f 128/235/235 127/236/236 133/227/227
f 136/237/237 138/238/238 137/239/239
f 139/240/240 138/238/238 136/237/237
f 136/241/241 139/242/242 140/243/243
f 140/243/243 139/242/242 141/244/244
f 141/244/244 139/242/242 142/245/245
f 139/242/242 143/246/246 142/245/245
f 143/246/246 144/247/247 142/245/245
f 143/248/248 138/238/238 139/240/240
f 143/248/248 145/249/249 138/238/238
f 144/250/250 145/249/249 143/248/248
f 144/247/247 145/251/251 142/245/245
f 145/251/251 138/252/252 142/245/245
f 142/245/245 138/252/252 141/244/244
f 141/244/244 138/252/252 140/243/243
f 138/252/252 137/253/253 140/243/243
f 146/254/254 148/255/255 147/256/256
f 147/256/256 148/255/255 149/257/257
f 149/257/257 148/255/255 150/258/258
f 148/255/255 151/259/259 150/258/258
f 150/258/258 151/259/259 152/260/260
f 153/261/261 155/262/262 154/263/263
f 155/262/262 156/264/264 154/263/263
f 154/263/263 156/264/264 157/265/265
f 157/265/265 156/264/264 158/266/266
f 156/264/264 159/267/267 158/266/266
f 1/1/1 3/2/2 2/3/3
f 4/4/4 6/5/5 5/6/6
f 5/6/6 6/5/5 7/7/7
f 6/5/5 2/3/3 7/7/7
f 2/3/3 3/2/2 7/7/7
f 7/7/7 3/2/2 8/8/8
f 3/2/2 9/9/9 8/8/8
f 10/10/10 5/6/6 11/11/11
f 5/6/6 7/7/7 11/11/11
f 11/11/11 7/7/7 8/8/8
f 4/12/12 13/13/13 12/14/14
f 13/268/268 14/15/15 12/14/14
f 14/269/269 15/16/16 12/14/14
f 12/14/14 15/270/270 10/17/17
f 16/18/18 1/19/19 2/20/20
f 4/21/21 12/22/22 6/23/23
f 12/22/22 17/24/24 6/23/23
f 6/23/23 17/24/24 2/20/20
f 2/25/25 17/24/24 16/18/18
f 17/24/24 8/26/26 16/18/18
f 16/18/18 8/27/27 9/28/28
f 10/29/29 11/30/30 12/22/22
f 12/22/22 11/30/30 17/24/24
f 11/30/30 8/27/27 17/24/24
f 10/31/31 15/32/32 5/33/33
f 15/34/34 14/35/35 5/33/33
f 14/36/36 13/37/37 5/33/33
f 5/33/33 13/38/38 4/39/39
f 18/40/40 20/41/41 19/42/42
f 19/42/42 20/41/41 21/43/43
f 21/43/43 20/41/41 22/44/44
f 20/41/41 23/45/45 22/44/44
f 24/46/46 26/47/47 25/48/48
f 26/47/47 27/49/49 25/48/48
f 27/49/49 28/50/50 25/48/48
f 25/48/48 28/50/50 29/51/51
f 29/52/52 23/53/53 25/54/54
f 23/53/53 20/55/55 25/54/54
f 20/55/55 18/56/56 25/54/54
f 25/54/54 18/56/56 24/57/57
f 24/57/57 18/56/56 26/58/58
f 18/56/56 19/59/59 26/58/58
f 23/53/53 29/52/52 22/60/60
f 29/52/52 28/61/61 22/60/60
f 22/60/60 28/61/61 21/62/62
f 28/61/61 27/63/63 21/62/62
f 27/63/63 26/58/58 21/62/62
f 21/62/62 26/58/58 19/59/59
f 31/271/271 32/272/272 30/273/273
f 33/274/274 32/272/272 31/271/271
f 34/68/68 36/69/69 35/70/70
f 32/71/71 30/72/72 37/73/73
f 37/73/73 30/72/72 38/74/74
f 30/72/72 39/75/75 38/74/74
f 39/75/75 35/70/70 38/74/74
f 38/74/74 35/70/70 40/76/76
f 35/70/70 36/69/69 40/76/76
f 40/76/76 36/69/69 41/77/77
f 36/69/69 42/78/78 41/77/77
f 37/73/73 38/74/74 41/77/77
f 41/77/77 38/74/74 40/76/76
f 31/79/79 39/75/75 30/72/72
f 31/79/79 33/80/80 39/75/75
f 39/75/75 33/80/80 43/81/81
f 33/80/80 37/73/73 43/81/81
f 37/73/73 41/77/77 43/81/81
f 43/81/81 41/77/77 44/82/82
f 41/77/77 45/83/83 44/82/82
f 44/82/82 45/83/83 35/70/70
f 45/83/83 34/68/68 35/70/70
f 44/82/82 35/70/70 43/81/81
f 43/81/81 35/70/70 39/75/75
f 32/71/71 37/73/73 33/80/80
f 41/77/77 42/78/78 45/83/83
f 46/84/84 48/85/85 47/86/86
f 49/87/87 48/85/85 46/84/84
f 50/88/88 48/85/85 49/87/87
f 50/88/88 51/89/89 48/85/85
f 52/90/90 51/89/89 50/88/88
f 46/91/91 49/92/92 53/93/93
f 53/93/93 49/92/92 54/94/94
f 54/94/94 49/92/92 55/95/95
f 49/92/92 50/96/96 55/95/95
f 50/96/96 52/97/97 55/95/95
f 52/97/97 51/98/98 55/95/95
f 51/98/98 48/99/99 55/95/95
f 55/95/95 48/99/99 54/94/94
f 54/94/94 48/99/99 53/93/93
f 48/99/99 47/100/100 53/93/93
f 57/275/275 58/276/276 56/277/277
f 59/278/278 58/276/276 57/275/275
f 58/276/276 60/105/105 56/277/277
f 61/106/106 60/105/105 58/276/276
f 61/106/106 62/107/107 60/105/105
f 62/108/108 63/109/109 61/110/110
f 63/109/109 64/111/111 61/110/110
f 61/110/110 64/111/111 58/112/112
f 64/111/111 65/113/113 58/112/112
f 58/112/112 65/113/113 59/114/114
f 62/108/108 60/115/115 63/109/109
f 63/109/109 60/115/115 64/111/111
f 60/115/115 56/116/116 64/111/111
f 64/111/111 56/116/116 65/113/113
f 56/116/116 57/117/117 65/113/113
f 67/279/279 68/280/280 66/281/281
f 69/282/282 68/280/280 67/279/279
f 68/280/280 70/122/122 66/281/281
f 71/123/123 70/122/122 68/280/280
f 71/123/123 72/124/124 70/122/122
f 72/125/125 73/126/126 71/127/127
f 73/126/126 74/128/128 71/127/127
f 71/127/127 74/128/128 68/129/129
f 74/128/128 75/130/130 68/129/129
f 68/129/129 75/130/130 69/131/131
f 72/125/125 70/132/132 73/126/126
f 73/126/126 70/132/132 74/128/128
f 70/132/132 66/133/133 74/128/128
f 74/128/128 66/133/133 75/130/130
f 66/133/133 67/134/134 75/130/130
f 76/135/135 78/136/136 77/137/137
f 79/138/138 78/136/136 76/135/135
f 78/136/136 80/139/139 77/137/137
f 81/140/140 80/139/139 78/136/136
f 81/140/140 82/141/141 80/139/139
f 82/142/142 83/143/143 81/144/144
f 83/143/143 84/145/145 81/144/144
f 81/144/144 84/145/145 78/146/146
f 84/145/145 85/147/147 78/146/146
f 78/146/146 85/147/147 79/148/148
f 82/142/142 80/149/149 83/143/143
f 83/143/143 80/149/149 84/145/145
f 80/149/149 77/150/150 84/145/145
f 84/145/145 77/150/150 85/147/147
f 77/150/150 76/151/151 85/147/147
f 86/152/152 88/153/153 87/154/154
f 89/155/155 88/153/153 86/152/152
f 88/153/153 90/156/156 87/154/154
f 91/157/157 90/156/156 88/153/153
f 91/157/157 92/158/158 90/156/156
f 92/159/159 93/160/160 91/161/161
f 93/160/160 94/162/162 91/161/161
f 91/161/161 94/162/162 88/163/163
f 94/162/162 95/164/164 88/163/163
f 88/163/163 95/164/164 89/165/165
f 92/159/159 90/166/166 93/160/160
f 93/160/160 90/166/166 94/162/162
f 90/166/166 87/167/167 94/162/162
f 94/162/162 87/167/167 95/164/164
f 87/167/167 86/168/168 95/164/164
f 96/169/169 98/170/170 97/171/171
f 97/171/171 98/170/170 99/172/172
f 98/170/170 100/173/173 96/169/169
f 101/174/174 100/173/173 98/170/170
f 101/174/174 102/175/175 100/173/173
f 101/283/283 103/284/284 102/285/285
f 101/178/178 104/286/286 103/177/177
f 98/287/287 104/286/286 101/178/178
f 98/180/180 105/288/288 104/179/179
f 99/289/289 105/288/288 98/180/180
f 102/176/176 100/183/183 103/177/177
f 103/177/177 100/183/183 104/179/179
f 100/183/183 96/184/184 104/179/179
f 104/179/179 96/184/184 105/288/288
f 96/184/184 97/185/185 105/288/288
f 106/186/186 108/187/187 107/188/188
f 109/189/189 108/187/187 106/186/186
f 110/190/190 108/187/187 109/189/189
f 110/190/190 111/191/191 108/187/187
f 112/192/192 111/191/191 110/190/190
f 113/290/290 109/291/291 106/292/292
f 114/293/293 109/291/291 113/290/290
f 115/294/294 109/291/291 114/293/293
f 115/294/294 110/295/295 109/291/291
f 115/294/294 112/296/296 110/295/295
f 112/199/199 111/200/200 115/294/294
f 111/200/200 108/201/201 115/294/294
f 115/294/294 108/201/201 114/293/293
f 114/293/293 108/201/201 113/290/290
f 108/201/201 107/202/202 113/290/290
f 116/203/203 118/204/204 117/205/205
f 119/206/206 118/204/204 116/203/203
f 120/207/207 118/204/204 119/206/206
f 120/207/207 121/208/208 118/204/204
f 122/209/209 121/208/208 120/207/207
f 123/297/297 119/298/298 116/299/299
f 124/300/300 119/298/298 123/297/297
f 125/301/301 119/211/211 124/213/213
f 125/301/301 120/302/302 119/211/211
f 125/301/301 122/303/303 120/302/302
f 122/303/303 121/217/217 125/301/301
f 121/217/217 118/218/218 125/301/301
f 125/301/301 118/218/218 124/213/213
f 124/213/213 118/218/218 123/212/212
f 118/218/218 117/219/219 123/212/212
f 126/220/220 128/221/221 127/222/222
f 129/223/223 128/221/221 126/220/220
f 130/224/224 128/221/221 129/223/223
f 130/224/224 131/225/225 128/221/221
f 132/226/226 131/225/225 130/224/224
f 126/304/304 129/305/305 133/306/306
f 133/306/306 129/305/305 134/307/307
f 134/307/307 129/305/305 135/308/308
f 129/305/305 130/309/309 135/308/308
f 130/232/232 132/310/310 135/231/231
f 132/233/233 131/234/234 135/231/231
f 131/234/234 128/235/235 135/231/231
f 135/231/231 128/235/235 134/307/307
f 134/307/307 128/235/235 133/306/306
f 128/235/235 127/236/236 133/306/306
f 137/311/311 138/312/312 136/313/313
f 136/313/313 138/312/312 139/314/314
f 136/241/241 139/242/242 140/243/243
f 140/243/243 139/242/242 141/244/244
f 141/244/244 139/242/242 142/245/245
f 139/242/242 143/246/246 142/245/245
f 143/246/246 144/247/247 142/245/245
f 143/248/248 138/238/238 139/240/240
f 143/248/248 145/249/249 138/238/238
f 144/250/250 145/249/249 143/248/248
f 144/247/247 145/251/251 142/245/245
f 145/251/251 138/252/252 142/245/245
f 142/245/245 138/252/252 141/244/244
f 141/244/244 138/252/252 140/243/243
f 138/252/252 137/253/253 140/243/243
f 146/254/254 148/255/255 147/256/256
f 147/256/256 148/255/255 149/257/257
f 149/257/257 148/255/255 150/258/258
f 148/255/255 151/259/259 150/258/258
f 150/258/258 151/259/259 152/260/260
f 153/261/261 155/262/262 154/263/263
f 155/262/262 156/264/264 154/263/263
f 154/263/263 156/264/264 157/265/265
f 157/265/265 156/264/264 158/266/266
f 156/264/264 159/267/267 158/266/266
