#
# Exported by OpenBRF -- marco tarini
#
s phuongthienhoakich2.1
newmtl phuongthienhoakich2_chrome
Ka 0.8 0.8 0.8
Kd 0.2 0.2 0.2
usemtl phuongthienhoakich2_chrome
v -0.005866 0.030909 1.41422
v -0.019269 0.035396 1.42048
v -0.021265 0.032392 1.41859
v -0.034581 0.034152 1.42986
v -0.029657 0.03924 1.43175
v -0.042957 0.030514 1.44739
v -0.035124 0.03986 1.44724
v -0.044917 0.024623 1.4632
v -0.033843 0.039944 1.46457
v -0.030564 0.022173 1.4855
v -0.024197 0.040006 1.47926
v -0.01272 0.022174 1.4972
v -0.00935 0.040037 1.489
v 0.008247 0.022176 1.50119
v 0.008094 0.040033 1.49232
v 0.025733 0.039712 1.48889
v 0.029172 0.022164 1.49688
v 0.042244 0.037524 1.48023
v 0.047048 0.021959 1.48504
v 0.059116 0.021532 1.4672
v 0.054906 0.033907 1.46541
v 0.063503 0.020852 1.44623
v 0.061095 0.028519 1.4461
v 0.060481 0.023801 1.42968
v -0.005326 0.030915 1.4789
v -0.016747 0.030916 1.47141
v -0.024431 0.030922 1.46012
v -0.027206 0.030943 1.44675
v -0.024652 0.030954 1.43333
v -0.017167 0.03094 1.42191
v 0.007506 0.030881 1.41145
v 0.024696 0.043475 1.40364
v 0.020919 0.030872 1.414
v 0.03954 0.043488 1.41338
v 0.032344 0.03088 1.42149
v 0.049196 0.043595 1.42806
v 0.040027 0.030909 1.43279
v 0.050515 0.043546 1.44521
v 0.0428 0.030937 1.44616
v 0.040248 0.030953 1.45958
v 0.045058 0.042178 1.46068
v 0.034668 0.038109 1.47211
v 0.03276 0.030941 1.471
v 0.021465 0.030924 1.47868
v 0.036858 0.031608 1.47431
v 0.050174 0.033715 1.46304
v 0.05855 0.028678 1.44551
v 0.046128 0.022595 1.40737
v 0.028284 0.022584 1.39567
v 0.007314 0.022585 1.39168
v 0.007255 0.043483 1.40032
v -0.013608 0.02258 1.39599
v -0.010371 0.043279 1.40369
v -0.031474 0.022412 1.40781
v -0.026865 0.041302 1.41226
v -0.043555 0.022026 1.42565
v -0.039518 0.037869 1.42703
v -0.047936 0.021334 1.44665
v -0.045723 0.032142 1.44661
v 0.021465 -0.034429 1.47868
v 0.036858 -0.035113 1.47431
v 0.034668 -0.041614 1.47211
v 0.050174 -0.037219 1.46304
v 0.045058 -0.045683 1.46068
v 0.05855 -0.032183 1.44551
v 0.050515 -0.047051 1.44521
v 0.049196 -0.0471 1.42806
v 0.060481 -0.027305 1.42968
v 0.03954 -0.046993 1.41338
v 0.046128 -0.0261 1.40737
v 0.024696 -0.046979 1.40364
v 0.028284 -0.026089 1.39567
v 0.007255 -0.046988 1.40032
v 0.007314 -0.026089 1.39168
v -0.010371 -0.046784 1.40369
v -0.013608 -0.026085 1.39599
v -0.026865 -0.044807 1.41226
v -0.031474 -0.025917 1.40781
v -0.039518 -0.041374 1.42703
v -0.043555 -0.025531 1.42565
v -0.045723 -0.035647 1.44661
v -0.047936 -0.024839 1.44665
v -0.044917 -0.028128 1.4632
v 0.008094 0.030916 1.48146
v -0.005866 -0.034414 1.41422
v -0.019269 -0.038901 1.42048
v -0.017167 -0.034445 1.42191
v -0.029657 -0.042745 1.43175
v -0.024652 -0.034459 1.43333
v -0.027206 -0.034448 1.44675
v -0.035124 -0.043365 1.44724
v -0.024431 -0.034427 1.46012
v -0.033843 -0.043449 1.46457
v -0.016747 -0.034421 1.47141
v -0.024197 -0.043511 1.47926
v -0.005326 -0.03442 1.4789
v -0.00935 -0.043542 1.489
v 0.008094 -0.034421 1.48146
v 0.008094 -0.043538 1.49232
v 0.025733 -0.043217 1.48889
v 0.042244 -0.041028 1.48023
v 0.054906 -0.037412 1.46541
v 0.061095 -0.032024 1.4461
v -0.048212 0.00453 1.44692
v -0.043766 0.00453 1.46832
v -0.031474 0.00453 1.48639
v -0.013201 0.00453 1.49838
v 0.008266 0.00453 1.50246
v 0.029662 0.00453 1.49802
v 0.047733 0.00453 1.48572
v 0.059723 0.00453 1.46745
v 0.063802 0.00453 1.44598
v 0.059363 0.00453 1.42458
v 0.047067 0.00453 1.40652
v 0.028798 0.00453 1.39453
v 0.00733 0.00453 1.39044
v -0.014072 0.00453 1.39489
v -0.032137 0.00453 1.40718
v -0.044127 0.00453 1.42545
v 0.020919 -0.034377 1.414
v 0.032344 -0.034384 1.42149
v 0.040027 -0.034414 1.43279
v 0.0428 -0.034441 1.44616
v 0.040248 -0.034458 1.45958
v 0.03276 -0.034446 1.471
v -0.043766 -0.008035 1.46832
v -0.030564 -0.025678 1.4855
v -0.031474 -0.008035 1.48639
v -0.01272 -0.025679 1.4972
v -0.013201 -0.008035 1.49838
v 0.008247 -0.025681 1.50119
v 0.008266 -0.008035 1.50246
v 0.029662 -0.008035 1.49802
v 0.029172 -0.025669 1.49688
v 0.047733 -0.008035 1.48572
v 0.047048 -0.025464 1.48504
v 0.059116 -0.025037 1.4672
v 0.059723 -0.008035 1.46745
v 0.063503 -0.024357 1.44623
v 0.063802 -0.008035 1.44598
v 0.059363 -0.008035 1.42458
v 0.047067 -0.008035 1.40652
v 0.028798 -0.008035 1.39453
v 0.00733 -0.008035 1.39044
v -0.014072 -0.008035 1.39489
v -0.032137 -0.008035 1.40718
v -0.044127 -0.008035 1.42545
v -0.048212 -0.008035 1.44692
v -0.042957 -0.034019 1.44739
v -0.034581 -0.037656 1.42986
v -0.021265 -0.035897 1.41859
v 0.007506 -0.034386 1.41145
v -0.076063 0.013255 1.56337
v -0.105871 0.013255 1.58602
v -0.079021 0.013009 1.59361
v -0.211873 0.013255 1.6352
v -0.122574 0.013255 1.63495
v -0.180963 0.013255 1.60178
v -0.125115 0.013255 1.60043
v -0.158167 0.013255 1.56207
v -0.137248 0.013255 1.51176
v -0.128495 0.013255 1.46144
v -0.059562 0.013255 1.54137
v -0.034893 0.022171 1.53258
v -0.042739 0.01864 1.37805
v 0.005907 0.028947 1.35677
v 0.049462 -0.001752 1.3101
v 0.033702 -0.001752 1.35677
v 0.027517 0.036019 1.3101
v -0.017433 0.036019 1.3101
v -0.025464 -0.001752 1.35677
v -0.03984 -0.001752 1.3101
v 0.033757 0.023123 1.38242
v 0.155987 0.013254 1.53492
v 0.157154 0.013254 1.48268
v 0.129112 0.013254 1.5088
v 0.145158 0.013254 1.38203
v 0.095622 0.013254 1.39396
v 0.103334 0.013254 1.49784
v 0.073933 0.013265 1.4986
v 0.04279 0.013265 1.52596
v 0.005907 0.022612 1.60108
v -0.032033 -0.001752 1.5729
v -0.059439 -0.001752 1.60108
v -0.043776 -0.001752 1.62045
v -0.01989 0.004119 1.63956
v 0.005907 0.022149 1.66021
v 0.030504 0.004196 1.63981
v 0.053847 -0.001752 1.62045
v 0.069516 -0.001752 1.60108
v 0.042104 -0.001752 1.5729
v -0.076063 -0.01676 1.56337
v -0.079021 -0.016514 1.59361
v -0.105871 -0.01676 1.58602
v -0.071887 -0.01676 1.33123
v -0.129939 -0.012124 1.40872
v -0.048466 -0.01676 1.34787
v -0.042739 -0.022145 1.37805
v -0.128495 -0.01676 1.46144
v -0.034893 -0.025676 1.53258
v -0.059562 -0.01676 1.54137
v -0.137248 -0.01676 1.51176
v -0.158167 -0.01676 1.56207
v -0.125115 -0.01676 1.60043
v -0.180963 -0.01676 1.60178
v -0.122574 -0.01676 1.63495
v -0.211873 -0.01676 1.6352
v 0.005907 -0.026117 1.60108
v 0.005907 -0.032452 1.35677
v -0.017433 -0.039524 1.3101
v 0.027517 -0.039524 1.3101
v 0.033757 -0.026628 1.38242
v 0.04279 -0.01677 1.52596
v 0.031079 -0.007554 1.63934
v 0.005907 -0.025483 1.66021
v -0.019318 -0.007765 1.64002
v 0.02492 0.008023 1.66021
v 0.02518 0.013405 1.67126
v 0.025157 0.008438 1.69633
v 0.005907 0.016922 1.79992
v 0.025157 0.006208 1.79992
v 0.005907 0.013753 1.90435
v -0.014345 0.006208 1.79992
v -0.01442 0.008387 1.69646
v -0.01442 0.013221 1.67149
v -0.015415 0.007125 1.66021
v 0.155987 -0.016759 1.53492
v 0.129112 -0.016759 1.5088
v 0.157154 -0.016759 1.48268
v 0.227053 -0.016759 1.31807
v 0.213318 -0.016759 1.36985
v 0.18496 -0.016759 1.35928
v 0.181037 -0.016759 1.4259
v 0.145158 -0.016759 1.38203
v 0.095622 -0.016759 1.39396
v 0.103334 -0.016759 1.49784
v 0.073933 -0.01677 1.4986
v -0.015008 -0.010745 1.66021
v -0.014118 -0.016688 1.67133
v -0.013858 -0.012105 1.69545
v -0.012434 -0.010598 1.80978
v 0.005907 -0.0203 1.80919
v 0.005907 -0.0172 1.90435
v 0.023396 -0.010569 1.8095
v 0.021897 -0.014094 1.69021
v 0.023897 -0.017321 1.67053
v 0.026061 -0.010509 1.66021
v 0.181037 0.013254 1.4259
v 0.213318 0.013254 1.36985
v 0.18496 0.013254 1.35928
v 0.227053 0.013254 1.31807
v -0.129939 0.008519 1.40872
v -0.048466 0.013255 1.34787
v -0.071887 0.013255 1.33123
v -0.09822 0.013255 1.3319
v -0.142488 0.003783 1.35652
v -0.124465 0.012739 1.29627
v -0.160402 0.004296 1.31206
v -0.160156 0.010978 1.26168
v -0.184847 0.00481 1.27483
v -0.208421 0.005823 1.23199
v -0.208106 0.003474 1.25099
v -0.240708 0.001528 1.21982
v -0.257973 -0.001752 1.21701
v -0.240708 -0.005033 1.21982
v -0.20807 -0.006705 1.25099
v -0.208421 -0.009328 1.23199
v -0.160156 -0.014483 1.26168
v -0.184847 -0.007829 1.27483
v -0.124465 -0.016243 1.29627
v -0.160402 -0.007658 1.31206
v -0.09822 -0.01676 1.3319
v -0.142488 -0.007487 1.35652
v 0.033618 -0.001858 1.27743
v 0.019236 0.022383 1.27743
v 0.031869 -0.001632 1.06609
v 0.017903 0.021261 1.06609
v -0.009165 0.022383 1.27743
v -0.008228 0.021261 1.06609
v -0.024203 -0.001858 1.27746
v -0.02225 -0.001632 1.06609
v 0.019236 -0.026098 1.27743
v 0.017903 -0.024526 1.06609
v -0.008228 -0.024526 1.06609
v -0.009165 -0.026098 1.27743
v 0.032646 -0.001774 -0.280682
v 0.048143 -0.001774 -0.476665
v 0.018378 0.021344 -0.280682
v 0.025924 0.034211 -0.476665
v -0.008752 0.021344 -0.280682
v -0.016302 0.034211 -0.476665
v -0.023024 -0.001774 -0.280682
v -0.038517 -0.001774 -0.476665
v 0.025924 -0.03776 -0.476665
v 0.018378 -0.024893 -0.280682
v -0.016302 -0.03776 -0.476665
v -0.008752 -0.024893 -0.280682
v 0.004811 -0.001774 -0.204937
v 0.035912 -0.001774 -0.273668
v 0.020913 0.025261 -0.273668
v 0.004811 -0.001774 -0.323087
v -0.01129 0.025261 -0.273668
v -0.026287 -0.001774 -0.273668
v 0.020913 -0.02881 -0.273668
v -0.01129 -0.02881 -0.273668
v 0.012547 0.010453 0.081802
v 0.012738 0.010392 0.44329
v -0.002343 0.010506 0.081802
v -0.002343 0.011444 0.44329
v -0.002343 0.010506 0.804778
v 0.012547 0.010453 0.804778
v -0.002343 -0.01401 0.081802
v -0.002343 -0.014949 0.44329
v 0.012547 -0.013958 0.081802
v 0.012738 -0.013897 0.44329
v -0.002343 -0.01401 0.804778
v 0.012547 -0.013958 0.804778
vn -0.299657 0.642892 -0.704909
vt 0.453407 -0.40991
vn -0.34593 0.647404 -0.679118
vt 0.451868 -0.406193
vn -0.163843 0.601257 -0.782078
vt 0.46773 -0.390849
vn -0.527676 0.699048 -0.482587
vt 0.429801 -0.422651
vn -0.633144 0.679514 -0.370661
vt 0.429801 -0.414605
vn -0.736461 0.667985 -0.10687
vt 0.400037 -0.424777
vn -0.782719 0.621721 -0.028512
vt 0.404656 -0.413627
vn -0.779754 0.576778 0.243538
vt 0.369116 -0.413606
vn -0.779391 0.510651 0.363023
vt 0.380494 -0.402228
vn -0.66282 0.456531 0.593505
vt 0.350512 -0.385763
vn -0.588234 0.445599 0.67485
vt 0.365378 -0.379605
vn -0.390292 0.444113 0.806496
vt 0.343979 -0.35292
vn -0.28044 0.443733 0.851149
vt 0.36007 -0.35292
vn 0.00638 0.444357 0.895827
vt 0.350512 -0.320078
vn 0.00638 0.444357 0.895827
vt 0.365378 -0.326236
vn 0.277288 0.443266 0.852424
vt 0.380494 -0.303613
vn 0.389724 0.428914 0.814953
vt 0.369116 -0.292235
vn 0.634239 0.398254 0.662672
vt 0.401577 -0.284781
vn 0.648928 0.40018 0.647107
vt 0.396958 -0.273631
vn 0.828914 0.36345 0.425212
vt 0.429801 -0.267098
vn 0.88563 0.330655 0.326078
vt 0.429801 -0.275144
vn 0.944734 0.314225 0.093486
vt 0.462644 -0.273631
vn 0.952699 0.300057 0.048265
vt 0.461105 -0.277348
vn 0.947681 0.295638 -0.120413
vt 0.490487 -0.292235
vn 0.044438 0.765249 -0.642198
vt 0.365378 -0.326236
vn 0.201351 0.765536 -0.611075
vt 0.376162 -0.35292
vn 0.27979 0.765554 -0.579349
vt 0.36007 -0.35292
vn 0.420012 0.765041 -0.488163
vt 0.380245 -0.373447
vn 0.48477 0.762881 -0.427797
vt 0.365378 -0.379605
vn 0.584344 0.757852 -0.290176
vt 0.391873 -0.390849
vn 0.656907 0.73023 -0.187713
vt 0.380494 -0.402228
vn 0.719872 0.693901 -0.016891
vt 0.409274 -0.402476
vn 0.772462 0.62427 0.116579
vt 0.404656 -0.413627
vn 0.755563 0.557713 0.343629
vt 0.429801 -0.406559
vn 0.761504 0.530793 0.371982
vt 0.429801 -0.414605
vn 0.653016 0.500691 0.568224
vt 0.451868 -0.406193
vn 0.621492 0.489022 0.612051
vt 0.450328 -0.402476
vn 0.497657 0.468329 0.730072
vt 0.46773 -0.390849
vn -0.042872 0.660793 0.749343
vt 0.479357 -0.373447
vn -0.235749 0.658415 0.714782
vt 0.499532 -0.35292
vn -0.328923 0.656557 0.67878
vt 0.48344 -0.35292
vn -0.499249 0.652189 0.570438
vt 0.494224 -0.326236
vn -0.575216 0.645088 0.502978
vt 0.479357 -0.332394
vn -0.70819 0.633346 0.311993
vt 0.479108 -0.303613
vn -0.771687 0.593844 0.227703
vt 0.46773 -0.314992
vn -0.854223 0.517416 -0.050829
vt 0.454947 -0.292214
vn -0.852784 0.522239 0.005185
vt 0.450328 -0.303364
vn -0.832002 0.401152 -0.383209
vt 0.429801 -0.299281
vn -0.82083 0.392585 -0.414868
vt 0.429801 -0.291236
vn -0.707254 0.316815 -0.631997
vt 0.407735 -0.299648
vn -0.682977 0.285916 -0.672157
vt 0.409274 -0.303364
vn -0.54222 0.267702 -0.79645
vt 0.391873 -0.314992
vn 0.236338 0.382742 0.893114
vt 0.391873 -0.314992
vn 0.42013 0.415389 0.80681
vt 0.407735 -0.299648
vn 0.452182 0.446396 0.77218
vt 0.406195 -0.295931
vn 0.636343 0.507297 0.581134
vt 0.429801 -0.291236
vn 0.729492 0.521615 0.442447
vt 0.429801 -0.28319
vn 0.854997 0.503654 0.123748
vt 0.454947 -0.292214
vn 0.872665 0.473992 0.117419
vt 0.459565 -0.281064
vn 0.820541 0.434649 -0.371204
vt 0.479108 -0.303613
vn 0.690115 0.393885 -0.607121
vt 0.509091 -0.320078
vn 0.603449 0.390136 -0.695444
vt 0.494224 -0.326236
vn 0.401416 0.385868 -0.830645
vt 0.515624 -0.35292
vn 0.288593 0.384106 -0.877027
vt 0.499532 -0.35292
vn 0.053868 0.381709 -0.922712
vt 0.509091 -0.385763
vn -0.065185 0.378482 -0.92331
vt 0.494224 -0.379605
vn -0.298184 0.375836 -0.877402
vt 0.490487 -0.413606
vn -0.392389 0.353039 -0.849349
vt 0.479108 -0.402228
vn -0.601929 0.337765 -0.723599
vt 0.462644 -0.43221
vn -0.686593 0.296468 -0.66385
vt 0.458026 -0.42106
vn -0.850067 0.279193 -0.446584
vt 0.429801 -0.436932
vn -0.905827 0.237619 -0.350734
vt 0.429801 -0.430697
vn -0.970299 0.220164 -0.10024
vt 0.396958 -0.43221
vn -0.978254 0.200105 -0.054563
vt 0.398498 -0.428493
vn 0.236338 -0.382742 0.893114
vt 0.391873 -0.314992
vn 0.396205 -0.411987 0.820542
vt 0.406195 -0.295931
vn 0.446298 -0.448144 0.774587
vt 0.407735 -0.299648
vn 0.650687 -0.513997 0.55894
vt 0.429801 -0.28319
vn 0.743492 -0.519277 0.421391
vt 0.429801 -0.291236
vn 0.858521 -0.500066 0.113469
vt 0.459565 -0.281064
vn 0.870474 -0.473179 0.135562
vt 0.454947 -0.292214
vn 0.859563 -0.465226 -0.211462
vt 0.479108 -0.303613
vn 0.822113 -0.437 -0.364913
vt 0.490487 -0.292235
vn 0.689857 -0.394697 -0.606887
vt 0.494224 -0.326236
vn 0.601943 -0.390048 -0.696798
vt 0.509091 -0.320078
vn 0.401492 -0.385865 -0.830609
vt 0.499532 -0.35292
vn 0.288601 -0.384118 -0.877019
vt 0.515624 -0.35292
vn 0.056743 -0.381667 -0.922557
vt 0.494224 -0.379605
vn -0.065278 -0.378901 -0.923132
vt 0.509091 -0.385763
vn -0.278982 -0.375672 -0.883764
vt 0.479108 -0.402228
vn -0.397084 -0.356016 -0.845918
vt 0.490487 -0.413606
vn -0.58948 -0.339811 -0.732831
vt 0.458026 -0.42106
vn -0.704943 -0.299238 -0.643049
vt 0.462644 -0.43221
vn -0.84662 -0.281088 -0.451912
vt 0.429801 -0.430697
vn -0.915551 -0.239212 -0.323333
vt 0.429801 -0.436932
vn -0.970675 -0.221141 -0.094266
vt 0.398498 -0.428493
vn -0.979288 -0.200423 -0.028723
vt 0.396958 -0.43221
vn -0.970265 -0.199257 0.137414
vt 0.369116 -0.413606
vn 0.123499 0.952512 -0.278331
vt 0.490487 -0.292235
vn 0.106142 0.962726 -0.248783
vt 0.461105 -0.277348
vn 0.037554 0.990924 -0.129068
vt 0.429801 -0.28319
vn -0.120624 0.966603 -0.226116
vt 0.429801 -0.275144
vn -0.222665 0.909104 -0.352066
vt 0.406195 -0.295931
vn -0.251215 0.790321 -0.558823
vt 0.401577 -0.284781
vn -0.147954 0.774704 -0.614771
vt 0.380494 -0.303613
vn -0.039377 0.771529 -0.634974
vt 0.380245 -0.332394
vn 0.394218 0.844148 0.363327
vt 0.369116 -0.413606
vn 0.394218 0.844148 0.363327
vt 0.400037 -0.424777
vn 0.399984 0.839891 0.366872
vt 0.398498 -0.428493
vn 0.407928 0.835988 0.367041
vt 0.429801 -0.422651
vn 0.434159 0.789095 0.434552
vt 0.429801 -0.430697
vn 0.38794 0.739824 0.549693
vt 0.453407 -0.40991
vn 0.33528 0.681171 0.650841
vt 0.458026 -0.42106
vn 0.202843 0.676497 0.707959
vt 0.479108 -0.402228
vn 0.049062 0.66584 0.74448
vt 0.494224 -0.379605
vn 0.497658 -0.468327 0.730073
vt 0.46773 -0.390849
vn 0.615175 -0.48826 0.619
vt 0.451868 -0.406193
vn 0.651 -0.501011 0.570251
vt 0.450328 -0.402476
vn 0.758934 -0.553937 0.342305
vt 0.429801 -0.414605
vn 0.783696 -0.533836 0.317552
vt 0.429801 -0.406559
vn 0.779621 -0.62092 0.081539
vt 0.409274 -0.402476
vn 0.725997 -0.687632 0.009527
vt 0.404656 -0.413627
vn 0.661112 -0.724659 -0.194422
vt 0.391873 -0.390849
vn 0.596821 -0.757347 -0.26501
vt 0.380494 -0.402228
vn 0.485556 -0.762375 -0.427808
vt 0.380245 -0.373447
vn 0.421892 -0.765191 -0.486302
vt 0.365378 -0.379605
vn 0.279644 -0.765647 -0.579296
vt 0.376162 -0.35292
vn 0.200903 -0.765504 -0.611263
vt 0.36007 -0.35292
vn 0.03699 -0.765464 -0.642415
vt 0.380245 -0.332394
vn -0.039628 -0.770072 -0.636725
vt 0.365378 -0.326236
vn -0.147334 -0.773173 -0.616843
vt 0.391873 -0.314992
vn -0.172095 -0.780033 -0.601608
vt 0.380494 -0.303613
vn -0.291292 -0.797228 -0.52875
vt 0.406195 -0.295931
vn -0.210312 -0.889243 -0.406221
vt 0.401577 -0.284781
vn -0.110232 -0.952606 -0.283533
vt 0.429801 -0.28319
vn 0.083629 -0.971606 -0.221334
vt 0.429801 -0.275144
vn 0.118756 -0.959435 -0.2557
vt 0.461105 -0.277348
vn -0.999872 0.015742 -0.002906
vt 0.403311 -0.416875
vn -0.924289 0.046133 0.378894
vt 0.369116 -0.413606
vn -0.919799 0.04653 0.389622
vt 0.380494 -0.402228
vn -0.748528 0.080205 0.658235
vt 0.365378 -0.379605
vn -0.434316 0.07146 0.897921
vt 0.36007 -0.35292
vn 0.008042 0.071233 0.997427
vt 0.365378 -0.326236
vn 0.445975 0.065271 0.892662
vt 0.380494 -0.303613
vn 0.711865 0.055588 0.700113
vt 0.403311 -0.288966
vn 0.897415 0.044202 0.438967
vt 0.429801 -0.28319
vn 0.999835 0.017923 0.002956
vt 0.456292 -0.288966
vn 0.919713 0.049576 -0.389449
vt 0.479108 -0.303613
vn 0.749262 0.080647 -0.657345
vt 0.494224 -0.326236
vn 0.434414 0.068953 -0.89807
vt 0.499532 -0.35292
vn 0.05766 0.068139 -0.996008
vt 0.494224 -0.379605
vn -0.327436 0.066547 -0.942527
vt 0.479108 -0.402228
vn -0.660956 0.056056 -0.748328
vt 0.456292 -0.416875
vn -0.897417 0.04005 -0.439362
vt 0.429801 -0.422651
vn -0.049703 -0.66051 0.74917
vt 0.494224 -0.379605
vn -0.235641 -0.658415 0.714817
vt 0.48344 -0.35292
vn -0.328927 -0.656577 0.678759
vt 0.499532 -0.35292
vn -0.495563 -0.652186 0.573647
vt 0.479357 -0.332394
vn -0.574681 -0.645983 0.502442
vt 0.494224 -0.326236
vn -0.693176 -0.634863 0.341256
vt 0.46773 -0.314992
vn -0.769547 -0.599502 0.219986
vt 0.479108 -0.303613
vn -0.853864 -0.51808 -0.050099
vt 0.450328 -0.303364
vn -0.852365 -0.514586 -0.093138
vt 0.454947 -0.292214
vn -0.831724 -0.399358 -0.38568
vt 0.429801 -0.291236
vn -0.850076 -0.398207 -0.344675
vt 0.429801 -0.299281
vn -0.700877 -0.318223 -0.638362
vt 0.409274 -0.303364
vn -0.657192 -0.283136 -0.698522
vt 0.407735 -0.299648
vn -0.923654 -0.043748 0.380723
vt 0.380494 -0.402228
vn -0.74818 -0.078901 0.658788
vt 0.350512 -0.385763
vn -0.65077 -0.071694 0.755883
vt 0.365378 -0.379605
vn -0.434317 -0.07146 0.897921
vt 0.343979 -0.35292
vn -0.311969 -0.071412 0.947405
vt 0.36007 -0.35292
vn 0.008042 -0.071225 0.997428
vt 0.350512 -0.320078
vn 0.008042 -0.071225 0.997428
vt 0.365378 -0.326236
vn 0.327402 -0.070581 0.942245
vt 0.380494 -0.303613
vn 0.445565 -0.065178 0.892874
vt 0.369116 -0.292235
vn 0.707583 -0.055081 0.704481
vt 0.403311 -0.288966
vn 0.703118 -0.05559 0.708897
vt 0.396958 -0.273631
vn 0.894965 -0.04426 0.443935
vt 0.429801 -0.267098
vn 0.947588 -0.030937 0.317994
vt 0.429801 -0.28319
vn 0.999861 -0.016584 0.001463
vt 0.462644 -0.273631
vn 0.999794 -0.01846 -0.008398
vt 0.456292 -0.288966
vn 0.92405 -0.044973 -0.379618
vt 0.479108 -0.303613
vn 0.650838 -0.069768 -0.756004
vt 0.494224 -0.326236
vn 0.312039 -0.068661 -0.947585
vt 0.499532 -0.35292
vn -0.073808 -0.067369 -0.994994
vt 0.494224 -0.379605
vn -0.446014 -0.060982 -0.892946
vt 0.479108 -0.402228
vn -0.754042 -0.045483 -0.655249
vt 0.456292 -0.416875
vn -0.947705 -0.027437 -0.317968
vt 0.429801 -0.422651
vn -0.999827 -0.016572 0.008406
vt 0.403311 -0.416875
vn 0.006375 -0.444248 0.895881
vt 0.365378 -0.326236
vn -0.390252 -0.444146 0.806497
vt 0.36007 -0.35292
vn -0.661183 -0.46212 0.591001
vt 0.365378 -0.379605
vn -0.784793 -0.57954 0.219619
vt 0.380494 -0.402228
vn -0.783638 -0.620878 -0.020513
vt 0.400037 -0.424777
vn -0.728249 -0.669686 -0.145513
vt 0.404656 -0.413627
vn -0.626125 -0.682356 -0.377304
vt 0.429801 -0.422651
vn -0.511542 -0.693673 -0.507092
vt 0.429801 -0.414605
vn -0.344567 -0.647524 -0.679696
vt 0.453407 -0.40991
vn -0.295867 -0.641925 -0.707386
vt 0.451868 -0.406193
vn -0.163845 -0.601252 -0.782081
vt 0.46773 -0.390849
vn 0.394214 -0.844149 0.363328
vt 0.369116 -0.413606
vn 0.392709 -0.843307 0.366897
vt 0.398498 -0.428493
vn 0.399736 -0.839482 0.368078
vt 0.400037 -0.424777
vn 0.381394 -0.830081 0.406821
vt 0.429801 -0.430697
vn 0.426482 -0.781949 0.454609
vt 0.429801 -0.422651
vn 0.383332 -0.73042 0.565281
vt 0.458026 -0.42106
vn 0.356934 -0.684992 0.635125
vt 0.453407 -0.40991
vn 0.206823 -0.670355 0.712635
vt 0.479108 -0.402228
vn 0.048838 -0.667159 0.743313
vt 0.479357 -0.373447
vn 0.94491 -0.314902 0.089343
vt 0.461105 -0.277348
vn 0.82765 -0.365059 0.426295
vt 0.429801 -0.275144
vn 0.616642 -0.399809 0.678163
vt 0.401577 -0.284781
vn 0.387133 -0.426485 0.817459
vt 0.380494 -0.303613
vn 0.001336 0.999998 0.001759
vt 0.308264 -0.162994
vn 0.002227 0.999993 0.002931
vt 0.261026 -0.127246
vn 0.006682 0.999939 0.008793
vt 0.303559 -0.115088
vn 0 1 0
vt 0.093051 -0.049826
vn 0 1 0
vt 0.234549 -0.049816
vn 0 1 0
vt 0.139958 -0.103407
vn 0 1 0
vt 0.230524 -0.104509
vn 0 1 0
vt 0.178171 -0.165426
vn 0 1 0
vt 0.213282 -0.245058
vn -0.097957 0.994892 0.024391
vt 0.22521 -0.32469
vn -0.131852 0.984725 0.113714
vt 0.334416 -0.197767
vn -0.273325 0.952815 0.132048
vt 0.373883 -0.212001
vn -0.224402 0.94818 -0.224939
vt 0.361335 -0.456646
vn 0.056296 0.997769 -0.035877
vt 0.438038 -0.490773
vn 0.830005 0.482235 0.280251
vt 0.504108 -0.565123
vn 0.787865 0.613657 0.051909
vt 0.496023 -0.494982
vn 0.557281 0.770569 0.30929
vt 0.457731 -0.565123
vn -0.540359 0.785053 0.302826
vt 0.418599 -0.565123
vn -0.766977 0.640168 -0.043935
vt 0.37802 -0.487359
vn -0.831383 0.493191 0.256055
vt 0.370403 -0.565123
vn 0.266355 0.95799 -0.106354
vt 0.482737 -0.449593
vn 0 1 0
vt 0.675963 -0.206996
vn 0 1 0
vt 0.677825 -0.28975
vn 0 1 0
vt 0.633387 -0.248506
vn 0 1 0
vt 0.658845 -0.449235
vn 0.03812 0.999242 0.007848
vt 0.580343 -0.430557
vn 0 1 0
vt 0.592541 -0.265976
vn 0.069858 0.997039 0.032126
vt 0.545955 -0.264908
vn 0.302632 0.947854 0.099936
vt 0.50256 -0.235997
vn 0.024803 0.995188 0.094791
vt 0.438152 -0.101865
vn -0.56404 0.824433 0.04657
vt 0.363337 -0.148209
vn -0.349248 0.936666 -0.026116
vt 0.321903 -0.101865
vn -0.354933 0.906265 0.229579
vt 0.348591 -0.072207
vn -0.479555 0.872065 0.097616
vt 0.39096 -0.04185
vn 0.010257 0.999917 0.007839
vt 0.436734 -0.00905299
vn 0.494033 0.864007 0.09707
vt 0.481335 -0.041224
vn 0.364523 0.901793 0.232146
vt 0.523672 -0.071762
vn 0.357568 0.933508 -0.026604
vt 0.545867 -0.101865
vn 0.531373 0.845738 -0.048689
vt 0.516684 -0.150552
vn 0.001671 -0.999996 0.002198
vt 0.308264 -0.162994
vn 0.006682 -0.999939 0.008792
vt 0.303559 -0.115088
vn 0.001671 -0.999996 0.002198
vt 0.261026 -0.127246
vn -0.01308 -0.998666 0.049952
vt 0.312202 -0.531969
vn -0.111476 -0.993249 -0.032075
vt 0.224474 -0.407606
vn -0.095783 -0.994017 -0.052499
vt 0.348431 -0.509303
vn -0.177508 -0.966749 -0.184087
vt 0.361335 -0.456646
vn -0.097608 -0.994917 0.024749
vt 0.22521 -0.32469
vn -0.268215 -0.95037 0.157664
vt 0.373883 -0.212001
vn -0.131852 -0.984725 0.113714
vt 0.334416 -0.197767
vn 0 -1 0
vt 0.213282 -0.245058
vn 0 -1 0
vt 0.178171 -0.165426
vn 0 -1 0
vt 0.230524 -0.104509
vn 0 -1 0
vt 0.139958 -0.103407
vn 0 -1 0
vt 0.234549 -0.049816
vn 0 -1 0
vt 0.093051 -0.049826
vn -0.56404 -0.824433 0.04657
vt 0.363337 -0.148209
vn 0.028583 -0.996245 0.08172
vt 0.438152 -0.101865
vn 0.040367 -0.997492 -0.058143
vt 0.438038 -0.490773
vn -0.766977 -0.640168 -0.043935
vt 0.37802 -0.487359
vn -0.540359 -0.785053 0.302826
vt 0.418599 -0.565123
vn 0.557281 -0.770569 0.309291
vt 0.457731 -0.565123
vn 0.787865 -0.613657 0.051909
vt 0.496023 -0.494982
vn 0.286135 -0.954736 -0.08128
vt 0.482737 -0.449593
vn 0.365222 -0.92309 0.12049
vt 0.49978 -0.224281
vn 0.531373 -0.845738 -0.048689
vt 0.516684 -0.150552
vn 0.357567 -0.933508 -0.026604
vt 0.545867 -0.101865
vn 0.364525 -0.901794 0.232141
vt 0.523672 -0.071762
vn 0.489635 -0.86638 0.098203
vt 0.482377 -0.041975
vn 0.003355 -0.999937 0.010717
vt 0.436734 -0.00905299
vn -0.481203 -0.871027 0.09877
vt 0.391983 -0.041117
vn -0.354947 -0.906268 0.229547
vt 0.348591 -0.072207
vn -0.349248 -0.936666 -0.026116
vt 0.321903 -0.101865
vn 0.596317 0.802649 0.012645
vt 0.963887 -0.621825
vn 0.586071 0.788858 -0.184997
vt 0.931717 -0.628456
vn -0.055766 0.997793 -0.036035
vt 0.931717 -0.655547
vn 0.458298 0.883091 -0.100563
vt 0.914218 -0.627063
vn 0.451155 0.888946 0.078953
vt 0.874497 -0.626517
vn 0.131388 0.990843 0.031089
vt 0.710503 -0.654732
vn 0.486188 0.87356 0.022659
vt 0.710469 -0.625913
vn 0.010622 0.999483 0.030336
vt 0.545146 -0.654123
vn -0.491371 0.870562 0.026022
vt 0.710469 -0.684699
vn -0.428593 0.897887 0.100534
vt 0.874285 -0.685413
vn -0.444603 0.890531 -0.096346
vt 0.91385 -0.685095
vn -0.56635 0.803732 -0.182381
vt 0.931717 -0.685138
vn -0.576001 0.817428 0.005847
vt 0.964514 -0.690309
vn 0 -1 0
vt 0.675963 -0.206996
vn 0 -1 0
vt 0.633387 -0.248506
vn 0 -1 0
vt 0.677348 -0.286402
vn 0 -1 0
vt 0.788622 -0.550183
vn 0 -1 0
vt 0.766848 -0.468212
vn 0 -1 0
vt 0.721919 -0.485086
vn 0 -1 0
vt 0.715678 -0.379582
vn 0 -1 0
vt 0.658845 -0.449235
vn 0.03812 -0.999242 0.007848
vt 0.580343 -0.430557
vn 0 -1 0
vt 0.592541 -0.265976
vn 0.069858 -0.997039 0.032127
vt 0.545955 -0.264908
vn -0.576025 -0.817429 0.002322
vt 0.964514 -0.690309
vn -0.566179 -0.803456 -0.184118
vt 0.931717 -0.685138
vn 0.009678 -0.999528 -0.029155
vt 0.931717 -0.655547
vn -0.444623 -0.890518 -0.096377
vt 0.91385 -0.685095
vn -0.428795 -0.897812 0.100345
vt 0.875885 -0.684581
vn -0.490979 -0.870789 0.025808
vt 0.694857 -0.681811
vn 0.010769 -0.999375 0.033664
vt 0.695823 -0.654678
vn 0.010763 -0.999412 0.032559
vt 0.545146 -0.654123
vn 0.51016 -0.859702 0.025476
vt 0.695297 -0.628502
vn 0.442546 -0.890889 0.102326
vt 0.884185 -0.631432
vn 0.458326 -0.883077 -0.100558
vt 0.915382 -0.628958
vn 0.587028 -0.790076 -0.176573
vt 0.931717 -0.626828
vn 0.596134 -0.802333 0.029755
vt 0.963887 -0.621825
vn 0 1 0
vt 0.715678 -0.379582
vn 0 1 0
vt 0.766848 -0.468212
vn 0 1 0
vt 0.721919 -0.485086
vn 0 1 0
vt 0.788622 -0.550183
vn -0.113066 0.993069 -0.0321
vt 0.224474 -0.407606
vn -0.096599 0.993966 -0.051972
vt 0.348431 -0.509303
vn -0.013359 0.998608 0.051019
vt 0.312202 -0.531969
vn -0.127539 0.990901 0.043012
vt 0.273205 -0.529753
vn -0.191349 0.980168 0.051534
vt 0.204258 -0.491345
vn -0.17291 0.979263 0.105573
vt 0.231612 -0.58629
vn -0.179739 0.976949 0.115175
vt 0.176093 -0.559598
vn -0.175757 0.976298 0.1263
vt 0.174992 -0.634298
vn -0.179056 0.975913 0.124631
vt 0.139182 -0.616591
vn -0.179461 0.976046 0.122997
vt 0.095529 -0.68547
vn -0.18953 0.972506 0.135318
vt 0.098548 -0.656187
vn -0.192901 0.971014 0.141143
vt 0.046963 -0.707391
vn -0.209145 0.964952 0.158511
vt 0.019474 -0.711771
vn -0.210418 -0.962949 0.168682
vt 0.019474 -0.711771
vn -0.196005 -0.968547 0.153291
vt 0.046963 -0.707391
vn -0.192299 -0.970482 0.145553
vt 0.098548 -0.656187
vn -0.185037 -0.973022 0.137801
vt 0.095529 -0.68547
vn -0.187739 -0.972281 0.139367
vt 0.174992 -0.634298
vn -0.184709 -0.973584 0.134227
vt 0.139182 -0.616591
vn -0.182153 -0.974906 0.12798
vt 0.231612 -0.58629
vn -0.175706 -0.978919 0.104141
vt 0.176093 -0.559598
vn -0.142857 -0.988228 0.054742
vt 0.273205 -0.529753
vn -0.194885 -0.980643 0.018954
vt 0.204258 -0.491345
vn 0.860002 0.510249 -0.006572
vt 0.940465 -0.893979
vn 0.644851 0.764271 -0.007537
vt 0.940465 -0.84956
vn 0.856845 0.515522 -0.00736
vt 0.385942 -0.891833
vn 0.32075 0.947138 -0.007051
vt 0.385943 -0.848775
vn -0.318705 0.947832 -0.006444
vt 0.940465 -0.789968
vn -0.638977 0.769192 -0.007205
vt 0.385943 -0.790624
vn -0.851245 0.524722 -0.006944
vt 0.940465 -0.747127
vn -0.852745 0.522276 -0.007325
vt 0.385942 -0.748234
vn 0.859995 -0.510245 -0.007658
vt 0.940465 -0.893979
vn 0.856837 -0.515518 -0.008458
vt 0.385942 -0.891833
vn 0.492143 -0.870466 -0.009131
vt 0.940465 -0.84956
vn 0.489467 -0.871969 -0.009573
vt 0.385943 -0.848775
vn -0.320271 -0.947288 -0.008466
vt 0.385943 -0.790624
vn -0.638971 -0.769181 -0.008826
vt 0.940465 -0.789968
vn -0.851239 -0.524717 -0.008039
vt 0.385942 -0.748234
vn -0.849728 -0.527154 -0.008415
vt 0.940465 -0.747127
vn 0.849054 0.524022 0.067137
vt 0.446289 -0.746525
vn 0.849054 0.524022 0.067137
vt 0.940034 -0.748542
vn 0.636831 0.767355 0.074918
vt 0.446289 -0.784106
vn 0.318393 0.945042 0.074308
vt 0.940034 -0.785299
vn -0.318409 0.945036 0.074314
vt 0.446289 -0.859341
vn -0.636819 0.767365 0.074915
vt 0.940034 -0.858884
vn -0.848999 0.524115 0.067118
vt 0.446289 -0.89664
vn -0.848999 0.524115 0.067118
vt 0.940034 -0.895366
vn 0.848965 -0.524167 0.06713
vt 0.940034 -0.748542
vn 0.636832 -0.767355 0.074913
vt 0.940034 -0.785299
vn 0.848965 -0.524167 0.06713
vt 0.446289 -0.746525
vn 0.31844 -0.945026 0.074309
vt 0.446289 -0.784106
vn -0.31841 -0.945036 0.074314
vt 0.940034 -0.858884
vn -0.636819 -0.767365 0.074915
vt 0.446289 -0.859341
vn -0.848999 -0.524115 0.067118
vt 0.940034 -0.895366
vn -0.848999 -0.524115 0.067118
vt 0.446289 -0.89664
vn -2.4e-05 0.857029 0.515268
vt 0.177223 -0.819721
vn 0.872688 0.484182 -0.063107
vt 0.423058 -0.746973
vn 0.505744 0.859586 -0.073045
vt 0.423058 -0.783339
vn -2.3e-05 0.767183 -0.641428
vt 0.592717 -0.819721
vn -0.505789 0.859559 -0.073046
vt 0.423058 -0.85614
vn -0.872736 0.484096 -0.063104
vt 0.423058 -0.892232
vn -2.3e-05 -0.767184 -0.641427
vt 0.592717 -0.819721
vn 0.505743 -0.859586 -0.073045
vt 0.423058 -0.783339
vn -2.4e-05 -0.857029 0.515268
vt 0.177223 -0.819721
vn -0.505789 -0.859559 -0.073046
vt 0.423058 -0.85614
vn 0.003516 0.999994 0.000168
vt 0.624981 -0.974464
vn 0.036585 0.99933 -0.001212
vt 0.002501 -0.975462
vn 0.036585 0.99933 -0.001212
vt 0.624981 -0.926004
vn 0.069612 0.997571 -0.00259
vt 0.002501 -0.926004
vn 0.036585 0.99933 0.001212
vt 0.624981 -0.926004
vn 0.003516 0.999994 0.000168
vt 0.624981 -0.974464
vn 0.003516 -0.99999 -0.002597
vt 0.624981 -0.926004
vn 0.036584 -0.99933 -0.001233
vt 0.002501 -0.926004
vn 0.036584 -0.99933 -0.001233
vt 0.624981 -0.974464
vn 0.069612 -0.997574 0.000132
vt 0.002501 -0.975462
vn 0.003516 -0.99999 0.002597
vt 0.624981 -0.926004
vn 0.036584 -0.99933 0.001233
vt 0.624981 -0.974464
f 3/1/1 2/2/2 1/3/3
f 4/4/4 2/2/2 3/1/1
f 4/4/4 5/5/5 2/2/2
f 6/6/6 5/5/5 4/4/4
f 6/6/6 7/7/7 5/5/5
f 8/8/8 7/7/7 6/6/6
f 8/8/8 9/9/9 7/7/7
f 10/10/10 9/9/9 8/8/8
f 10/10/10 11/11/11 9/9/9
f 12/12/12 11/11/11 10/10/10
f 12/12/12 12/12/12 11/11/11
f 11/11/11 12/12/12 12/12/12
f 11/11/11 11/11/11 12/12/12
f 12/12/12 11/11/11 11/11/11
f 12/12/12 13/13/13 11/11/11
f 14/14/14 13/13/13 12/12/12
f 14/14/14 15/15/15 13/13/13
f 14/14/14 15/15/15 14/14/14
f 14/14/14 16/16/16 15/15/15
f 17/17/17 16/16/16 14/14/14
f 17/17/17 18/18/18 16/16/16
f 19/19/19 18/18/18 17/17/17
f 19/19/19 18/18/18 18/18/18
f 20/20/20 18/18/18 19/19/19
f 20/20/20 21/21/21 18/18/18
f 22/22/22 21/21/21 20/20/20
f 22/22/22 23/23/23 21/21/21
f 24/24/24 23/23/23 22/22/22
f 24/24/24 24/24/24 23/23/23
f 15/25/25 24/24/24 24/24/24
f 15/25/25 15/25/25 24/24/24
f 25/26/26 15/25/25 15/25/25
f 25/26/26 13/27/27 15/25/25
f 26/28/28 13/27/27 25/26/26
f 26/28/28 11/29/29 13/27/27
f 27/30/30 11/29/29 26/28/28
f 27/30/30 9/31/31 11/29/29
f 28/32/32 9/31/31 27/30/30
f 28/32/32 7/33/33 9/31/31
f 29/34/34 7/33/33 28/32/32
f 29/34/34 5/35/35 7/33/33
f 29/34/34 5/35/35 29/34/34
f 29/34/34 2/36/36 5/35/35
f 30/37/37 2/36/36 29/34/34
f 30/37/37 1/38/38 2/36/36
f 1/38/38 1/38/38 30/37/37
f 1/38/38 31/39/39 1/38/38
f 31/39/39 31/39/39 1/38/38
f 31/39/39 32/40/40 31/39/39
f 33/41/41 32/40/40 31/39/39
f 33/41/41 34/42/42 32/40/40
f 35/43/43 34/42/42 33/41/41
f 35/43/43 36/44/44 34/42/42
f 37/45/45 36/44/44 35/43/43
f 37/45/45 38/46/46 36/44/44
f 39/47/47 38/46/46 37/45/45
f 39/47/47 38/46/46 38/46/46
f 40/48/48 38/46/46 39/47/47
f 40/48/48 41/49/49 38/46/46
f 40/48/48 41/49/49 40/48/48
f 40/48/48 42/50/50 41/49/49
f 43/51/51 42/50/50 40/48/48
f 43/51/51 44/52/52 42/50/50
f 44/52/52 44/52/52 43/51/51
f 44/52/52 44/53/53 44/52/52
f 44/53/53 44/53/53 44/52/52
f 44/53/53 42/54/54 44/53/53
f 45/55/55 42/54/54 44/53/53
f 45/55/55 41/56/56 42/54/54
f 46/57/57 41/56/56 45/55/55
f 46/57/57 38/58/58 41/56/56
f 47/59/59 38/58/58 46/57/57
f 47/59/59 38/58/58 38/58/58
f 24/24/24 38/58/58 47/59/59
f 24/24/24 36/60/60 38/58/58
f 48/61/61 36/60/60 24/24/24
f 48/61/61 34/62/62 36/60/60
f 49/63/63 34/62/62 48/61/61
f 49/63/63 49/63/63 34/62/62
f 34/62/62 49/63/63 49/63/63
f 34/62/62 34/62/62 49/63/63
f 49/63/63 34/62/62 34/62/62
f 49/63/63 32/64/64 34/62/62
f 50/65/65 32/64/64 49/63/63
f 50/65/65 51/66/66 32/64/64
f 52/67/67 51/66/66 50/65/65
f 52/67/67 53/68/68 51/66/66
f 54/69/69 53/68/68 52/67/67
f 54/69/69 55/70/70 53/68/68
f 56/71/71 55/70/70 54/69/69
f 56/71/71 57/72/72 55/70/70
f 58/73/73 57/72/72 56/71/71
f 58/73/73 59/74/74 57/72/72
f 58/73/73 59/74/74 58/73/73
f 58/73/73 8/8/8 59/74/74
f 8/8/8 8/8/8 58/73/73
f 8/8/8 60/75/75 8/8/8
f 60/75/75 60/75/75 8/8/8
f 60/75/75 61/76/76 60/75/75
f 62/77/77 61/76/76 60/75/75
f 62/77/77 63/78/78 61/76/76
f 64/79/79 63/78/78 62/77/77
f 64/79/79 65/80/80 63/78/78
f 66/81/81 65/80/80 64/79/79
f 66/81/81 65/80/80 65/80/80
f 67/82/82 65/80/80 66/81/81
f 67/82/82 68/83/83 65/80/80
f 69/84/84 68/83/83 67/82/82
f 69/84/84 70/85/85 68/83/83
f 71/86/86 70/85/85 69/84/84
f 71/86/86 71/86/86 70/85/85
f 70/85/85 71/86/86 71/86/86
f 70/85/85 70/85/85 71/86/86
f 71/86/86 70/85/85 70/85/85
f 71/86/86 72/87/87 70/85/85
f 73/88/88 72/87/87 71/86/86
f 73/88/88 74/89/89 72/87/87
f 75/90/90 74/89/89 73/88/88
f 75/90/90 76/91/91 74/89/89
f 77/92/92 76/91/91 75/90/90
f 77/92/92 78/93/93 76/91/91
f 79/94/94 78/93/93 77/92/92
f 79/94/94 80/95/95 78/93/93
f 81/96/96 80/95/95 79/94/94
f 81/96/96 82/97/97 80/95/95
f 83/98/98 82/97/97 81/96/96
f 83/98/98 83/98/98 82/97/97
f 24/99/99 83/98/98 83/98/98
f 24/99/99 24/99/99 83/98/98
f 47/59/59 24/99/99 24/99/99
f 47/59/59 23/100/100 24/99/99
f 46/101/101 23/100/100 47/59/59
f 46/101/101 21/102/102 23/100/100
f 45/103/103 21/102/102 46/101/101
f 45/103/103 18/104/104 21/102/102
f 44/52/52 18/104/104 45/103/103
f 44/52/52 16/105/105 18/104/104
f 84/106/106 16/105/105 44/52/52
f 84/106/106 15/25/25 16/105/105
f 25/26/26 15/25/25 84/106/106
f 25/26/26 25/26/26 15/25/25
f 8/107/107 25/26/26 25/26/26
f 8/107/107 8/107/107 25/26/26
f 6/108/108 8/107/107 8/107/107
f 6/108/108 59/109/109 8/107/107
f 4/110/110 59/109/109 6/108/108
f 4/110/110 57/111/111 59/109/109
f 3/112/112 57/111/111 4/110/110
f 3/112/112 55/113/113 57/111/111
f 1/38/38 55/113/113 3/112/112
f 1/38/38 53/114/114 55/113/113
f 1/38/38 53/114/114 1/38/38
f 1/38/38 51/115/115 53/114/114
f 31/39/39 51/115/115 1/38/38
f 31/39/39 32/40/40 51/115/115
f 32/40/40 32/40/40 31/39/39
f 32/40/40 85/116/116 32/40/40
f 85/116/116 85/116/116 32/40/40
f 85/116/116 86/117/117 85/116/116
f 87/118/118 86/117/117 85/116/116
f 87/118/118 88/119/119 86/117/117
f 89/120/120 88/119/119 87/118/118
f 89/120/120 88/119/119 88/119/119
f 90/121/121 88/119/119 89/120/120
f 90/121/121 91/122/122 88/119/119
f 92/123/123 91/122/122 90/121/121
f 92/123/123 93/124/124 91/122/122
f 94/125/125 93/124/124 92/123/123
f 94/125/125 95/126/126 93/124/124
f 96/127/127 95/126/126 94/125/125
f 96/127/127 96/127/127 95/126/126
f 95/126/126 96/127/127 96/127/127
f 95/126/126 95/126/126 96/127/127
f 96/127/127 95/126/126 95/126/126
f 96/127/127 97/128/128 95/126/126
f 98/129/129 97/128/128 96/127/127
f 98/129/129 99/130/130 97/128/128
f 60/131/131 99/130/130 98/129/129
f 60/131/131 100/132/132 99/130/130
f 61/133/133 100/132/132 60/131/131
f 61/133/133 101/134/134 100/132/132
f 63/135/135 101/134/134 61/133/133
f 63/135/135 102/136/136 101/134/134
f 65/80/80 102/136/136 63/135/135
f 65/80/80 103/137/137 102/136/136
f 68/83/83 103/137/137 65/80/80
f 68/83/83 68/83/83 103/137/137
f 56/71/71 68/83/83 68/83/83
f 56/71/71 56/71/71 68/83/83
f 104/138/138 56/71/71 56/71/71
f 104/138/138 58/73/73 56/71/71
f 104/138/138 58/73/73 104/138/138
f 104/138/138 8/139/139 58/73/73
f 105/140/140 8/139/139 104/138/138
f 105/140/140 8/139/139 8/139/139
f 106/141/141 8/139/139 105/140/140
f 106/141/141 10/10/10 8/139/139
f 107/142/142 10/10/10 106/141/141
f 107/142/142 12/12/12 10/10/10
f 108/143/143 12/12/12 107/142/142
f 108/143/143 14/14/14 12/12/12
f 108/143/143 14/14/14 108/143/143
f 108/143/143 17/17/17 14/14/14
f 109/144/144 17/17/17 108/143/143
f 109/144/144 19/19/19 17/17/17
f 19/19/19 19/19/19 109/144/144
f 19/19/19 109/144/144 19/19/19
f 109/144/144 109/144/144 19/19/19
f 109/144/144 109/144/144 109/144/144
f 110/145/145 109/144/144 109/144/144
f 110/145/145 19/19/19 109/144/144
f 111/146/146 19/19/19 110/145/145
f 111/146/146 20/20/20 19/19/19
f 112/147/147 20/20/20 111/146/146
f 112/147/147 22/22/22 20/20/20
f 112/147/147 22/22/22 112/147/147
f 112/147/147 24/24/24 22/22/22
f 113/148/148 24/24/24 112/147/147
f 113/148/148 24/24/24 24/24/24
f 114/149/149 24/24/24 113/148/148
f 114/149/149 48/61/61 24/24/24
f 115/150/150 48/61/61 114/149/149
f 115/150/150 115/150/150 48/61/61
f 48/61/61 115/150/150 115/150/150
f 48/61/61 48/61/61 115/150/150
f 115/150/150 48/61/61 48/61/61
f 115/150/150 49/63/63 48/61/61
f 116/151/151 49/63/63 115/150/150
f 116/151/151 50/65/65 49/63/63
f 117/152/152 50/65/65 116/151/151
f 117/152/152 52/67/67 50/65/65
f 118/153/153 52/67/67 117/152/152
f 118/153/153 54/69/69 52/67/67
f 119/154/154 54/69/69 118/153/153
f 119/154/154 56/71/71 54/69/69
f 104/138/138 56/71/71 119/154/154
f 104/138/138 104/138/138 56/71/71
f 73/155/155 104/138/138 104/138/138
f 73/155/155 73/155/155 104/138/138
f 73/155/155 73/155/155 73/155/155
f 73/155/155 120/156/156 73/155/155
f 71/157/157 120/156/156 73/155/155
f 71/157/157 121/158/158 120/156/156
f 69/159/159 121/158/158 71/157/157
f 69/159/159 122/160/160 121/158/158
f 67/161/161 122/160/160 69/159/159
f 67/161/161 123/162/162 122/160/160
f 66/163/163 123/162/162 67/161/161
f 66/163/163 123/162/162 123/162/162
f 64/164/164 123/162/162 66/163/163
f 64/164/164 124/165/165 123/162/162
f 64/164/164 124/165/165 64/164/164
f 64/164/164 125/166/166 124/165/165
f 62/167/167 125/166/166 64/164/164
f 62/167/167 60/131/131 125/166/166
f 60/131/131 60/131/131 62/167/167
f 60/131/131 83/98/98 60/131/131
f 83/98/98 83/98/98 60/131/131
f 83/98/98 126/168/168 83/98/98
f 127/169/169 126/168/168 83/98/98
f 127/169/169 128/170/170 126/168/168
f 129/171/171 128/170/170 127/169/169
f 129/171/171 130/172/172 128/170/170
f 131/173/173 130/172/172 129/171/171
f 131/173/173 132/174/174 130/172/172
f 131/173/173 132/174/174 131/173/173
f 131/173/173 133/175/175 132/174/174
f 134/176/176 133/175/175 131/173/173
f 134/176/176 135/177/177 133/175/175
f 136/178/178 135/177/177 134/176/176
f 136/178/178 135/177/177 135/177/177
f 137/179/179 135/177/177 136/178/178
f 137/179/179 138/180/180 135/177/177
f 138/180/180 138/180/180 137/179/179
f 138/180/180 137/179/179 138/180/180
f 137/179/179 137/179/179 138/180/180
f 137/179/179 138/180/180 137/179/179
f 139/181/181 138/180/180 137/179/179
f 139/181/181 140/182/182 138/180/180
f 139/181/181 140/182/182 139/181/181
f 139/181/181 141/183/183 140/182/182
f 68/83/83 141/183/183 139/181/181
f 68/83/83 141/183/183 141/183/183
f 70/85/85 141/183/183 68/83/83
f 70/85/85 142/184/184 141/183/183
f 72/87/87 142/184/184 70/85/85
f 72/87/87 143/185/185 142/184/184
f 74/89/89 143/185/185 72/87/87
f 74/89/89 144/186/186 143/185/185
f 144/186/186 144/186/186 74/89/89
f 144/186/186 74/89/89 144/186/186
f 74/89/89 74/89/89 144/186/186
f 74/89/89 144/186/186 74/89/89
f 76/91/91 144/186/186 74/89/89
f 76/91/91 145/187/187 144/186/186
f 78/93/93 145/187/187 76/91/91
f 78/93/93 146/188/188 145/187/187
f 80/95/95 146/188/188 78/93/93
f 80/95/95 147/189/189 146/188/188
f 82/97/97 147/189/189 80/95/95
f 82/97/97 148/190/190 147/189/189
f 82/97/97 148/190/190 82/97/97
f 82/97/97 126/168/168 148/190/190
f 83/98/98 126/168/168 82/97/97
f 83/98/98 83/98/98 126/168/168
f 99/191/191 83/98/98 83/98/98
f 99/191/191 99/191/191 83/98/98
f 129/171/171 99/191/191 99/191/191
f 129/171/171 97/192/192 99/191/191
f 127/169/169 97/192/192 129/171/171
f 127/169/169 95/193/193 97/192/192
f 83/98/98 95/193/193 127/169/169
f 83/98/98 93/194/194 95/193/193
f 149/195/195 93/194/194 83/98/98
f 149/195/195 91/196/196 93/194/194
f 150/197/197 91/196/196 149/195/195
f 150/197/197 88/198/198 91/196/196
f 151/199/199 88/198/198 150/197/197
f 151/199/199 86/200/200 88/198/198
f 151/199/199 86/200/200 151/199/199
f 151/199/199 85/201/201 86/200/200
f 85/201/201 85/201/201 151/199/199
f 85/201/201 83/202/202 85/201/201
f 83/202/202 83/202/202 85/201/201
f 83/202/202 83/202/202 83/202/202
f 81/203/203 83/202/202 83/202/202
f 81/203/203 149/204/204 83/202/202
f 79/205/205 149/204/204 81/203/203
f 79/205/205 150/206/206 149/204/204
f 77/207/207 150/206/206 79/205/205
f 77/207/207 151/208/208 150/206/206
f 75/209/209 151/208/208 77/207/207
f 75/209/209 85/116/116 151/208/208
f 75/209/209 85/116/116 75/209/209
f 75/209/209 152/210/210 85/116/116
f 73/155/155 152/210/210 75/209/209
f 73/155/155 120/156/156 152/210/210
f 120/156/156 120/156/156 73/155/155
f 120/156/156 68/83/83 120/156/156
f 68/83/83 68/83/83 120/156/156
f 68/83/83 68/83/83 68/83/83
f 139/181/181 68/83/83 68/83/83
f 139/181/181 103/211/211 68/83/83
f 137/179/179 103/211/211 139/181/181
f 137/179/179 102/212/212 103/211/211
f 136/178/178 102/212/212 137/179/179
f 136/178/178 101/213/213 102/212/212
f 136/178/178 101/213/213 136/178/178
f 136/178/178 100/214/214 101/213/213
f 134/176/176 100/214/214 136/178/178
f 134/176/176 99/191/191 100/214/214
f 131/173/173 99/191/191 134/176/176
f 131/173/173 99/191/191 99/191/191
f 129/171/171 99/191/191 131/173/173
f 129/171/171 129/171/171 99/191/191
f 153/215/215 129/171/171 129/171/171
f 153/215/215 153/215/215 129/171/171
f 154/216/216 153/215/215 153/215/215
f 154/216/216 155/217/217 153/215/215
f 155/217/217 155/217/217 154/216/216
f 155/217/217 156/218/218 155/217/217
f 156/218/218 156/218/218 155/217/217
f 156/218/218 156/218/218 156/218/218
f 157/219/219 156/218/218 156/218/218
f 157/219/219 158/220/220 156/218/218
f 159/221/221 158/220/220 157/219/219
f 159/221/221 160/222/222 158/220/220
f 154/216/216 160/222/222 159/221/221
f 154/216/216 160/222/222 160/222/222
f 153/215/215 160/222/222 154/216/216
f 153/215/215 161/223/223 160/222/222
f 153/215/215 161/223/223 153/215/215
f 153/215/215 162/224/224 161/223/223
f 163/225/225 162/224/224 153/215/215
f 163/225/225 162/224/224 162/224/224
f 164/226/226 162/224/224 163/225/225
f 164/226/226 162/224/224 162/224/224
f 165/227/227 162/224/224 164/226/226
f 165/227/227 165/227/227 162/224/224
f 166/228/228 165/227/227 165/227/227
f 166/228/228 166/228/228 165/227/227
f 165/227/227 166/228/228 166/228/228
f 165/227/227 164/226/226 166/228/228
f 164/226/226 164/226/226 165/227/227
f 164/226/226 167/229/229 164/226/226
f 167/229/229 167/229/229 164/226/226
f 167/229/229 168/230/230 167/229/229
f 169/231/231 168/230/230 167/229/229
f 169/231/231 166/228/228 168/230/230
f 170/232/232 166/228/228 169/231/231
f 170/232/232 166/228/228 166/228/228
f 171/233/233 166/228/228 170/232/232
f 171/233/233 165/227/227 166/228/228
f 165/227/227 165/227/227 171/233/233
f 165/227/227 172/234/234 165/227/227
f 172/234/234 172/234/234 165/227/227
f 172/234/234 172/234/234 172/234/234
f 171/233/233 172/234/234 172/234/234
f 171/233/233 170/232/232 172/234/234
f 170/232/232 170/232/232 171/233/233
f 170/232/232 166/228/228 170/232/232
f 166/228/228 166/228/228 170/232/232
f 166/228/228 166/228/228 166/228/228
f 173/235/235 166/228/228 166/228/228
f 173/235/235 168/230/230 166/228/228
f 168/230/230 168/230/230 173/235/235
f 168/230/230 174/236/236 168/230/230
f 174/236/236 174/236/236 168/230/230
f 174/236/236 174/236/236 174/236/236
f 175/237/237 174/236/236 174/236/236
f 175/237/237 176/238/238 174/236/236
f 177/239/239 176/238/238 175/237/237
f 177/239/239 176/238/238 176/238/238
f 178/240/240 176/238/238 177/239/239
f 178/240/240 179/241/241 176/238/238
f 178/240/240 179/241/241 178/240/240
f 178/240/240 180/242/242 179/241/241
f 173/235/235 180/242/242 178/240/240
f 173/235/235 181/243/243 180/242/242
f 166/228/228 181/243/243 173/235/235
f 166/228/228 182/244/244 181/243/243
f 164/226/226 182/244/244 166/228/228
f 164/226/226 164/226/226 182/244/244
f 164/226/226 164/226/226 164/226/226
f 164/226/226 164/226/226 164/226/226
f 164/226/226 164/226/226 164/226/226
f 164/226/226 182/244/244 164/226/226
f 183/245/245 182/244/244 164/226/226
f 183/245/245 182/244/244 182/244/244
f 184/246/246 182/244/244 183/245/245
f 184/246/246 182/244/244 182/244/244
f 185/247/247 182/244/244 184/246/246
f 185/247/247 182/244/244 182/244/244
f 186/248/248 182/244/244 185/247/247
f 186/248/248 182/244/244 182/244/244
f 187/249/249 182/244/244 186/248/248
f 187/249/249 182/244/244 182/244/244
f 188/250/250 182/244/244 187/249/249
f 188/250/250 182/244/244 182/244/244
f 189/251/251 182/244/244 188/250/250
f 189/251/251 182/244/244 182/244/244
f 190/252/252 182/244/244 189/251/251
f 190/252/252 182/244/244 182/244/244
f 191/253/253 182/244/244 190/252/252
f 191/253/253 181/243/243 182/244/244
f 181/243/243 181/243/243 191/253/253
f 181/243/243 192/254/254 181/243/243
f 192/254/254 192/254/254 181/243/243
f 192/254/254 192/254/254 192/254/254
f 193/255/255 192/254/254 192/254/254
f 193/255/255 194/256/256 192/254/254
f 194/256/256 194/256/256 193/255/255
f 194/256/256 195/257/257 194/256/256
f 195/257/257 195/257/257 194/256/256
f 195/257/257 196/258/258 195/257/257
f 197/259/259 196/258/258 195/257/257
f 197/259/259 196/258/258 196/258/258
f 198/260/260 196/258/258 197/259/259
f 198/260/260 199/261/261 196/258/258
f 200/262/262 199/261/261 198/260/260
f 200/262/262 199/261/261 199/261/261
f 201/263/263 199/261/261 200/262/262
f 201/263/263 199/261/261 199/261/261
f 192/254/254 199/261/261 201/263/263
f 192/254/254 202/264/264 199/261/261
f 194/256/256 202/264/264 192/254/254
f 194/256/256 203/265/265 202/264/264
f 204/266/266 203/265/265 194/256/256
f 204/266/266 205/267/267 203/265/265
f 206/268/268 205/267/267 204/266/266
f 206/268/268 207/269/269 205/267/267
f 207/269/269 207/269/269 206/268/268
f 207/269/269 183/270/270 207/269/269
f 183/270/270 183/270/270 207/269/269
f 183/270/270 208/271/271 183/270/270
f 200/262/262 208/271/271 183/270/270
f 200/262/262 208/271/271 208/271/271
f 198/260/260 208/271/271 200/262/262
f 198/260/260 209/272/272 208/271/271
f 171/273/273 209/272/272 198/260/260
f 171/273/273 210/274/274 209/272/272
f 172/234/234 210/274/274 171/273/273
f 172/234/234 172/234/234 210/274/274
f 209/272/272 172/234/234 172/234/234
f 209/272/272 209/272/272 172/234/234
f 210/274/274 209/272/272 209/272/272
f 210/274/274 211/275/275 209/272/272
f 211/275/275 211/275/275 210/274/274
f 211/275/275 167/229/229 211/275/275
f 167/229/229 167/229/229 211/275/275
f 167/229/229 211/275/275 167/229/229
f 168/276/276 211/275/275 167/229/229
f 168/276/276 209/272/272 211/275/275
f 212/277/277 209/272/272 168/276/276
f 212/277/277 208/271/271 209/272/272
f 208/271/271 208/271/271 212/277/277
f 208/271/271 212/277/277 208/271/271
f 212/277/277 212/277/277 208/271/271
f 212/277/277 212/277/277 212/277/277
f 213/278/278 212/277/277 212/277/277
f 213/278/278 208/271/271 212/277/277
f 191/279/279 208/271/271 213/278/278
f 191/279/279 208/271/271 208/271/271
f 190/280/280 208/271/271 191/279/279
f 190/280/280 208/271/271 208/271/271
f 189/281/281 208/271/271 190/280/280
f 189/281/281 208/271/271 208/271/271
f 214/282/282 208/271/271 189/281/281
f 214/282/282 208/271/271 208/271/271
f 215/283/283 208/271/271 214/282/282
f 215/283/283 208/271/271 208/271/271
f 216/284/284 208/271/271 215/283/283
f 216/284/284 208/271/271 208/271/271
f 185/285/285 208/271/271 216/284/284
f 185/285/285 208/271/271 208/271/271
f 184/286/286 208/271/271 185/285/285
f 184/286/286 208/271/271 208/271/271
f 183/270/270 208/271/271 184/286/286
f 183/270/270 183/270/270 208/271/271
f 188/287/287 183/270/270 183/270/270
f 188/287/287 188/287/287 183/270/270
f 188/287/287 188/287/287 188/287/287
f 188/287/287 217/288/288 188/287/287
f 187/289/289 217/288/288 188/287/287
f 187/289/289 218/290/290 217/288/288
f 187/289/289 218/290/290 187/289/289
f 187/289/289 219/291/291 218/290/290
f 220/292/292 219/291/291 187/289/289
f 220/292/292 221/293/293 219/291/291
f 220/292/292 221/293/293 220/292/292
f 220/292/292 222/294/294 221/293/293
f 220/292/292 222/294/294 220/292/292
f 220/292/292 223/295/295 222/294/294
f 187/289/289 223/295/295 220/292/292
f 187/289/289 224/296/296 223/295/295
f 187/289/289 224/296/296 187/289/289
f 187/289/289 225/297/297 224/296/296
f 187/289/289 225/297/297 187/289/289
f 187/289/289 226/298/298 225/297/297
f 186/299/299 226/298/298 187/289/289
f 186/299/299 186/299/299 226/298/298
f 227/300/300 186/299/299 186/299/299
f 227/300/300 227/300/300 186/299/299
f 228/301/301 227/300/300 227/300/300
f 228/301/301 229/302/302 227/300/300
f 229/302/302 229/302/302 228/301/301
f 229/302/302 230/303/303 229/302/302
f 230/303/303 230/303/303 229/302/302
f 230/303/303 230/303/303 230/303/303
f 231/304/304 230/303/303 230/303/303
f 231/304/304 232/305/305 230/303/303
f 233/306/306 232/305/305 231/304/304
f 233/306/306 234/307/307 232/305/305
f 229/302/302 234/307/307 233/306/306
f 229/302/302 234/307/307 234/307/307
f 228/301/301 234/307/307 229/302/302
f 228/301/301 235/308/308 234/307/307
f 236/309/309 235/308/308 228/301/301
f 236/309/309 235/308/308 235/308/308
f 237/310/310 235/308/308 236/309/309
f 237/310/310 212/277/277 235/308/308
f 213/278/278 212/277/277 237/310/310
f 213/278/278 213/278/278 212/277/277
f 216/311/311 213/278/278 213/278/278
f 216/311/311 216/311/311 213/278/278
f 216/311/311 216/311/311 216/311/311
f 216/311/311 238/312/312 216/311/311
f 215/313/313 238/312/312 216/311/311
f 215/313/313 239/314/314 238/312/312
f 215/313/313 239/314/314 215/313/313
f 215/313/313 240/315/315 239/314/314
f 215/313/313 240/315/315 215/313/313
f 215/313/313 241/316/316 240/315/315
f 242/317/317 241/316/316 215/313/313
f 242/317/317 243/318/318 241/316/316
f 242/317/317 243/318/318 242/317/317
f 242/317/317 244/319/319 243/318/318
f 215/313/313 244/319/319 242/317/317
f 215/313/313 245/320/320 244/319/319
f 215/313/313 245/320/320 215/313/313
f 215/313/313 246/321/321 245/320/320
f 215/313/313 246/321/321 215/313/313
f 215/313/313 247/322/322 246/321/321
f 214/323/323 247/322/322 215/313/313
f 214/323/323 214/323/323 247/322/322
f 175/237/237 214/323/323 214/323/323
f 175/237/237 175/237/237 214/323/323
f 248/324/324 175/237/237 175/237/237
f 248/324/324 177/239/239 175/237/237
f 249/325/325 177/239/239 248/324/324
f 249/325/325 250/326/326 177/239/239
f 251/327/327 250/326/326 249/325/325
f 251/327/327 251/327/327 250/326/326
f 162/224/224 251/327/327 251/327/327
f 162/224/224 162/224/224 251/327/327
f 165/227/227 162/224/224 162/224/224
f 165/227/227 252/328/328 162/224/224
f 253/329/329 252/328/328 165/227/227
f 253/329/329 252/328/328 252/328/328
f 254/330/330 252/328/328 253/329/329
f 254/330/330 252/328/328 252/328/328
f 255/331/331 252/328/328 254/330/330
f 255/331/331 256/332/332 252/328/328
f 257/333/333 256/332/332 255/331/331
f 257/333/333 258/334/334 256/332/332
f 259/335/335 258/334/334 257/333/333
f 259/335/335 260/336/336 258/334/334
f 261/337/337 260/336/336 259/335/335
f 261/337/337 262/338/338 260/336/336
f 263/339/339 262/338/338 261/337/337
f 263/339/339 264/340/340 262/338/338
f 264/340/340 264/340/340 263/339/339
f 264/340/340 264/341/341 264/340/340
f 264/341/341 264/341/341 264/340/340
f 264/341/341 264/341/341 264/341/341
f 265/342/342 264/341/341 264/341/341
f 265/342/342 266/343/343 264/341/341
f 267/344/344 266/343/343 265/342/342
f 267/344/344 266/343/343 266/343/343
f 268/345/345 266/343/343 267/344/344
f 268/345/345 269/346/346 266/343/343
f 270/347/347 269/346/346 268/345/345
f 270/347/347 271/348/348 269/346/346
f 272/349/349 271/348/348 270/347/347
f 272/349/349 273/350/350 271/348/348
f 272/349/349 273/350/350 272/349/349
f 272/349/349 196/258/258 273/350/350
f 195/257/257 196/258/258 272/349/349
f 195/257/257 195/257/257 196/258/258
f 274/351/351 195/257/257 195/257/257
f 274/351/351 274/351/351 195/257/257
f 274/351/351 274/351/351 274/351/351
f 274/351/351 275/352/352 274/351/351
f 276/353/353 275/352/352 274/351/351
f 276/353/353 275/352/352 275/352/352
f 277/354/354 275/352/352 276/353/353
f 277/354/354 278/355/355 275/352/352
f 279/356/356 278/355/355 277/354/354
f 279/356/356 280/357/357 278/355/355
f 281/358/358 280/357/357 279/356/356
f 281/358/358 281/358/358 280/357/357
f 274/359/359 281/358/358 281/358/358
f 274/359/359 274/359/359 281/358/358
f 274/359/359 274/359/359 274/359/359
f 274/359/359 276/360/360 274/359/359
f 282/361/361 276/360/360 274/359/359
f 282/361/361 283/362/362 276/360/360
f 282/361/361 283/362/362 282/361/361
f 282/361/361 284/363/363 283/362/362
f 285/364/364 284/363/363 282/361/361
f 285/364/364 281/365/365 284/363/363
f 280/366/366 281/365/365 285/364/364
f 280/366/366 280/366/366 281/365/365
f 286/367/367 280/366/366 280/366/366
f 286/367/367 286/367/367 280/366/366
f 287/368/368 286/367/367 286/367/367
f 287/368/368 288/369/369 286/367/367
f 289/370/370 288/369/369 287/368/368
f 289/370/370 290/371/371 288/369/369
f 291/372/372 290/371/371 289/370/370
f 291/372/372 292/373/373 290/371/371
f 293/374/374 292/373/373 291/372/372
f 293/374/374 293/374/374 292/373/373
f 287/375/375 293/374/374 293/374/374
f 287/375/375 287/375/375 293/374/374
f 287/375/375 287/375/375 287/375/375
f 287/375/375 294/376/376 287/375/375
f 286/377/377 294/376/376 287/375/375
f 286/377/377 294/376/376 294/376/376
f 295/378/378 294/376/376 286/377/377
f 295/378/378 296/379/379 294/376/376
f 297/380/380 296/379/379 295/378/378
f 297/380/380 293/381/381 296/379/379
f 292/382/382 293/381/381 297/380/380
f 292/382/382 292/382/382 293/381/381
f 298/383/383 292/382/382 292/382/382
f 298/383/383 298/383/383 292/382/382
f 299/384/384 298/383/383 298/383/383
f 299/384/384 300/385/385 298/383/383
f 301/386/386 300/385/385 299/384/384
f 301/386/386 302/387/387 300/385/385
f 303/388/388 302/387/387 301/386/386
f 303/388/388 302/387/387 302/387/387
f 298/383/383 302/387/387 303/388/388
f 298/383/383 300/385/385 302/387/387
f 300/385/385 300/385/385 298/383/383
f 300/385/385 301/389/389 300/385/385
f 301/389/389 301/389/389 300/385/385
f 301/389/389 301/389/389 301/389/389
f 299/384/384 301/389/389 301/389/389
f 299/384/384 304/390/390 301/389/389
f 298/391/391 304/390/390 299/384/384
f 298/391/391 305/392/392 304/390/390
f 303/388/388 305/392/392 298/391/391
f 303/388/388 305/392/392 305/392/392
f 301/389/389 305/392/392 303/388/388
f 301/389/389 304/390/390 305/392/392
f 304/390/390 304/390/390 301/389/389
f 306/393/393 307/394/394 306/393/393
f 308/395/395 307/394/394 306/393/393
f 308/395/395 309/396/396 307/394/394
f 309/396/396 309/396/396 308/395/395
f 309/396/396 309/396/396 309/396/396
f 309/396/396 309/396/396 309/396/396
f 309/396/396 307/394/394 309/396/396
f 310/397/397 307/394/394 309/396/396
f 310/397/397 311/398/398 307/394/394
f 311/398/398 311/398/398 310/397/397
f 311/398/398 312/399/399 311/398/398
f 312/399/399 312/399/399 311/398/398
f 312/399/399 313/400/400 312/399/399
f 314/401/401 313/400/400 312/399/399
f 314/401/401 315/402/402 313/400/400
f 315/402/402 315/402/402 314/401/401
f 315/402/402 316/403/403 315/402/402
f 316/403/403 316/403/403 315/402/402
f 316/403/403 317/404/404 316/403/403
f 313/400/400 317/404/404 316/403/403
f 313/400/400 315/402/402 317/404/404
f 315/402/402 315/402/402 313/400/400
