#
# Exported by OpenBRF -- marco tarini
#
s phuongthienhoakich2
newmtl phuongthienhoakich2
Ka 0.8 0.8 0.8
Kd 0.2 0.2 0.2
usemtl phuongthienhoakich2
v 0.060858 -0.011101 1.25127
v 0.060858 0.007325 1.25127
v 0.051617 -0.001888 1.24717
v 0.070098 -0.001888 1.25537
v 0.047048 -0.001888 1.25918
v 0.055465 0.006508 1.26292
v 0.06389 -0.001888 1.26665
v 0.055465 -0.010285 1.26292
v 0.05465 -0.001888 1.26476
v 0.051113 0.002026 1.27241
v 0.047545 -0.001845 1.27079
v 0.054686 -0.001836 1.27403
v 0.051312 -0.001845 1.2619
v 0.055111 0.002026 1.26363
v 0.055111 -0.005707 1.26363
v 0.058901 -0.001835 1.26535
v 0.051117 -0.005707 1.27241
v 0.049066 -0.001834 1.28752
v 0.053356 0.007192 1.27652
v 0.04458 -0.00157 1.28585
v 0.048874 0.00763 1.27484
v 0.055891 -0.001834 1.26886
v 0.051406 -0.00157 1.26719
v 0.052306 -0.011034 1.27795
v 0.047824 -0.010597 1.27627
v 0.05125 0.011777 1.27573
v 0.045474 -0.001702 1.2903
v 0.04993 -0.015181 1.27706
v 0.055001 -0.001702 1.26441
v 0.126892 -0.029608 1.06604
v 0.137295 -0.03364 1.0799
v 0.102327 -0.004381 1.10498
v 0.12487 -0.027793 1.12701
v 0.054325 -0.001581 1.26607
v 0.071574 -0.014696 1.23849
v 0.049823 -0.00398 1.21839
v 0.096636 -0.03456 1.19958
v 0.066711 -0.002065 1.16079
v 0.129118 0.017952 1.10703
v 0.123485 0.001036 1.05781
v 0.128403 0.011988 1.05879
v 0.123684 0.000807 1.01728
v 0.127275 0.008026 1.01724
v 0.069282 0.014605 1.23117
v 0.109064 0.027707 1.19456
v 0.085705 0.001886 1.24028
v 0.120642 0.003228 1.21891
v 0.152097 -0.000488 1.16523
v 0.14065 0.013855 1.11342
v 0.144495 0.005488 1.06507
v 0.138804 -0.000547 1.01477
v 0.152929 -0.013005 1.06917
v 0.151466 -0.028854 1.06892
v 0.157551 -0.001779 1.11727
v 0.153745 0.019157 1.06626
v 0.161652 0.010866 1.07253
v 0.057175 -0.004394 1.25795
v 0.108219 -0.021863 1.19987
v 0.082813 0.002243 1.16704
v 0.119894 0.005357 1.21227
v 0.147446 -0.001477 1.10419
v 0.135518 -0.021344 1.09538
v 0.117629 -0.004117 1.07525
v 0.135427 -0.011103 1.01985
v 0.138098 0.009701 1.09271
v 0.108245 0.026805 1.19483
v -0.016221 -0.001632 -0.213756
v -0.016221 -0.001632 0.44329
v -0.006457 -0.019507 -0.213756
v -0.006457 -0.021383 0.44329
v 0.016115 -0.019507 -0.213756
v 0.016574 -0.019363 0.44329
v 0.025843 -0.001632 -0.213756
v 0.025843 -0.001632 0.44329
v -0.006457 0.018118 0.44329
v -0.016221 -0.001632 1.02167
v -0.006457 0.016242 1.02167
v 0.016574 0.016098 0.44329
v 0.016115 0.016242 1.02167
v 0.025843 -0.001632 1.02167
v 0.016115 0.016242 -0.213756
v -0.006457 0.016242 -0.213756
v 0.016115 -0.019507 1.02167
v -0.006457 -0.019507 1.02167
v -0.034893 0.022171 1.53258
v -0.034893 -0.025676 1.53258
v -0.032033 -0.001752 1.5729
v -0.211873 0.013255 1.6352
v -0.122574 0.013255 1.63495
v -0.25914 -0.001752 1.65674
v -0.092035 -0.001752 1.65617
v 0.155987 -0.016759 1.53492
v 0.155987 0.013254 1.53492
v 0.157154 -0.016759 1.48268
v 0.157154 0.013254 1.48268
v 0.181037 0.013254 1.4259
v 0.181037 -0.016759 1.4259
v 0.213318 0.013254 1.36985
v 0.213318 -0.016759 1.36985
v 0.227053 0.013254 1.31807
v 0.227053 -0.016759 1.31807
v 0.033702 -0.001752 1.35677
v 0.033757 0.023123 1.38242
v 0.033757 -0.026628 1.38242
v 0.095622 -0.016759 1.39396
v 0.095622 0.013254 1.39396
v 0.145158 0.013254 1.38203
v 0.145158 -0.016759 1.38203
v 0.18496 -0.016759 1.35928
v 0.18496 0.013254 1.35928
v 0.049462 -0.001752 1.3101
v 0.027517 0.036019 1.3101
v 0.005907 -0.001858 1.20242
v -0.017433 0.036019 1.3101
v -0.03984 -0.001752 1.3101
v -0.042739 0.01864 1.37805
v -0.025464 -0.001752 1.35677
v -0.042739 -0.022145 1.37805
v -0.059562 -0.01676 1.54137
v -0.059562 0.013255 1.54137
v -0.076063 -0.01676 1.56337
v -0.076063 0.013255 1.56337
v -0.079021 -0.016514 1.59361
v -0.079021 0.013009 1.59361
v 0.042104 -0.001752 1.5729
v 0.04279 -0.01677 1.52596
v 0.04279 0.013265 1.52596
v 0.129112 -0.016759 1.5088
v 0.129112 0.013254 1.5088
v 0.103334 -0.016759 1.49784
v 0.103334 0.013254 1.49784
v 0.073933 0.013265 1.4986
v 0.073933 -0.01677 1.4986
v -0.105871 -0.01676 1.58602
v -0.105871 0.013255 1.58602
v -0.125115 -0.01676 1.60043
v -0.125115 0.013255 1.60043
v -0.122574 -0.01676 1.63495
v -0.017433 -0.039524 1.3101
v 0.027517 -0.039524 1.3101
v -0.211873 -0.01676 1.6352
v -0.160156 0.010978 1.26168
v -0.160156 -0.014483 1.26168
v -0.208421 0.005823 1.23199
v -0.208421 -0.009328 1.23199
v -0.240708 -0.005033 1.21982
v -0.240708 0.001528 1.21982
v -0.257973 -0.001752 1.21701
v -0.048466 -0.01676 1.34787
v -0.048466 0.013255 1.34787
v -0.071887 0.013255 1.33123
v -0.071887 -0.01676 1.33123
v -0.09822 -0.01676 1.3319
v -0.09822 0.013255 1.3319
v -0.124465 0.012739 1.29627
v -0.124465 -0.016243 1.29627
v 0.053847 -0.001752 1.62045
v 0.030504 0.004196 1.63981
v 0.03796 -0.001752 1.66021
v 0.02492 0.008023 1.66021
v 0.02518 0.013405 1.67126
v 0.058397 -0.001752 1.69031
v 0.025157 0.008438 1.69633
v 0.039344 -0.001752 1.72295
v 0.025157 0.006208 1.79992
v 0.041171 -0.001736 1.8038
v 0.005907 0.013753 1.90435
v 0.005907 -0.001752 1.99443
v -0.031097 -0.001736 1.8038
v -0.014345 0.006208 1.79992
v -0.029277 -0.001752 1.72295
v -0.01442 0.008387 1.69646
v -0.048323 -0.001752 1.69031
v -0.01442 0.013221 1.67149
v -0.015415 0.007125 1.66021
v -0.027889 -0.001752 1.66021
v -0.043776 -0.001752 1.62045
v -0.01989 0.004119 1.63956
v -0.161875 -0.001752 1.4599
v -0.129939 0.008519 1.40872
v -0.161449 -0.001752 1.4154
v -0.142488 0.003783 1.35652
v -0.171577 -0.001752 1.37091
v -0.160402 0.004296 1.31206
v -0.18709 -0.001752 1.32651
v -0.184847 0.00481 1.27483
v -0.2074 -0.001752 1.28685
v -0.208106 0.003474 1.25099
v -0.218418 -0.001752 1.61209
v -0.180963 0.013255 1.60178
v -0.196883 -0.001752 1.58038
v -0.158167 0.013255 1.56207
v -0.17965 -0.001752 1.54529
v -0.137248 0.013255 1.51176
v -0.166688 -0.001752 1.50141
v -0.128495 0.013255 1.46144
v -0.019318 -0.007765 1.64002
v -0.015008 -0.010745 1.66021
v -0.014118 -0.016688 1.67133
v -0.013858 -0.012105 1.69545
v -0.012434 -0.010598 1.80978
v 0.005907 -0.0172 1.90435
v 0.023396 -0.010569 1.8095
v 0.021897 -0.014094 1.69021
v 0.023897 -0.017321 1.67053
v 0.026061 -0.010509 1.66021
v 0.031079 -0.007554 1.63934
v -0.128495 -0.01676 1.46144
v -0.129939 -0.012124 1.40872
v -0.142488 -0.007487 1.35652
v -0.160402 -0.007658 1.31206
v -0.184847 -0.007829 1.27483
v -0.20807 -0.006705 1.25099
v -0.180963 -0.01676 1.60178
v -0.158167 -0.01676 1.56207
v -0.137248 -0.01676 1.51176
v 0.03276 -0.034446 1.471
v 0.027423 -0.045719 1.45439
v 0.040248 -0.034458 1.45958
v 0.028967 -0.045616 1.44627
v 0.0428 -0.034441 1.44616
v 0.027286 -0.045504 1.43819
v 0.040027 -0.034414 1.43279
v 0.022642 -0.04545 1.43136
v 0.032344 -0.034384 1.42149
v 0.015738 -0.045443 1.42683
v 0.020919 -0.034377 1.414
v 0.007623 -0.045447 1.42528
v 0.021465 -0.034429 1.47868
v 0.022892 -0.045616 1.4613
v 0.007798 -0.052207 1.44645
v -0.000467 -0.045495 1.42696
v -0.007299 -0.045652 1.43161
v -0.01183 -0.045732 1.43851
v -0.01337 -0.045651 1.44663
v -0.011693 -0.045495 1.45472
v -0.007049 -0.045449 1.46155
v -0.000142 -0.045446 1.46608
v 0.007974 -0.045452 1.46762
v 0.01606 -0.045505 1.46594
v -0.027206 -0.034448 1.44675
v -0.024431 -0.034427 1.46012
v -0.016747 -0.034421 1.47141
v -0.005326 -0.03442 1.4789
v 0.008094 -0.034421 1.48146
v 0.007506 -0.034386 1.41145
v -0.005866 -0.034414 1.41422
v -0.017167 -0.034445 1.42191
v -0.024652 -0.034459 1.43333
v -0.011693 0.04199 1.45472
v 0.007798 0.048702 1.44645
v -0.01337 0.042146 1.44663
v -0.01183 0.042228 1.43851
v -0.007299 0.042147 1.43161
v -0.000467 0.04199 1.42696
v 0.007623 0.041942 1.42528
v 0.015738 0.041938 1.42683
v 0.022642 0.041945 1.43136
v 0.027286 0.041999 1.43819
v 0.032344 0.03088 1.42149
v 0.040027 0.030909 1.43279
v 0.028967 0.042111 1.44627
v 0.027423 0.042214 1.45439
v 0.022892 0.042111 1.4613
v 0.01606 0.042 1.46594
v 0.007974 0.041947 1.46762
v -0.000142 0.041941 1.46608
v -0.007049 0.041945 1.46155
v 0.0428 0.030937 1.44616
v 0.040248 0.030953 1.45958
v 0.03276 0.030941 1.471
v 0.021465 0.030924 1.47868
v 0.008094 0.030916 1.48146
v -0.005326 0.030915 1.4789
v -0.016747 0.030916 1.47141
v -0.024431 0.030922 1.46012
v -0.027206 0.030943 1.44675
v -0.024652 0.030954 1.43333
v -0.017167 0.03094 1.42191
v -0.005866 0.030909 1.41422
v 0.007506 0.030881 1.41145
v 0.020919 0.030872 1.414
v 0.019635 0.021768 1.02535
v 0.0193 0.021261 1.06609
v -0.009977 0.021768 1.02535
v -0.009629 0.021261 1.06609
v -0.02225 -0.001632 1.06609
v -0.022783 -0.001632 1.02535
v 0.004827 -0.001632 1.01036
v 0.032405 -0.001632 1.02535
v 0.031869 -0.001632 1.06609
v -0.009629 -0.024526 1.06609
v -0.009977 -0.025033 1.02535
v 0.019635 -0.025033 1.02535
v 0.0193 -0.024526 1.06609
v 0.004811 -0.046831 -0.50348
v -0.040243 -0.001774 -0.50348
v 0.005035 -0.001845 -0.648129
v 0.021491 0.027302 -0.213356
v 0.037527 -0.001774 -0.213356
v -0.011862 0.027302 -0.213356
v -0.027905 -0.001774 -0.213356
v 0.031219 -0.04782 -0.503875
v 0.060893 -0.001774 -0.503875
v -0.021597 -0.04782 -0.503875
v -0.051268 -0.001774 -0.503875
v -0.021597 0.044271 -0.503875
v 0.031219 0.044271 -0.503875
v -0.02225 -0.001774 -0.264289
v -0.008979 0.022274 -0.264289
v 0.018605 0.022274 -0.264289
v 0.031872 -0.001774 -0.264289
v -0.038517 -0.001774 -0.476665
v -0.015594 -0.037351 -0.476665
v 0.025216 -0.037351 -0.476665
v 0.048143 -0.001774 -0.476665
v 0.049872 -0.001774 -0.50348
v 0.021491 -0.030851 -0.213356
v 0.018605 -0.025823 -0.264289
v -0.011862 -0.030851 -0.213356
v -0.008979 -0.025823 -0.264289
v -0.015594 0.033802 -0.476665
v 0.025216 0.033802 -0.476665
v 0.004811 0.043282 -0.50348
v 0.031154 0.001928 1.27976
v 0.033494 -0.006556 1.28382
v 0.047343 0.001928 1.27606
v 0.046167 -0.006556 1.28043
v 0.059356 0.001928 1.28595
v 0.055543 -0.006556 1.28838
v 0.061901 0.001928 1.30287
v 0.057328 -0.006556 1.30184
v 0.052888 0.001928 1.31474
v 0.050545 -0.006556 1.31069
v 0.04279 0.001928 1.31745
v 0.04279 -0.006556 1.31277
v 0.04279 -0.006556 1.32236
v 0.055345 -0.006556 1.319
v 0.066695 -0.006556 1.30394
v 0.063364 -0.006556 1.2834
v 0.048562 -0.006556 1.27147
v 0.028694 -0.006556 1.2755
vn -0.405237 0 0.914212
vt 0.965915 -0.540931
vn 0.106622 -0.895554 0.43199
vt 0.911109 -0.540931
vn -0.405237 0 0.914212
vt 0.938491 -0.540931
vn -0.405237 0 0.914212
vt 0.911109 -0.540931
vn -0.946832 -0.320599 -0.026919
vt 0.88375 -0.540931
vn 0.986426 0 -0.164204
vt 0.938491 -0.497554
vn 0.063615 -0.777314 -0.625888
vt 0.911109 -0.497554
vn -0.421394 0.224776 -0.87858
vt 0.88375 -0.497554
vn -0.591325 0.737863 -0.325413
vt 0.870026 -0.540931
vn -0.239733 0.584992 -0.774798
vt 0.870026 -0.497554
vn 0.40529 0 -0.914188
vt 0.917089 -0.465605
vn 0.735816 0.589767 -0.33279
vt 0.965915 -0.497554
vn 0.630142 0.738512 0.239836
vt 0.965915 -0.540931
vn 0.934641 0 0.355593
vt 0.938491 -0.540931
vn 0.413979 -9e-06 -0.910286
vt 0.960235 -0.420268
vn 0.413979 -9e-06 -0.910286
vt 0.96271 -0.444411
vn 0.413979 -9e-06 -0.910286
vt 0.96271 -0.444411
vn 0.62619 -0.733089 0.265455
vt 0.877304 -0.414905
vn 0.632939 -0.722431 0.278354
vt 0.943858 -0.414905
vn 0.632939 -0.722431 0.278354
vt 0.877304 -0.465427
vn 0.639482 -0.711539 0.291161
vt 0.943858 -0.465427
vn -0.619927 0.732229 -0.282013
vt 0.933736 -0.465427
vn -0.626141 0.721952 -0.294503
vt 0.877304 -0.414905
vn -0.626141 0.721952 -0.294503
vt 0.943858 -0.465427
vn -0.632168 0.711458 -0.306904
vt 0.943858 -0.414905
vn 0.64595 0.712596 0.273781
vt 0.943858 -0.414905
vn 0.632114 0.723474 0.277521
vt 0.877304 -0.414905
vn 0.632114 0.723474 0.277521
vt 0.943858 -0.465427
vn 0.618074 0.734117 0.28117
vt 0.933736 -0.465427
vn -0.61188 -0.733031 -0.297101
vt 0.877304 -0.414905
vn -0.625216 -0.722991 -0.293921
vt 0.877304 -0.465427
vn -0.625216 -0.722991 -0.293921
vt 0.943858 -0.414905
vn -0.638371 -0.712742 -0.290656
vt 0.943858 -0.465427
vn 0.413979 -9e-06 -0.910286
vt 0.960235 -0.420268
vn -0.171304 0.793421 0.58407
vt 0.682564 -0.0363899
vn -0.159304 0.789958 0.592106
vt 0.716525 -0.0363899
vn -0.159304 0.789958 0.592106
vt 0.682564 -0.00153995
vn -0.14727 0.78632 0.60001
vt 0.716525 -0.00153995
vn 0.317771 0.663577 -0.677265
vt 0.597661 -0.0363899
vn 0.307456 0.660692 -0.684804
vt 0.597661 -0.00153995
vn 0.360918 0.262566 -0.894873
vt 0.614642 -0.0363899
vn 0.297633 -0.353933 -0.886649
vt 0.614642 -0.00153995
vn 0.03381 -0.951184 -0.306767
vt 0.648603 -0.0363899
vn -0.170796 -0.955384 0.240978
vt 0.648603 -0.00153995
vn -0.285087 -0.740619 0.608447
vt 0.682564 -0.0363899
vn -0.271488 -0.74448 0.609954
vt 0.682564 -0.00153995
vn -0.678625 -0.415635 -0.605571
vt 0.716525 -0.0363899
vn -0.65367 -0.145803 -0.742601
vt 0.682564 -0.0363899
vn -0.612535 -0.459069 -0.643472
vt 0.716525 -0.018482
vn -0.612653 0.189697 -0.767249
vt 0.682564 -0.018482
vn -0.714218 0.538976 -0.446539
vt 0.648603 -0.0363899
vn -0.840478 0.526055 -0.129859
vt 0.648603 -0.018482
vn -0.961748 0.208028 0.178226
vt 0.614642 -0.0363899
vn -0.976049 -0.107239 0.189284
vt 0.614642 -0.018482
vn -0.904665 -0.392647 0.165557
vt 0.597661 -0.0363899
vn -0.906913 -0.388761 0.162398
vt 0.597661 -0.018482
vn 0.872415 -0.478984 -0.097294
vt 0.716525 -0.018482
vn 0.959125 -0.230149 -0.164651
vt 0.682564 -0.018482
vn 0.835591 -0.531905 -0.137347
vt 0.716525 -0.00153995
vn 0.982052 0.104264 -0.15717
vt 0.682564 -0.00153995
vn 0.875315 0.456571 0.15927
vt 0.648603 -0.018482
vn 0.753112 0.463653 0.466742
vt 0.648603 -0.00153995
vn 0.626626 0.15587 0.763574
vt 0.614642 -0.018482
vn 0.596556 -0.159734 0.786515
vt 0.614642 -0.00153995
vn 0.530081 -0.452676 0.717006
vt 0.597661 -0.018482
vn 0.524575 -0.454564 0.719856
vt 0.597661 -0.00153995
vn -0.553003 -0.813857 0.178393
vt 0.809803 -0.297854
vn -0.621359 -0.782167 0.046131
vt 0.84075 -0.297854
vn -0.929267 -0.270639 -0.251429
vt 0.786007 -0.232823
vn -0.578326 -0.784326 -0.224435
vt 0.844629 -0.21318
vn -0.506505 -0.857425 0.090963
vt 0.826794 -0.00596702
vn 0.031402 -0.888468 0.457863
vt 0.855061 -0.092122
vn -0.543351 -0.839504 -0.001736
vt 0.793894 -0.092492
vn 0.112583 -0.952028 0.284549
vt 0.853841 -0.145846
vn -0.890382 0.199209 -0.409312
vt 0.793684 -0.147641
vn -0.662835 0.717652 -0.213603
vt 0.738541 -0.232823
vn -0.836371 0.542229 -0.080448
vt 0.786007 -0.304314
vn -0.90608 0.422594 -0.020803
vt 0.738541 -0.304314
vn -0.903801 0.427772 -0.012469
vt 0.786007 -0.331307
vn -0.895217 0.445261 -0.018155
vt 0.738541 -0.331307
vn -0.700707 0.712806 0.030291
vt 0.765504 -0.00687802
vn -0.666875 0.742396 -0.064231
vt 0.793894 -0.092492
vn -0.602505 0.79094 -0.106778
vt 0.738541 -0.0919
vn -0.455499 0.86872 -0.194543
vt 0.738541 -0.147641
vn 0.566014 -0.548973 0.615026
vt 0.889638 -0.00596702
vn 0.5649 0.136347 0.813816
vt 0.926479 -0.0925781
vn 0.715879 0.053924 0.696139
vt 0.928143 -0.15647
vn 0.960776 -0.031257 0.275558
vt 0.911204 -0.209534
vn 0.464474 0.821416 0.330966
vt 0.992538 -0.147641
vn 0.516091 0.856213 0.023449
vt 0.955472 -0.256113
vn 0.3691 0.926601 -0.071941
vt 0.992538 -0.256113
vn 0.453169 0.882908 -0.122932
vt 0.992538 -0.317811
vn 0.417044 0.898173 -0.139138
vt 0.955472 -0.317811
vn 0.503617 0.854919 -0.124433
vt 0.955472 -0.363603
vn 0.581271 0.808397 -0.092841
vt 0.992538 -0.363603
vn 0.995526 -0.092202 0.020637
vt 0.903338 -0.304314
vn 0.840214 -0.521633 0.148123
vt 0.856757 -0.304314
vn 0.541365 -0.817117 0.198098
vt 0.85814 -0.209534
vn 0.630805 0.751001 0.195145
vt 0.913237 -0.256113
vn 0.605739 0.750941 0.262998
vt 0.955472 -0.304314
vn 0.586932 0.763453 0.269536
vt 0.913821 -0.304314
vn 0.331557 0.79356 0.510228
vt 0.958908 -0.00596702
vn 0.304324 0.782265 0.543552
vt 0.992538 -0.0919
vn -0.519267 -0.829173 -0.206966
vt 0.867723 -0.00892901
vn 0.318019 -0.924165 0.211621
vt 0.935797 -0.080591
vn -0.556974 -0.81186 -0.175111
vt 0.868744 -0.080591
vn 0.184296 0.622775 0.760385
vt 0.867723 -0.00892901
vn 0.721222 -0.518537 0.459302
vt 0.992182 -0.080591
vn 0.846003 -0.517309 0.129111
vt 0.992182 -0.186065
vn -0.032613 -0.996065 -0.082412
vt 0.935797 -0.186181
vn -0.604474 -0.785151 -0.134721
vt 0.868744 -0.186181
vn -0.626712 -0.772286 -0.103954
vt 0.905213 -0.363603
vn 0.868342 -0.491329 -0.067663
vt 0.968746 -0.363603
vn -0.395083 0.887064 -0.238801
vt 0.837405 -0.363603
vn 0.247903 0.950786 -0.185876
vt 0.804694 -0.186181
vn -0.430663 0.866975 -0.250766
vt 0.868744 -0.186181
vn 0.078561 0.995242 0.057637
vt 0.804694 -0.080591
vn -0.569833 0.800452 -0.185922
vt 0.868744 -0.080591
vn 0.6088 0.672632 0.42063
vt 0.747343 -0.080591
vn 0.796916 0.603438 0.028056
vt 0.747035 -0.186181
vn 0.837218 0.516982 -0.178315
vt 0.77459 -0.363603
vn 0.940413 -0.117203 0.319196
vt 0.786007 -0.232823
vn 0.547925 0.823788 0.145436
vt 0.844629 -0.21318
vn 0.560723 0.827981 -0.006066
vt 0.809803 -0.297854
vn 0.378635 0.925424 -0.015005
vt 0.84075 -0.297854
vn 0.895318 -0.445375 0.006896
vt 0.786007 -0.331307
vn 0.903673 -0.42809 0.010654
vt 0.738541 -0.331307
vn 0.896068 -0.427471 0.119713
vt 0.786007 -0.304314
vn 0.823733 -0.54701 0.149143
vt 0.738541 -0.304314
vn 0.559283 -0.796535 0.229639
vt 0.738541 -0.232823
vn 0.890382 -0.199209 0.409312
vt 0.793684 -0.147641
vn -0.112583 0.952028 -0.284549
vt 0.853841 -0.145846
vn 0.543351 0.839504 0.001736
vt 0.793894 -0.092492
vn -0.031402 0.888468 -0.457863
vt 0.855061 -0.092122
vn 0.506505 0.857425 -0.090963
vt 0.826794 -0.00596702
vn 0.455499 -0.86872 0.194543
vt 0.738541 -0.147641
vn 0.602505 -0.79094 0.106778
vt 0.738541 -0.0919
vn 0.666875 -0.742396 0.064231
vt 0.793894 -0.092492
vn 0.700707 -0.712806 -0.030291
vt 0.765504 -0.00687802
vn -0.566494 -0.808174 0.161057
vt 0.955472 -0.363603
vn -0.488319 -0.862926 0.13001
vt 0.992538 -0.363603
vn -0.445742 -0.886223 0.126183
vt 0.955472 -0.317811
vn -0.408176 -0.90652 0.107768
vt 0.992538 -0.317811
vn -0.384445 -0.918765 0.08985
vt 0.992538 -0.256113
vn -0.54799 -0.831895 -0.087513
vt 0.955472 -0.256113
vn -0.501116 -0.823737 -0.265218
vt 0.992538 -0.147641
vn -0.960776 0.031257 -0.275558
vt 0.911204 -0.209534
vn -0.651816 -0.259625 -0.712552
vt 0.928143 -0.15647
vn -0.592552 0.034362 -0.804799
vt 0.926479 -0.0925781
vn -0.566014 0.548973 -0.615026
vt 0.889638 -0.00596702
vn -0.31419 -0.772625 -0.551665
vt 0.992538 -0.0919
vn -0.331557 -0.79356 -0.510228
vt 0.958908 -0.00596702
vn -0.598261 -0.760756 -0.251665
vt 0.955472 -0.304314
vn -0.609936 -0.749099 -0.258513
vt 0.913821 -0.304314
vn -0.649965 -0.742546 -0.161778
vt 0.913237 -0.256113
vn -0.995526 0.092202 -0.020637
vt 0.903338 -0.304314
vn -0.840214 0.521633 -0.148123
vt 0.856757 -0.304314
vn -0.541365 0.817117 -0.198098
vt 0.85814 -0.209534
vn 0.0763 0.992139 -0.099191
vt 0.935797 -0.080591
vn -0.752025 0.539901 -0.378107
vt 0.992182 -0.080591
vn -0.868342 0.491329 0.067663
vt 0.968746 -0.363603
vn -0.837069 0.540399 -0.085342
vt 0.992182 -0.186065
vn -0.384733 0.922239 -0.038162
vt 0.935797 -0.186181
vn 0.59332 0.792719 0.139888
vt 0.868744 -0.186181
vn 0.542219 0.820159 0.182588
vt 0.868744 -0.080591
vn 0.626712 0.772286 0.103954
vt 0.905213 -0.363603
vn 0.395083 -0.887064 0.238801
vt 0.837405 -0.363603
vn 0.403478 -0.88608 0.228182
vt 0.868744 -0.186181
vn -0.229749 -0.963037 0.140622
vt 0.804694 -0.186181
vn 0.51066 -0.834461 0.207128
vt 0.868744 -0.080591
vn -0.018583 -0.991508 -0.128713
vt 0.804694 -0.080591
vn -0.650034 -0.690968 -0.316257
vt 0.747343 -0.080591
vn -0.778962 -0.626606 0.024156
vt 0.747035 -0.186181
vn -0.837218 -0.516982 0.178315
vt 0.77459 -0.363603
vn -0.877606 -0.479383 0
vt 0.999183 -0.90148
vn -0.984267 -0.176687 -0.000466
vt 0.002281 -0.90148
vn -0.678153 -0.734919 -0.001575
vt 0.999183 -0.926004
vn -0.314823 -0.949149 -0.001542
vt 0.002281 -0.926004
vn 0.363588 -0.931559 -0.001207
vt 0.999183 -0.973866
vn 0.690955 -0.722898 -0.000131
vt 0.002281 -0.975462
vn 0.882305 -0.470677 -0.000254
vt 0.999183 -0.99838
vn 1 0 0
vt 0.002281 -0.99838
vn -0.660237 0.751055 0.001873
vt 0.002281 -0.926004
vn -0.887207 0.46137 0.000778
vt 0.999183 -0.90148
vn -0.304109 0.952636 0.001746
vt 0.999183 -0.926004
vn 0.533298 0.845927 0.001025
vt 0.002281 -0.975462
vn 0.510868 0.859659 0.000192
vt 0.999183 -0.973866
vn 0.882305 0.470677 0.000289
vt 0.999183 -0.99838
vn 0.672613 0.739995 -0.000114
vt 0.999183 -0.973866
vn -0.304109 0.952636 -0.001537
vt 0.999183 -0.926004
vn 0.533298 -0.845927 0.001052
vt 0.999183 -0.973866
vn -0.678153 -0.734918 0.001789
vt 0.999183 -0.926004
vn -0.997493 0 0.07076
vt 0.373883 -0.212001
vn -0.997493 0 0.07076
vt 0.373883 -0.212001
vn -0.997493 0 0.07076
vt 0.363337 -0.148209
vn 0.001616 0.818713 0.574201
vt 0.093051 -0.049826
vn 0.001616 0.818713 0.574201
vt 0.234549 -0.049816
vn 0.001616 0.818713 0.574201
vt 0.025064 -0.015236
vn 0.001965 0.817674 0.575678
vt 0.282313 -0.015377
vn 0.999751 0 0.022329
vt 0.675963 -0.206996
vn 0.999751 0 0.022329
vt 0.693172 -0.179343
vn 0.97798 0 0.208697
vt 0.677348 -0.286402
vn 0.97798 0 0.208697
vt 0.693702 -0.284108
vn 0.904921 0 0.425581
vt 0.729531 -0.372939
vn 0.886475 0 0.462777
vt 0.715678 -0.379582
vn 0.906859 0 0.421434
vt 0.784805 -0.468967
vn 0.940466 0 0.339886
vt 0.766848 -0.468212
vn 0.966583 0 0.256352
vt 0.805745 -0.591348
vn 0.966583 0 0.256352
vt 0.788622 -0.550183
vn 0.999998 0 -0.002152
vt 0.496023 -0.494982
vn 0.999998 0 -0.002152
vt 0.482737 -0.449593
vn 0.768547 0 -0.639793
vt 0.482737 -0.449593
vn 0.183446 0 -0.98303
vt 0.482737 -0.449593
vn -0.02595 0 -0.999663
vt 0.580343 -0.430557
vn -0.02595 0 -0.999663
vt 0.575861 -0.446484
vn -0.368881 0 -0.929477
vt 0.651024 -0.46506
vn -0.368881 0 -0.929477
vt 0.658845 -0.449235
vn -0.568127 0 -0.822941
vt 0.721919 -0.485086
vn -0.636434 0 -0.771331
vt 0.714625 -0.498898
vn -0.699632 0 -0.714503
vt 0.788622 -0.550183
vn -0.699632 0 -0.714503
vt 0.805745 -0.591348
vn 0.816045 0.474124 -0.33057
vt 0.996487 -0.74704
vn 0.462446 0.803263 -0.375383
vt 0.996487 -0.798132
vn 0.003895 0.883404 -0.468597
vt 0.846465 -0.82002
vn -0.456382 0.803767 -0.381673
vt 0.996487 -0.841241
vn -0.807684 0.479133 -0.343625
vt 0.996487 -0.894337
vn -0.776385 0 -0.630259
vt 0.361335 -0.456646
vn -0.776385 0 -0.630259
vt 0.37802 -0.487359
vn -0.776385 0 -0.630259
vt 0.361335 -0.456646
vn 0.335696 0 0.94197
vt 0.373883 -0.212001
vn 0.509642 0 0.860386
vt 0.334416 -0.197767
vn 0.335696 0 0.94197
vt 0.373883 -0.212001
vn 0.670455 0 0.74195
vt 0.345006 -0.188366
vn 0.894454 0 0.447161
vt 0.308264 -0.162994
vn 0.961759 0 0.273898
vt 0.316749 -0.156185
vn 0.995252 0 0.097329
vt 0.303559 -0.115088
vn 0.995252 0 0.097329
vt 0.311424 -0.104998
vn 0.999893 0 0.01461
vt 0.516684 -0.150552
vn 0.836934 0 0.547304
vt 0.49978 -0.224281
vn 0.999893 0 0.01461
vt 0.50256 -0.235997
vn -0.697057 0 0.717016
vt 0.675963 -0.206996
vn -0.697057 0 0.717016
vt 0.693172 -0.179343
vn -0.604209 0 0.796826
vt 0.633387 -0.248506
vn -0.50067 0 0.865638
vt 0.640705 -0.224656
vn -0.186914 0 0.982376
vt 0.592541 -0.265976
vn -0.186914 0 0.982376
vt 0.597652 -0.247795
vn 0.364723 0 0.931116
vt 0.546589 -0.246336
vn 0.364723 0 0.931116
vt 0.545955 -0.264908
vn 0.660023 0 0.751245
vt 0.517078 -0.227207
vn -0.272032 0 0.962288
vt 0.303559 -0.115088
vn 0.020283 0 0.999794
vt 0.261026 -0.127246
vn -0.272032 0 0.962288
vt 0.311424 -0.104998
vn 0.339981 0 0.940432
vt 0.26622 -0.109299
vn 0.910083 0 0.414426
vt 0.230524 -0.104509
vn 0.910083 0 0.414426
vt 0.24533 -0.095022
vn 0.935578 0 -0.353119
vt 0.248059 -0.055342
vn 0.868516 0 -0.49566
vt 0.234549 -0.049816
vn 0.570482 0 -0.82131
vt 0.282313 -0.015377
vn 0.003891 -0.884127 -0.467231
vt 0.846465 -0.82002
vn -0.45659 -0.804285 -0.38033
vt 0.996487 -0.841241
vn 0.462648 -0.803775 -0.374035
vt 0.996487 -0.798132
vn 0.001616 -0.818713 0.574201
vt 0.093051 -0.049826
vn 0.001616 -0.818713 0.574201
vt 0.234549 -0.049816
vn 0.001616 -0.818713 0.574201
vt 0.025064 -0.015236
vn 0.001965 -0.817675 0.575677
vt 0.282313 -0.015377
vn 0.641996 0 -0.766708
vt 0.174992 -0.634298
vn 0.584311 0 -0.81153
vt 0.189216 -0.652578
vn 0.440348 0 -0.897827
vt 0.095529 -0.68547
vn 0.440348 0 -0.897827
vt 0.108728 -0.703037
vn 0.290018 0 -0.957021
vt 0.051549 -0.71775
vn 0.257959 0 -0.966156
vt 0.046963 -0.707391
vn 0.160498 0 -0.987036
vt 0.019474 -0.711771
vn 0.982473 0 -0.186404
vt 0.368003 -0.475265
vn 0.982473 0 -0.186404
vt 0.361335 -0.456646
vn 0.841772 0 -0.539833
vt 0.362605 -0.518097
vn 0.841772 0 -0.539833
vt 0.348431 -0.509303
vn 0.291798 0 -0.95648
vt 0.312202 -0.531969
vn 0.291798 0 -0.95648
vt 0.324179 -0.544188
vn 0.440348 0 -0.897827
vt 0.29057 -0.551899
vn 0.440348 0 -0.897827
vt 0.273205 -0.529753
vn 0.771131 0 -0.636676
vt 0.231612 -0.58629
vn 0.734624 0 -0.678474
vt 0.245602 -0.604584
vn 0.352607 0.925107 0.140874
vt 0.994425 -0.589815
vn 0.481809 0.872763 0.07839
vt 0.963887 -0.621825
vn 0.534292 0.831089 -0.154349
vt 0.931717 -0.609872
vn 0.589608 0.7865 -0.183796
vt 0.931717 -0.628456
vn 0.499405 0.843457 -0.197927
vt 0.914218 -0.627063
vn 0.416466 0.909149 -0.002098
vt 0.884055 -0.577967
vn 0.403762 0.905455 0.130872
vt 0.874497 -0.626517
vn 0.446302 0.892508 0.065145
vt 0.832323 -0.60512
vn 0.483894 0.87509 0.008034
vt 0.710469 -0.625913
vn 0.526834 0.848816 0.044248
vt 0.704262 -0.602423
vn 0.010281 0.996136 0.08722
vt 0.545146 -0.654123
vn 0.011958 0.985436 0.169626
vt 0.40177 -0.654123
vn -0.50988 0.859043 0.045476
vt 0.704262 -0.709967
vn -0.466579 0.884439 0.008454
vt 0.710469 -0.684699
vn -0.431674 0.899758 0.063981
vt 0.832323 -0.707235
vn -0.392216 0.9109 0.128169
vt 0.874285 -0.685413
vn -0.446998 0.889313 -0.09651
vt 0.884055 -0.734373
vn -0.446998 0.889313 -0.09651
vt 0.91385 -0.685095
vn -0.47232 0.866514 -0.161454
vt 0.931717 -0.685138
vn -0.578242 0.812537 -0.073617
vt 0.931717 -0.702454
vn -0.374391 0.925297 0.060461
vt 0.994871 -0.722484
vn -0.153644 0.982024 -0.109644
vt 0.964514 -0.690309
vn -0.391289 0.918967 -0.048913
vt 0.173414 -0.326593
vn -0.343513 0.938721 -0.028332
vt 0.224474 -0.407606
vn -0.264368 0.964388 0.008089
vt 0.169295 -0.397094
vn -0.211451 0.97682 0.033337
vt 0.204258 -0.491345
vn -0.169045 0.983858 0.058722
vt 0.161622 -0.467595
vn -0.165753 0.982483 0.085163
vt 0.176093 -0.559598
vn -0.189035 0.976985 0.098819
vt 0.132934 -0.534255
vn -0.194852 0.972779 0.125433
vt 0.139182 -0.616591
vn -0.208777 0.968659 0.134581
vt 0.104247 -0.600916
vn -0.202413 0.968484 0.145148
vt 0.098548 -0.656187
vn -0.200465 0.968886 0.145168
vt 0.019474 -0.711771
vn -0.437663 0.80564 -0.399243
vt 0.025064 -0.015236
vn -0.435717 0.806231 -0.400178
vt 0.093051 -0.049826
vn -0.432373 0.825285 -0.363261
vt 0.087975 -0.087293
vn -0.437882 0.841274 -0.317045
vt 0.139958 -0.103407
vn -0.439246 0.861474 -0.254804
vt 0.118371 -0.145792
vn -0.450713 0.864524 -0.222385
vt 0.178171 -0.165426
vn -0.438457 0.881225 -0.176631
vt 0.148767 -0.204291
vn -0.430667 0.895914 -0.10892
vt 0.213282 -0.245058
vn -0.427998 0.899584 -0.086986
vt 0.165533 -0.262774
vn -0.406316 0.910994 -0.0707
vt 0.22521 -0.32469
vn -0.336818 -0.931904 0.134568
vt 0.994871 -0.722484
vn -0.459593 -0.885475 0.068619
vt 0.964514 -0.690309
vn -0.510317 -0.846268 -0.152994
vt 0.931717 -0.702454
vn -0.56253 -0.805728 -0.185368
vt 0.931717 -0.685138
vn -0.478902 -0.856902 -0.190715
vt 0.91385 -0.685095
vn -0.400333 -0.916369 -0.000965
vt 0.884055 -0.734373
vn -0.387175 -0.913185 0.127234
vt 0.875885 -0.684581
vn -0.426709 -0.902182 0.063146
vt 0.832323 -0.707235
vn -0.466171 -0.884639 0.009939
vt 0.694857 -0.681811
vn -0.511173 -0.858194 0.046955
vt 0.704262 -0.709967
vn 0.274481 -0.952854 0.129343
vt 0.545146 -0.654123
vn 0.011954 -0.985541 0.169016
vt 0.40177 -0.654123
vn 0.537687 -0.841062 0.059229
vt 0.704262 -0.602423
vn 0.571538 -0.810933 0.125427
vt 0.832323 -0.60512
vn 0.875055 -0.470575 0.113302
vt 0.695297 -0.628502
vn 0.43938 -0.892458 0.102296
vt 0.884185 -0.631432
vn 0.412088 -0.91114 -0.002683
vt 0.915382 -0.628958
vn 0.494689 -0.846323 -0.197536
vt 0.884055 -0.577967
vn 0.486703 -0.858286 -0.162685
vt 0.931717 -0.626828
vn 0.591031 -0.803157 -0.074977
vt 0.931717 -0.609872
vn 0.388083 -0.919053 0.068799
vt 0.994425 -0.589815
vn 0.168359 -0.980809 -0.098331
vt 0.963887 -0.621825
vn -0.381233 -0.923148 -0.049594
vt 0.22521 -0.32469
vn -0.34591 -0.938262 -0.003298
vt 0.169295 -0.397094
vn -0.279286 -0.960105 -0.014083
vt 0.224474 -0.407606
vn -0.225561 -0.973768 0.029972
vt 0.161622 -0.467595
vn -0.184442 -0.982315 0.032234
vt 0.204258 -0.491345
vn -0.176673 -0.980442 0.086716
vt 0.132934 -0.534255
vn -0.167528 -0.981589 0.091742
vt 0.176093 -0.559598
vn -0.184352 -0.975835 0.117302
vt 0.139182 -0.616591
vn -0.194954 -0.97255 0.127042
vt 0.104247 -0.600916
vn -0.189422 -0.972178 0.137804
vt 0.098548 -0.656187
vn -0.189422 -0.972178 0.137804
vt 0.019474 -0.711771
vn -0.437662 -0.805641 -0.399243
vt 0.025064 -0.015236
vn -0.480913 -0.791264 -0.377655
vt 0.087975 -0.087293
vn -0.443203 -0.818725 -0.365049
vt 0.093051 -0.049826
vn -0.457901 -0.832932 -0.310728
vt 0.118371 -0.145792
vn -0.423017 -0.86425 -0.272265
vt 0.139958 -0.103407
vn -0.463983 -0.861171 -0.207618
vt 0.148767 -0.204291
vn -0.437623 -0.880005 -0.184599
vt 0.178171 -0.165426
vn -0.443733 -0.887973 -0.120854
vt 0.165533 -0.262774
vn -0.416037 -0.904244 -0.096211
vt 0.213282 -0.245058
vn -0.41873 -0.907145 -0.041871
vt 0.173414 -0.326593
vn 0.475001 -0.776666 0.413719
vt 0.409274 -0.303364
vn 0.456874 -0.86386 0.21216
vt 0.429801 -0.322694
vn 0.600571 -0.775599 0.194319
vt 0.429801 -0.299281
vn 0.505282 -0.862873 0.011865
vt 0.441368 -0.324995
vn 0.626206 -0.777989 -0.050985
vt 0.450328 -0.303364
vn 0.471843 -0.863007 -0.180508
vt 0.451174 -0.331547
vn 0.557617 -0.779888 -0.28432
vt 0.46773 -0.314992
vn 0.369541 -0.863231 -0.343905
vt 0.457727 -0.341353
vn 0.407384 -0.780258 -0.474589
vt 0.479357 -0.332394
vn 0.212144 -0.863339 -0.457865
vt 0.460027 -0.35292
vn 0.195775 -0.780241 -0.594051
vt 0.48344 -0.35292
vn 0.023295 -0.863396 -0.503989
vt 0.457727 -0.364488
vn 0.278842 -0.779211 0.561318
vt 0.391873 -0.314992
vn 0.333889 -0.863995 0.37687
vt 0.418234 -0.324995
vn 0.000359 -1 9.7e-05
vt 0.429801 -0.35292
vn -0.164785 -0.863589 -0.476507
vt 0.451174 -0.374294
vn -0.332914 -0.864054 -0.377597
vt 0.441368 -0.380846
vn -0.457266 -0.863626 -0.212268
vt 0.429801 -0.383147
vn -0.505166 -0.862952 -0.011026
vt 0.418234 -0.380846
vn -0.471531 -0.862897 0.181846
vt 0.408428 -0.374294
vn -0.36951 -0.863648 0.342891
vt 0.401876 -0.364488
vn -0.212005 -0.863892 0.456886
vt 0.399575 -0.35292
vn -0.023458 -0.863892 0.50313
vt 0.401876 -0.341353
vn 0.166492 -0.863946 0.475267
vt 0.408428 -0.331547
vn -0.626559 -0.777636 0.052021
vt 0.409274 -0.402476
vn -0.557286 -0.780509 0.283261
vt 0.391873 -0.390849
vn -0.407048 -0.781286 0.473184
vt 0.380245 -0.373447
vn -0.195393 -0.781314 0.592764
vt 0.376162 -0.35292
vn 0.044812 -0.780843 0.623117
vt 0.380245 -0.332394
vn -0.044456 -0.780178 -0.623976
vt 0.479357 -0.373447
vn -0.277199 -0.778746 -0.562774
vt 0.46773 -0.390849
vn -0.476017 -0.775846 -0.414091
vt 0.450328 -0.402476
vn -0.600941 -0.775087 -0.195219
vt 0.429801 -0.406559
vn -0.449521 0.863861 0.22732
vt 0.408428 -0.374294
vn 0.000359 1 9.7e-05
vt 0.429801 -0.35292
vn -0.50172 0.864115 0.039776
vt 0.418234 -0.380846
vn -0.476324 0.863643 -0.165033
vt 0.429801 -0.383147
vn -0.370779 0.862957 -0.343262
vt 0.441368 -0.380846
vn -0.212263 0.862744 -0.458931
vt 0.451174 -0.374294
vn -0.02693 0.863282 -0.504003
vt 0.457727 -0.364488
vn 0.165636 0.863356 -0.476634
vt 0.460027 -0.35292
vn 0.333383 0.863373 -0.37874
vt 0.457727 -0.341353
vn 0.450358 0.863662 -0.226418
vt 0.451174 -0.331547
vn 0.465707 0.780043 -0.417912
vt 0.479357 -0.332394
vn 0.590838 0.778899 -0.210302
vt 0.46773 -0.314992
vn 0.502225 0.86386 -0.038925
vt 0.441368 -0.324995
vn 0.476018 0.863823 0.164975
vt 0.429801 -0.322694
vn 0.371467 0.862947 0.34254
vt 0.418234 -0.324995
vn 0.213697 0.863164 0.457473
vt 0.408428 -0.331547
vn 0.026825 0.863609 0.503448
vt 0.401876 -0.341353
vn -0.165426 0.863878 0.475761
vt 0.399575 -0.35292
vn -0.333223 0.863885 0.377711
vt 0.401876 -0.364488
vn 0.629278 0.776499 0.032519
vt 0.450328 -0.303364
vn 0.566896 0.775656 0.277465
vt 0.429801 -0.299281
vn 0.41471 0.778242 0.471546
vt 0.409274 -0.303364
vn 0.20354 0.780381 0.591251
vt 0.391873 -0.314992
vn -0.036426 0.781263 0.623138
vt 0.380245 -0.332394
vn -0.271649 0.781332 0.561896
vt 0.376162 -0.35292
vn -0.465462 0.780931 0.416523
vt 0.380245 -0.373447
vn -0.590409 0.779054 0.210933
vt 0.391873 -0.390849
vn -0.629988 0.775886 -0.033393
vt 0.409274 -0.402476
vn -0.567788 0.775066 -0.27729
vt 0.429801 -0.406559
vn -0.414027 0.777494 -0.473375
vt 0.450328 -0.402476
vn -0.203145 0.780027 -0.591853
vt 0.46773 -0.390849
vn 0.036974 0.780349 -0.62425
vt 0.479357 -0.373447
vn 0.272228 0.780209 -0.563175
vt 0.48344 -0.35292
vn 0.429576 0.727968 -0.534347
vt 0.25207 -0.855521
vn 0.509777 0.860186 0.014409
vt 0.389709 -0.855521
vn -0.47539 0.806024 -0.352605
vt 0.25207 -0.783073
vn -0.50848 0.860942 0.015049
vt 0.389709 -0.783073
vn -0.87642 0.481385 0.01248
vt 0.389709 -0.748234
vn -0.768762 0.420713 -0.481669
vt 0.25207 -0.748234
vn 0.000174 0.379915 -0.925021
vt 0.207171 -0.819542
vn 0.833924 0.456181 -0.310596
vt 0.25207 -0.891833
vn 0.876521 0.481225 0.011535
vt 0.389709 -0.891833
vn -0.666041 -0.74578 0.014195
vt 0.389709 -0.783073
vn -0.343015 -0.838303 -0.42378
vt 0.25207 -0.783073
vn 0.568045 -0.705261 -0.424184
vt 0.25207 -0.855521
vn 0.333067 -0.942792 0.014466
vt 0.389709 -0.855521
vn -0.690462 -0.690432 -0.215791
vt 0.053845 -0.544922
vn -0.690462 -0.690432 -0.215791
vt 0.106314 -0.544922
vn -0.690462 -0.690432 -0.215791
vt 0.053845 -0.125562
vn 0 0 1
vt 0.075101 -0.807076
vn 0 0 1
vt 0.060883 -0.841401
vn 0 0 1
vt 0.143751 -0.807076
vn 0 0 1
vt 0.157968 -0.841401
vn 0 0 -1
vt 0.137894 -0.811198
vn 0 0 -1
vt 0.153441 -0.839529
vn 0 0 -1
vt 0.079309 -0.811198
vn 0 0 -1
vt 0.063763 -0.839529
vn 0 0 -1
vt 0.079309 -0.811198
vn 0 0 -1
vt 0.137894 -0.811198
vn -0.871464 0.480819 -0.096762
vt 0.221313 -0.893349
vn -0.871464 0.480819 -0.096762
vt 0.385484 -0.893349
vn -0.661018 0.742164 -0.110671
vt 0.221313 -0.856977
vn -0.3305 0.937228 -0.111232
vt 0.385484 -0.856977
vn 0.330559 0.937205 -0.111254
vt 0.221312 -0.784236
vn 0.661087 0.742099 -0.110692
vt 0.385484 -0.784236
vn 0.87151 0.480727 -0.096803
vt 0.22131 -0.747842
vn 0.87151 0.480727 -0.096803
vt 0.385484 -0.747842
vn -0.782104 -0.503973 0.366502
vt 0.941302 -0.895154
vn -0.782104 -0.503973 0.366502
vt 0.998882 -0.895154
vn -0.436949 -0.802967 0.405364
vt 0.941302 -0.859222
vn -0.436949 -0.802967 0.405364
vt 0.998882 -0.859222
vn 0.287349 -0.870985 0.398517
vt 0.998882 -0.78461
vn 0.574691 -0.713261 0.401234
vt 0.941302 -0.78461
vn 0.782087 -0.504014 0.366484
vt 0.998882 -0.748713
vn 0.782087 -0.504014 0.366484
vt 0.941302 -0.748713
vn 0.690726 -0.690799 -0.213764
vt 0.053845 -0.125562
vn 0.690726 -0.690799 -0.213764
vt 0.001376 -0.544922
vn 0.690726 -0.690799 -0.213764
vt 0.053845 -0.544922
vn 0.661086 -0.742099 -0.110697
vt 0.221312 -0.784236
vn 0.330525 -0.937217 -0.111254
vt 0.385484 -0.784236
vn -0.330517 -0.937223 -0.111233
vt 0.221313 -0.856977
vn -0.661018 -0.742164 -0.110668
vt 0.385484 -0.856977
vn -0.782104 0.503973 0.366502
vt 0.941302 -0.895154
vn -0.782104 0.503973 0.366502
vt 0.998882 -0.895154
vn -0.574719 0.713235 0.401239
vt 0.941302 -0.859222
vn -0.287365 0.870979 0.398519
vt 0.998882 -0.859222
vn 0.287345 0.870987 0.398516
vt 0.941302 -0.78461
vn 0.57469 0.713261 0.401236
vt 0.998882 -0.78461
vn 0.782086 0.504013 0.366487
vt 0.941302 -0.748713
vn 0.782086 0.504013 0.366487
vt 0.998882 -0.748713
vn 0 0 1
vt 0.143751 -0.807076
vn 0 0 1
vt 0.075101 -0.807076
vn -0.690361 0.690331 -0.216437
vt 0.053845 -0.125562
vn -0.690361 0.690331 -0.216437
vt 0.106314 -0.544922
vn -0.690361 0.690331 -0.216437
vt 0.053845 -0.544922
vn 0.690625 0.690699 -0.21441
vt 0.053845 -0.544922
vn 0.690625 0.690699 -0.21441
vt 0.001376 -0.544922
vn 0.690625 0.690699 -0.21441
vt 0.053845 -0.125562
vn 0.197118 0.466436 0.862312
vt 0.627271 -0.0744801
vn 0.215882 0.442976 0.870154
vt 0.627271 -0.084973
vn -0.050557 0.476786 0.877564
vt 0.646189 -0.0744801
vn -0.331056 0.474467 0.815649
vt 0.646189 -0.084973
vn -0.711941 0.464194 0.526939
vt 0.671412 -0.0744801
vn -0.819408 0.472232 0.324912
vt 0.671412 -0.084973
vn -0.874222 0.474656 -0.102165
vt 0.69033 -0.0744801
vn -0.808854 0.479824 -0.339888
vt 0.69033 -0.084973
vn -0.570159 0.475596 -0.669871
vt 0.702942 -0.0744801
vn -0.402694 0.48286 -0.777614
vt 0.702942 -0.084973
vn -0.228415 0.470428 -0.852364
vt 0.715553 -0.0744801
vn -0.228415 0.470428 -0.852364
vt 0.715553 -0.084973
vn 0.000359 -1 9.7e-05
vt 0.715553 -0.09237
vn 0.000359 -1 9.7e-05
vt 0.715553 -0.084973
vn 0.000359 -1 9.7e-05
vt 0.702942 -0.09237
vn 0.000359 -1 9.7e-05
vt 0.702942 -0.084973
vn 0.000359 -1 9.7e-05
vt 0.69033 -0.09237
vn 0.000359 -1 9.7e-05
vt 0.69033 -0.084973
vn 0.000359 -1 9.7e-05
vt 0.671412 -0.09237
vn 0.000359 -1 9.7e-05
vt 0.671412 -0.084973
vn 0.000359 -1 9.7e-05
vt 0.646189 -0.09237
vn 0.000359 -1 9.7e-05
vt 0.646189 -0.084973
vn 0.000359 -1 9.7e-05
vt 0.627271 -0.09237
vn 0.000359 -1 9.7e-05
vt 0.627271 -0.084973
vn 0.225828 0.488413 0.842885
vt 0.715553 -0.0744801
vn 0.225828 0.488413 0.842885
vt 0.715553 -0.063218
vn 0.399369 0.50097 0.767811
vt 0.702942 -0.0744801
vn 0.565735 0.493545 0.660573
vt 0.702942 -0.063218
vn 0.802548 0.497516 0.329234
vt 0.69033 -0.0744801
vn 0.865108 0.49319 0.091383
vt 0.69033 -0.063218
vn 0.805853 0.489482 -0.333178
vt 0.671412 -0.0744801
vn 0.697425 0.482718 -0.529699
vt 0.671412 -0.063218
vn 0.329933 0.490879 -0.806338
vt 0.646189 -0.0744801
vn 0.066036 0.493471 -0.867252
vt 0.646189 -0.063218
vn -0.187024 0.46275 -0.866536
vt 0.627271 -0.0744801
vn -0.17423 0.481562 -0.858919
vt 0.627271 -0.063218
f 1/1/1 2/2/2 3/3/3
f 3/3/3 2/2/2 2/2/2
f 2/2/2 1/1/1 2/2/2
f 2/2/2 1/1/1 1/1/1
f 1/1/1 1/1/1 1/1/1
f 1/1/1 1/1/1 2/4/4
f 1/1/1 4/5/5 2/4/4
f 2/4/4 4/5/5 4/5/5
f 4/5/5 5/6/6 4/5/5
f 4/5/5 5/6/6 5/6/6
f 5/6/6 5/6/6 5/6/6
f 5/6/6 5/6/6 6/7/7
f 5/6/6 2/2/2 6/7/7
f 6/7/7 2/2/2 6/7/7
f 2/2/2 4/5/5 6/7/7
f 6/7/7 4/5/5 7/8/8
f 4/5/5 1/9/9 7/8/8
f 7/8/8 1/9/9 7/8/8
f 1/9/9 8/10/10 7/8/8
f 7/8/8 8/10/10 7/8/8
f 8/10/10 9/11/11 7/8/8
f 7/8/8 9/11/11 6/7/7
f 9/11/11 9/11/11 6/7/7
f 6/7/7 9/11/11 5/6/6
f 9/11/11 8/12/12 5/6/6
f 5/6/6 8/12/12 5/6/6
f 8/12/12 1/13/13 5/6/6
f 5/6/6 1/13/13 5/6/6
f 1/13/13 3/14/14 5/6/6
f 5/6/6 3/14/14 2/2/2
f 3/14/14 2/2/2 2/2/2
f 2/2/2 2/2/2 10/15/15
f 2/2/2 10/15/15 10/15/15
f 10/15/15 10/15/15 11/16/16
f 10/15/15 12/17/17 11/16/16
f 11/16/16 12/17/17 12/17/17
f 12/17/17 13/18/18 12/17/17
f 12/17/17 13/18/18 13/18/18
f 13/18/18 13/18/18 13/18/18
f 13/18/18 13/18/18 11/19/19
f 13/18/18 14/20/20 11/19/19
f 11/19/19 14/20/20 10/21/21
f 14/20/20 10/21/21 10/21/21
f 10/21/21 10/21/21 15/22/22
f 10/21/21 15/22/22 15/22/22
f 15/22/22 15/22/22 16/23/23
f 15/22/22 17/24/24 16/23/23
f 16/23/23 17/24/24 12/25/25
f 17/24/24 12/25/25 12/25/25
f 12/25/25 12/25/25 11/26/26
f 12/25/25 11/26/26 11/26/26
f 11/26/26 11/26/26 13/27/27
f 11/26/26 17/28/28 13/27/27
f 13/27/27 17/28/28 15/29/29
f 17/28/28 15/29/29 15/29/29
f 15/29/29 15/29/29 16/30/30
f 15/29/29 16/30/30 16/30/30
f 16/30/30 16/30/30 14/31/31
f 16/30/30 12/32/32 14/31/31
f 14/31/31 12/32/32 10/33/33
f 12/32/32 10/33/33 10/33/33
f 10/33/33 10/33/33 17/34/34
f 10/33/33 17/34/34 17/34/34
f 17/34/34 17/34/34 12/17/17
f 17/34/34 11/16/16 12/17/17
f 12/17/17 11/16/16 11/16/16
f 11/16/16 18/35/35 11/16/16
f 11/16/16 18/35/35 18/35/35
f 18/35/35 18/35/35 18/35/35
f 18/35/35 18/35/35 18/35/35
f 18/35/35 19/36/36 18/35/35
f 18/35/35 19/36/36 20/37/37
f 19/36/36 21/38/38 20/37/37
f 20/37/37 21/38/38 21/38/38
f 21/38/38 19/39/39 21/38/38
f 21/38/38 19/39/39 19/39/39
f 19/39/39 19/39/39 19/39/39
f 19/39/39 19/39/39 21/40/40
f 19/39/39 22/41/41 21/40/40
f 21/40/40 22/41/41 23/42/42
f 22/41/41 24/43/43 23/42/42
f 23/42/42 24/43/43 25/44/44
f 24/43/43 18/45/45 25/44/44
f 25/44/44 18/45/45 20/46/46
f 18/45/45 20/46/46 20/46/46
f 20/46/46 20/46/46 19/47/47
f 20/46/46 19/47/47 19/47/47
f 19/47/47 19/47/47 19/47/47
f 19/47/47 18/48/48 19/47/47
f 19/47/47 18/48/48 26/49/49
f 18/48/48 18/48/48 26/49/49
f 26/49/49 18/48/48 27/50/50
f 18/48/48 24/51/51 27/50/50
f 27/50/50 24/51/51 28/52/52
f 24/51/51 22/53/53 28/52/52
f 28/52/52 22/53/53 29/54/54
f 22/53/53 19/55/55 29/54/54
f 29/54/54 19/55/55 26/56/56
f 19/55/55 26/56/56 26/56/56
f 26/56/56 26/56/56 26/57/57
f 26/56/56 26/57/57 26/57/57
f 26/57/57 26/57/57 26/57/57
f 26/57/57 27/58/58 26/57/57
f 26/57/57 27/58/58 21/59/59
f 27/58/58 27/58/58 21/59/59
f 21/59/59 27/58/58 20/60/60
f 27/58/58 28/61/61 20/60/60
f 20/60/60 28/61/61 25/62/62
f 28/61/61 29/63/63 25/62/62
f 25/62/62 29/63/63 23/64/64
f 29/63/63 26/65/65 23/64/64
f 23/64/64 26/65/65 21/66/66
f 30/67/67 31/68/68 30/67/67
f 30/67/67 31/68/68 32/69/69
f 31/68/68 33/70/70 32/69/69
f 32/69/69 33/70/70 33/70/70
f 33/70/70 34/71/71 33/70/70
f 33/70/70 34/71/71 34/71/71
f 34/71/71 34/71/71 34/71/71
f 34/71/71 34/71/71 35/72/72
f 34/71/71 36/73/73 35/72/72
f 35/72/72 36/73/73 37/74/74
f 36/73/73 38/75/75 37/74/74
f 37/74/74 38/75/75 33/70/70
f 38/75/75 38/75/75 33/70/70
f 33/70/70 38/75/75 32/69/69
f 38/75/75 39/76/76 32/69/69
f 32/69/69 39/76/76 40/77/77
f 39/76/76 41/78/78 40/77/77
f 40/77/77 41/78/78 42/79/79
f 41/78/78 43/80/80 42/79/79
f 42/79/79 43/80/80 43/80/80
f 43/80/80 34/81/81 43/80/80
f 43/80/80 34/81/81 34/81/81
f 34/81/81 34/81/81 34/81/81
f 34/81/81 34/81/81 36/82/82
f 34/81/81 44/83/83 36/82/82
f 36/82/82 44/83/83 38/75/75
f 44/83/83 45/84/84 38/75/75
f 38/75/75 45/84/84 39/76/76
f 45/84/84 39/76/76 39/76/76
f 39/76/76 39/76/76 34/85/85
f 39/76/76 34/85/85 34/85/85
f 34/85/85 34/85/85 34/85/85
f 34/85/85 35/72/72 34/85/85
f 34/85/85 35/72/72 46/86/86
f 35/72/72 37/74/74 46/86/86
f 46/86/86 37/74/74 47/87/87
f 37/74/74 48/88/88 47/87/87
f 47/87/87 48/88/88 45/89/89
f 48/88/88 49/90/90 45/89/89
f 45/89/89 49/90/90 39/91/91
f 49/90/90 49/90/90 39/91/91
f 39/91/91 49/90/90 41/92/92
f 49/90/90 50/93/93 41/92/92
f 41/92/92 50/93/93 41/92/92
f 50/93/93 51/94/94 41/92/92
f 41/92/92 51/94/94 43/95/95
f 51/94/94 43/95/95 43/95/95
f 43/95/95 43/95/95 52/96/96
f 43/95/95 52/96/96 52/96/96
f 52/96/96 52/96/96 53/97/97
f 52/96/96 48/88/88 53/97/97
f 53/97/97 48/88/88 33/98/98
f 48/88/88 37/74/74 33/98/98
f 33/98/98 37/74/74 37/74/74
f 37/74/74 48/88/88 37/74/74
f 37/74/74 48/88/88 48/88/88
f 48/88/88 48/88/88 48/88/88
f 48/88/88 48/88/88 49/90/90
f 48/88/88 54/99/99 49/90/90
f 49/90/90 54/99/99 55/100/100
f 54/99/99 56/101/101 55/100/100
f 55/100/100 56/101/101 56/101/101
f 56/101/101 34/102/102 56/101/101
f 56/101/101 34/102/102 34/102/102
f 34/102/102 34/102/102 34/102/102
f 34/102/102 34/102/102 44/103/103
f 34/102/102 46/86/86 44/103/103
f 44/103/103 46/86/86 45/89/89
f 46/86/86 47/87/87 45/89/89
f 45/89/89 47/87/87 47/87/87
f 47/87/87 57/104/104 47/87/87
f 47/87/87 57/104/104 57/104/104
f 57/104/104 57/104/104 57/104/104
f 57/104/104 57/104/104 58/105/105
f 57/104/104 59/106/106 58/105/105
f 58/105/105 59/106/106 59/106/106
f 59/106/106 57/107/107 59/106/106
f 59/106/106 57/107/107 57/107/107
f 57/107/107 57/107/107 57/107/107
f 57/107/107 57/107/107 60/108/108
f 57/107/107 58/105/105 60/108/108
f 60/108/108 58/105/105 61/109/109
f 58/105/105 58/105/105 61/109/109
f 61/109/109 58/105/105 62/110/110
f 58/105/105 59/106/106 62/110/110
f 62/110/110 59/106/106 62/110/110
f 59/106/106 63/111/111 62/110/110
f 62/110/110 63/111/111 64/112/112
f 63/111/111 64/112/112 64/112/112
f 64/112/112 64/112/112 62/110/110
f 64/112/112 62/110/110 62/110/110
f 62/110/110 62/110/110 61/109/109
f 62/110/110 64/113/113 61/109/109
f 61/109/109 64/113/113 64/113/113
f 64/113/113 64/114/114 64/113/113
f 64/113/113 64/114/114 64/114/114
f 64/114/114 64/114/114 64/114/114
f 64/114/114 64/114/114 65/115/115
f 64/114/114 63/116/116 65/115/115
f 65/115/115 63/116/116 66/117/117
f 63/116/116 59/118/118 66/117/117
f 66/117/117 59/118/118 66/117/117
f 59/118/118 57/107/107 66/117/117
f 66/117/117 57/107/107 66/117/117
f 57/107/107 60/119/119 66/117/117
f 66/117/117 60/119/119 66/117/117
f 60/119/119 61/120/120 66/117/117
f 66/117/117 61/120/120 65/115/115
f 61/120/120 64/121/121 65/115/115
f 65/115/115 64/121/121 64/121/121
f 64/121/121 32/122/122 64/121/121
f 64/121/121 32/122/122 32/122/122
f 32/122/122 32/122/122 32/122/122
f 32/122/122 32/122/122 32/122/122
f 32/122/122 33/123/123 32/122/122
f 32/122/122 33/123/123 30/124/124
f 33/123/123 31/125/125 30/124/124
f 30/124/124 31/125/125 31/125/125
f 31/125/125 42/126/126 31/125/125
f 31/125/125 42/126/126 42/126/126
f 42/126/126 43/127/127 42/126/126
f 42/126/126 43/127/127 40/128/128
f 43/127/127 41/129/129 40/128/128
f 40/128/128 41/129/129 32/122/122
f 41/129/129 39/130/130 32/122/122
f 32/122/122 39/130/130 32/122/122
f 39/130/130 38/131/131 32/122/122
f 32/122/122 38/131/131 33/123/123
f 38/131/131 38/131/131 33/123/123
f 33/123/123 38/131/131 37/132/132
f 38/131/131 36/133/133 37/132/132
f 37/132/132 36/133/133 35/134/134
f 36/133/133 34/135/135 35/134/134
f 35/134/134 34/135/135 34/135/135
f 34/135/135 39/130/130 34/135/135
f 34/135/135 39/130/130 39/130/130
f 39/130/130 45/136/136 39/130/130
f 39/130/130 45/136/136 38/131/131
f 45/136/136 44/137/137 38/131/131
f 38/131/131 44/137/137 36/138/138
f 44/137/137 34/139/139 36/138/138
f 36/138/138 34/139/139 34/139/139
f 34/139/139 51/140/140 34/139/139
f 34/139/139 51/140/140 51/140/140
f 51/140/140 51/140/140 51/140/140
f 51/140/140 51/140/140 43/141/141
f 51/140/140 50/142/142 43/141/141
f 43/141/141 50/142/142 41/143/143
f 50/142/142 50/142/142 41/143/143
f 41/143/143 50/142/142 39/144/144
f 50/142/142 49/145/145 39/144/144
f 39/144/144 49/145/145 45/146/146
f 49/145/145 48/147/147 45/146/146
f 45/146/146 48/147/147 47/148/148
f 48/147/147 37/132/132 47/148/148
f 47/148/148 37/132/132 46/149/149
f 37/132/132 35/134/134 46/149/149
f 46/149/149 35/134/134 34/150/150
f 35/134/134 34/150/150 34/150/150
f 34/150/150 34/150/150 45/146/146
f 34/150/150 45/146/146 45/146/146
f 45/146/146 45/146/146 45/146/146
f 45/146/146 47/148/148 45/146/146
f 45/146/146 47/148/148 44/151/151
f 47/148/148 46/149/149 44/151/151
f 44/151/151 46/149/149 44/151/151
f 46/149/149 34/152/152 44/151/151
f 44/151/151 34/152/152 34/152/152
f 34/152/152 55/153/153 34/152/152
f 34/152/152 55/153/153 55/153/153
f 55/153/153 56/154/154 55/153/153
f 55/153/153 56/154/154 49/145/145
f 56/154/154 54/155/155 49/145/145
f 49/145/145 54/155/155 49/145/145
f 54/155/155 48/147/147 49/145/145
f 49/145/145 48/147/147 48/147/147
f 48/147/147 52/156/156 48/147/147
f 48/147/147 52/156/156 52/156/156
f 52/156/156 53/157/157 52/156/156
f 52/156/156 53/157/157 48/147/147
f 53/157/157 33/158/158 48/147/147
f 48/147/147 33/158/158 37/132/132
f 33/158/158 37/132/132 37/132/132
f 37/132/132 37/132/132 58/159/159
f 37/132/132 58/159/159 58/159/159
f 58/159/159 58/159/159 60/160/160
f 58/159/159 57/104/104 60/160/160
f 60/160/160 57/104/104 57/104/104
f 57/104/104 64/161/161 57/104/104
f 57/104/104 64/161/161 64/161/161
f 64/161/161 64/161/161 64/161/161
f 64/161/161 64/161/161 61/162/162
f 64/161/161 62/163/163 61/162/162
f 61/162/162 62/163/163 60/160/160
f 62/163/163 62/163/163 60/160/160
f 60/160/160 62/163/163 58/159/159
f 62/163/163 63/164/164 58/159/159
f 58/159/159 63/164/164 58/159/159
f 63/164/164 59/165/165 58/159/159
f 58/159/159 59/165/165 57/107/107
f 59/165/165 57/107/107 57/107/107
f 57/107/107 57/107/107 64/166/166
f 57/107/107 64/166/166 64/166/166
f 64/166/166 64/166/166 62/163/163
f 64/166/166 63/164/164 62/163/163
f 62/163/163 63/164/164 63/164/164
f 63/164/164 64/167/167 63/164/164
f 63/164/164 64/167/167 64/167/167
f 64/167/167 64/167/167 64/167/167
f 64/167/167 64/167/167 63/168/168
f 64/167/167 65/169/169 63/168/168
f 63/168/168 65/169/169 59/170/170
f 65/169/169 66/171/171 59/170/170
f 59/170/170 66/171/171 57/104/104
f 66/171/171 66/171/171 57/104/104
f 57/104/104 66/171/171 60/172/172
f 66/171/171 65/169/169 60/172/172
f 60/172/172 65/169/169 61/173/173
f 65/169/169 64/174/174 61/173/173
f 61/173/173 64/174/174 64/174/174
f 67/175/175 68/176/176 67/175/175
f 69/177/177 68/176/176 67/175/175
f 69/177/177 70/178/178 68/176/176
f 71/179/179 70/178/178 69/177/177
f 71/179/179 72/180/180 70/178/178
f 73/181/181 72/180/180 71/179/179
f 73/181/181 74/182/182 72/180/180
f 74/182/182 74/182/182 73/181/181
f 74/182/182 68/176/176 74/182/182
f 68/176/176 68/176/176 74/182/182
f 68/176/176 75/183/183 68/176/176
f 76/184/184 75/183/183 68/176/176
f 76/184/184 75/183/183 75/183/183
f 77/185/185 75/183/183 76/184/184
f 77/185/185 78/186/186 75/183/183
f 79/187/187 78/186/186 77/185/185
f 79/187/187 78/186/186 78/186/186
f 80/188/188 78/186/186 79/187/187
f 80/188/188 74/182/182 78/186/186
f 74/182/182 74/182/182 80/188/188
f 74/182/182 73/181/181 74/182/182
f 73/181/181 73/181/181 74/182/182
f 73/181/181 74/182/182 73/181/181
f 81/189/189 74/182/182 73/181/181
f 81/189/189 78/186/186 74/182/182
f 82/190/190 78/186/186 81/189/189
f 82/190/190 75/183/183 78/186/186
f 67/175/175 75/183/183 82/190/190
f 67/175/175 75/183/183 75/183/183
f 68/176/176 75/183/183 67/175/175
f 68/176/176 68/176/176 75/183/183
f 80/188/188 68/176/176 68/176/176
f 80/188/188 80/188/188 68/176/176
f 80/188/188 80/188/188 80/188/188
f 80/188/188 74/182/182 80/188/188
f 83/191/191 74/182/182 80/188/188
f 83/191/191 72/180/180 74/182/182
f 83/191/191 72/180/180 83/191/191
f 83/191/191 70/178/178 72/180/180
f 84/192/192 70/178/178 83/191/191
f 84/192/192 68/176/176 70/178/178
f 76/184/184 68/176/176 84/192/192
f 76/184/184 76/184/184 68/176/176
f 85/193/193 76/184/184 76/184/184
f 85/193/193 85/193/193 76/184/184
f 86/194/194 85/193/193 85/193/193
f 86/194/194 87/195/195 85/193/193
f 87/195/195 87/195/195 86/194/194
f 87/195/195 88/196/196 87/195/195
f 88/196/196 88/196/196 87/195/195
f 88/196/196 89/197/197 88/196/196
f 90/198/198 89/197/197 88/196/196
f 90/198/198 91/199/199 89/197/197
f 91/199/199 91/199/199 90/198/198
f 91/199/199 92/200/200 91/199/199
f 92/200/200 92/200/200 91/199/199
f 92/200/200 93/201/201 92/200/200
f 94/202/202 93/201/201 92/200/200
f 94/202/202 95/203/203 93/201/201
f 94/202/202 95/203/203 94/202/202
f 94/202/202 96/204/204 95/203/203
f 97/205/205 96/204/204 94/202/202
f 97/205/205 98/206/206 96/204/204
f 99/207/207 98/206/206 97/205/205
f 99/207/207 100/208/208 98/206/206
f 101/209/209 100/208/208 99/207/207
f 101/209/209 101/209/209 100/208/208
f 102/210/210 101/209/209 101/209/209
f 102/210/210 102/210/210 101/209/209
f 103/211/211 102/210/210 102/210/210
f 103/211/211 104/212/212 102/210/210
f 104/212/212 104/212/212 103/211/211
f 104/212/212 104/212/212 104/212/212
f 104/212/212 104/212/212 104/212/212
f 104/212/212 104/212/212 104/212/212
f 103/213/213 104/212/212 104/212/212
f 103/213/213 105/214/214 104/212/212
f 106/215/215 105/214/214 103/213/213
f 106/215/215 105/214/214 105/214/214
f 107/216/216 105/214/214 106/215/215
f 107/216/216 108/217/217 105/214/214
f 107/216/216 108/217/217 107/216/216
f 107/216/216 109/218/218 108/217/217
f 110/219/219 109/218/218 107/216/216
f 110/219/219 101/220/220 109/218/218
f 100/221/221 101/220/220 110/219/219
f 100/221/221 100/221/221 101/220/220
f 111/222/222 100/221/221 100/221/221
f 111/222/222 111/222/222 100/221/221
f 111/222/222 111/222/222 111/222/222
f 111/222/222 112/223/223 111/222/222
f 113/224/224 112/223/223 111/222/222
f 113/224/224 114/225/225 112/223/223
f 115/226/226 114/225/225 113/224/224
f 115/226/226 115/226/226 114/225/225
f 116/227/227 115/226/226 115/226/226
f 116/227/227 116/227/227 115/226/226
f 117/228/228 116/227/227 116/227/227
f 117/228/228 118/229/229 116/227/227
f 118/229/229 118/229/229 117/228/228
f 118/229/229 86/230/230 118/229/229
f 86/230/230 86/230/230 118/229/229
f 86/230/230 119/231/231 86/230/230
f 85/232/232 119/231/231 86/230/230
f 85/232/232 119/231/231 119/231/231
f 120/233/233 119/231/231 85/232/232
f 120/233/233 121/234/234 119/231/231
f 122/235/235 121/234/234 120/233/233
f 122/235/235 123/236/236 121/234/234
f 124/237/237 123/236/236 122/235/235
f 124/237/237 124/237/237 123/236/236
f 125/238/238 124/237/237 124/237/237
f 125/238/238 125/238/238 124/237/237
f 126/239/239 125/238/238 125/238/238
f 126/239/239 127/240/240 125/238/238
f 127/240/240 127/240/240 126/239/239
f 127/240/240 92/241/241 127/240/240
f 92/241/241 92/241/241 127/240/240
f 92/241/241 92/241/241 92/241/241
f 93/242/242 92/241/241 92/241/241
f 93/242/242 128/243/243 92/241/241
f 129/244/244 128/243/243 93/242/242
f 129/244/244 130/245/245 128/243/243
f 131/246/246 130/245/245 129/244/244
f 131/246/246 130/245/245 130/245/245
f 132/247/247 130/245/245 131/246/246
f 132/247/247 133/248/248 130/245/245
f 132/247/247 133/248/248 132/247/247
f 132/247/247 126/239/239 133/248/248
f 127/249/249 126/239/239 132/247/247
f 127/249/249 127/249/249 126/239/239
f 123/250/250 127/249/249 127/249/249
f 123/250/250 123/250/250 127/249/249
f 123/250/250 123/250/250 123/250/250
f 123/250/250 134/251/251 123/250/250
f 124/252/252 134/251/251 123/250/250
f 124/252/252 134/251/251 134/251/251
f 135/253/253 134/251/251 124/252/252
f 135/253/253 136/254/254 134/251/251
f 137/255/255 136/254/254 135/253/253
f 137/255/255 136/254/254 136/254/254
f 89/256/256 136/254/254 137/255/255
f 89/256/256 138/257/257 136/254/254
f 91/258/258 138/257/257 89/256/256
f 91/258/258 91/258/258 138/257/257
f 115/226/226 91/258/258 91/258/258
f 115/226/226 115/226/226 91/258/258
f 113/259/259 115/226/226 115/226/226
f 113/259/259 139/260/260 115/226/226
f 113/259/259 139/260/260 113/259/259
f 113/259/259 140/261/261 139/260/260
f 111/222/222 140/261/261 113/259/259
f 111/222/222 111/222/222 140/261/261
f 141/262/262 111/222/222 111/222/222
f 141/262/262 141/262/262 111/222/222
f 138/263/263 141/262/262 141/262/262
f 138/263/263 90/264/264 141/262/262
f 91/265/265 90/264/264 138/263/263
f 91/265/265 91/265/265 90/264/264
f 142/266/266 91/265/265 91/265/265
f 142/266/266 142/266/266 91/265/265
f 143/267/267 142/266/266 142/266/266
f 143/267/267 144/268/268 142/266/266
f 145/269/269 144/268/268 143/267/267
f 145/269/269 144/268/268 144/268/268
f 146/270/270 144/268/268 145/269/269
f 146/270/270 147/271/271 144/268/268
f 148/272/272 147/271/271 146/270/270
f 148/272/272 148/272/272 147/271/271
f 118/273/273 148/272/272 148/272/272
f 118/273/273 118/273/273 148/272/272
f 118/273/273 118/273/273 118/273/273
f 118/273/273 116/274/274 118/273/273
f 149/275/275 116/274/274 118/273/273
f 149/275/275 150/276/276 116/274/274
f 149/275/275 150/276/276 149/275/275
f 149/275/275 151/277/277 150/276/276
f 152/278/278 151/277/277 149/275/275
f 152/278/278 151/277/277 151/277/277
f 153/279/279 151/277/277 152/278/278
f 153/279/279 154/280/280 151/277/277
f 153/279/279 154/280/280 153/279/279
f 153/279/279 155/281/281 154/280/280
f 156/282/282 155/281/281 153/279/279
f 156/282/282 142/266/266 155/281/281
f 143/267/267 142/266/266 156/282/282
f 143/267/267 143/267/267 142/266/266
f 157/283/283 143/267/267 143/267/267
f 157/283/283 157/283/283 143/267/267
f 158/284/284 157/283/283 157/283/283
f 158/284/284 159/285/285 157/283/283
f 160/286/286 159/285/285 158/284/284
f 160/286/286 159/285/285 159/285/285
f 161/287/287 159/285/285 160/286/286
f 161/287/287 162/288/288 159/285/285
f 163/289/289 162/288/288 161/287/287
f 163/289/289 164/290/290 162/288/288
f 165/291/291 164/290/290 163/289/289
f 165/291/291 166/292/292 164/290/290
f 167/293/293 166/292/292 165/291/291
f 167/293/293 168/294/294 166/292/292
f 168/294/294 168/294/294 167/293/293
f 168/294/294 168/294/294 168/294/294
f 168/294/294 168/294/294 168/294/294
f 168/294/294 168/294/294 168/294/294
f 167/293/293 168/294/294 168/294/294
f 167/293/293 169/295/295 168/294/294
f 170/296/296 169/295/295 167/293/293
f 170/296/296 171/297/297 169/295/295
f 172/298/298 171/297/297 170/296/296
f 172/298/298 173/299/299 171/297/297
f 174/300/300 173/299/299 172/298/298
f 174/300/300 173/299/299 173/299/299
f 175/301/301 173/299/299 174/300/300
f 175/301/301 176/302/302 173/299/299
f 175/301/301 176/302/302 175/301/301
f 175/301/301 177/303/303 176/302/302
f 178/304/304 177/303/303 175/301/301
f 178/304/304 178/304/304 177/303/303
f 179/305/305 178/304/304 178/304/304
f 179/305/305 179/305/305 178/304/304
f 180/306/306 179/305/305 179/305/305
f 180/306/306 181/307/307 179/305/305
f 182/308/308 181/307/307 180/306/306
f 182/308/308 183/309/309 181/307/307
f 184/310/310 183/309/309 182/308/308
f 184/310/310 185/311/311 183/309/309
f 186/312/312 185/311/311 184/310/310
f 186/312/312 187/313/313 185/311/311
f 188/314/314 187/313/313 186/312/312
f 188/314/314 148/315/315 187/313/313
f 148/315/315 148/315/315 188/314/314
f 148/315/315 90/316/316 148/315/315
f 90/316/316 90/316/316 148/315/315
f 90/316/316 90/316/316 90/316/316
f 88/317/317 90/316/316 90/316/316
f 88/317/317 189/318/318 90/316/316
f 190/319/319 189/318/318 88/317/317
f 190/319/319 191/320/320 189/318/318
f 192/321/321 191/320/320 190/319/319
f 192/321/321 193/322/322 191/320/320
f 194/323/323 193/322/322 192/321/321
f 194/323/323 195/324/324 193/322/322
f 194/323/323 195/324/324 194/323/323
f 194/323/323 179/305/305 195/324/324
f 196/325/325 179/305/305 194/323/323
f 196/325/325 179/305/305 179/305/305
f 180/306/306 179/305/305 196/325/325
f 180/306/306 180/306/306 179/305/305
f 177/326/326 180/306/306 180/306/306
f 177/326/326 177/326/326 180/306/306
f 197/327/327 177/326/326 177/326/326
f 197/327/327 176/328/328 177/326/326
f 198/329/329 176/328/328 197/327/327
f 198/329/329 176/328/328 176/328/328
f 199/330/330 176/328/328 198/329/329
f 199/330/330 173/331/331 176/328/328
f 200/332/332 173/331/331 199/330/330
f 200/332/332 171/333/333 173/331/331
f 201/334/334 171/333/333 200/332/332
f 201/334/334 169/335/335 171/333/333
f 202/336/336 169/335/335 201/334/334
f 202/336/336 168/337/337 169/335/335
f 168/337/337 168/337/337 202/336/336
f 168/337/337 168/337/337 168/337/337
f 168/337/337 168/337/337 168/337/337
f 168/337/337 168/337/337 168/337/337
f 202/336/336 168/337/337 168/337/337
f 202/336/336 166/338/338 168/337/337
f 202/336/336 166/338/338 202/336/336
f 202/336/336 164/339/339 166/338/338
f 203/340/340 164/339/339 202/336/336
f 203/340/340 164/339/339 164/339/339
f 204/341/341 164/339/339 203/340/340
f 204/341/341 164/339/339 164/339/339
f 205/342/342 164/339/339 204/341/341
f 205/342/342 162/343/343 164/339/339
f 206/344/344 162/343/343 205/342/342
f 206/344/344 159/345/345 162/343/343
f 206/344/344 159/345/345 206/344/344
f 206/344/344 157/346/346 159/345/345
f 207/347/347 157/346/346 206/344/344
f 207/347/347 207/347/347 157/346/346
f 208/348/348 207/347/347 207/347/347
f 208/348/348 208/348/348 207/347/347
f 181/349/349 208/348/348 208/348/348
f 181/349/349 209/350/350 208/348/348
f 183/351/351 209/350/350 181/349/349
f 183/351/351 210/352/352 209/350/350
f 185/353/353 210/352/352 183/351/351
f 185/353/353 211/354/354 210/352/352
f 185/353/353 211/354/354 185/353/353
f 185/353/353 212/355/355 211/354/354
f 187/356/356 212/355/355 185/353/353
f 187/356/356 213/357/357 212/355/355
f 148/358/358 213/357/357 187/356/356
f 148/358/358 148/358/358 213/357/357
f 90/359/359 148/358/358 148/358/358
f 90/359/359 90/359/359 148/358/358
f 189/360/360 90/359/359 90/359/359
f 189/360/360 141/361/361 90/359/359
f 191/362/362 141/361/361 189/360/360
f 191/362/362 214/363/363 141/361/361
f 193/364/364 214/363/363 191/362/362
f 193/364/364 215/365/365 214/363/363
f 195/366/366 215/365/365 193/364/364
f 195/366/366 216/367/367 215/365/365
f 179/368/368 216/367/367 195/366/366
f 179/368/368 208/348/348 216/367/367
f 181/349/349 208/348/348 179/368/368
f 181/349/349 181/349/349 208/348/348
f 217/369/369 181/349/349 181/349/349
f 217/369/369 217/369/369 181/349/349
f 218/370/370 217/369/369 217/369/369
f 218/370/370 219/371/371 217/369/369
f 220/372/372 219/371/371 218/370/370
f 220/372/372 221/373/373 219/371/371
f 222/374/374 221/373/373 220/372/372
f 222/374/374 223/375/375 221/373/373
f 224/376/376 223/375/375 222/374/374
f 224/376/376 225/377/377 223/375/375
f 226/378/378 225/377/377 224/376/376
f 226/378/378 227/379/379 225/377/377
f 228/380/380 227/379/379 226/378/378
f 228/380/380 228/380/380 227/379/379
f 229/381/381 228/380/380 228/380/380
f 229/381/381 229/381/381 228/380/380
f 230/382/382 229/381/381 229/381/381
f 230/382/382 217/369/369 229/381/381
f 230/382/382 217/369/369 230/382/382
f 230/382/382 218/370/370 217/369/369
f 231/383/383 218/370/370 230/382/382
f 231/383/383 220/372/372 218/370/370
f 231/383/383 220/372/372 231/383/383
f 231/383/383 222/374/374 220/372/372
f 231/383/383 222/374/374 231/383/383
f 231/383/383 224/376/376 222/374/374
f 231/383/383 224/376/376 231/383/383
f 231/383/383 226/378/378 224/376/376
f 231/383/383 226/378/378 231/383/383
f 231/383/383 228/380/380 226/378/378
f 231/383/383 228/380/380 231/383/383
f 231/383/383 232/384/384 228/380/380
f 231/383/383 232/384/384 231/383/383
f 231/383/383 233/385/385 232/384/384
f 233/385/385 233/385/385 231/383/383
f 233/385/385 233/385/385 233/385/385
f 233/385/385 233/385/385 233/385/385
f 233/385/385 233/385/385 233/385/385
f 231/383/383 233/385/385 233/385/385
f 231/383/383 234/386/386 233/385/385
f 231/383/383 234/386/386 231/383/383
f 231/383/383 235/387/387 234/386/386
f 231/383/383 235/387/387 231/383/383
f 231/383/383 236/388/388 235/387/387
f 231/383/383 236/388/388 231/383/383
f 231/383/383 237/389/389 236/388/388
f 231/383/383 237/389/389 231/383/383
f 231/383/383 238/390/390 237/389/389
f 231/383/383 238/390/390 231/383/383
f 231/383/383 239/391/391 238/390/390
f 231/383/383 239/391/391 231/383/383
f 231/383/383 240/392/392 239/391/391
f 230/382/382 240/392/392 231/383/383
f 230/382/382 230/382/382 240/392/392
f 241/393/393 230/382/382 230/382/382
f 241/393/393 241/393/393 230/382/382
f 236/388/388 241/393/393 241/393/393
f 236/388/388 242/394/394 241/393/393
f 237/389/389 242/394/394 236/388/388
f 237/389/389 243/395/395 242/394/394
f 238/390/390 243/395/395 237/389/389
f 238/390/390 244/396/396 243/395/395
f 239/391/391 244/396/396 238/390/390
f 239/391/391 245/397/397 244/396/396
f 240/392/392 245/397/397 239/391/391
f 240/392/392 229/381/381 245/397/397
f 230/382/382 229/381/381 240/392/392
f 230/382/382 230/382/382 229/381/381
f 227/379/379 230/382/382 230/382/382
f 227/379/379 227/379/379 230/382/382
f 228/380/380 227/379/379 227/379/379
f 228/380/380 246/398/398 227/379/379
f 232/384/384 246/398/398 228/380/380
f 232/384/384 247/399/399 246/398/398
f 233/385/385 247/399/399 232/384/384
f 233/385/385 248/400/400 247/399/399
f 234/386/386 248/400/400 233/385/385
f 234/386/386 249/401/401 248/400/400
f 235/387/387 249/401/401 234/386/386
f 235/387/387 241/393/393 249/401/401
f 236/388/388 241/393/393 235/387/387
f 236/388/388 236/388/388 241/393/393
f 250/402/402 236/388/388 236/388/388
f 250/402/402 250/402/402 236/388/388
f 251/403/403 250/402/402 250/402/402
f 251/403/403 252/404/404 250/402/402
f 251/403/403 252/404/404 251/403/403
f 251/403/403 253/405/405 252/404/404
f 251/403/403 253/405/405 251/403/403
f 251/403/403 254/406/406 253/405/405
f 251/403/403 254/406/406 251/403/403
f 251/403/403 255/407/407 254/406/406
f 251/403/403 255/407/407 251/403/403
f 251/403/403 256/408/408 255/407/407
f 251/403/403 256/408/408 251/403/403
f 251/403/403 257/409/409 256/408/408
f 251/403/403 257/409/409 251/403/403
f 251/403/403 258/410/410 257/409/409
f 259/411/411 258/410/410 251/403/403
f 259/411/411 259/411/411 258/410/410
f 260/412/412 259/411/411 259/411/411
f 260/412/412 260/412/412 259/411/411
f 259/411/411 260/412/412 260/412/412
f 259/411/411 261/413/413 260/412/412
f 259/411/411 261/413/413 259/411/411
f 259/411/411 262/414/414 261/413/413
f 251/403/403 262/414/414 259/411/411
f 251/403/403 263/415/415 262/414/414
f 251/403/403 263/415/415 251/403/403
f 251/403/403 264/416/416 263/415/415
f 251/403/403 264/416/416 251/403/403
f 251/403/403 265/417/417 264/416/416
f 251/403/403 265/417/417 251/403/403
f 251/403/403 266/418/418 265/417/417
f 251/403/403 266/418/418 251/403/403
f 251/403/403 267/419/419 266/418/418
f 251/403/403 267/419/419 251/403/403
f 251/403/403 268/420/420 267/419/419
f 251/403/403 268/420/420 251/403/403
f 251/403/403 250/402/402 268/420/420
f 250/402/402 250/402/402 251/403/403
f 250/402/402 261/413/413 250/402/402
f 261/413/413 261/413/413 250/402/402
f 261/413/413 261/413/413 261/413/413
f 262/414/414 261/413/413 261/413/413
f 262/414/414 269/421/421 261/413/413
f 263/415/415 269/421/421 262/414/414
f 263/415/415 270/422/422 269/421/421
f 264/416/416 270/422/422 263/415/415
f 264/416/416 271/423/423 270/422/422
f 265/417/417 271/423/423 264/416/416
f 265/417/417 272/424/424 271/423/423
f 266/418/418 272/424/424 265/417/417
f 266/418/418 273/425/425 272/424/424
f 267/419/419 273/425/425 266/418/418
f 267/419/419 267/419/419 273/425/425
f 273/425/425 267/419/419 267/419/419
f 273/425/425 273/425/425 267/419/419
f 267/419/419 273/425/425 273/425/425
f 267/419/419 274/426/426 273/425/425
f 268/420/420 274/426/426 267/419/419
f 268/420/420 275/427/427 274/426/426
f 250/402/402 275/427/427 268/420/420
f 250/402/402 276/428/428 275/427/427
f 252/404/404 276/428/428 250/402/402
f 252/404/404 277/429/429 276/428/428
f 253/405/405 277/429/429 252/404/404
f 253/405/405 278/430/430 277/429/429
f 254/406/406 278/430/430 253/405/405
f 254/406/406 254/406/406 278/430/430
f 278/430/430 254/406/406 254/406/406
f 278/430/430 278/430/430 254/406/406
f 254/406/406 278/430/430 278/430/430
f 254/406/406 279/431/431 278/430/430
f 255/407/407 279/431/431 254/406/406
f 255/407/407 280/432/432 279/431/431
f 256/408/408 280/432/432 255/407/407
f 256/408/408 281/433/433 280/432/432
f 257/409/409 281/433/433 256/408/408
f 257/409/409 282/434/434 281/433/433
f 258/410/410 282/434/434 257/409/409
f 258/410/410 260/412/412 282/434/434
f 259/411/411 260/412/412 258/410/410
f 259/411/411 259/411/411 260/412/412
f 283/435/435 259/411/411 259/411/411
f 283/435/435 283/435/435 259/411/411
f 283/435/435 283/435/435 283/435/435
f 283/435/435 284/436/436 283/435/435
f 285/437/437 284/436/436 283/435/435
f 285/437/437 286/438/438 284/436/436
f 285/437/437 286/438/438 285/437/437
f 285/437/437 287/439/439 286/438/438
f 285/437/437 287/439/439 285/437/437
f 285/437/437 288/440/440 287/439/439
f 285/437/437 288/440/440 285/437/437
f 285/437/437 289/441/441 288/440/440
f 283/435/435 289/441/441 285/437/437
f 283/435/435 290/442/442 289/441/441
f 284/436/436 290/442/442 283/435/435
f 284/436/436 291/443/443 290/442/442
f 291/443/443 291/443/443 284/436/436
f 291/443/443 287/439/439 291/443/443
f 287/439/439 287/439/439 291/443/443
f 287/439/439 292/444/444 287/439/439
f 288/440/440 292/444/444 287/439/439
f 288/440/440 293/445/445 292/444/444
f 289/441/441 293/445/445 288/440/440
f 289/441/441 294/446/446 293/445/445
f 290/442/442 294/446/446 289/441/441
f 290/442/442 294/446/446 294/446/446
f 291/443/443 294/446/446 290/442/442
f 291/443/443 294/446/446 294/446/446
f 295/447/447 294/446/446 291/443/443
f 295/447/447 293/445/445 294/446/446
f 292/444/444 293/445/445 295/447/447
f 292/444/444 292/444/444 293/445/445
f 296/448/448 292/444/444 292/444/444
f 296/448/448 296/448/448 292/444/444
f 297/449/449 296/448/448 296/448/448
f 297/449/449 298/450/450 296/448/448
f 298/450/450 298/450/450 297/449/449
f 298/450/450 299/451/451 298/450/450
f 299/451/451 299/451/451 298/450/450
f 299/451/451 300/452/452 299/451/451
f 301/453/453 300/452/452 299/451/451
f 301/453/453 302/454/454 300/452/452
f 302/454/454 302/454/454 301/453/453
f 302/454/454 303/455/455 302/454/454
f 303/455/455 303/455/455 302/454/454
f 303/455/455 304/456/456 303/455/455
f 305/457/457 304/456/456 303/455/455
f 305/457/457 306/458/458 304/456/456
f 306/458/458 306/458/458 305/457/457
f 306/458/458 306/458/458 306/458/458
f 306/458/458 306/458/458 306/458/458
f 306/458/458 304/456/456 306/458/458
f 307/459/459 304/456/456 306/458/458
f 307/459/459 308/460/460 304/456/456
f 308/460/460 308/460/460 307/459/459
f 308/460/460 302/461/461 308/460/460
f 302/461/461 302/461/461 308/460/460
f 302/461/461 309/462/462 302/461/461
f 301/463/463 309/462/462 302/461/461
f 301/463/463 310/464/464 309/462/462
f 299/465/465 310/464/464 301/463/463
f 299/465/465 311/466/466 310/464/464
f 300/467/467 311/466/466 299/465/465
f 300/467/467 312/468/468 311/466/466
f 312/468/468 312/468/468 300/467/467
f 312/468/468 306/469/469 312/468/468
f 306/469/469 306/469/469 312/468/468
f 306/469/469 313/470/470 306/469/469
f 305/471/471 313/470/470 306/469/469
f 305/471/471 314/472/472 313/470/470
f 305/471/471 314/472/472 305/471/471
f 305/471/471 315/473/473 314/472/472
f 303/474/474 315/473/473 305/471/471
f 303/474/474 316/475/475 315/473/473
f 304/476/476 316/475/475 303/474/474
f 304/476/476 304/476/476 316/475/475
f 298/477/477 304/476/476 304/476/476
f 298/477/477 298/477/477 304/476/476
f 317/478/478 298/477/477 298/477/477
f 317/478/478 296/479/479 298/477/477
f 296/479/479 296/479/479 317/478/478
f 296/479/479 300/467/467 296/479/479
f 300/467/467 300/467/467 296/479/479
f 300/467/467 312/468/468 300/467/467
f 318/480/480 312/468/468 300/467/467
f 318/480/480 319/481/481 312/468/468
f 320/482/482 319/481/481 318/480/480
f 320/482/482 321/483/483 319/481/481
f 302/461/461 321/483/483 320/482/482
f 302/461/461 309/462/462 321/483/483
f 309/462/462 309/462/462 302/461/461
f 309/462/462 306/484/484 309/462/462
f 306/484/484 306/484/484 309/462/462
f 306/484/484 306/484/484 306/484/484
f 313/485/485 306/484/484 306/484/484
f 313/485/485 307/486/486 306/484/484
f 322/487/487 307/486/486 313/485/485
f 322/487/487 308/488/488 307/486/486
f 323/489/489 308/488/488 322/487/487
f 323/489/489 304/490/490 308/488/488
f 316/491/491 304/490/490 323/489/489
f 316/491/491 316/491/491 304/490/490
f 302/454/454 316/491/491 316/491/491
f 302/454/454 302/454/454 316/491/491
f 320/492/492 302/454/454 302/454/454
f 320/492/492 300/452/452 302/454/454
f 318/493/493 300/452/452 320/492/492
f 318/493/493 318/493/493 300/452/452
f 298/494/494 318/493/493 318/493/493
f 298/494/494 298/494/494 318/493/493
f 297/495/495 298/494/494 298/494/494
f 297/495/495 324/496/496 298/494/494
f 324/496/496 324/496/496 297/495/495
f 324/496/496 324/497/497 324/496/496
f 324/497/497 324/497/497 324/496/496
f 324/497/497 324/497/497 324/497/497
f 317/498/498 324/497/497 324/497/497
f 317/498/498 298/499/499 324/497/497
f 298/499/499 298/499/499 317/498/498
f 298/499/499 325/500/500 298/499/499
f 325/500/500 325/500/500 298/499/499
f 325/500/500 325/500/500 325/500/500
f 326/501/501 325/500/500 325/500/500
f 326/501/501 327/502/502 325/500/500
f 328/503/503 327/502/502 326/501/501
f 328/503/503 329/504/504 327/502/502
f 330/505/505 329/504/504 328/503/503
f 330/505/505 331/506/506 329/504/504
f 332/507/507 331/506/506 330/505/505
f 332/507/507 333/508/508 331/506/506
f 334/509/509 333/508/508 332/507/507
f 334/509/509 335/510/510 333/508/508
f 336/511/511 335/510/510 334/509/509
f 336/511/511 336/511/511 335/510/510
f 337/512/512 336/511/511 336/511/511
f 337/512/512 337/512/512 336/511/511
f 336/513/513 337/512/512 337/512/512
f 336/513/513 338/514/514 337/512/512
f 334/515/515 338/514/514 336/513/513
f 334/515/515 339/516/516 338/514/514
f 332/517/517 339/516/516 334/515/515
f 332/517/517 340/518/518 339/516/516
f 330/519/519 340/518/518 332/517/517
f 330/519/519 341/520/520 340/518/518
f 328/521/521 341/520/520 330/519/519
f 328/521/521 342/522/522 341/520/520
f 326/523/523 342/522/522 328/521/521
f 326/523/523 326/523/523 342/522/522
f 335/524/524 326/523/523 326/523/523
f 335/524/524 335/524/524 326/523/523
f 337/525/525 335/524/524 335/524/524
f 337/525/525 333/526/526 335/524/524
f 338/527/527 333/526/526 337/525/525
f 338/527/527 331/528/528 333/526/526
f 339/529/529 331/528/528 338/527/527
f 339/529/529 329/530/530 331/528/528
f 340/531/531 329/530/530 339/529/529
f 340/531/531 327/532/532 329/530/530
f 341/533/533 327/532/532 340/531/531
f 341/533/533 325/534/534 327/532/532
f 342/535/535 325/534/534 341/533/533
