#
# Exported by OpenBRF -- marco tarini
#
s fysg_fanzi12
newmtl fysg_cheng_deng
Ka 0.8 0.8 0.8
Kd 0.2 0.2 0.2
usemtl fysg_cheng_deng
v -0.988458 10.2873 12.3073
v -0.988458 9.53236 12.3073
v -1.03929 10.2873 12.3073
v -1.03929 9.53236 12.3073
v -1.01387 10.2873 12.2751
v -1.01387 9.53236 12.2751
v -1.05183 9.30786 12.5451
v -0.76767 9.30786 12.4003
v -1.03544 9.18217 12.4417
v -0.860999 9.18217 12.3528
v -0.817548 9.30786 12.0853
v -0.891613 9.18217 12.1594
v -1.13254 9.30786 12.0354
v -1.08499 9.18217 12.1288
v -1.27733 9.30786 12.3196
v -1.17389 9.18217 12.3032
v -1.05183 9.74024 12.5451
v -0.76767 9.74024 12.4003
v -0.817548 9.74024 12.0853
v -1.13254 9.74024 12.0354
v -1.27733 9.74024 12.3196
v -1.03544 9.86591 12.4417
v -0.860999 9.86591 12.3528
v -0.891613 9.86591 12.1594
v -1.08499 9.86591 12.1288
v -1.17389 9.86591 12.3032
v -0.988458 9.29247 12.3073
v -0.988458 8.53753 12.3073
v -1.03929 9.29247 12.3073
v -1.03929 8.53753 12.3073
v -1.01387 9.29247 12.2751
v -1.01387 8.53753 12.2751
v -1.05183 8.31303 12.5451
v -0.76767 8.31303 12.4003
v -1.03544 8.18734 12.4417
v -0.860999 8.18734 12.3528
v -0.817548 8.31303 12.0853
v -0.891613 8.18734 12.1594
v -1.13254 8.31303 12.0354
v -1.08499 8.18734 12.1288
v -1.27733 8.31303 12.3196
v -1.17389 8.18734 12.3032
v -1.05183 8.74541 12.5451
v -0.76767 8.74541 12.4003
v -0.817548 8.74541 12.0853
v -1.13254 8.74541 12.0354
v -1.27733 8.74541 12.3196
v -1.03544 8.87108 12.4417
v -0.860999 8.87108 12.3528
v -0.891613 8.87108 12.1594
v -1.08499 8.87108 12.1288
v -1.17389 8.87108 12.3032
v 5.08976 9.29247 12.3073
v 5.08976 8.53753 12.3073
v 5.03893 9.29247 12.3073
v 5.03893 8.53753 12.3073
v 5.06435 9.29247 12.2751
v 5.06435 8.53753 12.2751
v 5.02639 8.31303 12.5451
v 5.31055 8.31303 12.4003
v 5.04278 8.18734 12.4417
v 5.21722 8.18734 12.3528
v 5.26068 8.31303 12.0853
v 5.18661 8.18734 12.1594
v 4.94568 8.31303 12.0355
v 4.99323 8.18734 12.1288
v 4.8009 8.31303 12.3196
v 4.90433 8.18734 12.3032
v 5.02639 8.74541 12.5451
v 5.31055 8.74541 12.4003
v 5.26068 8.74541 12.0853
v 4.94568 8.74541 12.0355
v 4.8009 8.74541 12.3196
v 5.04278 8.87108 12.4417
v 5.21722 8.87108 12.3528
v 5.18661 8.87108 12.1594
v 4.99323 8.87108 12.1288
v 4.90433 8.87108 12.3032
v 5.08976 10.2873 12.3073
v 5.08976 9.53236 12.3073
v 5.03893 10.2873 12.3073
v 5.03893 9.53236 12.3073
v 5.06435 10.2873 12.2751
v 5.06435 9.53236 12.2751
v 5.02639 9.30786 12.5451
v 5.31055 9.30786 12.4003
v 5.04278 9.18217 12.4417
v 5.21722 9.18217 12.3528
v 5.26068 9.30786 12.0853
v 5.18661 9.18217 12.1594
v 4.94568 9.30786 12.0355
v 4.99323 9.18217 12.1288
v 4.8009 9.30786 12.3196
v 4.90433 9.18217 12.3032
v 5.02639 9.74024 12.5451
v 5.31055 9.74024 12.4003
v 5.26068 9.74024 12.0853
v 4.94568 9.74024 12.0355
v 4.8009 9.74024 12.3196
v 5.04278 9.86591 12.4417
v 5.21722 9.86591 12.3528
v 5.18661 9.86591 12.1594
v 4.99323 9.86591 12.1288
v 4.90433 9.86591 12.3032
vn 0 0 1
vt 0.95947 1.23527
vn 0 0 1
vt 0.917601 -0.235265
vn 0 0 1
vt 0.917601 1.23527
vn 0 0 1
vt 0.95947 -0.235265
vn -0.784673 0 -0.61991
vt 0.930668 1.23527
vn -0.784673 0 -0.61991
vt 0.893846 -0.235265
vn -0.784673 0 -0.61991
vt 0.893846 1.23527
vn -0.784673 0 -0.61991
vt 0.930668 -0.235265
vn 0.784687 0 -0.619893
vt 0.983963 -0.235265
vn 0.784687 0 -0.619893
vt 0.893108 1.23527
vn 0.784687 0 -0.619893
vt 0.893108 -0.235265
vn 0.784687 0 -0.619893
vt 0.983963 1.23527
vn 0.123428 -0.621 0.774032
vt 0.345576 0.00049901
vn 0.443788 -0.210463 0.871067
vt 0.437333 0.184124
vn 0.280048 -0.202573 0.93837
vt 0.345576 0.184124
vn 0.376411 -0.559032 0.738781
vt 0.44147 0.00049901
vn 0.818943 -0.559033 -0.129668
vt 0.014393 0.00049901
vn 0.89931 -0.30784 -0.310605
vt 0.092868 0.184124
vn 0.984098 -0.0852482 -0.155831
vt 0.010257 0.184124
vn 0.355102 -0.620991 -0.698765
vt 0.094837 0.00049901
vn -0.554829 -0.620982 -0.553667
vt 0.169237 0.00049901
vn -0.91014 -0.307812 -0.277305
vt 0.253818 0.184124
vn -0.778132 -0.202586 -0.594532
vt 0.171207 0.184124
vn -0.698029 -0.620967 0.356588
vt 0.249681 0.00049901
vn 0.452301 0.0852448 0.887782
vt 0.437333 0.815876
vn 0.443787 0.210473 0.871065
vt 0.345576 0.815876
vn -0.88776 0.0852331 -0.452347
vt 0.253818 0.815876
vn -0.871042 0.210467 -0.443835
vt 0.171207 0.815876
vn 0.376388 0.559074 0.738762
vt 0.44147 0.9995
vn -0.356612 0.621032 0.697959
vt 0.345576 0.9995
vn 0.965567 0.210484 -0.152892
vt 0.010257 0.815876
vn 0.698729 0.621072 -0.355032
vt 0.094837 0.9995
vn 0.818891 0.559116 -0.129642
vt 0.014393 0.9995
vn 0.923791 0.202589 -0.324912
vt 0.092868 0.815876
vn -0.774 0.621033 -0.12346
vt 0.249681 0.9995
vn -0.121745 0.621047 -0.77426
vt 0.169237 0.9995
vn 0 -1 0
vt 0.517796 0.277199
vn 0 -1 0
vt 0.877733 0.274058
vn 0 -1 0
vt 0.698905 0.406383
vn 0 -1 0
vt 0.584692 0.065033
vn 0 -1 0
vt 0.807144 0.063092
vn 0 1 0
vt 0.687099 0.947451
vn 0 1 0
vt 0.811574 0.552667
vn 0 1 0
vt 0.89275 0.795277
vn 0 1 0
vt 0.478824 0.798889
vn 0 1 0
vt 0.555753 0.554899
vn 0 0 1
vt 0.95947 1.23527
vn 0 0 1
vt 0.917601 -0.235265
vn 0 0 1
vt 0.917601 1.23527
vn 0 0 1
vt 0.95947 -0.235265
vn -0.784673 0 -0.61991
vt 0.930668 1.23527
vn -0.784673 0 -0.61991
vt 0.893846 -0.235265
vn -0.784673 0 -0.61991
vt 0.893846 1.23527
vn -0.784673 0 -0.61991
vt 0.930668 -0.235265
vn 0.784687 0 -0.619893
vt 0.983963 -0.235265
vn 0.784687 0 -0.619893
vt 0.893108 1.23527
vn 0.784687 0 -0.619893
vt 0.893108 -0.235265
vn 0.784687 0 -0.619893
vt 0.983963 1.23527
vn 0.123428 -0.621 0.774032
vt 0.345576 0.00049901
vn 0.443788 -0.210463 0.871067
vt 0.437333 0.184124
vn 0.280048 -0.202573 0.93837
vt 0.345576 0.184124
vn 0.376411 -0.559032 0.738781
vt 0.44147 0.00049901
vn 0.818943 -0.559033 -0.129668
vt 0.014393 0.00049901
vn 0.89931 -0.30784 -0.310605
vt 0.092868 0.184124
vn 0.984098 -0.0852482 -0.155831
vt 0.010257 0.184124
vn 0.355102 -0.620991 -0.698765
vt 0.094837 0.00049901
vn -0.554829 -0.620982 -0.553667
vt 0.169237 0.00049901
vn -0.91014 -0.307812 -0.277305
vt 0.253818 0.184124
vn -0.778132 -0.202586 -0.594532
vt 0.171207 0.184124
vn -0.698029 -0.620967 0.356588
vt 0.249681 0.00049901
vn 0.452301 0.0852448 0.887782
vt 0.437333 0.815876
vn 0.443787 0.210473 0.871065
vt 0.345576 0.815876
vn -0.88776 0.0852331 -0.452347
vt 0.253818 0.815876
vn -0.871042 0.210467 -0.443835
vt 0.171207 0.815876
vn 0.376388 0.559074 0.738762
vt 0.44147 0.9995
vn -0.356612 0.621032 0.697959
vt 0.345576 0.9995
vn 0.965567 0.210484 -0.152892
vt 0.010257 0.815876
vn 0.698729 0.621072 -0.355032
vt 0.094837 0.9995
vn 0.818891 0.559116 -0.129642
vt 0.014393 0.9995
vn 0.923791 0.202589 -0.324912
vt 0.092868 0.815876
vn -0.774 0.621033 -0.12346
vt 0.249681 0.9995
vn -0.121745 0.621047 -0.77426
vt 0.169237 0.9995
vn 0 -1 0
vt 0.517796 0.277199
vn 0 -1 0
vt 0.877733 0.274058
vn 0 -1 0
vt 0.698905 0.406383
vn 0 -1 0
vt 0.584692 0.065033
vn 0 -1 0
vt 0.807144 0.063092
vn 0 1 0
vt 0.687099 0.947451
vn 0 1 0
vt 0.811574 0.552667
vn 0 1 0
vt 0.89275 0.795277
vn 0 1 0
vt 0.478824 0.798889
vn 0 1 0
vt 0.555753 0.554899
vn 0 0 1
vt 0.95947 1.23527
vn 0 0 1
vt 0.917601 -0.235265
vn 0 0 1
vt 0.917601 1.23527
vn 0 0 1
vt 0.95947 -0.235265
vn -0.784686 0 -0.619894
vt 0.930668 1.23527
vn -0.784686 0 -0.619894
vt 0.893846 -0.235265
vn -0.784686 0 -0.619894
vt 0.893846 1.23527
vn -0.784686 0 -0.619894
vt 0.930668 -0.235265
vn 0.784692 0 -0.619886
vt 0.983963 -0.235265
vn 0.784692 0 -0.619886
vt 0.893108 1.23527
vn 0.784692 0 -0.619886
vt 0.893108 -0.235265
vn 0.784692 0 -0.619886
vt 0.983963 1.23527
vn 0.123428 -0.620996 0.774034
vt 0.345576 0.00049901
vn 0.44379 -0.210462 0.871066
vt 0.437333 0.184124
vn 0.280051 -0.202572 0.938369
vt 0.345576 0.184124
vn 0.376408 -0.559023 0.73879
vt 0.44147 0.00049901
vn 0.818941 -0.559036 -0.129668
vt 0.014393 0.00049901
vn 0.89931 -0.307842 -0.310605
vt 0.092868 0.184124
vn 0.984098 -0.0852487 -0.155831
vt 0.010257 0.184124
vn 0.355103 -0.620992 -0.698764
vt 0.094837 0.00049901
vn -0.554831 -0.620981 -0.553666
vt 0.169237 0.00049901
vn -0.91014 -0.307811 -0.277303
vt 0.253818 0.184124
vn -0.778134 -0.202586 -0.59453
vt 0.171207 0.184124
vn -0.698031 -0.620965 0.356588
vt 0.249681 0.00049901
vn 0.452304 0.0852434 0.887781
vt 0.437333 0.815876
vn 0.443789 0.210472 0.871064
vt 0.345576 0.815876
vn -0.887761 0.0852326 -0.452344
vt 0.253818 0.815876
vn -0.871043 0.210466 -0.443833
vt 0.171207 0.815876
vn 0.376388 0.559072 0.738763
vt 0.44147 0.9995
vn -0.356612 0.621032 0.697959
vt 0.345576 0.9995
vn 0.965567 0.210486 -0.152892
vt 0.010257 0.815876
vn 0.698728 0.621074 -0.355031
vt 0.094837 0.9995
vn 0.818889 0.559118 -0.129643
vt 0.014393 0.9995
vn 0.923791 0.20259 -0.324912
vt 0.092868 0.815876
vn -0.774001 0.621032 -0.123461
vt 0.249681 0.9995
vn -0.121745 0.621047 -0.77426
vt 0.169237 0.9995
vn 0 -1 0
vt 0.517796 0.277199
vn 0 -1 0
vt 0.877733 0.274058
vn 0 -1 0
vt 0.698905 0.406383
vn 0 -1 0
vt 0.584692 0.065033
vn 0 -1 0
vt 0.807144 0.063092
vn 0 1 0
vt 0.687099 0.947451
vn 0 1 0
vt 0.811574 0.552667
vn 0 1 0
vt 0.89275 0.795277
vn 0 1 0
vt 0.478824 0.798889
vn 0 1 0
vt 0.555753 0.554899
vn 0 0 1
vt 0.95947 1.23527
vn 0 0 1
vt 0.917601 -0.235265
vn 0 0 1
vt 0.917601 1.23527
vn 0 0 1
vt 0.95947 -0.235265
vn -0.784686 0 -0.619894
vt 0.930668 1.23527
vn -0.784686 0 -0.619894
vt 0.893846 -0.235265
vn -0.784686 0 -0.619894
vt 0.893846 1.23527
vn -0.784686 0 -0.619894
vt 0.930668 -0.235265
vn 0.784692 0 -0.619886
vt 0.983963 -0.235265
vn 0.784692 0 -0.619886
vt 0.893108 1.23527
vn 0.784692 0 -0.619886
vt 0.893108 -0.235265
vn 0.784692 0 -0.619886
vt 0.983963 1.23527
vn 0.123428 -0.620996 0.774034
vt 0.345576 0.00049901
vn 0.44379 -0.210462 0.871066
vt 0.437333 0.184124
vn 0.280051 -0.202572 0.938369
vt 0.345576 0.184124
vn 0.376408 -0.559023 0.73879
vt 0.44147 0.00049901
vn 0.818941 -0.559036 -0.129668
vt 0.014393 0.00049901
vn 0.89931 -0.307842 -0.310605
vt 0.092868 0.184124
vn 0.984098 -0.0852487 -0.155831
vt 0.010257 0.184124
vn 0.355103 -0.620992 -0.698764
vt 0.094837 0.00049901
vn -0.554831 -0.620981 -0.553666
vt 0.169237 0.00049901
vn -0.91014 -0.307811 -0.277303
vt 0.253818 0.184124
vn -0.778134 -0.202586 -0.59453
vt 0.171207 0.184124
vn -0.698031 -0.620965 0.356588
vt 0.249681 0.00049901
vn 0.452304 0.0852434 0.887781
vt 0.437333 0.815876
vn 0.443789 0.210472 0.871064
vt 0.345576 0.815876
vn -0.887761 0.0852326 -0.452344
vt 0.253818 0.815876
vn -0.871043 0.210466 -0.443833
vt 0.171207 0.815876
vn 0.376388 0.559072 0.738763
vt 0.44147 0.9995
vn -0.356612 0.621032 0.697959
vt 0.345576 0.9995
vn 0.965567 0.210486 -0.152892
vt 0.010257 0.815876
vn 0.698728 0.621074 -0.355031
vt 0.094837 0.9995
vn 0.818889 0.559118 -0.129643
vt 0.014393 0.9995
vn 0.923791 0.20259 -0.324912
vt 0.092868 0.815876
vn -0.774001 0.621032 -0.123461
vt 0.249681 0.9995
vn -0.121745 0.621047 -0.77426
vt 0.169237 0.9995
vn 0 -1 0
vt 0.517796 0.277199
vn 0 -1 0
vt 0.877733 0.274058
vn 0 -1 0
vt 0.698905 0.406383
vn 0 -1 0
vt 0.584692 0.065033
vn 0 -1 0
vt 0.807144 0.063092
vn 0 1 0
vt 0.687099 0.947451
vn 0 1 0
vt 0.811574 0.552667
vn 0 1 0
vt 0.89275 0.795277
vn 0 1 0
vt 0.478824 0.798889
vn 0 1 0
vt 0.555753 0.554899
vn 0.156452 0 -0.987686
vt 0.092868 0.184124
vn 0.155883 0.0852379 -0.984091
vt 0.171207 0.815876
vn 0.156452 0 -0.987686
vt 0.092868 0.815876
vn 0.156452 0 -0.987686
vt 0.171207 0.184124
vn -0.707137 0 0.707077
vt 0.253818 0.184124
vn -0.704563 0.08524 0.704503
vt 0.345576 0.815876
vn -0.691295 0.21046 0.691244
vt 0.253818 0.815876
vn -0.707137 0 0.707077
vt 0.345576 0.184124
vn 0.156452 0 -0.987686
vt 0.092868 0.184124
vn 0.155883 0.0852379 -0.984091
vt 0.171207 0.815876
vn 0.156452 0 -0.987686
vt 0.092868 0.815876
vn 0.156452 0 -0.987686
vt 0.171207 0.184124
vn -0.707137 0 0.707077
vt 0.253818 0.184124
vn -0.704563 0.08524 0.704503
vt 0.345576 0.815876
vn -0.691295 0.21046 0.691244
vt 0.253818 0.815876
vn -0.707137 0 0.707077
vt 0.345576 0.184124
vn 0.156452 0 -0.987686
vt 0.092868 0.184124
vn 0.155882 0.0852379 -0.984091
vt 0.171207 0.815876
vn 0.156452 0 -0.987686
vt 0.092868 0.815876
vn 0.156452 0 -0.987686
vt 0.171207 0.184124
vn -0.707135 0 0.707078
vt 0.253818 0.184124
vn -0.704562 0.0852388 0.704505
vt 0.345576 0.815876
vn -0.691294 0.210459 0.691245
vt 0.253818 0.815876
vn -0.707135 0 0.707078
vt 0.345576 0.184124
vn 0.156452 0 -0.987686
vt 0.092868 0.184124
vn 0.155882 0.0852379 -0.984091
vt 0.171207 0.815876
vn 0.156452 0 -0.987686
vt 0.092868 0.815876
vn 0.156452 0 -0.987686
vt 0.171207 0.184124
vn -0.707135 0 0.707078
vt 0.253818 0.184124
vn -0.704562 0.0852388 0.704505
vt 0.345576 0.815876
vn -0.691294 0.210459 0.691245
vt 0.253818 0.815876
vn -0.707135 0 0.707078
vt 0.345576 0.184124
f 3/1/1 2/2/2 1/3/3
f 2/2/2 3/1/1 4/4/4
f 5/5/5 4/6/6 3/7/7
f 4/6/6 5/5/5 6/8/8
f 6/9/9 1/10/10 2/11/11
f 1/10/10 6/9/9 5/12/12
f 9/13/13 8/14/14 7/15/15
f 8/14/14 9/13/13 10/16/16
f 10/17/17 11/18/18 8/19/19
f 11/18/18 10/17/17 12/20/20
f 14/21/21 15/22/22 13/23/23
f 15/22/22 14/21/21 16/24/24
f 7/15/15 18/25/25 17/26/26
f 18/25/25 7/15/15 8/14/14
f 13/23/23 21/27/27 20/28/28
f 21/27/27 13/23/23 15/22/22
f 17/26/26 23/29/29 22/30/30
f 23/29/29 17/26/26 18/25/25
f 18/31/31 24/32/32 23/33/33
f 24/32/32 18/31/31 19/34/34
f 20/28/28 26/35/35 25/36/36
f 26/35/35 20/28/28 21/27/27
f 14/37/37 9/38/38 16/39/39
f 12/40/40 9/38/38 14/37/37
f 10/41/41 9/38/38 12/40/40
f 23/42/42 26/43/43 22/44/44
f 24/45/45 26/43/43 23/42/42
f 25/46/46 26/43/43 24/45/45
f 29/47/47 28/48/48 27/49/49
f 28/48/48 29/47/47 30/50/50
f 31/51/51 30/52/52 29/53/53
f 30/52/52 31/51/51 32/54/54
f 32/55/55 27/56/56 28/57/57
f 27/56/56 32/55/55 31/58/58
f 35/59/59 34/60/60 33/61/61
f 34/60/60 35/59/59 36/62/62
f 36/63/63 37/64/64 34/65/65
f 37/64/64 36/63/63 38/66/66
f 40/67/67 41/68/68 39/69/69
f 41/68/68 40/67/67 42/70/70
f 33/61/61 44/71/71 43/72/72
f 44/71/71 33/61/61 34/60/60
f 39/69/69 47/73/73 46/74/74
f 47/73/73 39/69/69 41/68/68
f 43/72/72 49/75/75 48/76/76
f 49/75/75 43/72/72 44/71/71
f 44/77/77 50/78/78 49/79/79
f 50/78/78 44/77/77 45/80/80
f 46/74/74 52/81/81 51/82/82
f 52/81/81 46/74/74 47/73/73
f 40/83/83 35/84/84 42/85/85
f 38/86/86 35/84/84 40/83/83
f 36/87/87 35/84/84 38/86/86
f 49/88/88 52/89/89 48/90/90
f 50/91/91 52/89/89 49/88/88
f 51/92/92 52/89/89 50/91/91
f 55/93/93 54/94/94 53/95/95
f 54/94/94 55/93/93 56/96/96
f 57/97/97 56/98/98 55/99/99
f 56/98/98 57/97/97 58/100/100
f 58/101/101 53/102/102 54/103/103
f 53/102/102 58/101/101 57/104/104
f 61/105/105 60/106/106 59/107/107
f 60/106/106 61/105/105 62/108/108
f 62/109/109 63/110/110 60/111/111
f 63/110/110 62/109/109 64/112/112
f 66/113/113 67/114/114 65/115/115
f 67/114/114 66/113/113 68/116/116
f 59/107/107 70/117/117 69/118/118
f 70/117/117 59/107/107 60/106/106
f 65/115/115 73/119/119 72/120/120
f 73/119/119 65/115/115 67/114/114
f 69/118/118 75/121/121 74/122/122
f 75/121/121 69/118/118 70/117/117
f 70/123/123 76/124/124 75/125/125
f 76/124/124 70/123/123 71/126/126
f 72/120/120 78/127/127 77/128/128
f 78/127/127 72/120/120 73/119/119
f 66/129/129 61/130/130 68/131/131
f 64/132/132 61/130/130 66/129/129
f 62/133/133 61/130/130 64/132/132
f 75/134/134 78/135/135 74/136/136
f 76/137/137 78/135/135 75/134/134
f 77/138/138 78/135/135 76/137/137
f 81/139/139 80/140/140 79/141/141
f 80/140/140 81/139/139 82/142/142
f 83/143/143 82/144/144 81/145/145
f 82/144/144 83/143/143 84/146/146
f 84/147/147 79/148/148 80/149/149
f 79/148/148 84/147/147 83/150/150
f 87/151/151 86/152/152 85/153/153
f 86/152/152 87/151/151 88/154/154
f 88/155/155 89/156/156 86/157/157
f 89/156/156 88/155/155 90/158/158
f 92/159/159 93/160/160 91/161/161
f 93/160/160 92/159/159 94/162/162
f 85/153/153 96/163/163 95/164/164
f 96/163/163 85/153/153 86/152/152
f 91/161/161 99/165/165 98/166/166
f 99/165/165 91/161/161 93/160/160
f 95/164/164 101/167/167 100/168/168
f 101/167/167 95/164/164 96/163/163
f 96/169/169 102/170/170 101/171/171
f 102/170/170 96/169/169 97/172/172
f 98/166/166 104/173/173 103/174/174
f 104/173/173 98/166/166 99/165/165
f 92/175/175 87/176/176 94/177/177
f 90/178/178 87/176/176 92/175/175
f 88/179/179 87/176/176 90/178/178
f 101/180/180 104/181/181 100/182/182
f 102/183/183 104/181/181 101/180/180
f 103/184/184 104/181/181 102/183/183
f 12/20/20 13/23/23 11/18/18
f 13/23/23 12/20/20 14/21/21
f 16/24/24 7/15/15 15/22/22
f 7/15/15 16/24/24 9/13/13
f 11/185/185 20/186/186 19/187/187
f 20/186/186 11/185/185 13/188/188
f 15/189/189 17/190/190 21/191/191
f 17/190/190 15/189/189 7/192/192
f 19/34/34 25/36/36 24/32/32
f 25/36/36 19/34/34 20/186/186
f 21/191/191 22/30/30 26/35/35
f 22/30/30 21/191/191 17/190/190
f 38/66/66 39/69/69 37/64/64
f 39/69/69 38/66/66 40/67/67
f 42/70/70 33/61/61 41/68/68
f 33/61/61 42/70/70 35/59/59
f 37/193/193 46/194/194 45/195/195
f 46/194/194 37/193/193 39/196/196
f 41/197/197 43/198/198 47/199/199
f 43/198/198 41/197/197 33/200/200
f 45/80/80 51/82/82 50/78/78
f 51/82/82 45/80/80 46/194/194
f 47/199/199 48/76/76 52/81/81
f 48/76/76 47/199/199 43/198/198
f 64/112/112 65/115/115 63/110/110
f 65/115/115 64/112/112 66/113/113
f 68/116/116 59/107/107 67/114/114
f 59/107/107 68/116/116 61/105/105
f 63/201/201 72/202/202 71/203/203
f 72/202/202 63/201/201 65/204/204
f 67/205/205 69/206/206 73/207/207
f 69/206/206 67/205/205 59/208/208
f 71/126/126 77/128/128 76/124/124
f 77/128/128 71/126/126 72/202/202
f 73/207/207 74/122/122 78/127/127
f 74/122/122 73/207/207 69/206/206
f 90/158/158 91/161/161 89/156/156
f 91/161/161 90/158/158 92/159/159
f 94/162/162 85/153/153 93/160/160
f 85/153/153 94/162/162 87/151/151
f 89/209/209 98/210/210 97/211/211
f 98/210/210 89/209/209 91/212/212
f 93/213/213 95/214/214 99/215/215
f 95/214/214 93/213/213 85/216/216
f 97/172/172 103/174/174 102/170/170
f 103/174/174 97/172/172 98/210/210
f 99/215/215 100/168/168 104/173/173
f 100/168/168 99/215/215 95/214/214
f 8/19/19 19/34/34 18/31/31
f 19/34/34 8/19/19 11/18/18
f 34/65/65 45/80/80 44/77/77
f 45/80/80 34/65/65 37/64/64
f 60/111/111 71/126/126 70/123/123
f 71/126/126 60/111/111 63/110/110
f 86/157/157 97/172/172 96/169/169
f 97/172/172 86/157/157 89/156/156
