#
# Exported by OpenBRF -- marco tarini
#
s fysg_fanzi27
newmtl fysg_cheng_qiang12
Ka 0.8 0.8 0.8
Kd 0.2 0.2 0.2
usemtl fysg_cheng_qiang12
v -20.2443 6.74927 35.4006
v 20.5069 6.74927 35.4006
v 20.5069 6.94057 35.4006
v 18.9043 6.9281 35.4006
v 18.9094 7.45657 35.4006
v 17.3068 7.4441 35.4006
v 17.3119 7.97257 35.4006
v 15.7092 7.9601 35.4006
v 15.7144 8.48857 35.4006
v 14.1117 8.4761 35.4006
v 14.1169 9.00457 35.4006
v 12.5142 8.9921 35.4006
v -12.2516 8.9921 35.4006
v -13.8542 9.00457 35.4006
v -13.8491 8.4761 35.4006
v -15.4517 8.48857 35.4006
v -15.4466 7.9601 35.4006
v -17.0493 7.97257 35.4006
v -17.0441 7.4441 35.4006
v -18.6468 7.45657 35.4006
v -18.6417 6.9281 35.4006
v -20.2443 6.94057 35.4006
v -15.4466 7.9601 23.6182
v -17.0493 7.97257 23.6182
v -20.2443 6.74927 23.6182
v -20.2443 6.94057 23.6182
v -12.2516 8.9921 23.6182
v -13.8542 9.00457 23.6182
v -13.8491 8.4761 23.6182
v -15.4517 8.48857 23.6182
v -18.6417 6.9281 23.6182
v -18.6468 7.45657 23.6182
v -17.0441 7.4441 23.6182
v 17.3119 7.97257 23.6182
v 15.7092 7.9601 23.6182
v 20.5069 6.74927 23.6182
v 20.5069 6.94057 23.6182
v 12.5142 8.9921 23.6182
v 14.1169 9.00457 23.6182
v 14.1117 8.4761 23.6182
v 15.7144 8.48857 23.6182
v 18.9043 6.9281 23.6182
v 18.9094 7.45657 23.6182
v 17.3068 7.4441 23.6182
v -23.622 6.74927 -23.6003
v -23.622 6.74927 23.6438
v 23.622 6.74927 -23.6003
v 23.622 6.74927 23.6438
v -20.2443 6.74927 -35.3137
v 20.5069 6.74927 -35.3137
v 20.5069 6.94057 -35.3137
v 18.9043 6.9281 -35.3137
v 18.9094 7.45657 -35.3137
v 17.3068 7.4441 -35.3137
v 17.3119 7.97257 -35.3137
v 15.7092 7.9601 -35.3137
v 15.7144 8.48857 -35.3137
v 14.1117 8.4761 -35.3137
v 14.1169 9.00457 -35.3137
v 12.5142 8.9921 -35.3137
v -12.2516 8.9921 -35.3137
v -13.8542 9.00457 -35.3137
v -13.8491 8.4761 -35.3137
v -15.4517 8.48857 -35.3137
v -15.4466 7.9601 -35.3137
v -17.0493 7.97257 -35.3137
v -17.0441 7.4441 -35.3137
v -18.6468 7.45657 -35.3137
v -18.6417 6.9281 -35.3137
v -20.2443 6.94057 -35.3137
v -15.4466 7.9601 -23.5312
v -17.0493 7.97257 -23.5312
v -20.2443 6.74927 -23.5312
v -20.2443 6.94057 -23.5312
v -12.2516 8.9921 -23.5312
v -13.8542 9.00457 -23.5312
v -13.8491 8.4761 -23.5312
v -15.4517 8.48857 -23.5312
v -18.6417 6.9281 -23.5312
v -18.6468 7.45657 -23.5312
v -17.0441 7.4441 -23.5312
v 17.3119 7.97257 -23.5312
v 15.7092 7.9601 -23.5312
v 20.5069 6.74927 -23.5312
v 20.5069 6.94057 -23.5312
v 12.5142 8.9921 -23.5312
v 14.1169 9.00457 -23.5312
v 14.1117 8.4761 -23.5312
v 15.7144 8.48857 -23.5312
v 18.9043 6.9281 -23.5312
v 18.9094 7.45657 -23.5312
v 17.3068 7.4441 -23.5312
v 12.5193 9.52057 35.4006
v -12.2567 9.52057 35.4006
v 12.5193 9.52057 23.6182
v -12.2567 9.52057 23.6182
v -23.622 9.52057 -23.6003
v -23.622 9.52057 23.6438
v 23.622 9.52057 -23.6003
v 23.622 9.52057 23.6438
v 12.5193 9.52057 -35.3137
v -12.2567 9.52057 -35.3137
v 12.5193 9.52057 -23.5312
v -12.2567 9.52057 -23.5312
vn 0 0 1
vt -5.9238 0.00049901
vn 0 0 1
vt -5.9238 0.069459
vn 0 0 1
vt -5.62032 0.064964
vn 0 0 1
vt 0.279292 0.808997
vn 0 0 1
vt -5.62129 0.255468
vn 0 0 1
vt -5.31782 0.250972
vn 0 0 1
vt -5.01532 0.436981
vn 0 0 1
vt -5.31879 0.441476
vn 0 0 1
vt -5.01629 0.627484
vn 0 0 1
vt -4.71281 0.622989
vn 0 0 1
vt 0.280263 0.9995
vn 0 0 1
vt -4.71378 0.813492
vn 0 0 1
vt -4.41031 0.808997
vn 0 0 1
vt -4.41128 0.9995
vn 0 0 1
vt 0.582767 0.813492
vn 0 0 1
vt 0.581795 0.622989
vn 0 0 1
vt 0.885271 0.627484
vn 0 0 1
vt 0.884299 0.436981
vn 0 0 1
vt 1.18778 0.441476
vn 0 0 1
vt 1.1868 0.250972
vn 0 0 1
vt 1.49028 0.255468
vn 0 0 1
vt 1.48931 0.064964
vn 0 0 1
vt 1.79278 0.00049901
vn 0 0 1
vt 1.79278 0.069459
vn 0.00778024 0.99997 0
vt -0.00263 0.585618
vn 0.00778024 0.99997 0
vt 1.00582 0.585618
vn 0.00778024 0.99997 0
vt 1.00582 0.413917
vn 0.00778024 0.99997 0
vt -0.00263 0.413916
vn -1 0 0
vt 0.0005 0.00049901
vn -1 0 0
vt 0.0005 0.069459
vn -1 0 0
vt 0.999501 0.06946
vn -1 0 0
vt 0.999501 0.00049901
vn -0.999953 -0.00964872 0
vt 0.0005 0.9995
vn -0.999953 -0.00964872 0
vt 0.9995 0.9995
vn -0.999953 -0.00964872 0
vt 0.9995 0.808997
vn -0.999953 -0.00964872 0
vt 0.0005 0.808997
vn 0.00778102 0.99997 0
vt -0.005792 0.568679
vn 0.00778102 0.99997 0
vt 1.00266 0.568679
vn 0.00778102 0.99997 0
vt 1.00266 0.778213
vn 0.00778102 0.99997 0
vt -0.005792 0.778214
vn -0.999953 -0.00965052 0
vt 0.0005 0.813492
vn -0.999953 -0.00965052 0
vt 0.9995 0.813492
vn -0.999953 -0.00965052 0
vt 0.9995 0.622989
vn -0.999953 -0.00965052 0
vt 0.0005 0.622989
vn 0.00778102 0.99997 0
vt -0.012114 0.700719
vn 0.00778102 0.99997 0
vt 0.996339 0.700719
vn 0.00778102 0.99997 0
vt 0.996339 0.554239
vn 0.00778102 0.99997 0
vt -0.012114 0.554239
vn -0.999953 -0.00965052 0
vt 0.0005 0.627484
vn -0.999953 -0.00965052 0
vt 0.9995 0.627484
vn -0.999953 -0.00965052 0
vt 0.9995 0.436981
vn -0.999953 -0.00965052 0
vt 0.0005 0.436981
vn 0.00778073 0.99997 0
vt -0.002662 0.013145
vn 0.00778073 0.99997 0
vt 0.996338 0.013144
vn 0.00778073 0.99997 0
vt 0.996338 0.112334
vn 0.00778073 0.99997 0
vt -0.002661 0.112334
vn -0.999953 -0.00964691 0
vt 0.9995 0.064964
vn -0.999953 -0.00964691 0
vt 0.0005 0.064964
vn -0.999953 -0.00964691 0
vt 0.0005 0.255468
vn -0.999953 -0.00964691 0
vt 0.999501 0.255468
vn 0.00778054 0.99997 0
vt -0.008984 0.371593
vn 0.00778054 0.99997 0
vt 0.990015 0.371592
vn 0.00778054 0.99997 0
vt 0.990015 0.486546
vn 0.00778054 0.99997 0
vt -0.008984 0.486546
vn -0.999952 -0.00983818 0
vt 0.9995 0.250973
vn -0.999952 -0.00983818 0
vt 0.0005 0.250972
vn -0.999952 -0.00983818 0
vt 0.0005 0.441476
vn -0.999952 -0.00983818 0
vt 0.9995 0.441476
vn -0.00778024 0.99997 0
vt -0.005823 0.586084
vn -0.00778024 0.99997 0
vt -0.005823 0.414382
vn -0.00778024 0.99997 0
vt 1.00263 0.414382
vn -0.00778024 0.99997 0
vt 1.00263 0.586083
vn 1 0 0
vt 0.0005 0.000500023
vn 1 0 0
vt 0.9995 0.000500023
vn 1 0 0
vt 0.9995 0.06946
vn 1 0 0
vt 0.0005 0.06946
vn 0.999953 -0.00965052 0
vt 0.0005 0.9995
vn 0.999953 -0.00965052 0
vt 0.0005 0.808997
vn 0.999953 -0.00965052 0
vt 0.9995 0.808997
vn 0.999953 -0.00965052 0
vt 0.9995 0.999501
vn -0.00778054 0.99997 0
vt -0.008984 0.568112
vn -0.00778054 0.99997 0
vt -0.008984 0.777645
vn -0.00778054 0.99997 0
vt 0.999469 0.777646
vn -0.00778054 0.99997 0
vt 0.99947 0.568112
vn 0.999952 -0.00983998 0
vt 0.0005 0.813492
vn 0.999952 -0.00983998 0
vt 0.0005 0.622989
vn 0.999952 -0.00983998 0
vt 0.9995 0.622989
vn 0.999952 -0.00983998 0
vt 0.9995 0.813493
vn -0.00778054 0.99997 0
vt -0.015306 0.701116
vn -0.00778054 0.99997 0
vt -0.015306 0.554636
vn -0.00778054 0.99997 0
vt 0.993147 0.554636
vn -0.00778054 0.99997 0
vt 0.993147 0.701116
vn 0.999952 -0.00983998 0
vt 0.0005 0.627484
vn 0.999952 -0.00983998 0
vt 0.0005 0.436981
vn 0.999952 -0.00983998 0
vt 0.9995 0.436981
vn 0.999952 -0.00983998 0
vt 0.9995 0.627484
vn -0.00778073 0.99997 0
vt 0.000501 0.013413
vn -0.00778073 0.99997 0
vt 0.000501 0.112603
vn -0.00778073 0.99997 0
vt 0.999501 0.112603
vn -0.00778073 0.99997 0
vt 0.999501 0.013413
vn 0.999953 -0.00965052 0
vt 0.999499 0.064965
vn 0.999953 -0.00965052 0
vt 0.9995 0.255468
vn 0.999953 -0.00965052 0
vt 0.0005 0.255468
vn 0.999953 -0.00965052 0
vt 0.0005 0.064965
vn -0.00778102 0.99997 0
vt -0.005822 0.371904
vn -0.00778102 0.99997 0
vt -0.005821 0.486857
vn -0.00778102 0.99997 0
vt 0.993178 0.486857
vn -0.00778102 0.99997 0
vt 0.993178 0.371904
vn 0.999953 -0.00964691 0
vt 0.9995 0.250973
vn 0.999953 -0.00964691 0
vt 0.9995 0.441476
vn 0.999953 -0.00964691 0
vt 0.0005 0.441476
vn 0.999953 -0.00964691 0
vt 0.0005 0.250973
vn -1 0 0
vt 2.30821 -0.00749195
vn -1 0 0
vt 2.30821 0.9995
vn -1 0 0
vt -3.42722 0.9995
vn -1 0 0
vt -3.42722 -0.00749195
vn 0 0 -1
vt 2.31527 0.00303
vn 0 0 -1
vt 2.31527 0.999501
vn 0 0 -1
vt -3.42893 0.999501
vn 0 0 -1
vt -3.42893 0.00303
vn 1 0 0
vt 2.30821 -0.00749195
vn 1 0 0
vt -3.42722 -0.00749195
vn 1 0 0
vt -3.42722 0.999501
vn 1 0 0
vt 2.30821 0.999501
vn 0 0 1
vt -3.42893 0.9995
vn 0 0 1
vt 2.31527 0.9995
vn 0 0 1
vt 2.31527 0.00303
vn 0 0 1
vt -3.42893 0.00303
vn 0 0 -1
vt 1.79278 0.000500023
vn 0 0 -1
vt 1.79278 0.06946
vn 0 0 -1
vt 1.48931 0.064965
vn 0 0 -1
vt -5.9238 0.000500023
vn 0 0 -1
vt 1.49028 0.255468
vn 0 0 -1
vt 1.1868 0.250973
vn 0 0 -1
vt 1.18777 0.441476
vn 0 0 -1
vt 0.884297 0.436981
vn 0 0 -1
vt 0.885269 0.627484
vn 0 0 -1
vt 0.581793 0.622989
vn 0 0 -1
vt 0.582765 0.813492
vn 0 0 -1
vt 0.27929 0.808997
vn 0 0 -1
vt 0.280261 0.999501
vn 0 0 -1
vt -4.41128 0.999501
vn 0 0 -1
vt -4.41031 0.808997
vn 0 0 -1
vt -4.71281 0.622989
vn 0 0 -1
vt -4.71378 0.813492
vn 0 0 -1
vt -5.01629 0.627484
vn 0 0 -1
vt -5.01532 0.436981
vn 0 0 -1
vt -5.62032 0.064965
vn 0 0 -1
vt -5.31879 0.441476
vn 0 0 -1
vt -5.31782 0.250973
vn 0 0 -1
vt -5.62129 0.255468
vn 0 0 -1
vt -5.9238 0.06946
vn 0.00778024 0.99997 0
vt 0.916822 0.553985
vn 0.00778024 0.99997 0
vt 0.916822 0.414082
vn 0.00778024 0.99997 0
vt 0.068588 0.414082
vn 0.00778024 0.99997 0
vt 0.068588 0.553985
vn -1 0 0
vt 0.999501 0.000500023
vn -1 0 0
vt 0.0005 0.00049901
vn -1 0 0
vt 0.0005 0.069459
vn -1 0 0
vt 0.999501 0.06946
vn -0.999953 -0.00964872 0
vt 0.999501 0.9995
vn -0.999953 -0.00964872 0
vt 0.999501 0.808997
vn -0.999953 -0.00964872 0
vt 0.0005 0.808997
vn -0.999953 -0.00964872 0
vt 0.0005 0.9995
vn 0.00778102 0.99997 0
vt 0.992205 0.645927
vn 0.00778102 0.99997 0
vt 0.992205 0.766665
vn 0.00778102 0.99997 0
vt -0.009227 0.766665
vn 0.00778102 0.99997 0
vt -0.009227 0.645927
vn -0.999953 -0.00965052 0
vt 0.999501 0.813492
vn -0.999953 -0.00965052 0
vt 0.999501 0.622989
vn -0.999953 -0.00965052 0
vt 0.0005 0.622989
vn -0.999953 -0.00965052 0
vt 0.0005 0.813492
vn 0.00778102 0.99997 0
vt 0.987341 0.70987
vn 0.00778102 0.99997 0
vt 0.987342 0.584341
vn 0.00778102 0.99997 0
vt -0.006796 0.584341
vn 0.00778102 0.99997 0
vt -0.006796 0.70987
vn -0.999953 -0.00965052 0
vt 0.999501 0.627484
vn -0.999953 -0.00965052 0
vt 0.999501 0.436981
vn -0.999953 -0.00965052 0
vt 0.000501 0.436981
vn -0.999953 -0.00965052 0
vt 0.0005 0.627484
vn 0.00778073 0.99997 0
vt 0.002931 0.00885803
vn 0.00778073 0.99997 0
vt 0.002932 0.079288
vn 0.00778073 0.99997 0
vt 1.00193 0.079288
vn 0.00778073 0.99997 0
vt 1.00193 0.00885803
vn -0.999953 -0.00964691 0
vt 0.000501 0.064964
vn -0.999953 -0.00964691 0
vt 0.0005 0.255468
vn -0.999953 -0.00964691 0
vt 0.999501 0.255468
vn -0.999953 -0.00964691 0
vt 0.999501 0.064965
vn 0.00778054 0.99997 0
vt 0.0005 0.36494
vn 0.00778054 0.99997 0
vt 0.0005 0.488073
vn 0.00778054 0.99997 0
vt 0.9995 0.488073
vn 0.00778054 0.99997 0
vt 0.9995 0.36494
vn -0.999952 -0.00983818 0
vt 0.000501 0.250972
vn -0.999952 -0.00983818 0
vt 0.0005 0.441476
vn -0.999952 -0.00983818 0
vt 0.999501 0.441476
vn -0.999952 -0.00983818 0
vt 0.999501 0.250973
vn -0.00778024 0.99997 0
vt 0.916821 0.551874
vn -0.00778024 0.99997 0
vt 0.068588 0.551874
vn -0.00778024 0.99997 0
vt 0.068588 0.411971
vn -0.00778024 0.99997 0
vt 0.916821 0.411971
vn 1 0 0
vt 0.9995 0.000500023
vn 1 0 0
vt 0.9995 0.06946
vn 1 0 0
vt 0.0005 0.06946
vn 1 0 0
vt 0.0005 0.000500023
vn 0.999953 -0.00965052 0
vt 0.9995 0.999501
vn 0.999953 -0.00965052 0
vt 0.0005 0.9995
vn 0.999953 -0.00965052 0
vt 0.0005 0.808997
vn 0.999953 -0.00965052 0
vt 0.9995 0.808997
vn -0.00778054 0.99997 0
vt 0.992205 0.647749
vn -0.00778054 0.99997 0
vt -0.009228 0.647749
vn -0.00778054 0.99997 0
vt -0.009228 0.768487
vn -0.00778054 0.99997 0
vt 0.992205 0.768487
vn 0.999952 -0.00983998 0
vt 0.9995 0.813493
vn 0.999952 -0.00983998 0
vt 0.0005 0.813492
vn 0.999952 -0.00983998 0
vt 0.0005 0.622989
vn 0.999952 -0.00983998 0
vt 0.9995 0.622989
vn -0.00778054 0.99997 0
vt 0.987341 0.707976
vn -0.00778054 0.99997 0
vt -0.006796 0.707976
vn -0.00778054 0.99997 0
vt -0.006796 0.582447
vn -0.00778054 0.99997 0
vt 0.987341 0.582447
vn 0.999952 -0.00983998 0
vt 0.9995 0.627484
vn 0.999952 -0.00983998 0
vt 0.0005 0.627484
vn 0.999952 -0.00983998 0
vt 0.0005 0.436981
vn 0.999952 -0.00983998 0
vt 0.9995 0.436981
vn -0.00778073 0.99997 0
vt 0.002931 0.00779498
vn -0.00778073 0.99997 0
vt 1.00193 0.00779498
vn -0.00778073 0.99997 0
vt 1.00193 0.078226
vn -0.00778073 0.99997 0
vt 0.002932 0.078226
vn 0.999953 -0.00965052 0
vt 0.0005 0.064965
vn 0.999953 -0.00965052 0
vt 0.9995 0.064965
vn 0.999953 -0.00965052 0
vt 0.9995 0.255468
vn 0.999953 -0.00965052 0
vt 0.0005 0.255468
vn -0.00778102 0.99997 0
vt 0.000499 0.363082
vn -0.00778102 0.99997 0
vt 0.9995 0.363082
vn -0.00778102 0.99997 0
vt 0.9995 0.486215
vn -0.00778102 0.99997 0
vt 0.0005 0.486215
vn 0.999953 -0.00964691 0
vt 0.0005 0.250973
vn 0.999953 -0.00964691 0
vt 0.9995 0.250973
vn 0.999953 -0.00964691 0
vt 0.9995 0.441476
vn 0.999953 -0.00964691 0
vt 0.0005 0.441476
f 2/1/1 3/2/2 4/3/3
f 2/1/1 4/3/3 13/4/4
f 4/3/3 5/5/5 6/6/6
f 4/3/3 6/6/6 8/7/7
f 6/6/6 7/8/8 8/7/7
f 8/7/7 9/9/9 10/10/10
f 8/7/7 10/10/10 94/11/11
f 10/10/10 11/12/12 12/13/13
f 10/10/10 12/13/13 94/11/11
f 12/13/13 93/14/14 94/11/11
f 8/7/7 94/11/11 13/4/4
f 8/7/7 13/4/4 4/3/3
f 13/4/4 14/15/15 15/16/16
f 13/4/4 15/16/16 2/1/1
f 15/16/16 16/17/17 17/18/18
f 15/16/16 17/18/18 2/1/1
f 17/18/18 18/19/19 19/20/20
f 17/18/18 19/20/20 2/1/1
f 19/20/20 20/21/21 21/22/22
f 19/20/20 21/22/22 2/1/1
f 1/23/23 2/1/1 21/22/22
f 1/23/23 21/22/22 22/24/24
f 17/25/25 23/26/26 24/27/27
f 17/25/25 24/27/27 18/28/28
f 1/29/29 22/30/30 26/31/31
f 1/29/29 26/31/31 25/32/32
f 94/33/33 96/34/34 27/35/35
f 94/33/33 27/35/35 13/36/36
f 13/37/37 27/38/38 28/39/39
f 13/37/37 28/39/39 14/40/40
f 14/41/41 28/42/42 29/43/43
f 14/41/41 29/43/43 15/44/44
f 15/45/45 29/46/46 30/47/47
f 15/45/45 30/47/47 16/48/48
f 16/49/49 30/50/50 23/51/51
f 16/49/49 23/51/51 17/52/52
f 26/53/53 22/54/54 21/55/55
f 26/53/53 21/55/55 31/56/56
f 31/57/57 21/58/58 20/59/59
f 31/57/57 20/59/59 32/60/60
f 32/61/61 20/62/62 19/63/63
f 32/61/61 19/63/63 33/64/64
f 33/65/65 19/66/66 18/67/67
f 33/65/65 18/67/67 24/68/68
f 8/69/69 7/70/70 34/71/71
f 8/69/69 34/71/71 35/72/72
f 2/73/73 36/74/74 37/75/75
f 2/73/73 37/75/75 3/76/76
f 93/77/77 12/78/78 38/79/79
f 93/77/77 38/79/79 95/80/80
f 12/81/81 11/82/82 39/83/83
f 12/81/81 39/83/83 38/84/84
f 11/85/85 10/86/86 40/87/87
f 11/85/85 40/87/87 39/88/88
f 10/89/89 9/90/90 41/91/91
f 10/89/89 41/91/91 40/92/92
f 9/93/93 8/94/94 35/95/95
f 9/93/93 35/95/95 41/96/96
f 37/97/97 42/98/98 4/99/99
f 37/97/97 4/99/99 3/100/100
f 42/101/101 43/102/102 5/103/103
f 42/101/101 5/103/103 4/104/104
f 43/105/105 44/106/106 6/107/107
f 43/105/105 6/107/107 5/108/108
f 44/109/109 34/110/110 7/111/111
f 44/109/109 7/111/111 6/112/112
f 46/113/113 98/114/114 97/115/115
f 46/113/113 97/115/115 45/116/116
f 45/117/117 97/118/118 99/119/119
f 45/117/117 99/119/119 47/120/120
f 48/121/121 47/122/122 99/123/123
f 48/121/121 99/123/123 100/124/124
f 100/125/125 98/126/126 46/127/127
f 100/125/125 46/127/127 48/128/128
f 49/129/129 70/130/130 69/131/131
f 49/129/129 69/131/131 50/132/132
f 69/131/131 68/133/133 67/134/134
f 69/131/131 67/134/134 50/132/132
f 67/134/134 66/135/135 65/136/136
f 67/134/134 65/136/136 50/132/132
f 65/136/136 64/137/137 63/138/138
f 65/136/136 63/138/138 50/132/132
f 63/138/138 62/139/139 61/140/140
f 63/138/138 61/140/140 50/132/132
f 102/141/141 101/142/142 60/143/143
f 102/141/141 60/143/143 58/144/144
f 60/143/143 59/145/145 58/144/144
f 58/144/144 57/146/146 56/147/147
f 58/144/144 56/147/147 102/141/141
f 61/140/140 102/141/141 56/147/147
f 61/140/140 56/147/147 52/148/148
f 56/147/147 55/149/149 54/150/150
f 56/147/147 54/150/150 52/148/148
f 54/150/150 53/151/151 52/148/148
f 52/148/148 51/152/152 50/132/132
f 52/148/148 50/132/132 61/140/140
f 65/153/153 66/154/154 72/155/155
f 65/153/153 72/155/155 71/156/156
f 49/157/157 73/158/158 74/159/159
f 49/157/157 74/159/159 70/160/160
f 102/161/161 61/162/162 75/163/163
f 102/161/161 75/163/163 104/164/164
f 61/165/165 62/166/166 76/167/167
f 61/165/165 76/167/167 75/168/168
f 62/169/169 63/170/170 77/171/171
f 62/169/169 77/171/171 76/172/172
f 63/173/173 64/174/174 78/175/175
f 63/173/173 78/175/175 77/176/176
f 64/177/177 65/178/178 71/179/179
f 64/177/177 71/179/179 78/180/180
f 74/181/181 79/182/182 69/183/183
f 74/181/181 69/183/183 70/184/184
f 79/185/185 80/186/186 68/187/187
f 79/185/185 68/187/187 69/188/188
f 80/189/189 81/190/190 67/191/191
f 80/189/189 67/191/191 68/192/192
f 81/193/193 72/194/194 66/195/195
f 81/193/193 66/195/195 67/196/196
f 56/197/197 83/198/198 82/199/199
f 56/197/197 82/199/199 55/200/200
f 50/201/201 51/202/202 85/203/203
f 50/201/201 85/203/203 84/204/204
f 101/205/205 103/206/206 86/207/207
f 101/205/205 86/207/207 60/208/208
f 60/209/209 86/210/210 87/211/211
f 60/209/209 87/211/211 59/212/212
f 59/213/213 87/214/214 88/215/215
f 59/213/213 88/215/215 58/216/216
f 58/217/217 88/218/218 89/219/219
f 58/217/217 89/219/219 57/220/220
f 57/221/221 89/222/222 83/223/223
f 57/221/221 83/223/223 56/224/224
f 85/225/225 51/226/226 52/227/227
f 85/225/225 52/227/227 90/228/228
f 90/229/229 52/230/230 53/231/231
f 90/229/229 53/231/231 91/232/232
f 91/233/233 53/234/234 54/235/235
f 91/233/233 54/235/235 92/236/236
f 92/237/237 54/238/238 55/239/239
f 92/237/237 55/239/239 82/240/240
