#
# Exported by OpenBRF -- marco tarini
#
s fysg_fanzi25.
newmtl fysg_cheng_wa02
Ka 0.8 0.8 0.8
Kd 0.2 0.2 0.2
usemtl fysg_cheng_wa02
v 2.52658 8.79769 -5.967
v 2.5513 8.79769 6.17358
v 0.004882 11.0232 -5.89454
v 0.029328 11.0232 6.1114
v -2.58502 8.79769 -5.95673
v -2.5603 8.79769 6.18412
v 4.73438 7.60314 6.21655
v 4.70947 7.60314 -6.01884
v -4.81696 7.60198 -5.99973
v -4.79205 7.60198 6.23621
v -4.79202 7.602 6.2362
v -6.86484 7.57268 6.15388
v -4.81693 7.602 -5.99973
v -6.88937 7.57268 -5.90897
v -4.8187 6.57735 -6.84389
v -4.8187 7.11742 -6.86613
v -6.69028 7.81789 -6.79959
v 4.70572 6.57735 -6.86327
v 6.56143 7.81789 -6.82657
v 4.70566 7.11742 -6.88551
v 6.56143 7.81792 -6.82657
v 4.7095 7.60316 -6.01884
v -6.69028 7.81792 -6.79959
v -6.87271 7.03261 -5.909
v 6.78873 7.57268 6.12609
v 4.73441 7.60316 6.21655
v 6.76419 7.57268 -5.93676
v 6.77206 7.03261 6.12612
v 6.74747 7.03261 -5.93672
v -6.84818 7.03261 6.15384
v -6.66208 7.81788 7.04369
v -4.79025 7.11741 7.1026
v -4.79031 6.57734 7.08036
v 4.7341 7.11741 7.08322
v 6.58957 7.81788 7.01672
v 4.73404 6.57734 7.06098
v -6.66208 7.81791 7.04369
v 6.58957 7.81791 7.01672
vn 0.661687 0.749779 -0.00134718
vt -2.28566 0.996559
vn 0.587574 0.80917 -0.00119617
vt 3.00108 0.550058
vn 0.587991 0.808866 -0.00119711
vt -2.33083 0.550058
vn 0.661687 0.749779 -0.00134718
vt 2.9559 0.996559
vn -0.605853 0.795575 0.00123372
vt 3.00117 0.549994
vn -0.65176 0.758424 0.00132719
vt -2.28566 0.996559
vn -0.547499 0.836805 0.00111476
vt -2.33092 0.549994
vn -0.65176 0.758424 0.00132721
vt 2.9559 0.996559
vn 0.480037 0.877248 -0.000977087
vt -2.36264 0.180119
vn 0.480038 0.877247 -0.000976892
vt 3.03289 0.180119
vn -0.472244 0.881467 0.000961447
vt 3.03307 0.179649
vn -0.472245 0.881467 0.000961224
vt -2.36282 0.179649
vn -0.0141477 0.9999 2.89425e-05
vt -3.3387 -0.562721
vn -0.0141477 0.9999 2.89425e-05
vt 3.90688 -0.828829
vn -0.0141476 0.9999 2.89505e-05
vt 3.98571 -0.56272
vn -0.0141477 0.9999 2.89343e-05
vt -3.25987 -0.828829
vn -0.0508523 -0.0410876 -0.997861
vt -4.37677 0.190249
vn -0.0508523 -0.0410876 -0.997861
vt -3.37999 0.186422
vn -0.0508523 -0.0410876 -0.997861
vt -3.37999 0.00826901
vn 0.0472119 -0.0410933 -0.998039
vt -3.37967 0.183133
vn 0.0472119 -0.0410933 -0.998039
vt -4.39425 0.186959
vn 0.0472119 -0.0410933 -0.998039
vt -3.37967 0.00498003
vn -0.299584 0.832829 -0.465452
vt 0.380055 -0.827128
vn -0.299584 0.832829 -0.465452
vt 0.381766 -0.482145
vn -0.299584 0.832829 -0.465452
vt -0.809175 -0.827128
vn -0.00203336 -0.0411427 -0.999151
vt 1.87699 0.187758
vn -0.00203336 -0.0411427 -0.999151
vt -3.38152 0.00717503
vn -0.00203347 -0.0411408 -0.999151
vt -3.38152 0.18776
vn -0.00203325 -0.0411445 -0.999151
vt 1.87699 0.00717402
vn -0.00104036 0.872546 -0.488531
vt 1.89061 0.190243
vn -0.00104036 0.872546 -0.488531
vt -3.36385 0.37357
vn -0.0010872 0.87233 -0.488916
vt 1.89181 0.373909
vn -0.000993469 0.872762 -0.488145
vt -3.36385 0.190245
vn 0.29539 0.833559 -0.466823
vt 0.38092 -0.827128
vn 0.29539 0.833559 -0.466823
vt -0.807479 -0.827128
vn 0.29539 0.833559 -0.466823
vt 0.379862 -0.489146
vn -0.973681 -0.0300264 -0.22593
vt -2.95087 -0.829026
vn -0.973681 -0.0300264 -0.22593
vt -4.09212 -0.840565
vn -0.973681 -0.0300264 -0.22593
vt -2.95087 -1.00426
vn -0.00203816 0.964241 0.26502
vt -0.002541 -0.827128
vn -0.00203816 0.964241 0.26502
vt -0.001496 -0.577249
vn -0.00203816 0.964241 0.26502
vt -0.528561 -0.827128
vn 0.0148369 0.99989 -3.00107e-05
vt -3.25987 -0.828829
vn 0.0148369 0.99989 -3.00107e-05
vt 3.98547 -0.561719
vn 0.0148368 0.99989 -3.00197e-05
vt 3.90688 -0.828829
vn 0.0148369 0.99989 -3.00017e-05
vt -3.33845 -0.561719
vn 0.999521 -0.0308923 -0.00203552
vt -3.25987 -1.00054
vn 0.999521 -0.0308923 -0.00203552
vt 3.90688 -0.828829
vn 0.999522 -0.0308363 -0.00203804
vt 3.90688 -1.00054
vn 0.999519 -0.0309483 -0.00203301
vt -3.25987 -0.828829
vn -0.999522 -0.0308367 0.00203303
vt -3.25987 -0.828829
vn -0.999522 -0.0308367 0.00203303
vt 3.90688 -0.998617
vn -0.999522 -0.0308372 0.00203301
vt 3.90688 -0.828829
vn -0.999522 -0.0308363 0.00203305
vt -3.25987 -0.998617
vn -0.0467909 -0.041094 0.998059
vt -3.38152 -0.00370204
vn -0.0467909 -0.041094 0.998059
vt -3.38152 0.186422
vn -0.0467909 -0.041094 0.998059
vt -4.37831 0.190249
vn 0.0512801 -0.0410959 0.997838
vt 1.87699 -0.00370395
vn 0.0512801 -0.0410959 0.997838
vt 2.89157 0.190247
vn 0.0512801 -0.0410959 0.997838
vt 1.87699 0.186421
vn 0.297292 0.83356 0.465612
vt 3.09605 0.512382
vn 0.297292 0.83356 0.465612
vt 1.91165 0.183838
vn 0.297292 0.83356 0.465612
vt 3.09507 0.187947
vn 0.00203327 -0.0411445 0.999151
vt 1.87699 0.187758
vn 0.00203327 -0.0411445 0.999151
vt -3.38152 -0.00479698
vn 0.00203327 -0.0411445 0.999151
vt 1.87699 -0.00479805
vn 0.00203327 -0.0411445 0.999151
vt -3.38152 0.18776
vn 0.000947953 0.872546 0.488531
vt 1.89061 0.190243
vn 0.000947953 0.872546 0.488531
vt -3.36385 0.37357
vn 0.000993369 0.872763 0.488144
vt -3.36385 0.190245
vn 0.000902583 0.87233 0.488917
vt 1.89181 0.373909
vn -0.297692 0.832826 0.46667
vt 1.91124 0.183838
vn -0.297692 0.832826 0.46667
vt 3.09564 0.512382
vn -0.297692 0.832826 0.46667
vt 3.09465 0.187947
vn -0.972743 -0.0300279 0.229933
vt -2.95087 -1.00426
vn -0.972743 -0.0300279 0.229933
vt -4.09212 -0.840565
vn -0.972743 -0.0300279 0.229933
vt -2.95087 -0.829026
vn -0.00311741 0.964241 -0.265009
vt -0.444996 -0.827128
vn -0.00311741 0.964241 -0.265009
vt -0.045477 -0.599135
vn -0.00311741 0.964241 -0.265009
vt 0.050237 -0.827128
vn 0.973666 -0.0300259 0.225992
vt 0.686877 -1.00486
vn 0.973666 -0.0300259 0.225992
vt 0.686877 -0.822605
vn 0.973666 -0.0300259 0.225992
vt -0.555048 -0.819477
vn 0.00264456 0.964266 -0.264924
vt 0.0073 -0.560227
vn 0.00264456 0.964266 -0.264924
vt -0.321849 -0.827128
vn 0.00264456 0.964266 -0.264924
vt 0.006255 -0.827128
vn 0.972734 -0.030135 -0.229959
vt -0.555048 -0.819477
vn 0.972734 -0.030135 -0.229959
vt 0.686877 -0.822605
vn 0.972734 -0.030135 -0.229959
vt 0.686877 -1.00486
vn 0.0037254 0.964274 0.26488
vt 0.006255 -0.827128
vn 0.0037254 0.964274 0.26488
vt -0.321849 -0.827128
vn 0.0037254 0.964274 0.26488
vt 0.0073 -0.560227
f 3/1/1 2/2/2 1/3/3
f 2/2/2 3/1/1 4/4/4
f 6/5/5 3/6/6 5/7/7
f 3/6/6 6/5/5 4/8/8
f 8/9/9 2/2/2 7/10/10
f 2/2/2 8/9/9 1/3/3
f 10/11/11 5/7/7 9/12/12
f 5/7/7 10/11/11 6/5/5
f 13/13/13 12/14/14 11/15/15
f 12/14/14 13/13/13 14/16/16
f 17/17/17 16/18/18 15/19/19
f 20/20/20 19/21/21 18/22/22
f 20/23/23 22/24/24 21/25/25
f 20/26/26 15/27/27 16/28/28
f 15/27/27 20/26/26 18/29/29
f 20/30/30 13/31/31 22/32/32
f 13/31/31 20/30/30 16/33/33
f 16/34/34 23/35/35 13/36/36
f 14/37/37 17/38/38 24/39/39
f 14/40/40 13/41/41 17/42/42
f 27/43/43 26/44/44 25/45/45
f 26/44/44 27/43/43 22/46/46
f 29/47/47 25/48/48 28/49/49
f 25/48/48 29/47/47 27/50/50
f 14/51/51 30/52/52 12/53/53
f 30/52/52 14/51/51 24/54/54
f 33/55/55 32/56/56 31/57/57
f 36/58/58 35/59/59 34/60/60
f 11/61/61 37/62/62 32/63/63
f 34/64/64 33/65/65 36/66/66
f 33/65/65 34/64/64 32/67/67
f 34/68/68 11/69/69 32/70/70
f 11/69/69 34/68/68 26/71/71
f 38/72/72 26/73/73 34/74/74
f 30/75/75 31/76/76 12/77/77
f 31/78/78 11/79/79 12/80/80
f 28/81/81 25/82/82 35/83/83
f 26/84/84 38/85/85 25/86/86
f 19/87/87 27/88/88 29/89/89
f 27/90/90 19/91/91 22/92/92
