#
# Exported by OpenBRF -- marco tarini
#
s fysg_fanzi17.2
newmtl fysg_fanzi011
Ka 0.8 0.8 0.8
Kd 0.2 0.2 0.2
usemtl fysg_fanzi011
v -8.24873 1.4377 -4.20826
v -8.04843 1.4377 -4.20826
v -8.04843 1.4377 -5.85
v -8.24873 1.4377 -5.85
v -8.24873 1.33257 -5.94668
v -8.24873 1.33257 -4.11
v -8.24873 3.34833 -4.2075
v -8.04843 3.34833 -4.2075
v -8.04843 1.29557 -4.11
v -8.04843 3.34833 -4.11047
v -8.24873 3.34833 -4.11047
v -8.24873 3.34833 -5.94744
v -8.04843 3.34833 -5.94744
v -8.04843 1.29557 -5.94668
v -8.04843 3.34833 -5.85041
v -8.24873 3.34833 -5.85041
v -9.00471 1.33254 -6.21932
v -9.00471 1.20289 -6.21932
v -9.00471 1.20289 -3.84715
v -9.00471 1.33254 -3.84715
v -8.2025 1.20289 -3.84715
v -8.2025 1.33254 -3.84715
v -8.2025 1.33254 -6.21932
v -8.2025 1.20289 -6.21932
v -6.90031 0.764382 -0.255
v -9.28348 0.764382 -0.255
v -9.17836 -0.0012949 -0.30791
v -7.00543 -0.0012949 -0.30791
v -6.90031 0.764382 -1.455
v -7.00543 -0.0012949 -1.40203
v -9.28348 0.764382 -1.455
v -9.17836 -0.0012949 -1.40203
v 0.631533 1.77657 -2.32096
v -2.51703 1.77657 -2.32096
v -2.51703 1.77657 -1.32094
v 0.631533 1.77657 -1.32094
v -2.51703 1.63849 -1.32094
v 0.631533 1.63849 -1.32094
v 0.631533 1.63849 -2.32096
v -2.51703 1.63849 -2.32096
v -1.60604 1.46923 -1.18447
v -1.77389 1.46923 -1.18447
v -1.77389 1.46923 -2.32143
v -1.60604 1.46923 -2.32143
v -1.60604 1.65096 -1.18447
v -1.60604 1.65096 -2.32143
v -1.77389 1.65096 -1.18447
v -1.77389 1.65096 -2.32143
v -0.119053 1.46923 -1.18447
v -0.286894 1.46923 -1.18447
v -0.286894 1.46923 -2.32143
v -0.119053 1.46923 -2.32143
v -0.119053 1.65096 -1.18447
v -0.119053 1.65096 -2.32143
v -0.286894 1.65096 -1.18447
v -0.286894 1.65096 -2.32143
v -3.03554 1.50473 -7.71469
v 0.661359 1.50473 -7.71469
v 0.661359 1.50473 -8.6369
v -3.03554 1.50473 -8.6369
v 0.661359 1.34262 -8.6369
v -3.03554 1.34262 -8.6369
v -3.03554 1.34262 -7.71469
v 0.661359 1.34262 -7.71469
v -0.40827 1.14387 -8.79709
v -0.211219 1.14387 -8.79709
v -0.211219 1.14386 -7.71416
v -0.40827 1.14386 -7.71416
v -0.40827 1.35725 -8.79709
v -0.40827 1.35725 -7.71416
v -0.211219 1.35725 -8.79709
v -0.211219 1.35725 -7.71416
v -2.15423 1.14387 -8.79709
v -1.95717 1.14387 -8.79709
v -1.95717 1.14386 -7.71416
v -2.15423 1.14386 -7.71416
v -2.15423 1.35725 -8.79709
v -2.15423 1.35725 -7.71416
v -1.95717 1.35725 -8.79709
v -1.95717 1.35725 -7.71416
v 0.631533 3.63776 -2.32096
v -2.51703 3.63776 -2.32096
v -2.51703 3.31594 -1.32094
v 0.631533 3.31594 -1.32094
v -2.51703 3.17786 -1.32094
v 0.631533 3.17786 -1.32094
v 0.631533 3.49969 -2.32096
v -2.51703 3.49969 -2.32096
v -6.28115 3.63776 -2.32096
v -7.3948 3.63776 -2.32096
v -7.3948 3.31594 -1.32094
v -6.28115 3.31594 -1.32094
v -7.3948 3.17786 -1.32094
v -6.28115 3.17786 -1.32094
v -6.28115 3.49969 -2.32096
v -7.3948 3.49969 -2.32096
v -6.28115 1.79461 -2.32096
v -7.3948 1.79461 -2.32096
v -7.3948 1.79121 -1.9002
v -6.28115 1.79121 -1.9002
v -7.3948 1.65314 -1.9002
v -6.28115 1.65314 -1.9002
v -6.28115 1.65655 -2.32096
v -7.3948 1.65655 -2.32096
v -8.31874 1.30335 -4.06377
v -8.80158 1.30335 -4.06377
v -8.80158 -0.00129547 -4.06377
v -8.31874 -0.00129547 -4.06377
v -8.31874 1.30335 -4.17164
v -8.31874 -0.00129547 -4.17164
v -8.80158 1.30335 -4.17164
v -8.80158 -0.00129547 -4.17164
v -8.31874 1.30335 -5.86986
v -8.80158 1.30335 -5.86986
v -8.80158 -0.00129547 -5.86986
v -8.31874 -0.00129547 -5.86986
v -8.31874 1.30335 -5.97768
v -8.31874 -0.00129547 -5.97768
v -8.80158 1.30335 -5.97768
v -8.80158 -0.00129547 -5.97768
vn -0.2746 0.961559 -2.38419e-06
vt 1.32225 0.07716
vn 0 1 -2.86102e-06
vt 1.32225 0.040843
vn 0 1 -2.86102e-06
vt 1.17983 0.040843
vn -0.756472 0.654026 -1.43051e-06
vt 1.17983 0.07716
vn -1 0 0
vt 1.32225 0.040843
vn -1 0 0
vt 1.17983 0.040843
vn -0.431092 0.000359535 -0.902308
vt 1.17983 0.07716
vn -0.219967 0.000209332 0.975507
vt 1.32225 0.07716
vn 0 0.000398636 -1
vt 1.32225 0.07716
vn 0 0.000398636 -1
vt 1.32225 0.040843
vn 0 0.000398636 -1
vt 1.17983 0.040843
vn 2.14577e-05 0.000230312 1
vt 1.32225 0.07716
vn 4.19617e-05 0.000228405 1
vt 1.32225 0.040843
vn 2.14577e-05 0.000230312 1
vt 1.17983 0.040843
vn 0 0.000232697 1
vt 1.17983 0.07716
vn -1 0 0
vt 1.17983 0.07716
vn -1 0 0
vt 1.32225 0.040843
vn -1 0 0
vt 1.17983 0.040843
vn -3.48091e-05 -0.000374317 -1
vt 1.17983 0.07716
vn 0 -0.000377655 -1
vt 1.32225 0.07716
vn -3.48091e-05 -0.000374317 -1
vt 1.32225 0.040843
vn -6.86646e-05 -0.000370979 -1
vt 1.17983 0.040843
vn 0 0.000214577 1
vt 1.32225 0.040843
vn 0 0.000214577 1
vt 1.17983 0.040843
vn 0 0.000214577 1
vt 1.17983 0.07716
vn -1 0 0
vt 1.32225 0.040843
vn -1 0 0
vt 1.17983 0.040843
vn -1 0 0
vt 1.32225 0.07716
vn -1 0 0
vt 1.16129 0.497556
vn -1 0 0
vt 1.16129 0.472144
vn -1 0 0
vt 1.3408 0.472144
vn -1 0 0
vt 1.3408 0.497556
vn 0 0 1
vt 1.3408 0.472144
vn 0 0 1
vt 1.3408 0.497556
vn 0 0 1
vt 1.16129 0.497556
vn 0 0 1
vt 1.16129 0.472144
vn 0 1 0
vt 1.00408 0.043837
vn 0 1 0
vt 1.49801 0.043836
vn 0 1 0
vt 1.49801 0.449172
vn 0 1 0
vt 1.00408 0.449173
vn 0 0 -1
vt 1.16129 0.497556
vn 0 0 -1
vt 1.16129 0.472144
vn 0 0 -1
vt 1.3408 0.472144
vn 0 0 -1
vt 1.3408 0.497556
vn 0 -0.0689383 0.997621
vt 1.43378 0.453647
vn 0 -0.0689383 0.997621
vt 1.06831 0.453647
vn 0 -0.0689383 0.997621
vt 1.08038 0
vn 0 -0.0689383 0.997621
vt 1.42171 0
vn 0.990707 -0.136011 0
vt 1.43378 0.453647
vn 0.990707 -0.136011 0
vt 1.06831 0.453647
vn 0.990707 -0.136011 0
vt 1.08038 0
vn 0.990707 -0.136011 0
vt 1.42171 0
vn -0.990707 -0.136011 0
vt 1.43378 0.453647
vn -0.990707 -0.136011 0
vt 1.06831 0.453647
vn -0.990707 -0.136011 0
vt 1.08038 0
vn -0.990707 -0.136011 0
vt 1.42171 0
vn 0 1 0
vt 1.00408 0.043837
vn 0 1 0
vt 1.49801 0.043836
vn 0 1 0
vt 1.49801 0.449172
vn 0 1 0
vt 1.00408 0.449173
vn 0 0 1
vt 1.3408 0.497556
vn 0 0 1
vt 1.16129 0.497556
vn 0 0 1
vt 1.16129 0.472144
vn 0 0 1
vt 1.3408 0.472144
vn 1 0 0
vt 1.3408 0.497556
vn 1 0 0
vt 1.16129 0.497556
vn 1 0 0
vt 1.16129 0.472144
vn 1 0 0
vt 1.3408 0.472144
vn -1 0 0
vt 1.3408 0.497556
vn -1 0 0
vt 1.16129 0.497556
vn -1 0 0
vt 1.16129 0.472144
vn -1 0 0
vt 1.3408 0.472144
vn 0.476088 -0.879398 0
vt 1.24112 0.453421
vn 0 -1 0
vt 1.22769 0.453421
vn 0 -1 0
vt 1.22769 0.000226974
vn 0.907875 -0.419242 0
vt 1.24112 0.000226974
vn 0.907875 0.419242 0
vt 1.25776 0.453421
vn 0.476088 0.879398 0
vt 1.25776 0.000226974
vn 0 1 0
vt 1.2744 0.453421
vn 0 1 0
vt 1.2744 0.000226974
vn -1 0 0
vt 1.25776 0.453421
vn -1 0 0
vt 1.24433 0.453421
vn -1 0 0
vt 1.24433 0.000226974
vn -1 0 0
vt 1.25776 0.000226974
vn 0 0 1
vt 1.24499 0.164298
vn 0 0 1
vt 1.2773 0.207787
vn 0 0 1
vt 1.2571 0.28935
vn 0 0 1
vt 1.22479 0.245861
vn 0.476088 -0.879398 0
vt 1.24112 0.453421
vn 0 -1 0
vt 1.22769 0.453421
vn 0 -1 0
vt 1.22769 0.000226974
vn 0.907875 -0.419242 0
vt 1.24112 0.000226974
vn 0.907875 0.419242 0
vt 1.25776 0.453421
vn 0.476088 0.879398 0
vt 1.25776 0.000226974
vn 0 1 0
vt 1.2744 0.453421
vn 0 1 0
vt 1.2744 0.000226974
vn -1 0 0
vt 1.25776 0.453421
vn -1 0 0
vt 1.24433 0.453421
vn -1 0 0
vt 1.24433 0.000226974
vn -1 0 0
vt 1.25776 0.000226974
vn 0 0 1
vt 1.24499 0.164298
vn 0 0 1
vt 1.2773 0.207787
vn 0 0 1
vt 1.2571 0.28935
vn 0 0 1
vt 1.22479 0.245861
vn 0 1 -4.76837e-07
vt 1.00408 0.043837
vn 0 1 -4.76837e-07
vt 1.49801 0.043836
vn 0 1 -4.76837e-07
vt 1.49801 0.449172
vn 0 1 -4.76837e-07
vt 1.00408 0.449173
vn 0 0 -1
vt 1.3408 0.497556
vn 0 0 -1
vt 1.16129 0.497556
vn 0 0 -1
vt 1.16129 0.472144
vn 0 0 -1
vt 1.3408 0.472144
vn -1 0 0
vt 1.3408 0.497556
vn -1 0 0
vt 1.16129 0.497556
vn -1 0 0
vt 1.16129 0.472144
vn -1 0 0
vt 1.3408 0.472144
vn 1 0 0
vt 1.3408 0.497556
vn 1 0 0
vt 1.16129 0.497556
vn 1 0 0
vt 1.16129 0.472144
vn 1 0 0
vt 1.3408 0.472144
vn -0.476125 -0.879377 -2.86102e-06
vt 1.24112 0.453421
vn 0 -1 -2.86102e-06
vt 1.22769 0.453421
vn 0 -1 -2.86102e-06
vt 1.22769 0.000226974
vn -0.907892 -0.419203 -1.43051e-06
vt 1.24112 0.000226974
vn -0.907892 0.419203 -4.76837e-07
vt 1.25776 0.453421
vn -0.476131 0.879374 -4.76837e-07
vt 1.25776 0.000226974
vn 0 1 -4.76837e-07
vt 1.2744 0.453421
vn 0 1 -4.76837e-07
vt 1.2744 0.000226974
vn 1 0 0
vt 1.25776 0.453421
vn 1 0 0
vt 1.24433 0.453421
vn 1 0 0
vt 1.24433 0.000226974
vn 1 0 0
vt 1.25776 0.000226974
vn 0 0 -1
vt 1.24499 0.164298
vn 0 0 -1
vt 1.2773 0.207787
vn 0 0 -1
vt 1.2571 0.28935
vn 0 0 -1
vt 1.22479 0.245861
vn -0.476098 -0.879392 -2.38419e-06
vt 1.24112 0.453421
vn 0 -1 -2.86102e-06
vt 1.22769 0.453421
vn 0 -1 -2.86102e-06
vt 1.22769 0.000226974
vn -0.90788 -0.419229 -1.43051e-06
vt 1.24112 0.000226974
vn -0.90788 0.419229 -4.76837e-07
vt 1.25776 0.453421
vn -0.476104 0.879389 -4.76837e-07
vt 1.25776 0.000226974
vn 0 1 -4.76837e-07
vt 1.2744 0.453421
vn 0 1 -4.76837e-07
vt 1.2744 0.000226974
vn 1 0 0
vt 1.25776 0.453421
vn 1 0 0
vt 1.24433 0.453421
vn 1 0 0
vt 1.24433 0.000226974
vn 1 0 0
vt 1.25776 0.000226974
vn 0 0 -1
vt 1.24499 0.164298
vn 0 0 -1
vt 1.2773 0.207787
vn 0 0 -1
vt 1.2571 0.28935
vn 0 0 -1
vt 1.22479 0.245861
vn 0 0.951921 0.306343
vt 1.00408 0.043837
vn 0 0.951921 0.306343
vt 1.49801 0.043836
vn 0 0.951921 0.306343
vt 1.49801 0.449172
vn 0 0.951921 0.306343
vt 1.00408 0.449173
vn 0 0 1
vt 1.3408 0.497556
vn 0 0 1
vt 1.16129 0.497556
vn 0 0 1
vt 1.16129 0.472144
vn 0 0 1
vt 1.3408 0.472144
vn 1 0 0
vt 1.3408 0.497556
vn 1 0 0
vt 1.16129 0.497556
vn 1 0 0
vt 1.16129 0.472144
vn 1 0 0
vt 1.3408 0.472144
vn -1 0 0
vt 1.3408 0.497556
vn -1 0 0
vt 1.16129 0.497556
vn -1 0 0
vt 1.16129 0.472144
vn -1 0 0
vt 1.3408 0.472144
vn 0 0.951921 0.306343
vt 1.17754 0.043837
vn 0 0.951921 0.306343
vt 1.32455 0.043836
vn 0 0.951921 0.306343
vt 1.32455 0.449172
vn 0 0.951921 0.306343
vt 1.17754 0.449173
vn 0 0 1
vt 1.3408 0.497556
vn 0 0 1
vt 1.16129 0.497556
vn 0 0 1
vt 1.16129 0.472144
vn 0 0 1
vt 1.3408 0.472144
vn 1 0 0
vt 1.3408 0.497556
vn 1 0 0
vt 1.16129 0.497556
vn 1 0 0
vt 1.16129 0.472144
vn 1 0 0
vt 1.3408 0.472144
vn -1 0 0
vt 1.3408 0.497556
vn -1 0 0
vt 1.16129 0.497556
vn -1 0 0
vt 1.16129 0.472144
vn -1 0 0
vt 1.3408 0.472144
vn 0 0.999967 0.00808525
vt 1.17754 0.043837
vn 0 0.999967 0.00808525
vt 1.32455 0.043836
vn 0 0.999967 0.00808525
vt 1.32455 0.449172
vn 0 0.999967 0.00808525
vt 1.17754 0.449173
vn 0 0 1
vt 1.3408 0.497556
vn 0 0 1
vt 1.16129 0.497556
vn 0 0 1
vt 1.16129 0.472144
vn 0 0 1
vt 1.3408 0.472144
vn 1 0 0
vt 1.3408 0.497556
vn 1 0 0
vt 1.16129 0.497556
vn 1 0 0
vt 1.16129 0.472144
vn 1 0 0
vt 1.3408 0.472144
vn -1 0 0
vt 1.3408 0.497556
vn -1 0 0
vt 1.16129 0.497556
vn -1 0 0
vt 1.16129 0.472144
vn -1 0 0
vt 1.3408 0.472144
vn 0.111014 0 0.993819
vt 1.24112 0.453421
vn 0 0 1
vt 1.22769 0.453421
vn 0 0 1
vt 1.22769 0.000226974
vn 0.407947 0 0.913006
vt 1.24112 0.000226974
vn 0.407947 0 -0.913006
vt 1.25776 0.453421
vn 0.111014 0 -0.993819
vt 1.25776 0.000226974
vn 0 0 -1
vt 1.2744 0.453421
vn 0 0 -1
vt 1.2744 0.000226974
vn -1 0 0
vt 1.25776 0.453421
vn -1 0 0
vt 1.24433 0.453421
vn -1 0 0
vt 1.24433 0.000226974
vn -1 0 0
vt 1.25776 0.000226974
vn 0.110954 0 0.993825
vt 1.24112 0.453421
vn 0 0 1
vt 1.22769 0.453421
vn 0 0 1
vt 1.22769 0.000226974
vn 0.407762 0 0.913088
vt 1.24112 0.000226974
vn 0.407762 0 -0.913088
vt 1.25776 0.453421
vn 0.110954 0 -0.993825
vt 1.25776 0.000226974
vn 0 0 -1
vt 1.2744 0.453421
vn 0 0 -1
vt 1.2744 0.000226974
vn -1 0 0
vt 1.25776 0.453421
vn -1 0 0
vt 1.24433 0.453421
vn -1 0 0
vt 1.24433 0.000226974
vn -1 0 0
vt 1.25776 0.000226974
f 1/1/1 2/2/2 3/3/3
f 3/3/3 4/4/4 1/1/1
f 5/5/5 6/6/6 1/7/7
f 1/7/7 4/8/8 5/5/5
f 1/7/7 7/9/9 8/10/10
f 8/10/10 2/11/11 1/7/7
f 6/12/12 9/13/13 10/14/14
f 10/14/14 11/15/15 6/12/12
f 7/16/16 1/1/1 6/17/17
f 6/17/17 11/18/18 7/16/16
f 5/19/19 12/20/20 13/21/21
f 13/21/21 14/22/22 5/19/19
f 4/8/8 3/23/23 15/24/24
f 15/24/24 16/25/25 4/8/8
f 12/26/26 5/27/27 4/4/4
f 4/4/4 16/28/28 12/26/26
f 17/29/29 18/30/30 19/31/31
f 19/31/31 20/32/32 17/29/29
f 21/33/33 22/34/34 20/35/35
f 20/35/35 19/36/36 21/33/33
f 22/37/37 23/38/38 17/39/39
f 17/39/39 20/40/40 22/37/37
f 23/41/41 24/42/42 18/43/43
f 18/43/43 17/44/44 23/41/41
f 25/45/45 26/46/46 27/47/47
f 27/47/47 28/48/48 25/45/45
f 29/49/49 25/50/50 28/51/51
f 28/51/51 30/52/52 29/49/49
f 26/53/53 31/54/54 32/55/55
f 32/55/55 27/56/56 26/53/53
f 33/57/57 34/58/58 35/59/59
f 35/59/59 36/60/60 33/57/57
f 36/61/61 35/62/62 37/63/63
f 37/63/63 38/64/64 36/61/61
f 33/65/65 36/66/66 38/67/67
f 38/67/67 39/68/68 33/65/65
f 35/69/69 34/70/70 40/71/71
f 40/71/71 37/72/72 35/69/69
f 41/73/73 42/74/74 43/75/75
f 43/75/75 44/76/76 41/73/73
f 45/77/77 41/73/73 44/76/76
f 44/76/76 46/78/78 45/77/77
f 47/79/79 45/77/77 46/78/78
f 46/78/78 48/80/80 47/79/79
f 42/81/81 47/82/82 48/83/83
f 48/83/83 43/84/84 42/81/81
f 42/85/85 41/86/86 45/87/87
f 45/87/87 47/88/88 42/85/85
f 49/89/89 50/90/90 51/91/91
f 51/91/91 52/92/92 49/89/89
f 53/93/93 49/89/89 52/92/92
f 52/92/92 54/94/94 53/93/93
f 55/95/95 53/93/93 54/94/94
f 54/94/94 56/96/96 55/95/95
f 50/97/97 55/98/98 56/99/99
f 56/99/99 51/100/100 50/97/97
f 50/101/101 49/102/102 53/103/103
f 53/103/103 55/104/104 50/101/101
f 57/105/105 58/106/106 59/107/107
f 59/107/107 60/108/108 57/105/105
f 60/109/109 59/110/110 61/111/111
f 61/111/111 62/112/112 60/109/109
f 57/113/113 60/114/114 62/115/115
f 62/115/115 63/116/116 57/113/113
f 59/117/117 58/118/118 64/119/119
f 64/119/119 61/120/120 59/117/117
f 65/121/121 66/122/122 67/123/123
f 67/123/123 68/124/124 65/121/121
f 69/125/125 65/121/121 68/124/124
f 68/124/124 70/126/126 69/125/125
f 71/127/127 69/125/125 70/126/126
f 70/126/126 72/128/128 71/127/127
f 66/129/129 71/130/130 72/131/131
f 72/131/131 67/132/132 66/129/129
f 66/133/133 65/134/134 69/135/135
f 69/135/135 71/136/136 66/133/133
f 73/137/137 74/138/138 75/139/139
f 75/139/139 76/140/140 73/137/137
f 77/141/141 73/137/137 76/140/140
f 76/140/140 78/142/142 77/141/141
f 79/143/143 77/141/141 78/142/142
f 78/142/142 80/144/144 79/143/143
f 74/145/145 79/146/146 80/147/147
f 80/147/147 75/148/148 74/145/145
f 74/149/149 73/150/150 77/151/151
f 77/151/151 79/152/152 74/149/149
f 81/153/153 82/154/154 83/155/155
f 83/155/155 84/156/156 81/153/153
f 84/157/157 83/158/158 85/159/159
f 85/159/159 86/160/160 84/157/157
f 81/161/161 84/162/162 86/163/163
f 86/163/163 87/164/164 81/161/161
f 83/165/165 82/166/166 88/167/167
f 88/167/167 85/168/168 83/165/165
f 89/169/169 90/170/170 91/171/171
f 91/171/171 92/172/172 89/169/169
f 92/173/173 91/174/174 93/175/175
f 93/175/175 94/176/176 92/173/173
f 89/177/177 92/178/178 94/179/179
f 94/179/179 95/180/180 89/177/177
f 91/181/181 90/182/182 96/183/183
f 96/183/183 93/184/184 91/181/181
f 97/185/185 98/186/186 99/187/187
f 99/187/187 100/188/188 97/185/185
f 100/189/189 99/190/190 101/191/191
f 101/191/191 102/192/192 100/189/189
f 97/193/193 100/194/194 102/195/195
f 102/195/195 103/196/196 97/193/193
f 99/197/197 98/198/198 104/199/199
f 104/199/199 101/200/200 99/197/197
f 105/201/201 106/202/202 107/203/203
f 107/203/203 108/204/204 105/201/201
f 109/205/205 105/201/201 108/204/204
f 108/204/204 110/206/206 109/205/205
f 111/207/207 109/205/205 110/206/206
f 110/206/206 112/208/208 111/207/207
f 106/209/209 111/210/210 112/211/211
f 112/211/211 107/212/212 106/209/209
f 113/213/213 114/214/214 115/215/215
f 115/215/215 116/216/216 113/213/213
f 117/217/217 113/213/213 116/216/216
f 116/216/216 118/218/218 117/217/217
f 119/219/219 117/217/217 118/218/218
f 118/218/218 120/220/220 119/219/219
f 114/221/221 119/222/222 120/223/223
f 120/223/223 115/224/224 114/221/221
