#
# Exported by OpenBRF -- marco tarini
#
s fysg_changjin_fanzi07.1
newmtl fysg_changjin_qiang10
Ka 0.8 0.8 0.8
Kd 0.2 0.2 0.2
usemtl fysg_changjin_qiang10
v 6.4545 0.3282 -0.5059
v 6.4544 5.8239 -6.2908
v 6.4544 0.3282 -6.2908
v 6.4544 5.8239 -0.5061
v 11.8853 5.8239 -1.2643
v 11.8856 0.3282 -6.2907
v 11.8853 5.8239 -6.2907
v 11.8856 0.3282 -1.2643
v 6.4544 0.3282 4.014
v 6.4544 5.8239 4.0139
v 11.8853 5.8239 3.8165
v 11.8856 0.3282 3.8165
v 6.4544 0.3282 8.7046
v 6.4544 5.8239 8.7046
v 11.8852 5.8239 8.7047
v 11.8855 0.3282 8.7047
v -12.8805 5.8239 1.08
v -8.4862 0.3282 1.08
v -8.4862 5.8239 1.08
v -12.8805 0.3282 1.08
v -3.8765 0.3282 1.08
v -3.8765 5.8239 1.08
v -8.4862 5.8239 -4.6311
v -12.8805 0.3282 -4.6311
v -12.8805 5.8239 -4.6311
v -8.4862 0.3282 -4.6311
v -3.8764 5.8239 -4.6311
v -3.8764 0.3282 -4.6311
v 6.4544 5.9606 1.0808
v -3.8765 5.2321 1.0804
v 6.4544 5.2319 1.0807
v -3.8765 5.9606 1.0807
v 3.0208 5.232 -0.5057
v 6.4546 5.232 -0.5057
v 3.0208 0.3282 -0.5056
v -0.3948 0.3282 -0.5057
v -3.8765 5.2322 -0.5057
v -3.8765 0.3282 -0.5057
v -0.3948 5.232 -0.5057
v 8.3558 10.794 -4.6332
v 8.3554 6.5577 1.1046
v 8.3557 6.5577 -4.6331
v 8.3556 10.794 1.1042
v -5.0936 10.794 1.1037
v -5.0936 6.5577 -4.6333
v -5.0936 6.5577 1.1038
v -5.0936 10.794 -4.6333
v -1.6605 5.2319 0.4847
v -1.6605 0.6187 0.4847
v -1.9388 5.2319 0.7714
v -1.9388 0.6187 0.7714
v -1.7913 5.2319 1.0147
v -1.7913 0.6187 1.0147
v -1.5283 5.2319 1.0142
v -1.5283 0.6187 1.0142
v -1.3817 5.2319 0.7713
v -1.3817 0.6187 0.7713
v 4.0792 5.2319 0.4847
v 4.0792 0.6186 0.4847
v 3.801 5.2319 0.7714
v 3.801 0.6186 0.7714
v 3.9484 5.2319 1.0147
v 3.9484 0.6186 1.0147
v 4.2114 5.2319 1.0142
v 4.2114 0.6186 1.0142
v 4.358 5.2319 0.7713
v 4.358 0.6186 0.7713
v -9.679 7.4977 -3.2989
v -9.679 9.7566 -0.2346
v -9.679 9.7566 -3.299
v -9.679 7.4977 -0.2345
v 1.313 5.8239 -4.631
v 1.313 0.3282 -4.631
v 6.4546 5.8239 -4.6311
v 6.4546 0.3282 -4.6311
vn -1 -9.40733e-06 8.37282e-06
vt 0.5117 0.2952
vn -1 -8.8129e-06 8.93753e-06
vt 0.0007 0.9987
vn -1 5.25665e-13 1.73099e-05
vt 0.0007 0.2952
vn -1 -1.82208e-05 0
vt 0.5117 0.9987
vn 1 5.46623e-05 0
vt 0.0162 0.9987
vn 1 5.46623e-05 0
vt 0.5117 0.2952
vn 1 5.46623e-05 0
vt 0.5117 0.9987
vn 1 5.46623e-05 0
vt 0.0162 0.2952
vn -1 -1.02372e-05 -1.24467e-05
vt 0.4979 0.2952
vn -1 -7.98407e-06 -9.70732e-06
vt 0.0007 0.9987
vn -1 -1.82216e-05 -2.21544e-05
vt 0.0007 0.2952
vn -1 0 0
vt 0.4979 0.9987
vn 1 5.46623e-05 0
vt 0.4979 0.2952
vn 1 5.46623e-05 0
vt 0.0152 0.9987
vn 1 5.46623e-05 0
vt 0.0152 0.2952
vn 1 5.46623e-05 0
vt 0.4979 0.9987
vn -1 0 0
vt 0.5117 0.2952
vn -1 0 0
vt 0.011 0.9987
vn -1 0 0
vt 0.011 0.2952
vn -1 0 0
vt 0.5117 0.9987
vn 1 5.46623e-05 2.04852e-05
vt 0.0007 0.9987
vn 1 5.46623e-05 2.04852e-05
vt 0.4979 0.2952
vn 1 5.46623e-05 2.04852e-05
vt 0.4979 0.9987
vn 1 5.46623e-05 2.04852e-05
vt 0.0007 0.2952
vn 0 0 1
vt 0.0007 0.9987
vn 0 0 1
vt 0.4979 0.2952
vn 0 0 1
vt 0.4979 0.9987
vn 0 0 1
vt 0.0007 0.2952
vn 0 0 1
vt 0.0147 0.9987
vn 0 0 1
vt 0.5117 0.2952
vn 0 0 1
vt 0.5117 0.9987
vn 0 0 1
vt 0.0147 0.2952
vn 0 0 -1
vt 0.0007 0.9987
vn 0 0 -1
vt 0.5117 0.2952
vn 0 0 -1
vt 0.5117 0.9987
vn 0 0 -1
vt 0.0007 0.2952
vn 0 0 -1
vt 0.0147 0.9987
vn 0 0 -1
vt 0.5117 0.2952
vn 0 0 -1
vt 0.5117 0.9987
vn 0 0 -1
vt 0.0147 0.2952
vn -2.81789e-05 -0.000149558 1
vt 0.0022 0.9987
vn -1.05497e-05 -0.000399559 1
vt 1.346 0.9214
vn -2.90466e-05 -0.000137254 1
vt 0.0022 0.9214
vn -9.68131e-06 -0.000411873 1
vt 1.346 0.9987
vn 3.39822e-05 -1.69967e-05 1
vt 0.5397 0.9987
vn 5.33998e-05 -3.40032e-06 1
vt 0.9995 0.3107
vn 0 -4.07915e-05 1
vt 0.9995 0.9987
vn 8.73838e-05 2.03957e-05 1
vt 0.5397 0.3107
vn 0 0 1
vt 0.9763 0.3107
vn 0 0 1
vt 0.512 0.9987
vn 0 0 1
vt 0.512 0.3107
vn 0 0 1
vt 0.9763 0.9987
vn 1 -3.32057e-05 4.51254e-05
vt 1.0001 0.9599
vn 1 -3.77015e-05 4.1806e-05
vt 0.5122 0.5597
vn 1 -2.36363e-05 5.21905e-05
vt 1.0001 0.5597
vn 1 -4.72719e-05 3.47401e-05
vt 0.5122 0.9599
vn -1 0 0
vt 1.0001 0.9599
vn -1 0 0
vt 0.5122 0.5597
vn -1 0 0
vt 1.0001 0.5597
vn -1 0 0
vt 0.5122 0.9599
vn 1 0 0
vt 0.7249 0.3107
vn 1 0 0
vt 0.9758 0.9987
vn 1 0 0
vt 0.7249 0.9987
vn 1 0 0
vt 0.9758 0.3107
vn -0.000179448 0 -1
vt 0.0005 0.2403
vn -0.000179378 0 -1
vt 0.8069 0.2403
vn -0.71754 0 -0.696517
vt 0.0005 0.2904
vn -0.71754 0 -0.696517
vt 0.8069 0.2904
vn -0.855127 0 0.518418
vt 0.0005 0.19
vn -0.855127 0 0.518418
vt 0.8069 0.19
vn -0.50909 0 0.860714
vt 0.0005 0.2234
vn -0.50909 0 0.860714
vt 0.8069 0.2234
vn 0.510849 0 0.85967
vt 0.0005 0.2569
vn 0.510849 0 0.85967
vt 0.8069 0.2569
vn 0.856153 0 0.516723
vt 0.0005 0.2904
vn 0.856153 0 0.516723
vt 0.8069 0.2904
vn 0.716794 0 -0.697285
vt 0.0005 0.1901
vn 0.716794 0 -0.697285
vt 0.8069 0.1901
vn -0.000179431 0 -1
vt 0.0005 0.2403
vn -0.000179436 0 -1
vt 0.8069 0.2403
vn -0.717666 0 -0.696388
vt 0.0005 0.2904
vn -0.717666 0 -0.696388
vt 0.8069 0.2904
vn -0.855283 0 0.518161
vt 0.0005 0.19
vn -0.855283 0 0.518161
vt 0.8069 0.19
vn -0.509181 0 0.860659
vt 0.0005 0.2234
vn -0.509181 0 0.860659
vt 0.8069 0.2234
vn 0.510849 0 0.85967
vt 0.0005 0.2569
vn 0.510849 0 0.85967
vt 0.8069 0.2569
vn 0.856153 0 0.516722
vt 0.0005 0.2904
vn 0.856153 0 0.516722
vt 0.8069 0.2904
vn 0.716793 0 -0.697286
vt 0.0005 0.1901
vn 0.716793 0 -0.697286
vt 0.8069 0.1901
vn -1 0 0
vt 0.5104 0.4899
vn -1 0 0
vt 0.9996 1
vn -1 0 0
vt 0.5104 1
vn -1 0 0
vt 0.9996 0.4899
vn 1.92962e-05 -9.48739e-13 -1
vt 0.9992 0.3118
vn 1.92962e-05 -9.48739e-13 -1
vt 0.5274 0.9992
vn 1.92962e-05 -9.48739e-13 -1
vt 0.5274 0.3118
vn 1.92962e-05 -9.48739e-13 -1
vt 0.9992 0.9992
vn -1.94756e-05 -2.65542e-13 -1
vt 0.99 0.3118
vn -1.94756e-05 -2.65542e-13 -1
vt 0.5123 0.9992
vn -1.94756e-05 -2.65542e-13 -1
vt 0.5123 0.3118
vn -1.94756e-05 -2.65542e-13 -1
vt 0.99 0.9992
f 1/1/1 2/2/2 3/3/3
f 2/2/2 1/1/1 4/4/4
f 5/5/5 6/6/6 7/7/7
f 6/6/6 5/5/5 8/8/8
f 9/9/9 4/10/10 1/11/11
f 4/10/10 9/9/9 10/12/12
f 8/13/13 11/14/14 12/15/15
f 11/14/14 8/13/13 5/16/16
f 13/17/17 10/18/18 9/19/19
f 10/18/18 13/17/17 14/20/20
f 15/21/21 12/22/22 11/23/23
f 12/22/22 15/21/21 16/24/24
f 17/25/25 18/26/26 19/27/27
f 18/26/26 17/25/25 20/28/28
f 19/29/29 21/30/30 22/31/31
f 21/30/30 19/29/29 18/32/32
f 23/33/33 24/34/34 25/35/35
f 24/34/34 23/33/33 26/36/36
f 27/37/37 26/38/38 23/39/39
f 26/38/38 27/37/37 28/40/40
f 29/41/41 30/42/42 31/43/43
f 30/42/42 29/41/41 32/44/44
f 33/45/45 1/46/46 34/47/47
f 1/46/46 33/45/45 35/48/48
f 36/49/49 37/50/50 38/51/51
f 37/50/50 36/49/49 39/52/52
f 40/53/53 41/54/54 42/55/55
f 41/54/54 40/53/53 43/56/56
f 44/57/57 45/58/58 46/59/59
f 45/58/58 44/57/57 47/60/60
f 21/61/61 37/62/62 30/63/63
f 37/62/62 21/61/61 38/64/64
f 48/65/65 49/66/66 50/67/67
f 50/67/67 49/66/66 51/68/68
f 50/69/69 51/70/70 52/71/71
f 52/71/71 51/70/70 53/72/72
f 52/71/71 53/72/72 54/73/73
f 54/73/73 53/72/72 55/74/74
f 54/73/73 55/74/74 56/75/75
f 56/75/75 55/74/74 57/76/76
f 56/77/77 57/78/78 48/65/65
f 48/65/65 57/78/78 49/66/66
f 58/79/79 59/80/80 60/81/81
f 60/81/81 59/80/80 61/82/82
f 60/83/83 61/84/84 62/85/85
f 62/85/85 61/84/84 63/86/86
f 62/85/85 63/86/86 64/87/87
f 64/87/87 63/86/86 65/88/88
f 64/87/87 65/88/88 66/89/89
f 66/89/89 65/88/88 67/90/90
f 66/91/91 67/92/92 58/79/79
f 58/79/79 67/92/92 59/80/80
f 68/93/93 69/94/94 70/95/95
f 69/94/94 68/93/93 71/96/96
f 28/97/97 72/98/98 73/99/99
f 72/98/98 28/97/97 27/100/100
f 73/101/101 74/102/102 75/103/103
f 74/102/102 73/101/101 72/104/104
