#
# Exported by OpenBRF -- marco tarini
#
s fysg_chengqiang04
newmtl fysg_chengmeng02
Ka 0.8 0.8 0.8
Kd 0.2 0.2 0.2
usemtl fysg_chengmeng02
v -0.535394 0.004899 0.176465
v 0.567787 0.004899 0.176465
v -0.535394 1.3767 0.176465
v 0.567787 1.3767 0.176465
v -0.535394 0.004899 -0.178435
v 0.567787 0.004899 -0.178435
v -0.535394 1.3767 -0.178435
v 0.567787 1.3767 -0.178435
v -0.036943 0.459699 0.176465
v -0.036943 0.459699 -0.178435
v -0.033363 0.879999 0.176465
v -0.033363 0.879999 -0.178435
v 0.089687 0.886299 0.176465
v 0.089687 0.886299 -0.178435
v 0.098627 0.468199 0.176465
v 0.098627 0.468199 -0.178435
vn 0 0 1
vt 0.374074 0.565862
vn 0 0 1
vt 0.242861 0.6712
vn 0 0 1
vt 0.173704 0.679826
vn 0 0 1
vt 0 0.565862
vn 0 0 1
vt 0.163183 0.78769
vn 0 0 1
vt 0.012645 0.905163
vn 0 0 1
vt 0.374074 0.908324
vn 0 0 1
vt 0.228438 0.778797
vn 0.566502 0 -0.82406
vt 0.374074 0.565862
vn -0.328817 0 -0.944394
vt 0 0.565862
vn 0 0 -1
vt 0.173704 0.679826
vn 0 0 -1
vt 0.242861 0.6712
vn 0 0 -1
vt 0.163183 0.78769
vn -0.618631 0 -0.785682
vt 0 0.911485
vn 0 0 -1
vt 0.228438 0.778797
vn 0.360138 0 -0.932899
vt 0.374074 0.911485
vn -1 0 0
vt 0.374074 0.565862
vn -1 0 0
vt 0.374074 0.911485
vn 0.999964 -0.00851742 0
vt 0.374074 0.565862
vn 0.999964 -0.00851742 0
vt 0.374074 0.911485
vn 0.999964 -0.00851742 0
vt 0 0.911485
vn 0.95228 0.305225 0
vt 0 0.565862
vn 0.051132 -0.998692 0
vt 0 0.911485
vn 0.051132 -0.998692 0
vt 0.374074 0.911485
vn 0.051132 -0.998692 0
vt 0.374074 0.565862
vn 0.051132 -0.998692 0
vt 0 0.565862
vn -0.958657 0.284563 0
vt 0.374074 0.565862
vn -0.999771 -0.0213776 0
vt 0.374074 0.911485
vn -0.999771 -0.0213776 0
vt 0 0.911485
vn -0.999771 -0.0213776 0
vt 0 0.565862
vn -0.0625754 0.99804 0
vt 0.374074 0.911485
vn -0.0625754 0.99804 0
vt 0 0.911485
vn 1 0 0
vt 0 0.911485
vn 1 0 0
vt 0 0.565862
vn 0 1 0
vt 0.374074 0.565862
vn 0 1 0
vt 0.374074 0.706005
vn 0 1 0
vt 0 0.696521
vn 0 1 0
vt 0 0.565862
f 2/1/1 15/2/2 9/3/3
f 2/1/1 9/3/3 1/4/4
f 11/5/5 3/6/6 1/4/4
f 11/5/5 1/4/4 9/3/3
f 2/1/1 4/7/7 13/8/8
f 2/1/1 13/8/8 15/2/2
f 4/7/7 3/6/6 11/5/5
f 4/7/7 11/5/5 13/8/8
f 6/9/9 5/10/10 10/11/11
f 6/9/9 10/11/11 16/12/12
f 12/13/13 10/11/11 5/10/10
f 12/13/13 5/10/10 7/14/14
f 6/9/9 16/12/12 14/15/15
f 6/9/9 14/15/15 8/16/16
f 8/16/16 14/15/15 12/13/13
f 8/16/16 12/13/13 7/14/14
f 1/17/17 3/18/18 7/14/14
f 1/17/17 7/14/14 5/10/10
f 10/19/19 12/20/20 11/21/21
f 10/19/19 11/21/21 9/22/22
f 12/23/23 14/24/24 13/25/25
f 12/23/23 13/25/25 11/26/26
f 15/27/27 13/28/28 14/29/29
f 15/27/27 14/29/29 16/30/30
f 15/27/27 16/31/31 10/32/32
f 15/27/27 10/32/32 9/22/22
f 6/9/9 8/16/16 4/33/33
f 6/9/9 4/33/33 2/34/34
f 4/35/35 8/36/36 7/37/37
f 4/35/35 7/37/37 3/38/38
