#
# Exported by OpenBRF -- marco tarini
#
s fysg_fanzi17
newmtl fysg_fanzi016
Ka 0.8 0.8 0.8
Kd 0.2 0.2 0.2
usemtl fysg_fanzi016
v -7.97687 3.3475 -5.89248
v -7.97687 1.38952 -5.89248
v -7.97687 1.38952 -4.17393
v -7.97687 3.3475 -4.17393
v -8.2225 4.83496 -5.0332
v -8.2225 5.53411 -5.0332
v -8.2225 5.0479 -5.51941
v -5.40456 3.83343 -1.57037
v -5.40456 0.598704 -1.57037
v -3.5954 0.598704 -1.57037
v -3.5954 3.83343 -1.57037
v -8.2225 5.0479 -4.54699
v -8.2225 6.23326 -5.03321
v -8.2225 6.02033 -5.51942
v -8.2225 5.53411 -4.33406
v -8.2225 6.02033 -4.54699
v -8.2225 5.53411 -5.73234
v 1.35924 3.3475 -5.89248
v 1.35924 3.3475 -4.17393
v 1.35924 1.38952 -4.17393
v 1.35924 1.38952 -5.89248
v 1.60486 4.83496 -5.0332
v 1.60486 5.0479 -5.51941
v 1.60486 5.53411 -5.0332
v 1.60486 5.0479 -4.54699
v 1.60486 6.02033 -5.51942
v 1.60486 6.23327 -5.03321
v 1.60486 5.53411 -4.33406
v 1.60486 6.02033 -4.54699
v 1.60486 5.53411 -5.73234
v -6.90031 0.764381 -1.455
v -9.28348 0.764381 -1.455
v -9.28348 0.764382 -0.255
v -6.90031 0.764382 -0.255
v -7.35315 1.75807 -2.30273
v -6.32882 1.75807 -2.30273
v -6.32882 3.523 -2.30273
v -7.35315 3.523 -2.30273
v -0.945385 3.523 -2.30273
v -0.945385 1.75807 -2.30273
v 0.625616 1.75807 -2.30273
v 0.625616 3.523 -2.30273
v -2.94556 1.46486 -7.77674
v -2.94556 3.85529 -7.77674
v -1.66496 3.85529 -7.77674
v -1.66496 1.46486 -7.77674
v -2.51639 3.523 -2.30273
v -2.51639 1.75807 -2.30273
v 0.55797 3.85529 -7.77674
v 0.55797 1.46486 -7.77674
v -8.11679 4.31828 -3.54692
v -9.28027 3.43793 -3.54692
v -9.28027 3.28874 -3.54692
v -8.11679 3.28874 -3.54692
v -8.11679 4.31828 -3.81938
v -8.11679 3.28874 -3.81938
v -9.28027 3.28874 -3.81938
v -9.28027 3.43793 -3.81938
v -8.11679 4.31828 -6.51949
v -8.11679 3.28874 -6.51949
v -9.28027 3.28874 -6.51949
v -9.28027 3.43793 -6.51949
v -8.11679 4.31828 -6.24703
v -9.28027 3.43793 -6.24703
v -9.28027 3.28874 -6.24703
v -8.11679 3.28874 -6.24703
v -7.98146 1.1102 -7.76197
v -5.50758 1.1102 -7.76197
v -5.5036 -0.00129662 -7.76197
v -7.98146 -0.00129662 -7.76197
v 1.36382 1.11021 -2.30444
v -0.964341 1.11021 -2.30444
v -0.97348 -0.00129662 -2.30444
v 1.36382 -0.00129662 -2.30444
v -7.98146 -0.00129662 -2.30444
v -5.70052 -0.00129662 -2.30444
v -5.70052 1.11021 -2.30444
v -7.98146 1.11021 -2.30444
v -0.971006 1.1102 -7.76197
v 1.36382 1.1102 -7.76197
v 1.36382 -0.00129662 -7.76197
v -0.967358 -0.00129662 -7.76197
v -3.29876 1.1102 -7.76197
v -3.29577 -0.00129662 -7.76197
v -3.29943 1.11021 -2.30444
v -3.29943 -0.00129662 -2.30444
v 1.56549 0.261694 -6.06047
v 1.56549 0.261694 -7.61133
v 1.56549 -0.00129662 -7.61133
v 1.56549 -0.00129662 -6.06047
v 1.56549 0.261694 -4.56088
v 1.56549 -0.00129662 -4.56094
v 1.56549 0.261695 -2.97258
v 1.56549 -0.00129662 -2.97252
vn -1 0 0
vt 0.748131 0.233564
vn -1 0 0
vt 0.748131 0.00333798
vn -1 0 0
vt 0.501205 0.00333798
vn -1 0 0
vt 0.501205 0.233564
vn -1 0 0
vt 0.625151 0.254561
vn -1 0 0
vt 0.625151 0.375402
vn -1 0 0
vt 0.548239 0.298433
vn 0 0 1
vt 0.752078 0.499814
vn 0 0 1
vt 0.752078 0.00049901
vn 0 0 1
vt 0.999501 0.00049901
vn 0 0 1
vt 0.9995 0.499814
vn -1 0 0
vt 0.702063 0.298433
vn -1 0 0
vt 0.625151 0.496243
vn -1 0 0
vt 0.548239 0.45237
vn -1 0 0
vt 0.745903 0.375402
vn -1 0 0
vt 0.702063 0.45237
vn -1 0 0
vt 0.504399 0.375402
vn 1 0 0
vt 0.501205 0.233564
vn 1 0 0
vt 0.748131 0.233564
vn 1 0 0
vt 0.748131 0.00333798
vn 1 0 0
vt 0.501205 0.00333798
vn 1 0 0
vt 0.625151 0.254561
vn 1 0 0
vt 0.548239 0.298433
vn 1 0 0
vt 0.625151 0.375402
vn 1 0 0
vt 0.702063 0.298433
vn 1 0 0
vt 0.548239 0.45237
vn 1 0 0
vt 0.625151 0.496243
vn 1 0 0
vt 0.745903 0.375402
vn 1 0 0
vt 0.702063 0.45237
vn 1 0 0
vt 0.504399 0.375402
vn 0 1 -4.76837e-07
vt 0.993755 0.127094
vn 0 1 -4.76837e-07
vt 0.993755 0.328939
vn 0 1 -4.76837e-07
vt 0.890639 0.328939
vn 0 1 -4.76837e-07
vt 0.890639 0.127094
vn 0 0 1
vt 0.500283 0.00049901
vn 0 0 1
vt 0.639083 0.00049901
vn 0 0 1
vt 0.639083 0.242435
vn 0 0 1
vt 0.500283 0.242435
vn 0 0 1
vt 0.749247 0.242573
vn 0 0 1
vt 0.749247 0.00049901
vn 0 0 1
vt 0.500706 0.00049901
vn 0 0 1
vt 0.500706 0.242573
vn 0 0 -1
vt 0.501205 0.00333798
vn 0 0 -1
vt 0.501205 0.233564
vn 0 0 -1
vt 0.624668 0.233564
vn 0 0 -1
vt 0.624668 0.00333798
vn 0 0 1
vt 0.500337 0.242573
vn 0 0 1
vt 0.500337 0.00049901
vn 0 0 -1
vt 0.748131 0.00333798
vn 0 0 -1
vt 0.748131 0.233564
vn 0 0 -1
vt 0.501205 0.233564
vn 0 0 -1
vt 0.501205 0.00333798
vn 0 0 1
vt 0.904697 0.940085
vn 0 0 1
vt 0.585022 0.707569
vn 0 0 1
vt 0.585022 0.668165
vn 0 0 1
vt 0.904697 0.668165
vn 0 0 -1
vt 0.904697 0.940085
vn 0 0 -1
vt 0.904697 0.668165
vn 0 0 -1
vt 0.585022 0.668165
vn 0 0 -1
vt 0.585022 0.707569
vn 0 0 -1
vt 0.904697 0.940085
vn 0 0 -1
vt 0.904697 0.668165
vn 0 0 -1
vt 0.585022 0.668165
vn 0 0 -1
vt 0.585022 0.707569
vn 0 0 1
vt 0.904697 0.940085
vn 0 0 1
vt 0.585022 0.707569
vn 0 0 1
vt 0.585022 0.668165
vn 0 0 1
vt 0.904697 0.668165
vn 0 0 -1
vt -1.00175 2.59208
vn 0 0 -1
vt -1.49451 2.59208
vn 0 0 -1
vt -1.49451 2.50331
vn 0 0 -1
vt -1.00175 2.50331
vn 0 0 1
vt 1.99892 0.593881
vn 0 0 1
vt 1.74476 0.593881
vn 0 0 1
vt 1.74476 0.502331
vn 0 0 1
vt 1.99892 0.502331
vn 0 0 1
vt 1.50507 0.504621
vn 0 0 1
vt 1.74596 0.504621
vn 0 0 1
vt 1.74596 0.593881
vn 0 0 1
vt 1.50507 0.593881
vn 0 0 -1
vt -1.49451 2.59208
vn 0 0 -1
vt -1.00175 2.59208
vn 0 0 -1
vt -1.00175 2.50331
vn 0 0 -1
vt -1.49451 2.50331
vn 0 0 -1
vt -1.00175 2.59208
vn 0 0 -1
vt -1.00175 2.50331
vn 0 0 1
vt 1.50643 0.593881
vn 0 0 1
vt 1.50643 0.502331
vn -1 0 0
vt -1.49743 -0.250666
vn -1 0 0
vt -1.00229 -0.250666
vn -1 0 0
vt -1.00229 -0.349028
vn -1 0 0
vt -1.49743 -0.349028
vn -1 0 0
vt -1.00229 -0.250666
vn -1 0 0
vt -1.00229 -0.349028
vn -1 0 0
vt 0.499585 0.703682
vn -1 0 0
vt 0.961183 0.703682
vn -1 0 0
vt 0.961189 0.800418
vn -1 0 0
vt 0.499577 0.800418
f 1/1/1 2/2/2 3/3/3
f 3/3/3 4/4/4 1/1/1
f 5/5/5 6/6/6 7/7/7
f 8/8/8 9/9/9 10/10/10
f 10/10/10 11/11/11 8/8/8
f 5/5/5 12/12/12 6/6/6
f 6/6/6 13/13/13 14/14/14
f 15/15/15 16/16/16 6/6/6
f 16/16/16 13/13/13 6/6/6
f 6/6/6 17/17/17 7/7/7
f 14/14/14 17/17/17 6/6/6
f 12/12/12 15/15/15 6/6/6
f 18/18/18 19/19/19 20/20/20
f 20/20/20 21/21/21 18/18/18
f 22/22/22 23/23/23 24/24/24
f 22/22/22 24/24/24 25/25/25
f 24/24/24 26/26/26 27/27/27
f 28/28/28 24/24/24 29/29/29
f 29/29/29 24/24/24 27/27/27
f 24/24/24 23/23/23 30/30/30
f 26/26/26 24/24/24 30/30/30
f 25/25/25 24/24/24 28/28/28
f 31/31/31 32/32/32 33/33/33
f 33/33/33 34/34/34 31/31/31
f 35/35/35 36/36/36 37/37/37
f 37/37/37 38/38/38 35/35/35
f 39/39/39 40/40/40 41/41/41
f 41/41/41 42/42/42 39/39/39
f 43/43/43 44/44/44 45/45/45
f 45/45/45 46/46/46 43/43/43
f 47/47/47 48/48/48 40/40/40
f 40/40/40 39/39/39 47/47/47
f 46/49/49 45/50/50 49/51/51
f 49/51/51 50/52/52 46/49/49
f 51/53/53 52/54/54 53/55/55
f 53/55/55 54/56/56 51/53/53
f 55/57/57 56/58/58 57/59/59
f 57/59/59 58/60/60 55/57/57
f 59/61/61 60/62/62 61/63/63
f 61/63/63 62/64/64 59/61/61
f 63/65/65 64/66/66 65/67/67
f 65/67/67 66/68/68 63/65/65
f 67/69/69 68/70/70 69/71/71
f 69/71/71 70/72/72 67/69/69
f 71/73/73 72/74/74 73/75/75
f 73/75/75 74/76/76 71/73/73
f 75/77/77 76/78/78 77/79/79
f 77/79/79 78/80/80 75/77/77
f 79/81/81 80/82/82 81/83/83
f 81/83/83 82/84/84 79/81/81
f 83/85/85 79/81/81 82/84/84
f 82/84/84 84/86/86 83/85/85
f 68/70/70 83/85/85 84/86/86
f 84/86/86 69/71/71 68/70/70
f 72/74/74 85/87/87 86/88/88
f 86/88/88 73/75/75 72/74/74
f 87/89/89 88/90/90 89/91/91
f 89/91/91 90/92/92 87/89/89
f 91/93/93 87/89/89 90/92/92
f 90/92/92 92/94/94 91/93/93
f 93/95/95 91/96/96 92/97/97
f 92/97/97 94/98/98 93/95/95
