#
# Exported by OpenBRF -- marco tarini
#
s fysg_cheng_xiaoqiang01
newmtl fysg_cheng_taisoufu
Ka 0.8 0.8 0.8
Kd 0.2 0.2 0.2
usemtl fysg_cheng_taisoufu
v 1.07481 0.105115 0.662622
v 1.07481 0.105115 -0.911454
v 7.33376 0.105115 0.662618
v 13.5927 0.105115 -0.91145
v 13.5927 0.105115 0.662636
v 7.33379 0.105115 -0.911464
v 1.07484 11.0852 0.662625
v 1.07484 11.0852 -0.911461
v 7.33376 11.0852 0.662622
v 13.5927 11.0852 -0.911461
v 13.5927 11.0852 0.662636
v 7.33376 11.0852 -0.911475
v 1.07389 11.0852 0.661759
v 1.07389 11.0894 1.75694
v 1.07389 11.7945 2.09718
v 1.07389 13.7052 0.0366612
v 1.07389 14.1778 0.0366612
v 1.07389 14.1778 -0.371294
v 4.20477 14.1778 -0.371305
v 4.20477 11.0852 0.661759
v 4.20477 11.0894 1.75694
v 4.20477 11.7945 2.09717
v 4.20477 13.7052 0.0366612
v 4.20477 14.1778 0.0366612
v 4.20477 11.0894 -2.09438
v 4.20477 11.0852 -0.912405
v 4.20477 11.7945 -2.43462
v 4.20477 13.7052 -0.372701
v 1.07389 11.0894 -2.09437
v 1.07389 11.0852 -0.912405
v 1.07389 11.7945 -2.43462
v 1.07389 13.7052 -0.372701
v 7.33282 14.1778 0.0366612
v 7.33282 14.1778 -0.371301
v 10.4609 14.1778 -0.371294
v 10.4609 14.1778 0.0366612
v 7.33282 11.0852 0.661759
v 10.4609 11.0852 0.661759
v 7.33282 11.0894 1.75694
v 10.4609 11.0894 1.75695
v 7.33282 11.7945 2.09718
v 10.4609 11.7945 2.09718
v 7.33282 13.7052 0.0366612
v 10.4609 13.7052 0.0366612
v 13.5918 11.0852 -0.912394
v 10.4609 11.0852 -0.912405
v 13.5917 14.1778 -0.371284
v 10.4609 13.7052 -0.372694
v 13.5917 13.7052 -0.372684
v 13.5917 14.1778 0.0366754
v 13.5917 11.0852 0.66177
v 13.5917 11.0894 1.75696
v 13.5917 11.7945 2.09719
v 13.5917 13.7052 0.0366754
v 7.33282 11.0852 -0.912405
v 7.33282 13.7052 -0.372698
v 13.5918 11.0894 -2.09437
v 10.4609 11.0894 -2.09438
v 13.5918 11.7945 -2.4346
v 10.4609 11.7945 -2.43462
v 7.33282 11.0894 -2.09438
v 7.33282 11.7945 -2.43462
v -11.4427 0.105115 0.662618
v -11.4427 11.0852 0.662622
v -5.18376 11.0852 0.662636
v -5.18376 0.105115 0.662636
v -5.18376 11.0852 -0.911461
v -11.4427 11.0852 -0.911475
v -11.4427 0.105115 -0.911464
v -5.18376 0.105115 -0.911454
v 1.07516 11.0852 0.662625
v 1.07516 0.105115 0.662622
v 1.07519 11.0852 -0.911461
v 1.07519 0.105115 -0.911454
v -11.4436 14.1778 0.0366612
v -11.4436 14.1778 -0.371301
v -8.31275 14.1778 -0.371287
v -8.31275 14.1778 0.0366683
v -11.4436 11.0852 0.661759
v -11.4436 11.0894 1.75694
v -8.31275 11.0894 1.75695
v -8.31275 11.0852 0.66177
v -11.4436 11.7945 2.09718
v -8.31275 11.7945 2.09719
v -11.4436 13.7052 0.0366612
v -8.31275 13.7052 0.0366683
v -5.18471 14.1778 -0.371284
v -8.31275 13.7052 -0.372687
v -5.18471 13.7052 -0.372684
v -5.18471 14.1778 0.0366754
v -5.18471 11.0894 1.75696
v -5.18471 11.0852 0.66177
v -5.18471 11.7945 2.09719
v -5.18471 13.7052 0.0366754
v -11.4436 13.7052 -0.372701
v -5.18468 11.0852 -0.912394
v -5.18468 11.0894 -2.09436
v -8.31275 11.0894 -2.09437
v -8.31275 11.0852 -0.912394
v -5.18471 11.7945 -2.4346
v -8.31275 11.7945 -2.4346
v -11.4436 11.0894 -2.09438
v -11.4436 11.0852 -0.912408
v -11.4436 11.7945 -2.43462
v -2.05664 14.1778 -0.37128
v -2.05664 14.1778 0.0366648
v -2.05664 11.0894 1.75696
v -2.05664 11.0852 0.661762
v -2.05664 11.7945 2.09721
v -2.05664 13.7052 0.0366648
v 1.07424 14.1778 -0.37128
v -2.05664 13.7052 -0.372673
v 1.07424 13.7052 -0.37268
v 1.07424 14.1778 0.0366683
v 1.07424 11.0894 1.75696
v 1.07424 11.0852 0.661759
v 1.07424 11.7945 2.0972
v 1.07424 13.7052 0.0366683
v 1.07424 11.0852 -0.912405
v 1.07424 11.0895 -2.09436
v -2.05664 11.0894 -2.09437
v -2.05664 11.0852 -0.912405
v 1.07424 11.7945 -2.4346
v -2.05664 11.7945 -2.4346
vn 0 -3.21516e-07 1
vt 0.35589 0.00465101
vn 0 -2.14344e-07 1
vt 0.35589 0.236468
vn 0 -3.21516e-07 1
vt 0.548144 0.236468
vn 0 -3.21517e-07 1
vt 0.548144 0.00465101
vn 0 -8.60572e-07 -1
vt 0.548215 0.236468
vn 0 -9.69343e-07 -1
vt 0.548215 0.00465101
vn 0 -8.06188e-07 -1
vt 0.35589 0.00465101
vn 0 -6.43026e-07 -1
vt 0.35589 0.236468
vn 0 -1.60758e-07 1
vt 0.548144 0.00465101
vn 0 0 1
vt 0.548144 0.236468
vn 0 -9.6934e-07 -1
vt 0.35589 0.236468
vn 0 -9.6934e-07 -1
vt 0.35589 0.00465101
vn 0 1 0
vt 1.60731 -0.716817
vn 0 1 0
vt 1.37665 -0.716817
vn 0 0.86592 -0.500182
vt 1.37665 -0.760312
vn 0 1 0
vt 1.60731 -0.760312
vn 0 -0.999992 0.00388891
vt 0.997089 0.04811
vn 0 -0.999992 0.00389045
vt 0.791249 0.04811
vn 0 -0.962465 0.271405
vt 0.791249 0.08654
vn 0 -0.782179 0.623054
vt 0.997089 0.08654
vn 0 0.383749 0.923437
vt 0.791249 0.138816
vn 0 0.641057 0.767493
vt 0.997089 0.138816
vn 0 0.733261 0.679947
vt 0.791249 0.281765
vn 0 0.733261 0.679947
vt 0.997089 0.281765
vn 0 0 1
vt 1.60731 -0.716817
vn 0 0 1
vt 1.37665 -0.716817
vn 0 0.21089 0.97751
vt 1.37665 -0.760312
vn 0 0 1
vt 1.60731 -0.760312
vn 0 0.00295579 -0.999996
vt 1.60731 -0.760312
vn 0 0.00295579 -0.999996
vt 1.60731 -0.716817
vn 0 0.00295579 -0.999996
vt 1.37665 -0.716817
vn 0 1 0
vt 1.37665 -0.716817
vn 0 0.865355 0.501159
vt 1.60731 -0.760312
vn 0 1 0
vt 1.60731 -0.716817
vn 0 -0.962465 0.271406
vt 0.997089 0.08654
vn 0 -0.999992 0.00389045
vt 0.997089 0.04811
vn 0 -0.999992 0.00389045
vt 0.791249 0.04811
vn 0 -0.782178 0.623055
vt 0.791249 0.08654
vn 0 0.383749 0.923437
vt 0.997089 0.138816
vn 0 0.641057 0.767493
vt 0.791249 0.138816
vn 0 0.733261 0.679947
vt 0.997089 0.281765
vn 0 0.733261 0.679947
vt 0.791249 0.281765
vn 0 0 1
vt 1.60731 -0.716817
vn 0 0.00296703 -0.999996
vt 1.60731 -0.760312
vn 0 0.00295579 -0.999996
vt 1.60731 -0.716817
vn 0 0.00296703 -0.999996
vt 1.37665 -0.716817
vn 0 0.00297826 -0.999996
vt 1.37665 -0.760312
vn 0 -0.999994 -0.00360334
vt 0.997089 0.04811
vn 0 -0.999994 -0.00360191
vt 0.791249 0.04811
vn 0 -0.966901 -0.255152
vt 0.791249 0.08654
vn 0 -0.796376 -0.604801
vt 0.997089 0.08654
vn 0 0.384081 -0.923299
vt 0.791249 0.138816
vn 0 0.641337 -0.767259
vt 0.997089 0.138816
vn 0 0.733492 -0.679698
vt 0.791249 0.281765
vn 0 0.733492 -0.679698
vt 0.997089 0.281765
vn 0 -0.966901 -0.255153
vt 0.997089 0.08654
vn 0 -0.999994 -0.00360191
vt 0.997089 0.04811
vn 0 -0.999994 -0.00360335
vt 0.791249 0.04811
vn 0 -0.796377 -0.6048
vt 0.791249 0.08654
vn 0 0.384079 -0.9233
vt 0.997089 0.138816
vn 0 0.641336 -0.76726
vt 0.791249 0.138816
vn 0 0.733492 -0.679698
vt 0.997089 0.281765
vn 0 0.733492 -0.679698
vt 0.791249 0.281765
vn 0 0.865352 0.501164
vt 1.37665 -0.760312
vn 0 0.210886 0.977511
vt 1.60731 -0.760312
vn 0 1 0
vt 1.60731 -0.716817
vn 0 1 0
vt 1.37665 -0.716817
vn 0 -0.999992 0.00388889
vt 0.997089 0.04811
vn 0 -0.999992 0.00388734
vt 0.791249 0.04811
vn 0 -0.962466 0.271404
vt 0.791249 0.08654
vn 0 -0.782178 0.623055
vt 0.997089 0.08654
vn 0 0.383752 0.923436
vt 0.791249 0.138816
vn 0 0.641058 0.767492
vt 0.997089 0.138816
vn 0 0.733262 0.679946
vt 0.791249 0.281765
vn 0 0.733261 0.679947
vt 0.997089 0.281765
vn 0 0 1
vt 1.37665 -0.716817
vn 0 0 1
vt 1.60731 -0.716817
vn 0 0.00296329 -0.999996
vt 1.60731 -0.760312
vn 0 0.00296326 -0.999996
vt 1.60731 -0.716817
vn 0 0.00296329 -0.999996
vt 1.37665 -0.716817
vn 0 0.00296332 -0.999996
vt 1.37665 -0.760312
vn 0 0.655102 -0.75554
vt 1.60731 -0.760312
vn 0 1 0
vt 1.60731 -0.716817
vn 0 1 0
vt 1.37665 -0.716817
vn 0 1 0
vt 1.37665 -0.760312
vn 0 -0.962466 0.271402
vt 0.997089 0.08654
vn 0 -0.999992 0.00388734
vt 0.997089 0.04811
vn 0 -0.999992 0.00388887
vt 0.791249 0.04811
vn 0 -0.782179 0.623054
vt 0.791249 0.08654
vn 0 0.383752 0.923436
vt 0.997089 0.138816
vn 0 0.641059 0.767492
vt 0.791249 0.138816
vn 0 0.733262 0.679946
vt 0.997089 0.281765
vn 0 0.733262 0.679946
vt 0.791249 0.281765
vn -7.62939e-06 0 1
vt 1.37665 -0.716817
vn -7.62939e-06 0 1
vt 1.37665 -0.760312
vn 0 0.00296332 -0.999996
vt 1.60731 -0.716817
vn 0 0.00295956 -0.999996
vt 1.37665 -0.716817
vn 0 0.00295579 -0.999996
vt 1.37665 -0.760312
vn 0 -0.999994 -0.00360192
vt 0.997089 0.04811
vn 0 -0.999994 -0.00360192
vt 0.791249 0.04811
vn 0 -0.966901 -0.255152
vt 0.791249 0.08654
vn 0 -0.796377 -0.604801
vt 0.997089 0.08654
vn 7.62939e-06 0.384083 -0.923299
vt 0.791249 0.138816
vn 0 0.641338 -0.767259
vt 0.997089 0.138816
vn 0 0.733492 -0.679698
vt 0.791249 0.281765
vn 0 0.733492 -0.679698
vt 0.997089 0.281765
vn 0 -0.966901 -0.255153
vt 0.997089 0.08654
vn 0 -0.999994 -0.00360192
vt 0.997089 0.04811
vn 0 -0.999994 -0.00360334
vt 0.791249 0.04811
vn 0 -0.796376 -0.604801
vt 0.791249 0.08654
vn 0 0.384082 -0.923299
vt 0.997089 0.138816
vn 0 0.641338 -0.767259
vt 0.791249 0.138816
vn 0 0.733492 -0.679698
vt 0.997089 0.281765
vn 0 0.733492 -0.679698
vt 0.791249 0.281765
vn 0 -1.07172e-07 1
vt 0.35589 0.00465101
vn 0 -1.07172e-07 1
vt 0.35589 0.236468
vn 0 -1.60758e-07 1
vt 0.548144 0.236468
vn 0 -3.21515e-07 1
vt 0.548144 0.00465101
vn 0 -7.51802e-07 -1
vt 0.548215 0.236468
vn 0 -6.43031e-07 -1
vt 0.548215 0.00465101
vn 0 -8.06188e-07 -1
vt 0.35589 0.00465101
vn 0 -9.69345e-07 -1
vt 0.35589 0.236468
vn 0 -1.60758e-07 1
vt 0.548144 0.00465101
vn 0 -3.21515e-07 1
vt 0.548144 0.236468
vn 0 -6.43031e-07 -1
vt 0.35589 0.236468
vn 0 -6.43031e-07 -1
vt 0.35589 0.00465101
vn 0 1 0
vt 1.60731 -0.716817
vn 0 1 0
vt 1.37665 -0.716817
vn 0 0.865919 -0.500185
vt 1.37665 -0.760312
vn 0 1 0
vt 1.60731 -0.760312
vn 0 -0.999992 0.00388737
vt 0.997089 0.04811
vn 0 -0.999992 0.00388736
vt 0.791249 0.04811
vn 0 -0.962466 0.271402
vt 0.791249 0.08654
vn 0 -0.782181 0.623052
vt 0.997089 0.08654
vn -7.62939e-06 0.38375 0.923437
vt 0.791249 0.138816
vn 0 0.641057 0.767493
vt 0.997089 0.138816
vn 0 0.733261 0.679947
vt 0.791249 0.281765
vn 0 0.733261 0.679948
vt 0.997089 0.281765
vn 0 0 1
vt 1.60731 -0.716817
vn 0 0 1
vt 1.37665 -0.716817
vn 0 0.210885 0.977511
vt 1.37665 -0.760312
vn 0 0 1
vt 1.60731 -0.760312
vn 0 0.00296326 -0.999996
vt 1.60731 -0.760312
vn 0 0.00296326 -0.999996
vt 1.60731 -0.716817
vn 0 0.00296326 -0.999996
vt 1.37665 -0.716817
vn 0 1 0
vt 1.37665 -0.716817
vn 0 0.865351 0.501166
vt 1.60731 -0.760312
vn 0 1 0
vt 1.60731 -0.716817
vn 0 -0.962467 0.2714
vt 0.997089 0.08654
vn 0 -0.999992 0.00388736
vt 0.997089 0.04811
vn 0 -0.999992 0.00388734
vt 0.791249 0.04811
vn 0 -0.782182 0.62305
vt 0.791249 0.08654
vn 0 0.383752 0.923436
vt 0.997089 0.138816
vn 0 0.641059 0.767492
vt 0.791249 0.138816
vn 0 0.733262 0.679947
vt 0.997089 0.281765
vn 0 0.733261 0.679947
vt 0.791249 0.281765
vn 0 0 1
vt 1.60731 -0.716817
vn 7.62939e-06 0.00296326 -0.999996
vt 1.60731 -0.760312
vn 7.62939e-06 0.00296326 -0.999996
vt 1.60731 -0.716817
vn 7.62939e-06 0.00296326 -0.999996
vt 1.37665 -0.716817
vn 7.62939e-06 0.00296326 -0.999996
vt 1.37665 -0.760312
vn 0 -0.999994 -0.00360192
vt 0.997089 0.04811
vn 0 -0.999994 -0.00360192
vt 0.791249 0.04811
vn 0 -0.966901 -0.255152
vt 0.791249 0.08654
vn 0 -0.796377 -0.604801
vt 0.997089 0.08654
vn 0 0.38408 -0.9233
vt 0.791249 0.138816
vn 0 0.641337 -0.767259
vt 0.997089 0.138816
vn 0 0.733492 -0.679698
vt 0.791249 0.281765
vn 0 0.733492 -0.679698
vt 0.997089 0.281765
vn 0 -0.966901 -0.255153
vt 0.997089 0.08654
vn 0 -0.999994 -0.00360192
vt 0.997089 0.04811
vn 0 -0.999994 -0.00360192
vt 0.791249 0.04811
vn 0 -0.796376 -0.604802
vt 0.791249 0.08654
vn 7.62939e-06 0.384081 -0.923299
vt 0.997089 0.138816
vn 0 0.641337 -0.76726
vt 0.791249 0.138816
vn 0 0.733492 -0.679699
vt 0.997089 0.281765
vn 0 0.733492 -0.679699
vt 0.791249 0.281765
vn 0 0.865349 0.501171
vt 1.37665 -0.760312
vn 0 0.21088 0.977512
vt 1.60731 -0.760312
vn 0 1 0
vt 1.60731 -0.716817
vn 0 1 0
vt 1.37665 -0.716817
vn 0 -0.999992 0.0038873
vt 0.997089 0.04811
vn 0 -0.999992 0.00388729
vt 0.791249 0.04811
vn 0 -0.962467 0.271398
vt 0.791249 0.08654
vn 0 -0.782182 0.62305
vt 0.997089 0.08654
vn 0 0.383756 0.923434
vt 0.791249 0.138816
vn 0 0.64106 0.767491
vt 0.997089 0.138816
vn 0 0.733263 0.679945
vt 0.791249 0.281765
vn 0 0.733261 0.679947
vt 0.997089 0.281765
vn 0 0 1
vt 1.37665 -0.716817
vn 0 0 1
vt 1.60731 -0.716817
vn 0 0.00295582 -0.999996
vt 1.60731 -0.760312
vn 0 0.00296332 -0.999996
vt 1.60731 -0.716817
vn 0 0.00295582 -0.999996
vt 1.37665 -0.716817
vn 0 0.00294832 -0.999996
vt 1.37665 -0.760312
vn 0 0.655094 -0.755547
vt 1.60731 -0.760312
vn 0 1 0
vt 1.60731 -0.716817
vn 0 1 0
vt 1.37665 -0.716817
vn 0 1 0
vt 1.37665 -0.760312
vn 0 -0.962467 0.271397
vt 0.997089 0.08654
vn 0 -0.999992 0.00388728
vt 0.997089 0.04811
vn 0 -0.999992 0.00388728
vt 0.791249 0.04811
vn 0 -0.782184 0.623047
vt 0.791249 0.08654
vn 0 0.383756 0.923434
vt 0.997089 0.138816
vn 0 0.641061 0.76749
vt 0.791249 0.138816
vn 0 0.733264 0.679944
vt 0.997089 0.281765
vn 0 0.733263 0.679945
vt 0.791249 0.281765
vn 0 0 1
vt 1.37665 -0.716817
vn 0 0 1
vt 1.37665 -0.760312
vn 0 0.00294832 -0.999996
vt 1.60731 -0.716817
vn 0 0.00295579 -0.999996
vt 1.37665 -0.716817
vn 0 0.00296326 -0.999996
vt 1.37665 -0.760312
vn 0 -0.999994 -0.00360338
vt 0.997089 0.04811
vn 0 -0.999994 -0.00360195
vt 0.791249 0.04811
vn 0 -0.9669 -0.255156
vt 0.791249 0.08654
vn 0 -0.796373 -0.604806
vt 0.997089 0.08654
vn 0 0.384087 -0.923297
vt 0.791249 0.138816
vn 0 0.641339 -0.767258
vt 0.997089 0.138816
vn 0 0.733492 -0.679698
vt 0.791249 0.281765
vn 0 0.733492 -0.679699
vt 0.997089 0.281765
vn 0 -0.966901 -0.255154
vt 0.997089 0.08654
vn 0 -0.999994 -0.00360195
vt 0.997089 0.04811
vn 0 -0.999994 -0.00360194
vt 0.791249 0.04811
vn 0 -0.796375 -0.604803
vt 0.791249 0.08654
vn 0 0.384086 -0.923297
vt 0.997089 0.138816
vn 0 0.641338 -0.767258
vt 0.791249 0.138816
vn 0 0.733493 -0.679697
vt 0.997089 0.281765
vn 0 0.733492 -0.679698
vt 0.791249 0.281765
f 3/1/1 9/2/2 7/3/3
f 3/1/1 7/3/3 1/4/4
f 12/5/5 6/6/6 2/7/7
f 12/5/5 2/7/7 8/8/8
f 5/9/9 11/10/10 9/2/2
f 5/9/9 9/2/2 3/1/1
f 10/11/11 4/12/12 6/6/6
f 10/11/11 6/6/6 12/5/5
f 17/13/13 24/14/14 19/15/15
f 17/13/13 19/15/15 18/16/16
f 13/17/17 20/18/18 21/19/19
f 13/17/17 21/19/19 14/20/20
f 14/20/20 21/19/19 22/21/21
f 14/20/20 22/21/21 15/22/22
f 15/22/22 22/21/21 23/23/23
f 15/22/22 23/23/23 16/24/24
f 16/25/25 23/26/26 24/27/27
f 16/25/25 24/27/27 17/28/28
f 34/29/29 56/30/30 28/31/31
f 34/29/29 28/31/31 19/15/15
f 19/32/32 24/27/27 33/33/33
f 19/32/32 33/33/33 34/34/34
f 21/35/35 20/36/36 37/37/37
f 21/35/35 37/37/37 39/38/38
f 22/39/39 21/35/35 39/38/38
f 22/39/39 39/38/38 41/40/40
f 23/41/41 22/39/39 41/40/40
f 23/41/41 41/40/40 43/42/42
f 24/27/27 23/26/26 43/43/43
f 24/27/27 43/43/43 33/33/33
f 19/44/44 28/45/45 32/46/46
f 19/44/44 32/46/46 18/47/47
f 55/48/48 26/49/49 25/50/50
f 55/48/48 25/50/50 61/51/51
f 61/51/51 25/50/50 27/52/52
f 61/51/51 27/52/52 62/53/53
f 62/53/53 27/52/52 28/54/54
f 62/53/53 28/54/54 56/55/55
f 25/56/56 26/57/57 30/58/58
f 25/56/56 30/58/58 29/59/59
f 27/60/60 25/56/56 29/59/59
f 27/60/60 29/59/59 31/61/61
f 28/62/62 27/60/60 31/61/61
f 28/62/62 31/61/61 32/63/63
f 33/64/64 36/65/65 35/66/66
f 33/64/64 35/66/66 34/67/67
f 37/68/68 38/69/69 40/70/70
f 37/68/68 40/70/70 39/71/71
f 39/71/71 40/70/70 42/72/72
f 39/71/71 42/72/72 41/73/73
f 41/73/73 42/72/72 44/74/74
f 41/73/73 44/74/74 43/75/75
f 43/76/76 44/77/77 36/65/65
f 43/76/76 36/65/65 33/64/64
f 47/78/78 49/79/79 48/80/80
f 47/78/78 48/80/80 35/81/81
f 35/82/82 36/83/83 50/84/84
f 35/82/82 50/84/84 47/85/85
f 40/86/86 38/87/87 51/88/88
f 40/86/86 51/88/88 52/89/89
f 42/90/90 40/86/86 52/89/89
f 42/90/90 52/89/89 53/91/91
f 44/92/92 42/90/90 53/91/91
f 44/92/92 53/91/91 54/93/93
f 36/65/65 44/77/77 54/94/94
f 36/65/65 54/94/94 50/95/95
f 35/82/82 48/96/96 56/97/97
f 35/82/82 56/97/97 34/98/98
f 45/99/99 46/100/100 58/101/101
f 45/99/99 58/101/101 57/102/102
f 57/102/102 58/101/101 60/103/103
f 57/102/102 60/103/103 59/104/104
f 59/104/104 60/103/103 48/105/105
f 59/104/104 48/105/105 49/106/106
f 58/107/107 46/108/108 55/109/109
f 58/107/107 55/109/109 61/110/110
f 60/111/111 58/107/107 61/110/110
f 60/111/111 61/110/110 62/112/112
f 48/113/113 60/111/111 62/112/112
f 48/113/113 62/112/112 56/114/114
f 66/115/115 65/116/116 64/117/117
f 66/115/115 64/117/117 63/118/118
f 67/119/119 70/120/120 69/121/121
f 67/119/119 69/121/121 68/122/122
f 72/123/123 71/124/124 65/116/116
f 72/123/123 65/116/116 66/115/115
f 73/125/125 74/126/126 70/120/120
f 73/125/125 70/120/120 67/119/119
f 75/127/127 78/128/128 77/129/129
f 75/127/127 77/129/129 76/130/130
f 79/131/131 82/132/132 81/133/133
f 79/131/131 81/133/133 80/134/134
f 80/134/134 81/133/133 84/135/135
f 80/134/134 84/135/135 83/136/136
f 83/136/136 84/135/135 86/137/137
f 83/136/136 86/137/137 85/138/138
f 85/139/139 86/140/140 78/141/141
f 85/139/139 78/141/141 75/142/142
f 87/143/143 89/144/144 88/145/145
f 87/143/143 88/145/145 77/129/129
f 77/146/146 78/141/141 90/147/147
f 77/146/146 90/147/147 87/148/148
f 81/149/149 82/150/150 92/151/151
f 81/149/149 92/151/151 91/152/152
f 84/153/153 81/149/149 91/152/152
f 84/153/153 91/152/152 93/154/154
f 86/155/155 84/153/153 93/154/154
f 86/155/155 93/154/154 94/156/156
f 78/141/141 86/140/140 94/157/157
f 78/141/141 94/157/157 90/147/147
f 77/158/158 88/159/159 95/160/160
f 77/158/158 95/160/160 76/161/161
f 96/162/162 99/163/163 98/164/164
f 96/162/162 98/164/164 97/165/165
f 97/165/165 98/164/164 101/166/166
f 97/165/165 101/166/166 100/167/167
f 100/167/167 101/166/166 88/168/168
f 100/167/167 88/168/168 89/169/169
f 98/170/170 99/171/171 103/172/172
f 98/170/170 103/172/172 102/173/173
f 101/174/174 98/170/170 102/173/173
f 101/174/174 102/173/173 104/175/175
f 88/176/176 101/174/174 104/175/175
f 88/176/176 104/175/175 95/177/177
f 90/178/178 106/179/179 105/180/180
f 90/178/178 105/180/180 87/181/181
f 92/182/182 108/183/183 107/184/184
f 92/182/182 107/184/184 91/185/185
f 91/185/185 107/184/184 109/186/186
f 91/185/185 109/186/186 93/187/187
f 93/187/187 109/186/186 110/188/188
f 93/187/187 110/188/188 94/189/189
f 94/190/190 110/191/191 106/179/179
f 94/190/190 106/179/179 90/178/178
f 111/192/192 113/193/193 112/194/194
f 111/192/192 112/194/194 105/195/195
f 105/196/196 106/197/197 114/198/198
f 105/196/196 114/198/198 111/199/199
f 107/200/200 108/201/201 116/202/202
f 107/200/200 116/202/202 115/203/203
f 109/204/204 107/200/200 115/203/203
f 109/204/204 115/203/203 117/205/205
f 110/206/206 109/204/204 117/205/205
f 110/206/206 117/205/205 118/207/207
f 106/179/179 110/191/191 118/208/208
f 106/179/179 118/208/208 114/209/209
f 105/196/196 112/210/210 89/211/211
f 105/196/196 89/211/211 87/212/212
f 119/213/213 122/214/214 121/215/215
f 119/213/213 121/215/215 120/216/216
f 120/216/216 121/215/215 124/217/217
f 120/216/216 124/217/217 123/218/218
f 123/218/218 124/217/217 112/219/219
f 123/218/218 112/219/219 113/220/220
f 121/221/221 122/222/222 96/223/223
f 121/221/221 96/223/223 97/224/224
f 124/225/225 121/221/221 97/224/224
f 124/225/225 97/224/224 100/226/226
f 112/227/227 124/225/225 100/226/226
f 112/227/227 100/226/226 89/228/228
