#
# Exported by OpenBRF -- marco tarini
#
s fysg_chengqiang05
newmtl fysg_chengmeng02
Ka 0.8 0.8 0.8
Kd 0.2 0.2 0.2
usemtl fysg_chengmeng02
v 14.9645 15.4904 -3.45383
v -14.9458 15.4179 -3.35406
v -14.9081 0.215315 -3.34343
v 14.9975 0.287381 -3.44437
v 15.0043 15.499 6.43401
v 15.0393 0.293933 6.44354
v -14.8769 0.222074 6.54039
v -14.912 15.4251 6.53153
v 14.9095 15.45 -2.98573
v -14.894 15.45 -2.89437
v 14.905 15.45 -3.36875
v -14.8985 15.45 -3.27739
v 14.9095 16.3847 -2.98573
v -14.894 16.3847 -2.89437
v 14.905 16.3847 -3.36875
v -14.8985 16.3847 -3.27739
v 14.9095 15.43 6.37808
v -14.894 15.43 6.46944
v 14.905 15.43 5.99506
v -14.8985 15.43 6.08642
v 14.9095 16.3647 6.37808
v -14.894 16.3647 6.46944
v 14.905 16.3647 5.99506
v -14.8985 16.3647 6.08642
v 13.7912 15.9297 6.36963
v 14.8943 15.9297 6.36963
v 13.7912 17.3015 6.36963
v 14.8943 17.3015 6.36963
v 13.7912 15.9297 6.01473
v 14.8943 15.9297 6.01473
v 13.7912 17.3015 6.01473
v 14.8943 17.3015 6.01473
v 14.2896 16.3845 6.36963
v 14.2896 16.3845 6.01473
v 14.2932 16.8048 6.36963
v 14.2932 16.8048 6.01473
v 14.4162 16.8111 6.36963
v 14.4162 16.8111 6.01473
v 14.4252 16.393 6.36963
v 14.4252 16.393 6.01473
v 7.79161 15.9297 6.38963
v 8.89479 15.9297 6.38963
v 7.79161 17.3015 6.38963
v 8.89479 17.3015 6.38963
v 7.79161 15.9297 6.03473
v 8.89479 15.9297 6.03473
v 7.79161 17.3015 6.03473
v 8.89479 17.3015 6.03473
v 8.29006 16.3845 6.38963
v 8.29006 16.3845 6.03473
v 8.29364 16.8048 6.38963
v 8.29364 16.8048 6.03473
v 8.41669 16.8111 6.38963
v 8.41669 16.8111 6.03473
v 8.42563 16.393 6.38963
v 8.42563 16.393 6.03473
v 1.79161 15.9297 6.36963
v 2.89479 15.9297 6.36963
v 1.79161 17.3015 6.36963
v 2.89479 17.3015 6.36963
v 1.79161 15.9297 6.01473
v 2.89479 15.9297 6.01473
v 1.79161 17.3015 6.01473
v 2.89479 17.3015 6.01473
v 2.29006 16.3845 6.36963
v 2.29006 16.3845 6.01473
v 2.29364 16.8048 6.36963
v 2.29364 16.8048 6.01473
v 2.41669 16.8111 6.36963
v 2.41669 16.8111 6.01473
v 2.42563 16.393 6.36963
v 2.42563 16.393 6.01473
v -4.20839 15.9297 6.40963
v -3.10521 15.9297 6.40963
v -4.20839 17.3015 6.40963
v -3.10521 17.3015 6.40963
v -4.20839 15.9297 6.05473
v -3.10521 15.9297 6.05473
v -4.20839 17.3015 6.05473
v -3.10521 17.3015 6.05473
v -3.70994 16.3845 6.40963
v -3.70994 16.3845 6.05473
v -3.70636 16.8048 6.40963
v -3.70636 16.8048 6.05473
v -3.58331 16.8111 6.40963
v -3.58331 16.8111 6.05473
v -3.57437 16.393 6.40963
v -3.57437 16.393 6.05473
v -10.2084 15.9297 6.40963
v -9.10521 15.9297 6.40963
v -10.2084 17.3015 6.40963
v -9.10521 17.3015 6.40963
v -10.2084 15.9297 6.05473
v -9.10521 15.9297 6.05473
v -10.2084 17.3015 6.05473
v -9.10521 17.3015 6.05473
v -9.70994 16.3845 6.40963
v -9.70994 16.3845 6.05473
v -9.70636 16.8048 6.40963
v -9.70636 16.8048 6.05473
v -9.58331 16.8111 6.40963
v -9.58331 16.8111 6.05473
v -9.57437 16.393 6.40963
v -9.57437 16.393 6.05473
v 11.7916 15.9297 6.36963
v 12.8948 15.9297 6.36963
v 11.7916 17.3015 6.36963
v 12.8948 17.3015 6.36963
v 11.7916 15.9297 6.01473
v 12.8948 15.9297 6.01473
v 11.7916 17.3015 6.01473
v 12.8948 17.3015 6.01473
v 12.2901 16.3845 6.36963
v 12.2901 16.3845 6.01473
v 12.2936 16.8048 6.36963
v 12.2936 16.8048 6.01473
v 12.4167 16.8111 6.36963
v 12.4167 16.8111 6.01473
v 12.4256 16.393 6.36963
v 12.4256 16.393 6.01473
v 9.79161 15.9297 6.36963
v 10.8948 15.9297 6.36963
v 9.79161 17.3015 6.36963
v 10.8948 17.3015 6.36963
v 9.79161 15.9297 6.01473
v 10.8948 15.9297 6.01473
v 9.79161 17.3015 6.01473
v 10.8948 17.3015 6.01473
v 10.2901 16.3845 6.36963
v 10.2901 16.3845 6.01473
v 10.2936 16.8048 6.36963
v 10.2936 16.8048 6.01473
v 10.4167 16.8111 6.36963
v 10.4167 16.8111 6.01473
v 10.4256 16.393 6.36963
v 10.4256 16.393 6.01473
v 5.79161 15.9297 6.38963
v 6.89479 15.9297 6.38963
v 5.79161 17.3015 6.38963
v 6.89479 17.3015 6.38963
v 5.79161 15.9297 6.03473
v 6.89479 15.9297 6.03473
v 5.79161 17.3015 6.03473
v 6.89479 17.3015 6.03473
v 6.29006 16.3845 6.38963
v 6.29006 16.3845 6.03473
v 6.29364 16.8048 6.38963
v 6.29364 16.8048 6.03473
v 6.41669 16.8111 6.38963
v 6.41669 16.8111 6.03473
v 6.42563 16.393 6.38963
v 6.42563 16.393 6.03473
v 3.79161 15.9297 6.38963
v 4.89479 15.9297 6.38963
v 3.79161 17.3015 6.38963
v 4.89479 17.3015 6.38963
v 3.79161 15.9297 6.03473
v 4.89479 15.9297 6.03473
v 3.79161 17.3015 6.03473
v 4.89479 17.3015 6.03473
v 4.29006 16.3845 6.38963
v 4.29006 16.3845 6.03473
v 4.29364 16.8048 6.38963
v 4.29364 16.8048 6.03473
v 4.41669 16.8111 6.38963
v 4.41669 16.8111 6.03473
v 4.42563 16.393 6.38963
v 4.42563 16.393 6.03473
v -0.20839 15.9297 6.38963
v 0.894787 15.9297 6.38963
v -0.20839 17.3015 6.38963
v 0.894787 17.3015 6.38963
v -0.20839 15.9297 6.03473
v 0.894787 15.9297 6.03473
v -0.20839 17.3015 6.03473
v 0.894787 17.3015 6.03473
v 0.290056 16.3845 6.38963
v 0.290056 16.3845 6.03473
v 0.293636 16.8048 6.38963
v 0.293636 16.8048 6.03473
v 0.416687 16.8111 6.38963
v 0.416687 16.8111 6.03473
v 0.425627 16.393 6.38963
v 0.425627 16.393 6.03473
v -2.20839 15.9297 6.38963
v -1.10521 15.9297 6.38963
v -2.20839 17.3015 6.38963
v -1.10521 17.3015 6.38963
v -2.20839 15.9297 6.03473
v -1.10521 15.9297 6.03473
v -2.20839 17.3015 6.03473
v -1.10521 17.3015 6.03473
v -1.70994 16.3845 6.38963
v -1.70994 16.3845 6.03473
v -1.70636 16.8048 6.38963
v -1.70636 16.8048 6.03473
v -1.58331 16.8111 6.38963
v -1.58331 16.8111 6.03473
v -1.57437 16.393 6.38963
v -1.57437 16.393 6.03473
v -6.20839 15.9297 6.40963
v -5.10521 15.9297 6.40963
v -6.20839 17.3015 6.40963
v -5.10521 17.3015 6.40963
v -6.20839 15.9297 6.05473
v -5.10521 15.9297 6.05473
v -6.20839 17.3015 6.05473
v -5.10521 17.3015 6.05473
v -5.70994 16.3845 6.40963
v -5.70994 16.3845 6.05473
v -5.70636 16.8048 6.40963
v -5.70636 16.8048 6.05473
v -5.58331 16.8111 6.40963
v -5.58331 16.8111 6.05473
v -5.57437 16.393 6.40963
v -5.57437 16.393 6.05473
v -8.20839 15.9297 6.40963
v -7.10521 15.9297 6.40963
v -8.20839 17.3015 6.40963
v -7.10521 17.3015 6.40963
v -8.20839 15.9297 6.05473
v -7.10521 15.9297 6.05473
v -8.20839 17.3015 6.05473
v -7.10521 17.3015 6.05473
v -7.70994 16.3845 6.40963
v -7.70994 16.3845 6.05473
v -7.70636 16.8048 6.40963
v -7.70636 16.8048 6.05473
v -7.58331 16.8111 6.40963
v -7.58331 16.8111 6.05473
v -7.57437 16.393 6.40963
v -7.57437 16.393 6.05473
v -12.2084 15.9297 6.40963
v -11.1052 15.9297 6.40963
v -12.2084 17.3015 6.40963
v -11.1052 17.3015 6.40963
v -12.2084 15.9297 6.05473
v -11.1052 15.9297 6.05473
v -12.2084 17.3015 6.05473
v -11.1052 17.3015 6.05473
v -11.7099 16.3845 6.40963
v -11.7099 16.3845 6.05473
v -11.7064 16.8048 6.40963
v -11.7064 16.8048 6.05473
v -11.5833 16.8111 6.40963
v -11.5833 16.8111 6.05473
v -11.5744 16.393 6.40963
v -11.5744 16.393 6.05473
v -14.2084 15.9297 6.40963
v -13.1052 15.9297 6.40963
v -14.2084 17.3015 6.40963
v -13.1052 17.3015 6.40963
v -14.2084 15.9297 6.05473
v -13.1052 15.9297 6.05473
v -14.2084 17.3015 6.05473
v -13.1052 17.3015 6.05473
v -13.7099 16.3845 6.40963
v -13.7099 16.3845 6.05473
v -13.7064 16.8048 6.40963
v -13.7064 16.8048 6.05473
v -13.5833 16.8111 6.40963
v -13.5833 16.8111 6.05473
v -13.5744 16.393 6.40963
v -13.5744 16.393 6.05473
vn -0.00335383 -0.000668524 -0.999994
vt 1.88648 0
vn -0.00333391 -0.00070748 -0.999994
vt 1.88648 1
vn -0.00335383 -0.000668524 -0.999994
vt -2.623 1
vn -0.00337375 -0.000629562 -0.999994
vt -2.623 0
vn 0.00324706 0.000612261 0.999995
vt -2.623 0
vn 0.00323583 0.000634214 0.999995
vt 1.88648 0
vn 0.00324706 0.000612261 0.999995
vt 1.88648 1
vn 0.00325828 0.000590305 0.999995
vt -2.623 1
vn -0.00244966 0.999997 -0.000789907
vt -1.79985 0.389832
vn -0.00242632 0.999997 -0.000720059
vt 2.79985 0.389832
vn -0.00244966 0.999997 -0.000789907
vt 2.79985 0.842114
vn -0.002473 0.999997 -0.000859725
vt -1.79985 0.842114
vn 0.00333391 0.00070748 0.999994
vt 1.88648 1
vn 0.00335383 0.000668524 0.999994
vt 1.88648 0
vn 0.00335383 0.000668524 0.999994
vt -2.623 1
vn 0.00337375 0.000629562 0.999994
vt -2.623 0
vn -0.00323583 -0.000634214 -0.999995
vt 1.88648 0
vn -0.00324706 -0.000612261 -0.999995
vt -2.623 0
vn -0.00324706 -0.000612261 -0.999995
vt 1.88648 1
vn -0.00325828 -0.000590305 -0.999995
vt -2.623 1
vn 0.00242632 -0.999997 0.000720059
vt 2.79985 0.389832
vn 0.00244966 -0.999997 0.000789907
vt -1.79985 0.389832
vn 0.00244966 -0.999997 0.000789907
vt 2.79985 0.842114
vn 0.002473 -0.999997 0.000859725
vt -1.79985 0.842114
vn 0 1 0
vt 3.29633 0.724478
vn 0 1 0
vt 3.29633 0.642922
vn 0 1 0
vt 0 0.669036
vn 0 1 0
vt 0 0.750592
vn 0.00306539 0 0.999995
vt 3.29633 0.642922
vn 0.00306539 0 0.999995
vt 0 0.669036
vn 0.00306539 0 0.999995
vt 0 0.750592
vn 0.00306539 0 0.999995
vt 3.29633 0.724478
vn -0.999931 0 0.0117489
vt 3.29633 0.642922
vn -0.999931 0 0.0117489
vt 0 0.669036
vn -0.999931 0 0.0117489
vt 0 0.750592
vn -0.999931 0 0.0117489
vt 3.29633 0.724478
vn -0.0030654 0 -0.999995
vt 3.29633 0.724478
vn -0.0030654 0 -0.999995
vt 3.29633 0.642922
vn -0.0030654 0 -0.999995
vt 0 0.669036
vn -0.0030654 0 -0.999995
vt 0 0.750592
vn 0.999931 0 -0.0117489
vt 0 0.669036
vn 0.999931 0 -0.0117489
vt 0 0.750592
vn 0.999931 0 -0.0117489
vt 3.29633 0.724478
vn 0.999931 0 -0.0117489
vt 3.29633 0.642922
vn 0 1 0
vt 3.29633 0.724478
vn 0 1 0
vt 3.29633 0.642922
vn 0 1 0
vt 0 0.669036
vn 0 1 0
vt 0 0.750592
vn 0.0030654 0 0.999995
vt 3.29633 0.642922
vn 0.0030654 0 0.999995
vt 0 0.669036
vn 0.0030654 0 0.999995
vt 0 0.750592
vn 0.0030654 0 0.999995
vt 3.29633 0.724478
vn -0.999931 0 0.0117489
vt 3.29633 0.642922
vn -0.999931 0 0.0117489
vt 0 0.669036
vn -0.999931 0 0.0117489
vt 0 0.750592
vn -0.999931 0 0.0117489
vt 3.29633 0.724478
vn -0.0030654 0 -0.999995
vt 3.29633 0.724478
vn -0.0030654 0 -0.999995
vt 3.29633 0.642922
vn -0.0030654 0 -0.999995
vt 0 0.669036
vn -0.0030654 0 -0.999995
vt 0 0.750592
vn 0.999931 0 -0.0117489
vt 0 0.669036
vn 0.999931 0 -0.0117489
vt 0 0.750592
vn 0.999931 0 -0.0117489
vt 3.29633 0.724478
vn 0.999931 0 -0.0117489
vt 3.29633 0.642922
vn 0 0 1
vt 0.374074 0.565862
vn 0 0 1
vt 0.242861 0.6712
vn 0 0 1
vt 0.173704 0.679826
vn 0 0 1
vt 0 0.565862
vn 0 0 1
vt 0.163183 0.78769
vn 0 0 1
vt 0.012645 0.905163
vn 0 0 1
vt 0.374074 0.908324
vn 0 0 1
vt 0.228438 0.778797
vn 0 0 -1
vt 0.374074 0.565862
vn 0 0 -1
vt 0 0.565862
vn 0 0 -1
vt 0.173704 0.679826
vn 0 0 -1
vt 0.242861 0.6712
vn 0 0 -1
vt 0.163183 0.78769
vn 0 0 -1
vt 0 0.911485
vn 0 0 -1
vt 0.228438 0.778797
vn 0 0 -1
vt 0.374074 0.911485
vn -1 0 0
vt 0.374074 0.565862
vn -1 0 0
vt 0.374074 0.911485
vn -1 0 0
vt 0 0.911485
vn -1 0 0
vt 0 0.565862
vn 0.999963 -0.00856302 0
vt 0.374074 0.565862
vn 0.999963 -0.00856302 0
vt 0.374074 0.911485
vn 0.999963 -0.00856302 0
vt 0 0.911485
vn 0.999963 -0.00856302 0
vt 0 0.565862
vn 0.0511522 -0.998691 0
vt 0 0.911485
vn 0.0511522 -0.998691 0
vt 0.374074 0.911485
vn 0.0511522 -0.998691 0
vt 0.374074 0.565862
vn 0.0511522 -0.998691 0
vt 0 0.565862
vn -0.999768 -0.0215228 0
vt 0.374074 0.565862
vn -0.999768 -0.0215228 0
vt 0.374074 0.911485
vn -0.999768 -0.0215228 0
vt 0 0.911485
vn -0.999768 -0.0215228 0
vt 0 0.565862
vn -0.0625553 0.998042 0
vt 0.374074 0.565862
vn -0.0625553 0.998042 0
vt 0.374074 0.911485
vn -0.0625553 0.998042 0
vt 0 0.911485
vn -0.0625553 0.998042 0
vt 0 0.565862
vn 1 0 0
vt 0.374074 0.565862
vn 1 0 0
vt 0.374074 0.911485
vn 1 0 0
vt 0 0.911485
vn 1 0 0
vt 0 0.565862
vn 0 1 0
vt 0.374074 0.565862
vn 0 1 0
vt 0.374074 0.706005
vn 0 1 0
vt 0 0.696521
vn 0 1 0
vt 0 0.565862
vn 0 0 1
vt 0.374074 0.565862
vn 0 0 1
vt 0.242861 0.6712
vn 0 0 1
vt 0.173704 0.679826
vn 0 0 1
vt 0 0.565862
vn 0 0 1
vt 0.163183 0.78769
vn 0 0 1
vt 0.012645 0.905163
vn 0 0 1
vt 0.374074 0.908324
vn 0 0 1
vt 0.228438 0.778797
vn 0 0 -1
vt 0.374074 0.565862
vn 0 0 -1
vt 0 0.565862
vn 0 0 -1
vt 0.173704 0.679826
vn 0 0 -1
vt 0.242861 0.6712
vn 0 0 -1
vt 0.163183 0.78769
vn 0 0 -1
vt 0 0.911485
vn 0 0 -1
vt 0.228438 0.778797
vn 0 0 -1
vt 0.374074 0.911485
vn -1 0 0
vt 0.374074 0.565862
vn -1 0 0
vt 0.374074 0.911485
vn -1 0 0
vt 0 0.911485
vn -1 0 0
vt 0 0.565862
vn 0.999964 -0.00851765 0
vt 0.374074 0.565862
vn 0.999964 -0.00851765 0
vt 0.374074 0.911485
vn 0.999964 -0.00851765 0
vt 0 0.911485
vn 0.999964 -0.00851765 0
vt 0 0.565862
vn 0.0511316 -0.998692 0
vt 0 0.911485
vn 0.0511316 -0.998692 0
vt 0.374074 0.911485
vn 0.0511316 -0.998692 0
vt 0.374074 0.565862
vn 0.0511316 -0.998692 0
vt 0 0.565862
vn -0.999771 -0.0213769 0
vt 0.374074 0.565862
vn -0.999771 -0.0213769 0
vt 0.374074 0.911485
vn -0.999771 -0.0213769 0
vt 0 0.911485
vn -0.999771 -0.0213769 0
vt 0 0.565862
vn -0.0625693 0.998041 0
vt 0.374074 0.565862
vn -0.0625693 0.998041 0
vt 0.374074 0.911485
vn -0.0625693 0.998041 0
vt 0 0.911485
vn -0.0625693 0.998041 0
vt 0 0.565862
vn 1 0 0
vt 0.374074 0.565862
vn 1 0 0
vt 0.374074 0.911485
vn 1 0 0
vt 0 0.911485
vn 1 0 0
vt 0 0.565862
vn 0 1 0
vt 0.374074 0.565862
vn 0 1 0
vt 0.374074 0.706005
vn 0 1 0
vt 0 0.696521
vn 0 1 0
vt 0 0.565862
vn 0 0 1
vt 0.374074 0.565862
vn 0 0 1
vt 0.242861 0.6712
vn 0 0 1
vt 0.173704 0.679826
vn 0 0 1
vt 0 0.565862
vn 0 0 1
vt 0.163183 0.78769
vn 0 0 1
vt 0.012645 0.905163
vn 0 0 1
vt 0.374074 0.908324
vn 0 0 1
vt 0.228438 0.778797
vn 0 0 -1
vt 0.374074 0.565862
vn 0 0 -1
vt 0 0.565862
vn 0 0 -1
vt 0.173704 0.679826
vn 0 0 -1
vt 0.242861 0.6712
vn 0 0 -1
vt 0.163183 0.78769
vn 0 0 -1
vt 0 0.911485
vn 0 0 -1
vt 0.228438 0.778797
vn 0 0 -1
vt 0.374074 0.911485
vn -1 0 0
vt 0.374074 0.565862
vn -1 0 0
vt 0.374074 0.911485
vn -1 0 0
vt 0 0.911485
vn -1 0 0
vt 0 0.565862
vn 0.999964 -0.00851708 0
vt 0.374074 0.565862
vn 0.999964 -0.00851708 0
vt 0.374074 0.911485
vn 0.999964 -0.00851708 0
vt 0 0.911485
vn 0.999964 -0.00851708 0
vt 0 0.565862
vn 0.0511314 -0.998692 0
vt 0 0.911485
vn 0.0511314 -0.998692 0
vt 0.374074 0.911485
vn 0.0511314 -0.998692 0
vt 0.374074 0.565862
vn 0.0511314 -0.998692 0
vt 0 0.565862
vn -0.999771 -0.0213775 0
vt 0.374074 0.565862
vn -0.999771 -0.0213775 0
vt 0.374074 0.911485
vn -0.999771 -0.0213775 0
vt 0 0.911485
vn -0.999771 -0.0213775 0
vt 0 0.565862
vn -0.0625691 0.998041 0
vt 0.374074 0.565862
vn -0.0625691 0.998041 0
vt 0.374074 0.911485
vn -0.0625691 0.998041 0
vt 0 0.911485
vn -0.0625691 0.998041 0
vt 0 0.565862
vn 1 0 0
vt 0.374074 0.565862
vn 1 0 0
vt 0.374074 0.911485
vn 1 0 0
vt 0 0.911485
vn 1 0 0
vt 0 0.565862
vn 0 1 0
vt 0.374074 0.565862
vn 0 1 0
vt 0.374074 0.706005
vn 0 1 0
vt 0 0.696521
vn 0 1 0
vt 0 0.565862
vn 0 0 1
vt 0.374074 0.565862
vn 0 0 1
vt 0.242861 0.6712
vn 0 0 1
vt 0.173704 0.679826
vn 0 0 1
vt 0 0.565862
vn 0 0 1
vt 0.163183 0.78769
vn 0 0 1
vt 0.012645 0.905163
vn 0 0 1
vt 0.374074 0.908324
vn 0 0 1
vt 0.228438 0.778797
vn 0 0 -1
vt 0.374074 0.565862
vn 0 0 -1
vt 0 0.565862
vn 0 0 -1
vt 0.173704 0.679826
vn 0 0 -1
vt 0.242861 0.6712
vn 0 0 -1
vt 0.163183 0.78769
vn 0 0 -1
vt 0 0.911485
vn 0 0 -1
vt 0.228438 0.778797
vn 0 0 -1
vt 0.374074 0.911485
vn -1 0 0
vt 0.374074 0.565862
vn -1 0 0
vt 0.374074 0.911485
vn -1 0 0
vt 0 0.911485
vn -1 0 0
vt 0 0.565862
vn 0.999964 -0.00851708 0
vt 0.374074 0.565862
vn 0.999964 -0.00851708 0
vt 0.374074 0.911485
vn 0.999964 -0.00851708 0
vt 0 0.911485
vn 0.999964 -0.00851708 0
vt 0 0.565862
vn 0.0511314 -0.998692 0
vt 0 0.911485
vn 0.0511314 -0.998692 0
vt 0.374074 0.911485
vn 0.0511314 -0.998692 0
vt 0.374074 0.565862
vn 0.0511314 -0.998692 0
vt 0 0.565862
vn -0.999771 -0.0213775 0
vt 0.374074 0.565862
vn -0.999771 -0.0213775 0
vt 0.374074 0.911485
vn -0.999771 -0.0213775 0
vt 0 0.911485
vn -0.999771 -0.0213775 0
vt 0 0.565862
vn -0.0625691 0.998041 0
vt 0.374074 0.565862
vn -0.0625691 0.998041 0
vt 0.374074 0.911485
vn -0.0625691 0.998041 0
vt 0 0.911485
vn -0.0625691 0.998041 0
vt 0 0.565862
vn 1 0 0
vt 0.374074 0.565862
vn 1 0 0
vt 0.374074 0.911485
vn 1 0 0
vt 0 0.911485
vn 1 0 0
vt 0 0.565862
vn 0 1 0
vt 0.374074 0.565862
vn 0 1 0
vt 0.374074 0.706005
vn 0 1 0
vt 0 0.696521
vn 0 1 0
vt 0 0.565862
vn 0 0 1
vt 0.374074 0.565862
vn 0 0 1
vt 0.242861 0.6712
vn 0 0 1
vt 0.173704 0.679826
vn 0 0 1
vt 0 0.565862
vn 0 0 1
vt 0.163183 0.78769
vn 0 0 1
vt 0.012645 0.905163
vn 0 0 1
vt 0.374074 0.908324
vn 0 0 1
vt 0.228438 0.778797
vn 0 0 -1
vt 0.374074 0.565862
vn 0 0 -1
vt 0 0.565862
vn 0 0 -1
vt 0.173704 0.679826
vn 0 0 -1
vt 0.242861 0.6712
vn 0 0 -1
vt 0.163183 0.78769
vn 0 0 -1
vt 0 0.911485
vn 0 0 -1
vt 0.228438 0.778797
vn 0 0 -1
vt 0.374074 0.911485
vn -1 0 0
vt 0.374074 0.565862
vn -1 0 0
vt 0.374074 0.911485
vn -1 0 0
vt 0 0.911485
vn -1 0 0
vt 0 0.565862
vn 0.999964 -0.00851765 0
vt 0.374074 0.565862
vn 0.999964 -0.00851765 0
vt 0.374074 0.911485
vn 0.999964 -0.00851765 0
vt 0 0.911485
vn 0.999964 -0.00851765 0
vt 0 0.565862
vn 0.0511316 -0.998692 0
vt 0 0.911485
vn 0.0511316 -0.998692 0
vt 0.374074 0.911485
vn 0.0511316 -0.998692 0
vt 0.374074 0.565862
vn 0.0511316 -0.998692 0
vt 0 0.565862
vn -0.999771 -0.0213769 0
vt 0.374074 0.565862
vn -0.999771 -0.0213769 0
vt 0.374074 0.911485
vn -0.999771 -0.0213769 0
vt 0 0.911485
vn -0.999771 -0.0213769 0
vt 0 0.565862
vn -0.0625693 0.998041 0
vt 0.374074 0.565862
vn -0.0625693 0.998041 0
vt 0.374074 0.911485
vn -0.0625693 0.998041 0
vt 0 0.911485
vn -0.0625693 0.998041 0
vt 0 0.565862
vn 1 0 0
vt 0.374074 0.565862
vn 1 0 0
vt 0.374074 0.911485
vn 1 0 0
vt 0 0.911485
vn 1 0 0
vt 0 0.565862
vn 0 1 0
vt 0.374074 0.565862
vn 0 1 0
vt 0.374074 0.706005
vn 0 1 0
vt 0 0.696521
vn 0 1 0
vt 0 0.565862
vn 0 0 1
vt 0.374074 0.565862
vn 0 0 1
vt 0.242861 0.6712
vn 0 0 1
vt 0.173704 0.679826
vn 0 0 1
vt 0 0.565862
vn 0 0 1
vt 0.163183 0.78769
vn 0 0 1
vt 0.012645 0.905163
vn 0 0 1
vt 0.374074 0.908324
vn 0 0 1
vt 0.228438 0.778797
vn 0 0 -1
vt 0.374074 0.565862
vn 0 0 -1
vt 0 0.565862
vn 0 0 -1
vt 0.173704 0.679826
vn 0 0 -1
vt 0.242861 0.6712
vn 0 0 -1
vt 0.163183 0.78769
vn 0 0 -1
vt 0 0.911485
vn 0 0 -1
vt 0.228438 0.778797
vn 0 0 -1
vt 0.374074 0.911485
vn -1 0 0
vt 0.374074 0.565862
vn -1 0 0
vt 0.374074 0.911485
vn -1 0 0
vt 0 0.911485
vn -1 0 0
vt 0 0.565862
vn 0.999965 -0.00832707 0
vt 0.374074 0.565862
vn 0.999965 -0.00832707 0
vt 0.374074 0.911485
vn 0.999965 -0.00832707 0
vt 0 0.911485
vn 0.999965 -0.00832707 0
vt 0 0.565862
vn 0.0511107 -0.998693 0
vt 0 0.911485
vn 0.0511107 -0.998693 0
vt 0.374074 0.911485
vn 0.0511107 -0.998693 0
vt 0.374074 0.565862
vn 0.0511107 -0.998693 0
vt 0 0.565862
vn -0.999774 -0.0212812 0
vt 0.374074 0.565862
vn -0.999774 -0.0212812 0
vt 0.374074 0.911485
vn -0.999774 -0.0212812 0
vt 0 0.911485
vn -0.999774 -0.0212812 0
vt 0 0.565862
vn -0.0626013 0.998039 0
vt 0.374074 0.565862
vn -0.0626013 0.998039 0
vt 0.374074 0.911485
vn -0.0626013 0.998039 0
vt 0 0.911485
vn -0.0626013 0.998039 0
vt 0 0.565862
vn 1 0 0
vt 0.374074 0.565862
vn 1 0 0
vt 0.374074 0.911485
vn 1 0 0
vt 0 0.911485
vn 1 0 0
vt 0 0.565862
vn 0 1 0
vt 0.374074 0.565862
vn 0 1 0
vt 0.374074 0.706005
vn 0 1 0
vt 0 0.696521
vn 0 1 0
vt 0 0.565862
vn 0 0 1
vt 0.374074 0.565862
vn 0 0 1
vt 0.242861 0.6712
vn 0 0 1
vt 0.173704 0.679826
vn 0 0 1
vt 0 0.565862
vn 0 0 1
vt 0.163183 0.78769
vn 0 0 1
vt 0.012645 0.905163
vn 0 0 1
vt 0.374074 0.908324
vn 0 0 1
vt 0.228438 0.778797
vn 0 0 -1
vt 0.374074 0.565862
vn 0 0 -1
vt 0 0.565862
vn 0 0 -1
vt 0.173704 0.679826
vn 0 0 -1
vt 0.242861 0.6712
vn 0 0 -1
vt 0.163183 0.78769
vn 0 0 -1
vt 0 0.911485
vn 0 0 -1
vt 0.228438 0.778797
vn 0 0 -1
vt 0.374074 0.911485
vn -1 0 0
vt 0.374074 0.565862
vn -1 0 0
vt 0.374074 0.911485
vn -1 0 0
vt 0 0.911485
vn -1 0 0
vt 0 0.565862
vn 0.999964 -0.00851765 0
vt 0.374074 0.565862
vn 0.999964 -0.00851765 0
vt 0.374074 0.911485
vn 0.999964 -0.00851765 0
vt 0 0.911485
vn 0.999964 -0.00851765 0
vt 0 0.565862
vn 0.0511316 -0.998692 0
vt 0 0.911485
vn 0.0511316 -0.998692 0
vt 0.374074 0.911485
vn 0.0511316 -0.998692 0
vt 0.374074 0.565862
vn 0.0511316 -0.998692 0
vt 0 0.565862
vn -0.999771 -0.0213769 0
vt 0.374074 0.565862
vn -0.999771 -0.0213769 0
vt 0.374074 0.911485
vn -0.999771 -0.0213769 0
vt 0 0.911485
vn -0.999771 -0.0213769 0
vt 0 0.565862
vn -0.0625693 0.998041 0
vt 0.374074 0.565862
vn -0.0625693 0.998041 0
vt 0.374074 0.911485
vn -0.0625693 0.998041 0
vt 0 0.911485
vn -0.0625693 0.998041 0
vt 0 0.565862
vn 1 0 0
vt 0.374074 0.565862
vn 1 0 0
vt 0.374074 0.911485
vn 1 0 0
vt 0 0.911485
vn 1 0 0
vt 0 0.565862
vn 0 1 0
vt 0.374074 0.565862
vn 0 1 0
vt 0.374074 0.706005
vn 0 1 0
vt 0 0.696521
vn 0 1 0
vt 0 0.565862
vn 0 0 1
vt 0.374074 0.565862
vn 0 0 1
vt 0.242861 0.6712
vn 0 0 1
vt 0.173704 0.679826
vn 0 0 1
vt 0 0.565862
vn 0 0 1
vt 0.163183 0.78769
vn 0 0 1
vt 0.012645 0.905163
vn 0 0 1
vt 0.374074 0.908324
vn 0 0 1
vt 0.228438 0.778797
vn 0 0 -1
vt 0.374074 0.565862
vn 0 0 -1
vt 0 0.565862
vn 0 0 -1
vt 0.173704 0.679826
vn 0 0 -1
vt 0.242861 0.6712
vn 0 0 -1
vt 0.163183 0.78769
vn 0 0 -1
vt 0 0.911485
vn 0 0 -1
vt 0.228438 0.778797
vn 0 0 -1
vt 0.374074 0.911485
vn -1 0 0
vt 0.374074 0.565862
vn -1 0 0
vt 0.374074 0.911485
vn -1 0 0
vt 0 0.911485
vn -1 0 0
vt 0 0.565862
vn 0.999964 -0.00851765 0
vt 0.374074 0.565862
vn 0.999964 -0.00851765 0
vt 0.374074 0.911485
vn 0.999964 -0.00851765 0
vt 0 0.911485
vn 0.999964 -0.00851765 0
vt 0 0.565862
vn 0.0511316 -0.998692 0
vt 0 0.911485
vn 0.0511316 -0.998692 0
vt 0.374074 0.911485
vn 0.0511316 -0.998692 0
vt 0.374074 0.565862
vn 0.0511316 -0.998692 0
vt 0 0.565862
vn -0.999771 -0.0213781 0
vt 0.374074 0.565862
vn -0.999771 -0.0213781 0
vt 0.374074 0.911485
vn -0.999771 -0.0213781 0
vt 0 0.911485
vn -0.999771 -0.0213781 0
vt 0 0.565862
vn -0.0625691 0.998041 0
vt 0.374074 0.565862
vn -0.0625691 0.998041 0
vt 0.374074 0.911485
vn -0.0625691 0.998041 0
vt 0 0.911485
vn -0.0625691 0.998041 0
vt 0 0.565862
vn 1 0 0
vt 0.374074 0.565862
vn 1 0 0
vt 0.374074 0.911485
vn 1 0 0
vt 0 0.911485
vn 1 0 0
vt 0 0.565862
vn 0 1 0
vt 0.374074 0.565862
vn 0 1 0
vt 0.374074 0.706005
vn 0 1 0
vt 0 0.696521
vn 0 1 0
vt 0 0.565862
vn 0 0 1
vt 0.374074 0.565862
vn 0 0 1
vt 0.242861 0.6712
vn 0 0 1
vt 0.173704 0.679826
vn 0 0 1
vt 0 0.565862
vn 0 0 1
vt 0.163183 0.78769
vn 0 0 1
vt 0.012645 0.905163
vn 0 0 1
vt 0.374074 0.908324
vn 0 0 1
vt 0.228438 0.778797
vn 0 0 -1
vt 0.374074 0.565862
vn 0 0 -1
vt 0 0.565862
vn 0 0 -1
vt 0.173704 0.679826
vn 0 0 -1
vt 0.242861 0.6712
vn 0 0 -1
vt 0.163183 0.78769
vn 0 0 -1
vt 0 0.911485
vn 0 0 -1
vt 0.228438 0.778797
vn 0 0 -1
vt 0.374074 0.911485
vn -1 0 0
vt 0.374074 0.565862
vn -1 0 0
vt 0.374074 0.911485
vn -1 0 0
vt 0 0.911485
vn -1 0 0
vt 0 0.565862
vn 0.999964 -0.00851765 0
vt 0.374074 0.565862
vn 0.999964 -0.00851765 0
vt 0.374074 0.911485
vn 0.999964 -0.00851765 0
vt 0 0.911485
vn 0.999964 -0.00851765 0
vt 0 0.565862
vn 0.0511316 -0.998692 0
vt 0 0.911485
vn 0.0511316 -0.998692 0
vt 0.374074 0.911485
vn 0.0511316 -0.998692 0
vt 0.374074 0.565862
vn 0.0511316 -0.998692 0
vt 0 0.565862
vn -0.999771 -0.0213781 0
vt 0.374074 0.565862
vn -0.999771 -0.0213781 0
vt 0.374074 0.911485
vn -0.999771 -0.0213781 0
vt 0 0.911485
vn -0.999771 -0.0213781 0
vt 0 0.565862
vn -0.0625691 0.998041 0
vt 0.374074 0.565862
vn -0.0625691 0.998041 0
vt 0.374074 0.911485
vn -0.0625691 0.998041 0
vt 0 0.911485
vn -0.0625691 0.998041 0
vt 0 0.565862
vn 1 0 0
vt 0.374074 0.565862
vn 1 0 0
vt 0.374074 0.911485
vn 1 0 0
vt 0 0.911485
vn 1 0 0
vt 0 0.565862
vn 0 1 0
vt 0.374074 0.565862
vn 0 1 0
vt 0.374074 0.706005
vn 0 1 0
vt 0 0.696521
vn 0 1 0
vt 0 0.565862
vn 0 0 1
vt 0.374074 0.565862
vn 0 0 1
vt 0.242861 0.6712
vn 0 0 1
vt 0.173704 0.679826
vn 0 0 1
vt 0 0.565862
vn 0 0 1
vt 0.163183 0.78769
vn 0 0 1
vt 0.012645 0.905163
vn 0 0 1
vt 0.374074 0.908324
vn 0 0 1
vt 0.228438 0.778797
vn 0 0 -1
vt 0.374074 0.565862
vn 0 0 -1
vt 0 0.565862
vn 0 0 -1
vt 0.173704 0.679826
vn 0 0 -1
vt 0.242861 0.6712
vn 0 0 -1
vt 0.163183 0.78769
vn 0 0 -1
vt 0 0.911485
vn 0 0 -1
vt 0.228438 0.778797
vn 0 0 -1
vt 0.374074 0.911485
vn -1 0 0
vt 0.374074 0.565862
vn -1 0 0
vt 0.374074 0.911485
vn -1 0 0
vt 0 0.911485
vn -1 0 0
vt 0 0.565862
vn 0.999964 -0.00851743 0
vt 0.374074 0.565862
vn 0.999964 -0.00851743 0
vt 0.374074 0.911485
vn 0.999964 -0.00851743 0
vt 0 0.911485
vn 0.999964 -0.00851743 0
vt 0 0.565862
vn 0.0511311 -0.998692 0
vt 0 0.911485
vn 0.0511311 -0.998692 0
vt 0.374074 0.911485
vn 0.0511311 -0.998692 0
vt 0.374074 0.565862
vn 0.0511311 -0.998692 0
vt 0 0.565862
vn -0.999771 -0.0213775 0
vt 0.374074 0.565862
vn -0.999771 -0.0213775 0
vt 0.374074 0.911485
vn -0.999771 -0.0213775 0
vt 0 0.911485
vn -0.999771 -0.0213775 0
vt 0 0.565862
vn -0.0625686 0.998041 0
vt 0.374074 0.565862
vn -0.0625686 0.998041 0
vt 0.374074 0.911485
vn -0.0625686 0.998041 0
vt 0 0.911485
vn -0.0625686 0.998041 0
vt 0 0.565862
vn 1 0 0
vt 0.374074 0.565862
vn 1 0 0
vt 0.374074 0.911485
vn 1 0 0
vt 0 0.911485
vn 1 0 0
vt 0 0.565862
vn 0 1 0
vt 0.374074 0.565862
vn 0 1 0
vt 0.374074 0.706005
vn 0 1 0
vt 0 0.696521
vn 0 1 0
vt 0 0.565862
vn 0 0 1
vt 0.374074 0.565862
vn 0 0 1
vt 0.242861 0.6712
vn 0 0 1
vt 0.173704 0.679826
vn 0 0 1
vt 0 0.565862
vn 0 0 1
vt 0.163183 0.78769
vn 0 0 1
vt 0.012645 0.905163
vn 0 0 1
vt 0.374074 0.908324
vn 0 0 1
vt 0.228438 0.778797
vn 0 0 -1
vt 0.374074 0.565862
vn 0 0 -1
vt 0 0.565862
vn 0 0 -1
vt 0.173704 0.679826
vn 0 0 -1
vt 0.242861 0.6712
vn 0 0 -1
vt 0.163183 0.78769
vn 0 0 -1
vt 0 0.911485
vn 0 0 -1
vt 0.228438 0.778797
vn 0 0 -1
vt 0.374074 0.911485
vn -1 0 0
vt 0.374074 0.565862
vn -1 0 0
vt 0.374074 0.911485
vn -1 0 0
vt 0 0.911485
vn -1 0 0
vt 0 0.565862
vn 0.999964 -0.00851736 0
vt 0.374074 0.565862
vn 0.999964 -0.00851736 0
vt 0.374074 0.911485
vn 0.999964 -0.00851736 0
vt 0 0.911485
vn 0.999964 -0.00851736 0
vt 0 0.565862
vn 0.0511315 -0.998692 0
vt 0 0.911485
vn 0.0511315 -0.998692 0
vt 0.374074 0.911485
vn 0.0511315 -0.998692 0
vt 0.374074 0.565862
vn 0.0511315 -0.998692 0
vt 0 0.565862
vn -0.999771 -0.0213775 0
vt 0.374074 0.565862
vn -0.999771 -0.0213775 0
vt 0.374074 0.911485
vn -0.999771 -0.0213775 0
vt 0 0.911485
vn -0.999771 -0.0213775 0
vt 0 0.565862
vn -0.0625691 0.998041 0
vt 0.374074 0.565862
vn -0.0625691 0.998041 0
vt 0.374074 0.911485
vn -0.0625691 0.998041 0
vt 0 0.911485
vn -0.0625691 0.998041 0
vt 0 0.565862
vn 1 0 0
vt 0.374074 0.565862
vn 1 0 0
vt 0.374074 0.911485
vn 1 0 0
vt 0 0.911485
vn 1 0 0
vt 0 0.565862
vn 0 1 0
vt 0.374074 0.565862
vn 0 1 0
vt 0.374074 0.706005
vn 0 1 0
vt 0 0.696521
vn 0 1 0
vt 0 0.565862
vn 0 0 1
vt 0.374074 0.565862
vn 0 0 1
vt 0.242861 0.6712
vn 0 0 1
vt 0.173704 0.679826
vn 0 0 1
vt 0 0.565862
vn 0 0 1
vt 0.163183 0.78769
vn 0 0 1
vt 0.012645 0.905163
vn 0 0 1
vt 0.374074 0.908324
vn 0 0 1
vt 0.228438 0.778797
vn 0 0 -1
vt 0.374074 0.565862
vn 0 0 -1
vt 0 0.565862
vn 0 0 -1
vt 0.173704 0.679826
vn 0 0 -1
vt 0.242861 0.6712
vn 0 0 -1
vt 0.163183 0.78769
vn 0 0 -1
vt 0 0.911485
vn 0 0 -1
vt 0.228438 0.778797
vn 0 0 -1
vt 0.374074 0.911485
vn -1 0 0
vt 0.374074 0.565862
vn -1 0 0
vt 0.374074 0.911485
vn -1 0 0
vt 0 0.911485
vn -1 0 0
vt 0 0.565862
vn 0.999964 -0.00851765 0
vt 0.374074 0.565862
vn 0.999964 -0.00851765 0
vt 0.374074 0.911485
vn 0.999964 -0.00851765 0
vt 0 0.911485
vn 0.999964 -0.00851765 0
vt 0 0.565862
vn 0.0511316 -0.998692 0
vt 0 0.911485
vn 0.0511316 -0.998692 0
vt 0.374074 0.911485
vn 0.0511316 -0.998692 0
vt 0.374074 0.565862
vn 0.0511316 -0.998692 0
vt 0 0.565862
vn -0.999771 -0.0213781 0
vt 0.374074 0.565862
vn -0.999771 -0.0213781 0
vt 0.374074 0.911485
vn -0.999771 -0.0213781 0
vt 0 0.911485
vn -0.999771 -0.0213781 0
vt 0 0.565862
vn -0.0625691 0.998041 0
vt 0.374074 0.565862
vn -0.0625691 0.998041 0
vt 0.374074 0.911485
vn -0.0625691 0.998041 0
vt 0 0.911485
vn -0.0625691 0.998041 0
vt 0 0.565862
vn 1 0 0
vt 0.374074 0.565862
vn 1 0 0
vt 0.374074 0.911485
vn 1 0 0
vt 0 0.911485
vn 1 0 0
vt 0 0.565862
vn 0 1 0
vt 0.374074 0.565862
vn 0 1 0
vt 0.374074 0.706005
vn 0 1 0
vt 0 0.696521
vn 0 1 0
vt 0 0.565862
vn 0 0 1
vt 0.374074 0.565862
vn 0 0 1
vt 0.242861 0.6712
vn 0 0 1
vt 0.173704 0.679826
vn 0 0 1
vt 0 0.565862
vn 0 0 1
vt 0.163183 0.78769
vn 0 0 1
vt 0.012645 0.905163
vn 0 0 1
vt 0.374074 0.908324
vn 0 0 1
vt 0.228438 0.778797
vn 0 0 -1
vt 0.374074 0.565862
vn 0 0 -1
vt 0 0.565862
vn 0 0 -1
vt 0.173704 0.679826
vn 0 0 -1
vt 0.242861 0.6712
vn 0 0 -1
vt 0.163183 0.78769
vn 0 0 -1
vt 0 0.911485
vn 0 0 -1
vt 0.228438 0.778797
vn 0 0 -1
vt 0.374074 0.911485
vn -1 0 0
vt 0.374074 0.565862
vn -1 0 0
vt 0.374074 0.911485
vn -1 0 0
vt 0 0.911485
vn -1 0 0
vt 0 0.565862
vn 0.999964 -0.00851765 0
vt 0.374074 0.565862
vn 0.999964 -0.00851765 0
vt 0.374074 0.911485
vn 0.999964 -0.00851765 0
vt 0 0.911485
vn 0.999964 -0.00851765 0
vt 0 0.565862
vn 0.0511316 -0.998692 0
vt 0 0.911485
vn 0.0511316 -0.998692 0
vt 0.374074 0.911485
vn 0.0511316 -0.998692 0
vt 0.374074 0.565862
vn 0.0511316 -0.998692 0
vt 0 0.565862
vn -0.999771 -0.0213781 0
vt 0.374074 0.565862
vn -0.999771 -0.0213781 0
vt 0.374074 0.911485
vn -0.999771 -0.0213781 0
vt 0 0.911485
vn -0.999771 -0.0213781 0
vt 0 0.565862
vn -0.0625691 0.998041 0
vt 0.374074 0.565862
vn -0.0625691 0.998041 0
vt 0.374074 0.911485
vn -0.0625691 0.998041 0
vt 0 0.911485
vn -0.0625691 0.998041 0
vt 0 0.565862
vn 1 0 0
vt 0.374074 0.565862
vn 1 0 0
vt 0.374074 0.911485
vn 1 0 0
vt 0 0.911485
vn 1 0 0
vt 0 0.565862
vn 0 1 0
vt 0.374074 0.565862
vn 0 1 0
vt 0.374074 0.706005
vn 0 1 0
vt 0 0.696521
vn 0 1 0
vt 0 0.565862
vn 0 0 1
vt 0.374074 0.565862
vn 0 0 1
vt 0.242861 0.6712
vn 0 0 1
vt 0.173704 0.679826
vn 0 0 1
vt 0 0.565862
vn 0 0 1
vt 0.163183 0.78769
vn 0 0 1
vt 0.012645 0.905163
vn 0 0 1
vt 0.374074 0.908324
vn 0 0 1
vt 0.228438 0.778797
vn 0 0 -1
vt 0.374074 0.565862
vn 0 0 -1
vt 0 0.565862
vn 0 0 -1
vt 0.173704 0.679826
vn 0 0 -1
vt 0.242861 0.6712
vn 0 0 -1
vt 0.163183 0.78769
vn 0 0 -1
vt 0 0.911485
vn 0 0 -1
vt 0.228438 0.778797
vn 0 0 -1
vt 0.374074 0.911485
vn -1 0 0
vt 0.374074 0.565862
vn -1 0 0
vt 0.374074 0.911485
vn -1 0 0
vt 0 0.911485
vn -1 0 0
vt 0 0.565862
vn 0.999965 -0.00832707 0
vt 0.374074 0.565862
vn 0.999965 -0.00832707 0
vt 0.374074 0.911485
vn 0.999965 -0.00832707 0
vt 0 0.911485
vn 0.999965 -0.00832707 0
vt 0 0.565862
vn 0.0511107 -0.998693 0
vt 0 0.911485
vn 0.0511107 -0.998693 0
vt 0.374074 0.911485
vn 0.0511107 -0.998693 0
vt 0.374074 0.565862
vn 0.0511107 -0.998693 0
vt 0 0.565862
vn -0.999774 -0.0212812 0
vt 0.374074 0.565862
vn -0.999774 -0.0212812 0
vt 0.374074 0.911485
vn -0.999774 -0.0212812 0
vt 0 0.911485
vn -0.999774 -0.0212812 0
vt 0 0.565862
vn -0.0626013 0.998039 0
vt 0.374074 0.565862
vn -0.0626013 0.998039 0
vt 0.374074 0.911485
vn -0.0626013 0.998039 0
vt 0 0.911485
vn -0.0626013 0.998039 0
vt 0 0.565862
vn 1 0 0
vt 0.374074 0.565862
vn 1 0 0
vt 0.374074 0.911485
vn 1 0 0
vt 0 0.911485
vn 1 0 0
vt 0 0.565862
vn 0 1 0
vt 0.374074 0.565862
vn 0 1 0
vt 0.374074 0.706005
vn 0 1 0
vt 0 0.696521
vn 0 1 0
vt 0 0.565862
vn 0 0 1
vt 0.374074 0.565862
vn 0 0 1
vt 0.242861 0.6712
vn 0 0 1
vt 0.173704 0.679826
vn 0 0 1
vt 0 0.565862
vn 0 0 1
vt 0.163183 0.78769
vn 0 0 1
vt 0.012645 0.905163
vn 0 0 1
vt 0.374074 0.908324
vn 0 0 1
vt 0.228438 0.778797
vn 0 0 -1
vt 0.374074 0.565862
vn 0 0 -1
vt 0 0.565862
vn 0 0 -1
vt 0.173704 0.679826
vn 0 0 -1
vt 0.242861 0.6712
vn 0 0 -1
vt 0.163183 0.78769
vn 0 0 -1
vt 0 0.911485
vn 0 0 -1
vt 0.228438 0.778797
vn 0 0 -1
vt 0.374074 0.911485
vn -1 0 0
vt 0.374074 0.565862
vn -1 0 0
vt 0.374074 0.911485
vn -1 0 0
vt 0 0.911485
vn -1 0 0
vt 0 0.565862
vn 0.999965 -0.00832707 0
vt 0.374074 0.565862
vn 0.999965 -0.00832707 0
vt 0.374074 0.911485
vn 0.999965 -0.00832707 0
vt 0 0.911485
vn 0.999965 -0.00832707 0
vt 0 0.565862
vn 0.0511107 -0.998693 0
vt 0 0.911485
vn 0.0511107 -0.998693 0
vt 0.374074 0.911485
vn 0.0511107 -0.998693 0
vt 0.374074 0.565862
vn 0.0511107 -0.998693 0
vt 0 0.565862
vn -0.999774 -0.0212812 0
vt 0.374074 0.565862
vn -0.999774 -0.0212812 0
vt 0.374074 0.911485
vn -0.999774 -0.0212812 0
vt 0 0.911485
vn -0.999774 -0.0212812 0
vt 0 0.565862
vn -0.0626013 0.998039 0
vt 0.374074 0.565862
vn -0.0626013 0.998039 0
vt 0.374074 0.911485
vn -0.0626013 0.998039 0
vt 0 0.911485
vn -0.0626013 0.998039 0
vt 0 0.565862
vn 1 0 0
vt 0.374074 0.565862
vn 1 0 0
vt 0.374074 0.911485
vn 1 0 0
vt 0 0.911485
vn 1 0 0
vt 0 0.565862
vn 0 1 0
vt 0.374074 0.565862
vn 0 1 0
vt 0.374074 0.706005
vn 0 1 0
vt 0 0.696521
vn 0 1 0
vt 0 0.565862
f 3/1/1 2/2/2 1/3/3
f 1/3/3 4/4/4 3/1/1
f 7/5/5 6/6/6 5/7/7
f 5/7/7 8/8/8 7/5/5
f 1/9/9 2/10/10 8/11/11
f 8/11/11 5/12/12 1/9/9
f 2/13/13 3/14/14 1/15/15
f 4/16/16 1/15/15 3/14/14
f 6/17/17 7/18/18 5/19/19
f 8/20/20 5/19/19 7/18/18
f 2/21/21 1/22/22 8/23/23
f 5/24/24 8/23/23 1/22/22
f 16/25/25 14/26/26 13/27/27
f 16/25/25 13/27/27 15/28/28
f 10/29/29 9/30/30 13/31/31
f 10/29/29 13/31/31 14/32/32
f 12/33/33 10/34/34 14/35/35
f 12/33/33 14/35/35 16/36/36
f 15/37/37 11/38/38 12/39/39
f 15/37/37 12/39/39 16/40/40
f 11/41/41 15/42/42 13/43/43
f 11/41/41 13/43/43 9/44/44
f 24/45/45 22/46/46 21/47/47
f 24/45/45 21/47/47 23/48/48
f 18/49/49 17/50/50 21/51/51
f 18/49/49 21/51/51 22/52/52
f 20/53/53 18/54/54 22/55/55
f 20/53/53 22/55/55 24/56/56
f 23/57/57 19/58/58 20/59/59
f 23/57/57 20/59/59 24/60/60
f 19/61/61 23/62/62 21/63/63
f 19/61/61 21/63/63 17/64/64
f 26/65/65 39/66/66 33/67/67
f 26/65/65 33/67/67 25/68/68
f 35/69/69 27/70/70 25/68/68
f 35/69/69 25/68/68 33/67/67
f 26/65/65 28/71/71 37/72/72
f 26/65/65 37/72/72 39/66/66
f 28/71/71 27/70/70 35/69/69
f 28/71/71 35/69/69 37/72/72
f 30/73/73 29/74/74 34/75/75
f 30/73/73 34/75/75 40/76/76
f 36/77/77 34/75/75 29/74/74
f 36/77/77 29/74/74 31/78/78
f 30/73/73 40/76/76 38/79/79
f 30/73/73 38/79/79 32/80/80
f 32/80/80 38/79/79 36/77/77
f 32/80/80 36/77/77 31/78/78
f 25/81/81 27/82/82 31/83/83
f 25/81/81 31/83/83 29/84/84
f 34/85/85 36/86/86 35/87/87
f 34/85/85 35/87/87 33/88/88
f 36/89/89 38/90/90 37/91/91
f 36/89/89 37/91/91 35/92/92
f 39/93/93 37/94/94 38/95/95
f 39/93/93 38/95/95 40/96/96
f 39/97/97 40/98/98 34/99/99
f 39/97/97 34/99/99 33/100/100
f 30/101/101 32/102/102 28/103/103
f 30/101/101 28/103/103 26/104/104
f 28/105/105 32/106/106 31/107/107
f 28/105/105 31/107/107 27/108/108
f 42/109/109 55/110/110 49/111/111
f 42/109/109 49/111/111 41/112/112
f 51/113/113 43/114/114 41/112/112
f 51/113/113 41/112/112 49/111/111
f 42/109/109 44/115/115 53/116/116
f 42/109/109 53/116/116 55/110/110
f 44/115/115 43/114/114 51/113/113
f 44/115/115 51/113/113 53/116/116
f 46/117/117 45/118/118 50/119/119
f 46/117/117 50/119/119 56/120/120
f 52/121/121 50/119/119 45/118/118
f 52/121/121 45/118/118 47/122/122
f 46/117/117 56/120/120 54/123/123
f 46/117/117 54/123/123 48/124/124
f 48/124/124 54/123/123 52/121/121
f 48/124/124 52/121/121 47/122/122
f 41/125/125 43/126/126 47/127/127
f 41/125/125 47/127/127 45/128/128
f 50/129/129 52/130/130 51/131/131
f 50/129/129 51/131/131 49/132/132
f 52/133/133 54/134/134 53/135/135
f 52/133/133 53/135/135 51/136/136
f 55/137/137 53/138/138 54/139/139
f 55/137/137 54/139/139 56/140/140
f 55/141/141 56/142/142 50/143/143
f 55/141/141 50/143/143 49/144/144
f 46/145/145 48/146/146 44/147/147
f 46/145/145 44/147/147 42/148/148
f 44/149/149 48/150/150 47/151/151
f 44/149/149 47/151/151 43/152/152
f 58/153/153 71/154/154 65/155/155
f 58/153/153 65/155/155 57/156/156
f 67/157/157 59/158/158 57/156/156
f 67/157/157 57/156/156 65/155/155
f 58/153/153 60/159/159 69/160/160
f 58/153/153 69/160/160 71/154/154
f 60/159/159 59/158/158 67/157/157
f 60/159/159 67/157/157 69/160/160
f 62/161/161 61/162/162 66/163/163
f 62/161/161 66/163/163 72/164/164
f 68/165/165 66/163/163 61/162/162
f 68/165/165 61/162/162 63/166/166
f 62/161/161 72/164/164 70/167/167
f 62/161/161 70/167/167 64/168/168
f 64/168/168 70/167/167 68/165/165
f 64/168/168 68/165/165 63/166/166
f 57/169/169 59/170/170 63/171/171
f 57/169/169 63/171/171 61/172/172
f 66/173/173 68/174/174 67/175/175
f 66/173/173 67/175/175 65/176/176
f 68/177/177 70/178/178 69/179/179
f 68/177/177 69/179/179 67/180/180
f 71/181/181 69/182/182 70/183/183
f 71/181/181 70/183/183 72/184/184
f 71/185/185 72/186/186 66/187/187
f 71/185/185 66/187/187 65/188/188
f 62/189/189 64/190/190 60/191/191
f 62/189/189 60/191/191 58/192/192
f 60/193/193 64/194/194 63/195/195
f 60/193/193 63/195/195 59/196/196
f 74/197/197 87/198/198 81/199/199
f 74/197/197 81/199/199 73/200/200
f 83/201/201 75/202/202 73/200/200
f 83/201/201 73/200/200 81/199/199
f 74/197/197 76/203/203 85/204/204
f 74/197/197 85/204/204 87/198/198
f 76/203/203 75/202/202 83/201/201
f 76/203/203 83/201/201 85/204/204
f 78/205/205 77/206/206 82/207/207
f 78/205/205 82/207/207 88/208/208
f 84/209/209 82/207/207 77/206/206
f 84/209/209 77/206/206 79/210/210
f 78/205/205 88/208/208 86/211/211
f 78/205/205 86/211/211 80/212/212
f 80/212/212 86/211/211 84/209/209
f 80/212/212 84/209/209 79/210/210
f 73/213/213 75/214/214 79/215/215
f 73/213/213 79/215/215 77/216/216
f 82/217/217 84/218/218 83/219/219
f 82/217/217 83/219/219 81/220/220
f 84/221/221 86/222/222 85/223/223
f 84/221/221 85/223/223 83/224/224
f 87/225/225 85/226/226 86/227/227
f 87/225/225 86/227/227 88/228/228
f 87/229/229 88/230/230 82/231/231
f 87/229/229 82/231/231 81/232/232
f 78/233/233 80/234/234 76/235/235
f 78/233/233 76/235/235 74/236/236
f 76/237/237 80/238/238 79/239/239
f 76/237/237 79/239/239 75/240/240
f 90/241/241 103/242/242 97/243/243
f 90/241/241 97/243/243 89/244/244
f 99/245/245 91/246/246 89/244/244
f 99/245/245 89/244/244 97/243/243
f 90/241/241 92/247/247 101/248/248
f 90/241/241 101/248/248 103/242/242
f 92/247/247 91/246/246 99/245/245
f 92/247/247 99/245/245 101/248/248
f 94/249/249 93/250/250 98/251/251
f 94/249/249 98/251/251 104/252/252
f 100/253/253 98/251/251 93/250/250
f 100/253/253 93/250/250 95/254/254
f 94/249/249 104/252/252 102/255/255
f 94/249/249 102/255/255 96/256/256
f 96/256/256 102/255/255 100/253/253
f 96/256/256 100/253/253 95/254/254
f 89/257/257 91/258/258 95/259/259
f 89/257/257 95/259/259 93/260/260
f 98/261/261 100/262/262 99/263/263
f 98/261/261 99/263/263 97/264/264
f 100/265/265 102/266/266 101/267/267
f 100/265/265 101/267/267 99/268/268
f 103/269/269 101/270/270 102/271/271
f 103/269/269 102/271/271 104/272/272
f 103/273/273 104/274/274 98/275/275
f 103/273/273 98/275/275 97/276/276
f 94/277/277 96/278/278 92/279/279
f 94/277/277 92/279/279 90/280/280
f 92/281/281 96/282/282 95/283/283
f 92/281/281 95/283/283 91/284/284
f 106/285/285 119/286/286 113/287/287
f 106/285/285 113/287/287 105/288/288
f 115/289/289 107/290/290 105/288/288
f 115/289/289 105/288/288 113/287/287
f 106/285/285 108/291/291 117/292/292
f 106/285/285 117/292/292 119/286/286
f 108/291/291 107/290/290 115/289/289
f 108/291/291 115/289/289 117/292/292
f 110/293/293 109/294/294 114/295/295
f 110/293/293 114/295/295 120/296/296
f 116/297/297 114/295/295 109/294/294
f 116/297/297 109/294/294 111/298/298
f 110/293/293 120/296/296 118/299/299
f 110/293/293 118/299/299 112/300/300
f 112/300/300 118/299/299 116/297/297
f 112/300/300 116/297/297 111/298/298
f 105/301/301 107/302/302 111/303/303
f 105/301/301 111/303/303 109/304/304
f 114/305/305 116/306/306 115/307/307
f 114/305/305 115/307/307 113/308/308
f 116/309/309 118/310/310 117/311/311
f 116/309/309 117/311/311 115/312/312
f 119/313/313 117/314/314 118/315/315
f 119/313/313 118/315/315 120/316/316
f 119/317/317 120/318/318 114/319/319
f 119/317/317 114/319/319 113/320/320
f 110/321/321 112/322/322 108/323/323
f 110/321/321 108/323/323 106/324/324
f 108/325/325 112/326/326 111/327/327
f 108/325/325 111/327/327 107/328/328
f 122/329/329 135/330/330 129/331/331
f 122/329/329 129/331/331 121/332/332
f 131/333/333 123/334/334 121/332/332
f 131/333/333 121/332/332 129/331/331
f 122/329/329 124/335/335 133/336/336
f 122/329/329 133/336/336 135/330/330
f 124/335/335 123/334/334 131/333/333
f 124/335/335 131/333/333 133/336/336
f 126/337/337 125/338/338 130/339/339
f 126/337/337 130/339/339 136/340/340
f 132/341/341 130/339/339 125/338/338
f 132/341/341 125/338/338 127/342/342
f 126/337/337 136/340/340 134/343/343
f 126/337/337 134/343/343 128/344/344
f 128/344/344 134/343/343 132/341/341
f 128/344/344 132/341/341 127/342/342
f 121/345/345 123/346/346 127/347/347
f 121/345/345 127/347/347 125/348/348
f 130/349/349 132/350/350 131/351/351
f 130/349/349 131/351/351 129/352/352
f 132/353/353 134/354/354 133/355/355
f 132/353/353 133/355/355 131/356/356
f 135/357/357 133/358/358 134/359/359
f 135/357/357 134/359/359 136/360/360
f 135/361/361 136/362/362 130/363/363
f 135/361/361 130/363/363 129/364/364
f 126/365/365 128/366/366 124/367/367
f 126/365/365 124/367/367 122/368/368
f 124/369/369 128/370/370 127/371/371
f 124/369/369 127/371/371 123/372/372
f 138/373/373 151/374/374 145/375/375
f 138/373/373 145/375/375 137/376/376
f 147/377/377 139/378/378 137/376/376
f 147/377/377 137/376/376 145/375/375
f 138/373/373 140/379/379 149/380/380
f 138/373/373 149/380/380 151/374/374
f 140/379/379 139/378/378 147/377/377
f 140/379/379 147/377/377 149/380/380
f 142/381/381 141/382/382 146/383/383
f 142/381/381 146/383/383 152/384/384
f 148/385/385 146/383/383 141/382/382
f 148/385/385 141/382/382 143/386/386
f 142/381/381 152/384/384 150/387/387
f 142/381/381 150/387/387 144/388/388
f 144/388/388 150/387/387 148/385/385
f 144/388/388 148/385/385 143/386/386
f 137/389/389 139/390/390 143/391/391
f 137/389/389 143/391/391 141/392/392
f 146/393/393 148/394/394 147/395/395
f 146/393/393 147/395/395 145/396/396
f 148/397/397 150/398/398 149/399/399
f 148/397/397 149/399/399 147/400/400
f 151/401/401 149/402/402 150/403/403
f 151/401/401 150/403/403 152/404/404
f 151/405/405 152/406/406 146/407/407
f 151/405/405 146/407/407 145/408/408
f 142/409/409 144/410/410 140/411/411
f 142/409/409 140/411/411 138/412/412
f 140/413/413 144/414/414 143/415/415
f 140/413/413 143/415/415 139/416/416
f 154/417/417 167/418/418 161/419/419
f 154/417/417 161/419/419 153/420/420
f 163/421/421 155/422/422 153/420/420
f 163/421/421 153/420/420 161/419/419
f 154/417/417 156/423/423 165/424/424
f 154/417/417 165/424/424 167/418/418
f 156/423/423 155/422/422 163/421/421
f 156/423/423 163/421/421 165/424/424
f 158/425/425 157/426/426 162/427/427
f 158/425/425 162/427/427 168/428/428
f 164/429/429 162/427/427 157/426/426
f 164/429/429 157/426/426 159/430/430
f 158/425/425 168/428/428 166/431/431
f 158/425/425 166/431/431 160/432/432
f 160/432/432 166/431/431 164/429/429
f 160/432/432 164/429/429 159/430/430
f 153/433/433 155/434/434 159/435/435
f 153/433/433 159/435/435 157/436/436
f 162/437/437 164/438/438 163/439/439
f 162/437/437 163/439/439 161/440/440
f 164/441/441 166/442/442 165/443/443
f 164/441/441 165/443/443 163/444/444
f 167/445/445 165/446/446 166/447/447
f 167/445/445 166/447/447 168/448/448
f 167/449/449 168/450/450 162/451/451
f 167/449/449 162/451/451 161/452/452
f 158/453/453 160/454/454 156/455/455
f 158/453/453 156/455/455 154/456/456
f 156/457/457 160/458/458 159/459/459
f 156/457/457 159/459/459 155/460/460
f 170/461/461 183/462/462 177/463/463
f 170/461/461 177/463/463 169/464/464
f 179/465/465 171/466/466 169/464/464
f 179/465/465 169/464/464 177/463/463
f 170/461/461 172/467/467 181/468/468
f 170/461/461 181/468/468 183/462/462
f 172/467/467 171/466/466 179/465/465
f 172/467/467 179/465/465 181/468/468
f 174/469/469 173/470/470 178/471/471
f 174/469/469 178/471/471 184/472/472
f 180/473/473 178/471/471 173/470/470
f 180/473/473 173/470/470 175/474/474
f 174/469/469 184/472/472 182/475/475
f 174/469/469 182/475/475 176/476/476
f 176/476/476 182/475/475 180/473/473
f 176/476/476 180/473/473 175/474/474
f 169/477/477 171/478/478 175/479/479
f 169/477/477 175/479/479 173/480/480
f 178/481/481 180/482/482 179/483/483
f 178/481/481 179/483/483 177/484/484
f 180/485/485 182/486/486 181/487/487
f 180/485/485 181/487/487 179/488/488
f 183/489/489 181/490/490 182/491/491
f 183/489/489 182/491/491 184/492/492
f 183/493/493 184/494/494 178/495/495
f 183/493/493 178/495/495 177/496/496
f 174/497/497 176/498/498 172/499/499
f 174/497/497 172/499/499 170/500/500
f 172/501/501 176/502/502 175/503/503
f 172/501/501 175/503/503 171/504/504
f 186/505/505 199/506/506 193/507/507
f 186/505/505 193/507/507 185/508/508
f 195/509/509 187/510/510 185/508/508
f 195/509/509 185/508/508 193/507/507
f 186/505/505 188/511/511 197/512/512
f 186/505/505 197/512/512 199/506/506
f 188/511/511 187/510/510 195/509/509
f 188/511/511 195/509/509 197/512/512
f 190/513/513 189/514/514 194/515/515
f 190/513/513 194/515/515 200/516/516
f 196/517/517 194/515/515 189/514/514
f 196/517/517 189/514/514 191/518/518
f 190/513/513 200/516/516 198/519/519
f 190/513/513 198/519/519 192/520/520
f 192/520/520 198/519/519 196/517/517
f 192/520/520 196/517/517 191/518/518
f 185/521/521 187/522/522 191/523/523
f 185/521/521 191/523/523 189/524/524
f 194/525/525 196/526/526 195/527/527
f 194/525/525 195/527/527 193/528/528
f 196/529/529 198/530/530 197/531/531
f 196/529/529 197/531/531 195/532/532
f 199/533/533 197/534/534 198/535/535
f 199/533/533 198/535/535 200/536/536
f 199/537/537 200/538/538 194/539/539
f 199/537/537 194/539/539 193/540/540
f 190/541/541 192/542/542 188/543/543
f 190/541/541 188/543/543 186/544/544
f 188/545/545 192/546/546 191/547/547
f 188/545/545 191/547/547 187/548/548
f 202/549/549 215/550/550 209/551/551
f 202/549/549 209/551/551 201/552/552
f 211/553/553 203/554/554 201/552/552
f 211/553/553 201/552/552 209/551/551
f 202/549/549 204/555/555 213/556/556
f 202/549/549 213/556/556 215/550/550
f 204/555/555 203/554/554 211/553/553
f 204/555/555 211/553/553 213/556/556
f 206/557/557 205/558/558 210/559/559
f 206/557/557 210/559/559 216/560/560
f 212/561/561 210/559/559 205/558/558
f 212/561/561 205/558/558 207/562/562
f 206/557/557 216/560/560 214/563/563
f 206/557/557 214/563/563 208/564/564
f 208/564/564 214/563/563 212/561/561
f 208/564/564 212/561/561 207/562/562
f 201/565/565 203/566/566 207/567/567
f 201/565/565 207/567/567 205/568/568
f 210/569/569 212/570/570 211/571/571
f 210/569/569 211/571/571 209/572/572
f 212/573/573 214/574/574 213/575/575
f 212/573/573 213/575/575 211/576/576
f 215/577/577 213/578/578 214/579/579
f 215/577/577 214/579/579 216/580/580
f 215/581/581 216/582/582 210/583/583
f 215/581/581 210/583/583 209/584/584
f 206/585/585 208/586/586 204/587/587
f 206/585/585 204/587/587 202/588/588
f 204/589/589 208/590/590 207/591/591
f 204/589/589 207/591/591 203/592/592
f 218/593/593 231/594/594 225/595/595
f 218/593/593 225/595/595 217/596/596
f 227/597/597 219/598/598 217/596/596
f 227/597/597 217/596/596 225/595/595
f 218/593/593 220/599/599 229/600/600
f 218/593/593 229/600/600 231/594/594
f 220/599/599 219/598/598 227/597/597
f 220/599/599 227/597/597 229/600/600
f 222/601/601 221/602/602 226/603/603
f 222/601/601 226/603/603 232/604/604
f 228/605/605 226/603/603 221/602/602
f 228/605/605 221/602/602 223/606/606
f 222/601/601 232/604/604 230/607/607
f 222/601/601 230/607/607 224/608/608
f 224/608/608 230/607/607 228/605/605
f 224/608/608 228/605/605 223/606/606
f 217/609/609 219/610/610 223/611/611
f 217/609/609 223/611/611 221/612/612
f 226/613/613 228/614/614 227/615/615
f 226/613/613 227/615/615 225/616/616
f 228/617/617 230/618/618 229/619/619
f 228/617/617 229/619/619 227/620/620
f 231/621/621 229/622/622 230/623/623
f 231/621/621 230/623/623 232/624/624
f 231/625/625 232/626/626 226/627/627
f 231/625/625 226/627/627 225/628/628
f 222/629/629 224/630/630 220/631/631
f 222/629/629 220/631/631 218/632/632
f 220/633/633 224/634/634 223/635/635
f 220/633/633 223/635/635 219/636/636
f 234/637/637 247/638/638 241/639/639
f 234/637/637 241/639/639 233/640/640
f 243/641/641 235/642/642 233/640/640
f 243/641/641 233/640/640 241/639/639
f 234/637/637 236/643/643 245/644/644
f 234/637/637 245/644/644 247/638/638
f 236/643/643 235/642/642 243/641/641
f 236/643/643 243/641/641 245/644/644
f 238/645/645 237/646/646 242/647/647
f 238/645/645 242/647/647 248/648/648
f 244/649/649 242/647/647 237/646/646
f 244/649/649 237/646/646 239/650/650
f 238/645/645 248/648/648 246/651/651
f 238/645/645 246/651/651 240/652/652
f 240/652/652 246/651/651 244/649/649
f 240/652/652 244/649/649 239/650/650
f 233/653/653 235/654/654 239/655/655
f 233/653/653 239/655/655 237/656/656
f 242/657/657 244/658/658 243/659/659
f 242/657/657 243/659/659 241/660/660
f 244/661/661 246/662/662 245/663/663
f 244/661/661 245/663/663 243/664/664
f 247/665/665 245/666/666 246/667/667
f 247/665/665 246/667/667 248/668/668
f 247/669/669 248/670/670 242/671/671
f 247/669/669 242/671/671 241/672/672
f 238/673/673 240/674/674 236/675/675
f 238/673/673 236/675/675 234/676/676
f 236/677/677 240/678/678 239/679/679
f 236/677/677 239/679/679 235/680/680
f 250/681/681 263/682/682 257/683/683
f 250/681/681 257/683/683 249/684/684
f 259/685/685 251/686/686 249/684/684
f 259/685/685 249/684/684 257/683/683
f 250/681/681 252/687/687 261/688/688
f 250/681/681 261/688/688 263/682/682
f 252/687/687 251/686/686 259/685/685
f 252/687/687 259/685/685 261/688/688
f 254/689/689 253/690/690 258/691/691
f 254/689/689 258/691/691 264/692/692
f 260/693/693 258/691/691 253/690/690
f 260/693/693 253/690/690 255/694/694
f 254/689/689 264/692/692 262/695/695
f 254/689/689 262/695/695 256/696/696
f 256/696/696 262/695/695 260/693/693
f 256/696/696 260/693/693 255/694/694
f 249/697/697 251/698/698 255/699/699
f 249/697/697 255/699/699 253/700/700
f 258/701/701 260/702/702 259/703/703
f 258/701/701 259/703/703 257/704/704
f 260/705/705 262/706/706 261/707/707
f 260/705/705 261/707/707 259/708/708
f 263/709/709 261/710/710 262/711/711
f 263/709/709 262/711/711 264/712/712
f 263/713/713 264/714/714 258/715/715
f 263/713/713 258/715/715 257/716/716
f 254/717/717 256/718/718 252/719/719
f 254/717/717 252/719/719 250/720/720
f 252/721/721 256/722/722 255/723/723
f 252/721/721 255/723/723 251/724/724
