#
# Exported by OpenBRF -- marco tarini
#
s fysg_fanzi17.1
newmtl fysg_fanzi015
Ka 0.8 0.8 0.8
Kd 0.2 0.2 0.2
usemtl fysg_fanzi015
v -8.20885 1.38952 -4.17393
v -8.20885 1.38952 -5.89248
v -8.20885 -0.0240091 -8.21619
v -8.20885 -0.0240068 -1.85021
v -8.20885 3.3475 -4.17393
v -8.20885 4.14816 -1.85021
v -8.20885 3.3475 -5.89248
v -8.20885 4.14816 -8.21619
v -7.97686 1.38952 -4.17393
v -7.97686 1.38952 -5.89248
v -7.97686 3.3475 -4.17393
v -7.97686 3.3475 -5.89248
v -7.98145 -0.0240068 -1.85021
v -7.98145 4.14816 -1.85021
v -7.98145 4.14816 -8.21619
v -8.20885 4.54662 -8.4436
v -7.98145 4.54662 -8.4436
v -7.98145 -0.0240091 -8.21619
v -7.98145 4.54663 -1.62281
v -8.20885 4.54663 -1.62281
v -7.98145 -0.00129662 -2.30444
v -7.98145 4.17087 -2.30444
v -7.98145 4.54669 -2.07703
v -7.98145 4.54668 -7.98937
v -7.98145 4.17086 -7.76197
v -7.98145 -0.00129662 -7.76197
v 1.59122 1.38952 -4.17393
v 1.59122 -0.0240068 -1.85021
v 1.59123 -0.0240091 -8.21619
v 1.59123 1.38952 -5.89248
v 1.59122 3.3475 -4.17393
v 1.59122 4.14816 -1.85021
v 1.59123 3.3475 -5.89248
v 1.59123 4.14816 -8.21619
v 1.35925 1.38952 -4.17393
v 1.35925 1.38952 -5.89248
v 1.35925 3.3475 -4.17393
v 1.35925 3.3475 -5.89248
v 1.36383 4.14816 -1.85021
v 1.36383 -0.0240068 -1.85021
v 1.36383 4.14816 -8.21619
v 1.36383 4.54662 -8.4436
v 1.59123 4.54662 -8.4436
v 1.36383 -0.0240091 -8.21619
v 1.59122 4.54663 -1.62281
v 1.36383 4.54663 -1.62281
v 1.36383 4.17087 -2.30444
v 1.36383 -0.00129662 -2.30444
v 1.36383 4.54669 -2.07703
v 1.36383 4.17086 -7.76197
v 1.36383 4.54668 -7.98937
v 1.36383 -0.00129662 -7.76197
v -8.3824 0.199449 -3.59256
v -8.20073 -0.00129662 -3.59256
v -8.20047 3.336 -3.59256
v -8.38239 3.336 -3.59256
v -8.20073 -0.00129662 -3.77449
v -8.3824 0.199449 -3.77449
v -8.38239 3.336 -3.77449
v -8.20047 3.336 -3.77449
v -9.24622 -0.00129662 -3.59256
v -9.06332 0.199449 -3.59256
v -9.06375 3.336 -3.59256
v -9.24567 3.336 -3.59256
v -9.06332 0.199449 -3.77449
v -9.06375 3.336 -3.77449
v -9.24622 -0.00129662 -3.77449
v -9.24567 3.336 -3.77449
v -9.07498 0.5488 -3.6392
v -9.07576 0.450974 -3.6392
v -8.36893 0.450974 -3.6392
v -8.36963 0.5488 -3.6392
v -9.07576 0.450974 -3.72785
v -9.07498 0.5488 -3.72785
v -8.36963 0.5488 -3.72785
v -8.36893 0.450974 -3.72785
v -9.07498 0.906515 -3.6392
v -9.07576 0.808689 -3.6392
v -8.36893 0.808689 -3.6392
v -8.36963 0.906515 -3.6392
v -9.07576 0.808689 -3.72785
v -9.07498 0.906515 -3.72785
v -8.36963 0.906515 -3.72785
v -8.36893 0.808689 -3.72785
v -9.07498 1.27279 -3.6392
v -9.07576 1.17497 -3.6392
v -8.36893 1.17497 -3.6392
v -8.36963 1.27279 -3.6392
v -9.07576 1.17497 -3.72785
v -9.07498 1.27279 -3.72785
v -8.36963 1.27279 -3.72785
v -8.36893 1.17497 -3.72785
v -9.07498 1.6305 -3.6392
v -9.07576 1.53268 -3.6392
v -8.36893 1.53268 -3.6392
v -8.36963 1.6305 -3.6392
v -9.07576 1.53268 -3.72785
v -9.07498 1.6305 -3.72785
v -8.36963 1.6305 -3.72785
v -8.36893 1.53268 -3.72785
v -9.07498 1.99734 -3.6392
v -9.07576 1.89952 -3.6392
v -8.36893 1.89952 -3.6392
v -8.36963 1.99734 -3.6392
v -9.07576 1.89952 -3.72785
v -9.07498 1.99734 -3.72785
v -8.36963 1.99734 -3.72785
v -8.36893 1.89952 -3.72785
v -9.07498 2.35506 -3.6392
v -9.07576 2.25723 -3.6392
v -8.36893 2.25723 -3.6392
v -8.36963 2.35506 -3.6392
v -9.07576 2.25723 -3.72785
v -9.07498 2.35506 -3.72785
v -8.36963 2.35506 -3.72785
v -8.36893 2.25723 -3.72785
v -9.07498 2.72134 -3.6392
v -9.07576 2.62351 -3.6392
v -8.36893 2.62351 -3.6392
v -8.36963 2.72134 -3.6392
v -9.07576 2.62351 -3.72785
v -9.07498 2.72134 -3.72785
v -8.36963 2.72134 -3.72785
v -8.36893 2.62351 -3.72785
v -9.07498 3.07905 -3.6392
v -9.07576 2.98122 -3.6392
v -8.36893 2.98122 -3.6392
v -8.36963 3.07905 -3.6392
v -9.07576 2.98122 -3.72785
v -9.07498 3.07905 -3.72785
v -8.36963 3.07905 -3.72785
v -8.36893 2.98122 -3.72785
v -8.3824 0.199446 -6.29145
v -8.20073 -0.00129662 -6.29145
v -8.20047 3.336 -6.29145
v -8.38239 3.336 -6.29145
v -8.20073 -0.00129662 -6.47338
v -8.3824 0.199445 -6.47338
v -8.38239 3.336 -6.47338
v -8.20047 3.336 -6.47338
v -9.24622 -0.00129662 -6.29145
v -9.06332 0.199446 -6.29145
v -9.06375 3.336 -6.29145
v -9.24567 3.336 -6.29145
v -9.06332 0.199445 -6.47338
v -9.06375 3.336 -6.47338
v -9.24622 -0.00129662 -6.47338
v -9.24567 3.336 -6.47338
v -9.07498 0.5488 -6.33809
v -9.07576 0.450974 -6.33809
v -8.36893 0.450974 -6.33809
v -8.36963 0.5488 -6.33809
v -9.07576 0.450973 -6.42674
v -9.07498 0.5488 -6.42674
v -8.36963 0.5488 -6.42674
v -8.36893 0.450973 -6.42674
v -9.07498 0.906515 -6.33809
v -9.07576 0.808689 -6.33809
v -8.36893 0.808689 -6.33809
v -8.36963 0.906515 -6.33809
v -9.07576 0.808688 -6.42674
v -9.07498 0.906515 -6.42674
v -8.36963 0.906515 -6.42674
v -8.36893 0.808688 -6.42674
v -9.07498 1.27279 -6.33809
v -9.07576 1.17497 -6.33809
v -8.36893 1.17497 -6.33809
v -8.36963 1.27279 -6.33809
v -9.07576 1.17497 -6.42674
v -9.07498 1.27279 -6.42674
v -8.36963 1.27279 -6.42674
v -8.36893 1.17497 -6.42674
v -9.07498 1.6305 -6.33809
v -9.07576 1.53268 -6.33809
v -8.36893 1.53268 -6.33809
v -8.36963 1.6305 -6.33809
v -9.07576 1.53268 -6.42674
v -9.07498 1.6305 -6.42674
v -8.36963 1.6305 -6.42674
v -8.36893 1.53268 -6.42674
v -9.07498 1.99734 -6.33809
v -9.07576 1.89952 -6.33809
v -8.36893 1.89952 -6.33809
v -8.36963 1.99734 -6.33809
v -9.07576 1.89952 -6.42674
v -9.07498 1.99734 -6.42674
v -8.36963 1.99734 -6.42674
v -8.36893 1.89952 -6.42674
v -9.07498 2.35506 -6.33809
v -9.07576 2.25723 -6.33809
v -8.36893 2.25723 -6.33809
v -8.36963 2.35506 -6.33809
v -9.07576 2.25723 -6.42674
v -9.07498 2.35506 -6.42674
v -8.36963 2.35506 -6.42674
v -8.36893 2.25723 -6.42674
v -9.07498 2.72134 -6.33809
v -9.07576 2.62351 -6.33809
v -8.36893 2.62351 -6.33809
v -8.36963 2.72134 -6.33809
v -9.07576 2.62351 -6.42674
v -9.07498 2.72134 -6.42674
v -8.36963 2.72134 -6.42674
v -8.36893 2.62351 -6.42674
v -9.07498 3.07905 -6.33809
v -9.07576 2.98122 -6.33809
v -8.36893 2.98122 -6.33809
v -8.36963 3.07905 -6.33809
v -9.07576 2.98122 -6.42674
v -9.07498 3.07905 -6.42674
v -8.36963 3.07905 -6.42674
v -8.36893 2.98122 -6.42674
v -5.70051 4.54669 -2.07703
v -5.70051 4.17087 -2.30444
v -5.70051 4.16553 -1.26223
v -3.29943 -0.00129662 -2.30444
v -3.29943 4.17087 -2.30444
v -3.29944 4.16553 -1.26223
v -3.29944 -0.00129662 -1.26223
v -5.70051 -0.00129662 -2.30444
v -5.70051 -0.00129662 -1.26223
v -3.5954 3.83343 -1.26223
v -3.5954 -0.00129662 -1.26223
v -5.40455 3.83343 -1.26223
v -5.40455 -0.00129662 -1.26223
v -3.5954 3.83343 -1.57037
v -3.5954 -0.00129662 -1.57037
v -5.40455 -0.00129662 -1.57037
v -5.40455 3.83343 -1.57037
v -5.68428 0.530922 -0.79582
v -5.42078 0.530556 -0.79582
v -5.42078 0.846299 -0.984551
v -5.68428 0.847032 -0.984551
v -5.68428 -0.00120506 -1.26791
v -5.68428 1.05992 -1.26791
v -5.42078 -0.00138817 -1.26791
v -5.42078 -0.00129662 -0.79582
v -5.42078 1.05918 -1.26791
v -5.68428 -0.00129547 -0.309492
v -5.42078 -0.00129547 -0.309492
v -5.42078 0.391686 -0.519024
v -5.68428 0.392055 -0.519024
v -5.68428 -0.00129662 -0.79582
v -3.58501 0.530922 -0.79582
v -3.32152 0.530556 -0.79582
v -3.32152 0.846299 -0.984551
v -3.58501 0.847032 -0.984551
v -3.58501 -0.00120506 -1.26791
v -3.58501 1.05992 -1.26791
v -3.32152 -0.00138817 -1.26791
v -3.32152 -0.00129662 -0.79582
v -3.32152 1.05918 -1.26791
v -3.58501 -0.00129547 -0.309492
v -3.32152 -0.00129547 -0.309492
v -3.32152 0.391686 -0.519024
v -3.58501 0.392055 -0.519024
v -3.58501 -0.00129662 -0.79582
v -3.29943 4.54669 -2.07703
v -7.98145 1.11021 -2.30444
v -5.70051 1.11021 -2.30444
v 1.36383 1.1102 -7.76197
v -7.98145 1.1102 -7.76197
v -3.29943 1.11021 -2.30444
v 1.36383 1.11021 -2.30444
v -8.20885 7.2639 -4.92926
v -8.20885 7.2639 -5.13715
v -8.20885 4.54665 -7.98937
v -8.20885 4.54666 -2.07703
v 1.59123 7.26391 -4.92926
v 1.59123 4.54666 -2.07703
v 1.59123 4.54665 -7.98937
v 1.59123 7.26391 -5.13715
vn -1 0 0
vt 0.762903 0.336865
vn -1 0 0
vt 0.237097 0.336865
vn -1 0 0
vt -0.473864 -0.00134599
vn -1 0 0
vt 1.47386 -0.00134599
vn -1 0 0
vt 0.762903 0.805345
vn -1 0 0
vt 1.47386 0.996916
vn -1 0 0
vt 0.237097 0.805345
vn -1 0 0
vt -0.473864 0.996915
vn 0 1 0
vt 0.774093 0.535879
vn 0 1 0
vt 0.225907 0.53588
vn 0 1 0
vt 0.225907 0.464121
vn 0 1 0
vt 0.774093 0.46412
vn 0 0 -1
vt 0.774093 0.535879
vn 0 0 -1
vt 0.225907 0.53588
vn 0 0 -1
vt 0.225907 0.464121
vn 0 0 -1
vt 0.774093 0.46412
vn 0 0 1
vt 0.774093 0.535879
vn 0 0 1
vt 0.225907 0.53588
vn 0 0 1
vt 0.225907 0.464121
vn 0 0 1
vt 0.774093 0.46412
vn 0 -0.0496917 0.998765
vt -0.669214 0.912407
vn 0 0 1
vt -0.669214 0.000500023
vn 0 0 1
vt -0.614953 0.000500023
vn 0 -0.0496917 0.998765
vt -0.614953 0.912407
vn 0 -0.0496917 -0.998765
vt -0.614953 0.912407
vn 0 -0.0496917 -0.998765
vt -0.669214 0.912407
vn 0 -0.495658 -0.868518
vt -0.669214 0.9995
vn 0 -0.495658 -0.868518
vt -0.614953 0.9995
vn 0 0 -1
vt -0.614953 0.00049901
vn 0 0 -1
vt -0.669214 0.00049901
vn 0 -0.495654 0.86852
vt -0.614953 0.999501
vn 0 -0.495654 0.86852
vt -0.669214 0.999501
vn 1 0 0
vt 1.58522 0.912396
vn 1 0 0
vt 1.58522 0.000500023
vn 1 0 0
vt 1.43035 0.00546402
vn 1 0 0
vt 1.43035 0.91736
vn 1 0 0
vt 1.66275 0.999488
vn 1 0 0
vt 1.50788 0.999501
vn 1 0 0
vt -0.585218 0.912395
vn 1 0 0
vt -0.662747 0.999487
vn 1 0 0
vt -0.507882 0.9995
vn 1 0 0
vt -0.430353 0.917359
vn 1 0 0
vt -0.585218 0.00049901
vn 1 0 0
vt -0.430352 0.005463
vn 1 0 2.86102e-06
vt 0.792964 0.30945
vn 1 1.43051e-06 9.53674e-07
vt 1.58522 0.000500023
vn 1 0 1.90735e-06
vt -0.585218 0.00049901
vn 1 -1.90735e-06 9.53674e-07
vt 0.207037 0.30945
vn 1 -2.38419e-06 9.53674e-07
vt 0.792963 0.737399
vn 1 0 1.90735e-06
vt 1.58522 0.912396
vn 1 0 1.90735e-06
vt 0.207037 0.737399
vn 1 1.90735e-06 9.53674e-07
vt -0.585218 0.912395
vn 0 1 0
vt 0.225907 0.53588
vn 0 1 0
vt 0.225907 0.464121
vn 0 1 0
vt 0.774093 0.46412
vn 0 1 0
vt 0.774093 0.535879
vn 0 0 -1
vt 0.225907 0.53588
vn 0 0 -1
vt 0.225907 0.464121
vn 0 0 -1
vt 0.774093 0.46412
vn 0 0 -1
vt 0.774093 0.535879
vn 0 0 1
vt 0.225907 0.53588
vn 0 0 1
vt 0.225907 0.464121
vn 0 0 1
vt 0.774093 0.46412
vn 0 0 1
vt 0.774093 0.535879
vn 0 -0.0496917 0.998765
vt 1.66921 0.912407
vn 0 -0.0496917 0.998765
vt 1.61495 0.912407
vn 0 0 1
vt 1.61495 0.000500023
vn 0 0 1
vt 1.66921 0.000500023
vn 0 -0.0496917 -0.998765
vt 1.61495 0.912407
vn 0 -0.495658 -0.868518
vt 1.61495 0.9995
vn 0 -0.495658 -0.868518
vt 1.66921 0.9995
vn 0 -0.0496917 -0.998765
vt 1.66921 0.912407
vn 0 0 -1
vt 1.66921 0.00049901
vn 0 0 -1
vt 1.61495 0.00049901
vn 0 -0.495654 0.86852
vt 1.66921 0.999501
vn 0 -0.495654 0.86852
vt 1.61495 0.999501
vn -1 0 0
vt 1.58522 0.912396
vn -1 0 0
vt 1.43035 0.91736
vn -1 0 0
vt 1.43035 0.00546402
vn -1 0 0
vt 1.58522 0.000500023
vn -1 0 0
vt 1.66275 0.999488
vn -1 0 0
vt 1.50788 0.999501
vn -1 0 0
vt -0.585218 0.912395
vn -1 0 0
vt -0.430352 0.917359
vn -1 0 0
vt -0.507882 0.9995
vn -1 0 0
vt -0.662747 0.999487
vn -1 0 0
vt -0.585218 0.00049901
vn -1 0 0
vt -0.430352 0.005463
vn 0 0 1
vt 0.603004 0.060591
vn 0 0 1
vt 0.655762 0.000500023
vn 0 0 1
vt 0.655836 0.9995
vn 0 0 1
vt 0.603009 0.9995
vn 0 0 -1
vt 0.655762 0.000500023
vn 0 0 -1
vt 0.603004 0.060591
vn 0 0 -1
vt 0.603009 0.9995
vn 0 0 -1
vt 0.655836 0.9995
vn -1 4.76837e-06 0
vt 0.879762 0.060591
vn -1 4.76837e-06 0
vt 0.934657 0.060591
vn -1 4.76837e-06 0
vt 0.934657 0.9995
vn -1 4.76837e-06 0
vt 0.879762 0.9995
vn 0 0 1
vt 0.352165 0.000500023
vn 0 0 1
vt 0.405277 0.060591
vn 0 0 1
vt 0.405155 0.9995
vn 0 0 1
vt 0.352329 0.9995
vn 1 0.000135422 0
vt 0.934657 0.060591
vn 1 0.000135422 0
vt 0.879762 0.060591
vn 1 0.000135422 0
vt 0.879762 0.9995
vn 1 0.000135422 0
vt 0.934657 0.9995
vn 0 0 -1
vt 0.405277 0.060591
vn 0 0 -1
vt 0.352165 0.000500023
vn 0 0 -1
vt 0.352329 0.9995
vn 0 0 -1
vt 0.405155 0.9995
vn -1 0.000166893 0
vt 0.879762 0.00049901
vn -1 0.000166893 0
vt 0.934657 0.00049901
vn -1 0.000166893 0
vt 0.934657 0.9995
vn -1 0.000166893 0
vt 0.879762 0.9995
vn 0 1 0
vt 0.301833 -0.203351
vn 0 1 0
vt 0.301833 -0.305022
vn 0 1 0
vt 0.697559 -0.305022
vn 0 1 0
vt 0.697559 -0.203351
vn 0 0 1
vt 0.295056 -0.023744
vn 0 0 1
vt 0.294604 -0.075852
vn 0 0 1
vt 0.705394 -0.075852
vn 0 0 1
vt 0.704981 -0.023744
vn 0 0 -1
vt 0.705396 -0.075852
vn 0 0 -1
vt 0.704944 -0.023744
vn 0 0 -1
vt 0.295019 -0.023744
vn 0 0 -1
vt 0.294606 -0.075852
vn 0 1 0
vt 0.295056 -0.229414
vn 0 1 0
vt 0.295056 -0.27896
vn 0 1 0
vt 0.704981 -0.27896
vn 0 1 0
vt 0.704981 -0.229414
vn 0 0 1
vt 0.295056 0.166796
vn 0 0 1
vt 0.294604 0.114688
vn 0 0 1
vt 0.705394 0.114688
vn 0 0 1
vt 0.704981 0.166796
vn 0 0 -1
vt 0.705396 0.114688
vn 0 0 -1
vt 0.704944 0.166796
vn 0 0 -1
vt 0.295019 0.166796
vn 0 0 -1
vt 0.294606 0.114688
vn 0 1 0
vt 0.295056 -0.229414
vn 0 1 0
vt 0.295056 -0.27896
vn 0 1 0
vt 0.704981 -0.27896
vn 0 1 0
vt 0.704981 -0.229414
vn 0 0 1
vt 0.295056 0.361897
vn 0 0 1
vt 0.294604 0.309789
vn 0 0 1
vt 0.705394 0.309789
vn 0 0 1
vt 0.704981 0.361897
vn 0 0 -1
vt 0.705396 0.309789
vn 0 0 -1
vt 0.704944 0.361897
vn 0 0 -1
vt 0.295019 0.361897
vn 0 0 -1
vt 0.294606 0.309789
vn 0 1 0
vt 0.295056 -0.229414
vn 0 1 0
vt 0.295056 -0.27896
vn 0 1 0
vt 0.704981 -0.27896
vn 0 1 0
vt 0.704981 -0.229414
vn 0 0 1
vt 0.295056 0.552437
vn 0 0 1
vt 0.294604 0.500329
vn 0 0 1
vt 0.705394 0.500329
vn 0 0 1
vt 0.704981 0.552437
vn 0 0 -1
vt 0.705396 0.500329
vn 0 0 -1
vt 0.704944 0.552437
vn 0 0 -1
vt 0.295019 0.552437
vn 0 0 -1
vt 0.294606 0.500329
vn 0 1 0
vt 0.295056 -0.229414
vn 0 1 0
vt 0.295056 -0.27896
vn 0 1 0
vt 0.704981 -0.27896
vn 0 1 0
vt 0.704981 -0.229414
vn 0 0 1
vt 0.295056 0.747839
vn 0 0 1
vt 0.294604 0.695731
vn 0 0 1
vt 0.705394 0.695731
vn 0 0 1
vt 0.704981 0.747839
vn 0 0 -1
vt 0.705396 0.695731
vn 0 0 -1
vt 0.704944 0.747839
vn 0 0 -1
vt 0.295019 0.747839
vn 0 0 -1
vt 0.294606 0.695731
vn 0 1 0
vt 0.295056 -0.229414
vn 0 1 0
vt 0.295056 -0.27896
vn 0 1 0
vt 0.704981 -0.27896
vn 0 1 0
vt 0.704981 -0.229414
vn 0 0 1
vt 0.295056 0.938379
vn 0 0 1
vt 0.294604 0.886271
vn 0 0 1
vt 0.705394 0.886271
vn 0 0 1
vt 0.704981 0.938379
vn 0 0 -1
vt 0.705396 0.886271
vn 0 0 -1
vt 0.704944 0.938379
vn 0 0 -1
vt 0.295019 0.938379
vn 0 0 -1
vt 0.294606 0.886271
vn 0 1 0
vt 0.295056 -0.229414
vn 0 1 0
vt 0.295056 -0.27896
vn 0 1 0
vt 0.704981 -0.27896
vn 0 1 0
vt 0.704981 -0.229414
vn 0 0 1
vt 0.295056 1.13348
vn 0 0 1
vt 0.294604 1.08137
vn 0 0 1
vt 0.705394 1.08137
vn 0 0 1
vt 0.704981 1.13348
vn 0 0 -1
vt 0.705396 1.08137
vn 0 0 -1
vt 0.704944 1.13348
vn 0 0 -1
vt 0.295019 1.13348
vn 0 0 -1
vt 0.294606 1.08137
vn 0 1 0
vt 0.295056 -0.229414
vn 0 1 0
vt 0.295056 -0.27896
vn 0 1 0
vt 0.704981 -0.27896
vn 0 1 0
vt 0.704981 -0.229414
vn 0 0 1
vt 0.295056 1.32402
vn 0 0 1
vt 0.294604 1.27191
vn 0 0 1
vt 0.705394 1.27191
vn 0 0 1
vt 0.704981 1.32402
vn 0 0 -1
vt 0.705396 1.27191
vn 0 0 -1
vt 0.704944 1.32402
vn 0 0 -1
vt 0.295019 1.32402
vn 0 0 -1
vt 0.294606 1.27191
vn 0 1 0
vt 0.295056 -0.229414
vn 0 1 0
vt 0.295056 -0.27896
vn 0 1 0
vt 0.704981 -0.27896
vn 0 1 0
vt 0.704981 -0.229414
vn 0 0 1
vt 0.603005 0.060591
vn 0 0 1
vt 0.655762 0.000500023
vn 0 0 1
vt 0.655836 0.9995
vn 0 0 1
vt 0.60301 0.9995
vn 0 0 -1
vt 0.655762 0.000500023
vn 0 0 -1
vt 0.603005 0.060591
vn 0 0 -1
vt 0.60301 0.9995
vn 0 0 -1
vt 0.655836 0.9995
vn -1 4.76837e-06 0
vt 0.065343 0.060591
vn -1 4.76837e-06 0
vt 0.120238 0.060591
vn -1 4.76837e-06 0
vt 0.120238 0.9995
vn -1 4.76837e-06 0
vt 0.065343 0.9995
vn 0 0 1
vt 0.352165 0.000500023
vn 0 0 1
vt 0.405277 0.060591
vn 0 0 1
vt 0.405155 0.9995
vn 0 0 1
vt 0.352329 0.9995
vn 1 0.000135422 0
vt 0.120238 0.060591
vn 1 0.000135422 0
vt 0.065343 0.060591
vn 1 0.000135422 0
vt 0.065343 0.999501
vn 1 0.000135422 0
vt 0.120238 0.999501
vn 0 0 -1
vt 0.405277 0.060591
vn 0 0 -1
vt 0.352165 0.000500023
vn 0 0 -1
vt 0.352329 0.9995
vn 0 0 -1
vt 0.405155 0.9995
vn -1 0.000166893 0
vt 0.065343 0.00049901
vn -1 0.000166893 0
vt 0.120238 0.00049901
vn -1 0.000166893 0
vt 0.120238 0.999501
vn -1 0.000166893 0
vt 0.065343 0.999501
vn 0 1 -2.86102e-06
vt 0.301834 1.30502
vn 0 1 -2.86102e-06
vt 0.301834 1.20335
vn 0 1 -2.86102e-06
vt 0.69756 1.20335
vn 0 1 -2.86102e-06
vt 0.69756 1.30502
vn 0 0 1
vt 0.295057 -0.023744
vn 0 0 1
vt 0.294605 -0.075852
vn 0 0 1
vt 0.705395 -0.075852
vn 0 0 1
vt 0.704982 -0.023744
vn 0 0 -1
vt 0.705395 -0.075852
vn 0 0 -1
vt 0.704943 -0.023744
vn 0 0 -1
vt 0.295018 -0.023744
vn 0 0 -1
vt 0.294605 -0.075852
vn 0 1 -5.24521e-06
vt 0.295057 1.27896
vn 0 1 -5.24521e-06
vt 0.295057 1.22941
vn 0 1 -5.24521e-06
vt 0.704982 1.22941
vn 0 1 -5.24521e-06
vt 0.704982 1.27896
vn 0 0 1
vt 0.295057 0.166796
vn 0 0 1
vt 0.294605 0.114688
vn 0 0 1
vt 0.705395 0.114688
vn 0 0 1
vt 0.704982 0.166796
vn 0 0 -1
vt 0.705395 0.114688
vn 0 0 -1
vt 0.704943 0.166796
vn 0 0 -1
vt 0.295018 0.166796
vn 0 0 -1
vt 0.294605 0.114688
vn 0 1 -5.24521e-06
vt 0.295057 1.27896
vn 0 1 -5.24521e-06
vt 0.295057 1.22941
vn 0 1 -5.24521e-06
vt 0.704982 1.22941
vn 0 1 -5.24521e-06
vt 0.704982 1.27896
vn 0 0 1
vt 0.295057 0.361897
vn 0 0 1
vt 0.294605 0.309789
vn 0 0 1
vt 0.705395 0.309789
vn 0 0 1
vt 0.704982 0.361897
vn 0 0 -1
vt 0.705395 0.309789
vn 0 0 -1
vt 0.704943 0.361897
vn 0 0 -1
vt 0.295018 0.361897
vn 0 0 -1
vt 0.294605 0.309789
vn 0 1 0
vt 0.295057 1.27896
vn 0 1 0
vt 0.295057 1.22941
vn 0 1 0
vt 0.704982 1.22941
vn 0 1 0
vt 0.704982 1.27896
vn 0 0 1
vt 0.295057 0.552437
vn 0 0 1
vt 0.294605 0.500329
vn 0 0 1
vt 0.705395 0.500329
vn 0 0 1
vt 0.704982 0.552437
vn 0 0 -1
vt 0.705395 0.500329
vn 0 0 -1
vt 0.704943 0.552437
vn 0 0 -1
vt 0.295018 0.552437
vn 0 0 -1
vt 0.294605 0.500329
vn 0 1 0
vt 0.295057 1.27896
vn 0 1 0
vt 0.295057 1.22941
vn 0 1 0
vt 0.704982 1.22941
vn 0 1 0
vt 0.704982 1.27896
vn 0 0 1
vt 0.295057 0.747839
vn 0 0 1
vt 0.294605 0.695731
vn 0 0 1
vt 0.705395 0.695731
vn 0 0 1
vt 0.704982 0.747839
vn 0 0 -1
vt 0.705395 0.695731
vn 0 0 -1
vt 0.704943 0.747839
vn 0 0 -1
vt 0.295018 0.747839
vn 0 0 -1
vt 0.294605 0.695731
vn 0 1 0
vt 0.295057 1.27896
vn 0 1 0
vt 0.295057 1.22941
vn 0 1 0
vt 0.704982 1.22941
vn 0 1 0
vt 0.704982 1.27896
vn 0 0 1
vt 0.295057 0.938379
vn 0 0 1
vt 0.294605 0.886271
vn 0 0 1
vt 0.705395 0.886271
vn 0 0 1
vt 0.704982 0.938379
vn 0 0 -1
vt 0.705395 0.886271
vn 0 0 -1
vt 0.704943 0.938379
vn 0 0 -1
vt 0.295018 0.938379
vn 0 0 -1
vt 0.294605 0.886271
vn 0 1 0
vt 0.295057 1.27896
vn 0 1 0
vt 0.295057 1.22941
vn 0 1 0
vt 0.704982 1.22941
vn 0 1 0
vt 0.704982 1.27896
vn 0 0 1
vt 0.295057 1.13348
vn 0 0 1
vt 0.294605 1.08137
vn 0 0 1
vt 0.705395 1.08137
vn 0 0 1
vt 0.704982 1.13348
vn 0 0 -1
vt 0.705395 1.08137
vn 0 0 -1
vt 0.704943 1.13348
vn 0 0 -1
vt 0.295018 1.13348
vn 0 0 -1
vt 0.294605 1.08137
vn 0 1 0
vt 0.295057 1.27896
vn 0 1 0
vt 0.295057 1.22941
vn 0 1 0
vt 0.704982 1.22941
vn 0 1 0
vt 0.704982 1.27896
vn 0 0 1
vt 0.295057 1.32402
vn 0 0 1
vt 0.294605 1.27191
vn 0 0 1
vt 0.705395 1.27191
vn 0 0 1
vt 0.704982 1.32402
vn 0 0 -1
vt 0.705395 1.27191
vn 0 0 -1
vt 0.704943 1.32402
vn 0 0 -1
vt 0.295018 1.32402
vn 0 0 -1
vt 0.294605 1.27191
vn 0 1 0
vt 0.295057 1.27896
vn 0 1 0
vt 0.295057 1.22941
vn 0 1 0
vt 0.704982 1.22941
vn 0 1 0
vt 0.704982 1.27896
vn -1 0 0
vt 0.299105 0.9995
vn -1 0 0
vt 0.239782 0.916951
vn -1 0 0
vt 0.511665 0.915779
vn 1 0 1.43051e-05
vt 0.239782 0.000519991
vn 1 -4.76837e-07 1.43051e-05
vt 0.239782 0.916951
vn 1 -4.76837e-07 1.43051e-05
vt 0.511665 0.915779
vn 1 0 1.43051e-05
vt 0.511665 0.000519991
vn -1 0 0
vt 0.239782 0.000519991
vn -1 0 0
vt 0.511665 0.000519991
vn 0 0 1
vt 0.848128 0.000500023
vn 0 0 1
vt 0.848128 0.999501
vn 0 0 1
vt 0.762307 0.919879
vn 0 0 1
vt 0.762307 0.000500023
vn 0 0 1
vt 0.151872 0.999501
vn 0 0 1
vt 0.237693 0.919879
vn 0 0 1
vt 0.151872 0.000500023
vn 0 0 1
vt 0.237693 0.000500023
vn -1 0 0
vt 0.511665 0.000519991
vn -1 0 0
vt 0.511665 0.842832
vn -1 0 0
vt 0.431276 0.842832
vn -1 0 0
vt 0.431276 0.000519991
vn 1 0 0
vt 0.511665 0.842832
vn 1 0 0
vt 0.511665 0.000519991
vn 1 0 0
vt 0.431276 0.000519991
vn 1 0 0
vt 0.431276 0.842832
vn 0.00115871 0.647157 0.762356
vt 0.15658 0.128099
vn 0.00108957 0.781063 0.624452
vt 0.232986 0.128011
vn 0.00146818 0.616148 0.787629
vt 0.232985 0.203711
vn 0.00198698 0.713484 0.700668
vt 0.15658 0.203887
vn -1 0 0
vt 0.510186 0.000540018
vn -1 0 0
vt 0.633346 0.117423
vn -1 0 0
vt 0.584103 0.186858
vn -1 0 0
vt 0.510186 0.233619
vn 1 0 0
vt 0.510186 0.000500023
vn 1 0 0
vt 0.633346 0.117343
vn 1 0 0
vt 0.633346 0.000519991
vn 0.00222778 0.799504 0.600657
vt 0.232986 0.25475
vn 0.00223351 0.799501 0.60066
vt 0.15658 0.254926
vn 0.000329971 0.470313 0.882499
vt 0.156579 0.000500023
vn 0 0.470486 0.882408
vt 0.232985 0.000500023
vn 0.000589848 0.601082 0.799187
vt 0.232985 0.094717
vn 0.00105047 0.750938 0.660372
vt 0.156579 0.094805
vn -1 0 0
vt 0.633346 0.000519991
vn 1 0 0
vt 0.510186 0.233458
vn 1 0 0
vt 0.584103 0.186697
vn 1 0 0
vt 0.705553 0.08684
vn 1 0 0
vt 0.760218 0.000519991
vn -1 0 0
vt 0.760218 0.000519991
vn -1 0 0
vt 0.705553 0.08692
vn 0.00115871 0.647157 0.762356
vt 0.765319 0.128099
vn 0.00108957 0.781063 0.624452
vt 0.841725 0.128011
vn 0.00146818 0.616148 0.787629
vt 0.841725 0.203711
vn 0.00198698 0.713484 0.700668
vt 0.765319 0.203887
vn -1 0 0
vt 0.510186 0.000540018
vn -1 0 0
vt 0.633346 0.117423
vn -1 0 0
vt 0.584103 0.186858
vn -1 0 0
vt 0.510186 0.233619
vn 1 0 0
vt 0.510186 0.00049901
vn 1 0 0
vt 0.633346 0.117343
vn 1 0 0
vt 0.633346 0.000519991
vn 0.00222778 0.799504 0.600657
vt 0.841725 0.25475
vn 0.00223351 0.799501 0.60066
vt 0.765319 0.254926
vn -0.821725 0.268024 0.502922
vt 0.765318 0.000500023
vn 0 0.470486 0.882408
vt 0.841725 0.000500023
vn 0.000589848 0.601082 0.799187
vt 0.841725 0.094717
vn 0.00105047 0.750938 0.660372
vt 0.765318 0.094805
vn -1 0 0
vt 0.633346 0.000519991
vn 1 0 0
vt 0.510186 0.233458
vn 1 0 0
vt 0.584103 0.186697
vn 1 0 0
vt 0.705553 0.08684
vn 1 0 0
vt 0.760218 0.000519991
vn -1 0 0
vt 0.705553 0.08692
vn 0 -0.118459 -0.992959
vt 1.38084 0.874936
vn 0 -0.0349789 -0.999388
vt -0.380844 0.874936
vn 0 -0.51769 -0.855568
vt -0.380844 0.967416
vn 0 -0.51769 -0.855568
vt 1.38084 0.967416
vn 0 -0.517694 0.855566
vt 0.501768 0.967416
vn 0 -0.0660286 0.997818
vt 0.501768 0.874936
vn 0 -0.0660286 0.997818
vt 1.38084 0.874936
vn 0 -0.517694 0.855566
vt 1.38084 0.967416
vn 0 -0.0660286 0.997818
vt 0.049138 0.874936
vn 0 -0.517694 0.855566
vt 0.049138 0.967416
vn 0 -0.517694 0.855566
vt -0.380844 0.967416
vn 0 -0.0660286 0.997818
vt -0.380844 0.874936
vn 0 0 1
vt -0.380844 0.121778
vn 0 0 1
vt 0.049138 0.121778
vn 1 -8.58307e-06 1.43051e-05
vt 0.299105 0.9995
vn 0 0 -1
vt 1.38084 0.121778
vn 0 0 -1
vt -0.380844 0.121778
vn 0 0 1
vt 0.501768 0.121778
vn 0 0 1
vt 1.38084 0.121778
vn -1 0 0
vt 0.521154 0.301866
vn -1 0 0
vt 0.486956 0.301866
vn -1 0 0
vt 0.017833 0.911274
vn -1 0 0
vt 0.990277 0.911274
vn -1 0 0
vt -0.019475 1.00065
vn -1 0 0
vt 1.02759 1.00065
vn -1 0 0
vt 1.06499 0.911281
vn -1 0 0
vt -0.056877 0.911281
vn 1 0 0
vt 0.486956 0.301866
vn 1 0 0
vt 0.017833 0.911274
vn 1 0 0
vt 0.990277 0.911274
vn 1 0 0
vt 0.521154 0.301866
vn 1 0 1.90735e-06
vt 1.02759 1.00065
vn 1 1.43051e-06 1.90735e-06
vt 1.06499 0.911281
vn 1 0 1.90735e-06
vt -0.056877 0.911281
vn 1 -1.43051e-06 1.90735e-06
vt -0.019475 1.00065
f 1/1/1 2/2/2 3/3/3
f 3/3/3 4/4/4 1/1/1
f 5/5/5 1/1/1 4/4/4
f 4/4/4 6/6/6 5/5/5
f 7/7/7 5/5/5 6/6/6
f 6/6/6 8/8/8 7/7/7
f 2/2/2 7/7/7 8/8/8
f 8/8/8 3/3/3 2/2/2
f 9/9/9 10/10/10 2/11/11
f 2/11/11 1/12/12 9/9/9
f 11/13/13 9/14/14 1/15/15
f 1/15/15 5/16/16 11/13/13
f 10/17/17 12/18/18 7/19/19
f 7/19/19 2/20/20 10/17/17
f 6/21/21 4/22/22 13/23/23
f 13/23/23 14/24/24 6/21/21
f 15/25/25 8/26/26 16/27/27
f 16/27/27 17/28/28 15/25/25
f 15/25/25 18/29/29 3/30/30
f 3/30/30 8/26/26 15/25/25
f 6/21/21 14/24/24 19/31/31
f 19/31/31 20/32/32 6/21/21
f 14/33/33 13/34/34 21/35/35
f 21/35/35 22/36/36 14/33/33
f 19/37/37 14/33/33 22/36/36
f 22/36/36 23/38/38 19/37/37
f 15/39/39 17/40/40 24/41/41
f 24/41/41 25/42/42 15/39/39
f 18/43/43 15/39/39 25/42/42
f 25/42/42 26/44/44 18/43/43
f 27/45/45 28/46/46 29/47/47
f 29/47/47 30/48/48 27/45/45
f 31/49/49 32/50/50 28/46/46
f 28/46/46 27/45/45 31/49/49
f 33/51/51 34/52/52 32/50/50
f 32/50/50 31/49/49 33/51/51
f 30/48/48 29/47/47 34/52/52
f 34/52/52 33/51/51 30/48/48
f 35/53/53 27/54/54 30/55/55
f 30/55/55 36/56/56 35/53/53
f 37/57/57 31/58/58 27/59/59
f 27/59/59 35/60/60 37/57/57
f 36/61/61 30/62/62 33/63/63
f 33/63/63 38/64/64 36/61/61
f 32/65/65 39/66/66 40/67/67
f 40/67/67 28/68/68 32/65/65
f 41/69/69 42/70/70 43/71/71
f 43/71/71 34/72/72 41/69/69
f 41/69/69 34/72/72 29/73/73
f 29/73/73 44/74/74 41/69/69
f 32/65/65 45/75/75 46/76/76
f 46/76/76 39/66/66 32/65/65
f 39/77/77 47/78/78 48/79/79
f 48/79/79 40/80/80 39/77/77
f 46/81/81 49/82/82 47/78/78
f 47/78/78 39/77/77 46/81/81
f 41/83/83 50/84/84 51/85/85
f 51/85/85 42/86/86 41/83/83
f 44/87/87 52/88/88 50/84/84
f 50/84/84 41/83/83 44/87/87
f 53/89/89 54/90/90 55/91/91
f 55/91/91 56/92/92 53/89/89
f 57/93/93 58/94/94 59/95/95
f 59/95/95 60/96/96 57/93/93
f 58/97/97 53/98/98 56/99/99
f 56/99/99 59/100/100 58/97/97
f 61/101/101 62/102/102 63/103/103
f 63/103/103 64/104/104 61/101/101
f 62/105/105 65/106/106 66/107/107
f 66/107/107 63/108/108 62/105/105
f 65/109/109 67/110/110 68/111/111
f 68/111/111 66/112/112 65/109/109
f 67/113/113 61/114/114 64/115/115
f 64/115/115 68/116/116 67/113/113
f 62/102/102 61/101/101 54/90/90
f 54/90/90 53/89/89 62/102/102
f 67/110/110 65/109/109 58/94/94
f 58/94/94 57/93/93 67/110/110
f 65/117/117 62/118/118 53/119/119
f 53/119/119 58/120/120 65/117/117
f 69/121/121 70/122/122 71/123/123
f 71/123/123 72/124/124 69/121/121
f 73/125/125 74/126/126 75/127/127
f 75/127/127 76/128/128 73/125/125
f 74/129/129 69/130/130 72/131/131
f 72/131/131 75/132/132 74/129/129
f 77/133/133 78/134/134 79/135/135
f 79/135/135 80/136/136 77/133/133
f 81/137/137 82/138/138 83/139/139
f 83/139/139 84/140/140 81/137/137
f 82/141/141 77/142/142 80/143/143
f 80/143/143 83/144/144 82/141/141
f 85/145/145 86/146/146 87/147/147
f 87/147/147 88/148/148 85/145/145
f 89/149/149 90/150/150 91/151/151
f 91/151/151 92/152/152 89/149/149
f 90/153/153 85/154/154 88/155/155
f 88/155/155 91/156/156 90/153/153
f 93/157/157 94/158/158 95/159/159
f 95/159/159 96/160/160 93/157/157
f 97/161/161 98/162/162 99/163/163
f 99/163/163 100/164/164 97/161/161
f 98/165/165 93/166/166 96/167/167
f 96/167/167 99/168/168 98/165/165
f 101/169/169 102/170/170 103/171/171
f 103/171/171 104/172/172 101/169/169
f 105/173/173 106/174/174 107/175/175
f 107/175/175 108/176/176 105/173/173
f 106/177/177 101/178/178 104/179/179
f 104/179/179 107/180/180 106/177/177
f 109/181/181 110/182/182 111/183/183
f 111/183/183 112/184/184 109/181/181
f 113/185/185 114/186/186 115/187/187
f 115/187/187 116/188/188 113/185/185
f 114/189/189 109/190/190 112/191/191
f 112/191/191 115/192/192 114/189/189
f 117/193/193 118/194/194 119/195/195
f 119/195/195 120/196/196 117/193/193
f 121/197/197 122/198/198 123/199/199
f 123/199/199 124/200/200 121/197/197
f 122/201/201 117/202/202 120/203/203
f 120/203/203 123/204/204 122/201/201
f 125/205/205 126/206/206 127/207/207
f 127/207/207 128/208/208 125/205/205
f 129/209/209 130/210/210 131/211/211
f 131/211/211 132/212/212 129/209/209
f 130/213/213 125/214/214 128/215/215
f 128/215/215 131/216/216 130/213/213
f 133/217/217 134/218/218 135/219/219
f 135/219/219 136/220/220 133/217/217
f 137/221/221 138/222/222 139/223/223
f 139/223/223 140/224/224 137/221/221
f 138/225/225 133/226/226 136/227/227
f 136/227/227 139/228/228 138/225/225
f 141/229/229 142/230/230 143/231/231
f 143/231/231 144/232/232 141/229/229
f 142/233/233 145/234/234 146/235/235
f 146/235/235 143/236/236 142/233/233
f 145/237/237 147/238/238 148/239/239
f 148/239/239 146/240/240 145/237/237
f 147/241/241 141/242/242 144/243/243
f 144/243/243 148/244/244 147/241/241
f 142/230/230 141/229/229 134/218/218
f 134/218/218 133/217/217 142/230/230
f 147/238/238 145/237/237 138/222/222
f 138/222/222 137/221/221 147/238/238
f 145/245/245 142/246/246 133/247/247
f 133/247/247 138/248/248 145/245/245
f 149/249/249 150/250/250 151/251/251
f 151/251/251 152/252/252 149/249/249
f 153/253/253 154/254/254 155/255/255
f 155/255/255 156/256/256 153/253/253
f 154/257/257 149/258/258 152/259/259
f 152/259/259 155/260/260 154/257/257
f 157/261/261 158/262/262 159/263/263
f 159/263/263 160/264/264 157/261/261
f 161/265/265 162/266/266 163/267/267
f 163/267/267 164/268/268 161/265/265
f 162/269/269 157/270/270 160/271/271
f 160/271/271 163/272/272 162/269/269
f 165/273/273 166/274/274 167/275/275
f 167/275/275 168/276/276 165/273/273
f 169/277/277 170/278/278 171/279/279
f 171/279/279 172/280/280 169/277/277
f 170/281/281 165/282/282 168/283/283
f 168/283/283 171/284/284 170/281/281
f 173/285/285 174/286/286 175/287/287
f 175/287/287 176/288/288 173/285/285
f 177/289/289 178/290/290 179/291/291
f 179/291/291 180/292/292 177/289/289
f 178/293/293 173/294/294 176/295/295
f 176/295/295 179/296/296 178/293/293
f 181/297/297 182/298/298 183/299/299
f 183/299/299 184/300/300 181/297/297
f 185/301/301 186/302/302 187/303/303
f 187/303/303 188/304/304 185/301/301
f 186/305/305 181/306/306 184/307/307
f 184/307/307 187/308/308 186/305/305
f 189/309/309 190/310/310 191/311/311
f 191/311/311 192/312/312 189/309/309
f 193/313/313 194/314/314 195/315/315
f 195/315/315 196/316/316 193/313/313
f 194/317/317 189/318/318 192/319/319
f 192/319/319 195/320/320 194/317/317
f 197/321/321 198/322/322 199/323/323
f 199/323/323 200/324/324 197/321/321
f 201/325/325 202/326/326 203/327/327
f 203/327/327 204/328/328 201/325/325
f 202/329/329 197/330/330 200/331/331
f 200/331/331 203/332/332 202/329/329
f 205/333/333 206/334/334 207/335/335
f 207/335/335 208/336/336 205/333/333
f 209/337/337 210/338/338 211/339/339
f 211/339/339 212/340/340 209/337/337
f 210/341/341 205/342/342 208/343/343
f 208/343/343 211/344/344 210/341/341
f 213/345/345 214/346/346 215/347/347
f 216/348/348 217/349/349 218/350/350
f 218/350/350 219/351/351 216/348/348
f 214/346/346 220/352/352 221/353/353
f 221/353/353 215/347/347 214/346/346
f 219/354/354 218/355/355 222/356/356
f 222/356/356 223/357/357 219/354/354
f 218/355/355 215/358/358 224/359/359
f 224/359/359 222/356/356 218/355/355
f 215/358/358 221/360/360 225/361/361
f 225/361/361 224/359/359 215/358/358
f 223/362/362 222/363/363 226/364/364
f 226/364/364 227/365/365 223/362/362
f 224/366/366 225/367/367 228/368/368
f 228/368/368 229/369/369 224/366/366
f 230/370/370 231/371/371 232/372/372
f 232/372/372 233/373/373 230/370/370
f 234/374/374 230/375/375 233/376/376
f 233/376/376 235/377/377 234/374/374
f 236/378/378 231/379/379 237/380/380
f 238/381/381 235/382/382 233/373/373
f 233/373/373 232/372/372 238/381/381
f 239/383/383 240/384/384 241/385/385
f 241/385/385 242/386/386 239/383/383
f 234/374/374 243/387/387 230/375/375
f 238/388/388 232/389/389 231/379/379
f 231/379/379 236/378/378 238/388/388
f 237/380/380 231/379/379 241/390/390
f 241/390/390 240/391/391 237/380/380
f 231/371/371 230/370/370 242/386/386
f 242/386/386 241/385/385 231/371/371
f 230/375/375 243/387/387 239/392/392
f 239/392/392 242/393/393 230/375/375
f 244/394/394 245/395/395 246/396/396
f 246/396/396 247/397/397 244/394/394
f 248/398/398 244/399/399 247/400/400
f 247/400/400 249/401/401 248/398/398
f 250/402/402 245/403/403 251/404/404
f 252/405/405 249/406/406 247/397/397
f 247/397/397 246/396/396 252/405/405
f 253/407/407 254/408/408 255/409/409
f 255/409/409 256/410/410 253/407/407
f 248/398/398 257/411/411 244/399/399
f 252/412/412 246/413/413 245/403/403
f 245/403/403 250/402/402 252/412/412
f 251/404/404 245/403/403 255/414/414
f 255/414/414 254/415/415 251/404/404
f 245/395/395 244/394/394 256/410/410
f 256/410/410 255/409/409 245/395/395
f 244/399/399 257/411/411 253/407/407
f 253/407/407 256/416/416 244/399/399
f 50/417/417 25/418/418 24/419/419
f 24/419/419 51/420/420 50/417/417
f 258/421/421 217/422/422 47/423/423
f 47/423/423 49/424/424 258/421/421
f 214/425/425 213/426/426 23/427/427
f 23/427/427 22/428/428 214/425/425
f 259/429/429 260/430/430 214/425/425
f 214/425/425 22/428/428 259/429/429
f 217/349/349 258/431/431 218/350/350
f 25/418/418 50/417/417 261/432/432
f 261/432/432 262/433/433 25/418/418
f 47/423/423 217/422/422 263/434/434
f 263/434/434 264/435/435 47/423/423
f 265/436/436 266/437/437 267/438/438
f 267/438/438 268/439/439 265/436/436
f 8/440/440 6/441/441 20/442/442
f 20/442/442 16/443/443 8/440/440
f 269/444/444 270/445/445 271/446/446
f 271/446/446 272/447/447 269/444/444
f 34/448/448 43/449/449 45/450/450
f 45/450/450 32/451/451 34/448/448
