#
# Exported by OpenBRF -- marco tarini
#
s fysg_fanzi07.
newmtl fysg_cheng_chuang01
Ka 0.8 0.8 0.8
Kd 0.2 0.2 0.2
usemtl fysg_cheng_chuang01
v 0.543762 6.70654 16.1902
v 0.537282 6.70654 8.05973
v 0.537282 3.93652 8.05973
v 0.543762 3.93652 16.1902
v -5.08885 6.70654 8.06421
v -5.08237 6.70654 16.1947
v -5.08885 3.93652 8.06421
v -5.08237 3.93652 16.1947
vn 1 0 -0.000796996
vt 3.03753 0.018066
vn 1 0 -0.000796996
vt 3.03753 0.992574
vn 1 0 -0.000796996
vt -1.04714 0.992574
vn 1 0 -0.000796996
vt -1.04713 0.018066
vn -1 0 0.000797026
vt 1.9904 0.00696999
vn -1 0 0.000797026
vt -2.01039 0.992574
vn -1 0 0.000797026
vt 1.9904 0.992574
vn -1 0 0.000797026
vt -2.01039 0.00696999
f 3/1/1 2/2/2 1/3/3
f 1/3/3 4/4/4 3/1/1
f 7/5/5 6/6/6 5/7/7
f 6/6/6 7/5/5 8/8/8
