#
# Exported by OpenBRF -- marco tarini
#
s fysg_chengqiang02
newmtl fysg_chengmeng02
Ka 0.8 0.8 0.8
Kd 0.2 0.2 0.2
usemtl fysg_chengmeng02
v 14.9645 15.4904 -3.45383
v -14.9458 15.4179 -3.35406
v -14.9081 0.215315 -3.34343
v 14.9975 0.287381 -3.44437
v 15.0043 15.499 6.43401
v 15.0393 0.293933 6.44354
v -14.8769 0.222074 6.54039
v -14.912 15.4251 6.53153
v 14.9095 15.45 -2.98573
v -14.894 15.45 -2.89437
v 14.905 15.45 -3.36875
v -14.8985 15.45 -3.27739
v 14.9095 16.3847 -2.98573
v -14.894 16.3847 -2.89437
v 14.905 16.3847 -3.36875
v -14.8985 16.3847 -3.27739
vn -0.00335383 -0.000668524 -0.999994
vt 1.88648 0
vn -0.00333391 -0.00070748 -0.999994
vt 1.88648 1
vn -0.00335383 -0.000668524 -0.999994
vt -2.623 1
vn -0.00337375 -0.000629562 -0.999994
vt -2.623 0
vn 0.00324706 0.000612261 0.999995
vt -2.623 0
vn 0.00323583 0.000634214 0.999995
vt 1.88648 0
vn 0.00324706 0.000612261 0.999995
vt 1.88648 1
vn 0.00325828 0.000590305 0.999995
vt -2.623 1
vn -0.00244966 0.999997 -0.000789907
vt -1.79985 0.389832
vn -0.00242632 0.999997 -0.000720059
vt 2.79985 0.389832
vn -0.00244966 0.999997 -0.000789907
vt 2.79985 0.842114
vn -0.002473 0.999997 -0.000859725
vt -1.79985 0.842114
vn 0.00333391 0.00070748 0.999994
vt 1.88648 1
vn 0.00335383 0.000668524 0.999994
vt 1.88648 0
vn 0.00335383 0.000668524 0.999994
vt -2.623 1
vn 0.00337375 0.000629562 0.999994
vt -2.623 0
vn -0.00323583 -0.000634214 -0.999995
vt 1.88648 0
vn -0.00324706 -0.000612261 -0.999995
vt -2.623 0
vn -0.00324706 -0.000612261 -0.999995
vt 1.88648 1
vn -0.00325828 -0.000590305 -0.999995
vt -2.623 1
vn 0.00242632 -0.999997 0.000720059
vt 2.79985 0.389832
vn 0.00244966 -0.999997 0.000789907
vt -1.79985 0.389832
vn 0.00244966 -0.999997 0.000789907
vt 2.79985 0.842114
vn 0.002473 -0.999997 0.000859725
vt -1.79985 0.842114
vn 0 1 0
vt 3.29633 0.724478
vn 0 1 0
vt 3.29633 0.642922
vn 0 1 0
vt 0 0.669036
vn 0 1 0
vt 0 0.750592
vn 0.00306543 0 0.999995
vt 3.29633 0.642922
vn 0.00306543 0 0.999995
vt 0 0.669036
vn 0.00306543 0 0.999995
vt 0 0.750592
vn 0.00306543 0 0.999995
vt 3.29633 0.724478
vn -0.999931 0 0.011749
vt 3.29633 0.642922
vn -0.999931 0 0.011749
vt 0 0.669036
vn -0.999931 0 0.011749
vt 0 0.750592
vn -0.999931 0 0.011749
vt 3.29633 0.724478
vn -0.00306543 0 -0.999995
vt 3.29633 0.724478
vn -0.00306543 0 -0.999995
vt 3.29633 0.642922
vn -0.00306543 0 -0.999995
vt 0 0.669036
vn -0.00306543 0 -0.999995
vt 0 0.750592
vn 0.999931 0 -0.011749
vt 0 0.669036
vn 0.999931 0 -0.011749
vt 0 0.750592
vn 0.999931 0 -0.011749
vt 3.29633 0.724478
vn 0.999931 0 -0.011749
vt 3.29633 0.642922
f 3/1/1 2/2/2 1/3/3
f 1/3/3 4/4/4 3/1/1
f 7/5/5 6/6/6 5/7/7
f 5/7/7 8/8/8 7/5/5
f 1/9/9 2/10/10 8/11/11
f 8/11/11 5/12/12 1/9/9
f 2/13/13 3/14/14 1/15/15
f 4/16/16 1/15/15 3/14/14
f 6/17/17 7/18/18 5/19/19
f 8/20/20 5/19/19 7/18/18
f 2/21/21 1/22/22 8/23/23
f 5/24/24 8/23/23 1/22/22
f 16/25/25 14/26/26 13/27/27
f 16/25/25 13/27/27 15/28/28
f 10/29/29 9/30/30 13/31/31
f 10/29/29 13/31/31 14/32/32
f 12/33/33 10/34/34 14/35/35
f 12/33/33 14/35/35 16/36/36
f 15/37/37 11/38/38 12/39/39
f 15/37/37 12/39/39 16/40/40
f 11/41/41 15/42/42 13/43/43
f 11/41/41 13/43/43 9/44/44
