#
# Exported by OpenBRF -- marco tarini
#
s fysg_fanzi17.3
newmtl fysg_fanzi017
Ka 0.8 0.8 0.8
Kd 0.2 0.2 0.2
usemtl fysg_fanzi017
v 1.59123 7.63067 -4.92926
v 1.59123 7.63067 -5.13715
v -8.20886 7.63067 -5.13715
v -8.20886 7.63067 -4.92926
v 1.59123 7.26391 -4.92926
v -8.20886 7.2639 -4.92926
v -8.44413 7.70122 -4.80422
v -8.44413 7.70122 -5.26219
v -8.44413 7.19335 -5.26219
v -8.44413 7.19335 -4.80422
v -7.97359 7.19335 -4.80422
v -7.97359 7.70122 -4.80422
v -7.97359 7.70122 -5.26219
v -7.97359 7.19335 -5.26219
v -8.19948 4.16607 -6.25055
v -9.19758 3.46807 -6.25055
v -9.19758 3.46807 -3.81586
v -8.19948 4.16607 -3.81586
v -9.19758 3.34978 -6.25055
v -9.19758 3.34978 -3.81586
v -9.28027 3.43793 -3.54692
v -8.11679 4.31828 -3.54692
v -8.11679 4.31828 -3.81938
v -9.28027 3.43793 -3.81938
v -9.28027 3.28874 -3.54692
v -9.28027 3.28874 -3.81938
v -9.28027 3.43793 -6.51949
v -9.28027 3.43793 -6.24703
v -8.11679 4.31828 -6.24703
v -8.11679 4.31828 -6.51949
v -9.28027 3.28874 -6.51949
v -9.28027 3.28874 -6.24703
v -8.20886 7.2639 -5.13715
v 1.59123 7.26391 -5.13715
v 1.8265 7.70122 -4.80422
v 1.8265 7.19335 -4.80422
v 1.8265 7.19335 -5.26219
v 1.8265 7.70122 -5.26219
v 1.35594 7.70122 -4.80422
v 1.35594 7.19335 -4.80422
v 1.35594 7.70122 -5.26219
v 1.35594 7.19335 -5.26219
v -3.22987 4.62544 -2.17611
v -5.77008 4.62544 -2.17611
v -5.77008 4.10404 -1.07068
v -3.22987 4.10404 -1.07068
v -5.77008 3.99734 -1.07051
v -3.22987 3.99734 -1.07051
v -5.73364 4.68915 -2.24361
v -5.94887 4.68915 -2.24361
v -5.94887 4.12896 -1.03664
v -5.73364 4.12896 -1.03664
v -5.94887 4.49872 -2.2418
v -5.94887 3.93853 -1.03483
v -5.73364 3.93853 -1.03483
v -5.73364 4.49872 -2.2418
v -3.06535 4.68915 -2.24361
v -3.28058 4.68915 -2.24361
v -3.28058 4.12896 -1.03664
v -3.06535 4.12896 -1.03664
v -3.28058 4.49872 -2.2418
v -3.28058 3.93853 -1.03483
v -3.06535 3.93853 -1.03483
v -3.06535 4.49872 -2.2418
v -0.968896 5.90528 -3.524
v -3.47253 5.90528 -3.524
v -3.47476 4.54666 -2.0666
v -0.968896 4.54666 -2.0666
v -3.46927 5.90528 -6.58412
v -0.968559 5.90528 -6.58412
v -0.968369 4.54665 -8.01023
v -3.46818 4.54665 -8.01023
v -0.968896 7.26391 -4.92926
v -3.47037 7.26391 -4.92926
v -3.47037 7.26391 -5.13715
v -0.968749 7.26391 -5.13715
v 1.79233 5.99025 -6.22693
v 1.79233 7.27644 -5.0332
v 1.31834 7.27644 -5.0332
v 1.31834 5.99025 -6.22693
v 1.79233 4.70259 -7.69781
v 1.31834 4.70259 -7.69781
v 1.31834 4.44582 -8.27561
v 1.79233 4.44582 -8.27561
v 1.31834 7.61179 -5.0332
v 1.79233 7.61179 -5.0332
v 1.79233 6.1295 -6.37242
v 1.31834 6.1295 -6.37242
v 1.31834 4.86639 -7.81846
v 1.79233 4.86639 -7.81846
v 1.79233 4.67559 -8.30121
v 1.31834 4.67559 -8.30121
v 1.31834 4.7742 -8.70897
v 1.79233 4.7742 -8.70897
v 1.79233 4.55207 -8.81186
v 1.31834 4.55207 -8.81186
v 1.79233 5.99025 -3.83947
v 1.31834 5.99025 -3.83947
v 1.31834 4.44582 -1.7908
v 1.31834 4.7026 -2.3686
v 1.79233 4.7026 -2.3686
v 1.79233 4.44582 -1.7908
v 1.79233 6.1295 -3.69404
v 1.31834 6.1295 -3.69404
v 1.79233 4.67559 -1.7652
v 1.79233 4.86639 -2.24795
v 1.31834 4.86639 -2.24795
v 1.31834 4.67559 -1.7652
v 1.79233 4.55207 -1.25455
v 1.79233 4.7742 -1.35744
v 1.31834 4.7742 -1.35744
v 1.31834 4.55207 -1.25455
v -7.93597 7.27644 -5.0332
v -8.40997 7.27644 -5.0332
v -8.40997 5.99025 -6.22693
v -7.93597 5.99025 -6.22693
v -7.93597 4.44582 -8.27561
v -7.93597 4.70259 -7.69781
v -8.40997 4.70259 -7.69781
v -8.40997 4.44582 -8.27561
v -8.40997 6.1295 -6.37242
v -8.40997 7.61179 -5.0332
v -7.93597 7.61179 -5.0332
v -7.93597 6.1295 -6.37242
v -8.40997 4.67559 -8.30121
v -8.40997 4.86639 -7.81846
v -7.93597 4.86639 -7.81846
v -7.93597 4.67559 -8.30121
v -8.40997 4.55207 -8.81186
v -8.40997 4.7742 -8.70897
v -7.93597 4.7742 -8.70897
v -7.93597 4.55207 -8.81186
v -8.40997 5.99025 -3.83947
v -7.93597 5.99025 -3.83947
v -8.40997 4.7026 -2.3686
v -7.93597 4.7026 -2.3686
v -7.93597 4.44582 -1.7908
v -8.40997 4.44582 -1.7908
v -8.40997 6.1295 -3.69404
v -7.93597 6.1295 -3.69404
v -7.93597 4.86639 -2.24795
v -8.40997 4.86639 -2.24795
v -8.40997 4.67559 -1.7652
v -7.93597 4.67559 -1.7652
v -7.93597 4.7742 -1.35744
v -8.40997 4.7742 -1.35744
v -8.40997 4.55207 -1.25455
v -7.93597 4.55207 -1.25455
v 1.59123 4.54666 -2.0666
v 1.59123 5.90528 -3.524
v 1.59123 5.90528 -6.58412
v 1.59123 4.54665 -8.01023
v -5.92206 4.54665 -8.01023
v -8.20886 4.54665 -8.01023
v -8.20886 5.90528 -6.58412
v -5.92238 5.90528 -6.58412
v -5.9227 7.26391 -5.13715
v -5.92259 7.26391 -4.92926
v -8.20886 5.90528 -3.524
v -5.92329 5.90528 -3.524
v -8.20886 4.54666 -2.0666
v -5.92401 4.54666 -2.0666
v -5.40456 -0.00129547 -0.572344
v -3.5954 -0.00129547 -0.572344
v -3.5954 0.440801 -1.08334
v -5.40456 0.440801 -1.08334
v -3.5954 0.598704 -1.57037
v -5.40456 0.598704 -1.57037
vn 0 1 0
vt 0.838419 0.976987
vn 0 1 0
vt 0.838419 0.996695
vn 0 1 0
vt 0.665478 0.996699
vn 0 1 0
vt 0.665478 0.976991
vn 0 0 1
vt 0.993238 0.943888
vn 0 0 1
vt 0.993238 0.995029
vn 0 0 1
vt 0.504107 0.995029
vn 0 0 1
vt 0.504107 0.943888
vn -0.907368 0.420338 0
vt -0.429313 0.946182
vn -1 0 0
vt -0.409241 0.946182
vn -1 0 0
vt -0.409241 0.997589
vn -1 0 0
vt -0.429313 0.997589
vn 0 0 1
vt -0.409241 0.946182
vn 0 0 1
vt -0.409241 0.997589
vn 0 0 1
vt -0.429313 0.997589
vn 0 0 1
vt -0.429313 0.946182
vn 0 1 0
vt -0.429313 0.997589
vn 0.733551 0.679635 0
vt -0.409241 0.946182
vn 0 1 0
vt -0.409241 0.997589
vn 0 0 -1
vt -0.429313 0.997589
vn 0 0 -1
vt -0.429313 0.946182
vn 0 0 -1
vt -0.409241 0.946182
vn 0 0 -1
vt -0.409241 0.997589
vn 1 0 0
vt -0.409241 0.997589
vn 1 0 0
vt -0.429313 0.997589
vn 1 0 0
vt -0.429313 0.946182
vn -0.573098 0.819487 0
vt 0.500645 0.953358
vn -0.633085 0.774082 0
vt 0.500645 0.550556
vn -0.633084 0.774083 0
vt 0.998625 0.550556
vn -0.573098 0.819487 0
vt 0.998625 0.953358
vn -1 0 0
vt 0.500645 0.495868
vn -1 0 0
vt 0.998625 0.495868
vn -0.603389 0.797447 0
vt -0.067204 0.998187
vn -0.603389 0.797447 0
vt -0.161606 0.998187
vn -0.603389 0.797447 0
vt -0.161606 0.946277
vn -0.603389 0.797447 0
vt -0.067204 0.946277
vn -1 0 0
vt 0.991846 0.998505
vn -1 0 0
vt 0.991846 0.973603
vn -1 0 0
vt 0.99856 0.973603
vn -1 0 0
vt 0.99856 0.998505
vn -0.603389 0.797447 -9.53674e-07
vt -0.161606 0.998187
vn -0.603389 0.797447 -1.43051e-06
vt -0.161606 0.946277
vn -0.603389 0.797447 -9.53674e-07
vt -0.067204 0.946277
vn -0.603389 0.797447 0
vt -0.067204 0.998187
vn -1 0 0
vt 0.991846 0.998505
vn -1 0 0
vt 0.991846 0.973603
vn -1 0 0
vt 0.99856 0.973603
vn -1 0 0
vt 0.99856 0.998505
vn 0 0 -1
vt 0.504107 0.943888
vn 0 0 -1
vt 0.504107 0.995029
vn 0 0 -1
vt 0.993238 0.995029
vn 0 0 -1
vt 0.993238 0.943888
vn 1 0 0
vt -0.409241 0.946182
vn 1 0 0
vt -0.409241 0.997589
vn 1 0 0
vt -0.429313 0.997589
vn 1 0 0
vt -0.429313 0.946182
vn 0 0 1
vt -0.429313 0.946182
vn 0 0.874558 0.484921
vt -0.409241 0.946182
vn 0 0 1
vt -0.409241 0.997589
vn 0 0 1
vt -0.429313 0.997589
vn 0 1 0
vt -0.429313 0.997589
vn 0 0.411029 -0.911622
vt -0.429313 0.946182
vn 0 1 0
vt -0.409241 0.997589
vn 0 0 -1
vt -0.409241 0.997589
vn 0 0 -1
vt -0.429313 0.997589
vn 0 0 -1
vt -0.409241 0.946182
vn -1 0 0
vt -0.429313 0.946182
vn -1 0 0
vt -0.409241 0.946182
vn -1 0 0
vt -0.409241 0.997589
vn -1 0 0
vt -0.429313 0.997589
vn 0 0.904441 0.4266
vt 0.998846 0.930866
vn 0 0.904441 0.4266
vt 0.502237 0.930866
vn 0 0.887256 0.461277
vt 0.502236 0.555383
vn 0 0.83288 0.553453
vt 0.998845 0.555383
vn 0 0.00164747 0.999999
vt 0.502236 0.50003
vn 0 0.00164747 0.999999
vt 0.998845 0.50003
vn 0 0.907063 0.420996
vt -0.161606 0.998187
vn 0 0.907063 0.420996
vt -0.161606 0.946277
vn 0 0.907063 0.420996
vt -0.067204 0.946277
vn 0 0.907063 0.420996
vt -0.067204 0.998187
vn -1 0 0
vt -0.067204 0.998187
vn -1 0 0
vt -0.161606 0.998187
vn -1 0 0
vt -0.161606 0.946277
vn -1 0 0
vt -0.067204 0.946277
vn 0 0.00953817 0.999955
vt -0.409241 0.946182
vn 0 0.00953817 0.999955
vt -0.409241 0.997589
vn 0 0.00953817 0.999955
vt -0.429313 0.997589
vn 0 0.00953817 0.999955
vt -0.429313 0.946182
vn 1 0 0
vt -0.067204 0.998187
vn 1 0 0
vt -0.161606 0.998187
vn 1 0 0
vt -0.161606 0.946277
vn 1 0 0
vt -0.067204 0.946277
vn 0.624215 0.708645 0.328904
vt -0.161606 0.946277
vn 0 0.907063 0.420996
vt -0.161606 0.998187
vn 0 0.907063 0.420996
vt -0.067204 0.998187
vn 0.624215 0.708645 0.328903
vt -0.067204 0.946277
vn -1 0 0
vt -0.067204 0.998187
vn -1 0 0
vt -0.161606 0.998187
vn -1 0 0
vt -0.161606 0.946277
vn -1 0 0
vt -0.067204 0.946277
vn 0 0.00953817 0.999955
vt -0.429313 0.997589
vn 0 0.00953817 0.999955
vt -0.429313 0.946182
vn 0 0.00953817 0.999955
vt -0.409241 0.946182
vn 0 0.00953817 0.999955
vt -0.409241 0.997589
vn 1 0 0
vt -0.067204 0.998187
vn 1 0 0
vt -0.161606 0.998187
vn 0 0.731461 0.681884
vt 0.997668 0.932109
vn 0 0.731461 0.681884
vt 0.502007 0.932109
vn 0 0.731461 0.681884
vt 0.502007 0.505237
vn 0 0.731461 0.681884
vt 0.997668 0.505237
vn 0 0.724032 -0.689767
vt 0.502007 0.932109
vn 0 0.724031 -0.689767
vt 0.997668 0.932109
vn 0 0.724031 -0.689767
vt 0.997668 0.505237
vn 0 0.724031 -0.689767
vt 0.502007 0.505237
vn 0 0.718933 0.695079
vt 0.997668 0.932109
vn 0 0.718933 0.695079
vt 0.502007 0.932109
vn 0 0.718933 0.695079
vt 0.502007 0.565304
vn 0 0.718933 0.695079
vt 0.997668 0.565304
vn 0 0.729011 -0.684502
vt 0.502007 0.932109
vn 0 0.729011 -0.684502
vt 0.997668 0.932109
vn 0 0.729011 -0.684502
vt 0.997668 0.565304
vn 0 0.729011 -0.684502
vt 0.502007 0.565304
vn 0 -0.71925 0.694752
vt -0.326955 0.946277
vn 0 -1 0
vt -0.249028 0.946277
vn 0 -1 0
vt -0.249028 0.998187
vn 0 -0.71925 0.694752
vt -0.326955 0.998187
vn 0 -0.824699 0.565572
vt -0.422975 0.946277
vn 0 -0.779089 0.626913
vt -0.422975 0.998187
vn 0 -0.972223 0.234056
vt -0.460692 0.998187
vn 0 -0.99964 0.0268126
vt -0.460693 0.946277
vn 0 1 0
vt -0.249028 0.998187
vn 0 1 0
vt -0.249028 0.946277
vn 0 0.698315 -0.71579
vt -0.33645 0.946277
vn 0 0.72596 -0.687737
vt -0.33645 0.998187
vn 0 0.826151 -0.563449
vt -0.430851 0.998187
vn 0 0.778933 -0.627107
vt -0.430851 0.946277
vn 0 0.979419 -0.201836
vt -0.462363 0.946277
vn 0 0.999988 0.00494194
vt -0.462363 0.998187
vn 1 0 0
vt 0.529758 0.999375
vn 1 0 0
vt 0.529758 0.944917
vn 1 0 0
vt 0.698111 0.944917
vn 1 0 0
vt 0.698111 0.999375
vn 1 0 0
vt 0.866464 0.999375
vn 1 0 0
vt 0.866464 0.944917
vn 1 0 0
vt 0.914565 0.944917
vn 1 0 0
vt 0.914565 0.999375
vn 0 0.420302 -0.907384
vt 0.512052 0.998505
vn 0 0.420302 -0.907384
vt 0.512052 0.973603
vn 0 0.420302 -0.907384
vt 0.505337 0.973603
vn 0 0.420302 -0.907384
vt 0.505337 0.998505
vn -1 0 0
vt 0.577859 0.999375
vn -1 0 0
vt 0.577859 0.944917
vn -1 0 0
vt 0.625959 0.944917
vn -1 0 0
vt 0.625959 0.999375
vn 0 -0.980929 -0.194367
vt -0.495698 0.998187
vn 0 -0.980929 -0.194367
vt -0.495698 0.946277
vn 0 0.971981 0.23506
vt -0.488981 0.946277
vn 0 0.971981 0.23506
vt -0.488981 0.998187
vn 1 0 0
vt 0.962666 0.944917
vn 1 0 0
vt 0.962666 0.999375
vn -1 0 0
vt 0.794313 0.944917
vn -1 0 0
vt 0.794313 0.999375
vn -1 0 0
vt 0.529758 0.999375
vn -1 0 0
vt 0.529758 0.944917
vn -1 0 0
vt 0.962666 0.944917
vn -1 0 0
vt 0.962666 0.999375
vn 0 -0.719251 -0.694751
vt -0.171101 0.946277
vn 0 -0.719251 -0.694751
vt -0.171101 0.998187
vn 0 -0.972223 -0.234057
vt -0.037363 0.998187
vn 0 -0.77909 -0.626912
vt -0.075081 0.998187
vn 0 -0.8247 -0.565571
vt -0.075081 0.946277
vn 0 -0.99964 -0.0268164
vt -0.037363 0.946277
vn 0 0.69831 0.715795
vt -0.161606 0.946277
vn 0 0.725965 0.687732
vt -0.161606 0.998187
vn 0 0.979419 0.201836
vt -0.035693 0.946277
vn 0 0.778944 0.627093
vt -0.067204 0.946277
vn 0 0.826157 0.563439
vt -0.067204 0.998187
vn 0 0.999988 -0.00494194
vt -0.035693 0.998187
vn 1 0 0
vt 0.698111 0.944917
vn 1 0 0
vt 0.698111 0.999375
vn 1 0 0
vt 0.914565 0.944917
vn 1 0 0
vt 0.866464 0.944917
vn 1 0 0
vt 0.866464 0.999375
vn 1 0 0
vt 0.914565 0.999375
vn 0 0.420303 0.907384
vt 0.99856 0.973603
vn 0 0.420303 0.907384
vt 0.991846 0.973603
vn 0 0.420303 0.907384
vt 0.991846 0.998505
vn 0 0.420303 0.907384
vt 0.99856 0.998505
vn -1 0 0
vt 0.625959 0.944917
vn -1 0 0
vt 0.577859 0.944917
vn -1 0 0
vt 0.577859 0.999375
vn -1 0 0
vt 0.625959 0.999375
vn 0 -0.98093 0.194361
vt -0.002358 0.998187
vn 0 -0.98093 0.194361
vt -0.002358 0.946277
vn 0 0.971981 -0.23506
vt -0.009074 0.946277
vn 0 0.971981 -0.23506
vt -0.009074 0.998187
vn 1 0 0
vt 0.962666 0.944917
vn 1 0 0
vt 0.962666 0.999375
vn -1 0 0
vt 0.794313 0.944917
vn -1 0 0
vt 0.794313 0.999375
vn -1 0 0
vt 0.529758 0.999375
vn -1 0 0
vt 0.529758 0.944917
vn 0 -1 0
vt -0.249028 0.998187
vn 0 -1 0
vt -0.249028 0.946277
vn 0 -0.71925 0.694752
vt -0.326955 0.946277
vn 0 -0.71925 0.694752
vt -0.326955 0.998187
vn 0 -0.972223 0.234056
vt -0.460692 0.998187
vn 0 -0.779089 0.626913
vt -0.422975 0.998187
vn 0 -0.824699 0.565572
vt -0.422975 0.946277
vn 0 -0.99964 0.0268126
vt -0.460693 0.946277
vn 0 0.698315 -0.71579
vt -0.33645 0.946277
vn 0 1 0
vt -0.249028 0.946277
vn 0 1 0
vt -0.249028 0.998187
vn 0 0.72596 -0.687737
vt -0.33645 0.998187
vn 0 0.979419 -0.201836
vt -0.462363 0.946277
vn 0 0.778933 -0.627107
vt -0.430851 0.946277
vn 0 0.826151 -0.563449
vt -0.430851 0.998187
vn 0 0.999988 0.00494194
vt -0.462363 0.998187
vn -1 0 0
vt 0.698111 0.944917
vn -1 0 0
vt 0.529758 0.944917
vn -1 0 0
vt 0.529758 0.999375
vn -1 0 0
vt 0.698111 0.999375
vn -1 0 0
vt 0.914565 0.944917
vn -1 0 0
vt 0.866464 0.944917
vn -1 0 0
vt 0.866464 0.999375
vn -1 0 0
vt 0.914565 0.999375
vn 0 0.420302 -0.907384
vt 0.505337 0.973603
vn 0 0.420302 -0.907384
vt 0.512052 0.973603
vn 0 0.420302 -0.907384
vt 0.512052 0.998505
vn 0 0.420302 -0.907384
vt 0.505337 0.998505
vn 1 0 0
vt 0.625959 0.944917
vn 1 0 0
vt 0.577859 0.944917
vn 1 0 0
vt 0.577859 0.999375
vn 1 0 0
vt 0.625959 0.999375
vn 0 -0.980929 -0.194367
vt -0.495698 0.998187
vn 0 -0.980929 -0.194367
vt -0.495698 0.946277
vn 0 0.971981 0.23506
vt -0.488981 0.946277
vn 0 0.971981 0.23506
vt -0.488981 0.998187
vn -1 0 0
vt 0.962666 0.944917
vn -1 0 0
vt 0.962666 0.999375
vn 1 0 0
vt 0.794313 0.944917
vn 1 0 0
vt 0.794313 0.999375
vn 1 0 0
vt 0.529758 0.999375
vn 1 0 0
vt 0.529758 0.944917
vn 1 0 0
vt 0.962666 0.944917
vn 1 0 0
vt 0.962666 0.999375
vn 0 -0.719251 -0.694751
vt -0.171101 0.946277
vn 0 -0.719251 -0.694751
vt -0.171101 0.998187
vn 0 -0.8247 -0.565571
vt -0.075081 0.946277
vn 0 -0.77909 -0.626912
vt -0.075081 0.998187
vn 0 -0.972223 -0.234057
vt -0.037363 0.998187
vn 0 -0.99964 -0.0268164
vt -0.037363 0.946277
vn 0 0.69831 0.715795
vt -0.161606 0.946277
vn 0 0.725965 0.687732
vt -0.161606 0.998187
vn 0 0.826157 0.563439
vt -0.067204 0.998187
vn 0 0.778944 0.627093
vt -0.067204 0.946277
vn 0 0.979419 0.201836
vt -0.035693 0.946277
vn 0 0.999988 -0.00494194
vt -0.035693 0.998187
vn -1 0 0
vt 0.698111 0.944917
vn -1 0 0
vt 0.698111 0.999375
vn -1 0 0
vt 0.866464 0.999375
vn -1 0 0
vt 0.866464 0.944917
vn -1 0 0
vt 0.914565 0.944917
vn -1 0 0
vt 0.914565 0.999375
vn 0 0.420303 0.907384
vt 0.991846 0.998505
vn 0 0.420303 0.907384
vt 0.991846 0.973603
vn 0 0.420303 0.907384
vt 0.99856 0.973603
vn 0 0.420303 0.907384
vt 0.99856 0.998505
vn 1 0 0
vt 0.577859 0.999375
vn 1 0 0
vt 0.577859 0.944917
vn 1 0 0
vt 0.625959 0.944917
vn 1 0 0
vt 0.625959 0.999375
vn 0 -0.98093 0.194361
vt -0.002358 0.998187
vn 0 -0.98093 0.194361
vt -0.002358 0.946277
vn 0 0.971981 -0.23506
vt -0.009074 0.946277
vn 0 0.971981 -0.23506
vt -0.009074 0.998187
vn -1 0 0
vt 0.962666 0.944917
vn -1 0 0
vt 0.962666 0.999375
vn 1 0 0
vt 0.794313 0.944917
vn 1 0 0
vt 0.794313 0.999375
vn 1 0 0
vt 0.529758 0.999375
vn 1 0 0
vt 0.529758 0.944917
vn 0 0.731461 0.681884
vt 0.502007 0.505237
vn 0 0.731461 0.681884
vt 0.502007 0.932109
vn 0 0.718933 0.695079
vt 0.502007 0.565304
vn 0 0.718933 0.695079
vt 0.502007 0.932109
vn 0 0.729011 -0.684502
vt 0.502007 0.932109
vn 0 0.729011 -0.684502
vt 0.502007 0.565304
vn 0 0.724031 -0.689767
vt 0.502007 0.932109
vn 0 0.724031 -0.689767
vt 0.502007 0.505237
vn 0 0.724031 -0.689767
vt 0.996962 0.505237
vn 0 0.724031 -0.689767
vt 0.502007 0.505237
vn 0 0.724031 -0.689767
vt 0.502007 0.932109
vn 0 0.724031 -0.689767
vt 0.996962 0.932109
vn -4.76837e-07 0.729011 -0.684502
vt 0.996962 0.565304
vn 0 0.729012 -0.684501
vt 0.502007 0.565304
vn -4.76837e-07 0.729011 -0.684502
vt 0.502007 0.932109
vn -4.76837e-07 0.729011 -0.684502
vt 0.996962 0.932109
vn -4.76837e-07 0.718934 0.695079
vt 0.996962 0.932109
vn -9.53674e-07 0.718934 0.695078
vt 0.502007 0.932109
vn -4.76837e-07 0.718934 0.695079
vt 0.502007 0.565304
vn 0 0.718933 0.695079
vt 0.996962 0.565304
vn 0 0.731461 0.681884
vt 0.996962 0.932109
vn 0 0.731461 0.681884
vt 0.502007 0.932109
vn 0 0.731461 0.681884
vt 0.502007 0.505237
vn 0 0.731461 0.681884
vt 0.996962 0.505237
vn 0 0.75625 0.654283
vt 0.082278 0.977504
vn 0 0.75625 0.654283
vt 0.492927 0.977504
vn 0 0.822858 0.568247
vt 0.492927 0.766191
vn 0 0.890709 0.454575
vt 0.082278 0.766191
vn 0 0.951253 0.308411
vt 0.492927 0.977352
vn 0 0.951253 0.308411
vt 0.082278 0.977352
f 1/1/1 2/2/2 3/3/3
f 3/3/3 4/4/4 1/1/1
f 5/5/5 1/6/6 4/7/7
f 4/7/7 6/8/8 5/5/5
f 7/9/9 8/10/10 9/11/11
f 9/11/11 10/12/12 7/9/9
f 7/13/13 10/14/14 11/15/15
f 11/15/15 12/16/16 7/13/13
f 8/17/17 7/9/9 12/18/18
f 12/18/18 13/19/19 8/17/17
f 9/20/20 8/21/21 13/22/22
f 13/22/22 14/23/23 9/20/20
f 12/18/18 11/24/24 14/25/25
f 14/25/25 13/26/26 12/18/18
f 15/27/27 16/28/28 17/29/29
f 17/29/29 18/30/30 15/27/27
f 17/29/29 16/28/28 19/31/31
f 19/31/31 20/32/32 17/29/29
f 21/33/33 22/34/34 23/35/35
f 23/35/35 24/36/36 21/33/33
f 25/37/37 21/38/38 24/39/39
f 24/39/39 26/40/40 25/37/37
f 27/41/41 28/42/42 29/43/43
f 29/43/43 30/44/44 27/41/41
f 31/45/45 32/46/46 28/47/47
f 28/47/47 27/48/48 31/45/45
f 33/49/49 3/50/50 2/51/51
f 2/51/51 34/52/52 33/49/49
f 35/53/53 36/54/54 37/55/55
f 37/55/55 38/56/56 35/53/53
f 35/57/57 39/58/58 40/59/59
f 40/59/59 36/60/60 35/57/57
f 38/61/61 41/62/62 39/58/58
f 39/58/58 35/63/63 38/61/61
f 37/64/64 42/65/65 41/62/62
f 41/62/62 38/66/66 37/64/64
f 39/67/67 41/68/68 42/69/69
f 42/69/69 40/70/70 39/67/67
f 43/71/71 44/72/72 45/73/73
f 45/73/73 46/74/74 43/71/71
f 47/75/75 48/76/76 46/74/74
f 46/74/74 45/73/73 47/75/75
f 49/77/77 50/78/78 51/79/79
f 51/79/79 52/80/80 49/77/77
f 53/81/81 54/82/82 51/83/83
f 51/83/83 50/84/84 53/81/81
f 54/85/85 55/86/86 52/87/87
f 52/87/87 51/88/88 54/85/85
f 55/89/89 56/90/90 49/91/91
f 49/91/91 52/92/92 55/89/89
f 57/93/93 58/94/94 59/95/95
f 59/95/95 60/96/96 57/93/93
f 61/97/97 62/98/98 59/99/99
f 59/99/99 58/100/100 61/97/97
f 62/101/101 63/102/102 60/103/103
f 60/103/103 59/104/104 62/101/101
f 63/105/105 64/106/106 57/93/93
f 57/93/93 60/96/96 63/105/105
f 65/107/107 66/108/108 67/109/109
f 67/109/109 68/110/110 65/107/107
f 69/111/111 70/112/112 71/113/113
f 71/113/113 72/114/114 69/111/111
f 73/115/115 74/116/116 66/117/117
f 66/117/117 65/118/118 73/115/115
f 75/119/119 76/120/120 70/121/121
f 70/121/121 69/122/122 75/119/119
f 77/123/123 78/124/124 79/125/125
f 79/125/125 80/126/126 77/123/123
f 81/127/127 82/128/128 83/129/129
f 83/129/129 84/130/130 81/127/127
f 85/131/131 86/132/132 87/133/133
f 87/133/133 88/134/134 85/131/131
f 89/135/135 90/136/136 91/137/137
f 91/137/137 92/138/138 89/135/135
f 86/139/139 78/140/140 77/141/141
f 77/141/141 87/142/142 86/139/139
f 90/143/143 81/144/144 84/145/145
f 84/145/145 91/146/146 90/143/143
f 93/147/147 94/148/148 95/149/149
f 95/149/149 96/150/150 93/147/147
f 92/151/151 83/152/152 82/153/153
f 82/153/153 89/154/154 92/151/151
f 84/130/130 83/129/129 96/155/155
f 96/155/155 95/156/156 84/130/130
f 92/138/138 91/137/137 94/157/157
f 94/157/157 93/158/158 92/138/138
f 91/146/146 84/145/145 95/159/159
f 95/159/159 94/160/160 91/146/146
f 89/154/154 82/153/153 80/161/161
f 80/161/161 88/162/162 89/154/154
f 83/152/152 92/151/151 93/163/163
f 93/163/163 96/164/164 83/152/152
f 77/123/123 80/126/126 82/128/128
f 82/128/128 81/127/127 77/123/123
f 88/134/134 87/133/133 90/136/136
f 90/136/136 89/135/135 88/134/134
f 87/142/142 77/141/141 81/144/144
f 81/144/144 90/143/143 87/142/142
f 88/162/162 80/161/161 79/165/165
f 79/165/165 85/166/166 88/162/162
f 79/125/125 78/124/124 97/167/167
f 97/167/167 98/168/168 79/125/125
f 99/169/169 100/170/170 101/171/171
f 101/171/171 102/172/172 99/169/169
f 103/173/173 86/132/132 85/131/131
f 85/131/131 104/174/174 103/173/173
f 105/175/175 106/176/176 107/177/177
f 107/177/177 108/178/178 105/175/175
f 97/179/179 78/140/140 86/139/139
f 86/139/139 103/180/180 97/179/179
f 102/181/181 101/182/182 106/183/183
f 106/183/183 105/184/184 102/181/181
f 109/185/185 110/186/186 111/187/187
f 111/187/187 112/188/188 109/185/185
f 100/189/189 99/190/190 108/191/191
f 108/191/191 107/192/192 100/189/189
f 112/193/193 99/169/169 102/172/172
f 102/172/172 109/194/194 112/193/193
f 110/195/195 105/175/175 108/178/178
f 108/178/178 111/196/196 110/195/195
f 109/197/197 102/181/181 105/184/184
f 105/184/184 110/198/198 109/197/197
f 98/199/199 100/189/189 107/192/192
f 107/192/192 104/200/200 98/199/199
f 111/201/201 108/191/191 99/190/190
f 99/190/190 112/202/202 111/201/201
f 100/170/170 98/168/168 97/167/167
f 97/167/167 101/171/171 100/170/170
f 106/176/176 103/173/173 104/174/174
f 104/174/174 107/177/177 106/176/176
f 101/182/182 97/179/179 103/180/180
f 103/180/180 106/183/183 101/182/182
f 79/165/165 98/199/199 104/200/200
f 104/200/200 85/166/166 79/165/165
f 113/203/203 114/204/204 115/205/205
f 115/205/205 116/206/206 113/203/203
f 117/207/207 118/208/208 119/209/209
f 119/209/209 120/210/210 117/207/207
f 121/211/211 122/212/212 123/213/213
f 123/213/213 124/214/214 121/211/211
f 125/215/215 126/216/216 127/217/217
f 127/217/217 128/218/218 125/215/215
f 115/219/219 114/220/220 122/221/221
f 122/221/221 121/222/222 115/219/219
f 120/223/223 119/224/224 126/225/225
f 126/225/225 125/226/226 120/223/223
f 129/227/227 130/228/228 131/229/229
f 131/229/229 132/230/230 129/227/227
f 118/231/231 117/232/232 128/233/233
f 128/233/233 127/234/234 118/231/231
f 132/235/235 117/207/207 120/210/210
f 120/210/210 129/236/236 132/235/235
f 130/237/237 125/215/215 128/218/218
f 128/218/218 131/238/238 130/237/237
f 129/239/239 120/223/223 125/226/226
f 125/226/226 130/240/240 129/239/239
f 116/241/241 118/231/231 127/234/234
f 127/234/234 124/242/242 116/241/241
f 131/243/243 128/233/233 117/232/232
f 117/232/232 132/244/244 131/243/243
f 118/208/208 116/206/206 115/205/205
f 115/205/205 119/209/209 118/208/208
f 126/216/216 121/211/211 124/214/214
f 124/214/214 127/217/217 126/216/216
f 119/224/224 115/219/219 121/222/222
f 121/222/222 126/225/225 119/224/224
f 113/245/245 116/241/241 124/242/242
f 124/242/242 123/246/246 113/245/245
f 133/247/247 114/204/204 113/203/203
f 113/203/203 134/248/248 133/247/247
f 135/249/249 136/250/250 137/251/251
f 137/251/251 138/252/252 135/249/249
f 123/213/213 122/212/212 139/253/253
f 139/253/253 140/254/254 123/213/213
f 141/255/255 142/256/256 143/257/257
f 143/257/257 144/258/258 141/255/255
f 122/221/221 114/220/220 133/259/259
f 133/259/259 139/260/260 122/221/221
f 142/261/261 135/262/262 138/263/263
f 138/263/263 143/264/264 142/261/261
f 145/265/265 146/266/266 147/267/267
f 147/267/267 148/268/268 145/265/265
f 144/269/269 137/270/270 136/271/271
f 136/271/271 141/272/272 144/269/269
f 138/252/252 137/251/251 148/273/273
f 148/273/273 147/274/274 138/252/252
f 144/258/258 143/257/257 146/275/275
f 146/275/275 145/276/276 144/258/258
f 143/264/264 138/263/263 147/277/277
f 147/277/277 146/278/278 143/264/264
f 141/272/272 136/271/271 134/279/279
f 134/279/279 140/280/280 141/272/272
f 137/270/270 144/269/269 145/281/281
f 145/281/281 148/282/282 137/270/270
f 133/247/247 134/248/248 136/250/250
f 136/250/250 135/249/249 133/247/247
f 140/254/254 139/253/253 142/256/256
f 142/256/256 141/255/255 140/254/254
f 139/260/260 133/259/259 135/262/262
f 135/262/262 142/261/261 139/260/260
f 140/280/280 134/279/279 113/245/245
f 113/245/245 123/246/246 140/280/280
f 68/110/110 149/283/283 150/284/284
f 150/284/284 65/107/107 68/110/110
f 65/118/118 150/285/285 5/286/286
f 5/286/286 73/115/115 65/118/118
f 76/120/120 34/287/287 151/288/288
f 151/288/288 70/121/121 76/120/120
f 70/112/112 151/289/289 152/290/290
f 152/290/290 71/113/113 70/112/112
f 153/291/291 154/292/292 155/293/293
f 155/293/293 156/294/294 153/291/291
f 156/295/295 155/296/296 33/297/297
f 33/297/297 157/298/298 156/295/295
f 158/299/299 6/300/300 159/301/301
f 159/301/301 160/302/302 158/299/299
f 160/303/303 159/304/304 161/305/305
f 161/305/305 162/306/306 160/303/303
f 162/306/306 67/109/109 66/108/108
f 66/108/108 160/303/303 162/306/306
f 160/302/302 66/117/117 74/116/116
f 74/116/116 158/299/299 160/302/302
f 157/298/298 75/119/119 69/122/122
f 69/122/122 156/295/295 157/298/298
f 156/294/294 69/111/111 72/114/114
f 72/114/114 153/291/291 156/294/294
f 163/307/307 164/308/308 165/309/309
f 165/309/309 166/310/310 163/307/307
f 167/311/311 168/312/312 166/310/310
f 166/310/310 165/309/309 167/311/311
