#
# Exported by OpenBRF -- marco tarini
#
s fysg_fanzi25.1
newmtl fysg_cheng_fanyan01
Ka 0.8 0.8 0.8
Kd 0.2 0.2 0.2
usemtl fysg_cheng_fanyan01
v -6.66211 7.81789 7.04369
v -4.79034 6.57732 7.08037
v -6.84818 7.03258 6.15385
v -4.84402 6.22863 6.13981
v -6.87271 7.03258 -5.909
v -4.86856 6.22863 -5.90311
v -6.69028 7.81789 -6.79959
v -4.8187 6.57732 -6.84389
v 4.76529 6.22863 6.12025
v 4.73401 6.57732 7.06098
v 6.5614 7.81786 -6.82656
v 4.70569 6.57732 -6.86327
v 6.74747 7.03258 -5.93671
v 6.58957 7.81789 7.01672
v 6.772 7.03258 6.12613
v 4.74078 6.22863 -5.92268
v -0.062622 6.22863 -5.9129
v -0.038086 6.22863 6.13003
vn -0.400939 -0.754326 0.519846
vt -0.355969 0.828022
vn -0.400939 -0.754326 0.519846
vt 0.047794 0.830897
vn -0.430376 -0.630245 0.646195
vt -0.146857 1.03928
vn -0.347606 -0.872529 0.343312
vt -0.192515 0.634981
vn -0.372305 -0.92811 0.000757639
vt 0.0005 0.999499
vn -0.372305 -0.92811 0.000757639
vt 1.84033 0.704971
vn -0.372302 -0.928111 0.000757089
vt 1.84185 0.9995
vn -0.372308 -0.928109 0.000758191
vt 0.00202 0.70497
vn -0.403057 -0.754324 -0.51821
vt 0.047794 0.830897
vn -0.403057 -0.754324 -0.51821
vt -0.355969 0.828022
vn -0.433007 -0.630244 -0.644436
vt -0.146857 1.03928
vn -0.349006 -0.872527 -0.341895
vt -0.192515 0.634981
vn 0.000707516 -0.937652 0.347575
vt 1.55779 0.688379
vn 0.000707516 -0.937652 0.347575
vt -0.082752 0.997099
vn 0.00070758 -0.937652 0.347576
vt -0.11145 0.688379
vn 0.000707452 -0.937652 0.347575
vt 1.52846 0.997099
vn 0.402915 -0.755445 -0.516684
vt 1.76933 0.830192
vn 0.402915 -0.755445 -0.516684
vt 1.28447 0.830892
vn 0.433204 -0.62892 -0.645596
vt 1.54221 1.04386
vn 0.405014 -0.755438 0.51505
vt 1.28447 0.830892
vn 0.405014 -0.755438 0.51505
vt 1.76933 0.830192
vn 0.435826 -0.62891 0.643838
vt 1.54221 1.04386
vn 0.349449 -0.874699 0.335837
vt 1.54967 0.695468
vn 0.348079 -0.874701 -0.337251
vt 1.54967 0.695468
vn 0.371898 -0.928273 -0.000756861
vt 1.76737 0.999499
vn 0.371898 -0.928273 -0.000756861
vt 0.001959 0.740547
vn 0.371897 -0.928274 -0.000756631
vt 0.0005 0.9995
vn 0.371899 -0.928273 -0.000757092
vt 1.76591 0.740546
vn -0.000707518 -0.937653 -0.347573
vt 1.55779 0.688379
vn -0.000707518 -0.937653 -0.347573
vt -0.082752 0.997099
vn -0.000707464 -0.937652 -0.347574
vt 1.52846 0.997099
vn -0.000707572 -0.937653 -0.347573
vt -0.11145 0.688379
vn -7.25407e-10 -1 -3.56352e-07
vt -0.474371 0.608923
vn -7.25338e-10 -1 -3.56352e-07
vt 1.6224 0.349604
vn -7.25362e-10 -1 -3.56352e-07
vt -0.474371 0.349604
vn -7.25693e-10 -1 -3.56352e-07
vt 1.6224 0.608923
vn -7.25482e-10 -1 -3.56352e-07
vt 1.6224 0.608923
vn -7.25766e-10 -1 -3.56352e-07
vt -0.474371 0.608923
f 3/1/1 2/2/2 1/3/3
f 4/4/4 2/2/2 3/1/1
f 5/5/5 4/6/6 3/7/7
f 4/6/6 5/5/5 6/8/8
f 8/9/9 5/10/10 7/11/11
f 5/10/10 8/9/9 6/12/12
f 9/13/13 2/14/14 4/15/15
f 2/14/14 9/13/13 10/16/16
f 13/17/17 12/18/18 11/19/19
f 10/20/20 15/21/21 14/22/22
f 9/23/23 15/21/21 10/20/20
f 12/18/18 13/17/17 16/24/24
f 15/25/25 16/26/26 13/27/27
f 16/26/26 15/25/25 9/28/28
f 16/29/29 8/30/30 12/31/31
f 8/30/30 16/29/29 6/32/32
f 16/33/33 18/34/34 17/35/35
f 18/34/34 16/33/33 9/36/36
f 17/35/35 4/37/37 6/38/38
f 4/37/37 17/35/35 18/34/34
