#
# Exported by OpenBRF -- marco tarini
#
s fysg_changjin_cheng02.1
newmtl fysg_changjin_diban05
Ka 0.8 0.8 0.8
Kd 0.2 0.2 0.2
usemtl fysg_changjin_diban05
v -4.7488 0.0623 8.6598
v -4.6151 4.5803 8.555
v -4.6151 4.5803 8.1066
v -4.7488 0.0623 9.1083
v -1.7749 10.4217 7.4169
v 0.0354 10.701 7.8315
v 0.0354 10.701 7.383
v -1.7749 10.4217 7.8653
v -4.4137 7.6829 7.7386
v -3.5088 9.249 8.01
v -3.5088 9.249 7.5615
v -4.4137 7.6829 8.1871
v -3.8337 4.5637 8.5544
v -3.9652 0.0623 9.1084
v 0.0354 9.7376 7.9463
v -1.3958 9.5317 7.9767
v -2.8522 8.5618 8.0884
v -3.6382 7.2955 8.2353
v -3.8337 4.5637 8.1048
v -3.9652 0.0623 8.6588
v 0.0354 9.7376 7.4967
v -1.3957 9.5317 7.5271
v -2.8522 8.5618 7.6388
v -3.6382 7.2955 7.7857
v 1.8457 10.4217 -4.0312
v 0.0354 10.701 -4.4458
v 0.0354 10.701 -3.9973
v 1.8457 10.4217 -4.4796
v 4.4845 7.683 -4.3529
v 3.5796 9.2491 -4.6242
v 3.5796 9.2491 -4.1758
v 4.4845 7.6829 -4.8014
v 4.686 4.5803 -4.7209
v 4.686 4.5803 -5.1693
v 0.0354 9.7376 -4.5606
v 1.4666 9.5317 -4.591
v 2.923 8.5618 -4.7027
v 3.7091 7.2955 -4.8496
v 3.9045 4.5637 -5.1687
v 0.0354 9.7377 -4.111
v 1.4666 9.5317 -4.1414
v 2.923 8.5618 -4.2531
v 3.7091 7.2955 -4.4
v 3.9045 4.5637 -4.7191
v -4.6151 4.5803 -5.1693
v -4.7488 0.0623 -5.2741
v -4.6151 4.5803 -4.7209
v -4.7488 0.0623 -5.7226
v -1.7749 10.4217 -4.0312
v -1.7749 10.4217 -4.4796
v -3.5087 9.2491 -4.6242
v -4.4137 7.683 -4.3529
v -3.5087 9.2491 -4.1758
v -4.4137 7.6829 -4.8014
v -3.8337 4.5637 -5.1687
v -3.9652 0.0623 -5.7227
v -1.3957 9.5317 -4.591
v -2.8522 8.5618 -4.7027
v -3.6382 7.2955 -4.8496
v -3.8337 4.5637 -4.7191
v -3.9652 0.0623 -5.2731
v -1.3957 9.5317 -4.1414
v -2.8522 8.5618 -4.2531
v -3.6382 7.2955 -4.4
v 4.8196 0.0623 8.6598
v 4.6859 4.5803 8.555
v 4.8196 0.0623 9.1083
v 4.6859 4.5803 8.1066
v 1.8457 10.4217 7.4169
v 1.8457 10.4217 7.8653
v 4.4845 7.6829 7.7386
v 3.5796 9.249 8.01
v 4.4845 7.6829 8.1871
v 3.5796 9.249 7.5615
v 3.9045 4.5637 8.5544
v 4.036 0.0623 9.1084
v 1.4666 9.5317 7.9767
v 2.923 8.5617 8.0884
v 3.7091 7.2955 8.2353
v 3.9045 4.5637 8.1048
v 4.036 0.0623 8.6588
v 1.4666 9.5317 7.5271
v 2.923 8.5618 7.6388
v 3.7091 7.2955 7.7857
v 0.0354 9.7376 -4.111
v 4.8196 0.0623 -5.2741
v 4.8196 0.0623 -5.7226
v 4.4845 7.6829 -4.3529
v 4.036 0.0623 -5.7227
v 4.036 0.0623 -5.2731
v 20.67 15.7174 10.3487
v 9.9799 15.7174 7.0622
v 9.9799 15.7174 10.3486
v 20.67 15.7174 7.0622
v 9.9799 15.7174 1.6929
v 20.67 15.7174 1.6929
v 0.0354 15.7174 1.6929
v 0.0354 15.7174 7.0622
v 9.9799 15.7174 -3.6764
v 20.67 15.7174 -6.9629
v 9.9799 15.7174 -6.9629
v 20.67 15.7174 -3.6764
v 0.0354 15.7174 -3.6764
v -9.9091 15.7174 7.0622
v -20.5992 15.7174 10.3486
v -9.9091 15.7174 10.3486
v -20.5992 15.7174 7.0622
v -9.9091 15.7174 1.6929
v -20.5992 15.7174 1.6929
v -20.5992 15.7174 -6.9629
v -9.9091 15.7174 -3.6764
v -9.9091 15.7174 -6.9629
v -20.5992 15.7174 -3.6765
v -12.4218 16.4234 -1.7652
v -13.7825 16.4234 2.4645
v -12.4218 16.4234 0.1926
v -13.7825 16.4234 -4.0371
v -18.8791 16.4234 0.1926
v -17.5184 16.4234 -4.0371
v -18.8791 16.4234 -1.7652
v -17.5184 16.4234 2.4645
v -14.5742 16.4234 -5.8229
v -16.7267 16.4234 -5.8229
v -16.7267 16.4234 4.2504
v -14.5742 16.4234 4.2504
v -12.4218 16.4234 -5.8229
v -12.4218 16.4234 4.2504
v -18.8791 16.4234 4.2504
v -18.8791 16.4234 -5.8229
v 1.5035 17.7571 4.3064
v -5.154 17.7571 2.799
v -1.578 17.7571 4.3064
v 5.0795 17.7571 2.799
v -1.578 17.7571 -2.8473
v 5.0795 17.7571 -1.3398
v 1.5035 17.7571 -2.8473
v -5.154 17.7571 -1.3398
v 7.8905 17.7571 1.9219
v 7.8905 17.7571 -0.4627
v -7.965 17.7571 -0.4627
v -7.965 17.7571 1.9219
v 7.8905 17.7571 4.3064
v -7.965 17.7571 4.3064
v -7.965 17.7571 -2.8473
v 7.8905 17.7571 -2.8473
v 12.4926 16.4234 -1.7651
v 13.8533 16.4234 2.4645
v 13.8533 16.4234 -4.037
v 12.4926 16.4234 0.1926
v 18.9499 16.4234 0.1926
v 17.5892 16.4234 -4.037
v 17.5892 16.4234 2.4645
v 18.9499 16.4234 -1.7651
v 14.6451 16.4234 -5.8229
v 16.7975 16.4234 -5.8229
v 16.7975 16.4234 4.2504
v 14.6451 16.4234 4.2504
v 12.4926 16.4234 -5.8229
v 12.4926 16.4234 4.2504
v 18.9499 16.4234 4.2504
v 18.9499 16.4234 -5.8229
vn -0.999562 0.0295798 -9.16279e-09
vt 0.7349 0.5209
vn -0.99909 0.0426533 -3.21362e-10
vt 1.2956 0.6329
vn -0.998976 0.0452475 1.43376e-09
vt 1.2959 0.5209
vn -0.999562 0.0295798 -9.16267e-09
vt 0.7346 0.6329
vn -0.37323 0.927739 -1.612e-08
vt 0.4993 0.5209
vn 9.32974e-10 1 -5.34323e-09
vt 0.7316 0.6329
vn -8.32733e-10 1 -5.34305e-09
vt 0.7316 0.5209
vn -0.384752 0.92302 -1.63997e-08
vt 0.4993 0.6329
vn -0.865855 0.500295 -5.69238e-08
vt 0.1364 0.5209
vn -0.728454 0.685095 -3.93452e-08
vt 0.3311 0.6329
vn -0.711623 0.702561 -3.73596e-08
vt 0.3311 0.5209
vn -0.865855 0.500295 -5.69237e-08
vt 0.1364 0.6329
vn -0.9979 0.0647769 1.46519e-08
vt 1.6542 0.6329
vn -0.9979 0.0647769 1.46516e-08
vt 1.6581 0.5209
vn 0.00025564 0.122078 0.99252
vt 0.73 0.5209
vn 0.00306428 0.119322 0.992851
vt 1.3107 0.6329
vn 0.00283026 0.119496 0.992831
vt 1.2991 0.5209
vn -0.000126831 0.122155 0.992511
vt 0.7456 0.6329
vn 0.000217907 0.123145 0.992389
vt 0.7078 0.5192
vn 1.0324e-09 0.120083 0.992764
vt 0.9363 0.6318
vn 9.76616e-10 0.118324 0.992975
vt 0.9479 0.5192
vn 0.000927387 0.123223 0.992379
vt 0.7029 0.6318
vn -0.00214301 0.115357 0.993322
vt 0.3191 0.5192
vn -0.000393684 0.113758 0.993508
vt 0.5547 0.6318
vn -0.000338369 0.115316 0.993329
vt 0.5339 0.5192
vn -0.00318507 0.117185 0.993105
vt 0.3715 0.6318
vn -0.00207387 0.117673 0.99305
vt 1.6351 0.6329
vn -0.00280617 0.117932 0.993018
vt 1.6566 0.5209
vn 0.999574 -0.0292007 3.65529e-09
vt 0.7478 0.5209
vn 0.998909 -0.0466997 -3.5718e-09
vt 1.3092 0.6329
vn 0.999045 -0.0436863 -2.32691e-09
vt 1.3089 0.5209
vn 0.999574 -0.0292007 3.65529e-09
vt 0.746 0.6329
vn 0.382661 -0.923889 8.23558e-05
vt 0.3436 0.6329
vn -7.24037e-08 -1 3.09507e-06
vt 0.1504 0.5209
vn -1.36821e-09 -1 2.66127e-09
vt 0.1504 0.6329
vn 0.371414 -0.928467 7.15609e-05
vt 0.3436 0.5209
vn 0.849634 -0.527373 -3.86824e-10
vt 0.733 0.6329
vn 0.698137 -0.715965 -3.8539e-08
vt 0.4943 0.5209
vn 0.713897 -0.70025 1.05946e-05
vt 0.4943 0.6329
vn 0.849634 -0.527373 -3.86824e-10
vt 0.733 0.5209
vn 0.997449 -0.0713819 -1.37738e-08
vt 1.639 0.6329
vn 0.997449 -0.0713819 -1.37738e-08
vt 1.637 0.5209
vn -0.00457822 -0.119241 -0.992855
vt 1.3107 0.6329
vn -0.00166273 -0.122035 -0.992524
vt 0.73 0.5209
vn -0.00434182 -0.119418 -0.992835
vt 1.2991 0.5209
vn -0.00126591 -0.122115 -0.992515
vt 0.7456 0.6329
vn -8.49197e-09 -0.118934 -0.992902
vt 0.9363 0.5192
vn -0.000683842 -0.122043 -0.992525
vt 0.7048 0.6318
vn -7.47169e-10 -0.117206 -0.993108
vt 0.9354 0.6318
vn -0.00138173 -0.122108 -0.992516
vt 0.7029 0.5192
vn -0.000452161 -0.112974 -0.993598
vt 0.5547 0.5192
vn 0.00108402 -0.114727 -0.993397
vt 0.3353 0.6318
vn -0.000490467 -0.11451 -0.993422
vt 0.5339 0.6318
vn 0.00211053 -0.116526 -0.993185
vt 0.3499 0.5192
vn 0.000677156 -0.11761 -0.99306
vt 1.6351 0.6329
vn 0.00142689 -0.117876 -0.993027
vt 1.6566 0.5209
vn 0.373208 0.927748 3.70564e-08
vt 0.4993 0.5209
vn -1.03344e-08 1 -6.19067e-09
vt 0.7316 0.6329
vn -8.56606e-09 1 -6.19047e-09
vt 0.7316 0.5209
vn 0.384724 0.923032 3.9698e-08
vt 0.4993 0.6329
vn 0.865862 0.500283 -9.52709e-05
vt 0.1364 0.5209
vn 0.728452 0.685097 -4.10885e-06
vt 0.3311 0.6329
vn 0.711613 0.702571 4.42303e-08
vt 0.3311 0.5209
vn 0.865866 0.500276 -5.58498e-05
vt 0.1364 0.6329
vn 0.998685 0.0512752 -3.67083e-07
vt 1.2959 0.5209
vn 0.997898 0.0648088 -6.6076e-06
vt 1.6542 0.6329
vn 0.997898 0.0648086 -1.44573e-05
vt 1.6581 0.5209
vn 0.998816 0.0486535 1.21871e-08
vt 1.2956 0.6329
vn -0.000195295 0.123136 -0.99239
vt 0.7048 0.6318
vn 6.20037e-09 0.120083 -0.992764
vt 0.9363 0.5192
vn -1.0089e-09 0.118324 -0.992975
vt 0.9354 0.6318
vn -0.000903273 0.123226 -0.992378
vt 0.7029 0.5192
vn 0.0021626 0.115391 -0.993318
vt 0.3353 0.6318
vn 0.000438206 0.113828 -0.9935
vt 0.5547 0.5192
vn 0.000385806 0.115377 -0.993322
vt 0.5339 0.6318
vn 0.00318543 0.117185 -0.993105
vt 0.3499 0.5192
vn -0.00259783 0.118605 -0.992938
vt 1.2991 0.5209
vn 0.00207397 0.117673 -0.99305
vt 1.6351 0.6329
vn 0.00280647 0.117932 -0.993018
vt 1.6566 0.5209
vn -0.00310788 0.11834 -0.992968
vt 1.3107 0.6329
vn -0.382633 -0.9239 9.61549e-06
vt 0.3436 0.6329
vn -6.66103e-08 -1 0.000179688
vt 0.1504 0.5209
vn 6.16009e-08 -1 0.00011137
vt 0.1504 0.6329
vn -0.371443 -0.928456 2.49488e-08
vt 0.3436 0.5209
vn -0.849604 -0.527421 -2.79997e-08
vt 0.733 0.6329
vn -0.698138 -0.715963 6.31428e-09
vt 0.4943 0.5209
vn -0.713892 -0.700255 3.15024e-09
vt 0.4943 0.6329
vn -0.849604 -0.527421 -2.79997e-08
vt 0.733 0.5209
vn -0.998711 -0.050749 -7.13342e-09
vt 1.3089 0.5209
vn -0.997452 -0.0713457 -1.06162e-08
vt 1.639 0.6329
vn -0.997452 -0.0713457 -1.06162e-08
vt 1.637 0.5209
vn -0.998545 -0.0539171 -7.66908e-09
vt 1.3092 0.6329
vn -8.07362e-09 -0.118943 0.992901
vt 0.9363 0.5192
vn 0.000685936 -0.122046 0.992524
vt 0.7048 0.6318
vn -2.43349e-10 -0.117212 0.993107
vt 0.9354 0.6318
vn 0.00138313 -0.122107 0.992516
vt 0.7029 0.5192
vn 0.000459492 -0.112966 0.993599
vt 0.5547 0.5192
vn -0.00107277 -0.11472 0.993397
vt 0.3353 0.6318
vn 0.000497799 -0.114503 0.993423
vt 0.5339 0.6318
vn -0.00210479 -0.116524 0.993186
vt 0.3499 0.5192
vn -0.000671435 -0.117608 0.99306
vt 1.6351 0.6329
vn 0.00410548 -0.118521 0.992943
vt 1.2991 0.5209
vn -0.00141414 -0.117871 0.993028
vt 1.6566 0.5209
vn 0.0046247 -0.118251 0.992973
vt 1.3107 0.6329
vn -0.998816 0.0486462 0
vt 1.2956 0.6329
vn -0.999562 0.0295798 0
vt 0.7349 0.5209
vn -0.998685 0.0512639 -7.58222e-07
vt 1.2959 0.5209
vn -0.999562 0.0295798 0
vt 0.7346 0.6329
vn -0.373216 0.927744 0
vt 0.4993 0.5209
vn -0.384733 0.923028 0
vt 0.4993 0.6329
vn -0.728444 0.685105 -8.29759e-06
vt 0.3311 0.6329
vn -0.865838 0.500324 -9.52086e-05
vt 0.1364 0.5209
vn -0.711608 0.702576 0
vt 0.3311 0.5209
vn -0.865839 0.500322 -0.000111706
vt 0.1364 0.6329
vn -0.9979 0.0647766 -1.32325e-05
vt 1.6542 0.6329
vn -0.9979 0.0647765 -1.44625e-05
vt 1.6581 0.5209
vn 0.00310825 0.11834 -0.992968
vt 1.3107 0.6329
vn 0.000255636 0.122078 -0.99252
vt 0.73 0.5209
vn 0.00259802 0.118605 -0.992938
vt 1.2991 0.5209
vn -0.000126832 0.122155 -0.992511
vt 0.7456 0.6329
vn 0.000195186 0.123136 -0.99239
vt 0.7048 0.6318
vn 0.000903394 0.123227 -0.992378
vt 0.7029 0.5192
vn -0.000438267 0.113829 -0.9935
vt 0.5547 0.5192
vn -0.00216259 0.115391 -0.993318
vt 0.3353 0.6318
vn -0.000385799 0.115378 -0.993322
vt 0.5339 0.6318
vn -0.00318521 0.117184 -0.993105
vt 0.3499 0.5192
vn -0.00207387 0.117673 -0.99305
vt 1.6351 0.6329
vn -0.00280616 0.117932 -0.993018
vt 1.6566 0.5209
vn 0.998544 -0.0539384 0
vt 1.3092 0.6329
vn 0.999574 -0.0292007 0
vt 0.7478 0.5209
vn 0.998711 -0.0507676 0
vt 1.3089 0.5209
vn 0.999574 -0.0292007 0
vt 0.746 0.6329
vn 0.382633 -0.923901 9.59001e-06
vt 0.3436 0.6329
vn 0.371444 -0.928456 0
vt 0.3436 0.5209
vn 0.698137 -0.715965 0
vt 0.4943 0.5209
vn 0.849634 -0.527373 0
vt 0.733 0.6329
vn 0.713894 -0.700254 0
vt 0.4943 0.6329
vn 0.849634 -0.527373 0
vt 0.733 0.5209
vn 0.997449 -0.0713819 0
vt 1.639 0.6329
vn 0.997449 -0.0713819 0
vt 1.637 0.5209
vn -0.00166331 -0.122035 0.992524
vt 0.73 0.5209
vn -0.00462527 -0.118251 0.992973
vt 1.3107 0.6329
vn -0.00410655 -0.118521 0.992943
vt 1.2991 0.5209
vn -0.00126649 -0.122115 0.992515
vt 0.7456 0.6329
vn -0.000685843 -0.122046 0.992524
vt 0.7048 0.6318
vn -0.00138324 -0.122107 0.992516
vt 0.7029 0.5192
vn 0.00107277 -0.11472 0.993397
vt 0.3353 0.6318
vn -0.000460994 -0.112966 0.993599
vt 0.5547 0.5192
vn -0.000498903 -0.114504 0.993423
vt 0.5339 0.6318
vn 0.00209891 -0.11652 0.993186
vt 0.3499 0.5192
vn 0.00066582 -0.117606 0.99306
vt 1.6351 0.6329
vn 0.001414 -0.117871 0.993028
vt 1.6566 0.5209
vn 0.999562 0.0295798 0
vt 0.7349 0.5209
vn 0.99909 0.0426534 0
vt 1.2956 0.6329
vn 0.999562 0.0295798 0
vt 0.7346 0.6329
vn 0.998976 0.0452475 0
vt 1.2959 0.5209
vn 0.37323 0.927739 0
vt 0.4993 0.5209
vn 0.384752 0.92302 0
vt 0.4993 0.6329
vn 0.865855 0.500295 0
vt 0.1364 0.5209
vn 0.728454 0.685095 0
vt 0.3311 0.6329
vn 0.865855 0.500295 0
vt 0.1364 0.6329
vn 0.711623 0.702561 0
vt 0.3311 0.5209
vn 0.9979 0.0647771 0
vt 1.6542 0.6329
vn 0.9979 0.064777 0
vt 1.6581 0.5209
vn -0.000255636 0.122078 0.99252
vt 0.73 0.5209
vn -0.00306426 0.119322 0.992851
vt 1.3107 0.6329
vn 0.000126832 0.122155 0.992511
vt 0.7456 0.6329
vn -0.00283033 0.119496 0.992831
vt 1.2991 0.5209
vn -0.000217906 0.123145 0.992389
vt 0.7055 0.5192
vn -0.000927625 0.123221 0.992379
vt 0.7029 0.6318
vn 0.00213649 0.115359 0.993322
vt 0.2991 0.5192
vn 0.00038811 0.113749 0.993509
vt 0.5462 0.6318
vn 0.00318175 0.117192 0.993104
vt 0.3391 0.6318
vn 0.000332715 0.115309 0.99333
vt 0.5339 0.5192
vn 0.00207412 0.117673 0.99305
vt 1.6351 0.6329
vn 0.00280651 0.117932 0.993018
vt 1.6566 0.5209
vn -0.999574 -0.0292006 0
vt 0.7478 0.5209
vn -0.99891 -0.0466846 0
vt 1.3092 0.6329
vn -0.999574 -0.0292006 0
vt 0.746 0.6329
vn -0.999046 -0.0436737 0
vt 1.3089 0.5209
vn -0.382651 -0.923893 0
vt 0.3436 0.6329
vn -0.37145 -0.928453 -1.66066e-05
vt 0.3436 0.5209
vn -0.849599 -0.527429 -2.25312e-05
vt 0.733 0.6329
vn -0.698102 -0.715998 -0.000149461
vt 0.4943 0.5209
vn -0.849604 -0.527421 0
vt 0.733 0.5209
vn -0.713885 -0.700263 -0.000139988
vt 0.4943 0.6329
vn -0.997452 -0.0713457 0
vt 1.639 0.6329
vn -0.997452 -0.0713457 0
vt 1.637 0.5209
vn 0.00457823 -0.119241 -0.992855
vt 1.3107 0.6329
vn 0.0016627 -0.122035 -0.992524
vt 0.73 0.5209
vn 0.00126588 -0.122115 -0.992515
vt 0.7456 0.6329
vn 0.00434194 -0.119418 -0.992835
vt 1.2991 0.5209
vn 0.000683963 -0.122043 -0.992525
vt 0.7048 0.6318
vn 0.00138165 -0.122108 -0.992516
vt 0.7029 0.5192
vn 0.000452201 -0.112974 -0.993598
vt 0.5547 0.5192
vn -0.00108409 -0.114727 -0.993396
vt 0.3353 0.6318
vn -0.00211067 -0.116527 -0.993185
vt 0.3499 0.5192
vn 0.000490482 -0.114509 -0.993422
vt 0.5339 0.6318
vn -0.000677256 -0.11761 -0.99306
vt 1.6351 0.6329
vn -0.00142707 -0.117876 -0.993027
vt 1.6566 0.5209
vn 0.000195186 0.123136 -0.99239
vt 0.7205 0.6318
vn 0.000903394 0.123227 -0.992378
vt 0.7186 0.5192
vn -0.000438267 0.113829 -0.9935
vt 0.5455 0.5192
vn -0.00318521 0.117184 -0.993105
vt 0.3812 0.5192
vn -6.39868e-08 -1 5.6832e-09
vt 0.1504 0.5209
vn -7.27431e-09 -0.118934 0.992902
vt 0.9363 0.5192
vn 0.999563 0.0295577 1.19783e-08
vt 0.7349 0.5209
vn 0.999563 0.0295577 1.19781e-08
vt 0.7346 0.6329
vn 0.865869 0.500271 5.93237e-08
vt 0.1364 0.5209
vn 0.997898 0.064809 1.23558e-08
vt 1.6581 0.5209
vn -0.00025568 0.122078 -0.99252
vt 0.73 0.5209
vn 0.000126831 0.122155 -0.992511
vt 0.7456 0.6329
vn -0.000195295 0.123136 -0.99239
vt 0.7205 0.6318
vn -0.000903273 0.123226 -0.992378
vt 0.7186 0.5192
vn 0.000438206 0.113828 -0.9935
vt 0.5455 0.5192
vn 0.00318543 0.117185 -0.993105
vt 0.3812 0.5192
vn -0.999574 -0.0292006 -3.49041e-09
vt 0.7478 0.5209
vn -0.999574 -0.0292006 -3.49041e-09
vt 0.746 0.6329
vn 0.00166335 -0.122035 0.992524
vt 0.73 0.5209
vn 0.00126652 -0.122115 0.992515
vt 0.7456 0.6329
vn -0.00108138 -0.114723 0.993397
vt 0.3353 0.6318
vn -0.00142705 -0.117876 0.993027
vt 1.6566 0.5209
vn 0 1 0
vt 6.2396 -2.8251
vn 0 1 0
vt 2.8188 -1.4311
vn 0 1 0
vt 2.8188 -2.8251
vn 0 1 0
vt 6.2396 -1.4311
vn 0 1 0
vt 2.8188 0.8465
vn 0 1 0
vt 6.2396 0.8465
vn 0 1 0
vt -0.3634 0.8465
vn 0 1 0
vt -0.3634 -1.4311
vn 0 1 0
vt 2.8188 3.124
vn 0 1 0
vt 6.2396 4.518
vn 0 1 0
vt 2.8188 4.518
vn 0 1 0
vt 6.2396 3.124
vn 0 1 0
vt -0.3634 3.124
vn 0 1 0
vt -3.5456 -1.4311
vn 0 1 0
vt -6.9663 -2.8251
vn 0 1 0
vt -3.5456 -2.8251
vn 0 1 0
vt -6.9663 -1.4311
vn 0 1 0
vt -3.5456 0.8465
vn 0 1 0
vt -6.9663 0.8465
vn 0 1 0
vt -6.9663 4.518
vn 0 1 0
vt -3.5456 3.124
vn 0 1 0
vt -3.5456 4.518
vn 0 1 0
vt -6.9663 3.124
vn 0 1 0
vt 0.1541 1.5199
vn 0 1 0
vt 1.6488 1.0901
vn 0 1 0
vt 0.8459 1.5199
vn 0 1 0
vt -0.6488 1.0901
vn 0 1 0
vt 0.8459 -0.5199
vn 0 1 0
vt -0.6488 -0.0901
vn 0 1 0
vt 0.1541 -0.5199
vn 0 1 0
vt 1.6488 -0.0901
vn 0 1 0
vt -1.28 0.84
vn 0 1 0
vt -1.28 0.16
vn 0 1 0
vt 2.28 0.16
vn 0 1 0
vt 2.28 0.84
vn 0 1 0
vt -1.28 1.5199
vn 0 1 0
vt 2.28 1.5199
vn 0 1 0
vt 2.28 -0.5199
vn 0 1 0
vt -1.28 -0.5199
vn 0 1 0
vt -0.1347 1.9735
vn 0 1 0
vt 2.6079 1.3525
vn 0 1 0
vt 1.1347 1.9735
vn 0 1 0
vt -1.6079 1.3525
vn 0 1 0
vt 1.1347 -0.9735
vn 0 1 0
vt -1.6079 -0.3525
vn 0 1 0
vt -0.1347 -0.9735
vn 0 1 0
vt 2.6079 -0.3525
vn 0 1 0
vt -2.7659 0.9912
vn 0 1 0
vt -2.7659 0.00880003
vn 0 1 0
vt 3.7659 0.00880003
vn 0 1 0
vt 3.7659 0.9912
vn 0 1 0
vt -2.7659 1.9735
vn 0 1 0
vt 3.7659 1.9735
vn 0 1 0
vt 3.7659 -0.9735
vn 0 1 0
vt -2.7659 -0.9735
vn 0 1 0
vt 0.1541 1.5199
vn 0 1 0
vt 1.6488 1.0901
vn 0 1 0
vt -0.6488 1.0901
vn 0 1 0
vt 0.8459 1.5199
vn 0 1 0
vt 0.8459 -0.5199
vn 0 1 0
vt -0.6488 -0.0901
vn 0 1 0
vt 1.6488 -0.0901
vn 0 1 0
vt 0.1541 -0.5199
vn 0 1 0
vt -1.28 0.84
vn 0 1 0
vt -1.28 0.16
vn 0 1 0
vt 2.28 0.16
vn 0 1 0
vt 2.28 0.84
vn 0 1 0
vt -1.28 1.5199
vn 0 1 0
vt 2.28 1.5199
vn 0 1 0
vt 2.28 -0.5199
vn 0 1 0
vt -1.28 -0.5199
f 1/1/1 2/2/2 3/3/3
f 2/2/2 1/1/1 4/4/4
f 5/5/5 6/6/6 7/7/7
f 6/6/6 5/5/5 8/8/8
f 9/9/9 10/10/10 11/11/11
f 10/10/10 9/9/9 12/12/12
f 11/11/11 8/8/8 5/5/5
f 8/8/8 11/11/11 10/10/10
f 3/3/3 12/13/13 9/14/14
f 12/13/13 3/3/3 2/2/2
f 4/15/15 13/16/16 2/17/17
f 13/16/16 4/15/15 14/18/18
f 8/19/19 15/20/20 6/21/21
f 15/20/20 8/19/19 16/22/22
f 12/23/23 17/24/24 10/25/25
f 17/24/24 12/23/23 18/26/26
f 10/25/25 16/22/22 8/19/19
f 16/22/22 10/25/25 17/24/24
f 2/17/17 18/27/27 12/28/28
f 18/27/27 2/17/17 13/16/16
f 14/29/29 19/30/30 13/31/31
f 19/30/30 14/29/29 20/32/32
f 16/33/33 21/34/34 15/35/35
f 21/34/34 16/33/33 22/36/36
f 18/37/37 23/38/38 17/39/39
f 23/38/38 18/37/37 24/40/40
f 17/39/39 22/36/36 16/33/33
f 22/36/36 17/39/39 23/38/38
f 13/31/31 24/41/41 18/42/42
f 24/41/41 13/31/31 19/30/30
f 19/43/43 1/44/44 3/45/45
f 1/44/44 19/43/43 20/46/46
f 21/47/47 5/48/48 7/49/49
f 5/48/48 21/47/47 22/50/50
f 23/51/51 9/52/52 11/53/53
f 9/52/52 23/51/51 24/54/54
f 22/50/50 11/53/53 5/48/48
f 11/53/53 22/50/50 23/51/51
f 24/55/55 3/45/45 9/56/56
f 3/45/45 24/55/55 19/43/43
f 25/57/57 26/58/58 27/59/59
f 26/58/58 25/57/57 28/60/60
f 29/61/61 30/62/62 31/63/63
f 30/62/62 29/61/61 32/64/64
f 31/63/63 28/60/60 25/57/57
f 28/60/60 31/63/63 30/62/62
f 33/65/65 32/66/66 29/67/67
f 32/66/66 33/65/65 34/68/68
f 28/69/69 35/70/70 26/71/71
f 35/70/70 28/69/69 36/72/72
f 32/73/73 37/74/74 30/75/75
f 37/74/74 32/73/73 38/76/76
f 30/75/75 36/72/72 28/69/69
f 36/72/72 30/75/75 37/74/74
f 34/77/77 38/78/78 32/79/79
f 38/78/78 34/77/77 39/80/80
f 36/81/81 40/82/82 35/83/83
f 40/82/82 36/81/81 41/84/84
f 38/85/85 42/86/86 37/87/87
f 42/86/86 38/85/85 43/88/88
f 37/87/87 41/84/84 36/81/81
f 41/84/84 37/87/87 42/86/86
f 39/89/89 43/90/90 38/91/91
f 43/90/90 39/89/89 44/92/92
f 40/93/93 25/94/94 27/95/95
f 25/94/94 40/93/93 41/96/96
f 42/97/97 29/98/98 31/99/99
f 29/98/98 42/97/97 43/100/100
f 41/96/96 31/99/99 25/94/94
f 31/99/99 41/96/96 42/97/97
f 43/101/101 33/102/102 29/103/103
f 33/102/102 43/101/101 44/104/104
f 45/105/105 46/106/106 47/107/107
f 46/106/106 45/105/105 48/108/108
f 26/58/58 49/109/109 27/59/59
f 49/109/109 26/58/58 50/110/110
f 51/111/111 52/112/112 53/113/113
f 52/112/112 51/111/111 54/114/114
f 50/110/110 53/113/113 49/109/109
f 53/113/113 50/110/110 51/111/111
f 54/115/115 47/107/107 52/116/116
f 47/107/107 54/115/115 45/105/105
f 55/117/117 48/118/118 45/119/119
f 48/118/118 55/117/117 56/120/120
f 35/70/70 50/121/121 26/71/71
f 50/121/121 35/70/70 57/122/122
f 58/123/123 54/124/124 51/125/125
f 54/124/124 58/123/123 59/126/126
f 57/122/122 51/125/125 50/121/121
f 51/125/125 57/122/122 58/123/123
f 59/127/127 45/119/119 54/128/128
f 45/119/119 59/127/127 55/117/117
f 60/129/129 56/130/130 55/131/131
f 56/130/130 60/129/129 61/132/132
f 40/82/82 57/133/133 35/83/83
f 57/133/133 40/82/82 62/134/134
f 63/135/135 59/136/136 58/137/137
f 59/136/136 63/135/135 64/138/138
f 62/134/134 58/137/137 57/133/133
f 58/137/137 62/134/134 63/135/135
f 64/139/139 55/131/131 59/140/140
f 55/131/131 64/139/139 60/129/129
f 46/141/141 60/142/142 47/143/143
f 60/142/142 46/141/141 61/144/144
f 49/145/145 40/93/93 27/95/95
f 40/93/93 49/145/145 62/146/146
f 52/147/147 63/148/148 53/149/149
f 63/148/148 52/147/147 64/150/150
f 53/149/149 62/146/146 49/145/145
f 62/146/146 53/149/149 63/148/148
f 47/143/143 64/151/151 52/152/152
f 64/151/151 47/143/143 60/142/142
f 65/153/153 66/154/154 67/155/155
f 66/154/154 65/153/153 68/156/156
f 69/157/157 6/6/6 70/158/158
f 6/6/6 69/157/157 7/7/7
f 71/159/159 72/160/160 73/161/161
f 72/160/160 71/159/159 74/162/162
f 74/162/162 70/158/158 72/160/160
f 70/158/158 74/162/162 69/157/157
f 68/156/156 73/163/163 66/154/154
f 73/163/163 68/156/156 71/164/164
f 67/165/165 75/166/166 76/167/167
f 75/166/166 67/165/165 66/168/168
f 70/169/169 15/20/20 77/170/170
f 15/20/20 70/169/169 6/21/21
f 73/171/171 78/172/172 79/173/173
f 78/172/172 73/171/171 72/174/174
f 72/174/174 77/170/170 78/172/172
f 77/170/170 72/174/174 70/169/169
f 66/168/168 79/175/175 75/166/166
f 79/175/175 66/168/168 73/176/176
f 76/177/177 80/178/178 81/179/179
f 80/178/178 76/177/177 75/180/180
f 77/181/181 21/34/34 82/182/182
f 21/34/34 77/181/181 15/35/35
f 79/183/183 83/184/184 84/185/185
f 83/184/184 79/183/183 78/186/186
f 78/186/186 82/182/182 83/184/184
f 82/182/182 78/186/186 77/181/181
f 75/180/180 84/187/187 80/178/178
f 84/187/187 75/180/180 79/188/188
f 80/189/189 65/190/190 81/191/191
f 65/190/190 80/189/189 68/192/192
f 21/47/47 69/193/193 82/194/194
f 69/193/193 21/47/47 7/49/49
f 83/195/195 71/196/196 84/197/197
f 71/196/196 83/195/195 74/198/198
f 82/194/194 74/198/198 83/195/195
f 74/198/198 82/194/194 69/193/193
f 84/199/199 68/192/192 80/189/189
f 68/192/192 84/199/199 71/200/200
f 49/109/109 26/58/58 50/110/110
f 26/58/58 49/109/109 27/59/59
f 52/112/112 51/111/111 54/114/114
f 51/111/111 52/112/112 53/113/113
f 53/113/113 50/110/110 51/111/111
f 50/110/110 53/113/113 49/109/109
f 47/107/107 54/115/115 45/105/105
f 54/115/115 47/107/107 52/116/116
f 50/201/201 35/70/70 57/202/202
f 35/70/70 50/201/201 26/71/71
f 54/124/124 58/203/203 59/204/204
f 58/203/203 54/124/124 51/125/125
f 51/125/125 57/202/202 58/203/203
f 57/202/202 51/125/125 50/201/201
f 45/119/119 59/127/127 55/117/117
f 59/127/127 45/119/119 54/128/128
f 57/133/133 85/205/205 62/134/134
f 85/205/205 57/133/133 35/83/83
f 59/136/136 63/135/135 64/138/138
f 63/135/135 59/136/136 58/137/137
f 58/137/137 62/134/134 63/135/135
f 62/134/134 58/137/137 57/133/133
f 55/131/131 64/139/139 60/129/129
f 64/139/139 55/131/131 59/140/140
f 85/206/206 49/145/145 62/146/146
f 49/145/145 85/206/206 27/95/95
f 63/148/148 52/147/147 64/150/150
f 52/147/147 63/148/148 53/149/149
f 62/146/146 53/149/149 63/148/148
f 53/149/149 62/146/146 49/145/145
f 64/151/151 47/143/143 60/142/142
f 47/143/143 64/151/151 52/152/152
f 34/68/68 86/207/207 87/208/208
f 86/207/207 34/68/68 33/65/65
f 26/58/58 25/57/57 28/60/60
f 25/57/57 26/58/58 27/59/59
f 30/62/62 88/209/209 32/64/64
f 88/209/209 30/62/62 31/63/63
f 28/60/60 31/63/63 30/62/62
f 31/63/63 28/60/60 25/57/57
f 32/66/66 33/65/65 34/68/68
f 33/65/65 32/66/66 88/210/210
f 39/80/80 87/211/211 89/212/212
f 87/211/211 39/80/80 34/77/77
f 35/70/70 28/213/213 36/214/214
f 28/213/213 35/70/70 26/71/71
f 37/215/215 32/73/73 38/216/216
f 32/73/73 37/215/215 30/75/75
f 36/214/214 30/75/75 37/215/215
f 30/75/75 36/214/214 28/213/213
f 38/78/78 34/77/77 39/80/80
f 34/77/77 38/78/78 32/79/79
f 44/92/92 89/217/217 90/218/218
f 89/217/217 44/92/92 39/89/89
f 85/205/205 36/81/81 41/84/84
f 36/81/81 85/205/205 35/83/83
f 42/86/86 38/85/85 43/88/88
f 38/85/85 42/86/86 37/87/87
f 41/84/84 37/87/87 42/86/86
f 37/87/87 41/84/84 36/81/81
f 43/90/90 39/89/89 44/92/92
f 39/89/89 43/90/90 38/91/91
f 86/219/219 44/104/104 90/220/220
f 44/104/104 86/219/219 33/102/102
f 25/94/94 85/206/206 41/96/96
f 85/206/206 25/94/94 27/95/95
f 88/221/221 42/97/97 43/100/100
f 42/97/97 88/221/221 31/99/99
f 31/99/99 41/96/96 42/97/97
f 41/96/96 31/99/99 25/94/94
f 33/102/102 43/101/101 44/104/104
f 43/101/101 33/102/102 88/222/222
f 91/223/223 92/224/224 93/225/225
f 92/224/224 91/223/223 94/226/226
f 95/227/227 94/226/226 96/228/228
f 94/226/226 95/227/227 92/224/224
f 97/229/229 92/224/224 95/227/227
f 92/224/224 97/229/229 98/230/230
f 99/231/231 100/232/232 101/233/233
f 100/232/232 99/231/231 102/234/234
f 102/234/234 95/227/227 96/228/228
f 95/227/227 102/234/234 99/231/231
f 99/231/231 97/229/229 95/227/227
f 97/229/229 99/231/231 103/235/235
f 104/236/236 105/237/237 106/238/238
f 105/237/237 104/236/236 107/239/239
f 107/239/239 108/240/240 109/241/241
f 108/240/240 107/239/239 104/236/236
f 104/236/236 97/229/229 108/240/240
f 97/229/229 104/236/236 98/230/230
f 110/242/242 111/243/243 112/244/244
f 111/243/243 110/242/242 113/245/245
f 108/240/240 113/245/245 109/241/241
f 113/245/245 108/240/240 111/243/243
f 97/229/229 111/243/243 108/240/240
f 111/243/243 97/229/229 103/235/235
f 114/246/246 115/247/247 116/248/248
f 115/247/247 114/246/246 117/249/249
f 118/250/250 119/251/251 120/252/252
f 119/251/251 118/250/250 121/253/253
f 122/254/254 119/251/251 117/249/249
f 119/251/251 122/254/254 123/255/255
f 124/256/256 115/247/247 121/253/253
f 115/247/247 124/256/256 125/257/257
f 126/258/258 117/249/249 114/246/246
f 117/249/249 126/258/258 122/254/254
f 127/259/259 115/247/247 125/257/257
f 115/247/247 127/259/259 116/248/248
f 128/260/260 121/253/253 118/250/250
f 121/253/253 128/260/260 124/256/256
f 129/261/261 119/251/251 123/255/255
f 119/251/251 129/261/261 120/252/252
f 130/262/262 131/263/263 132/264/264
f 131/263/263 130/262/262 133/265/265
f 134/266/266 135/267/267 136/268/268
f 135/267/267 134/266/266 137/269/269
f 138/270/270 135/267/267 133/265/265
f 135/267/267 138/270/270 139/271/271
f 140/272/272 131/263/263 137/269/269
f 131/263/263 140/272/272 141/273/273
f 142/274/274 133/265/265 130/262/262
f 133/265/265 142/274/274 138/270/270
f 143/275/275 131/263/263 141/273/273
f 131/263/263 143/275/275 132/264/264
f 144/276/276 137/269/269 134/266/266
f 137/269/269 144/276/276 140/272/272
f 145/277/277 135/267/267 139/271/271
f 135/267/267 145/277/277 136/268/268
f 146/278/278 147/279/279 148/280/280
f 147/279/279 146/278/278 149/281/281
f 150/282/282 151/283/283 152/284/284
f 151/283/283 150/282/282 153/285/285
f 154/286/286 151/283/283 155/287/287
f 151/283/283 154/286/286 148/280/280
f 156/288/288 147/279/279 157/289/289
f 147/279/279 156/288/288 152/284/284
f 158/290/290 148/280/280 154/286/286
f 148/280/280 158/290/290 146/278/278
f 159/291/291 147/279/279 149/281/281
f 147/279/279 159/291/291 157/289/289
f 160/292/292 152/284/284 156/288/288
f 152/284/284 160/292/292 150/282/282
f 161/293/293 151/283/283 153/285/285
f 151/283/283 161/293/293 155/287/287
