#
# Exported by OpenBRF -- marco tarini
#
s fysg_chengmeng.
newmtl fysg_cheng_zhuan
Ka 0.8 0.8 0.8
Kd 0.2 0.2 0.2
usemtl fysg_cheng_zhuan
v -0.401484 10.8176 -2.70453
v -2.12175 9.59583 -2.70453
v -0.796151 11.7938 -2.70453
v -2.9102 10.2923 -2.70452
v -2.91018 10.2923 -14.5915
v -2.12176 9.59583 -14.5915
v -0.796162 11.7938 -14.5915
v -0.401497 10.8176 -14.5915
v -0.401497 10.8176 -13.9248
v 1.47393 11.1026 -13.9248
v 1.47393 11.1026 -14.5915
v 1.4719 12.1385 -14.5915
v -3.14722 7.69134 -13.9248
v -2.12176 9.59583 -13.9248
v -3.14722 7.69134 -14.5915
v -4.17163 7.94959 -14.5915
v 5.06234 9.62168 -13.9248
v 6.10758 7.69134 -13.9249
v 5.06234 9.62168 -14.5915
v 6.10758 7.69134 -14.5915
v 5.84734 10.3234 -14.5915
v 7.13199 7.95089 -14.5915
v 3.33013 10.8279 -13.9248
v 3.33013 10.8279 -14.5915
v 3.71809 11.8061 -14.5915
v 3.33013 10.8279 -14.5915
v 1.47394 11.1026 -2.70453
v 1.47394 11.1026 -3.40942
v -0.401484 10.8176 -3.40942
v 1.47189 12.1385 -2.70453
v -2.12175 9.59583 -3.40942
v -3.14721 7.69134 -2.70452
v -3.14721 7.69134 -3.40942
v -4.17162 7.94959 -2.70452
v 6.10757 7.69134 -2.70454
v 6.10757 7.69134 -3.40943
v 5.06233 9.62168 -2.70454
v 5.06233 9.62168 -3.40943
v 5.84735 10.3234 -2.70454
v 7.13201 7.9509 -2.70454
v 3.33014 10.8279 -2.70453
v 3.33014 10.8279 -3.40943
v 3.7181 11.8061 -2.70453
v 6.10758 -0.0455566 -13.9249
v 6.10758 -0.0455566 -14.5915
v -3.14722 -0.0455566 -13.9248
v -3.14722 -0.0455566 -14.5915
v 6.10757 -0.0455548 -2.70454
v 6.10757 -0.0455548 -3.40943
v -3.14721 -0.0455548 -2.70452
v -3.14721 -0.0455548 -3.40942
v -4.17163 -0.0455566 -14.5915
v 7.13201 -0.0455548 -2.70454
v -4.17162 -0.0455548 -2.70452
v 7.13199 -0.0455566 -14.5915
vn 5.52774e-06 -3.33379e-06 1
vt 0.007117 1.00083
vn 5.52774e-06 -3.33379e-06 1
vt 1.00038 0.019846
vn 0 0 1
vt 0.994766 0.911855
vn 1.00259e-05 -6.04662e-06 1
vt 0.005894 -0.069157
vn 0 0 -1
vt 0.007117 1.00083
vn 0 0 -1
vt 1.00038 0.019846
vn 0 0 -1
vt 0.005894 -0.069157
vn 0 0 -1
vt 0.994766 0.911855
vn 0.311235 -0.950333 0
vt 1.02853 1.75598
vn 0.0525996 -0.998616 0
vt 2.01396 0.910266
vn 0.456636 -0.889654 0
vt 2.01395 1.75598
vn -0.0472592 -0.998883 0
vt 1.02855 0.910266
vn 0 0 -1
vt 0.009766 0.95038
vn 0 0 -1
vt 0.996954 0.100632
vn 0 0 -1
vt 0.011738 0.00722897
vn 0 0 -1
vt 1.00204 0.883202
vn 0.880477 -0.474088 0
vt 1.02851 3.28627
vn 0.800143 -0.59981 0
vt 2.01393 2.53171
vn 0.880477 -0.474088 0
vt 2.01393 3.28627
vn 0.69758 -0.716507 0
vt 1.02852 2.53171
vn 0 0 -1
vt 1.00075 0.071454
vn 0 0 -1
vt 0.003462 1.00323
vn 0 0 -1
vt 1.00767 0.91404
vn 0 0 -1
vt -0.001932 0.010283
vn -0.798288 -0.602276 0
vt 1.02857 -0.707885
vn -0.879359 -0.476159 0
vt 2.01399 -1.47137
vn -0.693656 -0.720307 0
vt 2.01398 -0.707884
vn -0.879359 -0.476159 0
vt 1.02858 -1.47137
vn 0 0 -1
vt -0.001932 0.010283
vn 0 0 -1
vt 1.00767 0.91404
vn 0 0 -1
vt 0.003462 1.00323
vn 0 0 -1
vt 1.00075 0.071454
vn -0.450814 -0.892618 0
vt 1.02856 0.073231
vn -0.306892 -0.951744 0
vt 2.01397 0.073232
vn 0 0 -1
vt 0.005894 -0.069157
vn 0 0 -1
vt 0.994766 0.911855
vn 0 0 -1
vt 0.007117 1.00083
vn 0 0 -1
vt 1.00038 0.019846
vn 0 0 -1
vt 0.011738 0.00722897
vn 0 0 -1
vt 0.996954 0.100632
vn 0.311235 -0.950333 0
vt 4.01283 1.75599
vn 0.0525997 -0.998616 0
vt 3.01861 0.91028
vn -0.0472598 -0.998883 0
vt 4.01284 0.910281
vn 0.456636 -0.889654 0
vt 3.01859 1.75599
vn 0 0 1
vt 0.009766 0.95038
vn 0 0 1
vt 0.996954 0.100632
vn 0 0 1
vt 1.00204 0.883202
vn 0 0 1
vt 0.011738 0.00722897
vn 0.880477 -0.474088 0
vt 4.01281 3.28629
vn 0.800143 -0.599809 0
vt 3.01858 2.53172
vn 0.69758 -0.716507 0
vt 4.01282 2.53172
vn 0.880477 -0.474088 0
vt 3.01857 3.28628
vn 6.37754e-06 -5.8115e-07 1
vt 0.003462 1.00323
vn 6.37754e-06 -5.8115e-07 1
vt 1.00075 0.071454
vn 1.42225e-05 -1.29602e-06 1
vt 1.00767 0.91404
vn 0 0 1
vt -0.001932 0.010283
vn -0.798296 -0.602266 0
vt 4.01287 -0.70787
vn -0.879359 -0.476159 0
vt 3.01864 -1.47135
vn -0.879359 -0.476159 0
vt 4.01287 -1.47135
vn -0.693659 -0.720304 0
vt 3.01863 -0.707871
vn 0 0 1
vt 1.00767 0.91404
vn 0 0 1
vt -0.001932 0.010283
vn 0 0 1
vt 0.003462 1.00323
vn 0 0 1
vt 1.00075 0.071454
vn -0.450817 -0.892616 0
vt 4.01286 0.073246
vn -0.306894 -0.951744 0
vt 3.01862 0.073246
vn 4.22245e-06 -2.94838e-06 1
vt 0.994766 0.911855
vn 4.22245e-06 -2.94838e-06 1
vt 0.005894 -0.069157
vn 4.45895e-06 -1.76848e-06 1
vt 0.007117 1.00083
vn 3.93174e-06 -4.39874e-06 1
vt 1.00038 0.019846
vn 0 0 1
vt 0.011738 0.00722897
vn 0 0 1
vt 0.996954 0.100632
vn -1 0 0
vt 0.992513 1.84299
vn -1 0 0
vt -5.8e-05 0.00490701
vn -1 0 0
vt -5.7e-05 1.84299
vn -1 0 0
vt 0.992513 0.00490701
vn 1 0 0
vt 0.992513 0.00490701
vn 1 0 0
vt -5.8e-05 1.84299
vn 1 0 0
vt -5.8e-05 0.004906
vn 1 0 0
vt 0.992513 1.84299
vn -1 0 0
vt 0.99039 1.8494
vn -1 0 0
vt 0.002055 0.00584298
vn -1 0 0
vt 0.99039 0.00584298
vn -1 0 0
vt 0.002055 1.8494
vn 1 0 0
vt 0.99039 0.00584197
vn 1 0 0
vt 0.002055 1.8494
vn 1 0 0
vt 0.99039 1.8494
vn 1 0 0
vt 0.002055 0.00584197
vn 0 0 -1
vt 0.990538 1.84151
vn 0 0 -1
vt 0.000499 0.000500023
vn 0 0 -1
vt 0.0005 1.92602
vn 0 0 -1
vt 0.990537 0.000500023
vn 0 0 1
vt 0.990538 1.84151
vn 0 0 1
vt 0.000499 0.000500023
vn 0 0 1
vt 0.0005 1.92602
vn 0 0 1
vt 0.990537 0.000500023
vn 0 0 1
vt 0.000499 0.000500023
vn 0 0 1
vt 0.990538 1.84151
vn 0 0 1
vt 0.0005 1.92602
vn 0 0 1
vt 0.990537 0.000500023
vn 0 0 -1
vt 0.000499 0.000500023
vn 0 0 -1
vt 0.990538 1.84151
vn 0 0 -1
vt 0.0005 1.92602
vn 0 0 -1
vt 0.990537 0.000500023
f 3/1/1 2/2/2 1/3/3
f 2/2/2 3/1/1 4/4/4
f 7/5/5 6/6/6 5/7/7
f 6/6/6 7/5/5 8/8/8
f 8/9/9 10/10/10 9/11/11
f 10/10/10 8/9/9 11/12/12
f 12/13/13 8/14/14 7/15/15
f 8/14/14 12/13/13 11/16/16
f 15/17/17 14/18/18 13/19/19
f 14/18/18 15/17/17 6/20/20
f 15/21/21 5/22/22 6/23/23
f 5/22/22 15/21/21 16/24/24
f 19/25/25 18/26/26 17/27/27
f 18/26/26 19/25/25 20/28/28
f 22/29/29 19/30/30 21/31/31
f 19/30/30 22/29/29 20/32/32
f 24/33/33 17/27/27 23/34/34
f 17/27/27 24/33/33 19/25/25
f 21/35/35 26/36/36 25/37/37
f 26/36/36 21/35/35 19/38/38
f 11/12/12 23/34/34 10/10/10
f 23/34/34 11/12/12 24/33/33
f 25/39/39 11/16/16 12/13/13
f 11/16/16 25/39/39 26/40/40
f 6/20/20 9/11/11 14/18/18
f 9/11/11 6/20/20 8/9/9
f 1/41/41 28/42/42 27/43/43
f 28/42/42 1/41/41 29/44/44
f 30/45/45 1/46/46 27/47/47
f 1/46/46 30/45/45 3/48/48
f 32/49/49 31/50/50 2/51/51
f 31/50/50 32/49/49 33/52/52
f 4/53/53 32/54/54 2/55/55
f 32/54/54 4/53/53 34/56/56
f 37/57/57 36/58/58 35/59/59
f 36/58/58 37/57/57 38/60/60
f 37/61/61 40/62/62 39/63/63
f 40/62/62 37/61/61 35/64/64
f 41/65/65 38/60/60 37/57/57
f 38/60/60 41/65/65 42/66/66
f 41/67/67 39/68/68 43/69/69
f 39/68/68 41/67/67 37/70/70
f 27/43/43 42/66/66 41/65/65
f 42/66/66 27/43/43 28/42/42
f 27/47/47 43/71/71 30/45/45
f 43/71/71 27/47/47 41/72/72
f 2/51/51 29/44/44 1/41/41
f 29/44/44 2/51/51 31/50/50
f 20/73/73 44/74/74 18/75/75
f 44/74/74 20/73/73 45/76/76
f 47/77/77 13/78/78 46/79/79
f 13/78/78 47/77/77 15/80/80
f 35/81/81 49/82/82 48/83/83
f 49/82/82 35/81/81 36/84/84
f 50/85/85 33/86/86 32/87/87
f 33/86/86 50/85/85 51/88/88
f 15/89/89 52/90/90 16/91/91
f 52/90/90 15/89/89 47/92/92
f 35/93/93 53/94/94 40/95/95
f 53/94/94 35/93/93 48/96/96
f 54/97/97 32/98/98 34/99/99
f 32/98/98 54/97/97 50/100/100
f 55/101/101 20/102/102 22/103/103
f 20/102/102 55/101/101 45/104/104
