#
# Exported by OpenBRF -- marco tarini
#
s fysg_changjin_fanzi07
newmtl fysg_changjin_diban06
Ka 0.8 0.8 0.8
Kd 0.2 0.2 0.2
usemtl fysg_changjin_diban06
v 6.4599 5.2004 -0.4904
v 6.4599 5.2003 1.1112
v -3.871 5.2004 -0.4904
v -3.871 5.2003 1.1112
v 4.1365 0.2971 3.3027
v -13.7524 -0.0527 3.303
v 4.1365 -0.0527 3.303
v -13.7524 0.2971 3.3027
v -13.7524 0.2973 -6.3217
v 4.1365 -0.0527 -6.3212
v -13.7524 -0.0527 -6.3217
v 4.1365 0.2973 -6.3212
v 4.1247 0.2973 9.5119
v 4.1244 -0.0527 -7.0088
v 4.1244 -0.0527 9.5119
v 4.1247 0.2973 -7.0088
v 13.856 0.2973 9.5119
v 13.8565 -0.0527 9.5119
v 13.856 0.2973 -7.0088
v 13.8565 -0.0527 -7.0088
vn 0 -1 -6.22246e-05
vt 3 0.0575
vn 0 -1 -6.22246e-05
vt 3 0.2533
vn 0 -1 -6.22246e-05
vt 0.0016 0.0581
vn 0 -1 -6.22246e-05
vt 0.0016 0.2533
vn -4.11334e-13 0.000857434 1
vt 1.5807 0.0543
vn -4.11334e-13 0.000857434 1
vt -3.0453 0.00139999
vn -4.11334e-13 0.000857434 1
vt 1.5807 0.00139999
vn -4.11334e-13 0.000857434 1
vt -3.0453 0.0543
vn -0.473767 0 -0.88065
vt -3.0453 0.0543
vn 2.79616e-05 0 -1
vt 1.5807 0.00139999
vn -0.473768 0 -0.88065
vt -3.0453 0.00139999
vn 2.79616e-05 0 -1
vt 1.5807 0.0543
vn -1 0 0
vt -0.1513 0.0543
vn -1 0 0
vt -0.1513 0.00139999
vn -0.861511 0.000738267 0.507738
vt 1.5807 0.0543
vn -1 0.000856944 -9.79996e-14
vt -3.0453 0.00139999
vn -0.861753 0.000738474 0.507328
vt 1.5807 0.00139999
vn -1 0.000856944 -9.79996e-14
vt -3.0453 0.0543
vn 0 0 1
vt 3.8694 0.0543
vn 0 0 1
vt 3.8695 0.00139999
vn 0.999999 0.00142779 4.15346e-13
vt -3.0453 0.0543
vn 0.999999 0.00142779 4.15346e-13
vt 1.5807 0.00139999
vn 0.999999 0.00142779 4.15346e-13
vt -3.0453 0.00139999
vn 0.999999 0.00142779 4.15346e-13
vt 1.5807 0.0543
vn 0 0 -1
vt 1.5807 0.0543
vn 0 0 -1
vt 3.8695 0.00139999
vn 0 0 -1
vt 1.5807 0.00139999
vn 0 0 -1
vt 3.8694 0.0543
f 1/1/1 2/2/2 3/3/3
f 4/4/4 3/3/3 2/2/2
f 5/5/5 6/6/6 7/7/7
f 6/6/6 5/5/5 8/8/8
f 9/9/9 10/10/10 11/11/11
f 10/10/10 9/9/9 12/12/12
f 8/13/13 11/11/11 6/14/14
f 11/11/11 8/13/13 9/9/9
f 13/15/15 14/16/16 15/17/17
f 14/16/16 13/15/15 16/18/18
f 17/19/19 15/17/17 18/20/20
f 15/17/17 17/19/19 13/15/15
f 19/21/21 18/22/22 20/23/23
f 18/22/22 19/21/21 17/24/24
f 16/25/25 20/26/26 14/27/27
f 20/26/26 16/25/25 19/28/28
