#
# Exported by OpenBRF -- marco tarini
#
s fysg_fanzi27.1
newmtl fysg_cheng_di06
Ka 0.8 0.8 0.8
Kd 0.2 0.2 0.2
usemtl fysg_cheng_di06
v 12.5193 9.52 35.4006
v -12.2567 9.52 35.4006
v 12.5193 9.52 23.6182
v -12.2567 9.52 23.6182
v -23.622 9.52 -23.6003
v -23.622 9.52 23.6438
v 23.622 9.52 -23.6003
v 23.622 9.52 23.6438
v 12.5193 9.52 -35.3137
v -12.2567 9.52 -35.3137
v 12.5193 9.52 -23.5312
v -12.2567 9.52 -23.5312
vn 0 1 0
vt -0.654071 3.63358
vn 0 1 0
vt -0.654071 2.60413
vn 0 1 0
vt 1.74976 2.60413
vn 0 1 0
vt 1.74976 3.63358
vn 0 1 0
vt -1.73128 -1.52146
vn 0 1 0
vt 2.85245 -1.52146
vn 0 1 0
vt 2.85245 2.60636
vn 0 1 0
vt -1.73128 2.60636
vn 0 1 0
vt -0.654072 -2.54488
vn 0 1 0
vt 1.74976 -2.54488
vn 0 1 0
vt 1.74976 -1.51542
vn 0 1 0
vt -0.654072 -1.51542
f 1/1/1 3/2/2 4/3/3
f 1/1/1 4/3/3 2/4/4
f 7/5/5 5/6/6 6/7/7
f 7/5/5 6/7/7 8/8/8
f 9/9/9 10/10/10 12/11/11
f 9/9/9 12/11/11 11/12/12
