#
# Exported by OpenBRF -- marco tarini
#
s fysg_fanzi12.1
newmtl fysg_cheng_qiang12
Ka 0.8 0.8 0.8
Kd 0.2 0.2 0.2
usemtl fysg_cheng_qiang12
v -2.2879 0.692249 3.12328
v -3.88045 0.692249 3.12202
v -2.2879 0.0744144 3.12328
v -3.88045 0.0744144 3.12202
v 6.47254 0.692249 3.13026
v 6.47888 0.692249 -4.83228
v 6.47254 0.0744144 3.13026
v 6.47888 0.0744144 -4.83228
v -2.28157 0.692249 -4.83926
v -2.28157 0.0744144 -4.83926
v -3.88997 0.692249 15.0657
v -3.88997 0.0744144 15.0657
v 8.05556 0.692249 15.0752
v 8.06508 0.692249 3.13154
v 8.05556 0.0744144 15.0752
v 8.06508 0.0744144 3.13154
v -3.49151 0.692249 14.6679
v -3.48263 0.692249 3.52047
v -1.89011 0.692249 3.52174
v -1.88375 0.692249 -4.4408
v 6.08044 0.692249 -4.43446
v 6.07408 0.692249 3.52809
v 7.66661 0.692249 3.52935
v 7.65773 0.692249 14.6768
vn 0.00079346 0 -1
vt 0.000499 0.35039
vn 0.00079346 0 -1
vt 0.881826 0.908926
vn 0.00079346 0 -1
vt 0.000499 0.908926
vn 0.00079346 0 -1
vt 0.881826 0.35039
vn 1 0 0.000795572
vt 0.000499 0.35039
vn 1 0 0.000795572
vt 2.92781 0.908926
vn 1 0 0.000795572
vt 0.000499 0.908926
vn 1 0 0.000795572
vt 2.92781 0.35039
vn -1 0 -0.000795722
vt 0.000499 0.35039
vn -1 0 -0.000795722
vt 2.92781 0.908926
vn -1 0 -0.000795722
vt 0.000499 0.908926
vn -1 0 -0.000795722
vt 2.92781 0.35039
vn 0.000796539 0 -1
vt 2.89856 0.354289
vn 0.000796539 0 -1
vt -1.89856 0.902268
vn 0.000796539 0 -1
vt 2.89856 0.902266
vn 0.000796539 0 -1
vt -1.89856 0.354292
vn -1 0 -0.000797137
vt 0.0005 0.35039
vn -1 0 -0.000797137
vt 4.02389 0.908926
vn -1 0 -0.000797137
vt 0.0005 0.908926
vn -1 0 -0.000797137
vt 4.02389 0.35039
vn 1 0 0.000797117
vt 0.0005 0.35039
vn 1 0 0.000797117
vt 4.02389 0.908926
vn 1 0 0.000797117
vt 0.0005 0.908926
vn 1 0 0.000797117
vt 4.02389 0.35039
vn -0.000796436 0 1
vt 0.0005 0.35039
vn -0.000796436 0 1
vt 4.02389 0.908926
vn -0.000796436 0 1
vt 0.0005 0.908926
vn -0.000796436 0 1
vt 4.02389 0.35039
vn 0.000799449 0 -1
vt 0.000499 0.35039
vn 0.000799449 0 -1
vt 0.726636 0.908926
vn 0.000799449 0 -1
vt 0.000499 0.908926
vn 0.000799449 0 -1
vt 0.726636 0.35039
vn 0 1 0
vt 3.88989 1.00538
vn 0 1 0
vt 0.000499 0.909067
vn 0 1 0
vt 0.13462 1.00538
vn 0 1 0
vt 4.02401 0.909066
vn 0 1 0
vt 2.78182 1.0049
vn 0 1 0
vt -0.000648 0.908886
vn 0 1 0
vt -0.147097 1.0049
vn 0 1 0
vt 2.92827 0.908885
vn 0 1 0
vt 2.78182 1.0049
vn 0 1 0
vt -0.000648 0.908886
vn 0 1 0
vt 2.92827 0.908885
vn 0 1 0
vt -0.147097 1.0049
vn 0 1 0
vt 0.54182 1.00458
vn 0 1 0
vt -0.000526 0.909291
vn 0 1 0
vt -0.185229 1.00458
vn 0 1 0
vt 0.726522 0.909291
vn 0 1 0
vt 3.88989 1.00538
vn 0 1 0
vt 0.000499 0.909067
vn 0 1 0
vt 0.13462 1.00538
vn 0 1 0
vt 4.02401 0.909066
vn 0 1 0
vt -0.000526 0.909291
vn 0 1 0
vt 0.54182 1.00458
vn 0 1 0
vt -0.185229 1.00458
vn 0 1 0
vt 0.726522 0.909291
vn 0 1 0
vt 3.88989 1.00538
vn 0 1 0
vt 4.02401 0.909066
vn 0 1 0
vt 1.98348 0.822425
vn 0 1 0
vt -0.947804 0.9995
vn 0 1 0
vt -1.00293 0.822426
vn 0 1 0
vt 1.9478 0.999498
f 3/1/1 2/2/2 1/3/3
f 2/2/2 3/1/1 4/4/4
f 7/5/5 6/6/6 5/7/7
f 6/6/6 7/5/5 8/8/8
f 10/9/9 1/10/10 9/11/11
f 1/10/10 10/9/9 3/12/12
f 8/13/13 9/14/14 6/15/15
f 9/14/14 8/13/13 10/16/16
f 4/17/17 11/18/18 2/19/19
f 11/18/18 4/17/17 12/20/20
f 15/21/21 14/22/22 13/23/23
f 14/22/22 15/21/21 16/24/24
f 12/25/25 13/26/26 11/27/27
f 13/26/26 12/25/25 15/28/28
f 16/29/29 5/30/30 14/31/31
f 5/30/30 16/29/29 7/32/32
f 18/33/33 11/34/34 17/35/35
f 11/34/34 18/33/33 2/36/36
f 20/37/37 1/38/38 19/39/39
f 1/38/38 20/37/37 9/40/40
f 21/41/41 5/42/42 6/43/43
f 5/42/42 21/41/41 22/44/44
f 23/45/45 5/46/46 22/47/47
f 5/46/46 23/45/45 14/48/48
f 17/49/49 13/50/50 24/51/51
f 13/50/50 17/49/49 11/52/52
f 1/53/53 18/54/54 19/55/55
f 18/54/54 1/53/53 2/56/56
f 23/57/57 13/50/50 14/58/58
f 13/50/50 23/57/57 24/51/51
f 9/59/59 21/60/60 6/61/61
f 21/60/60 9/59/59 20/62/62
