#
# Exported by OpenBRF -- marco tarini
#
s qinglongyanyuedao
newmtl sg_long
Ka 0.8 0.8 0.8
Kd 0.2 0.2 0.2
usemtl sg_long
v -0.0492074 -7.7e-06 1.12552
v 0.0008877 0.0071885 1.12552
v 0.0008877 -7.7e-06 1.12552
v 0.0360602 -0.0004059 1.82489
v 0.0360602 0.0030976 1.82488
v -0.0422807 -7.7e-06 1.71824
v 0.127286 0.0058091 1.86616
v 0.127286 -7.7e-06 1.86616
v 0.0628375 -7.7e-06 1.61521
v 0.0627297 -7.7e-06 1.51073
v 0.0627297 0.0081312 1.51073
v 0.0628375 0.0083105 1.61521
v 0.0064251 0.0053889 1.71541
v 0.08085 0.0073315 1.70956
v -0.0012903 0.0044154 1.61521
v 0.08085 5.28e-05 1.70956
v 0.117064 -7.7e-06 1.54627
v 0.0696201 -6.6e-06 1.37737
v 0.0696201 0.008745 1.37737
v 0.117064 0.005863 1.54627
v 0.047344 -7.7e-06 1.12552
v 0.047344 0.0098109 1.12552
v -0.0003564 0.0071885 1.37737
v -0.0626945 -7.59e-05 1.61521
v -0.0644963 5.94e-05 1.5103
v -0.0571835 -2.2e-06 1.37881
v -0.0492074 -2.42e-05 1.12552
v 0.0008877 -2.42e-05 1.12552
v 0.0008877 -0.0072204 1.12552
v 0.0360602 0.000374 1.82489
v -0.0422807 -2.42e-05 1.71824
v 0.0360602 -0.0031295 1.82488
v 0.127286 -0.005841 1.86616
v 0.127286 -2.42e-05 1.86616
v 0.0628375 -2.42e-05 1.61521
v 0.0627297 -0.0081631 1.51073
v 0.0627297 -2.42e-05 1.51073
v 0.0628375 -0.0083424 1.61521
v 0.0064251 -0.0054208 1.71541
v 0.08085 -0.0073634 1.70956
v -0.0012903 -0.0044473 1.61521
v 0.08085 -8.47e-05 1.70956
v 0.117064 -2.42e-05 1.54627
v 0.0696201 -0.0087769 1.37737
v 0.0696201 -2.53e-05 1.37737
v 0.117064 -0.0058949 1.54627
v 0.047344 -0.0098428 1.12552
v 0.047344 -2.42e-05 1.12552
v -0.0003564 -0.0072204 1.37737
v -0.0626945 4.4e-05 1.61521
v -0.0644963 -9.13e-05 1.5103
v -0.0571835 -2.97e-05 1.37881
v -0.0199067 -0.0001375 -1.08466
v -0.0097922 0.0174823 -1.08466
v -0.0098175 -0.0175912 -1.08466
v 0.0110495 0.0184536 -1.08466
v 0.0207691 0.0001254 -1.08466
v 0.0107569 -0.0174581 -1.08466
v 0.011022 0.0184525 -1.08196
v -0.0097922 0.0174823 -1.08196
v 0.0207559 0.0001485 -1.08196
v 0.0110495 0.0184536 -1.08196
v 0.0107701 -0.017435 -1.08196
v 0.0207691 0.0001254 -1.08196
v -0.0097911 -0.0175912 -1.08196
v 0.0107569 -0.0174581 -1.08196
v -0.0198935 -0.0001606 -1.08196
v -0.0098175 -0.0175912 -1.08196
v -0.0098054 0.0174603 -1.08196
v -0.0199067 -0.0001375 -1.08196
v 0.0108097 0.01804 1.00518
v -0.0101035 0.0179014 1.00518
v 0.0210331 3.19e-05 1.00518
v 0.010824 0.0180136 1.00518
v 0.0108526 -0.0177265 1.00518
v 0.0210188 7.7e-06 1.00518
v -0.0099902 -0.0178904 1.00518
v 0.010824 -0.0177265 1.00518
v -0.0203159 2.09e-05 1.00518
v -0.0100045 -0.0178662 1.00518
v -0.0203027 4.51e-05 1.00518
v -0.0101332 0.0178992 1.00518
v -0.0316987 -0.0006908 -1.16945
v -0.0001309 -0.0006908 -1.16945
v -0.0001309 -0.0246664 -1.16945
v -0.0160028 -0.0246664 -1.16945
v -0.0160028 0.0242858 -1.16945
v -0.0001309 0.0242858 -1.16945
v 0.0314369 -0.0006908 -1.16945
v 0.015741 -0.0246664 -1.16945
v 0.015741 0.0242858 -1.16945
v -0.0160028 -0.0246664 -1.15369
v -0.0316987 -0.0006908 -1.15369
v -0.0001309 -0.0246664 -1.15369
v 0.0006094 -0.0563398 0.99809
v 0.0371338 -0.0563398 0.99809
v 0.0371338 -0.0563398 1.01383
v 0.0006094 -0.0563398 1.01383
v 0.0314369 -0.0006908 -1.15369
v 0.015741 -0.0246664 -1.15369
v 0.015741 0.0242858 -1.15369
v -0.0001309 0.0242858 -1.15369
v -0.0160028 0.0242858 -1.15369
v -0.0118965 -0.0183733 -1.1504
v -0.0235323 -0.0005995 -1.1504
v -0.0001309 -0.0183722 -1.1504
v 0.0232705 -0.0005995 -1.1504
v 0.0116358 -0.0183733 -1.1504
v 0.0116358 0.0179168 -1.1504
v -0.0001309 0.0179168 -1.1504
v -0.0118976 0.0179168 -1.1504
v -0.0118965 -0.0183733 -1.13601
v -0.0235323 -0.0005995 -1.13601
v -0.0001309 -0.0183722 -1.13601
v 0.0232705 -0.0005995 -1.13601
v 0.0116358 -0.0183733 -1.13601
v 0.0116358 0.0179168 -1.13601
v -0.0001309 0.0179168 -1.13601
v -0.0118976 0.0179168 -1.13601
v -0.0001309 -0.0250096 0.897038
v -0.0001309 -0.0183722 0.893724
v 0.0116358 -0.0183722 0.893724
v 0.015961 -0.0250096 0.897038
v -0.0162228 -0.0250096 0.897038
v -0.0138435 -0.0232188 0.987267
v -0.0286165 -0.0013871 0.987267
v 0.0010923 -0.0232188 0.987267
v 0.0318747 -0.0007018 0.897038
v 0.0298375 0.0001034 0.987267
v 0.0160248 -0.0224884 0.987267
v 0.015961 0.0246213 0.897038
v 0.0150612 0.022847 0.987267
v -0.0001309 0.0246213 0.897038
v 0.0001265 0.022847 0.987267
v -0.0162228 0.0246213 0.897038
v -0.0148038 0.0220858 0.987267
v -0.0321354 -0.0007018 0.897038
v -0.0118965 -0.0183722 0.893724
v -0.0235323 -0.0005995 0.893724
v 0.0232705 -0.0005995 0.893724
v 0.0116358 0.0179168 0.893724
v -0.0001309 0.0179168 0.893724
v -0.0118976 0.0179168 0.893724
v -0.0001309 -0.0183722 0.89038
v -0.0001078 -0.0183722 0.89038
v 0.0006094 -0.0232188 0.992492
v 0.0155452 -0.0232188 0.992492
v -0.035915 -0.0563398 0.99809
v -0.035915 -0.0563398 1.01383
v -0.0720313 -0.0011682 1.01383
v -0.0720313 -0.0011682 0.99809
v 0.0732523 -0.0011693 0.99809
v 0.0732523 -0.0011682 1.01383
v 0.0371338 0.0563079 0.99809
v 0.0371338 0.0563079 1.01383
v 0.0006094 0.0563079 0.99809
v 0.0006094 0.0563079 1.01383
v -0.035915 0.0563079 0.99809
v -0.035915 0.0563079 1.01383
v -0.0143264 -0.0232188 0.992492
v -0.0290961 -0.0006578 0.992492
v 0.030316 -0.0006578 0.992492
v 0.0155452 0.022847 0.992492
v 0.0006094 0.022847 0.992492
v -0.0143264 0.022847 0.992492
v -0.0177023 -0.02728 -1.12144
v -0.035079 -0.000737 -1.12144
v -0.0001309 -0.02728 -1.12144
v 0.0348172 -0.000737 -1.12144
v 0.0174416 -0.02728 -1.12144
v 0.0174416 0.0269148 -1.12144
v -0.0001309 0.0269148 -1.12144
v -0.0177034 0.0269148 -1.12144
v -0.0177023 -0.02728 -1.09466
v -0.035079 -0.000737 -1.09501
v -0.0001309 -0.02728 -1.09431
v 0.0348172 -0.000737 -1.0942
v 0.0174416 -0.02728 -1.09455
v 0.0174416 0.0269148 -1.09455
v -0.0001309 0.0269148 -1.09431
v -0.0177034 0.0269148 -1.09466
v -0.0118965 -0.0183733 -1.07923
v -0.0235323 -0.0005995 -1.07898
v -0.0001309 -0.0183722 -1.07948
v 0.0232705 -0.0005995 -1.07941
v 0.0116358 -0.0183733 -1.07916
v 0.0116358 0.0179168 -1.07916
v -0.0001309 0.0179168 -1.07948
v -0.0118976 0.0179168 -1.07923
v -0.0235323 -0.0005995 0.89038
v -0.0235092 -0.0006347 0.89038
v -0.0118965 -0.0183722 0.89038
v -0.0118734 -0.0183722 0.89038
v 0.0116358 -0.0183722 0.89038
v 0.0116589 -0.018337 0.89038
v 0.0232705 -0.0005995 0.89038
v 0.0232474 -0.0005632 0.89038
v 0.0116358 0.0179168 0.89038
v 0.0116127 0.0179168 0.89038
v -0.0001309 0.0179168 0.89038
v -0.000154 0.0179168 0.89038
v -0.0118976 0.0179168 0.89038
v -0.0119207 0.0178805 0.89038
v -0.0212663 -0.0213158 1.01592
v -0.0212608 -0.0185317 1.04733
v -0.0212608 -7.7e-06 1.04733
v -0.0212663 -7.7e-06 1.01592
v 0.0510873 -7.7e-06 1.04733
v 0.0510873 -0.0109439 1.04733
v 0.053119 -0.0158697 1.01592
v 0.053119 -7.7e-06 1.01592
v 0.0035453 -0.0001056 1.0164
v 0.0043307 -0.0226116 1.01592
v 0.0043362 -0.0186087 1.04733
v 0.0657536 -0.008987 1.23802
v 0.0657536 -7.7e-06 1.23802
v 0.0507375 -7.7e-06 1.23979
v 0.0507375 -0.008987 1.23979
v -0.0257268 -0.0214896 1.08526
v -0.0257268 -7.7e-06 1.08526
v 0.0629508 -7.7e-06 1.08526
v 0.0629508 -0.0155518 1.08526
v -0.0044891 -0.0214896 1.08526
v -0.0001683 -0.0191884 1.13884
v -0.0001683 -7.7e-06 1.13884
v -0.0143451 -7.7e-06 1.13874
v -0.0143451 -0.0197494 1.13874
v 0.0654995 -7.7e-06 1.11845
v 0.0535249 -7.7e-06 1.1481
v 0.0535249 -0.0119603 1.1481
v 0.0654995 -0.0138006 1.11845
v -0.0001683 -0.0214896 1.11845
v 0.0179586 -0.0173085 1.14664
v 0.0515262 -0.0143297 1.19038
v 0.0515262 -7.7e-06 1.19038
v 0.0179586 -7.7e-06 1.14664
v 0.0819687 -7.7e-06 1.19038
v 0.0819687 -0.0113157 1.19038
v 0.0327778 -0.0170797 1.1481
v 0.0668228 -0.0133419 1.19038
v 0.0821304 -7.7e-06 1.21995
v 0.0821304 -0.0056199 1.21995
v 0.0274516 -7.7e-06 1.01592
v 0.0447194 -0.0235411 1.01592
v 0.0421245 -0.0175175 1.04733
v 0.0411257 -0.0214896 1.11845
v 0.0416405 -0.0214896 1.08608
v 0.027665 -0.0235411 1.01592
v 0.0401247 -0.0322861 1.01901
v 0.0406153 -0.0294448 1.04916
v 0.0252307 -0.0300608 1.04916
v 0.0249018 -0.0322861 1.01901
v 0.0403304 -0.0262779 1.06886
v 0.0258335 -0.0262779 1.06886
v 0.0173129 -0.0214896 1.11845
v 0.0283646 -0.0214896 1.08608
v 0.0227568 -0.0183183 1.04733
v -0.0019118 -0.0143495 1.04702
v -0.0324027 -0.0143495 1.04702
v -0.0324027 -0.0143495 1.01807
v -0.0019118 -0.0143495 1.01807
v -0.0324027 -7.7e-06 1.01807
v 0.0035453 -0.0001056 1.0164
v -0.0488598 -0.0092939 1.01807
v -0.0488367 -0.0092939 1.04702
v -0.0488367 -7.7e-06 1.04702
v -0.0488598 -7.7e-06 1.01807
v -0.0720412 -0.0069465 1.20472
v -0.0530277 -0.0102245 1.21854
v -0.0530277 -0.000924 1.21854
v -0.0720412 -0.000924 1.20472
v -0.042625 -0.0102245 1.21854
v -0.0482768 -0.0102245 1.17873
v -0.0482768 -7.7e-06 1.17873
v -0.042625 -0.000924 1.21854
v -0.0012485 -0.0143495 1.13524
v -0.057871 -0.0143484 1.13524
v -0.0325369 -0.0143495 1.08579
v -0.0019118 -0.0143495 1.08579
v -0.0489698 -0.0092939 1.08579
v -0.0733689 -0.0092939 1.13524
v -0.0733689 -7.7e-06 1.13524
v -0.0489698 -7.7e-06 1.08579
v -0.0019118 -7.7e-06 1.04702
v -0.0019118 -7.7e-06 1.08579
v -0.0337326 -0.0143495 1.14737
v -0.0012485 -7.7e-06 1.13524
v -0.0337326 -7.7e-06 1.14737
v -0.0572484 -0.0102245 1.17873
v -0.0483747 -0.0143484 1.14737
v -0.0646305 -0.0092939 1.14737
v -0.0720412 -0.0092939 1.17873
v -0.0720412 -7.7e-06 1.17873
v -0.0646305 -7.7e-06 1.14737
v -0.0212663 0.0213004 1.01592
v -0.0212608 0.0185163 1.04733
v 0.053119 0.0158554 1.01592
v 0.0510873 0.0109274 1.04733
v 0.0043307 0.0225962 1.01592
v 0.0043362 0.0185944 1.04733
v 0.0657536 0.0089727 1.23802
v 0.0507375 0.0089727 1.23979
v -0.0257268 0.0214742 1.08526
v 0.0629508 0.0155364 1.08526
v -0.0044891 0.0214742 1.08526
v -0.0001683 0.019173 1.13884
v -0.0143451 0.0197351 1.13874
v 0.0654995 0.0137852 1.11845
v 0.0535249 0.011946 1.1481
v -0.0001683 0.0214742 1.11845
v 0.0179586 0.0172931 1.14664
v 0.0515262 0.0151349 1.19038
v 0.0819687 0.0096602 1.19038
v 0.0327778 0.0170643 1.1481
v 0.0668228 0.0141471 1.19038
v 0.0821304 0.0056056 1.21995
v 0.0447194 0.0235257 1.01592
v 0.0421245 0.0175032 1.04733
v 0.0416405 0.0214742 1.08608
v 0.0411257 0.0214742 1.11845
v 0.027665 0.0235257 1.01592
v 0.0401247 0.0322707 1.01901
v 0.0249018 0.0322707 1.01901
v 0.0252307 0.0300454 1.04916
v 0.0406153 0.0294294 1.04916
v 0.0258335 0.0262625 1.06886
v 0.0403304 0.0262625 1.06886
v 0.0173129 0.0214742 1.11845
v 0.0283646 0.0214742 1.08608
v 0.0227568 0.0183029 1.04733
v -0.0019118 0.0143341 1.04702
v -0.0019118 0.0143341 1.01807
v -0.0324027 0.0143341 1.01807
v -0.0324027 0.0143341 1.04702
v -0.0488598 0.0092785 1.01807
v -0.0488367 0.0092785 1.04702
v -0.0720412 0.0050985 1.20472
v -0.0530277 0.0083765 1.21854
v -0.042625 0.0083765 1.21854
v -0.0482768 0.0143341 1.17873
v -0.0012485 0.0143341 1.13524
v -0.0019118 0.0143341 1.08579
v -0.0325369 0.0143341 1.08579
v -0.0578721 0.0143341 1.13524
v -0.0489698 0.0092785 1.08579
v -0.0733689 0.0092785 1.13524
v -0.0337326 0.0143341 1.14737
v -0.0483747 0.0143341 1.14737
v -0.0572484 0.0143341 1.17873
v -0.0646305 0.0092785 1.14737
v -0.0720412 0.0092785 1.17873
vn -0.138524 0.984226 -0.110051
vt 0.750124 0.661488
vn -0.0636523 0.638471 -0.767009
vt 0.722205 0.659536
vn 0 0 -1
vt 0.722205 0.659536
vn -0.483071 0.000211953 0.875581
vt 0.680394 0.975758
vn -0.399935 0.582999 0.707223
vt 0.680394 0.975758
vn -0.107686 0.993417 0.0390713
vt 0.727442 0.93038
vn 0.539586 0.510053 0.669845
vt 0.628241 0.990944
vn 0.62767 0.000128502 0.778479
vt 0.628241 0.990945
vn 0.989985 0 -0.141173
vt 0.672129 0.879496
vn 0.439802 0 0.898095
vt 0.675506 0.832055
vn 0.165355 0.945463 0.280638
vt 0.675506 0.832055
vn 0.651308 0.752666 -0.0963974
vt 0.672129 0.879496
vn -0.0735069 0.996761 0.0326237
vt 0.700387 0.927198
vn 0.650152 0.726583 -0.222213
vt 0.659094 0.921642
vn -0.0695616 0.997563 0.00545644
vt 0.707869 0.881995
vn 0.939178 -9.7998e-07 -0.343431
vt 0.659094 0.921642
vn 0.570933 0 0.820996
vt 0.644096 0.84608
vn 0.964327 0 -0.264715
vt 0.675901 0.771226
vn 0.651409 0.740599 -0.164862
vt 0.675901 0.771226
vn 0.498989 0.488836 0.715576
vt 0.644096 0.84608
vn 0.590216 0 -0.807245
vt 0.696314 0.657726
vn 0.484735 0.551543 -0.678846
vt 0.696314 0.657726
vn -0.0715337 0.997426 0.00489312
vt 0.714901 0.773953
vn -0.0729433 0.997269 0.0115484
vt 0.742091 0.884388
vn -0.0903585 0.995859 0.00998123
vt 0.746426 0.836819
vn -0.125675 0.992033 -0.00873193
vt 0.746526 0.776821
vn -0.138524 -0.984226 -0.110051
vt 0.750124 0.661488
vn 0 0 -1
vt 0.722205 0.659536
vn -0.0636523 -0.638471 -0.767009
vt 0.722205 0.659536
vn -0.483071 -0.000211953 0.875581
vt 0.680394 0.975758
vn -0.107686 -0.993417 0.0390713
vt 0.727442 0.93038
vn -0.399935 -0.582999 0.707223
vt 0.680394 0.975758
vn 0.539587 -0.510053 0.669845
vt 0.628241 0.990944
vn 0.62767 -0.000128502 0.778479
vt 0.628241 0.990945
vn 0.989985 0 -0.141173
vt 0.672129 0.879496
vn 0.165355 -0.945463 0.280638
vt 0.675506 0.832055
vn 0.439802 0 0.898095
vt 0.675506 0.832055
vn 0.651308 -0.752666 -0.0963974
vt 0.672129 0.879496
vn -0.0735069 -0.996761 0.0326237
vt 0.700387 0.927198
vn 0.650152 -0.726583 -0.222213
vt 0.659094 0.921642
vn -0.0695616 -0.997563 0.00545644
vt 0.707869 0.881995
vn 0.939178 9.7998e-07 -0.343431
vt 0.659094 0.921642
vn 0.570933 0 0.820996
vt 0.644096 0.84608
vn 0.651409 -0.740599 -0.164862
vt 0.675901 0.771226
vn 0.964327 0 -0.264715
vt 0.675901 0.771226
vn 0.498989 -0.488836 0.715576
vt 0.644096 0.84608
vn 0.484735 -0.551543 -0.678846
vt 0.696314 0.657726
vn 0.590216 0 -0.807245
vt 0.696314 0.657726
vn -0.0715337 -0.997426 0.00489312
vt 0.714901 0.773953
vn -0.0729433 -0.997269 0.0115484
vt 0.742091 0.884388
vn -0.0903585 -0.995859 0.00998123
vt 0.746426 0.836819
vn -0.125675 -0.992033 -0.00873193
vt 0.746526 0.776821
vn -0.726762 -0.00108333 -0.686889
vt 0.243789 0.245227
vn -0.377212 0.617927 -0.689839
vt 0.208597 0.245227
vn -0.361442 -0.631095 -0.686352
vt 0.208605 0.245227
vn 0.3627 0.63592 -0.681216
vt 0.165477 0.244784
vn 0.724135 -0.0107969 -0.689574
vt 0.126975 0.245227
vn 0.36734 -0.627212 -0.68678
vt 0.165571 0.244784
vn -0.043168 0.999068 -2.94772e-05
vt 0.165486 0.245748
vn -0.512793 0.858512 -9.94314e-05
vt 0.208597 0.246191
vn 0.875964 0.482376 0.000157085
vt 0.126979 0.246191
vn 0.498336 0.866984 0.000181632
vt 0.165477 0.245748
vn 0.868617 -0.495485 -9.45005e-05
vt 0.165567 0.245748
vn 1 0.000791 -9.57467e-05
vt 0.126975 0.246191
vn 0.003254 -0.999995 -0.000126416
vt 0.208597 0.246191
vn 0.504723 -0.863281 -0.000103116
vt 0.165571 0.245748
vn -0.867007 -0.498296 -0.000122731
vt 0.243785 0.246191
vn -0.499768 -0.866159 -0.000126416
vt 0.208605 0.246191
vn -0.862394 0.506238 -0.000154647
vt 0.208602 0.246191
vn -0.999999 0.001005 -0.000153401
vt 0.243789 0.246191
vn 0.508821 0.860872 0.00034484
vt 0.165554 0.991446
vn -0.040439 0.999182 -1.34923e-05
vt 0.208697 0.991889
vn 0.999962 -0.008711 -0.000191439
vt 0.126891 0.991889
vn 0.87455 0.484935 8.22002e-05
vt 0.165549 0.991446
vn 0.501321 -0.865261 -0.000202493
vt 0.16554 0.991446
vn 0.864257 -0.503051 -0.000177947
vt 0.126895 0.991889
vn -0.492245 -0.870457 -0.000249147
vt 0.208661 0.991889
vn 0.003932 -0.999992 -0.00020374
vt 0.165549 0.991446
vn -0.99993 -0.011834 -0.000293309
vt 0.24392 0.991889
vn -0.86368 -0.504041 -0.000207424
vt 0.208665 0.991889
vn -0.873451 0.486911 -0.000338717
vt 0.243916 0.991889
vn -0.534155 0.845387 -0.000385371
vt 0.208706 0.991889
vn -0.732734 -0.00680997 -0.680481
vt 0.347888 0.208421
vn 0 0 -1
vt 0.317436 0.208421
vn 0 -0.631673 -0.775235
vt 0.317436 0.208421
vn -0.343911 -0.6362 -0.690634
vt 0.332747 0.208421
vn -0.350409 0.634062 -0.689332
vt 0.332747 0.208421
vn 0 0.631673 -0.775235
vt 0.317436 0.208421
vn 0.732734 -0.00680997 -0.680481
vt 0.286983 0.208421
vn 0.343911 -0.6362 -0.690634
vt 0.302124 0.208421
vn 0.350409 0.634062 -0.689332
vt 0.302124 0.208421
vn -0.388478 -0.71268 0.5841
vt 0.332747 0.220811
vn -0.81128 -0.00760934 0.584609
vt 0.347888 0.220811
vn 6.51642e-06 -0.776587 0.630011
vt 0.317436 0.220811
vn 0 -0.682852 -0.730557
vt 0.713909 0.540085
vn 0.359353 -0.662531 -0.657205
vt 0.689811 0.540085
vn 0.343909 -0.6362 0.690635
vt 0.689811 0.548547
vn 0 -0.631673 0.775235
vt 0.713909 0.548547
vn 0.811282 -0.00760935 0.584606
vt 0.286983 0.220811
vn 0.388472 -0.712686 0.584095
vt 0.302124 0.220811
vn 0.394659 0.709303 0.584067
vt 0.302124 0.220812
vn 0 0.775114 0.631821
vt 0.317436 0.220812
vn -0.39466 0.709301 0.584069
vt 0.332747 0.220812
vn -0.308298 -0.589212 0.746848
vt 0.328786 0.223398
vn -0.63202 -0.00564366 0.774932
vt 0.34001 0.223398
vn 7.44736e-06 -0.776599 0.629996
vt 0.317436 0.223398
vn 0.632023 -0.00563295 0.774929
vt 0.294861 0.223398
vn 0.30831 -0.589215 0.74684
vt 0.306084 0.223398
vn 0.313147 0.582178 0.750338
vt 0.306084 0.223398
vn 0 0.775114 0.631821
vt 0.317436 0.223398
vn -0.313151 0.582177 0.750337
vt 0.328787 0.223398
vn -0.410794 -0.781396 -0.469753
vt 0.328786 0.234709
vn -0.862776 -0.00762962 -0.505529
vt 0.34001 0.234709
vn -1.07316e-05 -0.925502 -0.378744
vt 0.317436 0.234709
vn 0.862778 -0.00761432 -0.505526
vt 0.294861 0.234709
vn 0.410824 -0.781371 -0.46977
vt 0.306084 0.234709
vn 0.418439 0.775079 -0.473457
vt 0.306084 0.234709
vn 0 0.92442 -0.381376
vt 0.317436 0.234709
vn -0.418442 0.775079 -0.473455
vt 0.328787 0.234709
vn 0 -0.779307 -0.626642
vt 0.713909 0.493695
vn 0 -0.771133 -0.636674
vt 0.713909 0.492042
vn 0.305096 -0.582574 -0.753342
vt 0.706704 0.492042
vn 0.389231 -0.716984 -0.578303
vt 0.704055 0.493695
vn -0.393712 -0.717829 -0.574206
vt 0.723763 0.493695
vn -0.455913 -0.890008 -0.00542572
vt 0.723444 0.534268
vn -0.998091 -0.0571478 -0.0233995
vt 0.733193 0.534268
vn 0.0237605 -0.999529 0.0194118
vt 0.71359 0.534268
vn 0.815125 -0.00784539 -0.579232
vt 0.694311 0.493695
vn 0.998517 0.0400909 -0.0368257
vt 0.694311 0.534268
vn 0.527042 -0.849606 -0.0199112
vt 0.703739 0.534268
vn 0.395555 0.713639 -0.578148
vt 0.704055 0.493695
vn 0.466368 0.88451 -0.0119865
vt 0.704374 0.534268
vn 0.998517 0.0400909 -0.0368257
vt 0.694625 0.534268
vn 0 0.778063 -0.628186
vt 0.713909 0.493695
vn -0.0246084 0.999503 0.0196952
vt 0.714228 0.534268
vn -0.399989 0.714553 -0.573953
vt 0.723765 0.493695
vn -0.533581 0.845603 -0.0157281
vt 0.724081 0.534268
vn -0.821127 -0.00768632 -0.570694
vt 0.733509 0.493695
vn -0.998091 -0.0571478 -0.0233995
vt 0.733509 0.534268
vn -0.305077 -0.582578 -0.753346
vt 0.721114 0.492042
vn -0.62475 -0.00550082 -0.780806
vt 0.728239 0.492042
vn 0.624722 -0.00547939 -0.780828
vt 0.699579 0.492042
vn 0.309845 0.575893 -0.756534
vt 0.706704 0.492042
vn 0 0.769952 -0.638102
vt 0.713909 0.492042
vn -0.309851 0.575911 -0.756518
vt 0.721115 0.492042
vn 0 -1 0
vt 0.713909 0.490373
vn 0 -1 0
vt 0.713894 0.490373
vn 0 -0.682852 -0.730557
vt 0.714289 0.61377
vn 0.0110346 -0.678067 -0.734917
vt 0.71429 0.594198
vn 0.220164 -0.449759 -0.865589
vt 0.705464 0.594198
vn 0.359353 -0.662531 -0.657205
vt 0.692706 0.61377
vn -0.359366 -0.662526 -0.657203
vt 0.738007 0.540085
vn -0.343922 -0.636196 0.690632
vt 0.738007 0.548547
vn -0.732729 -0.00681272 0.680486
vt 0.761836 0.548547
vn -0.759599 -0.00709565 -0.650353
vt 0.761836 0.540085
vn 0.759601 -0.00712066 -0.65035
vt 0.665982 0.540085
vn 0.732732 -0.00679435 0.680483
vt 0.665982 0.548547
vn 0.365751 0.65998 -0.656241
vt 0.689811 0.540085
vn 0.350413 0.634061 0.689331
vt 0.689811 0.548547
vn 0 0.682347 -0.731028
vt 0.713909 0.540085
vn 0 0.631673 0.775235
vt 0.713909 0.548547
vn -0.365759 0.659978 -0.656239
vt 0.738008 0.540085
vn -0.350423 0.634058 0.689329
vt 0.738008 0.548547
vn -0.256594 -0.454599 -0.852936
vt 0.723115 0.594198
vn -0.359366 -0.662526 -0.657203
vt 0.735873 0.61377
vn -0.759599 -0.00709565 -0.650353
vt 0.757215 0.581168
vn -0.468075 0.0152962 -0.883556
vt 0.731843 0.580866
vn 0.466539 -0.0243426 -0.884166
vt 0.696735 0.580866
vn 0.759601 -0.00712066 -0.65035
vt 0.671363 0.581168
vn 0.259401 0.448426 -0.855351
vt 0.705464 0.566976
vn 0.365751 0.65998 -0.656241
vt 0.692706 0.547203
vn -0.0115019 0.677351 -0.73557
vt 0.71429 0.566976
vn 0 0.682347 -0.731028
vt 0.71429 0.547203
vn -0.221526 0.443332 -0.868552
vt 0.723115 0.566976
vn -0.365759 0.659978 -0.656239
vt 0.735873 0.547204
vn 0 0.631673 0.775235
vt 0.712216 0.546093
vn -0.350423 0.634058 0.689329
vt 0.734523 0.546093
vn -0.732729 -0.00681272 0.680486
vt 0.75658 0.581195
vn 0.350413 0.634061 0.689331
vt 0.68991 0.546093
vn 0.732732 -0.00679435 0.680483
vt 0.667852 0.581195
vn -0.442156 -0.808404 -0.388562
vt 0.334386 0.246161
vn -0.915289 -0.00867935 -0.402705
vt 0.351149 0.246161
vn -7.80477e-06 -0.925498 -0.378751
vt 0.317436 0.246161
vn 0.915289 -0.00866865 -0.402704
vt 0.283722 0.246161
vn 0.442174 -0.808397 -0.388556
vt 0.300484 0.246161
vn 0.448788 0.804159 -0.389766
vt 0.300484 0.246161
vn 0 0.92442 -0.381376
vt 0.317436 0.246161
vn -0.448789 0.804158 -0.389768
vt 0.334387 0.246161
vn -0.446548 -0.813025 0.373611
vt 0.334386 0.267209
vn -0.924322 -0.00773944 0.381535
vt 0.351149 0.266934
vn 0.00141052 -0.927203 0.374558
vt 0.317436 0.267487
vn 0.916564 -0.00763623 0.399816
vt 0.283722 0.267572
vn 0.443566 -0.813497 0.376128
vt 0.300484 0.267297
vn 0.452476 0.808129 0.377085
vt 0.300484 0.267297
vn -0.00298789 0.926122 0.377212
vt 0.317436 0.267487
vn -0.452404 0.807628 0.378243
vt 0.334387 0.267209
vn -0.197005 -0.393116 0.898136
vt 0.328786 0.279341
vn -0.435811 -0.000600572 0.900038
vt 0.34001 0.279538
vn 0.0063011 -0.391142 0.920309
vt 0.317436 0.279142
vn 0.425182 5.10768e-05 0.905108
vt 0.294861 0.2792
vn 0.18899 -0.386145 0.90287
vt 0.306084 0.279397
vn 0.199402 0.378981 0.903666
vt 0.306084 0.279397
vn -0.00199255 0.381537 0.924351
vt 0.317436 0.279142
vn -0.200441 0.392897 0.897472
vt 0.328787 0.279341
vn -0.999951 -0.009911 4.93093e-06
vt 0.728239 0.490373
vn -0.83633 -0.548227 -1.1054e-05
vt 0.728225 0.490373
vn -0.475526 -0.879702 -1.24628e-06
vt 0.721114 0.490373
vn 0 -1 0
vt 0.721099 0.490373
vn 0.475047 -0.87996 0
vt 0.706704 0.490373
vn 0.836359 -0.548182 1.1054e-05
vt 0.706689 0.490373
vn 0.999979 -0.006456 1.24628e-06
vt 0.699579 0.490373
vn 0.845216 0.534424 -5.64619e-05
vt 0.699593 0.490373
vn 0.483717 0.875225 -4.93093e-06
vt 0.706704 0.490373
vn 0 1 0
vt 0.706718 0.490373
vn 0 1 0
vt 0.713909 0.490373
vn 0 1 0
vt 0.713923 0.490373
vn -0.481206 0.876608 0
vt 0.721115 0.490373
vn -0.845211 0.534432 5.64619e-05
vt 0.72113 0.490373
vn 0 -0.631673 0.775235
vt 0.712216 0.61489
vn 0.343909 -0.6362 0.690635
vt 0.68991 0.61489
vn -0.343922 -0.636196 0.690632
vt 0.734523 0.61489
vn -0.539495 -0.560729 -0.628114
vt 0.728342 0.549673
vn -0.713253 -0.698262 -0.0608238
vt 0.728339 0.566558
vn -0.996144 0 -0.0877369
vt 0.728339 0.566558
vn -0.625771 0 -0.780007
vt 0.728342 0.549673
vn 0.984609 0 -0.174773
vt 0.674426 0.566558
vn 0.875514 -0.474355 -0.0919904
vt 0.680605 0.566558
vn 0.688678 -0.343604 -0.638481
vt 0.679266 0.549673
vn 0.661499 0 -0.749946
vt 0.673086 0.549673
vn 0.00103644 5.2963e-05 -0.999999
vt 0.711973 0.549929
vn -0.0234468 -0.688341 -0.725009
vt 0.711454 0.549673
vn 0.00154173 -0.999482 0.0321428
vt 0.711451 0.566558
vn 0.303501 -0.541377 0.784091
vt 0.67093 0.667525
vn 0.337117 0 0.941463
vt 0.667067 0.671774
vn -0.602555 0 0.798078
vt 0.680836 0.671952
vn -0.51401 -0.483807 0.708325
vt 0.680836 0.667704
vn -0.732373 -0.680296 0.0287596
vt 0.731286 0.586949
vn -0.997642 0 0.0686324
vt 0.731286 0.586949
vn 0.961028 0 -0.276452
vt 0.6666 0.586949
vn 0.769638 -0.590992 -0.241631
vt 0.67278 0.586949
vn -0.00488722 -0.998905 -0.0465274
vt 0.717273 0.586949
vn -0.0604054 -0.626483 0.777091
vt 0.714422 0.615749
vn -0.139607 0 0.990207
vt 0.714422 0.615749
vn -0.534766 0 0.845
vt 0.723776 0.615698
vn -0.449423 -0.519215 0.726935
vt 0.723776 0.615698
vn 0.975143 0 0.221578
vt 0.664918 0.60479
vn 0.990094 0 -0.140408
vt 0.672818 0.620731
vn 0.665671 -0.745328 -0.0369889
vt 0.678997 0.620731
vn 0.811723 -0.539727 0.223162
vt 0.671098 0.60479
vn -0.0272495 -0.996729 0.0760794
vt 0.714422 0.60479
vn -0.292934 -0.647549 0.70347
vt 0.702464 0.619943
vn -0.493295 -0.79686 0.348818
vt 0.680317 0.643459
vn -0.903952 0 0.427634
vt 0.680317 0.643459
vn -0.467985 0 0.883736
vt 0.702464 0.619943
vn 0.913335 0 -0.407209
vt 0.654052 0.643459
vn 0.744531 -0.625938 -0.232111
vt 0.660231 0.643459
vn 0.0907624 -0.986634 0.135333
vt 0.692687 0.620731
vn 0.130584 -0.989964 0.0540287
vt 0.670223 0.643459
vn 0.879174 0 0.4765
vt 0.653946 0.659355
vn 0.774498 -0.466523 0.427211
vt 0.660125 0.659355
vn -0.00933554 3.34082e-05 -0.999956
vt 0.6962 0.549673
vn 0.496619 -0.430251 -0.753826
vt 0.684807 0.549673
vn 0.838085 -0.542795 0.05465
vt 0.686518 0.566558
vn 0.159194 -0.975888 0.149331
vt 0.687178 0.60479
vn 0.224578 -0.973744 0.0372538
vt 0.686839 0.587387
vn -0.240712 -0.258996 -0.935403
vt 0.69606 0.549673
vn 0.435391 -0.736764 -0.517314
vt 0.687839 0.551333
vn 0.662336 -0.737448 0.13222
vt 0.687515 0.567544
vn -0.625623 -0.770312 0.123348
vt 0.697665 0.567544
vn -0.651744 -0.540322 -0.532242
vt 0.697882 0.551333
vn 0.411828 -0.870698 0.268854
vt 0.687703 0.57813
vn -0.660199 -0.66753 0.344297
vt 0.697267 0.57813
vn 0 -0.993917 0.110128
vt 0.702889 0.60479
vn -0.0664538 -0.992935 0.098309
vt 0.695598 0.587387
vn -0.562161 -0.826825 0.0182915
vt 0.699297 0.566558
vn 0.681678 -0.729119 0.0608373
vt 0.715574 0.56639
vn -0.148434 -0.988922 -0.000331348
vt 0.735689 0.56639
vn -0.0987235 -0.657559 -0.746907
vt 0.735689 0.55083
vn 0.413027 -0.632232 -0.655509
vt 0.715574 0.55083
vn -0.00432506 4.07409e-06 -0.999991
vt 0.735689 0.55083
vn 0.703083 -0.00176566 -0.711106
vt 0.711973 0.549929
vn -0.595811 -0.439983 -0.671881
vt 0.746548 0.55083
vn -0.804025 -0.594594 -0.00159545
vt 0.746533 0.56639
vn -0.999998 0 -0.00198326
vt 0.752326 0.56639
vn -0.632045 0 -0.774932
vt 0.752342 0.55083
vn -0.712178 -0.51037 0.482001
vt 0.756434 0.650397
vn -0.202201 -0.588505 0.7828
vt 0.749298 0.655121
vn -0.217756 0 0.976003
vt 0.752774 0.657824
vn -0.819366 0 0.57327
vt 0.762228 0.650397
vn 0.589115 -0.532322 0.607928
vt 0.742433 0.655121
vn 0.608185 -0.761685 0.223488
vt 0.746163 0.637195
vn 0.977895 0 0.209095
vt 0.746163 0.637195
vn 0.695908 0 0.718131
vt 0.741661 0.657824
vn 0.61651 -0.562359 0.55106
vt 0.715136 0.613815
vn -0.218429 -0.974335 0.0543976
vt 0.752494 0.613815
vn -0.122468 -0.991763 -0.0375236
vt 0.735778 0.587235
vn 0.705215 -0.708958 -0.00712426
vt 0.715574 0.587235
vn -0.727232 -0.631285 -0.269467
vt 0.746621 0.587235
vn -0.860809 -0.500555 0.0919428
vt 0.756925 0.613815
vn -0.993964 0 0.109707
vt 0.762719 0.613815
vn -0.945191 0 -0.326517
vt 0.752414 0.587235
vn 0.991315 -3.98836e-06 0.13151
vt 0.715574 0.56639
vn 0.999949 0 -0.0101015
vt 0.715574 0.587235
vn 0.330049 -0.755022 0.566577
vt 0.736568 0.620337
vn 0.745576 0 0.66642
vt 0.715136 0.613815
vn 0.545771 0 0.837934
vt 0.736568 0.620337
vn -0.0502289 -0.992204 0.11405
vt 0.752083 0.637195
vn -0.0827968 -0.991293 0.102385
vt 0.746228 0.620337
vn -0.693158 -0.68534 0.223251
vt 0.756954 0.620337
vn -0.753118 -0.655627 -0.0544686
vt 0.756821 0.637195
vn -0.985133 0 -0.171792
vt 0.762614 0.637195
vn -0.964083 0 0.265601
vt 0.762747 0.620337
vn -0.539513 0.560722 -0.628105
vt 0.728342 0.549673
vn -0.713269 0.698246 -0.0608251
vt 0.728339 0.566558
vn 0.688674 0.343627 -0.638474
vt 0.679266 0.549673
vn 0.875557 0.474281 -0.0919672
vt 0.680605 0.566558
vn -0.0234416 0.688385 -0.724966
vt 0.711454 0.549673
vn 0.00156273 0.999482 0.0321453
vt 0.711451 0.566558
vn 0.303971 0.534133 0.788863
vt 0.67093 0.667525
vn -0.514284 0.477432 0.71244
vt 0.680836 0.667704
vn -0.732378 0.68029 0.0287584
vt 0.731286 0.586949
vn 0.769633 0.590994 -0.24164
vt 0.67278 0.586949
vn -0.00487922 0.998906 -0.0465176
vt 0.717273 0.586949
vn -0.0603838 0.626473 0.777101
vt 0.714422 0.615749
vn -0.449407 0.519237 0.72693
vt 0.723776 0.615698
vn 0.811725 0.539726 0.223157
vt 0.671098 0.60479
vn 0.668564 0.742143 -0.0473892
vt 0.678997 0.620731
vn -0.0272175 0.996731 0.0760745
vt 0.714422 0.60479
vn -0.295002 0.647925 0.702259
vt 0.702464 0.619943
vn -0.489949 0.801631 0.342545
vt 0.680317 0.643459
vn 0.785492 0.557433 -0.268832
vt 0.660231 0.643459
vn 0.0916071 0.988526 0.120103
vt 0.692687 0.620731
vn 0.202486 0.979188 0.013815
vt 0.670223 0.643459
vn 0.779816 0.460746 0.423793
vt 0.660125 0.659355
vn 0.496593 0.43026 -0.753838
vt 0.684807 0.549673
vn 0.838122 0.542735 0.0546769
vt 0.686518 0.566558
vn 0.224582 0.973743 0.0372488
vt 0.686839 0.587387
vn 0.159194 0.975888 0.149331
vt 0.687178 0.60479
vn -0.240708 0.259061 -0.935386
vt 0.69606 0.549673
vn 0.435387 0.736765 -0.517315
vt 0.687839 0.551333
vn -0.651744 0.540322 -0.532242
vt 0.697882 0.551333
vn -0.625623 0.770312 0.123348
vt 0.697665 0.567544
vn 0.662332 0.737451 0.132222
vt 0.687515 0.567544
vn -0.660199 0.66753 0.344297
vt 0.697267 0.57813
vn 0.411828 0.870698 0.268853
vt 0.687703 0.57813
vn 0 0.993917 0.110128
vt 0.702889 0.60479
vn -0.0664538 0.992935 0.098309
vt 0.695598 0.587387
vn -0.562146 0.826835 0.0182927
vt 0.699297 0.566558
vn 0.681762 0.729067 0.0605041
vt 0.715574 0.566391
vn 0.41467 0.631141 -0.655523
vt 0.715574 0.55083
vn -0.0987244 0.657558 -0.746907
vt 0.735689 0.55083
vn -0.148434 0.988922 -0.000331348
vt 0.735689 0.566391
vn -0.595811 0.439983 -0.671881
vt 0.746548 0.55083
vn -0.804025 0.594594 -0.00159545
vt 0.746533 0.566391
vn -0.732914 0.433486 0.524335
vt 0.756434 0.650397
vn -0.203764 0.523977 0.827
vt 0.749298 0.655121
vn 0.595958 0.476413 0.646425
vt 0.742433 0.655121
vn 0.570265 0.791988 0.218065
vt 0.746163 0.637195
vn 0.616514 0.562356 0.55106
vt 0.715136 0.613815
vn 0.705215 0.708958 -0.00712426
vt 0.715574 0.587235
vn -0.122463 0.991763 -0.0375334
vt 0.735778 0.587235
vn -0.218475 0.974324 0.0544245
vt 0.752494 0.613815
vn -0.727233 0.631278 -0.269481
vt 0.746621 0.587235
vn -0.860824 0.500529 0.0919453
vt 0.756925 0.613815
vn 0.35498 0.759575 0.545008
vt 0.736568 0.620337
vn -0.100965 0.994649 0.0219014
vt 0.746228 0.620337
vn -0.18142 0.98058 0.0744934
vt 0.752083 0.637195
vn -0.693186 0.685308 0.223264
vt 0.756954 0.620337
vn -0.80875 0.583908 -0.0705325
vt 0.756821 0.637195
vn -0.468075 0.0152962 -0.883556
vt 0.733509 0.537076
vn -0.256594 -0.454599 -0.852936
vt 0.723763 0.537076
vn 0.0110346 -0.678067 -0.734917
vt 0.713909 0.537076
vn 0.220164 -0.449759 -0.865589
vt 0.704055 0.537076
vn 0.466539 -0.0243426 -0.884166
vt 0.694311 0.537076
vn 0.259401 0.448426 -0.855351
vt 0.704055 0.537076
vn -0.0115019 0.677351 -0.73557
vt 0.713909 0.537076
vn -0.221526 0.443332 -0.868552
vt 0.723765 0.537076
f 1/1/1 2/2/2 3/3/3
f 4/4/4 5/5/5 6/6/6
f 7/7/7 5/5/5 4/4/4
f 4/4/4 8/8/8 7/7/7
f 9/9/9 10/10/10 11/11/11
f 11/11/11 12/12/12 9/9/9
f 13/13/13 14/14/14 12/12/12
f 15/15/15 13/13/13 12/12/12
f 16/16/16 9/9/9 12/12/12
f 12/12/12 14/14/14 16/16/16
f 17/17/17 18/18/18 19/19/19
f 19/19/19 20/20/20 17/17/17
f 10/10/10 17/17/17 20/20/20
f 20/20/20 11/11/11 10/10/10
f 11/11/11 15/15/15 12/12/12
f 18/18/18 21/21/21 22/22/22
f 23/23/23 15/15/15 11/11/11
f 20/20/20 23/23/23 11/11/11
f 23/23/23 20/20/20 19/19/19
f 23/23/23 19/19/19 22/22/22
f 3/3/3 2/2/2 22/22/22
f 22/22/22 21/21/21 3/3/3
f 22/22/22 19/19/19 18/18/18
f 2/2/2 23/23/23 22/22/22
f 8/8/8 16/16/16 7/7/7
f 7/7/7 16/16/16 14/14/14
f 14/14/14 5/5/5 7/7/7
f 13/13/13 5/5/5 14/14/14
f 5/5/5 13/13/13 6/6/6
f 6/6/6 13/13/13 15/15/15
f 6/6/6 15/15/15 24/24/24
f 24/24/24 15/15/15 25/25/25
f 25/25/25 15/15/15 23/23/23
f 25/25/25 23/23/23 26/26/26
f 26/26/26 23/23/23 1/1/1
f 1/1/1 23/23/23 2/2/2
f 27/27/27 28/28/28 29/29/29
f 30/30/30 31/31/31 32/32/32
f 33/33/33 30/30/30 32/32/32
f 30/30/30 33/33/33 34/34/34
f 35/35/35 36/36/36 37/37/37
f 36/36/36 35/35/35 38/38/38
f 39/39/39 38/38/38 40/40/40
f 41/41/41 38/38/38 39/39/39
f 42/42/42 38/38/38 35/35/35
f 38/38/38 42/42/42 40/40/40
f 43/43/43 44/44/44 45/45/45
f 44/44/44 43/43/43 46/46/46
f 37/37/37 46/46/46 43/43/43
f 46/46/46 37/37/37 36/36/36
f 36/36/36 38/38/38 41/41/41
f 45/45/45 47/47/47 48/48/48
f 49/49/49 36/36/36 41/41/41
f 46/46/46 36/36/36 49/49/49
f 49/49/49 44/44/44 46/46/46
f 49/49/49 47/47/47 44/44/44
f 28/28/28 47/47/47 29/29/29
f 47/47/47 28/28/28 48/48/48
f 47/47/47 45/45/45 44/44/44
f 29/29/29 47/47/47 49/49/49
f 34/34/34 33/33/33 42/42/42
f 33/33/33 40/40/40 42/42/42
f 40/40/40 33/33/33 32/32/32
f 39/39/39 40/40/40 32/32/32
f 32/32/32 31/31/31 39/39/39
f 31/31/31 41/41/41 39/39/39
f 31/31/31 50/50/50 41/41/41
f 50/50/50 51/51/51 41/41/41
f 51/51/51 49/49/49 41/41/41
f 51/51/51 52/52/52 49/49/49
f 52/52/52 27/27/27 49/49/49
f 27/27/27 29/29/29 49/49/49
f 53/53/53 54/54/54 55/55/55
f 56/56/56 57/57/57 54/54/54
f 54/54/54 57/57/57 55/55/55
f 55/55/55 57/57/57 58/58/58
f 59/59/59 56/56/56 60/60/60
f 54/54/54 60/60/60 56/56/56
f 61/61/61 57/57/57 62/62/62
f 56/56/56 62/62/62 57/57/57
f 63/63/63 58/58/58 64/64/64
f 57/57/57 64/64/64 58/58/58
f 65/65/65 55/55/55 66/66/66
f 58/58/58 66/66/66 55/55/55
f 67/67/67 53/53/53 68/68/68
f 55/55/55 68/68/68 53/53/53
f 69/69/69 54/54/54 70/70/70
f 53/53/53 70/70/70 54/54/54
f 62/62/62 59/59/59 71/71/71
f 72/72/72 71/71/71 59/59/59
f 64/64/64 61/61/61 73/73/73
f 74/74/74 73/73/73 61/61/61
f 66/66/66 63/63/63 75/75/75
f 76/76/76 75/75/75 63/63/63
f 68/68/68 65/65/65 77/77/77
f 78/78/78 77/77/77 65/65/65
f 70/70/70 67/67/67 79/79/79
f 80/80/80 79/79/79 67/67/67
f 69/69/69 81/81/81 60/60/60
f 82/82/82 60/60/60 81/81/81
f 59/59/59 60/60/60 72/72/72
f 82/82/82 72/72/72 60/60/60
f 61/61/61 62/62/62 74/74/74
f 71/71/71 74/74/74 62/62/62
f 63/63/63 64/64/64 76/76/76
f 73/73/73 76/76/76 64/64/64
f 65/65/65 66/66/66 78/78/78
f 75/75/75 78/78/78 66/66/66
f 67/67/67 68/68/68 80/80/80
f 77/77/77 80/80/80 68/68/68
f 69/69/69 70/70/70 81/81/81
f 79/79/79 81/81/81 70/70/70
f 56/56/56 59/59/59 62/62/62
f 57/57/57 61/61/61 64/64/64
f 58/58/58 63/63/63 66/66/66
f 55/55/55 65/65/65 68/68/68
f 53/53/53 67/67/67 70/70/70
f 54/54/54 69/69/69 60/60/60
f 83/83/83 84/84/84 85/85/85
f 85/85/85 86/86/86 83/83/83
f 87/87/87 88/88/88 84/84/84
f 84/84/84 83/83/83 87/87/87
f 89/89/89 90/90/90 85/85/85
f 85/85/85 84/84/84 89/89/89
f 91/91/91 89/89/89 84/84/84
f 84/84/84 88/88/88 91/91/91
f 86/86/86 92/92/92 93/93/93
f 93/93/93 83/83/83 86/86/86
f 85/85/85 94/94/94 92/92/92
f 92/92/92 86/86/86 85/85/85
f 95/95/95 96/96/96 97/97/97
f 97/97/97 98/98/98 95/95/95
f 89/89/89 99/99/99 100/100/100
f 100/100/100 90/90/90 89/89/89
f 91/91/91 101/101/101 99/99/99
f 99/99/99 89/89/89 91/91/91
f 88/88/88 102/102/102 101/101/101
f 101/101/101 91/91/91 88/88/88
f 103/103/103 102/102/102 88/88/88
f 88/88/88 87/87/87 103/103/103
f 93/93/93 103/103/103 87/87/87
f 87/87/87 83/83/83 93/93/93
f 92/92/92 104/104/104 105/105/105
f 105/105/105 93/93/93 92/92/92
f 94/94/94 106/106/106 104/104/104
f 104/104/104 92/92/92 94/94/94
f 94/94/94 85/85/85 90/90/90
f 90/90/90 100/100/100 94/94/94
f 99/99/99 107/107/107 108/108/108
f 108/108/108 100/100/100 99/99/99
f 101/101/101 109/109/109 107/107/107
f 107/107/107 99/99/99 101/101/101
f 102/102/102 110/110/110 109/109/109
f 109/109/109 101/101/101 102/102/102
f 103/103/103 111/111/111 110/110/110
f 110/110/110 102/102/102 103/103/103
f 93/93/93 105/105/105 111/111/111
f 111/111/111 103/103/103 93/93/93
f 106/106/106 94/94/94 100/100/100
f 100/100/100 108/108/108 106/106/106
f 104/104/104 112/112/112 113/113/113
f 113/113/113 105/105/105 104/104/104
f 106/106/106 114/114/114 112/112/112
f 112/112/112 104/104/104 106/106/106
f 107/107/107 115/115/115 116/116/116
f 116/116/116 108/108/108 107/107/107
f 109/109/109 117/117/117 115/115/115
f 115/115/115 107/107/107 109/109/109
f 110/110/110 118/118/118 117/117/117
f 117/117/117 109/109/109 110/110/110
f 111/111/111 119/119/119 118/118/118
f 118/118/118 110/110/110 111/111/111
f 105/105/105 113/113/113 119/119/119
f 119/119/119 111/111/111 105/105/105
f 120/120/120 121/121/121 122/122/122
f 122/122/122 123/123/123 120/120/120
f 124/124/124 125/125/125 126/126/126
f 120/120/120 127/127/127 125/125/125
f 128/128/128 129/129/129 130/130/130
f 131/131/131 132/132/132 129/133/133
f 133/134/134 134/135/135 132/132/132
f 135/136/136 136/137/137 134/135/135
f 137/138/138 126/139/139 136/137/137
f 138/140/140 124/124/124 137/138/138
f 137/138/138 139/141/141 138/140/140
f 121/121/121 120/120/120 124/124/124
f 124/124/124 138/140/140 121/121/121
f 140/142/142 128/128/128 123/123/123
f 123/123/123 122/122/122 140/142/142
f 141/143/143 131/131/131 128/128/128
f 128/128/128 140/142/142 141/143/143
f 142/144/144 133/134/134 131/131/131
f 131/131/131 141/143/143 142/144/144
f 143/145/145 135/136/136 133/134/134
f 133/134/134 142/144/144 143/145/145
f 139/141/141 137/138/138 135/136/136
f 135/136/136 143/145/145 139/141/141
f 121/121/121 144/146/146 145/147/147
f 95/148/148 146/149/149 147/150/150
f 147/150/150 96/151/151 95/148/148
f 148/152/152 149/153/153 150/154/154
f 150/154/154 151/155/155 148/152/152
f 95/95/95 98/98/98 149/153/153
f 149/153/153 148/152/152 95/95/95
f 152/156/156 153/157/157 97/97/97
f 97/97/97 96/96/96 152/156/156
f 154/158/158 155/159/159 153/157/157
f 153/157/157 152/156/156 154/158/158
f 156/160/160 157/161/161 155/159/159
f 155/159/159 154/158/158 156/160/160
f 158/162/162 159/163/163 157/161/161
f 157/161/161 156/160/160 158/162/162
f 151/155/155 150/154/154 159/163/163
f 159/163/163 158/162/162 151/155/155
f 160/164/164 148/165/165 151/166/166
f 151/166/166 161/167/167 160/164/164
f 146/149/149 95/148/148 148/165/165
f 148/165/165 160/164/164 146/149/149
f 162/168/168 152/169/169 96/151/151
f 96/151/151 147/150/150 162/168/168
f 163/170/170 154/171/171 152/169/169
f 152/169/169 162/168/168 163/170/170
f 164/172/172 156/173/173 154/171/171
f 154/171/171 163/170/170 164/172/172
f 165/174/174 158/175/175 156/173/173
f 156/173/173 164/172/172 165/174/174
f 161/167/167 151/166/166 158/175/175
f 158/175/175 165/174/174 161/167/167
f 123/123/123 130/130/130 127/127/127
f 157/176/176 159/177/177 150/178/178
f 155/179/179 157/176/176 150/178/178
f 153/180/180 155/179/179 150/178/178
f 112/112/112 166/181/181 167/182/182
f 167/182/182 113/113/113 112/112/112
f 114/114/114 168/183/183 166/181/181
f 166/181/181 112/112/112 114/114/114
f 115/115/115 169/184/184 170/185/185
f 170/185/185 116/116/116 115/115/115
f 117/117/117 171/186/186 169/184/184
f 169/184/184 115/115/115 117/117/117
f 118/118/118 172/187/187 171/186/186
f 171/186/186 117/117/117 118/118/118
f 119/119/119 173/188/188 172/187/187
f 172/187/187 118/118/118 119/119/119
f 113/113/113 167/182/182 173/188/188
f 173/188/188 119/119/119 113/113/113
f 114/114/114 106/106/106 108/108/108
f 108/108/108 116/116/116 114/114/114
f 168/183/183 114/114/114 116/116/116
f 116/116/116 170/185/185 168/183/183
f 166/181/181 174/189/189 175/190/190
f 175/190/190 167/182/182 166/181/181
f 168/183/183 176/191/191 174/189/189
f 174/189/189 166/181/181 168/183/183
f 169/184/184 177/192/192 178/193/193
f 178/193/193 170/185/185 169/184/184
f 171/186/186 179/194/194 177/192/192
f 177/192/192 169/184/184 171/186/186
f 180/195/195 179/194/194 171/186/186
f 171/186/186 172/187/187 180/195/195
f 181/196/196 180/195/195 172/187/187
f 172/187/187 173/188/188 181/196/196
f 167/182/182 175/190/190 181/196/196
f 181/196/196 173/188/188 167/182/182
f 176/191/191 168/183/183 170/185/185
f 170/185/185 178/193/193 176/191/191
f 174/189/189 182/197/197 183/198/198
f 183/198/198 175/190/190 174/189/189
f 176/191/191 184/199/199 182/197/197
f 182/197/197 174/189/189 176/191/191
f 177/192/192 185/200/200 186/201/201
f 186/201/201 178/193/193 177/192/192
f 179/194/194 187/202/202 185/200/200
f 185/200/200 177/192/192 179/194/194
f 180/195/195 188/203/203 187/202/202
f 187/202/202 179/194/194 180/195/195
f 181/196/196 189/204/204 188/203/203
f 188/203/203 180/195/195 181/196/196
f 175/190/190 183/198/198 189/204/204
f 189/204/204 181/196/196 175/190/190
f 184/199/199 176/191/191 178/193/193
f 178/193/193 186/201/201 184/199/199
f 139/141/141 190/205/205 191/206/206
f 138/140/140 192/207/207 193/208/208
f 122/122/122 194/209/209 195/210/210
f 140/142/142 196/211/211 197/212/212
f 141/143/143 198/213/213 199/214/214
f 142/144/144 200/215/215 201/216/216
f 143/145/145 202/217/217 203/218/218
f 98/219/219 97/220/220 153/180/180
f 149/221/221 98/219/219 153/180/180
f 150/178/178 149/221/221 153/180/180
f 204/222/222 205/223/223 206/224/224
f 206/224/224 207/225/225 204/222/222
f 208/226/226 209/227/227 210/228/228
f 210/228/228 211/229/229 208/226/226
f 212/230/230 213/231/231 204/222/222
f 204/222/222 207/225/225 212/230/230
f 214/232/232 205/223/223 204/222/222
f 204/222/222 213/231/231 214/232/232
f 215/233/233 216/234/234 217/235/235
f 217/235/235 218/236/236 215/233/233
f 205/223/223 219/237/237 220/238/238
f 220/238/238 206/224/224 205/223/223
f 208/226/226 221/239/239 222/240/240
f 222/240/240 209/227/227 208/226/226
f 214/232/232 223/241/241 219/237/237
f 219/237/237 205/223/223 214/232/232
f 224/242/242 225/243/243 226/244/244
f 226/244/244 227/245/245 224/242/242
f 228/246/246 229/247/247 230/248/248
f 230/248/248 231/249/249 228/246/246
f 232/250/250 224/242/242 227/245/245
f 233/251/251 234/252/252 235/253/253
f 235/253/253 236/254/254 233/251/251
f 229/247/247 237/255/255 238/256/256
f 238/256/256 230/248/248 229/247/247
f 239/257/257 240/258/258 234/252/252
f 234/252/252 233/251/251 239/257/257
f 234/252/252 218/236/236 217/235/235
f 217/235/235 235/253/253 234/252/252
f 237/255/255 241/259/259 242/260/260
f 242/260/260 238/256/256 237/255/255
f 215/233/233 218/236/236 234/252/252
f 234/252/252 240/258/258 215/233/233
f 243/261/261 211/229/229 210/228/228
f 210/228/228 244/262/262 243/261/261
f 210/228/228 209/227/227 245/263/263
f 245/263/263 244/262/262 210/228/228
f 215/233/233 242/260/260 241/259/259
f 241/259/259 216/234/234 215/233/233
f 222/240/240 231/249/249 246/264/264
f 246/264/264 247/265/265 222/240/240
f 239/257/257 246/264/264 231/249/249
f 231/249/249 230/248/248 239/257/257
f 230/248/248 238/256/256 240/258/258
f 240/258/258 239/257/257 230/248/248
f 240/258/258 238/256/256 242/260/260
f 242/260/260 215/233/233 240/258/258
f 219/237/237 227/245/245 226/244/244
f 226/244/244 220/238/238 219/237/237
f 221/239/239 228/246/246 231/249/249
f 231/249/249 222/240/240 221/239/239
f 223/241/241 232/250/250 227/245/245
f 227/245/245 219/237/237 223/241/241
f 247/265/265 245/263/263 209/227/227
f 209/227/227 222/240/240 247/265/265
f 212/230/230 243/261/261 244/262/262
f 244/262/262 248/266/266 212/230/230
f 249/267/267 250/268/268 251/269/269
f 251/269/269 252/270/270 249/267/267
f 250/268/268 253/271/271 254/272/272
f 254/272/272 251/269/269 250/268/268
f 246/264/264 239/257/257 233/251/251
f 233/251/251 255/273/273 246/264/264
f 247/265/265 246/264/264 255/273/273
f 255/273/273 256/274/274 247/265/265
f 212/230/230 248/266/266 213/231/231
f 213/231/231 248/266/266 257/275/275
f 257/275/275 214/232/232 213/231/231
f 257/275/275 256/274/274 223/241/241
f 223/241/241 214/232/232 257/275/275
f 233/251/251 236/254/254 225/243/243
f 225/243/243 224/242/242 233/251/251
f 233/251/251 224/242/242 232/250/250
f 232/250/250 255/273/273 233/251/251
f 256/274/274 255/273/273 232/250/250
f 232/250/250 223/241/241 256/274/274
f 249/267/267 244/262/262 245/263/263
f 245/263/263 250/268/268 249/267/267
f 252/270/270 248/266/266 244/262/262
f 244/262/262 249/267/267 252/270/270
f 251/269/269 257/275/275 248/266/266
f 248/266/266 252/270/270 251/269/269
f 254/272/272 256/274/274 257/275/275
f 257/275/275 251/269/269 254/272/272
f 253/271/271 247/265/265 256/274/274
f 256/274/274 254/272/272 253/271/271
f 250/268/268 245/263/263 247/265/265
f 247/265/265 253/271/271 250/268/268
f 258/276/276 259/277/277 260/278/278
f 260/278/278 261/279/279 258/276/276
f 261/279/279 260/278/278 262/280/280
f 262/280/280 263/281/281 261/279/279
f 264/282/282 265/283/283 266/284/284
f 266/284/284 267/285/285 264/282/282
f 268/286/286 269/287/287 270/288/288
f 270/288/288 271/289/289 268/286/286
f 272/290/290 273/291/291 274/292/292
f 274/292/292 275/293/293 272/290/290
f 259/277/277 265/283/283 264/282/282
f 264/282/282 260/278/278 259/277/277
f 260/278/278 264/282/282 267/285/285
f 267/285/285 262/280/280 260/278/278
f 269/287/287 272/290/290 275/293/293
f 275/293/293 270/288/288 269/287/287
f 276/294/294 277/295/295 278/296/296
f 278/296/296 279/297/297 276/294/294
f 280/298/298 281/299/299 282/300/300
f 282/300/300 283/301/301 280/298/298
f 279/297/297 258/276/276 284/302/302
f 284/302/302 285/303/303 279/297/297
f 277/295/295 281/299/299 280/298/298
f 280/298/298 278/296/296 277/295/295
f 286/304/304 276/294/294 287/305/305
f 287/305/305 288/306/306 286/304/304
f 286/304/304 273/291/291 289/307/307
f 289/307/307 290/308/308 286/304/304
f 291/309/309 292/310/310 293/311/311
f 293/311/311 294/312/312 291/309/309
f 290/308/308 289/307/307 292/310/310
f 292/310/310 291/309/309 290/308/308
f 277/295/295 276/294/294 286/304/304
f 286/304/304 290/308/308 277/295/295
f 281/299/299 291/309/309 294/312/312
f 294/312/312 282/300/300 281/299/299
f 281/299/299 277/295/295 290/308/308
f 290/308/308 291/309/309 281/299/299
f 276/294/294 279/297/297 285/303/303
f 285/303/303 287/305/305 276/294/294
f 273/291/291 286/304/304 288/306/306
f 288/306/306 274/292/292 273/291/291
f 273/291/291 272/290/290 269/287/287
f 269/287/287 289/307/307 273/291/291
f 292/310/310 268/286/286 271/289/289
f 271/289/289 293/311/311 292/310/310
f 289/307/307 269/287/287 268/286/286
f 268/286/286 292/310/310 289/307/307
f 258/276/276 279/297/297 278/296/296
f 278/296/296 259/277/277 258/276/276
f 265/283/283 280/298/298 283/301/301
f 283/301/301 266/284/284 265/283/283
f 259/277/277 278/296/296 280/298/298
f 280/298/298 265/283/283 259/277/277
f 258/276/276 261/279/279 263/281/281
f 263/281/281 284/302/302 258/276/276
f 295/313/313 207/225/225 206/224/224
f 206/224/224 296/314/314 295/313/313
f 208/226/226 211/229/229 297/315/315
f 297/315/315 298/316/316 208/226/226
f 212/230/230 207/225/225 295/313/313
f 295/313/313 299/317/317 212/230/230
f 300/318/318 299/317/317 295/313/313
f 295/313/313 296/314/314 300/318/318
f 301/319/319 302/320/320 217/235/235
f 217/235/235 216/234/234 301/319/319
f 296/314/314 206/224/224 220/238/238
f 220/238/238 303/321/321 296/314/314
f 208/226/226 298/316/316 304/322/322
f 304/322/322 221/239/239 208/226/226
f 300/318/318 296/314/314 303/321/321
f 303/321/321 305/323/323 300/318/318
f 306/324/324 307/325/325 226/244/244
f 226/244/244 225/243/243 306/324/324
f 228/246/246 308/326/326 309/327/327
f 309/327/327 229/247/247 228/246/246
f 306/324/324 310/328/328 307/325/325
f 311/329/329 236/254/254 235/253/253
f 235/253/253 312/330/330 311/329/329
f 229/247/247 309/327/327 313/331/331
f 313/331/331 237/255/255 229/247/247
f 314/332/332 311/329/329 312/330/330
f 312/330/330 315/333/333 314/332/332
f 312/330/330 235/253/253 217/235/235
f 217/235/235 302/320/320 312/330/330
f 237/255/255 313/331/331 316/334/334
f 316/334/334 241/259/259 237/255/255
f 301/319/319 315/333/333 312/330/330
f 312/330/330 302/320/320 301/319/319
f 243/261/261 317/335/335 297/315/315
f 297/315/315 211/229/229 243/261/261
f 297/315/315 317/335/335 318/336/336
f 318/336/336 298/316/316 297/315/315
f 301/319/319 216/234/234 241/259/259
f 241/259/259 316/334/334 301/319/319
f 304/322/322 319/337/337 320/338/338
f 320/338/338 308/326/326 304/322/322
f 314/332/332 309/327/327 308/326/326
f 308/326/326 320/338/338 314/332/332
f 309/327/327 314/332/332 315/333/333
f 315/333/333 313/331/331 309/327/327
f 315/333/333 301/319/319 316/334/334
f 316/334/334 313/331/331 315/333/333
f 303/321/321 220/238/238 226/244/244
f 226/244/244 307/325/325 303/321/321
f 221/239/239 304/322/322 308/326/326
f 308/326/326 228/246/246 221/239/239
f 305/323/323 303/321/321 307/325/325
f 307/325/325 310/328/328 305/323/323
f 319/337/337 304/322/322 298/316/316
f 298/316/316 318/336/336 319/337/337
f 212/230/230 321/339/339 317/335/335
f 317/335/335 243/261/261 212/230/230
f 322/340/340 323/341/341 324/342/342
f 324/342/342 325/343/343 322/340/340
f 325/343/343 324/342/342 326/344/344
f 326/344/344 327/345/345 325/343/343
f 320/338/338 328/346/346 311/329/329
f 311/329/329 314/332/332 320/338/338
f 319/337/337 329/347/347 328/346/346
f 328/346/346 320/338/338 319/337/337
f 321/339/339 212/230/230 299/317/317
f 299/317/317 300/318/318 330/348/348
f 330/348/348 321/339/339 299/317/317
f 330/348/348 300/318/318 305/323/323
f 305/323/323 329/347/347 330/348/348
f 311/329/329 306/324/324 225/243/243
f 225/243/243 236/254/254 311/329/329
f 311/329/329 328/346/346 310/328/328
f 310/328/328 306/324/324 311/329/329
f 329/347/347 305/323/323 310/328/328
f 310/328/328 328/346/346 329/347/347
f 322/340/340 325/343/343 318/336/336
f 318/336/336 317/335/335 322/340/340
f 323/341/341 322/340/340 317/335/335
f 317/335/335 321/339/339 323/341/341
f 324/342/342 323/341/341 321/339/339
f 321/339/339 330/348/348 324/342/342
f 326/344/344 324/342/342 330/348/348
f 330/348/348 329/347/347 326/344/344
f 327/345/345 326/344/344 329/347/347
f 329/347/347 319/337/337 327/345/345
f 325/343/343 327/345/345 319/337/337
f 319/337/337 318/336/336 325/343/343
f 331/349/349 332/350/350 333/351/351
f 333/351/351 334/352/352 331/349/349
f 332/350/350 263/281/281 262/280/280
f 262/280/280 333/351/351 332/350/350
f 335/353/353 267/285/285 266/284/284
f 266/284/284 336/354/354 335/353/353
f 337/355/355 271/289/289 270/288/288
f 270/288/288 338/356/356 337/355/355
f 339/357/357 275/293/293 274/292/292
f 274/292/292 340/358/358 339/357/357
f 334/352/352 333/351/351 335/353/353
f 335/353/353 336/354/354 334/352/352
f 333/351/351 262/280/280 267/285/285
f 267/285/285 335/353/353 333/351/351
f 338/356/356 270/288/288 275/293/293
f 275/293/293 339/357/357 338/356/356
f 341/359/359 342/360/360 343/361/361
f 343/361/361 344/362/362 341/359/359
f 345/363/363 283/301/301 282/300/300
f 282/300/300 346/364/364 345/363/363
f 342/360/360 285/303/303 284/302/302
f 284/302/302 331/349/349 342/360/360
f 344/362/362 343/361/361 345/363/363
f 345/363/363 346/364/364 344/362/362
f 347/365/365 288/306/306 287/305/305
f 287/305/305 341/359/359 347/365/365
f 347/365/365 348/366/366 349/367/367
f 349/367/367 340/358/358 347/365/365
f 350/368/368 294/312/312 293/311/311
f 293/311/311 351/369/369 350/368/368
f 348/366/366 350/368/368 351/369/369
f 351/369/369 349/367/367 348/366/366
f 344/362/362 348/366/366 347/365/365
f 347/365/365 341/359/359 344/362/362
f 346/364/364 282/300/300 294/312/312
f 294/312/312 350/368/368 346/364/364
f 346/364/364 350/368/368 348/366/366
f 348/366/366 344/362/362 346/364/364
f 341/359/359 287/305/305 285/303/303
f 285/303/303 342/360/360 341/359/359
f 340/358/358 274/292/292 288/306/306
f 288/306/306 347/365/365 340/358/358
f 340/358/358 349/367/367 338/356/356
f 338/356/356 339/357/357 340/358/358
f 351/369/369 293/311/311 271/289/289
f 271/289/289 337/355/355 351/369/369
f 349/367/367 351/369/369 337/355/355
f 337/355/355 338/356/356 349/367/367
f 331/349/349 334/352/352 343/361/361
f 343/361/361 342/360/360 331/349/349
f 336/354/354 266/284/284 283/301/301
f 283/301/301 345/363/363 336/354/354
f 334/352/352 336/354/354 345/363/363
f 345/363/363 343/361/361 334/352/352
f 331/349/349 284/302/302 263/281/281
f 263/281/281 332/350/350 331/349/349
f 145/147/147 194/209/209 122/122/122
f 122/122/122 121/121/121 145/147/147
f 139/141/141 191/206/206 192/207/207
f 192/207/207 138/140/140 139/141/141
f 144/146/146 121/121/121 138/140/140
f 138/140/140 193/208/208 144/146/146
f 122/122/122 195/210/210 196/211/211
f 196/211/211 140/142/142 122/122/122
f 140/142/142 197/212/212 198/213/213
f 198/213/213 141/143/143 140/142/142
f 141/143/143 199/214/214 200/215/215
f 200/215/215 142/144/144 141/143/143
f 142/144/144 201/216/216 202/217/217
f 202/217/217 143/145/145 142/144/144
f 190/205/205 139/141/141 143/145/145
f 143/145/145 203/218/218 190/205/205
f 161/370/370 126/126/126 125/125/125
f 125/125/125 160/371/371 161/370/370
f 137/138/138 124/124/124 126/126/126
f 160/371/371 125/125/125 127/127/127
f 127/127/127 146/372/372 160/371/371
f 125/125/125 124/124/124 120/120/120
f 147/373/373 130/130/130 129/129/129
f 129/129/129 162/374/374 147/373/373
f 123/123/123 128/128/128 130/130/130
f 162/374/374 129/133/133 132/132/132
f 132/132/132 163/375/375 162/374/374
f 129/133/133 128/128/128 131/131/131
f 163/375/375 132/132/132 134/135/135
f 134/135/135 164/376/376 163/375/375
f 132/132/132 131/131/131 133/134/134
f 164/376/376 134/135/135 136/137/137
f 136/137/137 165/377/377 164/376/376
f 134/135/135 133/134/134 135/136/136
f 126/139/139 161/370/370 165/377/377
f 165/377/377 136/137/137 126/139/139
f 136/137/137 135/136/136 137/138/138
f 127/127/127 120/120/120 123/123/123
f 130/130/130 147/373/373 146/372/372
f 146/372/372 127/127/127 130/130/130
f 184/199/199 186/201/201 185/200/200
f 182/197/197 184/199/199 185/200/200
f 185/200/200 187/202/202 188/203/203
f 182/197/197 185/200/200 188/203/203
f 182/197/197 188/203/203 189/204/204
f 182/197/197 189/204/204 183/198/198
