#
# Exported by OpenBRF -- marco tarini
#
s wushuang_weapon_haolongdanqiang
newmtl wushuang_weapon_haolongdanqiang
Ka 0.8 0.8 0.8
Kd 0.2 0.2 0.2
usemtl wushuang_weapon_haolongdanqiang
v -0.000783 0.006972 -1.56258
v -0.0287 0.001566 -1.5625
v -0.001415 0.000258 -1.6535
v -0.000937 0.000258 -1.47446
v -0.001562 -0.006457 -1.56257
v 0.026355 -0.001051 -1.56265
v 0.006382 -0.014829 1.23047
v 0.044052 -0.016485 1.21287
v 0.00635 -0.035386 1.184
v 0.044668 -0.017563 1.16405
v 0.006158 -0.017738 1.14213
v -0.032235 -0.017913 1.16426
v -0.031366 -0.016828 1.21308
v 0.005993 0.018376 1.14213
v 0.006025 0.036024 1.184
v -0.032399 0.018201 1.16426
v 0.044504 0.018551 1.16405
v 0.043897 0.017466 1.21287
v 0.006244 0.015467 1.23047
v -0.03152 0.017123 1.21308
v -0.026198 0.032617 1.07824
v 0.005947 0.000258 1.09447
v -0.025902 -0.032393 1.07824
v 0.038005 -0.032102 1.07807
v -0.043476 -0.021267 0.99624
v 0.005876 -0.042343 0.99566
v -0.021138 -0.041185 0.97257
v -0.018366 -0.052133 1.01
v -0.055172 -2e-05 1.0324
v -0.017636 -0.048949 1.06614
v -0.060495 -4.4e-05 1.04881
v 0.029825 -0.048732 1.06602
v 0.072143 0.00056 1.04845
v 0.066732 0.000535 1.03207
v -0.071509 -9.4e-05 0.99903
v 0.030282 -0.051911 1.00987
v 0.055036 -0.020819 0.99598
v 0.032753 -0.04094 0.97243
v 0.08289 0.000609 0.99862
v 0.037709 0.032908 1.07807
v -0.04367 0.021334 0.99624
v 0.029806 0.052648 1.00988
v -0.018842 0.052427 1.01001
v 0.005488 0.042859 0.99566
v 0.029378 0.049464 1.06602
v -0.018083 0.049248 1.06615
v -0.021514 0.041455 0.97257
v 0.054842 0.021782 0.99598
v 0.032376 0.041701 0.97243
v 0.005682 0.000258 0.99566
v -0.060105 6.2e-05 1.3934
v -0.082182 0.011789 1.30947
v -0.05754 0.000106 1.26558
v -0.058705 0.011897 1.23757
v 0.070581 0.000689 1.26524
v -0.092009 -5.2e-05 1.33694
v -0.099004 -8.3e-05 1.26773
v -0.081197 -6.5e-05 1.22672
v -0.03797 0.000132 1.17606
v 0.050456 0.000535 1.17582
v 0.071413 0.012489 1.23722
v 0.095123 0.012596 1.30899
v 0.073605 0.00067 1.39304
v 0.105205 0.000846 1.33641
v 0.112056 0.000878 1.26716
v 0.093954 0.000732 1.22625
v -0.082075 -0.011803 1.30947
v -0.058598 -0.011695 1.23757
v 0.071521 -0.011103 1.23722
v 0.095231 -0.010996 1.30899
v -0.072387 1.5e-05 1.21245
v -0.047477 0.022674 1.25233
v -0.047273 -0.022262 1.25233
v -0.072077 -0.020238 1.25918
v -0.071357 0.00856 1.29378
v -0.07128 -0.008366 1.29378
v -0.072252 0.018235 1.25918
v -0.013423 -0.018694 1.3225
v 0.006704 -0.017873 1.34515
v -0.006732 -0.017541 1.30756
v -0.015237 -0.017295 1.35427
v -0.024533 -0.008155 1.3235
v -0.030291 -0.002309 1.33939
v 0.03379 -0.0174 1.27136
v -0.020781 -0.017649 1.27151
v 0.019935 -0.017419 1.30749
v 0.026715 -0.018511 1.32239
v 0.028688 -0.017095 1.35415
v 0.037735 -0.007871 1.32333
v 0.043524 -0.001973 1.33919
v -0.021259 -0.018254 1.09296
v 0.045505 -0.01795 1.07305
v -0.033557 -0.01831 1.07326
v 0.033312 -0.018006 1.09282
v -0.040921 -0.018344 1.11611
v 0.053099 -0.017916 1.11586
v -0.048521 -0.018379 1.15271
v 0.060895 -0.017881 1.15242
v -0.042133 -0.017743 1.20323
v 0.054774 -0.017302 1.20297
v 0.084915 0.000731 1.21203
v 0.060219 -0.021773 1.25204
v 0.049131 -0.006687 1.28366
v 0.071663 -0.011638 1.26813
v 0.085044 -0.020332 1.25876
v 0.070352 -0.010082 1.28281
v 0.084321 -0.007658 1.29336
v 0.064071 0.000713 1.29149
v 0.074491 0.00076 1.31745
v 0.056356 0.000678 1.28478
v 0.060705 -0.00704 1.27899
v 0.028527 0.0182 1.35415
v 0.037657 0.009172 1.32333
v 0.0435 0.003403 1.33919
v 0.026544 0.019136 1.32239
v 0.006537 0.018774 1.34515
v 0.019771 0.018442 1.30749
v -0.020945 0.018302 1.27151
v -0.006896 0.018321 1.30756
v -0.013594 0.018954 1.3225
v -0.015398 0.018 1.35427
v -0.024611 0.008889 1.3235
v -0.030315 0.003067 1.33939
v -0.051118 0.000189 1.2918
v -0.061384 -0.0029 1.31782
v -0.057445 0.010983 1.28316
v -0.058835 0.012539 1.26848
v -0.03622 0.007588 1.28388
v -0.042296 0.01794 1.20323
v 0.033626 0.01855 1.27136
v -0.043438 0.000224 1.28505
v -0.047819 0.007942 1.27928
v 0.033144 0.018892 1.09282
v -0.033725 0.018588 1.07326
v 0.045337 0.018948 1.07305
v -0.021426 0.018644 1.09296
v 0.052931 0.018982 1.11586
v -0.041089 0.018554 1.11611
v 0.060727 0.019017 1.15242
v -0.048689 0.018519 1.15271
v 0.054612 0.018381 1.20297
v 0.060014 0.023163 1.25204
v 0.049064 0.007976 1.28366
v 0.07155 0.013133 1.26813
v 0.084865 0.01895 1.25876
v 0.084244 0.009268 1.29336
v 0.070253 0.011564 1.28281
v 0.060635 0.008435 1.27899
v -0.036153 -0.007075 1.28388
v -0.058722 -0.012231 1.26848
v -0.057346 -0.010663 1.28316
v -0.047748 -0.007534 1.27928
v 0.037025 0.016894 1.75079
v 0.007806 0.01676 1.81366
v 0.027953 0.016853 1.71217
v 0.028131 0.016859 1.25632
v -0.015515 0.016661 1.25644
v -0.012886 0.016667 1.71228
v -0.02175 0.016626 1.75095
v 0.054271 0.000661 1.72343
v 0.046128 0.000629 1.26042
v 0.062664 0.000698 1.7662
v 0.008038 0.000258 1.87192
v -0.047157 0.000199 1.76649
v -0.038995 0.000236 1.72369
v -0.033341 0.000268 1.26064
v 0.028103 -0.016032 1.71217
v 0.02828 -0.016026 1.25632
v 0.037174 -0.015992 1.75079
v 0.007956 -0.016125 1.81366
v -0.0216 -0.016259 1.75095
v -0.012736 -0.016218 1.71228
v -0.015366 -0.016225 1.25644
v -4.5e-05 -0.035406 -1.4992
v -0.000512 -0.020847 -1.52764
v -0.037866 -0.011623 -1.4991
v -0.022893 -0.006773 -1.52758
v 0.036451 -0.009903 -1.4993
v 0.021085 -0.005755 -1.5277
v -0.024744 0.028578 -1.49914
v -0.015128 0.017017 -1.5276
v 0.021187 0.029642 -1.49926
v 0.012052 0.017646 -1.52767
v 0.016854 -0.004533 -1.42524
v 0.034383 -0.009316 -1.46431
v -0.000354 -0.016557 -1.42519
v -7e-06 -0.033348 -1.46422
v -0.035645 -0.010938 -1.46413
v -0.018185 -0.005344 -1.42514
v 0.019999 0.027946 -1.46428
v 0.009656 0.014112 -1.42522
v -0.011999 0.01361 -1.42516
v -0.02328 0.026944 -1.46416
v 0.028697 -0.007836 -1.55013
v 0.016537 0.023665 -1.5501
v -0.000376 -0.028152 -1.55005
v -0.030503 -0.009207 -1.54997
v -0.020051 0.022818 -1.55
v 0.000248 -0.020316 -1.3165
v 0.022028 0.000539 -0.943528
v 0.02113 0.000513 -1.31655
v -0.018458 -0.000749 -0.197367
v 0.003231 -0.020034 -0.197425
v 0.002733 -0.020081 -0.383937
v 0.023376 0.000578 -0.383992
v 0.022926 0.000565 -0.570504
v 0.002236 -0.020128 -0.570449
v 0.001242 -0.020222 -0.943473
v -0.021743 -0.000845 -1.31644
v -0.020649 -0.000813 -0.943414
v -0.001143 0.019162 -1.31649
v -0.019006 -0.000765 -0.383879
v -0.019554 -0.000781 -0.570391
v 0.000857 0.019009 -0.570445
v -0.000144 0.019085 -0.943469
v 0.001357 0.018971 -0.383933
v 0.023826 0.000591 -0.19748
v 0.001859 0.018933 -0.197422
v 0.005077 -0.019911 0.492283
v -0.015492 -0.000686 0.8372
v 0.006002 -0.01985 0.83714
v -0.016482 -0.000707 0.492341
v 0.004615 -0.019942 0.319856
v -0.016976 -0.000717 0.319914
v 0.003713 0.018834 0.492286
v 0.003249 0.018859 0.31986
v -0.017471 -0.000728 0.147487
v 0.004153 -0.019972 0.147429
v 0.003692 -0.020003 -0.024998
v 0.004641 0.018785 0.83714
v 0.02641 0.000642 0.83708
v 0.025548 0.000625 0.492228
v 0.025117 0.000616 0.319801
v 0.002785 0.018884 0.147432
v -0.017964 -0.000738 -0.02494
v 0.024256 0.000599 -0.025053
v 0.024686 0.000608 0.147374
v 0.047701 -0.004819 1.00422
v 0.004497 0.034791 1.00433
v -0.03543 -0.007453 1.00444
v 0.007186 -0.039635 1.00433
v 0.002322 0.018908 -0.024995
v -0.000883 0.000258 -1.45433
v 0.000563 -0.034402 -1.39457
v 0.035786 -0.009309 -1.39467
v -0.036439 -0.011597 -1.39448
v 0.000243 -0.020613 -1.32277
v -0.022064 -0.001052 -1.32271
v 0.021426 0.000326 -1.32283
v 0.020554 0.029005 -1.39463
v -0.001169 0.019456 -1.32277
v -0.024083 0.027591 -1.39451
v 0.000254 -0.020925 -1.32282
v 0.021456 0.000431 -1.31137
v 0.021755 0.000345 -1.32288
v 0.000273 -0.020613 -1.31132
v -0.022387 -0.001054 -1.32276
v -0.022034 -0.000947 -1.31126
v -0.001178 0.019654 -1.32282
v -0.001138 0.019401 -1.31131
v -0.050542 -0.042054 0.97647
v -0.011462 -0.049046 1.02639
v -0.009171 -0.041866 1.01762
v -0.035591 -0.041985 0.92006
v -0.041989 -0.049184 0.91367
v -0.059264 -0.049263 0.97884
v -0.013818 -0.041887 1.03515
v -0.068051 -0.042133 0.98121
v -0.048452 -0.042043 0.90727
v 0.005582 -0.041797 0.88733
v 0.005638 -0.048967 0.89609
v 0.053359 -0.04875 0.91341
v 0.059722 -0.041551 0.90698
v 0.070984 -0.04867 0.97849
v 0.079718 -0.041461 0.98081
v 0.025776 -0.041707 1.03505
v 0.023438 -0.048887 1.02629
v 0.021035 -0.041728 1.01754
v 0.062185 -0.041541 0.97617
v 0.04693 -0.041609 0.91984
v 0.005629 -0.041797 0.90485
v -0.011527 -0.034707 1.02639
v -0.059329 -0.034924 0.97884
v -0.042054 -0.034845 0.91367
v 0.005573 -0.034628 0.89609
v 0.053294 -0.034411 0.91341
v 0.070919 -0.034331 0.97849
v 0.023373 -0.034548 1.02629
v -0.050925 0.041907 0.97647
v -0.011844 0.034915 1.02639
v -0.009553 0.042095 1.01762
v -0.035974 0.041976 0.92007
v -0.042371 0.034777 0.91367
v -0.059646 0.034698 0.97884
v -0.0142 0.042074 1.03515
v -0.068433 0.041827 0.98121
v -0.048834 0.041918 0.90727
v 0.0052 0.042164 0.88733
v 0.005256 0.034994 0.89609
v 0.052977 0.035211 0.91341
v 0.05934 0.04241 0.90698
v 0.070602 0.035291 0.97849
v 0.079336 0.0425 0.98081
v 0.025394 0.042254 1.03505
v 0.023056 0.035074 1.02629
v 0.020652 0.042233 1.01754
v 0.061802 0.04242 0.97617
v 0.046548 0.042352 0.91984
v 0.005247 0.042164 0.90485
v -0.011909 0.049254 1.02639
v -0.059711 0.049037 0.97884
v -0.042437 0.049116 0.91367
v 0.005191 0.049333 0.89609
v 0.052912 0.04955 0.91341
v 0.070537 0.04963 0.97849
v 0.022991 0.049413 1.02629
vn 0.0474803 0.998872 -0.000126779
vt 0.587466 0.32589
vn -0.00275181 -0.000586022 -0.999996
vt 0.467684 0.32589
vn -0.998318 0.0579131 0.00266537
vt 0.587466 0.285954
vn 0.00275173 0.000586022 0.999996
vt 0.703538 0.32589
vn 0.998318 -0.0579132 -0.00266534
vt 0.587466 0.365825
vn -0.0474803 -0.998872 0.000126779
vt 0.587466 0.32589
vn 0.00528585 -0.914502 0.404547
vt 0.872492 0.681099
vn 0.00462785 -0.999571 0.0289303
vt 0.807257 0.681099
vn 0.302797 -0.928999 0.212779
vt 0.84793 0.738226
vn 0.342858 -0.924371 -0.167289
vt 0.775826 0.738367
vn 0.00313295 -0.92148 -0.388414
vt 0.743046 0.681099
vn -0.335343 -0.927453 -0.16546
vt 0.775826 0.623832
vn -0.293155 -0.931719 0.214382
vt 0.84793 0.623973
vn -0.00525466 0.921478 -0.388395
vt 0.743046 0.681099
vn -0.343775 0.924364 -0.165438
vt 0.775826 0.623832
vn -0.00446751 0.999571 0.0289546
vt 0.807257 0.681099
vn 0.334431 0.927458 -0.167264
vt 0.775826 0.738367
vn 0.294332 0.931709 0.212806
vt 0.84793 0.738226
vn -0.00303242 0.914504 0.404565
vt 0.872492 0.681099
vn -0.301622 0.929008 0.214401
vt 0.84793 0.623973
vn -0.305371 0.387764 0.869705
vt 0.756735 0.828249
vn -0.452359 -0.00205966 0.891833
vt 0.770929 0.86467
vn 0.00265996 1.21044e-05 0.999996
vt 0.802274 0.772964
vn -0.361056 -0.398488 0.843117
vt 0.756735 0.828249
vn 0.310025 -0.387805 0.868039
vt 0.847813 0.828249
vn -0.598128 -0.801361 0.00793347
vt 0.738871 0.968039
vn -0.35981 -0.852946 0.37818
vt 0.766682 0.998344
vn 0.00347938 -0.950139 -0.311807
vt 0.802274 0.959021
vn -0.527524 -0.841888 -0.113762
vt 0.770144 0.939889
vn -0.997441 -0.00452719 0.0713481
vt 0.688569 0.915001
vn -0.424937 -0.896976 0.121913
vt 0.770929 0.86467
vn -0.915262 -0.00421639 0.402838
vt 0.672994 0.897676
vn 0.506508 -0.828227 0.23977
vt 0.83362 0.86467
vn 0.917426 0.00417637 0.397885
vt 0.931554 0.897676
vn 0.99781 0.00452088 0.065996
vt 0.915979 0.915001
vn -0.898131 -0.00408999 0.439708
vt 0.690343 0.96706
vn 0.422499 -0.90299 -0.0781301
vt 0.834404 0.939889
vn 0.605425 -0.795888 0.00472182
vt 0.865677 0.968039
vn 0.369548 -0.849629 0.376252
vt 0.837866 0.998344
vn 0.900438 0.00410055 0.434965
vt 0.914205 0.96706
vn 0.653728 0.00297652 0.756724
vt 0.834404 0.939889
vn 0.365593 0.398429 0.841187
vt 0.847813 0.828249
vn -0.605402 0.79588 0.00795475
vt 0.738871 0.968039
vn 0.526893 0.841898 -0.116581
vt 0.834404 0.939889
vn -0.00516475 0.95017 -0.31169
vt 0.802274 0.959021
vn -0.422915 0.902989 -0.0758561
vt 0.770144 0.939889
vn 0.4256 0.896968 0.119634
vt 0.83362 0.86467
vn -0.505238 0.8282 0.242528
vt 0.770929 0.86467
vn -0.367568 0.849631 0.378181
vt 0.766682 0.998344
vn -0.649581 -0.00295764 0.760287
vt 0.770144 0.939889
vn 0.4571 0.00208124 0.889413
vt 0.83362 0.86467
vn 0.598158 0.801365 0.00473189
vt 0.865677 0.968039
vn 0.361815 0.852942 0.376272
vt 0.837866 0.998344
vn -0.00263961 -1.20056e-05 -0.999997
vt 0.997308 0.782683
vn 0.0383102 0.000174462 -0.999266
vt 0.85588 0.782683
vn 0.165946 0.374728 -0.912163
vt 0.907072 0.739934
vn -0.168343 0.397901 -0.901851
vt 0.947945 0.699755
vn -0.00259688 -1.18259e-05 -0.999997
vt 0.997308 0.697184
vn -0.00259693 -1.18261e-05 -0.999997
vt 0.997308 0.697184
vn 0.163598 -0.397947 -0.902704
vt 0.947945 0.699755
vn -0.170778 -0.374817 -0.911234
vt 0.907072 0.739934
vn -0.0436161 -0.00019862 -0.999048
vt 0.85588 0.782683
vn -0.164723 -0.399412 -0.901851
vt 0.947945 0.699755
vn 0.16934 -0.373202 -0.912165
vt 0.907072 0.739934
vn 0.159964 0.399421 -0.902704
vt 0.947945 0.699755
vn -0.174189 0.373249 -0.911232
vt 0.907072 0.739934
vn 0.900445 0.00408375 0.434951
vt 0.883242 0.732608
vn 0.600322 -0.458953 0.654963
vt 0.880604 0.593133
vn -0.0012246 0.998247 0.0591686
vt 0.906744 0.640435
vn -0.00567197 0.999788 -0.0197769
vt 0.884227 0.562016
vn -0.363586 0.88885 0.278838
vt 0.73347 0.593133
vn -0.955273 -0.00433254 0.295694
vt 0.916682 0.670539
vn -0.982723 -0.00445706 -0.185026
vt 0.925948 0.594507
vn -0.832373 -0.00377513 -0.554204
vt 0.904806 0.549509
vn -0.125381 -0.858597 -0.497083
vt 0.857449 0.494746
vn 0.0933935 0.961709 -0.257667
vt 0.756625 0.494746
vn -0.000428127 0.996937 -0.0782124
vt 0.729846 0.562016
vn -0.00755656 0.998213 0.0592749
vt 0.70733 0.640435
vn -0.89922 -0.00411626 0.437477
vt 0.730832 0.732608
vn 0.956366 0.00437799 0.292137
vt 0.697392 0.670539
vn 0.982021 0.00449533 -0.188718
vt 0.688125 0.594507
vn 0.829066 0.00379512 -0.559138
vt 0.709268 0.549509
vn 0.00734608 -0.998237 0.0588919
vt 0.906744 0.640435
vn -0.0574924 -0.997515 -0.0407237
vt 0.884227 0.562016
vn 0.0452918 -0.998932 -0.00908643
vt 0.729846 0.562016
vn 0.00208143 -0.998256 0.0589947
vt 0.70733 0.640435
vn -0.847152 -0.0038459 0.531337
vt 0.455445 0.40063
vn -0.928632 -0.00421672 -0.370977
vt 0.507011 0.411494
vn -0.999979 -0.00453971 0.004659
vt 0.507011 0.389766
vn -0.923323 -0.00419991 -0.384001
vt 0.539318 0.40747
vn -0.999687 -0.00454746 0.0245877
vt 0.576595 0.406729
vn -0.999687 -0.00454728 0.0245875
vt 0.576595 0.394531
vn -0.682857 -0.00310508 -0.730546
vt 0.539318 0.39379
vn -0.198566 -0.980072 0.00552082
vt 0.592846 0.751398
vn 0.0128405 -0.999902 -0.00561237
vt 0.582964 0.731269
vn 0.00457156 -0.999981 0.00413236
vt 0.563401 0.782028
vn -0.439637 -0.897987 0.0183948
vt 0.597787 0.794252
vn -0.697775 -0.716314 -0.00196928
vt 0.609081 0.752696
vn -0.707351 -0.706853 0.00373414
vt 0.617552 0.774124
vn 0.0155833 -0.999718 0.0179134
vt 0.603434 0.68257
vn -0.0135069 -0.999463 0.0298448
vt 0.523368 0.68257
vn -0.010498 -0.999883 -0.0110953
vt 0.543838 0.731269
vn 0.207524 -0.97822 0.0044117
vt 0.533956 0.751398
vn 0.447887 -0.893947 0.0159973
vt 0.529015 0.794252
vn 0.70424 -0.709939 -0.00575006
vt 0.517721 0.752696
vn 0.713783 -0.700367 -8.38041e-05
vt 0.50925 0.774124
vn 0.00454798 -0.99999 -1.72257e-05
vt 0.603434 0.441674
vn 0.00455333 -0.99999 5.96046e-08
vt 0.606258 0.415052
vn 0.00454969 -0.99999 -1.21593e-05
vt 0.520544 0.415052
vn 0.00454815 -0.99999 -1.64509e-05
vt 0.523368 0.441674
vn 0.00455074 -0.99999 -1.16229e-05
vt 0.632375 0.472841
vn 0.00455182 -0.99999 -1.01328e-05
vt 0.494427 0.472841
vn 0.00456508 -0.999977 0.00511244
vt 0.643669 0.522189
vn 0.0045741 -0.999952 0.00867391
vt 0.483133 0.522189
vn -0.0262632 -0.999605 -0.0100075
vt 0.634493 0.590367
vn 0.0383531 -0.999154 -0.0148615
vt 0.492309 0.590367
vn 0.968305 0.00440084 -0.249731
vt 0.45631 0.602704
vn 0.183152 -0.975394 0.122726
vt 0.484545 0.656597
vn 0.171812 -0.864349 0.472632
vt 0.502554 0.698611
vn -0.0682259 -0.890264 0.450305
vt 0.467749 0.676063
vn -0.188323 -0.90408 0.383631
vt 0.447133 0.668334
vn -0.290505 -0.871712 0.394619
vt 0.469721 0.698154
vn -0.274516 -0.903149 0.330097
vt 0.449251 0.712439
vn -0.741798 -0.0688118 0.667084
vt 0.478898 0.709841
vn -0.928022 -0.00422186 0.372502
vt 0.46831 0.744904
vn -0.598958 0.370356 0.70999
vt 0.490192 0.700751
vn -0.456763 -0.69565 0.554471
vt 0.483839 0.692959
vn 0.430143 0.902736 0.00666001
vt 0.529015 0.794252
vn 0.702826 0.711362 -0.000174344
vt 0.50925 0.774124
vn 0.685533 0.727971 -0.0101625
vt 0.517721 0.752696
vn 0.20082 0.979628 -0.000888288
vt 0.533956 0.751398
vn -0.00453521 0.999988 0.00169739
vt 0.563401 0.782028
vn -0.00890593 0.999952 -0.00415635
vt 0.543838 0.731269
vn 0.0142433 0.999526 0.0273101
vt 0.603434 0.68257
vn 0.00334258 0.999957 -0.00860077
vt 0.582964 0.731269
vn -0.209716 0.977762 0.000227988
vt 0.592846 0.751398
vn -0.438309 0.898779 0.00901857
vt 0.597787 0.794252
vn -0.692192 0.721685 -0.0064382
vt 0.609081 0.752696
vn -0.709299 0.704898 0.00365457
vt 0.617552 0.774124
vn 0.256642 0.903325 0.343714
vt 0.677551 0.712439
vn 0.930037 0.00423063 0.367442
vt 0.658492 0.744904
vn 0.745377 0.0688894 0.663074
vt 0.647904 0.709841
vn 0.23171 0.899359 0.370761
vt 0.657081 0.698154
vn 0.0809031 0.940358 0.330426
vt 0.679669 0.668334
vn -0.00796873 0.902583 0.430441
vt 0.659052 0.676063
vn -0.19161 0.974978 0.112713
vt 0.642257 0.656597
vn -0.169333 0.864267 0.473676
vt 0.624248 0.698611
vn -0.0379974 0.999122 -0.0176517
vt 0.634493 0.590367
vn -0.0158461 0.999766 0.0147312
vt 0.523368 0.68257
vn -0.969637 -0.00442314 -0.244509
vt 0.670492 0.602704
vn 0.602847 -0.370218 0.706763
vt 0.63661 0.700751
vn 0.45985 0.695633 0.551936
vt 0.642963 0.692959
vn -0.00454806 0.99999 7.21216e-06
vt 0.523368 0.441674
vn -0.00455326 0.99999 2.43783e-05
vt 0.520544 0.415052
vn -0.00454972 0.99999 1.22786e-05
vt 0.606258 0.415052
vn -0.00454822 0.99999 8.01682e-06
vt 0.603434 0.441674
vn -0.00455075 0.99999 1.27852e-05
vt 0.494427 0.472841
vn -0.00455182 0.99999 1.42455e-05
vt 0.632375 0.472841
vn -0.00453793 0.999977 0.00513706
vt 0.483133 0.522189
vn -0.00452779 0.999952 0.00869849
vt 0.643669 0.522189
vn 0.0258036 0.999593 -0.0121484
vt 0.492309 0.590367
vn 0.183301 0.976691 0.11169
vt 0.484545 0.656597
vn 0.163936 0.86587 0.472646
vt 0.502554 0.698611
vn -0.012153 0.923988 0.382229
vt 0.467749 0.676063
vn -0.129608 0.914403 0.383496
vt 0.447133 0.668334
vn -0.27674 0.921343 0.273022
vt 0.449251 0.712439
vn -0.281616 0.832688 0.476784
vt 0.469721 0.698154
vn -0.450849 0.680158 0.578032
vt 0.483839 0.692959
vn 0.681867 0.0031077 -0.73147
vt 0.539318 0.40747
vn 0.999989 0.00456206 -0.000704229
vt 0.507011 0.411494
vn 0.924176 0.00421564 -0.381943
vt 0.507011 0.389766
vn 0.920424 0.00419236 -0.390899
vt 0.539318 0.39379
vn 0.999805 0.00455366 0.0192212
vt 0.576595 0.406729
vn 0.999805 0.00454843 0.0192172
vt 0.576595 0.394531
vn 0.849968 0.00387764 0.52682
vt 0.455445 0.40063
vn -0.139861 -0.000632635 -0.990171
vt 0.657362 0.404372
vn -0.801879 -0.00362715 -0.597475
vt 0.649907 0.40063
vn 0.122095 0.000562029 -0.992518
vt 0.657362 0.396889
vn -0.912137 -0.00416532 -0.409864
vt 0.662332 0.395397
vn -0.414976 -0.00190502 -0.909831
vt 0.662332 0.405864
vn 0.81179 0.00370882 0.583937
vt 0.734401 0.387609
vn 0.933689 0.00426997 0.358061
vt 0.780997 0.386859
vn 0.93369 0.00426466 0.358056
vt 0.780997 0.414401
vn 0.468029 0.00213415 0.88371
vt 0.734401 0.413651
vn -0.3354 -0.00152974 0.942075
vt 0.71452 0.397085
vn 0.361797 0.00165078 0.932255
vt 0.71452 0.404175
vn 0.279279 0.00127593 0.960209
vt 0.681281 0.394641
vn -0.512557 -0.00234473 0.85865
vt 0.681281 0.406619
vn -0.80865 -0.00369439 0.588279
vt 0.734401 0.413651
vn -0.931733 -0.00426089 0.363118
vt 0.780997 0.414401
vn -0.931735 -0.00425563 0.363113
vt 0.780997 0.386859
vn -0.46352 -0.00211353 0.886084
vt 0.734401 0.387609
vn 0.340079 0.00155108 0.940396
vt 0.71452 0.404175
vn -0.356656 -0.00162732 0.934234
vt 0.71452 0.397085
vn -0.273574 -0.00124989 0.96185
vt 0.681281 0.406619
vn 0.517889 0.00236896 0.855444
vt 0.681281 0.394641
vn 0.909947 0.00415527 -0.414704
vt 0.662332 0.405864
vn 0.409753 0.00187203 -0.912195
vt 0.662332 0.395397
vn -0.985542 -0.00447389 -0.169374
vt 0.716358 0.449509
vn -0.848249 -0.00386214 0.529584
vt 0.685166 0.449041
vn -0.848258 -0.00385069 0.529568
vt 0.685166 0.479355
vn -0.985542 -0.00446053 -0.169374
vt 0.716358 0.479298
vn -0.870243 -0.0039557 -0.492606
vt 0.746466 0.479298
vn -0.940325 -0.00428137 -0.340252
vt 0.746466 0.449509
vn -0.997464 -0.00454153 -0.0710239
vt 0.794138 0.479298
vn -0.999322 -0.00455535 0.0365305
vt 0.794138 0.449509
vn -0.988433 -0.00450828 -0.151592
vt 0.86 0.478807
vn -0.929076 -0.00424402 -0.369865
vt 0.86 0.45
vn -0.292233 -0.00133492 -0.956346
vt 0.958709 0.464403
vn 0.284152 -0.832662 0.475322
vt 0.657081 0.698154
vn 0.4543 -0.680229 0.575239
vt 0.642963 0.692959
vn 0.310348 -0.917796 0.24766
vt 0.677551 0.712439
vn 0.0677714 -0.910561 0.407782
vt 0.659052 0.676063
vn 0.228402 -0.875515 0.4258
vt 0.679669 0.668334
vn -0.176542 -0.976755 0.121581
vt 0.642257 0.656597
vn -0.161462 -0.86578 0.473662
vt 0.624248 0.698611
vn 0.798795 0.00366469 -0.601592
vt 0.649907 0.40063
vn -0.12801 -0.000584492 -0.991773
vt 0.657362 0.404372
vn 0.134189 0.00061563 -0.990956
vt 0.657362 0.396889
vn 0.851131 0.00387526 0.524939
vt 0.685166 0.479355
vn 0.851131 0.00387526 0.524939
vt 0.685166 0.449041
vn 0.984618 0.00448304 -0.174664
vt 0.716358 0.479298
vn 0.984618 0.00448304 -0.174664
vt 0.716358 0.449509
vn 0.867566 0.00395009 -0.497307
vt 0.746466 0.449509
vn 0.938485 0.004273 -0.345293
vt 0.746466 0.479298
vn 0.997068 0.00453973 -0.0763859
vt 0.794138 0.449509
vn 0.999504 0.00454613 0.031152
vt 0.794138 0.479298
vn 0.987599 0.00448975 -0.156933
vt 0.86 0.45
vn 0.927065 0.0042089 -0.374877
vt 0.86 0.478807
vn 0.287149 0.00130366 -0.957885
vt 0.958709 0.464403
vn 0.381139 0.923984 0.031413
vt 0.322259 0.816791
vn 0.161005 0.986949 -0.00296515
vt 0.328694 0.766786
vn 0.0473568 0.997297 0.0561754
vt 0.366703 0.893239
vn 0.345644 0.938361 -0.00302255
vt 0.338947 0.187583
vn -0.14925 0.988799 0.000847071
vt 0.394459 0.187583
vn -0.447625 0.894177 -0.00887883
vt 0.404713 0.766786
vn -0.397629 0.905978 0.14524
vt 0.411147 0.816791
vn 0.937444 0.34715 -0.0261869
vt 0.295201 0.784225
vn 0.887374 -0.460935 -0.0102973
vt 0.313764 0.192109
vn 0.95527 0.120996 0.269851
vt 0.29031 0.839534
vn 0.0062612 -4.14498e-05 0.99998
vt 0.366703 0.969304
vn -0.953614 -0.121305 0.27551
vt 0.443096 0.839534
vn -0.997962 -0.0535281 -0.0347416
vt 0.438205 0.784225
vn -0.999984 -0.00454624 -0.00329083
vt 0.419642 0.192109
vn 0.246437 -0.969139 -0.00616491
vt 0.328694 0.766786
vn 0.264322 -0.964434 8.99434e-05
vt 0.338947 0.187583
vn 0.401939 -0.904476 0.142715
vt 0.322259 0.816791
vn -0.114152 -0.985299 0.127107
vt 0.366703 0.893239
vn -0.386217 -0.921784 0.0339224
vt 0.411147 0.816791
vn -0.324397 -0.945912 -0.00409198
vt 0.404713 0.766786
vn -0.155266 -0.987872 0.000910819
vt 0.394459 0.187583
vn 0.202997 -0.963536 -0.17433
vt 0.916232 0.090463
vn -0.821504 -0.540278 -0.182293
vt 0.877488 0.090463
vn -0.49077 -0.778785 -0.39069
vt 0.909749 0.129463
vn -0.490773 -0.778781 -0.390695
vt 0.885334 0.129463
vn 0.975912 -0.151673 -0.156814
vt 0.954015 0.090463
vn 0.52562 -0.753709 -0.394521
vt 0.946633 0.129463
vn 0.5256 -0.753713 -0.394541
vt 0.922221 0.129463
vn -0.712601 0.678164 -0.179703
vt 0.838982 0.090463
vn -0.867943 0.28295 -0.408183
vt 0.872305 0.129463
vn -0.867943 0.282951 -0.408184
vt 0.846205 0.129463
vn -0.0232925 0.990467 -0.135768
vt 0.800476 0.090463
vn -0.022392 0.923577 -0.382758
vt 0.83475 0.129463
vn -0.0223586 0.923563 -0.382795
vt 0.802148 0.129463
vn 0.932606 0.36 0.0254182
vt 0.989973 0.129463
vn 0.908401 0.350896 -0.227334
vt 0.989973 0.090463
vn 0.991362 -0.0772528 -0.105988
vt 0.954015 0.129463
vn 0.53995 -0.771455 0.336617
vt 0.937107 0.00429398
vn 0.539968 -0.771434 0.336637
vt 0.916232 0.00429398
vn 0.839739 -0.487846 0.23842
vt 0.954015 0.053152
vn -0.152943 -0.961962 0.226358
vt 0.916232 0.053152
vn -0.951537 -0.204989 0.229252
vt 0.877488 0.053152
vn -0.500277 -0.796996 0.338409
vt 0.885584 0.00429398
vn -0.500295 -0.79699 0.338397
vt 0.905239 0.00429398
vn 0.915724 0.353291 0.191403
vt 0.989973 0.053152
vn 0.873771 0.336948 0.350701
vt 0.954015 0.00429398
vn 0.873761 0.336962 0.350712
vt 0.989973 0.00429398
vn -0.888236 0.290193 0.356126
vt 0.852529 0.00429398
vn -0.507099 0.828847 0.236353
vt 0.838982 0.053152
vn -0.88822 0.290218 0.356144
vt 0.875249 0.00429398
vn -0.020987 0.94415 0.328846
vt 0.838982 0.00429398
vn -0.021919 0.973054 0.229531
vt 0.800476 0.053152
vn -0.0210065 0.944155 0.328831
vt 0.800476 0.00429398
vn 0.939575 -0.0982791 0.327933
vt 0.954015 0.157705
vn 0.897708 0.346273 0.272423
vt 0.989973 0.157705
vn 0.190919 -0.932931 0.305271
vt 0.916232 0.157705
vn -0.223474 -0.927117 0.300853
vt 0.916232 0.129463
vn -0.793736 -0.513758 0.325631
vt 0.877488 0.157705
vn -0.943429 -0.0562401 0.32677
vt 0.877488 0.129463
vn -0.680498 0.659067 0.32024
vt 0.838982 0.157705
vn -0.316709 0.899023 0.302411
vt 0.838982 0.129463
vn -0.021695 0.966674 0.255089
vt 0.800476 0.157705
vn -0.0217143 0.96668 0.255064
vt 0.800476 0.129463
vn -0.00270932 -7.14562e-05 -0.999996
vt 0.75294 0.322559
vn -0.00270066 -7.25017e-05 -0.999996
vt 0.787192 0.372221
vn -0.00270094 -6.02956e-05 -0.999996
vt 0.845008 0.354993
vn -0.00271262 -7.10569e-05 -0.999996
vt 0.846489 0.294682
vn -0.00273125 -0.000100675 -0.999996
vt 0.789587 0.274637
vn 0.328211 -0.944604 -0.000613511
vt 0.114217 0.993616
vn 0.706205 -0.708006 -0.00165075
vt 0.139549 0.990729
vn 0.706678 -0.707533 -0.00167835
vt 0.139997 0.664115
vn -0.92958 -0.36861 0.00273791
vt 0.087539 0.010885
vn 0.0321836 -0.999482 0.000190496
vt 0.114217 0.174674
vn 0.330009 -0.943978 -0.000619948
vt 0.114217 0.010885
vn 0.707458 -0.706754 -0.00167537
vt 0.14067 0.174193
vn 0.70721 -0.707001 -0.00166744
vt 0.140446 0.3375
vn 0.136298 -0.990668 -8.87513e-05
vt 0.114217 0.338462
vn -0.269324 -0.963049 0.000984073
vt 0.114217 0.666039
vn -0.92995 -0.367675 0.00273418
vt 0.087539 0.993616
vn -0.951606 0.307309 0.00278062
vt 0.087539 0.666039
vn -0.0316611 0.999499 0.000267446
vt 0.047522 0.993616
vn -0.999346 -0.0360478 0.00293386
vt 0.087539 0.174674
vn -0.987955 -0.154714 0.00290069
vt 0.087539 0.338462
vn -0.132393 0.991197 0.000542194
vt 0.047522 0.338462
vn 0.144975 0.989435 -0.000195146
vt 0.047522 0.666039
vn -0.0324971 0.999472 0.00027588
vt 0.047522 0.174674
vn 0.641721 0.766937 -0.00158566
vt 0.007946 0.666039
vn 0.641401 0.767204 -0.00158519
vt 0.007726 0.338462
vn 0.641145 0.767418 -0.00158775
vt 0.007616 0.174674
vn 0.641005 0.767535 -0.00158447
vt 0.007506 0.010885
vn -0.318862 0.947801 0.00103578
vt 0.047522 0.010885
vn 0.641971 0.766728 -0.00159889
vt 0.008166 0.993616
vn -0.0724657 -0.997371 0.000389546
vt 0.253585 0.33831
vn 0.330797 -0.943702 -0.000703156
vt 0.253585 0.010733
vn -0.929663 -0.368401 0.00267327
vt 0.226907 0.010733
vn -0.996518 0.083326 0.00285473
vt 0.226907 0.33831
vn 0.0319925 -0.999488 0.00010708
vt 0.253585 0.502098
vn -0.999357 -0.0357297 0.00286409
vt 0.226907 0.502098
vn 0.0668168 0.997765 -4.80413e-05
vt 0.186891 0.33831
vn -0.0322056 0.999481 0.000219524
vt 0.186891 0.502098
vn -0.999357 -0.0357282 0.00286227
vt 0.226907 0.665887
vn 0.0319994 -0.999488 0.000110865
vt 0.253585 0.665887
vn 0.0319988 -0.999488 0.000109136
vt 0.253585 0.829675
vn -0.318562 0.947901 0.00098297
vt 0.186891 0.010733
vn 0.64034 0.76809 -0.00162625
vt 0.147766 0.010733
vn 0.640488 0.767967 -0.00163275
vt 0.147766 0.33831
vn 0.640626 0.767851 -0.00163031
vt 0.147766 0.502098
vn -0.0322044 0.999481 0.000217676
vt 0.186891 0.665887
vn -0.999357 -0.0357297 0.00285837
vt 0.226907 0.829675
vn -0.951673 0.3071 0.00271836
vt 0.226907 0.993464
vn -0.269932 -0.962879 0.000912488
vt 0.253585 0.993464
vn 0.707687 -0.706524 -0.00174856
vt 0.280263 0.993464
vn 0.707808 -0.706403 -0.00174201
vt 0.280263 0.829675
vn 0.707963 -0.706247 -0.00174654
vt 0.280263 0.665887
vn 0.708119 -0.706091 -0.00174695
vt 0.280263 0.502098
vn 0.708355 -0.705854 -0.00175112
vt 0.280263 0.33831
vn 0.708554 -0.705655 -0.00173634
vt 0.280263 0.010733
vn 0.707618 -0.706593 -0.00165802
vt 0.140895 0.010885
vn 0.639121 0.767039 -0.0563523
vt 0.455721 0.995709
vn 0.408675 0.909019 -0.0816623
vt 0.51729 0.995709
vn 0.662839 0.745896 -0.0654519
vt 0.455721 0.808071
vn -0.208708 0.973893 -0.0892943
vt 0.51729 0.808071
vn -0.898629 0.428376 -0.0946521
vt 0.578859 0.995709
vn -0.961565 -0.248397 -0.11701
vt 0.578859 0.808071
vn -0.340872 -0.932896 -0.116236
vt 0.619905 0.995709
vn 0.216023 -0.968629 -0.122853
vt 0.619905 0.808071
vn 0.668601 -0.736788 -0.100582
vt 0.660951 0.995709
vn 0.647829 -0.75421 -0.107166
vt 0.660951 0.808071
vn 0.640927 0.7676 -0.00163394
vt 0.147766 0.993464
vn 0.255471 0.966817 -0.000556231
vt 0.186891 0.993464
vn 0.640852 0.767663 -0.00162715
vt 0.147766 0.829675
vn -0.0321957 0.999482 0.000217408
vt 0.186891 0.829675
vn 0.640739 0.767757 -0.00162959
vt 0.147766 0.665887
vn -0.00267037 4.38489e-06 -0.999996
vt 0.73011 0.177167
vn 0.614946 -0.787874 -0.033105
vt 0.672746 0.090888
vn 0.574832 -0.807388 -0.133013
vt 0.710047 0.090888
vn -0.52051 -0.843986 -0.129444
vt 0.750173 0.090888
vn -0.570192 -0.798941 0.191243
vt 0.741667 0.010543
vn -0.562589 -0.826214 -0.0293953
vt 0.787474 0.090888
vn -0.64038 -0.731001 0.235694
vt 0.763155 0.010543
vn 0.917837 0.36506 -0.155904
vt 0.787474 0.090888
vn 0.545676 0.832614 -0.0948287
vt 0.750173 0.090888
vn 0.817615 0.53804 0.204985
vt 0.763155 0.010543
vn -0.029944 0.966581 0.254608
vt 0.73011 0.010543
vn 0.621342 -0.760759 0.187562
vt 0.718552 0.010543
vn 0.684521 -0.691884 0.229625
vt 0.697065 0.010543
vn -0.943132 0.297245 -0.148823
vt 0.672746 0.090888
vn -0.853294 0.475608 0.213742
vt 0.697065 0.010543
vn -0.601352 0.793788 -0.0909788
vt 0.710047 0.090888
vn 0.324848 -0.945367 0.0274875
vt 0.370462 0.145114
vn 0.999048 0.0352531 0.0256916
vt 0.401598 0.145114
vn 0.999067 0.0352421 0.024963
vt 0.401598 0.114958
vn -0.269106 -0.962672 0.0290666
vt 0.370462 0.114958
vn -0.92996 -0.366495 0.029258
vt 0.339326 0.145114
vn -0.95036 0.309906 0.0278409
vt 0.339326 0.114958
vn -0.0316091 0.999306 0.019718
vt 0.370462 0.145114
vn -0.031603 0.999257 0.0220762
vt 0.370462 0.114958
vn 0.87773 -0.416334 -0.237185
vt 0.567086 0.146388
vn 0.652821 0.375274 -0.658023
vt 0.600583 0.128535
vn 0.191819 -0.963167 -0.188453
vt 0.60729 0.135866
vn 0.78544 0.0578547 0.616228
vt 0.527083 0.134686
vn 0.096151 -0.990504 -0.098266
vt 0.519865 0.142112
vn -0.261192 -0.962605 0.0719103
vt 0.569197 0.156291
vn -0.667203 -0.320783 0.672264
vt 0.61345 0.142647
vn -0.901831 0.356732 0.243812
vt 0.570733 0.167462
vn -0.785827 -0.0489415 -0.616507
vt 0.516719 0.149303
vn -0.000932607 -0.350184 -0.93668
vt 0.498721 0.105835
vn 0.00505731 -0.97076 0.24
vt 0.50912 0.105882
vn -0.0876734 -0.991342 -0.097751
vt 0.537971 0.067631
vn 0.782904 -0.0418482 -0.620734
vt 0.532518 0.060183
vn 0.076884 -0.987673 -0.136351
vt 0.57797 0.069803
vn 0.96661 0.00428477 0.256217
vt 0.582586 0.060287
vn 0.670861 0.320669 0.668668
vt 0.618784 0.099349
vn 0.22676 -0.948497 0.22121
vt 0.608489 0.104544
vn -0.656346 -0.375182 -0.654559
vt 0.599124 0.107771
vn -0.966614 -0.00450071 -0.256196
vt 0.573104 0.076182
vn -0.782615 0.0507648 0.620432
vt 0.543875 0.076322
vn 0.000599139 0.408312 0.912842
vt 0.520083 0.105933
vn -0.225543 0.948499 0.22244
vt 0.60729 0.135866
vn 0.219753 0.973665 -0.0607063
vt 0.569197 0.156291
vn -0.150088 0.987217 0.0536206
vt 0.519865 0.142112
vn -0.00512171 0.958817 -0.283978
vt 0.50912 0.105882
vn 0.141406 0.988542 0.0528143
vt 0.537971 0.067631
vn -0.00914707 0.987986 0.154271
vt 0.57797 0.069803
vn -0.192839 0.96316 -0.187446
vt 0.608489 0.104544
vn 0.8777 -0.416389 -0.237198
vt 0.567086 0.146388
vn 0.652825 0.375243 -0.658037
vt 0.600583 0.128535
vn 0.191824 -0.963164 -0.188462
vt 0.60729 0.135866
vn 0.785438 0.0578587 0.616231
vt 0.527083 0.134686
vn 0.0961129 -0.990509 -0.0982517
vt 0.519865 0.142112
vn -0.261166 -0.962612 0.0719033
vt 0.569197 0.156291
vn -0.6672 -0.320795 0.672261
vt 0.61345 0.142647
vn -0.901838 0.35671 0.243816
vt 0.570733 0.167462
vn -0.785818 -0.0489769 -0.616516
vt 0.516719 0.149303
vn -0.000932589 -0.350184 -0.93668
vt 0.498721 0.105835
vn 0.00508638 -0.97077 0.239959
vt 0.50912 0.105882
vn -0.0876713 -0.991342 -0.0977516
vt 0.537971 0.067631
vn 0.782904 -0.0418482 -0.620734
vt 0.532518 0.060183
vn 0.0768804 -0.987674 -0.136345
vt 0.57797 0.069803
vn 0.96661 0.00428477 0.256217
vt 0.582586 0.060287
vn 0.670861 0.320669 0.668668
vt 0.618784 0.099349
vn 0.226754 -0.9485 0.221204
vt 0.608489 0.104544
vn -0.656338 -0.375211 -0.654551
vt 0.599124 0.107771
vn -0.966613 -0.00447978 -0.256202
vt 0.573104 0.076182
vn -0.782617 0.0507966 0.620427
vt 0.543875 0.076322
vn 0.000668184 0.408506 0.912756
vt 0.520083 0.105933
vn -0.225572 0.948487 0.222463
vt 0.60729 0.135866
vn 0.219697 0.973678 -0.0606998
vt 0.569197 0.156291
vn -0.15006 0.987222 0.0536086
vt 0.519865 0.142112
vn -0.00512177 0.958817 -0.283979
vt 0.50912 0.105882
vn 0.141406 0.988542 0.0528143
vt 0.537971 0.067631
vn -0.00914682 0.987987 0.154264
vt 0.57797 0.069803
vn -0.192828 0.963164 -0.187436
vt 0.608489 0.104544
f 1/1/1 3/2/2 2/3/3
f 2/3/3 4/4/4 1/1/1
f 3/2/2 6/5/5 5/6/6
f 4/4/4 5/6/6 6/5/5
f 4/4/4 2/3/3 5/6/6
f 3/2/2 5/6/6 2/3/3
f 4/4/4 6/5/5 1/1/1
f 3/2/2 1/1/1 6/5/5
f 7/7/7 9/8/8 8/9/9
f 10/10/10 8/9/9 9/8/8
f 11/11/11 10/10/10 9/8/8
f 12/12/12 11/11/11 9/8/8
f 13/13/13 12/12/12 9/8/8
f 9/8/8 7/7/7 13/13/13
f 14/14/14 16/15/15 15/16/16
f 17/17/17 14/14/14 15/16/16
f 18/18/18 17/17/17 15/16/16
f 19/19/19 18/18/18 15/16/16
f 20/20/20 19/19/19 15/16/16
f 15/16/16 16/15/15 20/20/20
f 21/21/21 23/22/22 22/23/23
f 23/24/24 24/25/25 22/23/23
f 25/26/26 27/27/27 26/28/28
f 26/28/28 28/29/29 25/26/26
f 29/30/30 25/26/26 28/29/29
f 28/29/29 30/31/31 29/30/30
f 31/32/32 29/30/30 30/31/31
f 23/24/24 31/32/32 30/31/31
f 30/31/31 32/33/33 23/24/24
f 24/25/25 23/24/24 32/33/33
f 33/34/34 24/25/25 32/33/33
f 34/35/35 33/34/34 32/33/33
f 29/30/30 35/36/36 25/26/26
f 28/29/29 26/28/28 36/37/37
f 30/31/31 28/29/29 36/37/37
f 36/37/37 32/33/33 30/31/31
f 32/33/33 36/37/37 34/35/35
f 37/38/38 34/35/35 36/37/37
f 36/37/37 26/28/28 37/38/38
f 38/39/39 37/38/38 26/28/28
f 39/40/40 34/35/35 37/38/38
f 24/41/41 33/34/34 40/42/42
f 35/36/36 29/30/30 41/43/43
f 42/44/44 44/45/45 43/46/46
f 43/46/46 45/47/47 42/44/44
f 34/35/35 42/44/44 45/47/47
f 33/34/34 34/35/35 45/47/47
f 40/42/42 33/34/34 45/47/47
f 45/47/47 46/48/48 40/42/42
f 21/21/21 40/42/42 46/48/48
f 31/32/32 21/21/21 46/48/48
f 29/30/30 31/32/32 46/48/48
f 46/48/48 43/46/46 29/30/30
f 41/43/43 29/30/30 43/46/46
f 43/46/46 44/45/45 41/43/43
f 47/49/49 41/43/43 44/45/45
f 40/42/42 21/21/21 22/23/23
f 45/47/47 43/46/46 46/48/48
f 31/32/32 23/24/24 21/50/50
f 24/25/25 40/51/51 22/23/23
f 48/52/52 49/53/53 44/45/45
f 44/45/45 42/44/44 48/52/52
f 42/44/44 34/35/35 48/52/52
f 39/40/40 48/52/52 34/35/35
f 50/54/54 39/55/55 37/56/56
f 37/56/56 38/57/57 50/54/54
f 26/58/58 50/54/54 38/57/57
f 44/59/59 50/54/54 47/60/60
f 41/61/61 47/60/60 50/54/54
f 35/62/62 41/61/61 50/54/54
f 50/54/54 44/59/59 49/63/63
f 49/63/63 48/64/64 50/54/54
f 48/64/64 39/55/55 50/54/54
f 50/54/54 26/58/58 27/65/65
f 27/65/65 25/66/66 50/54/54
f 35/62/62 50/54/54 25/66/66
f 51/67/67 53/68/68 52/69/69
f 54/70/70 52/69/69 53/68/68
f 53/68/68 55/71/71 54/70/70
f 51/67/67 52/69/69 56/72/72
f 57/73/73 56/72/72 52/69/69
f 52/69/69 54/70/70 57/73/73
f 58/74/74 57/73/73 54/70/70
f 59/75/75 58/74/74 54/70/70
f 60/76/76 59/75/75 54/70/70
f 54/70/70 55/71/71 60/76/76
f 61/77/77 60/76/76 55/71/71
f 62/78/78 61/77/77 55/71/71
f 55/71/71 63/79/79 62/78/78
f 62/78/78 63/79/79 64/80/80
f 64/80/80 65/81/81 62/78/78
f 61/77/77 62/78/78 65/81/81
f 65/81/81 66/82/82 61/77/77
f 60/76/76 61/77/77 66/82/82
f 51/67/67 56/72/72 67/83/83
f 56/72/72 57/73/73 67/83/83
f 68/84/84 67/83/83 57/73/73
f 57/73/73 58/74/74 68/84/84
f 58/74/74 59/75/75 68/84/84
f 69/85/85 68/84/84 59/75/75
f 59/75/75 60/76/76 69/85/85
f 60/76/76 66/82/82 69/85/85
f 66/82/82 65/81/81 69/85/85
f 70/86/86 69/85/85 65/81/81
f 65/81/81 64/80/80 70/86/86
f 63/79/79 70/86/86 64/80/80
f 51/67/67 67/83/83 53/68/68
f 67/83/83 68/84/84 53/68/68
f 68/84/84 69/85/85 53/68/68
f 55/71/71 53/68/68 69/85/85
f 69/85/85 70/86/86 55/71/71
f 63/79/79 55/71/71 70/86/86
f 71/87/87 73/88/88 72/89/89
f 74/90/90 76/91/91 75/92/92
f 75/92/92 77/93/93 74/90/90
f 73/88/88 74/90/90 77/93/93
f 77/93/93 72/89/89 73/88/88
f 78/94/94 80/95/95 79/96/96
f 79/96/96 81/97/97 78/94/94
f 82/98/98 78/94/94 81/97/97
f 81/97/97 83/99/99 82/98/98
f 80/95/95 85/100/100 84/101/101
f 84/101/101 86/102/102 80/95/95
f 79/96/96 80/95/95 86/102/102
f 86/102/102 87/103/103 79/96/96
f 88/104/104 79/96/96 87/103/103
f 87/103/103 89/105/105 88/104/104
f 90/106/106 88/104/104 89/105/105
f 91/107/107 93/108/108 92/109/109
f 92/109/109 94/110/110 91/107/107
f 95/111/111 91/107/107 94/110/110
f 94/110/110 96/112/112 95/111/111
f 97/113/113 95/111/111 96/112/112
f 96/112/112 98/114/114 97/113/113
f 99/115/115 97/113/113 98/114/114
f 98/114/114 100/116/116 99/115/115
f 85/100/100 99/115/115 100/116/116
f 100/116/116 84/101/101 85/100/100
f 101/117/117 102/118/118 100/116/116
f 84/101/101 100/116/116 102/118/118
f 103/119/119 84/101/101 102/118/118
f 104/120/120 103/119/119 102/118/118
f 102/118/118 105/121/121 104/120/120
f 106/122/122 104/120/120 105/121/121
f 105/121/121 107/123/123 106/122/122
f 108/124/124 106/122/122 107/123/123
f 107/123/123 109/125/125 108/124/124
f 110/126/126 111/127/127 108/124/124
f 106/122/122 108/124/124 111/127/127
f 112/128/128 114/129/129 113/130/130
f 113/130/130 115/131/131 112/128/128
f 116/132/132 112/128/128 115/131/131
f 115/131/131 117/133/133 116/132/132
f 118/134/134 119/135/135 117/133/133
f 116/132/132 117/133/133 119/135/135
f 119/135/135 120/136/136 116/132/132
f 121/137/137 116/132/132 120/136/136
f 120/136/136 122/138/138 121/137/137
f 123/139/139 121/137/137 122/138/138
f 75/140/140 125/141/141 124/142/142
f 124/142/142 126/143/143 75/140/140
f 77/144/144 75/140/140 126/143/143
f 126/143/143 127/145/145 77/144/144
f 72/146/146 77/144/144 127/145/145
f 127/145/145 128/147/147 72/146/146
f 128/147/147 118/134/134 72/146/146
f 129/148/148 72/146/146 118/134/134
f 130/149/149 129/148/148 118/134/134
f 117/133/133 130/149/149 118/134/134
f 72/146/146 129/148/148 71/150/150
f 131/151/151 132/152/152 124/142/142
f 126/143/143 124/142/142 132/152/152
f 133/153/153 135/154/154 134/155/155
f 134/155/155 136/156/156 133/153/153
f 137/157/157 133/153/153 136/156/156
f 136/156/156 138/158/158 137/157/157
f 139/159/159 137/157/157 138/158/158
f 138/158/158 140/160/160 139/159/159
f 141/161/161 139/159/159 140/160/160
f 140/160/160 129/148/148 141/161/161
f 129/148/148 130/149/149 141/161/161
f 142/162/162 141/161/161 130/149/149
f 141/161/161 142/162/162 101/117/117
f 130/149/149 143/163/163 142/162/162
f 143/163/163 144/164/164 142/162/162
f 145/165/165 142/162/162 144/164/164
f 146/166/166 145/165/165 144/164/164
f 144/164/164 147/167/167 146/166/166
f 108/124/124 146/166/166 147/167/167
f 110/126/126 108/124/124 147/167/167
f 147/167/167 148/168/168 110/126/126
f 109/125/125 146/166/166 108/124/124
f 105/169/169 102/170/170 142/171/171
f 142/171/171 145/172/172 105/169/169
f 107/173/173 105/169/169 145/172/172
f 145/172/172 146/174/174 107/173/173
f 102/170/170 101/175/175 142/171/171
f 111/176/176 110/177/177 148/178/178
f 147/179/179 106/180/180 148/178/178
f 111/176/176 148/178/178 106/180/180
f 130/181/181 117/182/182 86/183/183
f 86/183/183 84/184/184 130/181/181
f 143/185/185 130/181/181 84/184/184
f 84/184/184 103/186/186 143/185/185
f 144/187/187 143/185/185 103/186/186
f 103/186/186 104/188/188 144/187/187
f 106/180/180 147/179/179 104/188/188
f 144/187/187 104/188/188 147/179/179
f 85/189/189 80/190/190 119/191/191
f 119/191/191 118/192/192 85/189/189
f 149/193/193 85/189/189 118/192/192
f 118/192/192 128/194/194 149/193/193
f 150/195/195 149/193/193 128/194/194
f 128/194/194 127/196/196 150/195/195
f 150/195/195 127/196/196 151/197/197
f 126/198/198 151/197/197 127/196/196
f 136/199/199 134/200/200 93/201/201
f 93/201/201 91/202/202 136/199/199
f 91/202/202 95/203/203 136/199/199
f 138/204/204 136/199/199 95/203/203
f 95/203/203 97/205/205 138/204/204
f 140/206/206 138/204/204 97/205/205
f 97/205/205 99/207/207 140/206/206
f 129/208/208 140/206/206 99/207/207
f 99/207/207 71/209/209 129/208/208
f 151/210/210 152/211/211 131/151/151
f 131/151/151 124/142/142 151/210/210
f 124/142/142 76/212/212 151/210/210
f 150/213/213 151/210/210 76/212/212
f 76/212/212 74/214/214 150/213/213
f 74/214/214 73/215/215 150/213/213
f 149/216/216 150/213/213 73/215/215
f 85/100/100 149/216/216 73/215/215
f 99/115/115 85/100/100 73/215/215
f 73/215/215 71/150/150 99/115/115
f 125/141/141 76/212/212 124/142/142
f 131/217/217 152/218/218 132/219/219
f 132/219/219 152/218/218 126/198/198
f 151/197/197 126/198/198 152/218/218
f 92/220/220 135/221/221 94/222/222
f 135/221/221 133/223/223 94/222/222
f 133/223/223 137/224/224 94/222/222
f 96/225/225 94/222/222 137/224/224
f 137/224/224 139/226/226 96/225/225
f 98/227/227 96/225/225 139/226/226
f 139/226/226 141/228/228 98/227/227
f 100/229/229 98/227/227 141/228/228
f 141/228/228 101/230/230 100/229/229
f 153/231/231 155/232/232 154/233/233
f 156/234/234 157/235/235 155/232/232
f 154/233/233 155/232/232 157/235/235
f 157/235/235 158/236/236 154/233/233
f 159/237/237 154/233/233 158/236/236
f 160/238/238 161/239/239 156/234/234
f 156/234/234 155/232/232 160/238/238
f 155/232/232 153/231/231 160/238/238
f 162/240/240 160/238/238 153/231/231
f 153/231/231 154/233/233 162/240/240
f 163/241/241 162/240/240 154/233/233
f 154/233/233 159/237/237 163/241/241
f 164/242/242 163/241/241 159/237/237
f 159/237/237 158/236/236 164/242/242
f 165/243/243 164/242/242 158/236/236
f 166/244/244 165/243/243 158/236/236
f 158/236/236 157/235/235 166/244/244
f 167/245/245 168/246/246 161/239/239
f 161/239/239 160/238/238 167/245/245
f 160/238/238 162/240/240 167/245/245
f 169/247/247 167/245/245 162/240/240
f 162/240/240 163/241/241 169/247/247
f 170/248/248 169/247/247 163/241/241
f 163/241/241 164/242/242 170/248/248
f 171/249/249 170/248/248 164/242/242
f 164/242/242 165/243/243 171/249/249
f 172/250/250 171/249/249 165/243/243
f 165/243/243 166/244/244 172/250/250
f 173/251/251 172/250/250 166/244/244
f 169/247/247 170/248/248 167/245/245
f 168/246/246 167/245/245 173/251/251
f 172/250/250 173/251/251 167/245/245
f 167/245/245 170/248/248 172/250/250
f 171/249/249 172/250/250 170/248/248
f 174/252/252 176/253/253 175/254/254
f 177/255/255 175/254/254 176/253/253
f 178/256/256 174/252/252 179/257/257
f 175/258/258 179/257/257 174/252/252
f 176/253/253 180/259/259 177/260/260
f 181/261/261 177/260/260 180/259/259
f 180/259/259 182/262/262 181/263/263
f 183/264/264 181/263/263 182/262/262
f 183/265/265 182/266/266 179/267/267
f 178/256/256 179/267/267 182/266/266
f 184/268/268 186/269/269 185/270/270
f 187/271/271 185/270/270 186/269/269
f 188/272/272 187/271/271 189/273/273
f 186/274/274 189/273/273 187/271/271
f 185/270/270 190/275/275 184/276/276
f 191/277/277 184/276/276 190/275/275
f 192/278/278 193/279/279 189/280/280
f 188/272/272 189/280/280 193/279/279
f 193/279/279 192/281/281 190/282/282
f 191/283/283 190/282/282 192/281/281
f 194/284/284 195/285/285 183/265/265
f 183/265/265 179/267/267 194/284/284
f 196/286/286 194/284/284 179/267/267
f 179/267/267 175/287/287 196/286/286
f 197/288/288 196/286/286 175/287/287
f 175/287/287 177/289/289 197/288/288
f 198/290/290 197/288/288 177/289/289
f 177/289/289 181/291/291 198/290/290
f 195/292/292 198/290/290 181/291/291
f 181/291/291 183/293/293 195/292/292
f 178/256/256 182/266/266 190/275/275
f 190/275/275 185/270/270 178/256/256
f 174/252/252 178/256/256 185/270/270
f 185/270/270 187/271/271 174/252/252
f 176/253/253 174/252/252 187/271/271
f 187/271/271 188/272/272 176/253/253
f 180/259/259 176/253/253 188/272/272
f 188/272/272 193/279/279 180/259/259
f 182/262/262 180/259/259 193/279/279
f 193/279/279 190/282/282 182/262/262
f 194/294/294 196/295/295 197/296/296
f 197/296/296 198/297/297 194/294/294
f 195/298/298 194/294/294 198/297/297
f 199/299/299 201/300/300 200/301/301
f 202/302/302 204/303/303 203/304/304
f 205/305/305 203/304/304 204/303/303
f 206/306/306 205/305/305 204/303/303
f 204/303/303 207/307/307 206/306/306
f 200/301/301 206/306/306 207/307/307
f 207/307/307 208/308/308 200/301/301
f 199/299/299 200/301/301 208/308/308
f 209/309/309 199/299/299 208/308/308
f 208/308/308 210/310/310 209/309/309
f 211/311/311 209/309/309 210/310/310
f 204/303/303 202/302/302 212/312/312
f 207/307/307 204/303/303 212/312/312
f 212/312/312 213/313/313 207/307/307
f 208/308/308 207/307/307 213/313/313
f 210/310/310 208/308/308 213/313/313
f 213/313/313 214/314/314 210/310/310
f 215/315/315 210/310/310 214/314/314
f 214/314/314 213/313/313 216/316/316
f 212/312/312 216/316/316 213/313/313
f 210/310/310 215/315/315 211/311/311
f 200/317/317 211/311/311 215/315/315
f 206/318/318 200/317/317 215/315/315
f 215/315/315 214/314/314 206/318/318
f 205/319/319 206/318/318 214/314/314
f 214/314/314 216/316/316 205/319/319
f 217/320/320 205/319/319 216/316/316
f 218/321/321 217/320/320 216/316/316
f 216/316/316 212/312/312 218/321/321
f 202/302/302 218/321/321 212/312/312
f 201/322/322 211/311/311 200/317/317
f 219/323/323 221/324/324 220/325/325
f 220/325/325 222/326/326 219/323/323
f 223/327/327 219/323/323 222/326/326
f 224/328/328 223/327/327 222/326/326
f 222/326/326 225/329/329 224/328/328
f 225/329/329 226/330/330 224/328/328
f 226/330/330 227/331/331 224/328/328
f 228/332/332 224/328/328 227/331/331
f 227/331/331 229/333/333 228/332/332
f 228/332/332 223/327/327 224/328/328
f 220/325/325 230/334/334 222/326/326
f 225/329/329 222/326/326 230/334/334
f 230/334/334 231/335/335 225/329/329
f 231/335/335 232/336/336 225/329/329
f 226/330/330 225/329/329 232/336/336
f 232/336/336 233/337/337 226/330/330
f 233/337/337 234/338/338 226/330/330
f 227/331/331 226/330/330 234/338/338
f 234/338/338 235/339/339 227/331/331
f 229/333/333 227/331/331 235/339/339
f 202/340/340 203/341/341 235/339/339
f 235/339/339 203/341/341 229/333/333
f 203/341/341 217/342/342 229/333/333
f 217/342/342 236/343/343 229/333/333
f 228/332/332 229/333/333 236/343/343
f 236/343/343 237/344/344 228/332/332
f 223/327/327 228/332/332 237/344/344
f 237/344/344 233/345/345 223/327/327
f 219/323/323 223/327/327 233/345/345
f 233/345/345 232/346/346 219/323/323
f 221/324/324 219/323/323 232/346/346
f 232/346/346 231/347/347 221/324/324
f 217/348/348 203/304/304 205/305/305
f 231/349/349 230/350/350 238/351/351
f 239/352/352 238/351/351 230/350/350
f 230/350/350 220/353/353 239/352/352
f 240/354/354 239/352/352 220/353/353
f 220/353/353 221/355/355 240/354/354
f 241/356/356 240/354/354 221/355/355
f 221/355/355 231/357/357 241/356/356
f 238/358/358 241/356/356 231/357/357
f 217/359/359 218/360/360 236/361/361
f 242/362/362 236/361/361 218/360/360
f 218/360/360 202/340/340 242/362/362
f 202/340/340 235/339/339 242/362/362
f 235/339/339 234/338/338 242/362/362
f 237/363/363 242/362/362 234/338/338
f 234/338/338 233/337/337 237/363/363
f 237/363/363 236/361/361 242/362/362
f 243/364/364 245/365/365 244/366/366
f 244/367/367 247/368/368 246/369/369
f 248/370/370 246/369/369 247/368/368
f 245/371/371 250/372/372 249/373/373
f 251/374/374 249/373/373 250/372/372
f 244/366/366 245/365/365 247/375/375
f 249/376/376 247/375/375 245/365/365
f 246/377/377 248/378/378 252/379/379
f 251/374/374 252/379/379 248/378/378
f 243/364/364 244/367/367 246/369/369
f 245/371/371 243/364/364 250/372/372
f 252/379/379 243/364/364 246/377/377
f 243/364/364 252/379/379 250/372/372
f 252/379/379 251/374/374 250/372/372
f 253/380/380 255/381/381 254/382/382
f 254/382/382 256/383/383 253/380/380
f 257/384/384 253/380/380 256/383/383
f 256/383/383 258/385/385 257/384/384
f 255/381/381 259/386/386 254/382/382
f 260/387/387 254/382/382 259/386/386
f 258/385/385 260/387/387 259/386/386
f 257/384/384 258/385/385 259/386/386
f 261/388/388 263/389/389 262/390/390
f 264/391/391 261/388/388 265/392/392
f 266/393/393 265/392/392 261/388/388
f 261/388/388 262/390/390 266/393/393
f 262/390/390 267/394/394 266/393/393
f 267/394/394 268/395/395 266/393/393
f 268/395/395 269/396/396 266/393/393
f 265/392/392 266/393/393 269/396/396
f 269/396/396 270/397/397 265/392/392
f 271/398/398 265/392/392 270/397/397
f 272/399/399 271/398/398 270/397/397
f 270/397/397 273/400/400 272/399/399
f 274/401/401 272/399/399 273/400/400
f 273/400/400 275/402/402 274/401/401
f 276/403/403 277/404/404 275/402/402
f 274/401/401 275/402/402 277/404/404
f 277/404/404 278/405/405 274/401/401
f 278/405/405 279/406/406 274/401/401
f 272/399/399 274/401/401 279/406/406
f 279/406/406 280/407/407 272/399/399
f 271/398/398 272/399/399 280/407/407
f 280/407/407 281/408/408 271/398/398
f 281/408/408 264/391/391 271/398/398
f 265/392/392 271/398/398 264/391/391
f 268/395/395 267/394/394 282/409/409
f 268/395/395 282/409/409 283/410/410
f 282/409/409 263/389/389 283/410/410
f 263/389/389 261/388/388 283/410/410
f 261/388/388 264/391/391 283/410/410
f 284/411/411 283/410/410 264/391/391
f 264/391/391 281/408/408 284/411/411
f 285/412/412 284/411/411 281/408/408
f 286/413/413 285/412/412 281/408/408
f 281/408/408 280/407/407 286/413/413
f 287/414/414 286/413/413 280/407/407
f 280/407/407 279/406/406 287/414/414
f 288/415/415 287/414/414 279/406/406
f 279/406/406 278/405/405 288/415/415
f 288/415/415 276/403/403 287/414/414
f 276/403/403 275/402/402 287/414/414
f 286/413/413 287/414/414 275/402/402
f 275/402/402 273/400/400 286/413/413
f 285/412/412 286/413/413 273/400/400
f 273/400/400 270/397/397 285/412/412
f 270/397/397 269/396/396 285/412/412
f 284/411/411 285/412/412 269/396/396
f 269/396/396 268/395/395 284/411/411
f 283/410/410 284/411/411 268/395/395
f 289/416/416 291/417/417 290/418/418
f 292/419/419 289/416/416 293/420/420
f 294/421/421 293/420/420 289/416/416
f 289/416/416 290/418/418 294/421/421
f 290/418/418 295/422/422 294/421/421
f 295/422/422 296/423/423 294/421/421
f 296/423/423 297/424/424 294/421/421
f 293/420/420 294/421/421 297/424/424
f 297/424/424 298/425/425 293/420/420
f 299/426/426 293/420/420 298/425/425
f 300/427/427 299/426/426 298/425/425
f 298/425/425 301/428/428 300/427/427
f 302/429/429 300/427/427 301/428/428
f 301/428/428 303/430/430 302/429/429
f 304/431/431 305/432/432 303/430/430
f 302/429/429 303/430/430 305/432/432
f 305/432/432 306/433/433 302/429/429
f 306/433/433 307/434/434 302/429/429
f 300/427/427 302/429/429 307/434/434
f 307/434/434 308/435/435 300/427/427
f 299/426/426 300/427/427 308/435/435
f 308/435/435 309/436/436 299/426/426
f 309/436/436 292/419/419 299/426/426
f 293/420/420 299/426/426 292/419/419
f 296/423/423 295/422/422 310/437/437
f 296/423/423 310/437/437 311/438/438
f 310/437/437 291/417/417 311/438/438
f 291/417/417 289/416/416 311/438/438
f 289/416/416 292/419/419 311/438/438
f 312/439/439 311/438/438 292/419/419
f 292/419/419 309/436/436 312/439/439
f 313/440/440 312/439/439 309/436/436
f 314/441/441 313/440/440 309/436/436
f 309/436/436 308/435/435 314/441/441
f 315/442/442 314/441/441 308/435/435
f 308/435/435 307/434/434 315/442/442
f 316/443/443 315/442/442 307/434/434
f 307/434/434 306/433/433 316/443/443
f 316/443/443 304/431/431 315/442/442
f 304/431/431 303/430/430 315/442/442
f 314/441/441 315/442/442 303/430/430
f 303/430/430 301/428/428 314/441/441
f 313/440/440 314/441/441 301/428/428
f 301/428/428 298/425/425 313/440/440
f 298/425/425 297/424/424 313/440/440
f 312/439/439 313/440/440 297/424/424
f 297/424/424 296/423/423 312/439/439
f 311/438/438 312/439/439 296/423/423
