#
# Exported by OpenBRF -- marco tarini
#
s wushuang_weapon_qixinjian
newmtl wushuang_weapon_qixinjian
Ka 0.8 0.8 0.8
Kd 0.2 0.2 0.2
usemtl wushuang_weapon_qixinjian
v 0.03737 0.000395 1.23343
v 0.000664 0.00021 1.30533
v 0.000611 0.010072 1.21475
v 0.000594 0.013286 0.796765
v -0.031496 -6.4e-05 0.71829
v 0.000591 0.013816 0.718287
v -0.044602 -0.000121 0.796767
v -0.036042 -6.9e-05 0.851033
v 0.0006 0.01218 0.851017
v -0.036042 3e-06 1.23343
v 0.000735 -0.013046 0.796769
v 0.032825 0.000279 0.71829
v 0.000738 -0.0136 0.718292
v 0.04593 0.000362 0.796767
v 0.037371 0.000323 0.851033
v 0.000729 -0.011926 0.851021
v 0.000717 -0.00968 1.21475
v 0.000733 -0.012806 0.627207
v -0.050625 -0.00018 0.627204
v -0.036849 -0.000116 0.572086
v 0.000726 -0.011379 0.572088
v 0.000726 -0.011486 0.512585
v -0.047065 -0.00018 0.512583
v -0.033832 -0.000116 0.467746
v 0.000708 -0.008081 0.467748
v 0.000708 -0.008095 0.383336
v -0.032634 -0.000123 0.383334
v 0.000596 0.012993 0.627202
v 0.051954 0.000367 0.627204
v 0.038178 0.000285 0.572086
v 0.000603 0.011548 0.572085
v 0.000603 0.011636 0.512581
v 0.048394 0.00033 0.512583
v 0.035161 0.000252 0.467746
v 0.000621 0.008217 0.467745
v 0.033963 0.000232 0.383334
v 0.000621 0.008204 0.383333
v -0.108772 -0.000574 0.045198
v -0.036174 -0.032533 0.111035
v 0.000665 2e-05 0.11103
v -0.084187 -0.017737 0.069255
v -0.122455 -0.000645 0.059627
v -0.077365 -0.000396 0.11103
v -0.084371 0.016857 0.069249
v -0.036519 0.032178 0.111025
v 0.123785 0.000668 0.059627
v 0.037849 -0.032138 0.111035
v 0.078695 0.000436 0.11103
v 0.085701 -0.016831 0.069255
v 0.110102 0.000593 0.045198
v 0.085517 0.017763 0.069249
v 0.037504 0.032573 0.111025
v 0.000518 0.027647 0.408807
v 0.02463 0.008118 0.518412
v 0.000602 0.011898 0.525579
v 0.000665 7.5e-05 0.458093
v -0.023301 -0.007948 0.518414
v -0.032706 -0.000103 0.458093
v 0.000728 -0.011726 0.525583
v -0.023385 0.007862 0.518412
v 0.034036 0.000253 0.458093
v 0.024714 -0.007692 0.518414
v 0.036359 0.00026 0.42386
v 0.043706 0.000297 0.408532
v 0.060574 0.000364 0.262688
v 0.000424 0.04511 0.261771
v 0.076173 0.000425 0.128085
v 0.000337 0.061521 0.128075
v 0.000993 -0.061476 0.128094
v 0.000905 -0.045022 0.261785
v 0.000812 -0.027512 0.408816
v -0.074843 -0.00038 0.128085
v -0.059245 -0.000275 0.262688
v -0.042376 -0.000162 0.408532
v -0.03503 -0.000121 0.42386
v 0.000777 -0.021023 0.079023
v 0.000726 -0.011402 -0.006335
v -0.020372 -9.8e-05 0.07902
v 0.000792 -0.023704 -0.08322
v -0.023027 -0.000139 -0.090544
v -0.010738 -6e-05 -0.006337
v 0.000604 0.011404 -0.006338
v 0.000553 0.021052 0.079016
v 0.021702 0.000127 0.07902
v 0.012068 6.2e-05 -0.006337
v 0.024358 0.000114 -0.090544
v 0.000539 0.023681 -0.083227
v 0.000479 0.034952 -0.099261
v 0.000665 -1.5e-05 -0.108903
v 0.035631 0.000171 -0.106576
v -0.034301 -0.000202 -0.106576
v 0.000852 -0.03498 -0.09925
v -0.078133 -0.000398 0.128431
v 0.000317 0.065264 0.111077
v 0.00032 0.06468 0.128421
v -0.078848 -0.000404 0.111087
v 0.001013 -0.065224 0.111098
v 0.00101 -0.064635 0.128442
v 0.079463 0.000443 0.128431
v 0.080178 0.000444 0.111087
v 0.000825 -0.030013 0.080511
v 0.000825 -0.030008 0.110128
v 0.030693 0.000175 0.080507
v 0.030693 0.00018 0.110124
v 0.000505 0.030043 0.080502
v 0.000505 0.030047 0.110119
v -0.029363 -0.000145 0.080507
v -0.029363 -0.000141 0.110124
v 0.000665 2.3e-05 0.128431
v 0.05467 -0.019251 0.128894
v 0.058517 -0.013023 0.139178
v 0.062778 -0.010173 0.128893
v 0.053046 -0.021303 0.138903
v 0.054454 -0.024315 0.1659
v 0.057106 -0.017414 0.164436
v 0.068741 -0.025849 0.204784
v 0.070658 -0.018828 0.203274
v 0.075227 -0.021924 0.262548
v 0.07506 -0.024649 0.263815
v 0.09276 -0.021114 0.28464
v 0.072013 -0.024074 0.264695
v 0.060728 -0.025471 0.205566
v 0.044323 -0.025972 0.167642
v 0.044213 -0.026508 0.137686
v 0.04065 -0.028893 0.128896
v -0.042883 0.026556 0.137678
v -0.05334 0.019296 0.128888
v -0.03932 0.028938 0.128886
v -0.051716 0.021352 0.138896
v -0.053124 0.024372 0.165892
v -0.042993 0.026029 0.167633
v -0.067411 0.025919 0.204775
v -0.059398 0.025541 0.205557
v -0.07373 0.024737 0.263806
v -0.070684 0.024162 0.264687
v -0.091431 0.021209 0.284633
v -0.073897 0.022012 0.262541
v -0.069328 0.018897 0.203268
v -0.055776 0.017471 0.16443
v -0.057187 0.013071 0.139173
v -0.061448 0.010219 0.128889
v -0.042597 -0.026971 0.137686
v -0.051485 -0.021861 0.138903
v -0.042713 -0.026436 0.167642
v -0.052861 -0.024887 0.1659
v -0.059123 -0.02611 0.205566
v -0.067131 -0.026574 0.204784
v -0.070422 -0.024833 0.264695
v -0.073463 -0.025441 0.263815
v -0.0912 -0.022095 0.28464
v -0.073659 -0.022718 0.262548
v -0.069123 -0.019573 0.203274
v -0.055587 -0.018015 0.164436
v -0.057044 -0.013639 0.139178
v -0.061335 -0.010835 0.128893
v -0.053131 -0.019826 0.128894
v -0.039009 -0.029318 0.128896
v 0.071752 0.024922 0.264687
v 0.074792 0.025529 0.263806
v 0.092529 0.02219 0.284633
v 0.074988 0.022806 0.262541
v 0.070452 0.019642 0.203268
v 0.068461 0.026644 0.204775
v 0.054191 0.024944 0.165892
v 0.056917 0.018072 0.16443
v 0.052815 0.021909 0.138896
v 0.058374 0.013688 0.139173
v 0.062665 0.01088 0.128889
v 0.054461 0.019871 0.128888
v 0.040339 0.029363 0.128886
v 0.043927 0.027019 0.137678
v 0.044043 0.026494 0.167633
v 0.060453 0.02618 0.205557
v 0.019929 -0.047191 0.139996
v 0.027092 -0.037589 0.175136
v 0.024358 -0.041982 0.138964
v 0.025404 -0.04351 0.176133
v 0.020556 -0.042403 0.248382
v 0.020017 -0.047014 0.249425
v 0.030888 -0.034505 0.313409
v 0.014956 -0.046663 0.249519
v 0.019667 -0.043237 0.176762
v 0.006369 -0.057148 0.1289
v 0.019889 -0.048571 0.128899
v 0.025838 -0.040858 0.128898
v 0.00973 0.052829 0.141594
v 0.005759 0.05725 0.128882
v 0.019425 0.047443 0.139981
v 0.01937 0.048819 0.128883
v 0.025401 0.041169 0.128884
v 0.023908 0.042281 0.138951
v 0.024938 0.043832 0.17612
v 0.026689 0.037929 0.175124
v 0.019514 0.047302 0.24941
v 0.020102 0.042696 0.248369
v 0.030518 0.03493 0.313398
v 0.014457 0.046896 0.249504
v 0.019204 0.043497 0.176748
v -0.01804 -0.048773 0.128899
v -0.018095 -0.047394 0.139996
v -0.004429 -0.057205 0.1289
v -0.024071 -0.041124 0.128898
v -0.022578 -0.042233 0.138964
v -0.023608 -0.043772 0.176133
v -0.02536 -0.037869 0.175136
v -0.018184 -0.047218 0.249425
v -0.018773 -0.042613 0.248382
v -0.029188 -0.034826 0.313409
v -0.013127 -0.046812 0.249519
v -0.017875 -0.043437 0.176762
v -0.018337 0.043297 0.176748
v -0.024074 0.043571 0.17612
v -0.008963 0.05273 0.141594
v -0.018599 0.04724 0.139981
v -0.018559 0.048616 0.128883
v -0.005039 0.057193 0.128882
v -0.024509 0.040903 0.128884
v -0.023028 0.042031 0.138951
v -0.025762 0.037649 0.175124
v -0.019226 0.042486 0.248369
v -0.018687 0.047098 0.24941
v -0.029559 0.03461 0.313398
v -0.013626 0.046747 0.249504
v 0.004523 0.032463 -0.190411
v 0.004991 0.032147 -0.153117
v 0.018548 0.032219 -0.153117
v 0.021411 0.020952 -0.119121
v 0.020313 0.020882 -0.139837
v 0.00056 0.019704 -0.119121
v 0.000618 0.008912 -0.138137
v 0.002178 0.043123 -0.148095
v 0.011786 0.054166 -0.143074
v 0.000572 0.017426 -0.100021
v 0.006652 0.021093 -0.100021
v 0.016894 0.016389 -0.100021
v 0.021362 0.043226 -0.148095
v -0.01756 0.032027 -0.153117
v -0.020303 0.020729 -0.119121
v -0.01488 0.01536 -0.138138
v -0.003539 0.03242 -0.190411
v -0.003454 0.032102 -0.153117
v -0.001308 0.043105 -0.148095
v -0.011033 0.054044 -0.143074
v -0.005547 0.021028 -0.100021
v -0.015738 0.016215 -0.100021
v -0.020492 0.043002 -0.148095
v 0.01889 -0.032072 -0.153106
v 0.005334 -0.032144 -0.153106
v 0.004869 -0.032477 -0.190401
v 0.021822 -0.043046 -0.148081
v 0.012363 -0.054086 -0.143057
v 0.002638 -0.043148 -0.148081
v 0.000713 -0.008953 -0.138134
v 0.00077 -0.019738 -0.119115
v 0.000758 -0.017454 -0.100015
v 0.006877 -0.021056 -0.100015
v 0.017068 -0.016243 -0.100015
v 0.021634 -0.020763 -0.119115
v 0.020535 -0.020712 -0.13983
v -0.000848 -0.043167 -0.148081
v -0.003111 -0.032189 -0.153106
v -0.003192 -0.03252 -0.190401
v -0.010455 -0.054207 -0.143057
v -0.005322 -0.021121 -0.100015
v -0.015564 -0.016417 -0.100015
v -0.020032 -0.043269 -0.148081
v -0.020081 -0.020986 -0.119115
v -0.014715 -0.015566 -0.138133
v -0.017217 -0.032264 -0.153106
v 0.033157 -0.003886 -0.190405
v 0.032835 -0.004348 -0.153111
v 0.032907 -0.017905 -0.153108
v 0.021568 -0.019669 -0.13983
v 0.020386 8.8e-05 -0.119118
v 0.009598 2.8e-05 -0.138135
v 0.04381 -0.001535 -0.148088
v 0.054852 -0.011141 -0.143063
v 0.018106 7.9e-05 -0.100018
v 0.021772 -0.006001 -0.100017
v 0.043912 -0.020719 -0.148085
v 0.032715 0.018203 -0.153114
v 0.016046 0.015525 -0.138138
v 0.033114 0.004175 -0.190407
v 0.03279 0.004097 -0.153112
v 0.043792 0.001952 -0.148089
v 0.05473 0.011677 -0.143067
v 0.021707 0.006198 -0.100019
v 0.043689 0.021136 -0.148092
v -0.031384 -0.018248 -0.153108
v -0.031456 -0.004691 -0.153111
v -0.031783 -0.004232 -0.190405
v -0.042359 -0.021179 -0.148085
v -0.0534 -0.011719 -0.143063
v -0.020026 -0.019891 -0.13983
v -0.020377 -0.006226 -0.100017
v -0.016775 -0.000107 -0.100018
v -0.019056 -0.000122 -0.119118
v -0.042461 -0.001995 -0.148088
v -0.008267 -6.8e-05 -0.138135
v -0.042582 0.020675 -0.148092
v -0.031577 0.01786 -0.153114
v -0.031826 0.003829 -0.190407
v -0.053521 0.0111 -0.143067
v -0.04248 0.001491 -0.148089
v -0.031501 0.003754 -0.153112
v -0.020442 0.005973 -0.100019
v -0.022147 -0.023085 -0.189138
v -0.046617 -0.000274 -0.14911
v -0.03259 -0.033634 -0.149105
v -0.031769 -0.000201 -0.189142
v 0.000665 -3.1e-05 -0.20606
v 0.000838 -0.032462 -0.189137
v 0.023722 -0.02284 -0.189138
v 0.033099 0.000145 -0.189142
v 0.000917 -0.047304 -0.149102
v 0.034277 -0.033277 -0.149105
v 0.047948 0.00023 -0.14911
v 0.000665 -1.2e-05 -0.085294
v -0.032947 0.033234 -0.149115
v -0.022391 0.022784 -0.189146
v 0.000413 0.047261 -0.149117
v 0.000492 0.032406 -0.189147
v 0.033921 0.03359 -0.149115
v 0.023477 0.023028 -0.189146
v -0.11987 -0.000364 0.272873
v -0.061628 9e-06 0.47661
v -0.074136 -7.9e-05 0.530848
v -0.049475 0.000136 0.446331
v -0.05141 0.000271 0.417892
v -0.040582 0.000325 0.392728
v -0.117215 -0.000293 0.241009
v -0.121316 -0.000245 0.203329
v -0.11062 -8.4e-05 0.172869
v -0.072916 0.00011 0.131318
v 0.074241 0.000895 0.131318
v 0.111945 0.001103 0.172869
v 0.041906 0.000765 0.392728
v 0.122642 0.001056 0.203329
v 0.118542 0.000964 0.241009
v 0.121197 0.000921 0.272873
v 0.052734 0.000826 0.417892
v 0.050801 0.000671 0.446331
v 0.062954 0.000673 0.47661
v 0.075463 0.000719 0.530848
v -0.061628 -0.001045 0.47661
v -0.11987 -0.001418 0.272873
v -0.074136 -0.001133 0.530848
v -0.049475 -0.000918 0.446331
v -0.05141 -0.000783 0.417892
v -0.040582 -0.000729 0.392728
v -0.117215 -0.001347 0.241009
v -0.121316 -0.001299 0.203329
v -0.11062 -0.001138 0.172869
v -0.072916 -0.000943 0.131318
v 0.111945 4.9e-05 0.172869
v 0.074241 -0.000159 0.131318
v 0.041906 -0.000289 0.392728
v 0.122642 2e-06 0.203329
v 0.118542 -8.9e-05 0.241009
v 0.121197 -0.000133 0.272873
v 0.052734 -0.000227 0.417892
v 0.050801 -0.000383 0.446331
v 0.062954 -0.000381 0.47661
v 0.075463 -0.000335 0.530848
vn 0.996737 0.00534908 0.0805373
vt 0.144213 0.872421
vn -0.00533907 0.999885 0.0142188
vt 0.085086 0.841001
vn 0 0 1
vt 0.085086 0.993386
vn -0.00533532 0.999986 -0.000293667
vt 0.085086 0.137808
vn -0.00533244 0.999963 0.00675343
vt 0.085086 0.00886101
vn -0.997292 -0.00534842 -0.0733548
vt 0.03328 0.00886101
vn -0.9994 -0.00535655 -0.0342263
vt 0.012169 0.137808
vn -0.999686 -0.00534641 0.024494
vt 0.025958 0.229103
vn -0.00533941 0.999956 0.00768915
vt 0.085086 0.229079
vn -0.996737 -0.00534903 0.080537
vt 0.025958 0.872421
vn 0.0053353 -0.999986 -4.18755e-06
vt 0.085086 0.137808
vn 0.00533241 -0.999961 0.00705932
vt 0.085086 0.00886101
vn 0.997292 0.00533912 -0.0733503
vt 0.136891 0.00886101
vn 0.9994 0.00534637 -0.0342278
vt 0.158002 0.137808
vn 0.999686 0.00536546 0.024493
vt 0.144213 0.229103
vn 0.00533942 -0.999953 0.00805285
vt 0.085086 0.229079
vn 0.00533904 -0.999879 0.0145893
vt 0.085086 0.841001
vn 0.00533446 -0.999986 -0.000707174
vt 0.235766 0.442066
vn 0.00533235 -0.999948 -0.00871697
vt 0.235766 0.603981
vn -0.995863 -0.00529518 0.0907128
vt 0.187693 0.603981
vn -0.999316 -0.00529962 0.0365901
vt 0.159101 0.442066
vn -0.999168 -0.0053467 -0.0404433
vt 0.179693 0.344087
vn 0.0053443 -0.999919 -0.0115155
vt 0.235766 0.344087
vn 0.00534078 -0.999844 -0.0168421
vt 0.235766 0.238311
vn -0.999568 -0.00532215 -0.0289026
vt 0.164421 0.238311
vn -0.992372 -0.00531303 -0.123168
vt 0.184202 0.158609
vn 0.00533196 -0.999642 -0.0262275
vt 0.235766 0.158609
vn 0.00530758 -0.995373 -0.0959365
vt 0.235766 0.00855601
vn -0.925668 -0.00501079 -0.378304
vt 0.185993 0.00855601
vn -0.00533446 0.999985 -0.00102466
vt 0.235766 0.442066
vn -0.00533233 0.999945 -0.00903531
vt 0.235766 0.603981
vn 0.995863 0.00533445 0.0907111
vt 0.283838 0.603981
vn 0.999316 0.00531369 0.0365884
vt 0.312431 0.442066
vn 0.999168 0.00532234 -0.040445
vt 0.291839 0.344087
vn -0.00534429 0.999916 -0.0118383
vt 0.235766 0.344087
vn -0.00534074 0.999839 -0.0171583
vt 0.235766 0.238311
vn 0.999568 0.00531231 -0.0289043
vt 0.30711 0.238311
vn 0.803836 -0.583204 -0.117135
vt 0.287329 0.158609
vn 0.0532187 0.998362 -0.0210203
vt 0.235766 0.158609
vn 0.56687 0.808951 -0.155745
vt 0.285539 0.00855601
vn -0.0849689 0.98825 -0.127051
vt 0.235766 0.00855601
vn 0.432151 -0.21078 -0.876822
vt 0.451397 0.430001
vn -6.6371e-07 -0.0001577 -1
vt 0.424566 0.824408
vn 0.21559 -0.793343 -0.569323
vt 0.545261 0.74211
vn -0.449436 -0.866616 0.216759
vt 0.492987 0.547111
vn -0.809762 0.377184 0.449464
vt 0.513262 0.438356
vn -0.755939 -0.223767 0.615211
vt 0.631279 0.597724
vn 0.266563 0.713739 -0.647704
vt 0.492987 0.547111
vn -0.187185 0.978977 -0.0810246
vt 0.545261 0.74211
vn 0.809761 -0.377032 0.449594
vt 0.513262 0.438356
vn 0.755941 0.223968 0.615135
vt 0.631279 0.597724
vn 0.18719 -0.979003 -0.0806977
vt 0.545261 0.74211
vn -0.266568 -0.713938 -0.647482
vt 0.492987 0.547111
vn -0.432152 0.210489 -0.876892
vt 0.451397 0.430001
vn 0.449443 0.86668 0.216486
vt 0.492987 0.547111
vn -0.215581 0.793165 -0.569574
vt 0.545261 0.74211
vn 0.000762804 0.99538 0.0960122
vt 0.668198 0.571215
vn -0.00528376 0.991013 0.133661
vt 0.666899 0.819264
vn 0.439321 0.896117 0.0630204
vt 0.781742 0.800491
vn 6.92375e-06 0.000195287 1
vt 0.993282 0.577115
vn 0.103051 -0.889252 0.445658
vt 0.993282 0.443754
vn 0.0433965 0.987938 0.148643
vt 0.915941 0.481174
vn -0.00526713 0.987732 0.156073
vt 0.906751 0.577115
vn 0.00526686 -0.98768 0.156397
vt 0.906751 0.577115
vn 0.133019 -0.985044 0.109518
vt 0.915941 0.481174
vn -0.103065 0.889388 0.445384
vt 0.993282 0.443754
vn -0.133038 0.985078 0.109187
vt 0.915941 0.481174
vn -0.0433934 -0.98789 0.148967
vt 0.915941 0.481174
vn 0.673169 0.739319 0.015811
vt 0.846345 0.654576
vn 0.886527 -0.452273 0.0975651
vt 0.859608 0.601361
vn 0.988887 0.00529504 0.148577
vt 0.886551 0.57089
vn 0.964639 -0.228516 0.131343
vt 0.968882 0.192403
vn 0.179328 0.977413 0.111831
vt 0.668476 0.27859
vn 0.933762 0.337067 0.120307
vt 0.985039 0.012731
vn -0.213729 0.970756 0.10933
vt 0.668476 0.013862
vn -0.482923 0.873708 0.0584684
vt 0.781742 0.800491
vn 0.213731 -0.97072 0.109645
vt 0.668476 0.013862
vn -0.179328 -0.977377 0.112144
vt 0.668476 0.27859
vn -0.000762471 -0.995349 0.0963283
vt 0.668198 0.571215
vn 0.482923 -0.87369 0.058748
vt 0.781742 0.800491
vn 0.00528353 -0.990971 0.133975
vt 0.666899 0.819264
vn -0.933763 -0.337029 0.120408
vt 0.985039 0.012731
vn -0.96464 0.228556 0.13127
vt 0.968882 0.192403
vn -0.988887 -0.00524658 0.148579
vt 0.886551 0.57089
vn -0.886534 0.452293 0.097411
vt 0.859608 0.601361
vn -0.67315 -0.739332 0.0160528
vt 0.846345 0.654576
vn -0.439311 -0.896102 0.0633061
vt 0.781742 0.800491
vn -0.68233 -0.689668 -0.242455
vt 0.495487 0.317469
vn -0.97549 0.00247805 -0.22003
vt 0.533937 0.317469
vn -0.708935 -0.705112 0.0151159
vt 0.495487 0.171528
vn -0.718993 -0.673897 0.170032
vt 0.495487 0.032567
vn -0.966786 -0.0809969 0.242412
vt 0.533937 0.032567
vn -0.999863 -0.00534668 0.015657
vt 0.533937 0.171528
vn -0.00534428 0.99976 0.0212321
vt 0.572388 0.171528
vn 0.00646784 0.961675 -0.274115
vt 0.572388 0.317469
vn 0.97549 -0.00254921 -0.220027
vt 0.610839 0.317469
vn 0.999863 0.0053508 0.0156611
vt 0.610839 0.171528
vn 0.716427 -0.697498 0.0151205
vt 0.64929 0.171528
vn 0.966786 0.0810704 0.242387
vt 0.610839 0.032567
vn 0.721617 -0.651837 0.233189
vt 0.64929 0.032567
vn -0.114127 0.949042 0.29376
vt 0.572388 0.032567
vn 0.702844 -0.695388 -0.149822
vt 0.64929 0.317469
vn -0.00141781 0.265817 -0.964022
vt 0.437617 0.12673
vn 0.0664023 0.000197266 -0.997793
vt 0.393411 0.081312
vn 8.37595e-07 -0.000157254 -1
vt 0.393411 0.12673
vn -0.0664006 -0.000511067 -0.997793
vt 0.393411 0.172147
vn 0.00141938 -0.266113 -0.963941
vt 0.349205 0.12673
vn -0.999137 -0.00532712 0.041184
vt 0.40728 0.419714
vn -0.00533332 0.999419 0.0336529
vt 0.488861 0.419714
vn -0.00533133 0.999419 0.0336583
vt 0.488861 0.388097
vn -0.999137 -0.0053226 0.0411906
vt 0.40728 0.388097
vn -0.629984 -0.776164 0.0262443
vt 0.3257 0.388097
vn -0.629984 -0.776165 0.0262494
vt 0.3257 0.419714
vn 0.999137 0.00533326 0.0411827
vt 0.570441 0.419714
vn 0.638231 -0.769398 0.0262389
vt 0.652021 0.419714
vn 0.638229 -0.769399 0.0262527
vt 0.652021 0.388097
vn 0.999137 0.00533581 0.0411895
vt 0.570441 0.388097
vn 0.205848 0.785579 0.583517
vt 0.572388 0.00995398
vn 0.817042 -0.191293 0.543921
vt 0.610839 0.00995398
vn 0.687475 -0.592761 0.419539
vt 0.64929 0.00995398
vn -0.683511 -0.579397 0.443973
vt 0.495487 0.00995398
vn -0.817027 0.191464 0.543883
vt 0.533937 0.00995398
vn 0.710864 -0.703329 0.000118766
vt 0.652021 0.332474
vn 0.950355 -0.311168 5.25448e-05
vt 0.570441 0.332474
vn 0.710864 -0.703329 0.000118752
vt 0.652021 0.388097
vn 0.946984 0.321281 -4.34956e-05
vt 0.570441 0.388097
vn 0.311159 0.950358 -0.000139068
vt 0.488861 0.332474
vn -0.321288 0.946982 -0.000127878
vt 0.488861 0.388097
vn -0.950355 0.311168 -4.20161e-05
vt 0.40728 0.332474
vn -0.946984 -0.321281 5.41385e-05
vt 0.40728 0.388097
vn -0.703323 -0.71087 0.000108024
vt 0.3257 0.332474
vn -0.703317 -0.710876 0.00012004
vt 0.3257 0.388097
vn -8.6805e-07 0.000162472 1
vt 0.154907 0.717865
vn -8.67019e-07 0.000162472 1
vt 0.225165 0.717865
vn -8.26442e-07 0.000154868 1
vt 0.225165 0.643356
vn -8.65988e-07 0.000162472 1
vt 0.295423 0.717865
vn -9.07596e-07 0.000170076 1
vt 0.225165 0.792375
vn 0.0205486 0.00379861 -0.999782
vt 0.393252 0.02984
vn 0.00421717 -0.0258458 -0.999657
vt 0.297843 0.126566
vn 0.0209816 -0.0133236 -0.999691
vt 0.393239 0.075067
vn 0.0116198 0.0250562 -0.999619
vt 0.44333 0.126531
vn -0.00421532 0.0255134 -0.999666
vt 0.488661 0.126566
vn -0.0209723 0.013004 -0.999695
vt 0.393239 0.177996
vn -0.0205527 -0.00412302 -0.99978
vt 0.393252 0.223292
vn -0.0116182 -0.0253858 -0.99961
vt 0.343148 0.126531
vn 0.16189 -0.160304 -0.973701
vt 0.64929 0.320011
vn 0.162818 0.0430216 -0.985718
vt 0.610839 0.320011
vn -0.0431596 0.162663 -0.985737
vt 0.572388 0.320011
vn -0.162791 -0.0432976 -0.98571
vt 0.533937 0.320011
vn -0.160173 -0.162019 -0.973702
vt 0.495487 0.320011
vn 0.667902 -0.744094 0.0152203
vt 0.354924 0.434754
vn 0.740131 -0.661033 0.123457
vt 0.378523 0.437784
vn 0.851085 -0.524708 -0.0183227
vt 0.36138 0.467378
vn 0.688101 -0.719444 -0.0944342
vt 0.341321 0.464327
vn 0.572277 -0.810402 -0.125489
vt 0.331827 0.543959
vn 0.896253 -0.361128 -0.257522
vt 0.344618 0.540608
vn 0.580615 -0.802193 -0.139185
vt 0.33659 0.655673
vn 0.936804 -0.295921 -0.186628
vt 0.34636 0.655343
vn 0.956485 -0.247436 -0.154634
vt 0.31596 0.802565
vn 0.198941 -0.979667 -0.0259675
vt 0.310094 0.805445
vn 0.435373 -0.872463 -0.221942
vt 0.325385 0.893192
vn -0.151855 -0.981619 0.115602
vt 0.304283 0.807823
vn -0.0689387 -0.997062 0.0333769
vt 0.324084 0.658602
vn 0.0942278 -0.995291 -0.0227472
vt 0.313611 0.545852
vn 0.404639 -0.913239 -0.0475659
vt 0.325718 0.458584
vn 0.566647 -0.823938 -0.00612901
vt 0.328035 0.436159
vn -0.404603 0.913239 -0.0478568
vt 0.325718 0.458584
vn -0.566647 0.823935 -0.00640953
vt 0.328035 0.436159
vn -0.667893 0.744107 0.0149674
vt 0.354924 0.434754
vn -0.688109 0.719405 -0.0946673
vt 0.341321 0.464327
vn -0.572255 0.810378 -0.125741
vt 0.331827 0.543959
vn -0.094182 0.995288 -0.0230611
vt 0.313611 0.545852
vn -0.580611 0.802151 -0.139442
vt 0.33659 0.655673
vn 0.068982 0.99707 0.0330708
vt 0.324084 0.658602
vn -0.198879 0.979672 -0.0262568
vt 0.310094 0.805445
vn 0.151948 0.981637 0.11533
vt 0.304283 0.807823
vn -0.435349 0.872404 -0.222224
vt 0.325385 0.893192
vn -0.956496 0.247348 -0.154708
vt 0.31596 0.802565
vn -0.936816 0.295823 -0.186721
vt 0.34636 0.655343
vn -0.896252 0.361041 -0.257645
vt 0.344618 0.540608
vn -0.851093 0.524689 -0.0184868
vt 0.36138 0.467378
vn -0.740095 0.661101 0.123307
vt 0.378523 0.437784
vn -0.496596 -0.867814 0.0170765
vt 0.325718 0.458584
vn -0.251062 -0.966608 -0.0513562
vt 0.313611 0.545852
vn -0.624185 -0.780443 -0.0360791
vt 0.341321 0.464327
vn -0.508145 -0.842312 -0.179721
vt 0.331827 0.543959
vn -0.0110906 -0.999877 -0.0111042
vt 0.324084 0.658602
vn -0.442795 -0.891585 -0.0949134
vt 0.33659 0.655673
vn 0.0946034 -0.993811 0.0582196
vt 0.304283 0.807823
vn -0.800092 -0.591288 -0.101148
vt 0.310094 0.805445
vn -0.425948 -0.877125 -0.221857
vt 0.325385 0.893192
vn -0.94597 -0.190261 -0.262567
vt 0.31596 0.802565
vn -0.92663 -0.309137 -0.213989
vt 0.34636 0.655343
vn -0.873378 -0.456458 -0.169874
vt 0.344618 0.540608
vn -0.827923 -0.560461 0.0206733
vt 0.36138 0.467378
vn -0.77798 -0.623306 0.0789735
vt 0.378523 0.437784
vn -0.636841 -0.769262 -0.0516741
vt 0.354924 0.434754
vn -0.536911 -0.842619 -0.04148
vt 0.328035 0.436159
vn -0.0945502 0.993836 0.0578817
vt 0.304283 0.807823
vn 0.426058 0.876972 -0.222249
vt 0.325385 0.893192
vn 0.800217 0.591084 -0.101353
vt 0.310094 0.805445
vn 0.945985 0.190099 -0.26263
vt 0.31596 0.802565
vn 0.926662 0.308975 -0.214082
vt 0.34636 0.655343
vn 0.442884 0.891509 -0.095211
vt 0.33659 0.655673
vn 0.508166 0.84224 -0.179999
vt 0.331827 0.543959
vn 0.873362 0.456436 -0.170013
vt 0.344618 0.540608
vn 0.624177 0.780437 -0.0363402
vt 0.341321 0.464327
vn 0.827896 0.560508 0.0204712
vt 0.36138 0.467378
vn 0.777968 0.623348 0.0787527
vt 0.378523 0.437784
vn 0.636841 0.769246 -0.0519068
vt 0.354924 0.434754
vn 0.536921 0.842599 -0.0417482
vt 0.328035 0.436159
vn 0.496627 0.867802 0.016781
vt 0.325718 0.458584
vn 0.251101 0.96658 -0.0516801
vt 0.313611 0.545852
vn 0.0110837 0.999873 -0.011428
vt 0.324084 0.658602
vn 0.609604 -0.790663 0.0568727
vt 0.370929 0.915955
vn 0.770848 -0.635942 0.0370382
vt 0.346653 0.923797
vn 0.924262 -0.381613 0.0105529
vt 0.341068 0.837075
vn 0.60642 -0.795121 0.00613984
vt 0.356882 0.836733
vn 0.983493 -0.180707 0.00930978
vt 0.396577 0.66719
vn 0.608767 -0.792866 0.0276908
vt 0.407048 0.666055
vn 0.611154 -0.789893 0.0505894
vt 0.378976 0.524985
vn -0.0623586 -0.997768 0.023879
vt 0.419054 0.667371
vn 0.251087 -0.966689 0.049676
vt 0.370909 0.837038
vn 0.536966 -0.838136 0.095895
vt 0.396527 0.925957
vn 0.664845 -0.742363 0.0829363
vt 0.374708 0.95133
vn 0.790917 -0.610024 0.0481712
vt 0.337312 0.946535
vn 0.496467 0.861308 0.108022
vt 0.396527 0.925957
vn 0.520935 0.850243 0.0755813
vt 0.370929 0.915955
vn 0.512407 0.850265 0.120371
vt 0.396527 0.925957
vn 0.630765 0.770453 0.0924
vt 0.374708 0.95133
vn 0.773988 0.630308 0.0604487
vt 0.337312 0.946535
vn 0.855327 0.516959 -0.034187
vt 0.346653 0.923797
vn 0.631078 0.775707 0.00450359
vt 0.356882 0.836733
vn 0.973599 0.223904 0.0444161
vt 0.341068 0.837075
vn 0.59982 0.799832 0.0220256
vt 0.407048 0.666055
vn 0.990937 0.132057 -0.0245763
vt 0.396577 0.66719
vn 0.602665 0.796405 0.0503439
vt 0.378976 0.524985
vn -0.0785658 0.994528 0.0688549
vt 0.419054 0.667371
vn 0.101571 0.994706 0.015585
vt 0.370909 0.837038
vn -0.630763 -0.770429 0.092613
vt 0.374708 0.95133
vn -0.527946 -0.843846 0.095896
vt 0.396527 0.925957
vn -0.534492 -0.842244 0.0703116
vt 0.370929 0.915955
vn -0.773948 -0.63034 0.0606307
vt 0.337312 0.946535
vn -0.855289 -0.517033 -0.034027
vt 0.346653 0.923797
vn -0.631094 -0.775692 0.00475048
vt 0.356882 0.836733
vn -0.973558 -0.224067 0.0444747
vt 0.341068 0.837075
vn -0.599761 -0.799869 0.022291
vt 0.407048 0.666055
vn -0.990907 -0.132295 -0.0245212
vt 0.396577 0.66719
vn -0.602546 -0.796477 0.0506302
vt 0.378976 0.524985
vn 0.0785572 -0.994507 0.069174
vt 0.419054 0.667371
vn -0.164626 -0.986035 0.0251663
vt 0.370909 0.837038
vn 0.0413912 0.99751 0.0570949
vt 0.370909 0.837038
vn -0.401798 0.909143 0.109621
vt 0.396527 0.925957
vn -0.585887 0.810006 0.0250261
vt 0.356882 0.836733
vn -0.704498 0.7097 0.00301846
vt 0.370929 0.915955
vn -0.619888 0.778172 0.100932
vt 0.374708 0.95133
vn -0.531139 0.837254 0.129993
vt 0.396527 0.925957
vn -0.790869 0.610102 0.0479865
vt 0.337312 0.946535
vn -0.770821 0.635985 0.0368422
vt 0.346653 0.923797
vn -0.924273 0.381589 0.0104347
vt 0.341068 0.837075
vn -0.983498 0.180683 0.00924799
vt 0.396577 0.66719
vn -0.60882 0.792834 0.0274276
vt 0.407048 0.666055
vn -0.611204 0.789873 0.0503051
vt 0.378976 0.524985
vn 0.0624383 0.997771 0.023551
vt 0.419054 0.667371
vn -0.00222478 0.415551 -0.909567
vt 0.923638 0.587549
vn 0.859133 -0.4764 -0.186906
vt 0.971135 0.736603
vn 0.00531054 -0.999949 -0.00853937
vt 0.97769 0.735635
vn 0.936208 0.294896 0.191184
vt 0.972747 0.831033
vn 0.994282 0.0926964 -0.0530127
vt 0.981226 0.804259
vn -0.993865 -0.0674078 -0.0876829
vt 0.923909 0.743579
vn -0.9877 0.134674 -0.0794431
vt 0.924293 0.838191
vn -0.995556 0.0281484 -0.089861
vt 0.931964 0.837057
vn -0.952079 0.30567 0.0105166
vt 0.930845 0.742554
vn 0.120106 0.953788 0.275432
vt 0.945518 0.740387
vn -0.809808 0.515279 0.280534
vt 0.944481 0.835209
vn 0.0501364 0.789127 0.61218
vt 0.952002 0.834098
vn 0.620116 0.624694 0.474566
vt 0.963979 0.832329
vn 0.920264 0.356925 -0.160371
vt 0.961549 0.738019
vn -0.95367 -0.197919 -0.226586
vt 0.868345 0.738212
vn -0.249655 0.925195 -0.285809
vt 0.854235 0.831089
vn -0.818037 0.56352 0.11515
vt 0.866512 0.832372
vn -0.00431541 0.809693 -0.586838
vt 0.915087 0.587653
vn 0.945704 0.32501 0.00359641
vt 0.914281 0.743011
vn 0.996186 -0.0371456 -0.0789514
vt 0.918633 0.743465
vn 0.9665 0.250528 0.0557917
vt 0.912547 0.837181
vn 0.00673854 0.961214 0.275722
vt 0.897402 0.741412
vn 0.820273 0.525496 0.225846
vt 0.902716 0.836154
vn -0.0585491 0.788551 0.612176
vt 0.890675 0.835147
vn -0.604271 0.651259 0.459041
vt 0.877742 0.833545
vn -0.924022 0.34708 -0.160368
vt 0.876275 0.739041
vn 0.989237 0.128532 -0.0699275
vt 0.919369 0.837893
vn 0.70643 0.664515 -0.243674
vt 0.971135 0.736603
vn 0.00221023 -0.415813 -0.909448
vt 0.923638 0.587549
vn -0.00531092 0.999947 -0.00886212
vt 0.97769 0.735635
vn 0.932912 -0.357612 -0.04229
vt 0.961549 0.738019
vn 0.0258815 -0.966489 0.2554
vt 0.945518 0.740387
vn -0.959306 -0.282265 -0.00756799
vt 0.930845 0.742554
vn -0.9737 0.168559 -0.153288
vt 0.923909 0.743579
vn -0.991821 -0.0191263 -0.126192
vt 0.924293 0.838191
vn -0.997894 -0.0635488 -0.0129941
vt 0.931964 0.837057
vn -0.804254 -0.523808 0.280713
vt 0.944481 0.835209
vn 0.0585343 -0.788352 0.612434
vt 0.952002 0.834098
vn 0.657587 -0.597216 0.459253
vt 0.963979 0.832329
vn 0.584344 -0.789464 0.187855
vt 0.972747 0.831033
vn 0.988736 0.0985807 -0.112616
vt 0.981226 0.804259
vn 0.998515 -0.0529113 -0.0129786
vt 0.912547 0.837181
vn 0.809807 -0.515186 0.280704
vt 0.902716 0.836154
vn 0.959765 -0.280784 -0.00326378
vt 0.914281 0.743011
vn 0.994008 -0.0138281 -0.108428
vt 0.919369 0.837893
vn 0.980756 0.139783 -0.136302
vt 0.918633 0.743465
vn 0.0043061 -0.809875 -0.586586
vt 0.915087 0.587653
vn -0.0501242 -0.788937 0.612426
vt 0.890675 0.835147
vn -0.0155936 -0.966709 0.255401
vt 0.897402 0.741412
vn -0.673146 -0.588223 0.448183
vt 0.877742 0.833545
vn -0.952315 -0.298361 -0.0638548
vt 0.876275 0.739041
vn -0.999427 0.0259845 -0.0216801
vt 0.866512 0.832372
vn -0.957023 0.241398 -0.160731
vt 0.854235 0.831089
vn -0.95866 0.129531 -0.253362
vt 0.868345 0.738212
vn 0.415693 0.0020523 -0.909503
vt 0.923638 0.587549
vn -0.476439 -0.859124 -0.186849
vt 0.971135 0.736603
vn -0.999948 -0.00531273 -0.00869944
vt 0.97769 0.735635
vn 0.0928436 -0.994279 -0.0528057
vt 0.981226 0.804259
vn -0.0673425 0.993856 -0.0878319
vt 0.923909 0.743579
vn 0.134733 0.987684 -0.0795479
vt 0.924293 0.838191
vn 0.0282033 0.995543 -0.0899903
vt 0.931964 0.837057
vn 0.30565 0.952087 0.0104122
vt 0.930845 0.742554
vn 0.953738 -0.120116 0.2756
vt 0.945518 0.740387
vn 0.515215 0.809869 0.280474
vt 0.944481 0.835209
vn 0.78902 -0.0500652 0.612324
vt 0.952002 0.834098
vn 0.356968 -0.920283 -0.160167
vt 0.961549 0.738019
vn -0.197923 0.953619 -0.2268
vt 0.868345 0.738212
vn -0.310615 0.93357 -0.178789
vt 0.854235 0.831089
vn 0.185658 0.971807 0.145332
vt 0.866512 0.832372
vn 0.809788 0.00422635 -0.586707
vt 0.915087 0.587653
vn 0.324989 -0.94571 0.00380617
vt 0.914281 0.743011
vn -0.0371511 -0.996198 -0.0788047
vt 0.918633 0.743465
vn 0.250502 -0.966497 0.0559621
vt 0.912547 0.837181
vn 0.961168 -0.0066899 0.275883
vt 0.897402 0.741412
vn 0.525466 -0.820234 0.226058
vt 0.902716 0.836154
vn 0.788442 0.0587018 0.612301
vt 0.890675 0.835147
vn 0.617973 0.626816 0.474564
vt 0.877742 0.833545
vn 0.347134 0.923985 -0.160469
vt 0.876275 0.739041
vn 0.128503 -0.989251 -0.069776
vt 0.919369 0.837893
vn 0.664563 -0.706456 -0.243466
vt 0.971135 0.736603
vn -0.415681 -0.00236696 -0.909507
vt 0.923638 0.587549
vn 0.999948 0.00530889 -0.00870233
vt 0.97769 0.735635
vn -0.357616 -0.932915 -0.0422016
vt 0.961549 0.738019
vn -0.960601 0.117993 0.251642
vt 0.945518 0.740387
vn 0.0985779 -0.988759 -0.112419
vt 0.981226 0.804259
vn -0.121158 -0.987609 0.0997503
vt 0.972747 0.831033
vn -0.581047 -0.679348 0.448185
vt 0.963979 0.832329
vn -0.788449 -0.0584288 0.612319
vt 0.952002 0.834098
vn -0.525461 0.820308 0.225801
vt 0.944481 0.835209
vn -0.291023 0.949971 0.1134
vt 0.931964 0.837057
vn -0.265086 0.964002 -0.0207396
vt 0.930845 0.742554
vn -0.0191206 0.991804 -0.126334
vt 0.924293 0.838191
vn 0.168524 0.97369 -0.153386
vt 0.923909 0.743579
vn 0.129538 0.958628 -0.253479
vt 0.868345 0.738212
vn -0.298331 0.952311 -0.0640531
vt 0.876275 0.739041
vn -0.809784 -0.00443848 -0.586711
vt 0.915087 0.587653
vn -0.966752 0.015639 0.255237
vt 0.897402 0.741412
vn -0.280796 -0.959762 -0.00316109
vt 0.914281 0.743011
vn 0.139864 -0.980765 -0.136155
vt 0.918633 0.743465
vn -0.0137888 -0.994024 -0.108291
vt 0.919369 0.837893
vn -0.0528933 -0.998518 -0.0128278
vt 0.912547 0.837181
vn -0.515244 -0.809753 0.280754
vt 0.902716 0.836154
vn -0.789033 0.0502427 0.612293
vt 0.890675 0.835147
vn -0.661287 -0.504169 -0.555439
vt 0.212862 0.864418
vn -0.650837 -0.724688 0.22636
vt 0.199565 0.922013
vn -0.985933 -0.00523491 0.167058
vt 0.183451 0.922013
vn -0.769376 -0.00420415 -0.638782
vt 0.202226 0.864418
vn 8.852e-07 -0.000164278 -1
vt 0.23854 0.854688
vn -0.111147 -0.82413 -0.555388
vt 0.23854 0.864418
vn 0.504081 -0.661376 -0.555413
vt 0.264217 0.864418
vn 0.824035 -0.111254 -0.555508
vt 0.274853 0.864418
vn 0.0522536 -0.972633 0.226396
vt 0.23854 0.922013
vn 0.72472 -0.650806 0.226348
vt 0.277515 0.922013
vn 0.972669 0.052275 0.226236
vt 0.293629 0.922013
vn -8.10037e-07 0.000154018 1
vt 0.23854 0.991989
vn -0.67855 0.671385 0.298016
vt 0.199565 0.922013
vn -0.0522408 0.972703 0.226096
vt 0.23854 0.922013
vn -0.610161 0.603605 -0.51319
vt 0.212862 0.864418
vn 0.111172 0.823949 -0.555651
vt 0.23854 0.864418
vn 0.65084 0.724757 0.226129
vt 0.277515 0.922013
vn 0.661282 0.503995 -0.555603
vt 0.264217 0.864418
vn -0.00942108 0.999955 0.000812071
vt 0.632842 0.838891
vn -0.00668599 0.999978 8.05643e-05
vt 0.98094 0.877927
vn -0.0075729 0.999971 0.000334116
vt 0.919515 0.909952
vn -0.0126652 0.999917 0.00225766
vt 0.858363 0.954504
vn -0.0123892 0.999922 0.00147023
vt 0.807233 0.958267
vn -0.00798497 0.999968 0.000494092
vt 0.760468 0.99268
vn -0.011943 0.999927 0.00195935
vt 0.572759 0.852972
vn -0.0116171 0.999931 0.00194263
vt 0.502602 0.868453
vn -0.00685382 0.999976 0.000323103
vt 0.458317 0.904982
vn -0.00532569 0.999986 -0.000163713
vt 0.417666 0.982901
vn -0.00533709 0.999986 -0.000162873
vt 0.417666 0.982901
vn -0.00267061 0.999996 0.000497914
vt 0.760468 0.99268
vn -0.00380852 0.999993 0.000324082
vt 0.458317 0.904982
vn 0.000962507 0.999998 0.00194673
vt 0.502602 0.868453
vn 0.00129987 0.999997 0.00196822
vt 0.572759 0.852972
vn -0.00124029 0.999999 0.000812588
vt 0.632842 0.838891
vn 0.00172175 0.999997 0.00146792
vt 0.807233 0.958267
vn 0.00200796 0.999995 0.00225617
vt 0.858363 0.954504
vn -0.0030903 0.999995 0.000333816
vt 0.919515 0.909952
vn -0.00399871 0.999992 7.41214e-05
vt 0.98094 0.877927
vn 0.0075729 -0.999971 -0.000334116
vt 0.919515 0.909952
vn 0.00668599 -0.999978 -8.05642e-05
vt 0.98094 0.877927
vn 0.00942108 -0.999955 -0.000812071
vt 0.632842 0.838891
vn 0.0126652 -0.999917 -0.00225766
vt 0.858363 0.954504
vn 0.0123892 -0.999922 -0.00147023
vt 0.807233 0.958267
vn 0.0079941 -0.999968 -0.000497
vt 0.760468 0.99268
vn 0.011943 -0.999927 -0.00195935
vt 0.572759 0.852972
vn 0.0116171 -0.999931 -0.00194263
vt 0.502602 0.868453
vn 0.00686783 -0.999976 -0.000327568
vt 0.458317 0.904982
vn 0.00534532 -0.999986 0.000157459
vt 0.417666 0.982901
vn 0.00380852 -0.999993 -0.000324082
vt 0.458317 0.904982
vn 0.00267847 -0.999996 -0.000494562
vt 0.760468 0.99268
vn 0.00533709 -0.999986 0.000162873
vt 0.417666 0.982901
vn -0.000934451 -0.999998 -0.00193477
vt 0.502602 0.868453
vn -0.00128626 -0.999997 -0.00196794
vt 0.572759 0.852972
vn 0.00123052 -0.999999 -0.000816554
vt 0.632842 0.838891
vn -0.00173256 -0.999997 -0.00146612
vt 0.807233 0.958267
vn -0.00203733 -0.999995 -0.00226809
vt 0.858363 0.954504
vn 0.0030903 -0.999995 -0.000333816
vt 0.919515 0.909952
vn 0.00399871 -0.999992 -7.41213e-05
vt 0.98094 0.877927
f 1/1/1 3/2/2 2/3/3
f 4/4/4 6/5/5 5/6/6
f 5/6/6 7/7/7 4/4/4
f 7/7/7 8/8/8 4/4/4
f 9/9/9 4/4/4 8/8/8
f 3/2/2 9/9/9 8/8/8
f 8/8/8 10/10/10 3/2/2
f 11/11/11 13/12/12 12/13/13
f 12/13/13 14/14/14 11/11/11
f 14/14/14 15/15/15 11/11/11
f 16/16/16 11/11/11 15/15/15
f 17/17/17 16/16/16 15/15/15
f 15/15/15 1/1/1 17/17/17
f 18/18/18 13/19/19 5/20/20
f 5/20/20 19/21/21 18/18/18
f 19/21/21 20/22/22 18/18/18
f 21/23/23 18/18/18 20/22/22
f 22/24/24 21/23/23 20/22/22
f 20/22/22 23/25/25 22/24/24
f 23/25/25 24/26/26 22/24/24
f 25/27/27 22/24/24 24/26/26
f 26/28/28 25/27/27 24/26/26
f 24/26/26 27/29/29 26/28/28
f 28/30/30 6/31/31 12/32/32
f 12/32/32 29/33/33 28/30/30
f 29/33/33 30/34/34 28/30/30
f 31/35/35 28/30/30 30/34/34
f 32/36/36 31/35/35 30/34/34
f 30/34/34 33/37/37 32/36/36
f 33/37/37 34/38/38 32/36/36
f 35/39/39 32/36/36 34/38/38
f 34/38/38 36/40/40 35/39/39
f 37/41/41 35/39/39 36/40/40
f 36/40/40 26/28/28 37/41/41
f 27/29/29 37/41/41 26/28/28
f 17/17/17 1/1/1 2/3/3
f 36/40/40 34/38/38 26/28/28
f 25/27/27 26/28/28 34/38/38
f 22/24/24 25/27/27 34/38/38
f 34/38/38 33/37/37 22/24/24
f 33/37/37 30/34/34 22/24/24
f 21/23/23 22/24/24 30/34/34
f 18/18/18 21/23/23 30/34/34
f 30/34/34 29/33/33 18/18/18
f 29/33/33 12/32/32 18/18/18
f 13/19/19 18/18/18 12/32/32
f 27/29/29 24/26/26 37/41/41
f 35/39/39 37/41/41 24/26/26
f 32/36/36 35/39/39 24/26/26
f 24/26/26 23/25/25 32/36/36
f 23/25/25 20/22/22 32/36/36
f 31/35/35 32/36/36 20/22/22
f 28/30/30 31/35/35 20/22/22
f 20/22/22 19/21/21 28/30/30
f 19/21/21 5/20/20 28/30/30
f 6/31/31 28/30/30 5/20/20
f 6/5/5 4/4/4 12/13/13
f 14/14/14 12/13/13 4/4/4
f 15/15/15 14/14/14 4/4/4
f 4/4/4 9/9/9 15/15/15
f 9/9/9 3/2/2 15/15/15
f 1/1/1 15/15/15 3/2/2
f 13/12/12 11/11/11 5/6/6
f 7/7/7 5/6/6 11/11/11
f 8/8/8 7/7/7 11/11/11
f 11/11/11 16/16/16 8/8/8
f 16/16/16 17/17/17 8/8/8
f 10/10/10 8/8/8 17/17/17
f 10/10/10 17/17/17 2/3/3
f 2/3/3 3/2/2 10/10/10
f 38/42/42 40/43/43 39/44/44
f 39/44/44 41/45/45 38/42/42
f 42/46/46 38/42/42 41/45/45
f 43/47/47 42/46/46 41/45/45
f 41/45/45 39/44/44 43/47/47
f 42/46/46 44/48/48 38/42/42
f 40/43/43 38/42/42 44/48/48
f 45/49/49 40/43/43 44/48/48
f 44/48/48 42/46/46 45/49/49
f 43/47/47 45/49/49 42/46/46
f 46/50/50 48/51/51 47/52/52
f 47/52/52 49/53/53 46/50/50
f 50/54/54 46/50/50 49/53/53
f 40/43/43 50/54/54 49/53/53
f 49/53/53 47/52/52 40/43/43
f 46/50/50 50/54/54 51/55/55
f 48/51/51 46/50/50 51/55/55
f 52/56/56 48/51/51 51/55/55
f 51/55/55 50/54/54 52/56/56
f 40/43/43 52/56/56 50/54/54
f 53/57/57 55/58/58 54/59/59
f 56/60/60 58/61/61 57/62/62
f 57/62/62 59/63/63 56/60/60
f 58/61/61 56/60/60 55/64/64
f 55/64/64 60/65/65 58/61/61
f 61/66/66 56/60/60 59/63/63
f 59/63/63 62/67/67 61/66/66
f 56/60/60 61/66/66 54/68/68
f 54/68/68 55/64/64 56/60/60
f 53/57/57 54/59/59 61/69/69
f 61/69/69 63/70/70 53/57/57
f 63/70/70 64/71/71 53/57/57
f 64/71/71 65/72/72 53/57/57
f 66/73/73 53/57/57 65/72/72
f 65/72/72 67/74/74 66/73/73
f 68/75/75 66/73/73 67/74/74
f 55/58/58 53/57/57 60/76/76
f 67/74/74 65/72/72 69/77/77
f 70/78/78 69/77/77 65/72/72
f 71/79/79 70/78/78 65/72/72
f 65/72/72 64/71/71 71/79/79
f 64/71/71 63/70/70 71/79/79
f 62/80/80 71/79/79 63/70/70
f 63/70/70 61/69/69 62/80/80
f 59/81/81 71/79/79 62/80/80
f 72/82/82 73/83/83 68/75/75
f 66/73/73 68/75/75 73/83/83
f 53/57/57 66/73/73 73/83/83
f 73/83/83 74/84/84 53/57/57
f 74/84/84 75/85/85 53/57/57
f 60/76/76 53/57/57 75/85/85
f 75/85/85 58/86/86 60/76/76
f 71/79/79 59/81/81 57/87/87
f 69/77/77 70/78/78 72/82/82
f 73/83/83 72/82/82 70/78/78
f 70/78/78 71/79/79 73/83/83
f 74/84/84 73/83/83 71/79/79
f 75/85/85 74/84/84 71/79/79
f 58/86/86 75/85/85 71/79/79
f 71/79/79 57/87/87 58/86/86
f 76/88/88 78/89/89 77/90/90
f 79/91/91 77/90/90 80/92/92
f 81/93/93 80/92/92 77/90/90
f 77/90/90 78/89/89 81/93/93
f 82/94/94 81/93/93 78/89/89
f 78/89/89 83/95/95 82/94/94
f 83/95/95 84/96/96 82/94/94
f 85/97/97 82/94/94 84/96/96
f 84/96/96 77/98/98 85/97/97
f 86/99/99 85/97/97 77/98/98
f 77/98/98 79/100/100 86/99/99
f 81/93/93 82/94/94 80/92/92
f 87/101/101 80/92/92 82/94/94
f 86/99/99 87/101/101 82/94/94
f 85/97/97 86/99/99 82/94/94
f 76/102/102 77/98/98 84/96/96
f 88/103/103 90/104/104 89/105/105
f 91/106/106 88/103/103 89/105/105
f 92/107/107 91/106/106 89/105/105
f 89/105/105 90/104/104 92/107/107
f 93/108/108 95/109/109 94/110/110
f 94/110/110 96/111/111 93/108/108
f 96/111/111 97/112/112 93/108/108
f 97/112/112 98/113/113 93/108/108
f 99/114/114 98/115/115 97/116/116
f 97/116/116 100/117/117 99/114/114
f 100/117/117 94/110/110 99/114/114
f 95/109/109 99/114/114 94/110/110
f 87/101/101 86/99/99 88/118/118
f 90/119/119 88/118/118 86/99/99
f 86/99/99 79/100/100 90/119/119
f 92/120/120 90/119/119 79/100/100
f 79/91/91 80/92/92 92/121/121
f 91/122/122 92/121/121 80/92/92
f 80/92/92 87/101/101 91/122/122
f 88/118/118 91/122/122 87/101/101
f 101/123/123 103/124/124 102/125/125
f 104/126/126 102/125/125 103/124/124
f 103/124/124 105/127/127 104/126/126
f 106/128/128 104/126/126 105/127/127
f 105/127/127 107/129/129 106/128/128
f 108/130/130 106/128/128 107/129/129
f 107/129/129 101/131/131 108/130/130
f 102/132/132 108/130/130 101/131/131
f 93/133/133 109/134/134 95/135/135
f 99/136/136 95/135/135 109/134/134
f 98/137/137 99/136/136 109/134/134
f 109/134/134 93/133/133 98/137/137
f 100/138/138 97/139/139 104/140/140
f 104/140/140 106/141/141 100/138/138
f 94/142/142 100/138/138 106/141/141
f 106/141/141 108/143/143 94/142/142
f 96/144/144 94/142/142 108/143/143
f 108/143/143 102/145/145 96/144/144
f 97/139/139 96/144/144 102/145/145
f 102/145/145 104/140/140 97/139/139
f 76/102/102 84/96/96 101/146/146
f 103/147/147 101/146/146 84/96/96
f 84/96/96 83/95/95 103/147/147
f 105/148/148 103/147/147 83/95/95
f 83/95/95 78/89/89 105/148/148
f 107/149/149 105/148/148 78/89/89
f 78/89/89 76/88/88 107/149/149
f 101/150/150 107/149/149 76/88/88
f 110/151/151 112/152/152 111/153/153
f 110/151/151 111/153/153 113/154/154
f 114/155/155 113/154/154 111/153/153
f 111/153/153 115/156/156 114/155/155
f 116/157/157 114/155/155 115/156/156
f 115/156/156 117/158/158 116/157/157
f 117/158/158 118/159/159 116/157/157
f 119/160/160 116/157/157 118/159/159
f 118/159/159 120/161/161 119/160/160
f 120/161/161 121/162/162 119/160/160
f 121/162/162 122/163/163 119/160/160
f 116/157/157 119/160/160 122/163/163
f 122/163/163 123/164/164 116/157/157
f 114/155/155 116/157/157 123/164/164
f 123/164/164 124/165/165 114/155/155
f 113/154/154 114/155/155 124/165/165
f 110/151/151 113/154/154 124/165/165
f 124/165/165 125/166/166 110/151/151
f 126/167/167 128/168/168 127/169/169
f 126/167/167 127/169/169 129/170/170
f 129/170/170 130/171/171 126/167/167
f 131/172/172 126/167/167 130/171/171
f 130/171/171 132/173/173 131/172/172
f 133/174/174 131/172/172 132/173/173
f 132/173/173 134/175/175 133/174/174
f 135/176/176 133/174/174 134/175/175
f 136/177/177 135/176/176 134/175/175
f 137/178/178 136/177/177 134/175/175
f 134/175/175 132/173/173 137/178/178
f 138/179/179 137/178/178 132/173/173
f 139/180/180 138/179/179 132/173/173
f 132/173/173 130/171/171 139/180/180
f 140/181/181 139/180/180 130/171/171
f 130/171/171 129/170/170 140/181/181
f 129/170/170 127/169/169 140/181/181
f 141/182/182 140/181/181 127/169/169
f 142/183/183 144/184/184 143/185/185
f 145/186/186 143/185/185 144/184/184
f 144/184/184 146/187/187 145/186/186
f 147/188/188 145/186/186 146/187/187
f 146/187/187 148/189/189 147/188/188
f 149/190/190 147/188/188 148/189/189
f 148/189/189 150/191/191 149/190/190
f 150/191/191 151/192/192 149/190/190
f 151/192/192 152/193/193 149/190/190
f 147/188/188 149/190/190 152/193/193
f 145/186/186 147/188/188 152/193/193
f 152/193/193 153/194/194 145/186/186
f 143/185/185 145/186/186 153/194/194
f 153/194/194 154/195/195 143/185/185
f 154/195/195 155/196/196 143/185/185
f 155/196/196 156/197/197 143/185/185
f 156/197/197 157/198/198 143/185/185
f 142/183/183 143/185/185 157/198/198
f 158/199/199 160/200/200 159/201/201
f 160/200/200 161/202/202 159/201/201
f 161/202/202 162/203/203 159/201/201
f 163/204/204 159/201/201 162/203/203
f 164/205/205 163/204/204 162/203/203
f 162/203/203 165/206/206 164/205/205
f 166/207/207 164/205/205 165/206/206
f 165/206/206 167/208/208 166/207/207
f 166/207/207 167/208/208 168/209/209
f 168/209/209 169/210/210 166/207/207
f 169/210/210 170/211/211 166/207/207
f 170/211/211 171/212/212 166/207/207
f 171/212/212 172/213/213 166/207/207
f 164/205/205 166/207/207 172/213/213
f 172/213/213 173/214/214 164/205/205
f 163/204/204 164/205/205 173/214/214
f 173/214/214 158/199/199 163/204/204
f 159/201/201 163/204/204 158/199/199
f 174/215/215 176/216/216 175/217/217
f 174/215/215 175/217/217 177/218/218
f 175/217/217 178/219/219 177/218/218
f 179/220/220 177/218/218 178/219/219
f 178/219/219 180/221/221 179/220/220
f 180/221/221 181/222/222 179/220/220
f 177/218/218 179/220/220 181/222/222
f 181/222/222 182/223/223 177/218/218
f 174/215/215 177/218/218 182/223/223
f 182/223/223 183/224/224 174/215/215
f 183/224/224 184/225/225 174/215/215
f 176/216/216 174/215/215 184/225/225
f 184/225/225 185/226/226 176/216/216
f 186/227/227 188/228/228 187/229/229
f 189/230/230 187/229/229 188/228/228
f 190/231/231 189/230/230 188/228/228
f 191/232/232 190/231/231 188/228/228
f 188/228/228 192/233/233 191/232/232
f 193/234/234 191/232/232 192/233/233
f 192/233/233 194/235/235 193/234/234
f 195/236/236 193/234/234 194/235/235
f 196/237/237 195/236/236 194/235/235
f 197/238/238 196/237/237 194/235/235
f 198/239/239 197/238/238 194/235/235
f 194/235/235 192/233/233 198/239/239
f 192/233/233 188/228/228 198/239/239
f 186/227/227 198/239/239 188/228/228
f 199/240/240 201/241/241 200/242/242
f 202/243/243 199/240/240 200/242/242
f 203/244/244 202/243/243 200/242/242
f 200/242/242 204/245/245 203/244/244
f 205/246/246 203/244/244 204/245/245
f 204/245/245 206/247/247 205/246/246
f 207/248/248 205/246/246 206/247/247
f 208/249/249 207/248/248 206/247/247
f 209/250/250 208/249/249 206/247/247
f 210/251/251 209/250/250 206/247/247
f 206/247/247 204/245/245 210/251/251
f 204/245/245 200/242/242 210/251/251
f 201/241/241 210/251/251 200/242/242
f 211/252/252 213/253/253 212/254/254
f 214/255/255 212/254/254 213/253/253
f 215/256/256 214/255/255 213/253/253
f 213/253/253 216/257/257 215/256/256
f 217/258/258 218/259/259 215/256/256
f 214/255/255 215/256/256 218/259/259
f 218/259/259 219/260/260 214/255/255
f 212/254/254 214/255/255 219/260/260
f 219/260/260 220/261/261 212/254/254
f 221/262/262 212/254/254 220/261/261
f 220/261/261 222/263/263 221/262/262
f 222/263/263 223/264/264 221/262/262
f 212/254/254 221/262/262 223/264/264
f 223/264/264 211/252/252 212/254/254
f 224/265/265 226/266/266 225/267/267
f 227/268/268 228/269/269 226/266/266
f 225/270/270 230/271/271 229/272/272
f 229/272/272 231/273/273 225/270/270
f 224/265/265 225/270/270 231/273/273
f 232/274/274 224/265/265 231/273/273
f 231/273/273 233/275/275 232/274/274
f 233/275/275 234/276/276 232/274/274
f 234/276/276 235/277/277 232/274/274
f 235/277/277 227/268/268 232/274/274
f 236/278/278 232/274/274 227/268/268
f 227/268/268 226/266/266 236/278/278
f 226/266/266 224/265/265 236/278/278
f 232/274/274 236/278/278 224/265/265
f 231/273/273 229/272/272 233/275/275
f 237/279/279 239/280/280 238/281/281
f 240/282/282 242/283/283 241/284/284
f 229/285/285 241/284/284 242/283/283
f 242/283/283 243/286/286 229/285/285
f 233/287/287 229/285/285 243/286/286
f 244/288/288 233/287/287 243/286/286
f 245/289/289 244/288/288 243/286/286
f 238/281/281 245/289/289 243/286/286
f 243/286/286 246/290/290 238/281/281
f 237/279/279 238/281/281 246/290/290
f 240/282/282 237/279/279 246/290/290
f 246/290/290 243/286/286 240/282/282
f 242/283/283 240/282/282 243/286/286
f 229/285/285 230/291/291 241/284/284
f 247/292/292 249/293/293 248/294/294
f 249/293/293 247/292/292 250/295/295
f 250/295/295 251/296/296 249/293/293
f 251/296/296 252/297/297 249/293/293
f 248/298/298 249/293/293 252/297/297
f 253/299/299 248/298/298 252/297/297
f 254/300/300 253/299/299 252/297/297
f 255/301/301 254/300/300 252/297/297
f 252/297/297 251/296/296 255/301/301
f 256/302/302 255/301/301 251/296/296
f 257/303/303 256/302/302 251/296/296
f 251/296/296 250/295/295 257/303/303
f 258/304/304 257/303/303 250/295/295
f 259/305/305 258/304/304 250/295/295
f 247/292/292 259/305/305 250/295/295
f 254/306/306 255/307/307 260/308/308
f 253/309/309 254/306/306 260/308/308
f 261/310/310 253/309/309 260/308/308
f 260/308/308 262/311/311 261/310/310
f 255/307/307 264/312/312 263/313/313
f 264/312/312 265/314/314 263/313/313
f 266/315/315 263/313/313 265/314/314
f 265/314/314 267/316/316 266/315/315
f 267/316/316 268/317/317 266/315/315
f 268/317/317 269/318/318 266/315/315
f 269/318/318 262/311/311 266/315/315
f 263/313/313 266/315/315 262/311/311
f 262/311/311 260/308/308 263/313/313
f 255/307/307 263/313/313 260/308/308
f 270/319/319 272/320/320 271/321/321
f 258/304/304 273/322/322 272/320/320
f 271/323/323 275/324/324 274/325/325
f 274/325/325 276/326/326 271/323/323
f 270/319/319 271/323/323 276/326/326
f 277/327/327 270/319/319 276/326/326
f 276/326/326 278/328/328 277/327/327
f 278/328/328 279/329/329 277/327/327
f 279/329/329 257/303/303 277/327/327
f 257/303/303 258/304/304 277/327/327
f 280/330/330 277/327/327 258/304/304
f 258/304/304 272/320/320 280/330/330
f 272/320/320 270/319/319 280/330/330
f 277/327/327 280/330/330 270/319/319
f 276/326/326 274/325/325 278/328/328
f 281/331/331 282/332/332 227/333/333
f 283/334/334 285/335/335 284/336/336
f 274/337/337 284/336/336 285/335/335
f 285/335/335 286/338/338 274/337/337
f 278/339/339 274/337/337 286/338/338
f 287/340/340 278/339/339 286/338/338
f 235/341/341 287/340/340 286/338/338
f 227/333/333 235/341/341 286/338/338
f 286/338/338 288/342/342 227/333/333
f 281/331/331 227/333/333 288/342/342
f 283/334/334 281/331/331 288/342/342
f 288/342/342 286/338/338 283/334/334
f 285/335/335 283/334/334 286/338/338
f 274/337/337 275/343/343 284/336/336
f 289/344/344 291/345/345 290/346/346
f 292/347/347 293/348/348 291/345/345
f 291/345/345 289/344/344 292/347/347
f 289/344/344 294/349/349 292/347/347
f 267/350/350 292/347/347 294/349/349
f 267/350/350 265/351/351 292/347/347
f 293/348/348 292/347/347 265/351/351
f 265/351/351 295/352/352 293/348/348
f 295/352/352 296/353/353 293/348/348
f 296/353/353 297/354/354 293/348/348
f 298/355/355 293/348/348 297/354/354
f 297/354/354 299/356/356 298/355/355
f 299/356/356 290/357/357 298/355/355
f 290/357/357 291/345/345 298/355/355
f 293/348/348 298/355/355 291/345/345
f 239/280/280 301/358/358 300/359/359
f 301/358/358 302/360/360 300/359/359
f 303/361/361 300/359/359 302/360/360
f 302/360/360 304/362/362 303/361/361
f 304/362/362 302/360/360 305/363/363
f 305/363/363 299/364/364 304/362/362
f 299/364/364 297/365/365 304/362/362
f 297/365/365 296/366/366 304/362/362
f 303/361/361 304/362/362 296/366/366
f 296/366/366 306/367/367 303/361/361
f 306/367/367 245/289/289 303/361/361
f 300/359/359 303/361/361 245/289/289
f 245/289/289 238/281/281 300/359/359
f 238/281/281 239/280/280 300/359/359
f 307/368/368 309/369/369 308/370/370
f 308/370/370 310/371/371 307/368/368
f 310/371/371 311/372/372 307/368/368
f 312/373/373 307/368/368 311/372/372
f 313/374/374 312/373/373 311/372/372
f 311/372/372 314/375/375 313/374/374
f 307/368/368 312/373/373 309/369/369
f 315/376/376 309/369/369 312/373/373
f 312/373/373 313/374/374 315/376/376
f 316/377/377 315/376/376 313/374/374
f 313/374/374 314/375/375 316/377/377
f 314/375/375 317/378/378 316/377/377
f 317/378/378 318/379/379 316/377/377
f 315/376/376 316/377/377 318/379/379
f 309/369/369 315/376/376 318/379/379
f 318/379/379 308/370/370 309/369/369
f 319/380/380 321/381/381 320/382/382
f 322/383/383 320/382/382 321/381/381
f 321/381/381 323/384/384 322/383/383
f 324/385/385 322/383/383 323/384/384
f 323/384/384 317/378/378 324/385/385
f 317/378/378 314/375/375 324/385/385
f 314/375/375 311/372/372 324/385/385
f 322/383/383 324/385/385 311/372/372
f 320/382/382 322/383/383 311/372/372
f 311/372/372 310/371/371 320/382/382
f 310/371/371 308/370/370 320/382/382
f 319/380/380 320/382/382 308/370/370
f 308/370/370 318/379/379 319/380/380
f 321/381/381 319/380/380 318/379/379
f 323/384/384 321/381/381 318/379/379
f 318/379/379 317/378/378 323/384/384
f 325/386/386 327/387/387 326/388/388
f 326/388/388 328/389/389 325/386/386
f 328/389/389 329/390/390 325/386/386
f 329/390/390 330/391/391 325/386/386
f 331/392/392 325/386/386 330/391/391
f 332/393/393 331/392/392 330/391/391
f 333/394/394 332/393/393 330/391/391
f 330/391/391 334/395/395 333/394/394
f 335/396/396 337/397/397 336/398/398
f 338/399/399 336/398/398 337/397/397
f 339/400/400 338/399/399 337/397/397
f 340/401/401 339/400/400 337/397/397
f 337/397/397 341/402/402 340/401/401
f 341/402/402 342/403/403 340/401/401
f 342/403/403 343/404/404 340/401/401
f 344/405/405 340/401/401 343/404/404
f 345/406/406 347/407/407 346/408/408
f 346/408/408 348/409/409 345/406/406
f 346/408/408 349/410/410 348/409/409
f 346/408/408 350/411/411 349/410/410
f 350/411/411 346/408/408 351/412/412
f 350/411/411 351/412/412 352/413/413
f 350/411/411 352/413/413 353/414/414
f 353/414/414 354/415/415 350/411/411
f 355/416/416 357/417/417 356/418/418
f 357/417/417 355/416/416 358/419/419
f 357/417/417 358/419/419 359/420/420
f 357/417/417 359/420/420 360/421/421
f 360/421/421 361/422/422 357/417/417
f 360/421/421 362/423/423 361/422/422
f 360/421/421 363/424/424 362/423/423
f 363/424/424 360/421/421 364/425/425
