#
# Exported by OpenBRF -- marco tarini
#
s dragon_spear.7
newmtl dragoon_spear_neck_5
Ka 0.8 0.8 0.8
Kd 0.2 0.2 0.2
usemtl dragoon_spear_neck_5
v -0.0162091 -0.017321 -1.11895
v -0.000171072 -0.0246344 -1.11895
v -0.000171072 -0.0246344 -1.13447
v -0.0162091 -0.017321 -1.13447
v 0.0159952 -0.017706 -1.11895
v 0.0159952 -0.017706 -1.13447
v 0.0229236 0 -1.11895
v 0.0229236 0 -1.13447
v 0.0159952 0.017706 -1.11895
v 0.0159952 0.017706 -1.13447
v -0.000171072 0.0246344 -1.11895
v -0.000171072 0.0246344 -1.13447
v -0.0162091 0.017321 -1.11895
v -0.0162091 0.017321 -1.13447
v -0.0228809 0 -1.11895
v -0.0228809 0 -1.13447
v -4.27681e-05 -0.0133436 -1.1527
v -0.00812592 -0.0096228 -1.1527
v 0.00791208 -0.00987941 -1.1527
v 0.0117612 0 -1.1527
v 0.00791208 0.00987941 -1.1527
v -4.27681e-05 0.0133436 -1.1527
v -0.00812592 0.0096228 -1.1527
v -0.0118467 0 -1.1527
v -0.000171072 -0.018989 -1.1707
v -0.0122316 -0.0134719 -1.1707
v 0.0118895 -0.0137285 -1.1707
v 0.0174066 0 -1.1707
v 0.0118895 0.0137285 -1.1707
v -0.000171072 0.018989 -1.1707
v -0.0122316 0.0134719 -1.1707
v -0.0173638 0 -1.1707
v -0.000171072 -0.018989 -1.1833
v -0.0122316 -0.0134719 -1.1833
v 0.0118895 -0.0137285 -1.1833
v 0.0174066 0 -1.1833
v 0.0118895 0.0137285 -1.1833
v -0.000171072 0.018989 -1.1833
v -0.0122316 0.0134719 -1.1833
v -0.0173638 0 -1.1833
v -0.0122316 -0.0134719 -1.19455
v -0.000171072 -0.018989 -1.19455
v -4.27681e-05 0 -1.2886
v 0.0118895 -0.0137285 -1.19455
v 0.0174066 0 -1.19455
v 0.0118895 0.0137285 -1.19455
v -0.000171072 0.018989 -1.19455
v -0.0122316 0.0134719 -1.19455
v -0.0173638 0 -1.19455
v -0.00953726 -0.0110341 -1.18893
v -4.27681e-05 -0.0152682 -1.18893
v 0.00932342 -0.0111624 -1.18893
v 0.0136858 0 -1.18893
v 0.00932342 0.0111624 -1.18893
v -4.27681e-05 0.0152682 -1.18893
v -0.00953726 0.0110341 -1.18893
v -0.013643 0 -1.18893
v -0.0151826 -0.0164229 -1.0242
v -0.000171072 -0.023223 -1.0242
v -0.000171072 -0.023223 -1.1193
v -0.0151826 -0.0164229 -1.1193
v 0.0149688 -0.0166795 -1.0242
v 0.0149688 -0.0166795 -1.1193
v 0.0215123 0 -1.0242
v 0.0215123 0 -1.1193
v 0.0149688 0.0166795 -1.0242
v 0.0149688 0.0166795 -1.1193
v -0.000171072 0.023223 -1.0242
v -0.000171072 0.023223 -1.1193
v -0.0151826 0.0164229 -1.0242
v -0.0151826 0.0164229 -1.1193
v -0.0214695 0 -1.0242
v -0.0214695 0 -1.1193
v -0.0175301 -0.0187327 -1.114
v -0.000185014 -0.0266421 -1.114
v -0.000185014 -0.0266421 -1.1242
v -0.0175301 -0.0187327 -1.1242
v 0.0172988 -0.019149 -1.114
v 0.0172988 -0.019149 -1.1242
v 0.0247919 0 -1.114
v 0.0247919 0 -1.1242
v 0.0172988 0.019149 -1.114
v 0.0172988 0.019149 -1.1242
v -0.000185014 0.0266421 -1.114
v -0.000185014 0.0266421 -1.1242
v -0.0175301 0.0187327 -1.114
v -0.0175301 0.0187327 -1.1242
v -0.0247457 0 -1.114
v -0.0247457 0 -1.1242
v -0.0162091 -0.017321 -1.014
v -0.000171072 -0.0246344 -1.014
v -0.000171072 -0.0246344 -1.0242
v -0.0162091 -0.017321 -1.0242
v 0.0159952 -0.017706 -1.014
v 0.0159952 -0.017706 -1.0242
v 0.0229236 0 -1.014
v 0.0229236 0 -1.0242
v 0.0159952 0.017706 -1.014
v 0.0159952 0.017706 -1.0242
v -0.000171072 0.0246344 -1.014
v -0.000171072 0.0246344 -1.0242
v -0.0162091 0.017321 -1.014
v -0.0162091 0.017321 -1.0242
v -0.0228809 0 -1.014
v -0.0228809 0 -1.0242
vn -0.4113 -0.9115 0
vt 1.4561 -21.5328
vn -0.4113 -0.9115 0
vt 1.5658 -21.5328
vn -0.4113 -0.9115 0
vt 1.5658 -21.0192
vn -0.4113 -0.9115 0
vt 1.4561 -21.0192
vn 0.393919 -0.919145 0
vt 1.6762 -21.5328
vn 0.393919 -0.919145 0
vt 1.6762 -21.0192
vn 0.930068 -0.367387 0
vt 1.7239 -21.5328
vn 0.930068 -0.367387 0
vt 1.7239 -21.0192
vn 0.930068 0.367387 0
vt 1.6762 -21.5328
vn 0.930068 0.367387 0
vt 1.6762 -21.0192
vn 0.393919 0.919145 0
vt 1.5658 -21.5328
vn 0.393919 0.919145 0
vt 1.5658 -21.0192
vn -0.4113 0.9115 0
vt 1.4561 -21.5328
vn -0.4113 0.9115 0
vt 1.4561 -21.0192
vn -0.933219 0.359307 0
vt 1.4104 -21.5328
vn -0.933219 0.359307 0
vt 1.4104 -21.0192
vn -0.20379 -0.451504 -0.868685
vt 1.5116 -22.128
vn -0.20379 -0.451504 -0.868685
vt 1.5665 -22.128
vn 0.195107 -0.455295 -0.8687
vt 1.6212 -22.128
vn 0.195107 -0.455295 -0.8687
vt 1.5658 -21.5328
vn 0.460745 -0.182 -0.868672
vt 1.6479 -22.128
vn 0.460745 -0.182 -0.868672
vt 1.6762 -21.5328
vn 0.460745 0.182 -0.868672
vt 1.6212 -22.128
vn 0.195107 0.455295 -0.8687
vt 1.5665 -22.128
vn 0.195107 0.455295 -0.8687
vt 1.6762 -21.5328
vn -0.20379 0.451504 -0.868685
vt 1.5116 -22.128
vn -0.20379 0.451504 -0.868685
vt 1.5658 -21.5328
vn -0.462295 0.177941 -0.868689
vt 1.4862 -22.128
vn -0.309271 -0.685372 0.659254
vt 1.4838 -22.7256
vn -0.309271 -0.685372 0.659254
vt 1.5662 -22.7256
vn -0.309271 -0.685372 0.659254
vt 1.5665 -22.128
vn -0.309271 -0.685372 0.659254
vt 1.5116 -22.128
vn 0.296167 -0.691113 0.659278
vt 1.6487 -22.7256
vn 0.296167 -0.691113 0.659278
vt 1.6212 -22.128
vn 0.699334 -0.276236 0.659261
vt 1.6859 -22.7256
vn 0.699334 -0.276236 0.659261
vt 1.6479 -22.128
vn 0.699334 0.276236 0.659261
vt 1.6487 -22.7256
vn 0.699334 0.276236 0.659261
vt 1.6212 -22.128
vn 0.296167 0.691113 0.659278
vt 1.5662 -22.7256
vn 0.296167 0.691113 0.659278
vt 1.5665 -22.128
vn -0.309271 0.685372 0.659254
vt 1.4838 -22.7256
vn -0.309271 0.685372 0.659254
vt 1.5116 -22.128
vn -0.701707 0.270107 0.65928
vt 1.4483 -22.7256
vn -0.701707 0.270107 0.65928
vt 1.4862 -22.128
vn -0.4113 -0.9115 0
vt 1.4838 -23.1336
vn -0.4113 -0.9115 0
vt 1.5662 -23.1336
vn 0.393919 -0.919145 0
vt 1.6487 -23.1336
vn 0.930068 -0.367387 0
vt 1.6859 -23.1336
vn 0.930068 0.367387 0
vt 1.6487 -23.1336
vn 0.393919 0.919145 0
vt 1.5662 -23.1336
vn -0.4113 0.9115 0
vt 1.4838 -23.1336
vn -0.933219 0.359307 0
vt 1.4483 -23.1336
vn -0.358064 -0.793411 -0.49223
vt 1.5683 -26.3928
vn -0.358064 -0.793411 -0.49223
vt 1.5662 -23.5056
vn -0.358064 -0.793411 -0.49223
vt 1.4838 -23.5056
vn 0.342606 -0.799382 -0.493568
vt 1.6487 -23.5056
vn 0.822097 -0.324813 -0.467603
vt 1.5683 -26.3928
vn 0.822097 -0.324813 -0.467603
vt 1.6759 -23.5392
vn 0.822097 0.324813 -0.467603
vt 1.6487 -23.5056
vn 0.342606 0.799382 -0.493568
vt 1.5683 -26.3928
vn 0.342606 0.799382 -0.493568
vt 1.5662 -23.5056
vn -0.358064 0.793411 -0.49223
vt 1.5683 -26.3928
vn -0.358064 0.793411 -0.49223
vt 1.4838 -23.5056
vn -0.824923 0.317598 -0.467583
vt 1.5683 -26.3928
vn -0.824923 0.317598 -0.467583
vt 1.464 -23.5056
vn -0.196724 -0.434189 -0.879079
vt 1.5664 -23.3208
vn -0.196724 -0.434189 -0.879079
vt 1.5022 -23.3208
vn 0.188481 -0.438266 -0.878862
vt 1.6306 -23.3208
vn 0.188481 -0.438266 -0.878862
vt 1.5662 -23.1336
vn 0.441156 -0.173755 -0.880449
vt 1.6607 -23.3208
vn 0.441156 -0.173755 -0.880449
vt 1.6487 -23.1336
vn 0.441156 0.173755 -0.880449
vt 1.6306 -23.3208
vn 0.188481 0.438266 -0.878862
vt 1.5664 -23.3208
vn 0.188481 0.438266 -0.878862
vt 1.6487 -23.1336
vn -0.196724 0.434189 -0.879079
vt 1.5022 -23.3208
vn -0.196724 0.434189 -0.879079
vt 1.5662 -23.1336
vn -0.441722 0.169484 -0.880998
vt 1.4735 -23.3208
vn -0.441722 0.169484 -0.880998
vt 1.4838 -23.1336
vn -0.441722 -0.169484 -0.880998
vt 1.4838 -23.1336
vn -0.196724 -0.434189 0.879079
vt 1.5022 -23.3208
vn -0.196724 -0.434189 0.879079
vt 1.4838 -23.5056
vn -0.196724 -0.434189 0.879079
vt 1.5662 -23.5056
vn -0.196724 -0.434189 0.879079
vt 1.5664 -23.3208
vn 0.188481 -0.438266 0.878862
vt 1.6487 -23.5056
vn 0.188481 -0.438266 0.878862
vt 1.6306 -23.3208
vn 0.441156 -0.173755 0.880449
vt 1.6759 -23.5392
vn 0.441156 -0.173755 0.880449
vt 1.6607 -23.3208
vn 0.441156 0.173755 0.880449
vt 1.6487 -23.5056
vn 0.441156 0.173755 0.880449
vt 1.6306 -23.3208
vn 0.188481 0.438266 0.878862
vt 1.5662 -23.5056
vn 0.188481 0.438266 0.878862
vt 1.5664 -23.3208
vn -0.196724 0.434189 0.879079
vt 1.4838 -23.5056
vn -0.196724 0.434189 0.879079
vt 1.5022 -23.3208
vn -0.441722 0.169484 0.880998
vt 1.464 -23.5056
vn -0.441722 0.169484 0.880998
vt 1.4735 -23.3208
vn -0.4113 -0.9115 0
vt 1.463 -21.0192
vn -0.4113 -0.9115 0
vt 1.5659 -21.0192
vn -0.4113 -0.9115 0
vt 1.5659 -16.4352
vn -0.4113 -0.9115 0
vt 1.463 -16.4352
vn 0.393919 -0.919145 0
vt 1.6693 -21.0192
vn 0.393919 -0.919145 0
vt 1.6693 -16.4352
vn 0.930068 -0.367387 0
vt 1.7144 -21.0192
vn 0.930068 -0.367387 0
vt 1.7144 -16.4352
vn 0.930068 0.367387 0
vt 1.6693 -21.0192
vn 0.930068 0.367387 0
vt 1.6693 -16.4352
vn 0.393919 0.919145 0
vt 1.5659 -21.0192
vn 0.393919 0.919145 0
vt 1.5659 -16.4352
vn -0.4113 0.9115 0
vt 1.463 -21.0192
vn -0.4113 0.9115 0
vt 1.463 -16.4352
vn -0.933219 0.359307 0
vt 1.4199 -21.0192
vn -0.933219 0.359307 0
vt 1.4199 -16.4352
vn -0.4113 -0.9115 0
vt 1.4561 -16.4352
vn -0.4113 -0.9115 0
vt 1.5658 -16.4352
vn -0.4113 -0.9115 0
vt 1.5658 -15.9288
vn -0.4113 -0.9115 0
vt 1.4561 -15.9288
vn 0.393919 -0.919145 0
vt 1.6762 -16.4352
vn 0.393919 -0.919145 0
vt 1.6762 -15.9288
vn 0.930068 -0.367387 0
vt 1.7239 -16.4352
vn 0.930068 -0.367387 0
vt 1.7239 -15.9288
vn 0.930068 0.367387 0
vt 1.6762 -16.4352
vn 0.930068 0.367387 0
vt 1.6762 -15.9288
vn 0.393919 0.919145 0
vt 1.5658 -16.4352
vn 0.393919 0.919145 0
vt 1.5658 -15.9288
vn -0.4113 0.9115 0
vt 1.4561 -16.4352
vn -0.4113 0.9115 0
vt 1.4561 -15.9288
vn -0.933219 0.359307 0
vt 1.4104 -16.4352
vn -0.933219 0.359307 0
vt 1.4104 -15.9288
vn 0 0 -1
vt 1.4561 -16.4352
vn 0 0 -1
vt 1.6762 -16.4352
vn 0 0 -1
vt 1.7239 -16.4352
vn 0 0 -1
vt 1.6762 -16.4352
vn 0 0 -1
vt 1.4561 -16.4352
vn 0 0 -1
vt 1.5658 -16.4352
vn 0 0 -1
vt 1.4104 -16.4352
vn 0 0 -1
vt 1.5658 -16.4352
vn 0 0 1
vt 1.7239 -15.9288
vn 0 0 1
vt 1.5658 -15.9288
vn 0 0 1
vt 1.4561 -15.9288
vn 0 0 1
vt 1.4104 -15.9288
vn 0 0 1
vt 1.6762 -15.9288
vn 0 0 1
vt 1.5658 -15.9288
vn 0 0 1
vt 1.6762 -15.9288
vn 0 0 1
vt 1.4561 -15.9288
vn -0.4113 -0.9115 0
vt 1.4561 -16.4352
vn -0.4113 -0.9115 0
vt 1.5658 -16.4352
vn -0.4113 -0.9115 0
vt 1.5658 -15.9288
vn -0.4113 -0.9115 0
vt 1.4561 -15.9288
vn 0.393919 -0.919145 0
vt 1.6762 -16.4352
vn 0.393919 -0.919145 0
vt 1.6762 -15.9288
vn 0.930068 -0.367387 0
vt 1.7239 -16.4352
vn 0.930068 -0.367387 0
vt 1.7239 -15.9288
vn 0.930068 0.367387 0
vt 1.6762 -16.4352
vn 0.930068 0.367387 0
vt 1.6762 -15.9288
vn 0.393919 0.919145 0
vt 1.5658 -16.4352
vn 0.393919 0.919145 0
vt 1.5658 -15.9288
vn -0.4113 0.9115 0
vt 1.4561 -16.4352
vn -0.4113 0.9115 0
vt 1.4561 -15.9288
vn -0.933219 0.359307 0
vt 1.4104 -16.4352
vn -0.933219 0.359307 0
vt 1.4104 -15.9288
vn 0 0 -1
vt 1.4561 -16.4352
vn 0 0 -1
vt 1.6762 -16.4352
vn 0 0 -1
vt 1.7239 -16.4352
vn 0 0 -1
vt 1.6762 -16.4352
vn 0 0 -1
vt 1.4561 -16.4352
vn 0 0 -1
vt 1.5658 -16.4352
vn 0 0 -1
vt 1.4104 -16.4352
vn 0 0 -1
vt 1.5658 -16.4352
vn 0 0 1
vt 1.7239 -15.9288
vn 0 0 1
vt 1.5658 -15.9288
vn 0 0 1
vt 1.4561 -15.9288
vn 0 0 1
vt 1.4104 -15.9288
vn 0 0 1
vt 1.6762 -15.9288
vn 0 0 1
vt 1.5658 -15.9288
vn 0 0 1
vt 1.6762 -15.9288
vn 0 0 1
vt 1.4561 -15.9288
f 4/1/1 3/2/2 2/3/3
f 4/1/1 2/3/3 1/4/4
f 3/2/2 6/5/5 5/6/6
f 3/2/2 5/6/6 2/3/3
f 6/5/5 8/7/7 7/8/8
f 6/5/5 7/8/8 5/6/6
f 8/7/7 10/9/9 9/10/10
f 8/7/7 9/10/10 7/8/8
f 10/9/9 12/11/11 11/12/12
f 10/9/9 11/12/12 9/10/10
f 12/11/11 14/13/13 13/14/14
f 12/11/11 13/14/14 11/12/12
f 14/13/13 16/15/15 15/16/16
f 14/13/13 15/16/16 13/14/14
f 16/15/15 4/1/1 1/4/4
f 16/15/15 1/4/4 15/16/16
f 18/17/17 17/18/18 3/2/2
f 18/17/17 3/2/2 4/1/1
f 17/18/18 19/19/19 6/5/5
f 17/18/18 6/5/5 3/20/20
f 19/19/19 20/21/21 8/7/7
f 19/19/19 8/7/7 6/22/22
f 20/21/21 21/23/23 10/9/9
f 20/21/21 10/9/9 8/7/7
f 21/23/23 22/24/24 12/11/11
f 21/23/23 12/11/11 10/25/25
f 22/24/24 23/26/26 14/13/13
f 22/24/24 14/13/13 12/27/27
f 23/26/26 24/28/28 16/15/15
f 23/26/26 16/15/15 14/13/13
f 24/28/28 18/17/17 4/1/1
f 24/28/28 4/1/1 16/15/15
f 26/29/29 25/30/30 17/31/31
f 26/29/29 17/31/31 18/32/32
f 25/30/30 27/33/33 19/34/34
f 25/30/30 19/34/34 17/31/31
f 27/33/33 28/35/35 20/36/36
f 27/33/33 20/36/36 19/34/34
f 28/35/35 29/37/37 21/38/38
f 28/35/35 21/38/38 20/36/36
f 29/37/37 30/39/39 22/40/40
f 29/37/37 22/40/40 21/38/38
f 30/39/39 31/41/41 23/42/42
f 30/39/39 23/42/42 22/40/40
f 31/41/41 32/43/43 24/44/44
f 31/41/41 24/44/44 23/42/42
f 32/43/43 26/29/29 18/32/32
f 32/43/43 18/32/32 24/44/44
f 26/29/29 34/45/45 33/46/46
f 26/29/29 33/46/46 25/30/30
f 25/30/30 33/46/46 35/47/47
f 25/30/30 35/47/47 27/33/33
f 27/33/33 35/47/47 36/48/48
f 27/33/33 36/48/48 28/35/35
f 28/35/35 36/48/48 37/49/49
f 28/35/35 37/49/49 29/37/37
f 29/37/37 37/49/49 38/50/50
f 29/37/37 38/50/50 30/39/39
f 30/39/39 38/50/50 39/51/51
f 30/39/39 39/51/51 31/41/41
f 31/41/41 39/51/51 40/52/52
f 31/41/41 40/52/52 32/43/43
f 32/43/43 40/52/52 34/45/45
f 32/43/43 34/45/45 26/29/29
f 43/53/53 42/54/54 41/55/55
f 43/53/53 44/56/56 42/54/54
f 43/57/57 45/58/58 44/56/56
f 43/57/57 46/59/59 45/58/58
f 43/60/60 47/61/61 46/59/59
f 43/62/62 48/63/63 47/61/61
f 43/64/64 49/65/65 48/63/63
f 43/64/64 41/55/55 49/65/65
f 51/66/66 33/46/46 34/45/45
f 51/66/66 34/45/45 50/67/67
f 52/68/68 35/47/47 33/69/69
f 52/68/68 33/69/69 51/66/66
f 53/70/70 36/48/48 35/71/71
f 53/70/70 35/71/71 52/68/68
f 54/72/72 37/49/49 36/48/48
f 54/72/72 36/48/48 53/70/70
f 55/73/73 38/50/50 37/74/74
f 55/73/73 37/74/74 54/72/72
f 56/75/75 39/51/51 38/76/76
f 56/75/75 38/76/76 55/73/73
f 57/77/77 40/52/52 39/78/78
f 57/77/77 39/78/78 56/75/75
f 50/67/67 34/79/79 40/52/52
f 50/67/67 40/52/52 57/77/77
f 50/80/80 41/81/81 42/82/82
f 50/80/80 42/82/82 51/83/83
f 51/83/83 42/82/82 44/84/84
f 51/83/83 44/84/84 52/85/85
f 52/85/85 44/84/84 45/86/86
f 52/85/85 45/86/86 53/87/87
f 53/87/87 45/86/86 46/88/88
f 53/87/87 46/88/88 54/89/89
f 54/89/89 46/88/88 47/90/90
f 54/89/89 47/90/90 55/91/91
f 55/91/91 47/90/90 48/92/92
f 55/91/91 48/92/92 56/93/93
f 56/93/93 48/92/92 49/94/94
f 56/93/93 49/94/94 57/95/95
f 57/95/95 49/94/94 41/81/81
f 57/95/95 41/81/81 50/80/80
f 61/96/96 60/97/97 59/98/98
f 61/96/96 59/98/98 58/99/99
f 60/97/97 63/100/100 62/101/101
f 60/97/97 62/101/101 59/98/98
f 63/100/100 65/102/102 64/103/103
f 63/100/100 64/103/103 62/101/101
f 65/102/102 67/104/104 66/105/105
f 65/102/102 66/105/105 64/103/103
f 67/104/104 69/106/106 68/107/107
f 67/104/104 68/107/107 66/105/105
f 69/106/106 71/108/108 70/109/109
f 69/106/106 70/109/109 68/107/107
f 71/108/108 73/110/110 72/111/111
f 71/108/108 72/111/111 70/109/109
f 73/110/110 61/96/96 58/99/99
f 73/110/110 58/99/99 72/111/111
f 77/112/112 76/113/113 75/114/114
f 77/112/112 75/114/114 74/115/115
f 76/113/113 79/116/116 78/117/117
f 76/113/113 78/117/117 75/114/114
f 79/116/116 81/118/118 80/119/119
f 79/116/116 80/119/119 78/117/117
f 81/118/118 83/120/120 82/121/121
f 81/118/118 82/121/121 80/119/119
f 83/120/120 85/122/122 84/123/123
f 83/120/120 84/123/123 82/121/121
f 85/122/122 87/124/124 86/125/125
f 85/122/122 86/125/125 84/123/123
f 87/124/124 89/126/126 88/127/127
f 87/124/124 88/127/127 86/125/125
f 89/126/126 77/112/112 74/115/115
f 89/126/126 74/115/115 88/127/127
f 77/128/128 83/129/129 81/130/130
f 77/128/128 81/130/130 79/131/131
f 77/128/128 87/132/132 85/133/133
f 77/128/128 85/133/133 83/129/129
f 77/128/128 89/134/134 87/132/132
f 77/128/128 79/131/131 76/135/135
f 80/136/136 84/137/137 86/138/138
f 80/136/136 86/138/138 88/139/139
f 80/136/136 82/140/140 84/137/137
f 88/139/139 75/141/141 78/142/142
f 88/139/139 78/142/142 80/136/136
f 75/141/141 88/139/139 74/143/143
f 93/144/144 92/145/145 91/146/146
f 93/144/144 91/146/146 90/147/147
f 92/145/145 95/148/148 94/149/149
f 92/145/145 94/149/149 91/146/146
f 95/148/148 97/150/150 96/151/151
f 95/148/148 96/151/151 94/149/149
f 97/150/150 99/152/152 98/153/153
f 97/150/150 98/153/153 96/151/151
f 99/152/152 101/154/154 100/155/155
f 99/152/152 100/155/155 98/153/153
f 101/154/154 103/156/156 102/157/157
f 101/154/154 102/157/157 100/155/155
f 103/156/156 105/158/158 104/159/159
f 103/156/156 104/159/159 102/157/157
f 105/158/158 93/144/144 90/147/147
f 105/158/158 90/147/147 104/159/159
f 93/160/160 99/161/161 97/162/162
f 93/160/160 97/162/162 95/163/163
f 93/160/160 103/164/164 101/165/165
f 93/160/160 101/165/165 99/161/161
f 93/160/160 105/166/166 103/164/164
f 93/160/160 95/163/163 92/167/167
f 96/168/168 100/169/169 102/170/170
f 96/168/168 102/170/170 104/171/171
f 96/168/168 98/172/172 100/169/169
f 104/171/171 91/173/173 94/174/174
f 104/171/171 94/174/174 96/168/168
f 91/173/173 104/171/171 90/175/175
