#
# Exported by OpenBRF -- marco tarini
#
s dragon_spear.5
newmtl DaMing_helmet_grey
Ka 0.8 0.8 0.8
Kd 0.2 0.2 0.2
usemtl DaMing_helmet_grey
v 0.0216252 0.0410809 1.4549
v 0.0209819 -0.0248233 1.4837
v 0.00908077 0.0162166 1.3936
v 0.0765471 0.0146453 1.495
v 0.0714811 -0.0337893 1.4642
v 0.0540315 -0.026672 1.5266
v 0.0506542 -0.0770476 1.4712
v 0.0400397 -0.0554184 1.5071
v 0.0131014 -0.0315709 1.4442
v 0.00248692 -0.0597628 1.3706
v 0.00321064 0.00484744 1.3424
v 0.039718 -0.0926687 1.2449
v 0.0386727 -0.119659 1.2567
v 0.0482418 -0.110785 1.3929
v 0.0501717 -0.131398 1.2659
v 0.0585346 -0.120768 1.2598
v 0.0713202 -0.0675271 1.3805
v 0.0792007 -0.0290752 1.3666
v 0.0627965 -0.105702 1.2526
v 0.0814522 0.0061415 1.4559
v 0.0722852 0.00789771 1.3476
v 0.0588563 -0.0903579 1.2464
v 0.0519408 0.0323923 1.3209
v 0.050815 -0.079266 1.2431
v 0.0488047 0.0577187 1.3831
v 0.0730089 0.0443161 1.4338
v 0.0433366 0.0761128 1.4553
v 0.055881 0.0533744 1.4951
v 0.062314 0.0173258 1.5251
v -0.00249867 0.0178804 1.4849
v -0.00225743 0.00493988 1.4906
v -0.00917292 0.00115015 1.4906
v -0.00265949 0.00983879 1.4889
v -0.00322238 0.00937663 1.4894
v -0.00346362 0.0100237 1.4895
v -0.00273991 0.0108555 1.4885
v -0.00338321 0.0110404 1.489
v -0.0125503 0.0132588 1.4875
v -0.00370486 0.0106707 1.4894
v -0.00708219 0.00706582 1.4881
v -5.87089e-06 -0.0406293 1.5242
v -0.00314197 0.0115026 1.4886
v -0.0111832 0.0175107 1.4843
v -0.0366741 0.0236112 1.5161
v -0.0322514 -0.00421093 1.531
v 0.0164787 -0.0192774 1.5459
v 0.039316 0.0217626 1.5399
v -0.00909251 0.0238885 1.4811
v 0.00321063 0.0828603 1.4752
v -0.0308844 0.0542063 1.5083
v 0.0183282 0.0626177 1.5142
v -0.0188225 0.0287874 1.5439
v 0.00473848 -0.0569898 1.3693
v 0.00530137 0.00188961 1.3436
v 0.0410046 -0.0966432 1.2472
v 0.0479201 -0.125482 1.2591
v 0.0399593 -0.115037 1.2553
v 0.0484026 -0.0868454 1.2424
v 0.052182 0.0269388 1.3234
v 0.0565243 -0.0928535 1.2447
v 0.0706769 0.00466258 1.3493
v 0.0591779 -0.106071 1.2506
v 0.0771099 -0.0290752 1.3668
v 0.0562026 -0.119474 1.2565
v 0.0699532 -0.0641995 1.3793
v 0.0486438 -0.105239 1.3906
v -0.0548474 0.0318377 1.341
v -0.119419 -0.0354531 1.2105
v -0.0526762 -0.0219579 1.3377
v -0.142658 0.0433917 1.228
v -0.119097 0.0173258 1.2129
v -0.155846 0.0175107 1.1143
v -0.153675 -0.0358228 1.1111
v -0.220337 0.0510636 1.011
v -0.218889 0.008175 1.0084
v -0.138075 -0.0678968 1.2213
v -0.191067 -0.0600401 1.1401
v -0.160831 -0.0548638 1.2373
v -0.169677 -0.0181682 1.2449
v -0.200796 -0.0186304 1.1496
v -0.163887 0.0217625 1.2421
v -0.194524 0.0263842 1.1452
v -0.17225 0.0439463 1.1273
v -0.23079 0.0726928 1.0236
v -0.246793 0.057349 1.0398
v -0.250652 0.0224096 1.0472
v -0.244059 -0.00984931 1.0358
v -0.167666 -0.0684514 1.1206
v -0.227252 -0.0178909 1.0184
v -0.0891836 -0.0723335 1.3645
v -0.10398 -0.0342514 1.386
v -0.109528 -0.00393363 1.3952
v -0.106392 0.0289723 1.3896
v -0.0937671 0.0683485 1.3714
v -0.0142389 -0.0251931 1.4552
v -0.0164101 0.0347031 1.4588
v -0.0283112 -0.0254704 1.4029
v -0.0476102 -0.00532012 1.5231
v -0.0701258 0.0306361 1.4641
v -0.0241297 0.0384928 1.5271
v -0.0607175 0.0713987 1.4409
v -0.0289545 0.0611387 1.484
v -0.0305627 0.0347955 1.4063
v -0.0529175 0.0346107 1.3397
v -0.0505051 -0.0241763 1.3365
v -0.115479 -0.0468222 1.2055
v -0.116765 0.0310982 1.2095
v -0.0935259 0.0736171 1.3716
v -0.143221 0.0613236 1.248
v -0.165897 0.0261069 1.257
v -0.107679 0.0313755 1.3906
v -0.111378 -0.0041185 1.3963
v -0.175466 -0.0200169 1.2604
v -0.0724578 -0.00596714 1.4785
v -0.104864 -0.0372093 1.3866
v -0.162359 -0.0619811 1.2518
v -0.0887011 -0.07714 1.364
v -0.13711 -0.0889714 1.2393
v -0.0560536 -0.0687287 1.4337
v -0.066266 -0.0399822 1.4646
v -0.0231647 -0.0578217 1.4841
v -0.0202699 -0.0340666 1.5272
v -0.0208328 -5.14716e-05 1.5494
v 0.0145488 0.00327609 1.4639
v 0.0138251 0.015015 1.4649
v 0.0184891 0.0193593 1.459
v 0.0147097 0.0106707 1.4649
v 0.0149509 0.0112253 1.4651
v 0.0154334 0.0106707 1.4653
v 0.0147097 0.00956149 1.4649
v 0.0155942 0.00983879 1.4652
v 0.0230726 0.00937663 1.4588
v 0.0155942 0.0103934 1.4653
v 0.0172025 0.0137209 1.4603
v 0.0163179 0.0585506 1.4847
v 0.0151117 0.00937663 1.4649
v 0.0215447 0.00493988 1.458
v 0.0594191 0.00983879 1.4806
v 0.0558006 0.0347955 1.4881
v 0.0183282 0.0416355 1.529
v 0.0080354 0.00346096 1.5601
v 0.0197757 -0.00116066 1.4582
v 0.0214643 -0.0533849 1.4847
v 0.0587758 -0.0179833 1.4886
v 0.0224293 -0.0321255 1.5294
v 0.0590171 0.00743555 1.5254
vn -0.999907 0.0135545 0.00176349
vt 0.855 0.9849
vn -0.852188 -0.486821 -0.191787
vt 0.8538 0.8762
vn -0.975401 0.0829778 0.204226
vt 0.7604 0.9845
vn 0.914395 0.112026 0.389013
vt 0.7861 0.7941
vn 0.878398 -0.395457 0.268384
vt 0.76 0.876
vn 0.573614 -0.384105 0.723485
vt 0.8083 0.876
vn 0.99343 0.103762 -0.0482701
vt 0.76 0.9851
vn 0.361019 -0.352106 0.863532
vt 0.8087 0.9851
vn -0.99816 0.028553 -0.0534915
vt 0.76 0.9851
vn -0.891871 -0.294101 0.343614
vt 0.76 0.876
vn -0.902649 -0.429974 0.0186422
vt 0.7026 0.876
vn -0.973322 -0.0673828 -0.219327
vt 0.7014 0.9851
vn -0.915988 -0.112261 -0.385179
vt 0.5901 0.9849
vn -0.836707 -0.541583 -0.0812995
vt 0.5901 0.876
vn -0.712206 -0.567441 0.413248
vt 0.76 0.9851
vn -0.668804 -0.706265 0.232145
vt 0.7018 0.9851
vn -0.981211 -0.192464 0.0135026
vt 0.5901 0.9851
vn 0.720705 -0.67776 0.145689
vt 0.5901 0.9851
vn 0.956447 0.278114 -0.0886642
vt 0.7018 0.9851
vn 0.873569 -0.477863 0.0923297
vt 0.5901 0.876
vn 0.902789 -0.414509 0.114694
vt 0.7026 0.876
vn 0.992271 -0.0364506 -0.118619
vt 0.7014 0.7939
vn 0.982985 -0.100242 -0.153922
vt 0.5901 0.7938
vn 0.998657 0.0108742 0.050665
vt 0.7612 0.7939
vn 0.878533 0.323796 -0.351193
vt 0.7026 0.876
vn 0.823588 0.268981 -0.499352
vt 0.5901 0.876
vn 0.0383477 0.662367 -0.748197
vt 0.7014 0.9851
vn -0.0122668 0.511606 -0.859133
vt 0.5901 0.9851
vn -0.440871 0.457786 -0.772052
vt 0.5901 0.876
vn -0.0885223 0.939947 -0.329642
vt 0.76 0.9851
vn 0.772215 0.633054 -0.0540991
vt 0.76 0.876
vn -0.474819 0.586701 -0.655994
vt 0.7026 0.876
vn -0.628441 0.76773 -0.125115
vt 0.76 0.876
vn -0.631752 0.493267 -0.597977
vt 0.8538 0.8762
vn -0.74377 0.611693 -0.269514
vt 0.76 0.9851
vn -0.626649 0.518827 -0.581489
vt 0.8083 0.9851
vn 0.891564 0.381679 0.243793
vt 0.8083 0.9851
vn 0.952126 0.261327 0.158629
vt 0.76 0.9851
vn 0.560324 0.724445 0.401518
vt 0.8083 0.876
vn 0.612081 0.214102 0.76126
vt 0.8111 0.7941
vn -0.451866 -0.308162 -0.83717
vt 0.9501 0.9849
vn -0.297122 -0.149693 -0.943032
vt 0.9516 0.8774
vn 0.916883 0.270814 -0.293234
vt 0.8538 0.8762
vn -0.425534 -0.491906 -0.759572
vt 0.9493 0.9551
vn -0.208607 -0.272794 -0.939184
vt 0.9782 0.8768
vn -0.419428 0.293823 -0.858923
vt 0.9782 0.9547
vn 0.250567 -0.227548 -0.940977
vt 0.9782 0.8768
vn -0.531944 -0.319246 -0.784295
vt 0.9766 0.9849
vn -0.0216533 -0.566334 -0.823892
vt 0.9782 0.8768
vn -0.561196 -0.527564 -0.637758
vt 0.9516 0.7939
vn 0.135579 -0.0478384 -0.989611
vt 0.9782 0.7941
vn -0.513559 -0.515528 -0.685921
vt 0.9516 0.8774
vn 0.513559 0.515528 0.685921
vt 0.9516 0.8774
vn 0.241235 0.0538619 0.968971
vt 0.9093 0.9643
vn 0.287593 0.510512 0.81035
vt 0.9493 0.9551
vn -0.241236 -0.0538619 -0.968971
vt 0.9093 0.9643
vn -0.429006 0.267073 -0.862917
vt 0.8087 0.9851
vn -0.0207284 -0.449324 -0.893128
vt 0.9782 0.9547
vn -0.559896 0.00456054 -0.82855
vt 0.9516 0.8774
vn -0.972863 -0.0503982 -0.225827
vt 0.9259 0.7939
vn -0.202201 -0.15094 -0.967643
vt 0.9124 0.8617
vn 0.101914 0.159619 0.981904
vt 0.9124 0.8617
vn 0.0288244 -0.25355 0.966893
vt 0.8538 0.8762
vn 0.222261 0.29327 0.929835
vt 0.8337 0.7939
vn -0.501074 -0.0812876 -0.861578
vt 0.9493 0.9551
vn -0.628483 0.0147543 -0.777683
vt 0.9093 0.9643
vn -0.258974 -0.421441 -0.869091
vt 0.9124 0.8617
vn 0.110111 0.730854 0.673593
vt 0.8538 0.8762
vn 0.177412 0.429996 0.885228
vt 0.9124 0.8617
vn -0.169573 0.313422 0.934351
vt 0.8926 0.7938
vn 0.452336 0.288147 0.844016
vt 0.9093 0.9643
vn -0.151982 -0.631342 -0.760466
vt 0.8538 0.8762
vn -0.124384 -0.604988 -0.786459
vt 0.9516 0.8774
vn -0.52004 -0.322658 -0.790854
vt 0.9782 0.8768
vn 0.961409 -0.107028 -0.253451
vt 0.855 0.9849
vn 0.975401 -0.0829778 -0.204226
vt 0.7604 0.9845
vn -0.914395 -0.112026 -0.389013
vt 0.7861 0.7941
vn -0.573614 0.384105 -0.723485
vt 0.8083 0.876
vn -0.878398 0.395457 -0.268384
vt 0.76 0.876
vn 0.891871 0.294101 -0.343614
vt 0.76 0.876
vn 0.799434 0.551923 -0.237248
vt 0.7026 0.876
vn 0.985115 -0.0726711 -0.155781
vt 0.7014 0.9851
vn 0.915945 0.128245 0.380261
vt 0.7014 0.9851
vn 0.915988 0.112261 0.385179
vt 0.5901 0.9849
vn 0.915962 0.126436 0.380824
vt 0.7026 0.876
vn 0.836707 0.541583 0.0812995
vt 0.5901 0.876
vn 0.646899 0.751821 -0.127618
vt 0.5901 0.9851
vn -0.873569 0.477863 -0.0923297
vt 0.5901 0.876
vn -0.824721 0.535672 -0.181357
vt 0.7018 0.9851
vn -0.902789 0.414509 -0.114694
vt 0.7026 0.876
vn -0.984013 -0.0283775 0.175819
vt 0.7014 0.7939
vn -0.942143 0.331311 -0.0509918
vt 0.5901 0.7938
vn -0.967215 0.24355 -0.0719638
vt 0.7014 0.7939
vn -0.998657 -0.0108742 -0.0506651
vt 0.7612 0.7939
vn -0.878533 -0.323796 0.351193
vt 0.7026 0.876
vn -0.925692 -0.1469 0.348589
vt 0.5901 0.7938
vn -0.823588 -0.268981 0.499352
vt 0.5901 0.876
vn -0.0383477 -0.662368 0.748197
vt 0.7014 0.9851
vn 0.0122668 -0.511606 0.859133
vt 0.5901 0.9851
vn 0.440871 -0.457786 0.772052
vt 0.5901 0.876
vn -0.0130766 -0.955833 0.293619
vt 0.76 0.9851
vn -0.772215 -0.633054 0.0540991
vt 0.76 0.876
vn 0.474819 -0.586701 0.655994
vt 0.7026 0.876
vn 0.628441 -0.76773 0.125115
vt 0.76 0.876
vn 0.631752 -0.493267 0.597977
vt 0.8538 0.8762
vn -0.846436 -0.529247 0.0586777
vt 0.8083 0.9851
vn -0.647484 -0.761539 0.028692
vt 0.8083 0.876
vn -0.524013 -0.695349 -0.491833
vt 0.8083 0.876
vn -0.612081 -0.214102 -0.76126
vt 0.8111 0.7941
vn 0.450504 0.307165 0.838269
vt 0.855 0.9849
vn 0.436597 0.557282 0.706272
vt 0.8538 0.8762
vn 0.451866 0.308162 0.83717
vt 0.9501 0.9849
vn 0.297122 0.149693 0.943032
vt 0.9516 0.8774
vn 0.208607 0.272794 0.939184
vt 0.9782 0.8768
vn 0.351712 -0.458963 -0.815874
vt 0.9493 0.9551
vn 0.419428 -0.293823 0.858922
vt 0.9782 0.9547
vn -0.250567 0.227548 0.940977
vt 0.9782 0.8768
vn 0.531944 0.319246 0.784295
vt 0.9766 0.9849
vn 0.0216533 0.566334 0.823892
vt 0.9782 0.8768
vn -0.135579 0.0478384 0.989611
vt 0.9782 0.7941
vn 0.561196 0.527564 0.637758
vt 0.9516 0.7939
vn 0.0207284 0.449324 0.893128
vt 0.9782 0.9547
vn 0.559896 -0.00456053 0.82855
vt 0.9516 0.8774
vn 0.972863 0.0503982 0.225827
vt 0.9259 0.7939
vn -0.0288244 0.25355 -0.966893
vt 0.8538 0.8762
vn -0.019377 0.666708 -0.745067
vt 0.8087 0.9851
vn -0.222261 -0.29327 -0.929835
vt 0.8337 0.7939
vn 0.501074 0.0812876 0.861578
vt 0.9493 0.9551
vn 0.148619 -0.803113 -0.576994
vt 0.9093 0.9643
vn -0.110111 -0.730854 -0.673593
vt 0.8538 0.8762
vn 0.169573 -0.313422 -0.934351
vt 0.8926 0.7938
vn 0.717634 -0.159456 -0.67792
vt 0.9124 0.8617
vn 0.706906 -0.314725 -0.633428
vt 0.9124 0.8617
vn -0.270174 -0.870725 -0.410907
vt 0.8083 0.9851
vn 0.270412 -0.230557 0.934731
vt 0.8083 0.9851
vn 0.151982 0.631342 0.760466
vt 0.8538 0.8762
vn 0.124384 0.604988 0.786459
vt 0.9516 0.8774
vn 0.52004 0.322658 0.790854
vt 0.9782 0.8768
vn 0.87926 0.451988 0.150362
vt 0.7252 0.9847
vn 0.918797 0.127684 0.373508
vt 0.7252 0.8703
vn 0.918161 0.103125 0.382551
vt 0.6626 0.8701
vn 0.431692 0.889434 -0.150165
vt 0.6626 0.928
vn 0.894567 0.406879 0.184931
vt 0.6626 0.9847
vn 0.615427 -0.310803 0.724328
vt 0.6626 0.9847
vn 0.415067 -0.484155 0.770268
vt 0.7252 0.9847
vn 0.2602 -0.471087 0.842836
vt 0.6626 0.928
vn -0.0445309 -0.533414 0.844682
vt 0.7256 0.928
vn -0.802041 -0.277566 0.528854
vt 0.6626 0.8658
vn -0.864536 -0.240436 0.441325
vt 0.7256 0.8658
vn -0.981611 0.0885479 0.169111
vt 0.6626 0.7947
vn -0.978598 0.043496 0.20113
vt 0.7256 0.7947
vn -0.844148 0.530477 -0.0775161
vt 0.6626 0.866
vn -0.910582 0.40925 -0.0579239
vt 0.7256 0.866
vn -0.827655 0.543577 -0.139683
vt 0.7256 0.928
vn 0.658644 0.739533 -0.138851
vt 0.7256 0.928
vn 0.625584 0.557035 -0.546221
vt 0.7252 0.9847
vn 0.825025 0.0313252 -0.564228
vt 0.6626 0.8701
vn 0.769832 0.074275 -0.63391
vt 0.7252 0.8703
vn 0.0345163 0.988409 -0.147838
vt 0.6626 0.928
vn 0.753763 0.37624 -0.538781
vt 0.6626 0.9847
vn 0.785361 0.288824 -0.547529
vt 0.6258 0.9847
vn 0.812828 0.0727445 -0.577943
vt 0.6234 0.8762
vn 0.73789 0.331237 -0.588048
vt 0.5913 0.9845
vn 0.728629 0.0677902 -0.681545
vt 0.5913 0.8884
vn 0.29082 -0.938541 -0.185913
vt 0.6626 0.928
vn -0.628621 -0.752641 0.195875
vt 0.6258 0.8658
vn -0.648395 -0.659392 0.380507
vt 0.6626 0.8658
vn -0.862342 -0.0804158 0.4999
vt 0.6626 0.7947
vn -0.856687 -0.107543 0.504502
vt 0.6254 0.7947
vn -0.777991 0.491341 0.391552
vt 0.6626 0.866
vn -0.665005 0.537523 0.518495
vt 0.6258 0.866
vn 0.233216 0.972372 -0.0101317
vt 0.6258 0.928
vn 0.275721 0.959589 0.0562674
vt 0.5917 0.928
vn -0.50719 0.608726 0.610091
vt 0.5921 0.8538
vn -0.802388 -0.0161516 0.596584
vt 0.5921 0.7947
vn -0.721994 -0.658262 0.213112
vt 0.5921 0.8536
vn 0.249211 -0.878633 -0.407305
vt 0.6258 0.928
vn 0.62144 -0.514347 -0.590981
vt 0.6258 0.9847
vn 0.663598 -0.622272 -0.415229
vt 0.6626 0.9847
vn 0.602628 -0.715613 -0.353182
vt 0.7252 0.9847
vn 0.510299 -0.455437 -0.729501
vt 0.5913 0.9845
vn 0.146094 -0.79156 -0.593371
vt 0.5917 0.928
vn 0.552193 -0.770073 -0.319485
vt 0.7256 0.928
vn -0.818024 0.231293 0.526632
vt 0.7256 0.928
vn -0.734328 -0.44883 0.509229
vt 0.7256 0.8658
vn -0.848085 -0.0446188 0.527978
vt 0.7256 0.7947
vn -0.80999 0.353312 0.468067
vt 0.7256 0.866
vn -0.780886 -0.301862 0.546897
vt 0.7256 0.928
vn 0.752634 0.367126 -0.54659
vt 0.7256 0.928
vn -0.625584 -0.557035 0.546221
vt 0.7252 0.9847
vn -0.769832 -0.074275 0.63391
vt 0.7252 0.8703
vn -0.825025 -0.0313252 0.564228
vt 0.6626 0.8701
vn -0.0345163 -0.988409 0.147838
vt 0.6626 0.928
vn -0.753763 -0.37624 0.538781
vt 0.6626 0.9847
vn -0.785362 -0.288824 0.547529
vt 0.6258 0.9847
vn -0.812829 -0.0727446 0.577943
vt 0.6234 0.8762
vn -0.73789 -0.331237 0.588048
vt 0.5913 0.9845
vn -0.728629 -0.0677901 0.681545
vt 0.5913 0.8884
vn 0.288992 0.939227 -0.185302
vt 0.6626 0.928
vn 0.648395 0.659392 -0.380508
vt 0.6626 0.8658
vn 0.693201 0.620325 -0.366972
vt 0.6258 0.8658
vn 0.862342 0.0804158 -0.4999
vt 0.6626 0.7947
vn 0.856687 0.107543 -0.504502
vt 0.6254 0.7947
vn 0.777991 -0.491341 -0.391552
vt 0.6626 0.866
vn 0.665005 -0.537523 -0.518495
vt 0.6258 0.866
vn 0.327084 -0.868292 -0.372941
vt 0.6258 0.928
vn -0.635622 -0.691947 0.342336
vt 0.6258 0.928
vn -0.662771 -0.63737 0.393057
vt 0.5917 0.928
vn 0.50719 -0.608726 -0.610091
vt 0.5921 0.8538
vn 0.268642 -0.822462 -0.501386
vt 0.5917 0.928
vn 0.802388 0.0161516 -0.596584
vt 0.5921 0.7947
vn 0.721994 0.658262 -0.213112
vt 0.5921 0.8536
vn -0.249211 0.878634 0.407305
vt 0.6258 0.928
vn 0.365516 0.903957 0.221944
vt 0.6258 0.8658
vn -0.621441 0.514347 0.590981
vt 0.6258 0.9847
vn -0.426568 0.862319 0.272846
vt 0.6626 0.928
vn -0.663598 0.622272 0.415229
vt 0.6626 0.9847
vn -0.602628 0.715613 0.353182
vt 0.7252 0.9847
vn -0.510299 0.455437 0.729501
vt 0.5913 0.9845
vn -0.146094 0.79156 0.593371
vt 0.5917 0.928
vn 0.64069 0.615359 -0.459184
vt 0.7256 0.928
vn 0.734328 0.44883 -0.509229
vt 0.7256 0.8658
vn 0.848085 0.0446188 -0.527978
vt 0.7256 0.7947
vn 0.80999 -0.353312 -0.468067
vt 0.7256 0.866
vn 0.568301 -0.811789 -0.134285
vt 0.7256 0.928
vn 0.761404 0.0695639 -0.644535
vt 0.855 0.9849
vn 0.562245 0.505729 -0.654308
vt 0.8538 0.8762
vn 0.901769 0.0659929 -0.427151
vt 0.7604 0.9845
vn -0.648718 -0.0622073 0.758482
vt 0.7861 0.7941
vn -0.685327 0.404562 0.605522
vt 0.76 0.876
vn -0.365128 0.602786 0.709458
vt 0.8083 0.876
vn -0.787566 -0.201048 0.582511
vt 0.76 0.9851
vn 0.0681468 0.995575 0.0647096
vt 0.8087 0.9851
vn 0.787711 0.228731 -0.572009
vt 0.76 0.9851
vn 0.791364 0.480357 -0.378154
vt 0.76 0.876
vn 0.693163 0.52421 -0.494701
vt 0.7026 0.876
vn 0.816986 0.0709128 -0.572281
vt 0.7014 0.9851
vn 0.79311 0.0496499 -0.607051
vt 0.5901 0.9849
vn 0.730882 0.37529 -0.57006
vt 0.5901 0.876
vn 0.712898 0.46237 -0.527249
vt 0.7018 0.9851
vn -0.0659467 0.995013 -0.0748295
vt 0.5901 0.9851
vn -0.770119 0.415304 0.48419
vt 0.5901 0.876
vn -0.739355 -0.406903 0.536455
vt 0.7018 0.9851
vn -0.759905 0.374301 0.531454
vt 0.7026 0.876
vn -0.808845 -0.0515318 0.58576
vt 0.7014 0.7939
vn -0.803828 -0.0859838 0.588615
vt 0.5901 0.7938
vn -0.778203 -0.0628699 0.624859
vt 0.7612 0.7939
vn -0.693008 -0.474415 0.542835
vt 0.7026 0.876
vn -0.641564 -0.577659 0.504683
vt 0.5901 0.876
vn -0.817042 0.216672 0.534317
vt 0.7014 0.9851
vn -0.855384 0.144214 0.497515
vt 0.5901 0.9851
vn 0.855384 -0.144214 -0.497515
vt 0.5901 0.9851
vn 0.817042 -0.216672 -0.534317
vt 0.7014 0.9851
vn 0.641757 -0.695403 -0.323361
vt 0.5901 0.876
vn -0.798228 0.115029 0.591271
vt 0.76 0.9851
vn -0.593517 -0.572265 0.565907
vt 0.76 0.876
vn 0.608831 -0.723451 -0.325489
vt 0.7026 0.876
vn 0.800017 -0.145701 -0.582018
vt 0.76 0.9851
vn 0.624526 -0.717234 -0.309102
vt 0.76 0.876
vn 0.441957 -0.617262 -0.650893
vt 0.8538 0.8762
vn 0.653969 0.234311 -0.719321
vt 0.8083 0.9851
vn -0.434814 -0.777166 0.454917
vt 0.8083 0.9851
vn -0.235233 -0.687496 0.687033
vt 0.8083 0.876
vn -0.367709 -0.0181921 0.929763
vt 0.8111 0.7941
vn 0.151654 0.0605291 -0.986579
vt 0.9501 0.9849
vn -0.00655141 -0.215269 -0.976533
vt 0.9516 0.8774
vn -0.199561 -0.608288 -0.768219
vt 0.8538 0.8762
vn 0.115354 0.354018 -0.928097
vt 0.9493 0.9551
vn -0.630101 -0.0856067 -0.77178
vt 0.9782 0.8768
vn 0.984119 0.176037 -0.0228145
vt 0.9782 0.8768
vn 0.317817 -0.634236 -0.704796
vt 0.9782 0.9547
vn -0.619171 -0.239116 -0.747964
vt 0.9782 0.8768
vn 0.97043 4.63231e-08 -0.241382
vt 0.9766 0.9849
vn -0.385259 0.388793 -0.836908
vt 0.9782 0.8768
vn 0.263969 0.413283 -0.871503
vt 0.9516 0.7939
vn -0.471168 -0.489749 -0.733585
vt 0.9782 0.7941
vn 0.186865 0.376098 -0.907542
vt 0.9516 0.8774
vn -0.192155 -0.395493 0.898144
vt 0.9516 0.8774
vn 0.0185283 0.353844 0.935121
vt 0.9093 0.9643
vn 0.0280749 -0.358098 0.933262
vt 0.9493 0.9551
vn 0.16811 0.49571 -0.852063
vt 0.9093 0.9643
vn -0.420527 0.252487 -0.87144
vt 0.9782 0.9547
vn 0.303713 -0.288801 -0.907939
vt 0.9516 0.8774
vn 0.710659 0.052294 -0.701591
vt 0.9259 0.7939
vn 0.262081 0.672192 -0.692439
vt 0.9516 0.8774
vn 0.378508 0.654225 -0.654768
vt 0.9124 0.8617
vn 0.201669 0.718704 0.665428
vt 0.8538 0.8762
vn 0.136826 0.0160175 0.990466
vt 0.8337 0.7939
vn 0.239175 -0.249973 -0.938248
vt 0.9493 0.9551
vn 0.337729 -0.891511 -0.301907
vt 0.9093 0.9643
vn 0.703415 -0.634895 -0.319555
vt 0.9124 0.8617
vn 0.279863 -0.682791 0.674887
vt 0.8538 0.8762
vn 0.653007 0.0490868 0.755759
vt 0.8926 0.7938
vn 0.471368 0.412915 0.779303
vt 0.9124 0.8617
vn -0.235898 0.528153 -0.815724
vt 0.8538 0.8762
vn -0.271657 0.487568 -0.829747
vt 0.9516 0.8774
vn 0.0462826 0.133001 -0.990035
vt 0.9782 0.8768
vn -0.761404 -0.0695639 0.644535
vt 0.855 0.9849
vn -0.901769 -0.0659929 0.427151
vt 0.7604 0.9845
vn -0.726375 -0.433811 0.533091
vt 0.8538 0.8762
vn 0.648718 0.0622073 -0.758482
vt 0.7861 0.7941
vn 0.365128 -0.602786 -0.709458
vt 0.8083 0.876
vn 0.685327 -0.404562 -0.605522
vt 0.76 0.876
vn -0.0679466 -0.960139 -0.27114
vt 0.8087 0.9851
vn 0.277106 -0.796305 -0.53769
vt 0.76 0.9851
vn -0.791364 -0.480357 0.378154
vt 0.76 0.876
vn -0.693163 -0.52421 0.494701
vt 0.7026 0.876
vn -0.816986 -0.0709128 0.572281
vt 0.7014 0.9851
vn -0.79311 -0.0496499 0.607051
vt 0.5901 0.9849
vn -0.730882 -0.37529 0.57006
vt 0.5901 0.876
vn 0.0659467 -0.995013 0.0748295
vt 0.5901 0.9851
vn 0.770119 -0.415304 -0.48419
vt 0.5901 0.876
vn 0.676429 -0.650793 -0.344836
vt 0.7018 0.9851
vn 0.759905 -0.374301 -0.531454
vt 0.7026 0.876
vn 0.808845 0.0515318 -0.58576
vt 0.7014 0.7939
vn 0.803828 0.0859838 -0.588615
vt 0.5901 0.7938
vn 0.778203 0.0628699 -0.624858
vt 0.7612 0.7939
vn 0.693008 0.474415 -0.542835
vt 0.7026 0.876
vn 0.641564 0.577659 -0.504683
vt 0.5901 0.876
vn -0.641757 0.695403 0.323361
vt 0.5901 0.876
vn 0.593517 0.572265 -0.565907
vt 0.76 0.876
vn -0.608831 0.723451 0.325489
vt 0.7026 0.876
vn -0.624525 0.717234 0.309102
vt 0.76 0.876
vn -0.441957 0.617262 0.650893
vt 0.8538 0.8762
vn 0.235233 0.687496 -0.687033
vt 0.8083 0.876
vn 0.33556 0.775335 -0.535028
vt 0.76 0.9851
vn 0.367709 0.0181921 -0.929763
vt 0.8111 0.7941
vn -0.151654 -0.0605291 0.986579
vt 0.9501 0.9849
vn 0.00655141 0.215269 0.976533
vt 0.9516 0.8774
vn -0.092325 -0.564844 0.820017
vt 0.8538 0.8762
vn -0.881717 0.180047 -0.436071
vt 0.9493 0.9551
vn -0.867005 0.498299 -7.18981e-07
vt 0.9782 0.9547
vn 0.619171 0.239116 0.747964
vt 0.9782 0.8768
vn 0.168007 0.461545 0.871062
vt 0.9782 0.9547
vn -0.363226 -0.096623 0.926677
vt 0.9782 0.8768
vn -0.97043 -4.63231e-08 0.241382
vt 0.9766 0.9849
vn 0.385259 -0.388793 0.836908
vt 0.9782 0.8768
vn 0.471168 0.489749 0.733585
vt 0.9782 0.7941
vn -0.263969 -0.413283 0.871503
vt 0.9516 0.7939
vn -0.0355178 -0.644395 0.763867
vt 0.8087 0.9851
vn 0.420527 -0.252487 0.87144
vt 0.9782 0.9547
vn -0.303713 0.288801 0.907939
vt 0.9516 0.8774
vn -0.710659 -0.052294 0.701591
vt 0.9259 0.7939
vn -0.612393 -0.790543 -0.0040307
vt 0.9124 0.8617
vn -0.178459 -0.902922 -0.391005
vt 0.9093 0.9643
vn -0.201669 -0.718704 -0.665428
vt 0.8538 0.8762
vn -0.136826 -0.0160175 -0.990466
vt 0.8337 0.7939
vn -0.239175 0.249973 0.938248
vt 0.9493 0.9551
vn -0.337729 0.891511 0.301907
vt 0.9093 0.9643
vn -0.703415 0.634895 0.319554
vt 0.9124 0.8617
vn -0.279863 0.682791 -0.674887
vt 0.8538 0.8762
vn -0.653007 -0.0490868 -0.755759
vt 0.8926 0.7938
vn -0.0360193 0.857486 -0.513246
vt 0.8083 0.9851
vn -0.0530936 0.614714 0.786961
vt 0.8083 0.9851
vn 0.235898 -0.528153 0.815724
vt 0.8538 0.8762
vn 0.271657 -0.487568 0.829747
vt 0.9516 0.8774
vn -0.0462826 -0.133001 0.990035
vt 0.9782 0.8768
f 1/1/1 3/3/3 2/2/2
f 4/4/4 6/6/6 5/5/5
f 5/5/5 6/6/6 7/7/7
f 6/6/6 8/8/8 7/7/7
f 8/8/8 2/2/2 7/9/9
f 7/9/9 2/2/2 9/10/10
f 2/2/2 3/3/3 9/10/10
f 9/10/10 3/3/3 10/11/11
f 3/3/3 11/12/12 10/11/11
f 11/12/12 12/13/13 10/11/11
f 12/13/13 13/14/14 10/11/11
f 9/10/10 10/11/11 7/15/15
f 7/9/9 10/11/11 14/16/16
f 10/11/11 13/14/14 14/16/16
f 13/14/14 15/17/17 14/16/16
f 15/18/18 16/20/20 14/19/19
f 14/19/19 16/20/20 17/21/21
f 17/21/21 16/20/20 18/22/22
f 16/20/20 19/23/23 18/22/22
f 7/7/7 14/19/19 5/5/5
f 14/19/19 17/21/21 5/5/5
f 5/5/5 17/21/21 20/24/24
f 17/21/21 18/22/22 20/24/24
f 20/24/24 18/22/22 21/25/25
f 18/22/22 19/23/23 21/25/25
f 19/23/23 22/26/26 21/25/25
f 21/25/25 22/26/26 23/27/27
f 22/26/26 24/28/28 23/27/27
f 24/28/28 12/29/29 23/27/27
f 25/30/30 26/31/31 23/27/27
f 23/27/27 26/31/31 21/25/25
f 21/25/25 26/31/31 20/24/24
f 12/29/29 11/32/32 23/27/27
f 23/27/27 11/32/32 25/30/30
f 11/32/32 3/33/33 25/30/30
f 3/33/33 1/34/34 25/30/30
f 1/34/34 27/36/36 25/35/35
f 27/37/37 28/39/39 25/38/38
f 25/38/38 28/39/39 26/31/31
f 28/39/39 4/4/4 26/31/31
f 26/31/31 4/4/4 20/24/24
f 20/24/24 4/4/4 5/5/5
f 6/6/6 4/4/4 29/40/40
f 29/40/40 4/4/4 28/39/39
f 1/1/1 2/2/2 30/41/41
f 30/41/41 2/2/2 31/42/42
f 2/43/43 32/44/44 31/42/42
f 31/42/42 32/44/44 33/45/45
f 33/45/45 32/44/44 34/46/46
f 32/44/44 35/47/47 34/46/46
f 31/42/42 33/45/45 30/41/41
f 33/45/45 36/48/48 30/41/41
f 37/49/49 39/51/51 38/50/50
f 38/50/50 39/51/51 40/52/52
f 39/51/51 35/47/47 40/52/52
f 35/47/47 32/44/44 40/52/52
f 40/53/53 32/55/55 41/54/54
f 32/44/44 2/2/2 41/56/56
f 41/56/56 2/2/2 8/57/57
f 42/58/58 37/49/49 43/59/59
f 37/49/49 38/50/50 43/59/59
f 43/59/59 38/50/50 44/60/60
f 38/50/50 40/52/52 44/60/60
f 44/60/60 40/52/52 45/61/61
f 40/52/52 41/56/56 45/61/61
f 45/62/62 41/54/54 46/63/63
f 41/54/54 8/8/8 46/63/63
f 8/8/8 6/6/6 46/63/63
f 46/63/63 6/6/6 47/64/64
f 42/58/58 43/59/59 48/65/65
f 48/65/65 43/59/59 49/66/66
f 43/59/59 50/67/67 49/66/66
f 49/66/66 50/69/69 51/68/68
f 50/69/69 52/70/70 51/68/68
f 51/68/68 52/70/70 47/64/64
f 47/64/64 52/70/70 46/63/63
f 46/63/63 52/70/70 45/62/62
f 45/62/62 52/70/70 44/60/60
f 52/70/70 50/69/69 44/60/60
f 44/60/60 50/67/67 43/59/59
f 6/6/6 29/40/40 47/64/64
f 29/40/40 28/39/39 47/64/64
f 47/64/64 28/39/39 51/68/68
f 28/39/39 27/37/37 51/68/68
f 51/68/68 27/37/37 49/71/71
f 27/36/36 1/34/34 49/66/66
f 49/66/66 1/34/34 48/65/65
f 1/72/72 30/73/73 48/65/65
f 48/65/65 30/73/73 42/58/58
f 30/73/73 36/74/74 42/58/58
f 1/75/75 2/43/43 3/76/76
f 4/77/77 5/79/79 6/78/78
f 5/79/79 7/9/9 6/78/78
f 6/78/78 7/9/9 8/57/57
f 8/8/8 7/7/7 2/43/43
f 7/7/7 9/80/80 2/43/43
f 2/43/43 9/80/80 3/76/76
f 9/80/80 10/81/81 3/76/76
f 3/76/76 10/81/81 11/82/82
f 11/83/83 10/85/85 12/84/84
f 12/84/84 10/85/85 13/86/86
f 9/80/80 7/7/7 10/81/81
f 7/7/7 14/19/19 10/81/81
f 10/81/81 14/19/19 13/86/86
f 13/86/86 14/19/19 15/87/87
f 15/17/17 14/89/89 16/88/88
f 14/89/89 17/90/90 16/88/88
f 17/90/90 18/91/91 16/88/88
f 16/88/88 18/93/93 19/92/92
f 7/9/9 5/79/79 14/89/89
f 14/89/89 5/79/79 17/90/90
f 5/79/79 20/94/94 17/90/90
f 17/90/90 20/94/94 18/93/93
f 20/94/94 21/95/95 18/91/91
f 18/91/91 21/95/95 19/96/96
f 19/96/96 21/95/95 22/97/97
f 21/95/95 23/98/98 22/97/97
f 22/97/97 23/98/98 24/99/99
f 24/99/99 23/98/98 12/100/100
f 25/101/101 23/98/98 26/102/102
f 23/98/98 21/95/95 26/102/102
f 21/95/95 20/94/94 26/102/102
f 12/100/100 23/98/98 11/103/103
f 23/98/98 25/101/101 11/103/103
f 11/103/103 25/101/101 3/104/104
f 3/104/104 25/101/101 1/105/105
f 1/105/105 25/38/38 27/37/37
f 27/106/106 25/101/101 28/107/107
f 25/101/101 26/102/102 28/107/107
f 28/108/108 26/102/102 4/77/77
f 26/102/102 20/94/94 4/77/77
f 20/94/94 5/79/79 4/77/77
f 6/78/78 29/109/109 4/77/77
f 29/109/109 28/108/108 4/77/77
f 1/110/110 30/112/112 2/111/111
f 30/112/112 31/113/113 2/111/111
f 2/111/111 31/113/113 32/55/55
f 31/113/113 33/114/114 32/55/55
f 33/114/114 34/116/116 32/115/115
f 32/55/55 34/116/116 35/117/117
f 31/113/113 30/112/112 33/114/114
f 33/114/114 30/112/112 36/118/118
f 37/119/119 38/121/121 39/120/120
f 38/121/121 40/53/53 39/120/120
f 39/120/120 40/53/53 35/117/117
f 35/117/117 40/53/53 32/55/55
f 40/52/52 41/56/56 32/115/115
f 32/55/55 41/54/54 2/111/111
f 41/54/54 8/8/8 2/111/111
f 42/122/122 43/123/123 37/119/119
f 37/119/119 43/123/123 38/121/121
f 43/123/123 44/124/124 38/121/121
f 38/121/121 44/124/124 40/53/53
f 44/124/124 45/62/62 40/53/53
f 40/53/53 45/62/62 41/54/54
f 45/61/61 46/125/125 41/56/56
f 41/56/56 46/125/125 8/126/126
f 8/57/57 46/125/125 6/78/78
f 46/125/125 47/127/127 6/78/78
f 42/122/122 48/128/128 43/123/123
f 48/128/128 49/71/71 43/123/123
f 43/123/123 49/71/71 50/69/69
f 49/129/129 51/130/130 50/67/67
f 50/67/67 51/130/130 52/131/131
f 51/130/130 47/127/127 52/131/131
f 47/127/127 46/125/125 52/131/131
f 46/125/125 45/61/61 52/131/131
f 45/132/132 44/124/124 52/131/131
f 52/131/131 44/124/124 50/133/133
f 44/124/124 43/123/123 50/69/69
f 6/78/78 47/127/127 29/109/109
f 29/109/109 47/127/127 28/108/108
f 47/127/127 51/130/130 28/108/108
f 28/108/108 51/130/130 27/134/134
f 51/130/130 49/66/66 27/134/134
f 27/135/135 49/71/71 1/105/105
f 49/71/71 48/128/128 1/105/105
f 1/136/136 48/128/128 30/137/137
f 48/128/128 42/122/122 30/137/137
f 30/137/137 42/122/122 36/138/138
f 53/139/139 55/141/141 54/140/140
f 56/142/142 57/143/143 53/139/139
f 53/139/139 57/143/143 55/141/141
f 55/144/144 58/146/146 54/145/145
f 54/145/145 58/146/146 59/147/147
f 58/146/146 60/148/148 59/147/147
f 59/147/147 60/148/148 61/149/149
f 60/148/148 62/150/150 61/149/149
f 61/149/149 62/150/150 63/151/151
f 62/150/150 64/152/152 63/151/151
f 63/151/151 64/152/152 65/153/153
f 65/153/153 64/152/152 66/154/154
f 64/152/152 56/142/142 66/154/154
f 66/155/155 56/142/142 53/139/139
f 67/156/156 69/158/158 68/157/157
f 70/159/159 67/156/156 71/160/160
f 67/156/156 68/157/157 71/160/160
f 71/160/160 68/157/157 72/161/161
f 68/157/157 73/162/162 72/161/161
f 72/161/161 73/162/162 74/163/163
f 73/162/162 75/164/164 74/163/163
f 76/165/165 78/167/167 77/166/166
f 78/167/167 79/168/168 77/166/166
f 77/166/166 79/168/168 80/169/169
f 79/168/168 81/170/170 80/169/169
f 80/169/169 81/170/170 82/171/171
f 81/170/170 70/159/159 82/171/171
f 82/171/171 70/159/159 83/172/172
f 70/159/159 71/160/160 83/172/172
f 71/160/160 72/161/161 83/172/172
f 83/172/172 72/161/161 84/173/173
f 72/161/161 74/163/163 84/173/173
f 85/174/174 83/172/172 84/173/173
f 83/172/172 85/174/174 82/171/171
f 82/171/171 85/174/174 80/169/169
f 85/174/174 86/175/175 80/169/169
f 86/175/175 87/176/176 80/169/169
f 80/169/169 87/176/176 77/166/166
f 87/176/176 88/177/177 77/166/166
f 77/166/166 88/177/177 76/165/165
f 88/177/177 73/178/178 76/165/165
f 73/178/178 68/179/179 76/165/165
f 68/179/179 69/180/180 76/165/165
f 75/181/181 73/178/178 89/182/182
f 73/178/178 88/177/177 89/182/182
f 89/182/182 88/177/177 87/176/176
f 69/180/180 90/183/183 76/165/165
f 76/165/165 90/183/183 78/167/167
f 90/184/184 91/185/185 78/167/167
f 78/167/167 91/185/185 79/168/168
f 91/185/185 92/186/186 79/168/168
f 79/168/168 92/186/186 81/170/170
f 92/186/186 93/187/187 81/170/170
f 93/187/187 94/188/188 81/170/170
f 81/170/170 94/188/188 70/159/159
f 94/189/189 67/156/156 70/159/159
f 67/190/190 68/192/192 69/191/191
f 70/193/193 71/194/194 67/190/190
f 67/190/190 71/194/194 68/192/192
f 71/194/194 72/195/195 68/192/192
f 68/192/192 72/195/195 73/196/196
f 72/195/195 74/197/197 73/196/196
f 73/196/196 74/197/197 75/198/198
f 76/199/199 77/201/201 78/200/200
f 78/200/200 77/201/201 79/202/202
f 77/201/201 80/203/203 79/202/202
f 79/202/202 80/203/203 81/204/204
f 80/203/203 82/205/205 81/204/204
f 81/204/204 82/205/205 70/193/193
f 82/205/205 83/206/206 70/193/193
f 70/193/193 83/207/207 71/194/194
f 71/194/194 83/207/207 72/195/195
f 83/207/207 84/208/208 72/195/195
f 72/195/195 84/208/208 74/197/197
f 85/209/209 84/210/210 83/206/206
f 83/206/206 82/205/205 85/209/209
f 82/205/205 80/203/203 85/209/209
f 85/209/209 80/203/203 86/211/211
f 86/211/211 80/203/203 87/212/212
f 80/203/203 77/201/201 87/212/212
f 87/212/212 77/214/214 88/213/213
f 77/201/201 76/199/199 88/213/213
f 88/213/213 76/216/216 73/215/215
f 73/215/215 76/216/216 68/217/217
f 68/217/217 76/216/216 69/218/218
f 75/219/219 89/220/220 73/215/215
f 73/215/215 89/220/220 88/213/213
f 89/220/220 87/212/212 88/213/213
f 69/218/218 76/216/216 90/184/184
f 76/216/216 78/200/200 90/221/221
f 90/221/221 78/200/200 91/222/222
f 78/200/200 79/202/202 91/222/222
f 91/222/222 79/202/202 92/223/223
f 79/202/202 81/204/204 92/223/223
f 92/223/223 81/204/204 93/224/224
f 93/224/224 81/204/204 94/189/189
f 81/204/204 70/193/193 94/225/225
f 94/188/188 70/193/193 67/190/190
f 95/226/226 97/228/228 96/227/227
f 98/229/229 100/231/231 99/230/230
f 99/230/230 100/231/231 101/232/232
f 100/231/231 102/233/233 101/232/232
f 102/233/233 96/227/227 101/234/234
f 101/234/234 96/227/227 103/235/235
f 96/227/227 97/228/228 103/235/235
f 103/235/235 97/228/228 104/236/236
f 97/228/228 105/237/237 104/236/236
f 105/237/237 106/238/238 104/236/236
f 106/238/238 107/239/239 104/236/236
f 103/235/235 104/236/236 101/234/234
f 101/234/234 104/236/236 108/240/240
f 104/236/236 107/239/239 108/240/240
f 107/239/239 109/241/241 108/240/240
f 109/241/241 110/242/242 108/240/240
f 108/243/243 110/242/242 111/244/244
f 111/244/244 110/242/242 112/245/245
f 110/242/242 113/246/246 112/245/245
f 101/232/232 108/243/243 99/230/230
f 108/243/243 111/244/244 99/230/230
f 99/230/230 111/244/244 114/247/247
f 111/244/244 112/245/245 114/247/247
f 114/247/247 112/245/245 115/248/248
f 112/245/245 113/246/246 115/248/248
f 113/246/246 116/249/249 115/248/248
f 115/248/248 116/249/249 117/250/250
f 116/249/249 118/251/251 117/250/250
f 118/252/252 106/254/254 117/253/253
f 119/255/255 120/256/256 117/250/250
f 117/250/250 120/256/256 115/248/248
f 115/248/248 120/256/256 114/247/247
f 106/254/254 105/257/257 117/253/253
f 117/253/253 105/257/257 119/258/258
f 105/257/257 97/259/259 119/258/258
f 97/259/259 95/260/260 119/258/258
f 95/260/260 121/261/261 119/258/258
f 121/262/262 122/263/263 119/255/255
f 119/255/255 122/263/263 120/256/256
f 122/263/263 98/229/229 120/256/256
f 120/256/256 98/229/229 114/247/247
f 114/247/247 98/229/229 99/230/230
f 100/231/231 98/229/229 123/264/264
f 123/264/264 98/229/229 122/263/263
f 95/226/226 96/227/227 124/265/265
f 124/265/265 96/227/227 125/266/266
f 96/267/267 126/268/268 125/266/266
f 125/266/266 126/268/268 127/269/269
f 127/270/270 126/268/268 128/271/271
f 126/268/268 129/272/272 128/271/271
f 125/266/266 127/270/270 124/265/265
f 127/270/270 130/273/273 124/265/265
f 131/274/274 133/276/276 132/275/275
f 132/275/275 133/276/276 134/277/277
f 133/276/276 129/272/272 134/277/277
f 129/272/272 126/268/268 134/277/277
f 134/278/278 126/280/280 135/279/279
f 126/268/268 96/227/227 135/281/281
f 135/281/281 96/227/227 102/233/233
f 136/282/282 131/274/274 137/283/283
f 131/274/274 132/275/275 137/283/283
f 137/283/283 132/275/275 138/284/284
f 132/275/275 134/285/285 138/284/284
f 138/284/284 134/277/277 139/286/286
f 134/277/277 135/281/281 139/286/286
f 139/286/286 135/279/279 140/287/287
f 135/279/279 102/233/233 140/287/287
f 102/233/233 100/231/231 140/287/287
f 140/287/287 100/231/231 141/288/288
f 136/282/282 137/283/283 142/289/289
f 142/289/289 137/283/283 143/290/290
f 137/283/283 144/291/291 143/290/290
f 143/290/290 144/291/291 145/292/292
f 144/291/291 146/293/293 145/292/292
f 145/292/292 146/293/293 141/288/288
f 141/288/288 146/293/293 140/287/287
f 140/287/287 146/293/293 139/294/294
f 139/294/294 146/293/293 138/284/284
f 146/293/293 144/291/291 138/284/284
f 138/284/284 144/291/291 137/283/283
f 100/231/231 123/264/264 141/288/288
f 123/264/264 122/263/263 141/288/288
f 141/288/288 122/263/263 145/292/292
f 122/263/263 121/262/262 145/292/292
f 145/292/292 121/262/262 143/290/290
f 121/262/262 95/260/260 143/290/290
f 143/290/290 95/260/260 142/289/289
f 95/295/295 124/296/296 142/289/289
f 142/289/289 124/296/296 136/282/282
f 124/296/296 130/297/297 136/282/282
f 95/298/298 96/300/300 97/299/299
f 98/301/301 99/303/303 100/302/302
f 99/303/303 101/234/234 100/302/302
f 100/302/302 101/305/305 102/304/304
f 102/304/304 101/232/232 96/300/300
f 101/232/232 103/306/306 96/300/300
f 96/300/300 103/306/306 97/299/299
f 103/306/306 104/307/307 97/299/299
f 97/299/299 104/307/307 105/308/308
f 105/308/308 104/307/307 106/309/309
f 106/309/309 104/307/307 107/310/310
f 103/306/306 101/232/232 104/307/307
f 101/232/232 108/243/243 104/307/307
f 104/307/307 108/243/243 107/310/310
f 107/310/310 108/243/243 109/311/311
f 109/311/311 108/313/313 110/312/312
f 108/240/240 111/314/314 110/312/312
f 111/314/314 112/315/315 110/312/312
f 110/312/312 112/315/315 113/316/316
f 101/234/234 99/303/303 108/240/240
f 108/240/240 99/303/303 111/314/314
f 99/303/303 114/317/317 111/314/314
f 111/314/314 114/317/317 112/315/315
f 114/317/317 115/318/318 112/315/315
f 112/315/315 115/318/318 113/316/316
f 113/316/316 115/318/318 116/319/319
f 115/318/318 117/253/253 116/319/319
f 116/319/319 117/253/253 118/252/252
f 118/251/251 117/250/250 106/320/320
f 119/258/258 117/253/253 120/321/321
f 117/253/253 115/318/318 120/321/321
f 115/318/318 114/317/317 120/321/321
f 106/320/320 117/250/250 105/322/322
f 117/250/250 119/255/255 105/322/322
f 105/322/322 119/255/255 97/323/323
f 97/323/323 119/255/255 95/324/324
f 95/324/324 119/255/255 121/262/262
f 121/261/261 119/326/326 122/325/325
f 119/258/258 120/321/321 122/325/325
f 122/325/325 120/321/321 98/301/301
f 120/321/321 114/317/317 98/301/301
f 114/317/317 99/303/303 98/301/301
f 100/302/302 123/327/327 98/301/301
f 123/327/327 122/325/325 98/301/301
f 95/298/298 124/328/328 96/300/300
f 124/328/328 125/329/329 96/300/300
f 96/330/330 125/329/329 126/280/280
f 125/329/329 127/270/270 126/280/280
f 127/269/269 128/332/332 126/331/331
f 126/280/280 128/334/334 129/333/333
f 125/329/329 124/328/328 127/335/335
f 127/335/335 124/328/328 130/336/336
f 131/337/337 132/339/339 133/338/338
f 132/339/339 134/278/278 133/338/338
f 133/338/338 134/278/278 129/333/333
f 129/333/333 134/278/278 126/280/280
f 134/277/277 135/281/281 126/331/331
f 126/280/280 135/279/279 96/330/330
f 135/279/279 102/340/340 96/330/330
f 136/341/341 137/342/342 131/337/337
f 131/337/337 137/342/342 132/339/339
f 137/342/342 138/343/343 132/339/339
f 132/339/339 138/343/343 134/278/278
f 138/343/343 139/294/294 134/278/278
f 134/278/278 139/344/344 135/279/279
f 139/344/344 140/346/346 135/345/345
f 135/345/345 140/346/346 102/304/304
f 102/304/304 140/346/346 100/302/302
f 140/346/346 141/347/347 100/302/302
f 136/341/341 142/348/348 137/342/342
f 142/348/348 143/349/349 137/342/342
f 137/342/342 143/349/349 144/350/350
f 143/349/349 145/351/351 144/350/350
f 144/350/350 145/351/351 146/352/352
f 145/351/351 141/347/347 146/352/352
f 141/347/347 140/346/346 146/352/352
f 140/346/346 139/344/344 146/352/352
f 139/344/344 138/343/343 146/352/352
f 146/352/352 138/343/343 144/350/350
f 138/343/343 137/342/342 144/350/350
f 100/302/302 141/347/347 123/327/327
f 123/327/327 141/347/347 122/325/325
f 141/347/347 145/351/351 122/325/325
f 122/325/325 145/351/351 121/353/353
f 145/351/351 143/349/349 121/353/353
f 121/354/354 143/349/349 95/324/324
f 143/349/349 142/348/348 95/324/324
f 95/355/355 142/348/348 124/356/356
f 142/348/348 136/341/341 124/356/356
f 124/356/356 136/341/341 130/357/357
