#
# Exported by OpenBRF -- marco tarini
#
s dragon_spear.1
newmtl dragoon_spear_neck_1
Ka 0.8 0.8 0.8
Kd 0.2 0.2 0.2
usemtl dragoon_spear_neck_1
v 9.82575e-05 0.0178534 1.94933
v -0.00304598 0.0178534 1.94893
v -0.00176864 0.0178534 1.96362
v 9.82575e-05 0.0178534 1.96888
v 9.82575e-05 0.0178534 1.92966
v -0.00157212 0.0178534 1.9364
v -0.00353727 0.0178534 1.91267
v -0.00628848 0.0178534 1.92009
v 9.82575e-05 0.0178534 1.91119
v -0.0135595 0.0178534 1.93559
v -0.00707454 0.0178534 1.95109
v -0.0196515 0.0149262 1.93828
v -0.0185707 0.0149262 1.96227
v -0.0309511 0.0138003 1.95985
v -0.02594 0.0138003 1.931
v -0.0300668 0.0119989 1.92736
v -0.0377309 0.0119989 1.94987
v -0.0422507 0.0088465 1.93572
v -0.0342919 0.0088465 1.92386
v -0.0445107 0.00591925 1.9213
v -0.0499148 0.00366751 1.92359
v -0.00176864 -0.0202009 1.96362
v 9.82573e-05 -0.0202009 1.96888
v -0.00304598 -0.0202009 1.94893
v -0.00157212 -0.0202009 1.9364
v 9.82573e-05 -0.0202009 1.91119
v -0.00353727 -0.0202009 1.91267
v -0.0185707 -0.0172736 1.96227
v -0.00707454 -0.0202009 1.95109
v -0.0309511 -0.0161478 1.95985
v -0.0196515 -0.0172736 1.93828
v -0.02594 -0.0161478 1.931
v -0.0422507 -0.0111939 1.93572
v -0.0377309 -0.0143464 1.94987
v -0.0300668 -0.0143464 1.92736
v -0.0499148 -0.00601495 1.92359
v -0.0342919 -0.0111939 1.92386
v -0.0445107 -0.00826668 1.9213
v 9.82573e-05 -0.0202009 1.94933
v 9.82573e-05 -0.0202009 1.92966
v -0.00628848 -0.0202009 1.92009
v -0.0135595 -0.0202009 1.93559
v 0.00196515 0.0178534 1.96362
v 0.0032425 0.0178534 1.94893
v 0.00176864 0.0178534 1.9364
v 0.006485 0.0178534 1.92009
v 0.00373379 0.0178534 1.91267
v 0.00727106 0.0178534 1.95109
v 0.0137561 0.0178534 1.93559
v 0.0187672 0.0149262 1.96227
v 0.019848 0.0149262 1.93828
v 0.0311476 0.0138003 1.95985
v 0.0261365 0.0138003 1.931
v 0.0379274 0.0119989 1.94987
v 0.0303616 0.0119989 1.92736
v 0.0424473 0.0088465 1.93572
v 0.0502096 0.00366751 1.92359
v 0.0447072 0.00591924 1.9213
v 0.0344884 0.0088465 1.92386
v 0.00196515 -0.0202009 1.96362
v 0.0032425 -0.0202009 1.94893
v 0.00176864 -0.0202009 1.9364
v 0.00373379 -0.0202009 1.91267
v 0.00727106 -0.0202009 1.95109
v 0.0187672 -0.0172736 1.96227
v 0.0311476 -0.0161478 1.95985
v 0.0261365 -0.0161478 1.931
v 0.019848 -0.0172736 1.93828
v 0.0379274 -0.0143464 1.94987
v 0.0424473 -0.0111939 1.93572
v 0.0303616 -0.0143464 1.92736
v 0.0502096 -0.00601495 1.92359
v 0.0447072 -0.00826669 1.9213
v 0.0344884 -0.0111939 1.92386
v 0.006485 -0.0202009 1.92009
v 0.0137561 -0.0202009 1.93559
v 9.82575e-05 0.0171779 1.88032
v -0.0114961 0.0171779 1.88329
v -0.0097275 0.0171779 1.89138
v 9.82575e-05 0.0171779 1.88828
v -0.0202411 0.0149262 1.89097
v -0.0174898 0.0149262 1.89919
v -0.0264313 0.0115486 1.90526
v -0.0226975 0.0115486 1.91119
v -0.0343901 0.00681994 1.91321
v -0.0353727 0.00681994 1.92426
v -0.0097275 -0.0193002 1.89138
v 9.82574e-05 -0.0193002 1.88828
v 9.82575e-05 -0.00106113 1.87817
v -0.0123804 -0.00106113 1.88113
v -0.0211254 -0.00106113 1.88882
v -0.0272173 -0.00106113 1.9031
v -0.0355692 -0.00106113 1.91321
v -0.0365518 -0.00106113 1.92426
v 9.82574e-05 -0.0193002 1.88032
v -0.0114961 -0.0193002 1.88329
v -0.0174898 -0.0172736 1.89919
v -0.0202411 -0.0172736 1.89097
v -0.0264313 -0.013896 1.90526
v -0.0226975 -0.013896 1.91119
v -0.0353727 -0.00916738 1.92426
v -0.0343901 -0.00916738 1.91321
v 0.0100223 0.0171779 1.89138
v 0.0116926 0.0171779 1.88329
v 0.0176864 0.0149262 1.89919
v 0.0205358 0.0149262 1.89097
v 0.0266278 0.0115486 1.90526
v 0.0229923 0.0115486 1.91119
v 0.0355692 0.00681994 1.92426
v 0.0345866 0.00681994 1.91321
v 0.0100223 -0.0193002 1.89138
v 0.012577 -0.00106113 1.88113
v 0.0213219 -0.00106113 1.88882
v 0.0275121 -0.00106113 1.9031
v 0.0357657 -0.00106113 1.91321
v 0.0367483 -0.00106113 1.92426
v 0.0116926 -0.0193002 1.88329
v 0.0205358 -0.0172736 1.89097
v 0.0176864 -0.0172736 1.89919
v 0.0266278 -0.013896 1.90526
v 0.0229923 -0.013896 1.91119
v 0.0345866 -0.00916738 1.91321
v 0.0355692 -0.00916738 1.92426
v -0.0349797 0.00456821 1.92359
v -0.0254487 0.0122241 1.93613
v -0.0281017 0.00727029 1.91348
v -0.019062 0.0117738 1.94152
v -0.0224027 0.0101975 1.90324
v -0.00727106 0.0153765 1.93033
v -0.0134613 0.01335 1.89205
v 9.82577e-05 0.0149262 1.9124
v 9.82577e-05 0.0142507 1.8872
v 0.0351762 0.0045682 1.92359
v 0.0282982 0.00727029 1.91348
v 0.0256452 0.0122241 1.93613
v 0.0225992 0.0101975 1.90324
v 0.0192585 0.0117738 1.94152
v 0.0136578 0.01335 1.89205
v 0.00746757 0.0153765 1.93033
v 0.0349797 -0.0045682 1.92359
v 0.0254487 -0.0122241 1.93613
v 0.0281017 -0.00727029 1.91348
v 0.019062 -0.0117738 1.94152
v 0.0224027 -0.0101975 1.90324
v 0.00727106 -0.0153765 1.93033
v 0.0134613 -0.01335 1.89205
v -9.82564e-05 -0.0149262 1.9124
v -9.82564e-05 -0.0142507 1.8872
v -0.0351762 -0.00456821 1.92359
v -0.0282982 -0.00727029 1.91348
v -0.0256452 -0.0122241 1.93613
v -0.0225992 -0.0101975 1.90324
v -0.0192585 -0.0117738 1.94152
v -0.0136578 -0.01335 1.89205
v -0.00746757 -0.0153765 1.93033
v 0.00868945 0.0181969 1.88039
v 0.00809559 0.0168311 1.88325
v 0.0185049 0.00605176 1.88325
v 0.0198907 0.00659763 1.88039
v 0.00666184 0.0135337 1.88444
v 0.0151596 0.00473418 1.88444
v 0.00522808 0.0102363 1.88325
v 0.0118142 0.00341639 1.88325
v 0.00463423 0.00887053 1.88039
v 0.0104285 0.00287052 1.88039
v 0.00522808 0.0102363 1.87752
v 0.0118142 0.00341639 1.87752
v 0.00666184 0.0135337 1.87633
v 0.0151596 0.00473418 1.87633
v 0.00809559 0.0168311 1.87752
v 0.0185049 0.00605176 1.87752
v 0.0182434 -0.00893062 1.88325
v 0.0196092 -0.00952448 1.88039
v 0.014946 -0.00749687 1.88444
v 0.0116488 -0.0060632 1.88325
v 0.010283 -0.00546934 1.88039
v 0.0116488 -0.0060632 1.87752
v 0.014946 -0.00749687 1.87633
v 0.0182434 -0.00893062 1.87752
v 0.00746426 -0.01934 1.88325
v 0.00801013 -0.0207258 1.88039
v 0.00614647 -0.0159946 1.88444
v 0.00482868 -0.0126493 1.88325
v 0.00428282 -0.0112635 1.88039
v 0.00482868 -0.0126493 1.87752
v 0.00614647 -0.0159946 1.87633
v 0.00746426 -0.01934 1.87752
v -0.00751833 -0.0190784 1.88325
v -0.00811219 -0.0204442 1.88039
v -0.00608466 -0.0157812 1.88444
v -0.00465091 -0.0124838 1.88325
v -0.00405705 -0.0111181 1.88039
v -0.00465091 -0.0124838 1.87752
v -0.00608466 -0.0157812 1.87633
v -0.00751833 -0.0190784 1.87752
v -0.0179277 -0.00829929 1.88325
v -0.0193133 -0.00884524 1.88039
v -0.0145824 -0.0069815 1.88444
v -0.011237 -0.00566371 1.88325
v -0.00985119 -0.00511784 1.88039
v -0.011237 -0.00566371 1.87752
v -0.0145824 -0.0069815 1.87633
v -0.0179277 -0.00829929 1.87752
v -0.0176661 0.0066833 1.88325
v -0.0190319 0.00727716 1.88039
v -0.0143687 0.00524955 1.88444
v -0.0110715 0.00381588 1.88325
v -0.00970556 0.00322194 1.88039
v -0.0110715 0.00381588 1.87752
v -0.0143687 0.00524955 1.87633
v -0.0176661 0.0066833 1.87752
v -0.00688708 0.0170925 1.88325
v -0.00743274 0.0184782 1.88039
v -0.0055692 0.0137473 1.88444
v -0.00425142 0.0104019 1.88325
v -0.00370555 0.00901616 1.88039
v -0.00425142 0.0104019 1.87752
v -0.0055692 0.0137473 1.87633
v -0.00688708 0.0170925 1.87752
v -0.00214461 0.00843624 1.9261
v 0.00264865 0.00843624 1.9261
v 0.00679973 0.00603962 1.9261
v 0.00919635 0.00188854 1.9261
v 0.00919636 -0.00290472 1.9261
v 0.00679973 -0.0070558 1.9261
v 0.00264864 -0.00945243 1.9261
v -0.00214461 -0.00945243 1.9261
v -0.00629569 -0.0070558 1.9261
v -0.00869232 -0.00290472 1.9261
v -0.00869232 0.00188854 1.9261
v -0.00629569 0.00603962 1.9261
v -0.00208616 0.00821809 1.64212
v 0.00259019 0.00821809 1.64212
v 0.00664003 0.00587992 1.64212
v 0.0089782 0.00183008 1.64212
v 0.0089782 -0.00284626 1.64212
v 0.00664003 -0.0068961 1.64212
v 0.00259019 -0.00923427 1.64212
v -0.00208616 -0.00923427 1.64212
v -0.00613599 -0.0068961 1.64212
v -0.00847416 -0.00284626 1.64212
v -0.00847417 0.00183008 1.64212
v -0.00613599 0.00587992 1.64212
v -0.00220847 0.00867457 1.83143
v -0.00218899 0.00860186 1.73677
v 0.0027125 0.00867457 1.83143
v 0.00269302 0.00860186 1.73677
v 0.00697419 0.00621409 1.83143
v 0.00692096 0.00616085 1.73677
v 0.00943468 0.0019524 1.83143
v 0.00936196 0.00193291 1.73677
v 0.00943468 -0.00296858 1.83143
v 0.00936196 -0.00294909 1.73677
v 0.00697419 -0.00723027 1.83143
v 0.00692096 -0.00717703 1.73677
v 0.0027125 -0.00969075 1.83143
v 0.00269302 -0.00961804 1.73677
v -0.00220847 -0.00969076 1.83143
v -0.00218899 -0.00961804 1.73677
v -0.00647016 -0.00723027 1.83143
v -0.00641692 -0.00717703 1.73677
v -0.00893065 -0.00296858 1.83143
v -0.00885793 -0.00294909 1.73677
v -0.00893064 0.0019524 1.83143
v -0.00885793 0.00193291 1.73677
v -0.00647016 0.00621409 1.83143
v -0.00641693 0.00616085 1.73677
v 0.00972884 0.0199782 1.86462
v 0.00908614 0.0185001 1.87417
v 0.0203517 0.00683415 1.87417
v 0.0218514 0.00742492 1.86462
v 0.00753446 0.0149315 1.87813
v 0.0167312 0.0054082 1.87813
v 0.00598278 0.0113629 1.87417
v 0.0131106 0.00398202 1.87417
v 0.00534008 0.00988477 1.86462
v 0.0116109 0.00339126 1.86462
v 0.00598278 0.0113629 1.85506
v 0.0131106 0.00398202 1.85506
v 0.00753446 0.0149315 1.8511
v 0.0167312 0.0054082 1.8511
v 0.00908614 0.0185001 1.85506
v 0.0203517 0.00683415 1.85506
v 0.0200686 -0.00938055 1.87417
v 0.0215467 -0.0100232 1.86462
v 0.0165 -0.00782886 1.87813
v 0.0129316 -0.00627727 1.87417
v 0.0114535 -0.00563457 1.86462
v 0.0129316 -0.00627727 1.85506
v 0.0165 -0.00782886 1.8511
v 0.0200686 -0.00938055 1.85506
v 0.00840287 -0.0206462 1.87417
v 0.00899364 -0.0221459 1.86462
v 0.0069767 -0.0170256 1.87813
v 0.00555052 -0.013405 1.87417
v 0.00495976 -0.0119053 1.86462
v 0.00555052 -0.013405 1.85506
v 0.0069767 -0.0170256 1.8511
v 0.00840287 -0.0206462 1.85506
v -0.00781204 -0.020363 1.87417
v -0.00845475 -0.0218411 1.86462
v -0.00626046 -0.0167946 1.87813
v -0.00470878 -0.013226 1.87417
v -0.00406607 -0.0117479 1.86462
v -0.00470878 -0.013226 1.85506
v -0.00626046 -0.0167946 1.8511
v -0.00781204 -0.020363 1.85506
v -0.0190776 -0.00869728 1.87417
v -0.0205772 -0.00928814 1.86462
v -0.0154571 -0.0072711 1.87813
v -0.0118365 -0.00584493 1.87417
v -0.0103368 -0.00525416 1.86462
v -0.0118365 -0.00584493 1.85506
v -0.0154571 -0.0072711 1.8511
v -0.0190776 -0.00869728 1.85506
v -0.0187945 0.00751764 1.87417
v -0.0202726 0.00816034 1.86462
v -0.0152259 0.00596596 1.87813
v -0.0116575 0.00441437 1.87417
v -0.0101792 0.00377158 1.86462
v -0.0116575 0.00441437 1.85506
v -0.0152259 0.00596596 1.8511
v -0.0187945 0.00751764 1.85506
v -0.00712887 0.018783 1.87417
v -0.00771942 0.0202827 1.86462
v -0.0057026 0.0151627 1.87813
v -0.00427643 0.0115421 1.87417
v -0.00368566 0.0100424 1.86462
v -0.00427642 0.0115421 1.85506
v -0.0057026 0.0151627 1.8511
v -0.00712887 0.018783 1.85506
v -0.0166834 -0.0162581 1.787
v -0.000289791 -0.022859 1.787
v -0.000289791 -0.022859 1.77326
v -0.0166834 -0.0162581 1.77326
v 0.0161038 -0.0165675 1.787
v 0.0161038 -0.0165675 1.77326
v 0.0230521 -0.00078732 1.787
v 0.0230521 -0.00078732 1.77326
v -0.023306 -0.00078732 1.787
v -0.023306 -0.00078732 1.77326
v -0.0166834 0.0146835 1.787
v -0.0166834 0.0146835 1.77326
v -0.000289791 0.0212844 1.77326
v -0.000289791 0.0212844 1.787
v 0.0161038 0.0149929 1.77326
v 0.0161038 0.0149929 1.787
v -0.0133178 -0.0130608 1.76686
v -0.000289791 -0.0183209 1.76686
v -0.000289791 -0.0183209 1.76168
v -0.0133178 -0.0130608 1.76168
v 0.0128468 -0.0132671 1.76686
v 0.0128468 -0.0132671 1.76168
v 0.0183837 -0.00078732 1.76686
v 0.0183837 -0.00078732 1.76168
v -0.0186376 -0.00078732 1.76686
v -0.0186376 -0.00078732 1.76168
v -0.0133178 0.0114862 1.76686
v -0.0133178 0.0114862 1.76168
v -0.000289791 0.0167463 1.76168
v -0.000289791 0.0167463 1.76686
v 0.0128468 0.0116925 1.76168
v 0.0128468 0.0116925 1.76686
v -0.0173348 -0.0178052 1.61126
v -0.000398358 -0.025128 1.61126
v -0.000398358 -0.025128 1.60633
v -0.0173348 -0.0178052 1.60633
v 0.0167552 -0.0181146 1.61126
v 0.0167552 -0.0181146 1.60633
v 0.0239206 -0.00078732 1.61126
v 0.0239206 -0.00078732 1.60633
v -0.0241745 -0.00078732 1.61126
v -0.0241745 -0.00078732 1.60633
v -0.0173348 0.0162306 1.61126
v -0.0173348 0.0162306 1.60633
v -0.000398358 0.0235534 1.60633
v -0.000398358 0.0235534 1.61126
v 0.0167552 0.01654 1.60633
v 0.0167552 0.01654 1.61126
v -0.0133178 -0.0130608 1.79823
v -0.000289791 -0.0183209 1.79823
v -0.000289791 -0.0183209 1.79304
v -0.0133178 -0.0130608 1.79304
v 0.0128468 -0.0132671 1.79823
v 0.0128468 -0.0132671 1.79157
v 0.0183837 -0.00078732 1.79823
v 0.0183837 -0.00078732 1.79157
v -0.0186376 -0.00078732 1.79823
v -0.0186376 -0.00078732 1.79304
v -0.0133178 0.0114862 1.79823
v -0.0133178 0.0114862 1.79304
v -0.000289791 0.0167463 1.79304
v -0.000289791 0.0167463 1.79823
v 0.0128468 0.0116925 1.79157
v 0.0128468 0.0116925 1.79823
v 0.014176 -0.0141073 1.83769
v 0.0120331 -0.0167269 1.83574
v 0.0214334 -0.0213647 1.83495
v 0.0119807 -0.0178508 1.83133
v 0.0140582 -0.0166325 1.82781
v 0.0167012 -0.0139895 1.82781
v 0.0179195 -0.011912 1.83133
v 0.0167956 -0.0119644 1.83574
v 0.0201743 4.85817e-05 1.81573
v 0.0210041 -0.00331901 1.81888
v 0.0215053 4.85818e-05 1.82079
v 0.019878 -0.00415073 1.8146
v 0.018975 -0.00182029 1.81117
v 0.018975 0.00191746 1.81117
v 0.019878 0.0042479 1.8146
v 0.0210041 0.00341617 1.81888
v 0.0215053 4.85818e-05 1.82079
v 0.0210041 -0.00331901 1.81888
v 0.0292828 4.85796e-05 1.81207
v 0.019878 -0.00415073 1.8146
v 0.018975 -0.00182029 1.81117
v 0.018975 0.00191746 1.81117
v 0.019878 0.0042479 1.8146
v 0.0210041 0.00341617 1.81888
v 0.0208948 4.85816e-05 1.83249
v 0.0203364 -0.00331901 1.83574
v 0.0199992 4.85818e-05 1.83769
v 0.0210941 -0.00415073 1.83133
v 0.0217016 -0.00182029 1.82781
v 0.0217016 0.00191746 1.82781
v 0.0210941 0.00424789 1.83133
v 0.0203364 0.00341617 1.83574
v 0.0199992 4.85818e-05 1.83769
v 0.0203364 -0.00331901 1.83574
v 0.0302628 4.85795e-05 1.83495
v 0.0210941 -0.00415073 1.83133
v 0.0217016 -0.00182029 1.82781
v 0.0217016 0.00191746 1.82781
v 0.0210941 0.00424789 1.83133
v 0.0203364 0.00341617 1.83574
v 0.014231 0.0142997 1.81573
v 0.017199 0.0125053 1.81888
v 0.0151722 0.0152409 1.82079
v 0.0169909 0.0111209 1.8146
v 0.0147045 0.0121302 1.81117
v 0.0120615 0.0147732 1.81117
v 0.0110522 0.0170596 1.8146
v 0.0124366 0.0172678 1.81888
v 0.0151722 0.0152409 1.82079
v 0.017199 0.0125053 1.81888
v 0.0206717 0.0207404 1.81207
v 0.0169909 0.0111209 1.8146
v 0.0147045 0.0121302 1.81117
v 0.0120615 0.0147732 1.81117
v 0.0110522 0.0170596 1.8146
v 0.0124366 0.0172678 1.81888
v 0.0147405 0.0148092 1.83249
v 0.0167269 0.0120331 1.83574
v 0.0141073 0.014176 1.83769
v 0.0178508 0.0119807 1.83133
v 0.0166325 0.0140582 1.82781
v 0.0139895 0.0167012 1.82781
v 0.011912 0.0179195 1.83133
v 0.0119644 0.0167956 1.83574
v 0.0141073 0.014176 1.83769
v 0.0167269 0.0120331 1.83574
v 0.0213647 0.0214334 1.83495
v 0.0178508 0.0119807 1.83133
v 0.0166325 0.0140582 1.82781
v 0.0139895 0.0167012 1.82781
v 0.011912 0.0179195 1.83133
v 0.0119644 0.0167956 1.83574
v -0.0148092 0.0147405 1.83249
v -0.0120331 0.0167269 1.83574
v -0.014176 0.0141073 1.83769
v -0.0119807 0.0178508 1.83133
v -0.0140582 0.0166325 1.82781
v -0.0167012 0.0139895 1.82781
v -0.0179195 0.011912 1.83133
v -0.0167956 0.0119644 1.83574
v -0.014176 0.0141073 1.83769
v -0.0120331 0.0167269 1.83574
v -0.0214334 0.0213647 1.83495
v -0.0119807 0.0178508 1.83133
v -0.0140582 0.0166325 1.82781
v -0.0167012 0.0139895 1.82781
v -0.0179195 0.011912 1.83133
v -0.0167956 0.0119644 1.83574
v -0.0201743 -4.85821e-05 1.81573
v -0.0210041 0.00331901 1.81888
v -0.0215053 -4.85822e-05 1.82079
v -0.0198781 0.00415073 1.8146
v -0.018975 0.00182029 1.81117
v -0.018975 -0.00191746 1.81117
v -0.019878 -0.0042479 1.8146
v -0.0210041 -0.00341617 1.81888
v -0.0215053 -4.85822e-05 1.82079
v -0.0210041 0.00331901 1.81888
v -0.0292828 -4.858e-05 1.81207
v -0.0198781 0.00415073 1.8146
v -0.018975 0.00182029 1.81117
v -0.018975 -0.00191746 1.81117
v -0.019878 -0.0042479 1.8146
v -0.0210041 -0.00341617 1.81888
v -0.0208948 -4.85828e-05 1.83249
v -0.0203364 0.00331901 1.83574
v -0.0199992 -4.85818e-05 1.83769
v -0.0210941 0.00415073 1.83133
v -0.0217016 0.00182029 1.82781
v -0.0217016 -0.00191746 1.82781
v -0.0210941 -0.00424789 1.83133
v -0.0203364 -0.00341618 1.83574
v -0.0199992 -4.85818e-05 1.83769
v -0.0203364 0.00331901 1.83574
v -0.0302628 -4.85804e-05 1.83495
v -0.0210941 0.00415073 1.83133
v -0.0217016 0.00182029 1.82781
v -0.0217016 -0.00191746 1.82781
v -0.0210941 -0.00424789 1.83133
v -0.0203364 -0.00341618 1.83574
v -0.014231 -0.0142997 1.81573
v -0.017199 -0.0125053 1.81888
v -0.0151722 -0.0152409 1.82079
v -0.0169909 -0.0111209 1.8146
v -0.0147045 -0.0121302 1.81117
v -0.0120615 -0.0147732 1.81117
v -0.0110522 -0.0170596 1.8146
v -0.0124366 -0.0172678 1.81888
v -0.0151722 -0.0152409 1.82079
v -0.017199 -0.0125053 1.81888
v -0.0206717 -0.0207404 1.81207
v -0.0169909 -0.0111209 1.8146
v -0.0147045 -0.0121302 1.81117
v -0.0120615 -0.0147732 1.81117
v -0.0110522 -0.0170596 1.8146
v -0.0124366 -0.0172678 1.81888
v -0.0147405 -0.0148092 1.83249
v -0.0167269 -0.0120331 1.83574
v -0.0141073 -0.014176 1.83769
v -0.0178508 -0.0119807 1.83133
v -0.0166325 -0.0140582 1.82781
v -0.0139895 -0.0167012 1.82781
v -0.011912 -0.0179195 1.83133
v -0.0119644 -0.0167956 1.83574
v -0.0141073 -0.014176 1.83769
v -0.0167269 -0.0120331 1.83574
v -0.0213647 -0.0214334 1.83495
v -0.0178508 -0.0119807 1.83133
v -0.0166325 -0.0140582 1.82781
v -0.0139895 -0.0167012 1.82781
v -0.011912 -0.0179195 1.83133
v -0.0119644 -0.0167956 1.83574
v 4.8582e-05 -0.0201743 1.81573
v -0.00331901 -0.0210041 1.81888
v 4.85819e-05 -0.0215053 1.82079
v -0.00415073 -0.019878 1.8146
v -0.00182029 -0.018975 1.81117
v 0.00191746 -0.018975 1.81117
v 0.0042479 -0.019878 1.8146
v 0.00341618 -0.0210041 1.81888
v 4.85819e-05 -0.0215053 1.82079
v -0.00331901 -0.0210041 1.81888
v 4.85801e-05 -0.0292828 1.81207
v -0.00415073 -0.019878 1.8146
v -0.00182029 -0.018975 1.81117
v 0.00191746 -0.018975 1.81117
v 0.0042479 -0.019878 1.8146
v 0.00341618 -0.0210041 1.81888
v 4.8582e-05 -0.0208948 1.83249
v -0.00331901 -0.0203364 1.83574
v 4.85815e-05 -0.0199992 1.83769
v -0.00415073 -0.0210941 1.83133
v -0.00182029 -0.0217016 1.82781
v 0.00191746 -0.0217016 1.82781
v 0.00424789 -0.0210941 1.83133
v 0.00341618 -0.0203364 1.83574
v 4.85815e-05 -0.0199992 1.83769
v -0.00331901 -0.0203364 1.83574
v 4.85798e-05 -0.0302628 1.83495
v -0.00415073 -0.0210941 1.83133
v -0.00182029 -0.0217016 1.82781
v 0.00191746 -0.0217016 1.82781
v 0.00424789 -0.0210941 1.83133
v 0.00341618 -0.0203364 1.83574
v 0.0142997 -0.014231 1.81573
v 0.0125053 -0.017199 1.81888
v 0.0152409 -0.0151722 1.82079
v 0.0111209 -0.0169909 1.8146
v 0.0121302 -0.0147045 1.81117
v 0.0147732 -0.0120615 1.81117
v 0.0170596 -0.0110522 1.8146
v 0.0172678 -0.0124366 1.81888
v 0.0152409 -0.0151722 1.82079
v 0.0125053 -0.017199 1.81888
v 0.0207404 -0.0206717 1.81207
v 0.0111209 -0.0169909 1.8146
v 0.0121302 -0.0147045 1.81117
v 0.0147732 -0.0120615 1.81117
v 0.0170596 -0.0110522 1.8146
v 0.0172678 -0.0124366 1.81888
v 0.0148092 -0.0147405 1.83249
v 0.0120331 -0.0167269 1.83574
v 0.014176 -0.0141073 1.83769
v 0.0119807 -0.0178508 1.83133
v 0.0140582 -0.0166325 1.82781
v 0.0167012 -0.0139895 1.82781
v 0.0179195 -0.011912 1.83133
v 0.0167956 -0.0119644 1.83574
v -4.85824e-05 0.0201743 1.81573
v 0.00331901 0.0210041 1.81888
v -4.85818e-05 0.0215053 1.82079
v 0.00415073 0.0198781 1.8146
v 0.00182029 0.018975 1.81117
v -0.00191746 0.018975 1.81117
v -0.0042479 0.0198781 1.8146
v -0.00341617 0.0210041 1.81888
v -4.85818e-05 0.0215053 1.82079
v 0.00331901 0.0210041 1.81888
v -4.85814e-05 0.0292828 1.81207
v 0.00415073 0.0198781 1.8146
v 0.00182029 0.018975 1.81117
v -0.00191746 0.018975 1.81117
v -0.0042479 0.0198781 1.8146
v -0.00341617 0.0210041 1.81888
v -4.85824e-05 0.0208948 1.83249
v 0.00331901 0.0203364 1.83574
v -4.85818e-05 0.0199992 1.83769
v 0.00415073 0.0210941 1.83133
v 0.00182029 0.0217016 1.82781
v -0.00191746 0.0217016 1.82781
v -0.0042479 0.0210941 1.83133
v -0.00341617 0.0203364 1.83574
v -4.85818e-05 0.0199992 1.83769
v 0.00331901 0.0203364 1.83574
v -4.85814e-05 0.0302628 1.83495
v 0.00415073 0.0210941 1.83133
v 0.00182029 0.0217016 1.82781
v -0.00191746 0.0217016 1.82781
v -0.0042479 0.0210941 1.83133
v -0.00341617 0.0203364 1.83574
v -0.0142997 0.014231 1.81573
v -0.0125053 0.017199 1.81888
v -0.0152409 0.0151722 1.82079
v -0.0111209 0.0169909 1.8146
v -0.0121302 0.0147045 1.81117
v -0.0147732 0.0120615 1.81117
v -0.0170596 0.0110522 1.8146
v -0.0172678 0.0124366 1.81888
v -0.0152409 0.0151722 1.82079
v -0.0125053 0.017199 1.81888
v -0.0207404 0.0206717 1.81207
v -0.0111209 0.0169909 1.8146
v -0.0121302 0.0147045 1.81117
v -0.0147732 0.0120615 1.81117
v -0.0170596 0.0110522 1.8146
v -0.0172678 0.0124366 1.81888
vn 8.3819e-09 1 0
vt 0.8004 -1.2314
vn -0.399189 0.916326 -0.0315557
vt 0.8112 -1.2334
vn -0.393127 0.914623 0.0944245
vt 0.8069 -1.1598
vn 5.46628e-09 0.858031 0.513599
vt 0.8004 -1.1332
vn 8.3819e-09 1 0
vt 0.8004 -1.3294
vn 0.137241 0.865126 0.482413
vt 0.8061 -1.296
vn -0.230822 0.877952 -0.41943
vt 0.813 -1.4146
vn -0.336722 0.899896 -0.277138
vt 0.8222 -1.3778
vn 5.46628e-09 0.858031 -0.513599
vt 0.8004 -1.4222
vn -0.257099 0.880447 -0.398389
vt 0.8474 -1.3
vn 0.259351 0.893089 0.367599
vt 0.8251 -1.2226
vn 0.126105 0.872872 -0.471373
vt 0.8683 -1.2864
vn 0.0225738 0.8582 0.512819
vt 0.8646 -1.1666
vn -0.22355 0.870139 0.439185
vt 0.9071 -1.1788
vn 0.198043 0.87834 -0.435083
vt 0.8898 -1.323
vn 0.14383 0.859723 -0.490092
vt 0.9041 -1.3408
vn -0.386818 0.889483 0.243295
vt 0.9304 -1.2284
vn -0.392613 0.888276 0.238372
vt 0.9458 -1.2996
vn 0.0825356 0.83662 -0.54153
vt 0.9185 -1.3588
vn -0.0176019 0.834971 -0.550012
vt 0.9536 -1.3714
vn -0.478571 0.855631 -0.197141
vt 0.9723 -1.3596
vn 5.46628e-09 0.858031 0.513599
vt 0.1947 -1.1574
vn -0.393127 0.914623 0.0944245
vt 0.1947 -1.1506
vn -0.383982 -0.912098 0.143652
vt 0.1834 -1.1506
vn -5.46628e-09 -0.858031 0.513599
vt 0.1834 -1.1574
vn -0.399189 0.916326 -0.0315557
vt 0.1947 -1.1338
vn -0.399659 -0.916459 0.0193908
vt 0.1834 -1.1338
vn 0.137241 0.865126 0.482413
vt 0.1947 -1.1192
vn 0.137241 -0.865126 0.482413
vt 0.1834 -1.1192
vn -0.230822 0.877952 -0.41943
vt 0.2186 -1.1712
vn 5.46628e-09 0.858031 -0.513599
vt 0.2187 -1.1632
vn -5.46628e-09 -0.858031 -0.513599
vt 0.2035 -1.1618
vn -0.309112 -0.893442 -0.325901
vt 0.2033 -1.17
vn 0.259351 0.893089 0.367599
vt 0.1947 -1.1004
vn 0.0225738 0.8582 0.512819
vt 0.1938 -1.0782
vn 0.121764 -0.86804 0.481331
vt 0.1843 -1.0782
vn 0.256612 -0.892387 0.371208
vt 0.1834 -1.1004
vn -0.22355 0.870139 0.439185
vt 0.1935 -1.0586
vn -0.144595 -0.86257 0.484835
vt 0.1846 -1.0586
vn 0.126105 0.872872 -0.471373
vt 0.2163 -1.2264
vn -0.0118771 -0.860099 -0.509989
vt 0.2034 -1.2254
vn 0.198995 -0.878546 -0.434233
vt 0.2035 -1.243
vn 0.198043 0.87834 -0.435083
vt 0.2155 -1.244
vn -0.386818 0.889483 0.243295
vt 0.193 -1.043
vn -0.392613 0.888276 0.238372
vt 0.192 -1.0252
vn -0.399807 -0.889011 0.223191
vt 0.1861 -1.0252
vn -0.361933 -0.885651 0.290907
vt 0.1851 -1.043
vn 0.14383 0.859723 -0.490092
vt 0.2146 -1.2544
vn 0.14088 -0.859044 -0.492134
vt 0.204 -1.2536
vn -0.478571 0.855631 -0.197141
vt 0.1905 -1.007
vn -0.478572 -0.855631 -0.197141
vt 0.1876 -1.007
vn -0.0176019 0.834971 -0.550012
vt 0.2114 -1.2868
vn 0.0825356 0.83662 -0.54153
vt 0.2131 -1.2648
vn 0.0426295 -0.830614 -0.555215
vt 0.205 -1.2642
vn -0.0701 -0.832297 -0.549879
vt 0.2058 -1.2864
vn -8.3819e-09 -1 0
vt 0.8004 -1.2314
vn -5.46628e-09 -0.858031 0.513599
vt 0.8004 -1.1332
vn -0.383982 -0.912098 0.143652
vt 0.8069 -1.1598
vn -0.399659 -0.916459 0.0193908
vt 0.8112 -1.2334
vn 0.137241 -0.865126 0.482413
vt 0.8061 -1.296
vn -8.3819e-09 -1 0
vt 0.8004 -1.3294
vn -0.336722 -0.899896 -0.277137
vt 0.8222 -1.3778
vn -0.309112 -0.893442 -0.325901
vt 0.813 -1.4146
vn -5.46628e-09 -0.858031 -0.513599
vt 0.8004 -1.4222
vn 0.256612 -0.892387 0.371208
vt 0.8251 -1.2226
vn -0.313634 -0.890141 -0.330581
vt 0.8474 -1.3
vn 0.121764 -0.86804 0.481331
vt 0.8646 -1.1666
vn -0.0118771 -0.860099 -0.509989
vt 0.8683 -1.2864
vn -0.144595 -0.86257 0.484835
vt 0.9071 -1.1788
vn 0.198995 -0.878546 -0.434233
vt 0.8898 -1.323
vn -0.361933 -0.885651 0.290907
vt 0.9304 -1.2284
vn 0.14088 -0.859044 -0.492134
vt 0.9041 -1.3408
vn -0.399807 -0.889011 0.223191
vt 0.9458 -1.2996
vn -0.478572 -0.855631 -0.197141
vt 0.9723 -1.3596
vn -0.0701 -0.832297 -0.549879
vt 0.9536 -1.3714
vn 0.0426295 -0.830614 -0.555215
vt 0.9185 -1.3588
vn -0.336722 0.899896 -0.277138
vt 0.2183 -1.184
vn -0.336722 -0.899896 -0.277137
vt 0.203 -1.1828
vn -0.313634 -0.890141 -0.330581
vt 0.2025 -1.2116
vn -0.257099 0.880447 -0.398389
vt 0.2178 -1.2128
vn -0.478571 0.855631 -0.197141
vt 0.2103 -1.299
vn -0.478572 -0.855631 -0.197141
vt 0.2065 -1.2986
vn 0.393127 0.914623 0.0944245
vt 0.8069 -1.1598
vn 0.399189 0.916326 -0.0315557
vt 0.8112 -1.2334
vn -0.137241 0.865126 0.482413
vt 0.8061 -1.296
vn 0.336722 0.899896 -0.277138
vt 0.8222 -1.3778
vn 0.230822 0.877952 -0.41943
vt 0.813 -1.4146
vn -0.259351 0.893089 0.367599
vt 0.8251 -1.2226
vn 0.257099 0.880447 -0.398389
vt 0.8474 -1.3
vn -0.0225737 0.8582 0.512819
vt 0.8646 -1.1666
vn -0.126105 0.872872 -0.471373
vt 0.8683 -1.2864
vn 0.22355 0.870139 0.439185
vt 0.9071 -1.1788
vn -0.196701 0.878069 -0.436237
vt 0.8898 -1.323
vn 0.386748 0.88944 0.243562
vt 0.9304 -1.2284
vn -0.142459 0.85956 -0.490778
vt 0.9041 -1.3408
vn 0.391944 0.888155 0.239918
vt 0.9458 -1.2996
vn 0.474866 0.857903 -0.196226
vt 0.9723 -1.3596
vn 0.0173895 0.834949 -0.550053
vt 0.9536 -1.3714
vn -0.0836322 0.836669 -0.541285
vt 0.9185 -1.3588
vn 0.383982 -0.912098 0.143652
vt 0.1834 -1.1506
vn 0.393127 0.914623 0.0944245
vt 0.1947 -1.1506
vn 0.399659 -0.916459 0.0193908
vt 0.1834 -1.1338
vn 0.399189 0.916326 -0.0315557
vt 0.1947 -1.1338
vn -0.137241 -0.865126 0.482413
vt 0.1834 -1.1192
vn -0.137241 0.865126 0.482413
vt 0.1947 -1.1192
vn 0.230822 0.877952 -0.41943
vt 0.2186 -1.1712
vn 0.309112 -0.893442 -0.325901
vt 0.2033 -1.17
vn -0.259351 0.893089 0.367599
vt 0.1947 -1.1004
vn -0.256612 -0.892387 0.371207
vt 0.1834 -1.1004
vn -0.121764 -0.86804 0.481331
vt 0.1843 -1.0782
vn -0.0225737 0.8582 0.512819
vt 0.1938 -1.0782
vn 0.144595 -0.86257 0.484835
vt 0.1846 -1.0586
vn 0.22355 0.870139 0.439185
vt 0.1935 -1.0586
vn -0.126105 0.872872 -0.471373
vt 0.2163 -1.2264
vn -0.196701 0.878069 -0.436237
vt 0.2155 -1.244
vn -0.197738 -0.878292 -0.435319
vt 0.2035 -1.243
vn 0.0118771 -0.860099 -0.509989
vt 0.2034 -1.2254
vn 0.386748 0.88944 0.243562
vt 0.193 -1.043
vn 0.361861 -0.885596 0.291166
vt 0.1851 -1.043
vn 0.399332 -0.888909 0.224441
vt 0.1861 -1.0252
vn 0.391944 0.888155 0.239918
vt 0.192 -1.0252
vn -0.142459 0.85956 -0.490778
vt 0.2146 -1.2544
vn -0.141776 -0.859402 -0.491251
vt 0.204 -1.2536
vn 0.474866 0.857903 -0.196226
vt 0.1905 -1.007
vn 0.474866 -0.857903 -0.196226
vt 0.1876 -1.007
vn 0.0173895 0.834949 -0.550053
vt 0.2114 -1.2868
vn 0.0696195 -0.832302 -0.549934
vt 0.2058 -1.2864
vn -0.0427658 -0.830471 -0.555418
vt 0.205 -1.2642
vn -0.0836322 0.836669 -0.541285
vt 0.2131 -1.2648
vn 0.399659 -0.916459 0.0193908
vt 0.8112 -1.2334
vn 0.383982 -0.912098 0.143652
vt 0.8069 -1.1598
vn -0.137241 -0.865126 0.482413
vt 0.8061 -1.296
vn 0.309112 -0.893442 -0.325901
vt 0.813 -1.4146
vn 0.336722 -0.899896 -0.277137
vt 0.8222 -1.3778
vn 0.313634 -0.890141 -0.330581
vt 0.8474 -1.3
vn -0.256612 -0.892387 0.371207
vt 0.8251 -1.2226
vn 0.0118771 -0.860099 -0.509989
vt 0.8683 -1.2864
vn -0.121764 -0.86804 0.481331
vt 0.8646 -1.1666
vn 0.144595 -0.86257 0.484835
vt 0.9071 -1.1788
vn -0.197738 -0.878292 -0.435319
vt 0.8898 -1.323
vn -0.141776 -0.859402 -0.491251
vt 0.9041 -1.3408
vn 0.361861 -0.885596 0.291166
vt 0.9304 -1.2284
vn 0.399332 -0.888909 0.224441
vt 0.9458 -1.2996
vn -0.0427658 -0.830471 -0.555418
vt 0.9185 -1.3588
vn 0.0696195 -0.832302 -0.549934
vt 0.9536 -1.3714
vn 0.474866 -0.857903 -0.196226
vt 0.9723 -1.3596
vn 0.336722 0.899896 -0.277138
vt 0.2183 -1.184
vn 0.336722 -0.899896 -0.277137
vt 0.203 -1.1828
vn 0.313634 -0.890141 -0.330581
vt 0.2025 -1.2116
vn 0.257099 0.880447 -0.398389
vt 0.2178 -1.2128
vn 0.474866 0.857903 -0.196226
vt 0.2103 -1.299
vn 0.474866 -0.857903 -0.196226
vt 0.2065 -1.2986
vn 7.13562e-09 0.936525 -0.350601
vt 0.8293 -0.4302
vn -0.150938 0.769753 -0.620241
vt 0.8638 -0.4616
vn 0.138422 0.865386 0.481608
vt 0.8699 -0.4246
vn 5.46628e-09 0.858031 0.513599
vt 0.8399 -0.3998
vn -0.285714 0.890601 -0.353832
vt 0.8971 -0.4644
vn 0.224115 0.880085 0.418597
vt 0.9007 -0.423
vn -0.330826 0.91328 -0.237643
vt 0.9323 -0.4322
vn 0.229194 0.889914 0.394365
vt 0.9307 -0.396
vn -0.254499 0.943876 -0.210543
vt 0.964 -0.431
vn 0.0197421 0.62852 0.777543
vt 0.9812 -0.3924
vn 5.46628e-09 0.858031 0.513599
vt 0.156 -0.1152
vn 0.138422 0.865386 0.481608
vt 0.156 -0.1412
vn 0.137971 -0.865312 0.48187
vt 0.1737 -0.1412
vn -5.46628e-09 -0.858031 0.513599
vt 0.1737 -0.1152
vn -3.35224e-09 0 -1
vt 0.8195 -0.46
vn -0.309815 1.08026e-08 -0.950797
vt 0.8603 -0.4894
vn -0.67537 5.27588e-08 -0.737479
vt 0.898 -0.4934
vn -0.634934 3.29349e-08 -0.772566
vt 0.9316 -0.4662
vn -0.856491 1.60335e-08 -0.516163
vt 0.9774 -0.4522
vn -0.635603 6.03974e-09 0.772016
vt 0.9946 -0.4136
vn -7.13562e-09 -0.936525 -0.350601
vt 0.8293 -0.4302
vn -5.46628e-09 -0.858031 0.513599
vt 0.8399 -0.3998
vn 0.137971 -0.865312 0.48187
vt 0.8699 -0.4246
vn -0.149626 -0.769603 -0.620745
vt 0.8638 -0.4616
vn 0.262542 -0.890818 0.37083
vt 0.9007 -0.423
vn -0.285638 -0.889129 -0.357576
vt 0.8971 -0.4644
vn -0.334464 -0.910882 -0.241718
vt 0.9323 -0.4322
vn 0.219911 -0.887206 0.405591
vt 0.9307 -0.396
vn 0.0170866 -0.626282 0.77941
vt 0.9812 -0.3924
vn -0.258569 -0.941703 -0.215262
vt 0.964 -0.431
vn 0.262542 -0.890818 0.37083
vt 0.1727 -0.166
vn 0.224115 0.880085 0.418597
vt 0.157 -0.166
vn 0.229194 0.889914 0.394365
vt 0.1587 -0.1926
vn 0.219911 -0.887206 0.405591
vt 0.1711 -0.1926
vn 0.0197421 0.62852 0.777543
vt 0.161 -0.2334
vn 0.0170866 -0.626282 0.77941
vt 0.1687 -0.2334
vn 0.0197421 0.62852 0.777543
vt 1.0588 -0.4936
vn -0.635603 6.03974e-09 0.772016
vt 1.046 -0.5596
vn 0.0170866 -0.626282 0.77941
vt 1.0588 -0.6258
vn -0.138447 0.865389 0.481595
vt 0.8699 -0.4246
vn 0.150754 0.7687 -0.62159
vt 0.8638 -0.4616
vn -0.224858 0.880181 0.417996
vt 0.9007 -0.423
vn 0.286746 0.889676 -0.355321
vt 0.8971 -0.4644
vn 0.330826 0.91328 -0.237643
vt 0.9323 -0.4322
vn -0.228501 0.890144 0.394247
vt 0.9307 -0.396
vn -0.019869 0.62828 0.777734
vt 0.9812 -0.3924
vn 0.255534 0.943638 -0.210358
vt 0.964 -0.431
vn -0.13795 -0.865309 0.481881
vt 0.1737 -0.1412
vn -0.138447 0.865389 0.481595
vt 0.156 -0.1412
vn 0.308864 -1.66909e-08 -0.951106
vt 0.8603 -0.4894
vn 0.67537 -6.72745e-08 -0.737479
vt 0.898 -0.4934
vn 0.634934 -3.32094e-08 -0.772566
vt 0.9316 -0.4662
vn 0.858662 -2.18031e-08 -0.512543
vt 0.9774 -0.4522
vn 0.635603 -2.03155e-08 0.772016
vt 0.9946 -0.4136
vn 0.149445 -0.76856 -0.622078
vt 0.8638 -0.4616
vn -0.13795 -0.865309 0.481881
vt 0.8699 -0.4246
vn 0.286669 -0.888201 -0.359054
vt 0.8971 -0.4644
vn -0.261923 -0.890548 0.371915
vt 0.9007 -0.423
vn 0.334464 -0.910882 -0.241718
vt 0.9323 -0.4322
vn -0.219491 -0.887518 0.405135
vt 0.9307 -0.396
vn 0.259618 -0.941459 -0.215067
vt 0.964 -0.431
vn -0.0172078 -0.626017 0.779619
vt 0.9812 -0.3924
vn -0.261923 -0.890548 0.371915
vt 0.1727 -0.166
vn -0.219491 -0.887518 0.405135
vt 0.1711 -0.1926
vn -0.228501 0.890144 0.394247
vt 0.1587 -0.1926
vn -0.224858 0.880181 0.417996
vt 0.157 -0.166
vn -0.0172078 -0.626017 0.779619
vt 0.1687 -0.2334
vn -0.019869 0.62828 0.777734
vt 0.161 -0.2334
vn -0.019869 0.62828 0.777734
vt 1.0866 -0.4242
vn -0.0172078 -0.626017 0.779619
vt 1.0866 -0.4242
vn 0.635603 -2.03155e-08 0.772016
vt 1.0866 -0.4242
vn -0.115115 0.99197 -0.0523777
vt 0.9553 0.4271
vn -0.0680284 0.996988 -0.0372486
vt 0.9116 0.4299
vn -0.127111 0.990646 -0.0496294
vt 0.9535 0.3936
vn -0.0461127 0.998922 -0.00531336
vt 0.8867 0.4261
vn -0.0572464 0.99822 -0.0167019
vt 0.9549 0.3624
vn -0.0311757 0.999481 -0.00812251
vt 0.8742 0.3803
vn -0.045043 0.998963 -0.00668244
vt 0.9494 0.3224
vn 1.13156e-09 0.999954 -0.00960237
vt 0.8834 0.3311
vn 5.6578e-09 0.999914 -0.0131064
vt 0.9226 0.2843
vn 0.115115 0.99197 -0.0523777
vt 0.9553 0.4271
vn 0.127111 0.990646 -0.0496294
vt 0.9535 0.3936
vn 0.0680284 0.996988 -0.0372486
vt 0.9116 0.4299
vn 0.0572464 0.99822 -0.0167019
vt 0.9549 0.3624
vn 0.0461127 0.998922 -0.00531336
vt 0.8867 0.4261
vn 0.045043 0.998963 -0.00668244
vt 0.9494 0.3224
vn 0.0311757 0.999481 -0.00812251
vt 0.8742 0.3803
vn 0.115115 -0.99197 -0.0523777
vt 0.9553 0.4271
vn 0.0680285 -0.996988 -0.0372486
vt 0.9116 0.4299
vn 0.127111 -0.990646 -0.0496294
vt 0.9535 0.3936
vn 0.0461128 -0.998922 -0.00531336
vt 0.8867 0.4261
vn 0.0572464 -0.99822 -0.0167019
vt 0.9549 0.3624
vn 0.0311757 -0.999481 -0.00812251
vt 0.8742 0.3803
vn 0.0450431 -0.998963 -0.00668244
vt 0.9494 0.3224
vn 8.62872e-08 -0.999954 -0.00960237
vt 0.8834 0.3311
vn 8.17575e-08 -0.999914 -0.0131064
vt 0.9226 0.2843
vn -0.115115 -0.99197 -0.0523777
vt 0.9553 0.4271
vn -0.127111 -0.990646 -0.0496294
vt 0.9535 0.3936
vn -0.0680283 -0.996988 -0.0372486
vt 0.9116 0.4299
vn -0.0572463 -0.99822 -0.0167019
vt 0.9549 0.3624
vn -0.0461126 -0.998922 -0.00531336
vt 0.8867 0.4261
vn -0.0450429 -0.998963 -0.00668244
vt 0.9494 0.3224
vn -0.0311756 -0.999481 -0.00812251
vt 0.8742 0.3803
vn 0.398749 0.91706 0
vt 0.9 1
vn 0.3257 0.749059 0.576913
vt 0.9 1
vn 0.759999 0.299371 0.57687
vt 0.9 1
vn 0.930418 0.366501 0
vt 0.9 1
vn 0.0473277 0.108846 0.992931
vt 0.9 1
vn 0.110424 0.0434973 0.992932
vt 0.9 1
vn -0.292722 -0.673214 0.679041
vt 0.9 1
vn -0.682992 -0.269038 0.679073
vt 0.9 1
vn -0.398749 -0.91706 0
vt 0.9 1
vn -0.930418 -0.366501 0
vt 0.9 1
vn -0.292722 -0.673214 -0.679041
vt 0.9 1
vn -0.682992 -0.269038 -0.679073
vt 0.9 1
vn 0.0473277 0.108846 -0.992931
vt 0.9 1
vn 0.110424 0.0434974 -0.992932
vt 0.9 1
vn 0.3257 0.749059 -0.576914
vt 0.9 1
vn 0.759999 0.299371 -0.57687
vt 0.9 1
vn 0.398749 0.91706 0
vt 0.9 1
vn 0.930418 0.366501 0
vt 0.9 1
vn 0.74906 -0.3257 0.576913
vt 0.9 1
vn 0.91706 -0.398749 0
vt 0.9 1
vn 0.108846 -0.0473278 0.992931
vt 0.9 1
vn -0.673214 0.292722 0.679041
vt 0.9 1
vn -0.91706 0.398749 0
vt 0.9 1
vn -0.673214 0.292722 -0.679041
vt 0.9 1
vn 0.108846 -0.0473277 -0.992931
vt 0.9 1
vn 0.749059 -0.3257 -0.576913
vt 0.9 1
vn 0.91706 -0.398749 0
vt 0.9 1
vn 0.299371 -0.759999 0.57687
vt 0.9 1
vn 0.366501 -0.930418 0
vt 0.9 1
vn 0.0434973 -0.110424 0.992932
vt 0.9 1
vn -0.269038 0.682992 0.679073
vt 0.9 1
vn -0.366501 0.930418 0
vt 0.9 1
vn -0.269038 0.682992 -0.679073
vt 0.9 1
vn 0.0434973 -0.110424 -0.992932
vt 0.9 1
vn 0.299371 -0.759999 -0.57687
vt 0.9 1
vn 0.366501 -0.930418 0
vt 0.9 1
vn -0.3257 -0.749059 0.576913
vt 0.9 1
vn -0.398749 -0.91706 0
vt 0.9 1
vn -0.0473277 -0.108846 0.992931
vt 0.9 1
vn 0.292722 0.673214 0.679041
vt 0.9 1
vn 0.398749 0.91706 0
vt 0.9 1
vn 0.292722 0.673214 -0.679041
vt 0.9 1
vn -0.0473277 -0.108846 -0.992931
vt 0.9 1
vn -0.3257 -0.749059 -0.576914
vt 0.9 1
vn -0.398749 -0.91706 0
vt 0.9 1
vn -0.759998 -0.299371 0.57687
vt 0.9 1
vn -0.930418 -0.366501 0
vt 0.9 1
vn -0.110424 -0.0434974 0.992932
vt 0.9 1
vn 0.682992 0.269038 0.679073
vt 0.9 1
vn 0.930418 0.366501 0
vt 0.9 1
vn 0.682992 0.269038 -0.679073
vt 0.9 1
vn -0.110424 -0.0434972 -0.992932
vt 0.9 1
vn -0.759999 -0.299371 -0.57687
vt 0.9 1
vn -0.930418 -0.366501 0
vt 0.9 1
vn -0.74906 0.3257 0.576913
vt 0.9 1
vn -0.91706 0.398749 0
vt 0.9 1
vn -0.108846 0.0473277 0.992931
vt 0.9 1
vn 0.673214 -0.292722 0.679041
vt 0.9 1
vn 0.91706 -0.398749 0
vt 0.9 1
vn 0.673214 -0.292722 -0.679041
vt 0.9 1
vn -0.108846 0.0473278 -0.992931
vt 0.9 1
vn -0.74906 0.3257 -0.576913
vt 0.9 1
vn -0.91706 0.398749 0
vt 0.9 1
vn -0.299371 0.759999 0.57687
vt 0.9 1
vn -0.366501 0.930418 0
vt 0.9 1
vn -0.0434974 0.110424 0.992932
vt 0.9 1
vn 0.269038 -0.682992 0.679073
vt 0.9 1
vn 0.366501 -0.930418 0
vt 0.9 1
vn 0.269038 -0.682992 -0.679073
vt 0.9 1
vn -0.0434973 0.110424 -0.992932
vt 0.9 1
vn -0.299371 0.759999 -0.57687
vt 0.9 1
vn -0.366501 0.930418 0
vt 0.9 1
vn 0.3257 0.749059 0.576913
vt 0.9 1
vn 0.398749 0.91706 0
vt 0.9 1
vn 0.0473277 0.108846 0.992931
vt 0.9 1
vn -0.292722 -0.673214 0.679041
vt 0.9 1
vn -0.398749 -0.91706 0
vt 0.9 1
vn -0.292722 -0.673214 -0.679041
vt 0.9 1
vn 0.0473277 0.108846 -0.992931
vt 0.9 1
vn 0.3257 0.749059 -0.576914
vt 0.9 1
vn 0.398749 0.91706 0
vt 0.9 1
vn 0 0 1
vt 0.2 1
vn 0 0 1
vt 0.2 1
vn 0 0 1
vt 0.2 1
vn -0.257742 0.961905 0.0911502
vt 0.2 1
vn -0.25869 0.965442 0.0316346
vt 0.2 1
vn -0.704163 0.704163 0.0911502
vt 0.2 1
vn 0 0 1
vt 0.2 1
vn 0.257742 0.961905 0.0911502
vt 0.2 1
vn 0.706753 0.706753 0.0316346
vt 0.2 1
vn 0.258689 0.965439 0.0317343
vt 0.2 1
vn 0 0 1
vt 0.2 1
vn 0 0 1
vt 0.2 1
vn 0.704163 0.704163 0.0911502
vt 0.2 1
vn 0 0 1
vt 0.2 1
vn 0 0 1
vt 0.2 1
vn 0.961905 0.257742 0.0911502
vt 0.2 1
vn 0.965442 -0.258689 0.0316346
vt 0.2 1
vn 0.965439 0.258689 0.0317343
vt 0.2 1
vn 0 0 1
vt 0.2 1
vn 0 0 1
vt 0.2 1
vn 0.961905 -0.257742 0.0911502
vt 0.2 1
vn 0 0 1
vt 0.2 1
vn 0 0 1
vt 0.2 1
vn 0.704163 -0.704163 0.0911502
vt 0.2 1
vn 0.499766 -0.865621 0.0305581
vt 0.2 1
vn 0.706751 -0.706751 0.0317343
vt 0.2 1
vn 0.498057 -0.86266 0.0880689
vt 0.2 1
vn -0.257742 -0.961905 0.0911502
vt 0.2 1
vn -7.88125e-08 -0.999533 0.0305581
vt 0.2 1
vn -3.6921e-08 -0.996114 0.0880689
vt 0.2 1
vn -0.706753 -0.706753 0.0316346
vt 0.2 1
vn -0.258689 -0.965439 0.0317343
vt 0.2 1
vn -0.704163 -0.704163 0.0911502
vt 0.2 1
vn -0.961905 -0.257742 0.0911502
vt 0.2 1
vn -0.965442 0.258689 0.0316346
vt 0.2 1
vn -0.965439 -0.258689 0.0317343
vt 0.2 1
vn -0.961905 0.257742 0.0911502
vt 0.2 1
vn -0.706751 0.706751 0.0317343
vt 0.2 1
vn -0.256052 0.955598 -0.145839
vt 0.2 1
vn 0.257839 0.96227 -0.0869194
vt 0.2 1
vn 0.256052 0.955598 -0.145839
vt 0.2 1
vn -0.704431 0.704431 -0.0869194
vt 0.2 1
vn -0.257833 0.962247 -0.0871906
vt 0.2 1
vn 0 0 -1
vt 0.2 1
vn 0 0 -1
vt 0.2 1
vn 0 0 -1
vt 0.2 1
vn 0.699547 0.699547 -0.145839
vt 0.2 1
vn 0 0 -1
vt 0.2 1
vn 0 0 -1
vt 0.2 1
vn 0.704414 0.704414 -0.087191
vt 0.2 1
vn 0.96227 0.25784 -0.0869194
vt 0.2 1
vn 0.955598 0.256052 -0.145839
vt 0.2 1
vn 0 0 -1
vt 0.2 1
vn 0 0 -1
vt 0.2 1
vn 0.955598 -0.256052 -0.145839
vt 0.2 1
vn 0 0 -1
vt 0.2 1
vn 0 0 -1
vt 0.2 1
vn 0.962247 -0.257833 -0.087191
vt 0.2 1
vn 0.704431 -0.704431 -0.0869194
vt 0.2 1
vn 0.699547 -0.699547 -0.145839
vt 0.2 1
vn 0 0 -1
vt 0.2 1
vn 0 0 -1
vt 0.2 1
vn 0.495007 -0.857377 -0.14097
vt 0.2 1
vn 0 0 -1
vt 0.2 1
vn 0.498223 -0.862947 -0.0842415
vt 0.2 1
vn -7.49094e-08 -0.990014 -0.14097
vt 0.2 1
vn -0.257839 -0.96227 -0.0869194
vt 0.2 1
vn -0.256052 -0.955598 -0.145839
vt 0.2 1
vn -0.699547 -0.699547 -0.145839
vt 0.2 1
vn -0.704414 -0.704414 -0.087191
vt 0.2 1
vn -0.96227 -0.25784 -0.0869194
vt 0.2 1
vn -0.955599 -0.256052 -0.145839
vt 0.2 1
vn -0.955598 0.256052 -0.145839
vt 0.2 1
vn -0.962247 0.257833 -0.087191
vt 0.2 1
vn -0.699547 0.699547 -0.145839
vt 0.2 1
vn 7.1506e-08 -0.996445 -0.0842415
vt 0.2 1
vn 0.398749 0.91706 2.38419e-07
vt 0.9 1
vn 0.166544 0.383026 0.9086
vt 0.9 1
vn 0.388641 0.15309 0.908582
vt 0.9 1
vn 0.930418 0.366501 0
vt 0.9 1
vn 0.0154639 0.0355645 0.999248
vt 0.9 1
vn 0.0360801 0.0142123 0.999248
vt 0.9 1
vn -0.132063 -0.303723 0.943563
vt 0.9 1
vn -0.308123 -0.121373 0.943573
vt 0.9 1
vn -0.398749 -0.91706 -1.82539e-07
vt 0.9 1
vn -0.930418 -0.366501 0
vt 0.9 1
vn -0.132062 -0.303723 -0.943563
vt 0.9 1
vn -0.308123 -0.121373 -0.943573
vt 0.9 1
vn 0.0154639 0.0355645 -0.999248
vt 0.9 1
vn 0.0360801 0.0142124 -0.999248
vt 0.9 1
vn 0.166544 0.383026 -0.9086
vt 0.9 1
vn 0.388641 0.15309 -0.908582
vt 0.9 1
vn 0.398749 0.91706 2.38419e-07
vt 0.9 1
vn 0.930418 0.366501 0
vt 0.9 1
vn 0.383026 -0.166544 0.9086
vt 0.9 1
vn 0.91706 -0.398749 0
vt 0.9 1
vn 0.0355645 -0.0154639 0.999248
vt 0.9 1
vn -0.303723 0.132062 0.943563
vt 0.9 1
vn -0.91706 0.398749 0
vt 0.9 1
vn -0.303723 0.132062 -0.943563
vt 0.9 1
vn 0.0355645 -0.0154639 -0.999248
vt 0.9 1
vn 0.383026 -0.166544 -0.9086
vt 0.9 1
vn 0.91706 -0.398749 0
vt 0.9 1
vn 0.15309 -0.388641 0.908582
vt 0.9 1
vn 0.366501 -0.930418 0
vt 0.9 1
vn 0.0142123 -0.0360801 0.999248
vt 0.9 1
vn -0.121373 0.308123 0.943573
vt 0.9 1
vn -0.366501 0.930418 0
vt 0.9 1
vn -0.121373 0.308123 -0.943573
vt 0.9 1
vn 0.0142123 -0.0360801 -0.999248
vt 0.9 1
vn 0.15309 -0.388641 -0.908582
vt 0.9 1
vn 0.366501 -0.930418 0
vt 0.9 1
vn -0.166544 -0.383026 0.9086
vt 0.9 1
vn -0.398749 -0.91706 -1.82539e-07
vt 0.9 1
vn -0.0154639 -0.0355645 0.999248
vt 0.9 1
vn 0.132062 0.303723 0.943563
vt 0.9 1
vn 0.398749 0.91706 2.38419e-07
vt 0.9 1
vn 0.132062 0.303723 -0.943563
vt 0.9 1
vn -0.0154639 -0.0355645 -0.999248
vt 0.9 1
vn -0.166544 -0.383025 -0.9086
vt 0.9 1
vn -0.398749 -0.91706 -1.82539e-07
vt 0.9 1
vn -0.388641 -0.15309 0.908582
vt 0.9 1
vn -0.930418 -0.366501 0
vt 0.9 1
vn -0.0360801 -0.0142124 0.999248
vt 0.9 1
vn 0.308123 0.121373 0.943573
vt 0.9 1
vn 0.930418 0.366501 0
vt 0.9 1
vn 0.308123 0.121373 -0.943573
vt 0.9 1
vn -0.0360801 -0.0142123 -0.999248
vt 0.9 1
vn -0.388641 -0.15309 -0.908582
vt 0.9 1
vn -0.930418 -0.366501 0
vt 0.9 1
vn -0.383026 0.166544 0.9086
vt 0.9 1
vn -0.91706 0.398749 0
vt 0.9 1
vn -0.0355645 0.0154639 0.999248
vt 0.9 1
vn 0.303723 -0.132063 0.943563
vt 0.9 1
vn 0.91706 -0.398749 0
vt 0.9 1
vn 0.303723 -0.132062 -0.943563
vt 0.9 1
vn -0.0355645 0.0154639 -0.999248
vt 0.9 1
vn -0.383026 0.166544 -0.9086
vt 0.9 1
vn -0.91706 0.398749 0
vt 0.9 1
vn -0.15309 0.388641 0.908582
vt 0.9 1
vn -0.366501 0.930418 0
vt 0.9 1
vn -0.0142123 0.0360801 0.999248
vt 0.9 1
vn 0.121373 -0.308123 0.943573
vt 0.9 1
vn 0.366501 -0.930418 0
vt 0.9 1
vn 0.121373 -0.308123 -0.943573
vt 0.9 1
vn -0.0142123 0.0360801 -0.999248
vt 0.9 1
vn -0.15309 0.388641 -0.908582
vt 0.9 1
vn -0.366501 0.930418 0
vt 0.9 1
vn 0.166544 0.383026 0.9086
vt 0.9 1
vn 0.398749 0.91706 2.38419e-07
vt 0.9 1
vn 0.0154639 0.0355645 0.999248
vt 0.9 1
vn -0.132063 -0.303723 0.943563
vt 0.9 1
vn -0.398749 -0.91706 -1.82539e-07
vt 0.9 1
vn -0.132062 -0.303723 -0.943563
vt 0.9 1
vn 0.0154639 0.0355645 -0.999248
vt 0.9 1
vn 0.166544 0.383026 -0.9086
vt 0.9 1
vn 0.398749 0.91706 2.38419e-07
vt 0.9 1
vn -0.408342 -0.912829 0
vt 0.91292 1.1123
vn -0.408342 -0.912829 0
vt 0.8894 1.1123
vn -0.408342 -0.912829 0
vt 0.88974 1.0874
vn -0.408342 -0.912829 0
vt 0.91326 1.0925
vn 0.390966 -0.920405 0
vt 0.8657 1.1123
vn 0.390966 -0.920405 0
vt 0.86588 1.0891
vn 0.928955 -0.370192 0
vt 0.85706 1.1132
vn 0.928955 -0.370192 0
vt 0.8574 1.0883
vn -0.932166 -0.36203 0
vt 0.92248 1.1123
vn -0.932166 -0.36203 0
vt 0.92214 1.0959
vn -0.408342 0.912829 0
vt 0.88974 1.0874
vn -0.408342 0.912829 0
vt 0.8894 1.1123
vn -0.408342 0.912829 0
vt 0.91292 1.1123
vn -0.408342 0.912829 0
vt 0.91326 1.0925
vn 0.390966 0.920405 0
vt 0.86588 1.0891
vn 0.390966 0.920405 0
vt 0.8657 1.1123
vn 0 0 1
vt 0.88974 1.0874
vn 0 0 1
vt 0.88974 1.0874
vn 0 0 1
vt 0.91326 1.0925
vn 0 0 1
vt 0.92214 1.0959
vn 0 0 1
vt 0.8574 1.0883
vn 0 0 1
vt 0.86588 1.0891
vn 0 0 1
vt 0.86588 1.0891
vn 0 0 1
vt 0.91326 1.0925
vn 0 0 -1
vt 0.91292 1.1123
vn 0 0 -1
vt 0.8657 1.1123
vn 0 0 -1
vt 0.85706 1.1132
vn 0 0 -1
vt 0.8657 1.1123
vn 0 0 -1
vt 0.91292 1.1123
vn 0 0 -1
vt 0.8894 1.1123
vn 0 0 -1
vt 0.92248 1.1123
vn 0 0 -1
vt 0.8894 1.1123
vn -0.408342 -0.912829 0
vt 0.90806 1.15
vn -0.408342 -0.912829 0
vt 0.88934 1.15
vn -0.408342 -0.912829 0
vt 0.88934 1.1333
vn -0.408342 -0.912829 0
vt 0.90806 1.1333
vn 0.390966 -0.920405 0
vt 0.87048 1.15
vn 0.390966 -0.920405 0
vt 0.87048 1.1333
vn 0.928955 -0.370192 0
vt 0.86252 1.15
vn 0.928955 -0.370192 0
vt 0.86252 1.1333
vn -0.932166 -0.36203 0
vt 0.91568 1.15
vn -0.932166 -0.36203 0
vt 0.91568 1.1333
vn -0.408342 0.912829 0
vt 0.88934 1.1333
vn -0.408342 0.912829 0
vt 0.88934 1.15
vn -0.408342 0.912829 0
vt 0.90806 1.15
vn -0.408342 0.912829 0
vt 0.90806 1.1333
vn 0.390966 0.920405 0
vt 0.87048 1.1333
vn 0.390966 0.920405 0
vt 0.87048 1.15
vn 0 0 1
vt 0.88934 1.1333
vn 0 0 1
vt 0.88934 1.1333
vn 0 0 1
vt 0.90806 1.1333
vn 0 0 1
vt 0.91568 1.1333
vn 0 0 1
vt 0.86252 1.1333
vn 0 0 1
vt 0.87048 1.1333
vn 0 0 1
vt 0.87048 1.1333
vn 0 0 1
vt 0.90806 1.1333
vn 0 0 -1
vt 0.90806 1.15
vn 0 0 -1
vt 0.87048 1.15
vn 0 0 -1
vt 0.86252 1.15
vn 0 0 -1
vt 0.87048 1.15
vn 0 0 -1
vt 0.90806 1.15
vn 0 0 -1
vt 0.88934 1.15
vn 0 0 -1
vt 0.91568 1.15
vn 0 0 -1
vt 0.88934 1.15
vn -0.429045 -0.903283 0
vt 0.91382 1.5004
vn -0.429045 -0.903283 0
vt 0.88942 1.5004
vn -0.429045 -0.903283 0
vt 0.88942 1.4847
vn -0.429045 -0.903283 0
vt 0.91382 1.4847
vn 0.411219 -0.911536 0
vt 0.86484 1.5004
vn 0.411219 -0.911536 0
vt 0.86484 1.4847
vn 0.936249 -0.351337 0
vt 0.85446 1.5004
vn 0.936249 -0.351337 0
vt 0.85446 1.4847
vn -0.939149 -0.343511 0
vt 0.92376 1.5004
vn -0.939149 -0.343511 0
vt 0.92376 1.4847
vn -0.429045 0.903283 0
vt 0.88942 1.4847
vn -0.429045 0.903283 0
vt 0.88942 1.5004
vn -0.429045 0.903283 0
vt 0.91382 1.5004
vn -0.429045 0.903283 0
vt 0.91382 1.4847
vn 0.411219 0.911536 0
vt 0.86484 1.4847
vn 0.411219 0.911536 0
vt 0.86484 1.5004
vn 0 0 -1
vt 0.91382 1.5004
vn 0 0 -1
vt 0.86484 1.5004
vn 0 0 -1
vt 0.85446 1.5004
vn 0 0 -1
vt 0.86484 1.5004
vn 0 0 -1
vt 0.91382 1.5004
vn 0 0 -1
vt 0.88942 1.5004
vn 0 0 -1
vt 0.92376 1.5004
vn 0 0 -1
vt 0.88942 1.5004
vn 0 0 1
vt 0.85446 1.4847
vn 0 0 1
vt 0.88942 1.4847
vn 0 0 1
vt 0.91382 1.4847
vn 0 0 1
vt 0.92376 1.4847
vn 0 0 1
vt 0.86484 1.4847
vn 0 0 1
vt 0.88942 1.4847
vn 0 0 1
vt 0.86484 1.4847
vn 0 0 1
vt 0.91382 1.4847
vn -0.408342 -0.912829 0
vt 0.90638 1.0463
vn -0.408342 -0.912829 0
vt 0.88918 1.0421
vn -0.408342 -0.912829 0
vt 0.88934 1.0329
vn -0.408342 -0.912829 0
vt 0.90654 1.0371
vn 0.390966 -0.920405 0
vt 0.87032 1.0421
vn 0.390966 -0.920405 0
vt 0.87048 1.0329
vn 0.928955 -0.370192 0
vt 0.86236 1.0421
vn 0.928955 -0.370192 0
vt 0.86252 1.0329
vn -0.932166 -0.36203 0
vt 0.91398 1.0463
vn -0.932166 -0.36203 0
vt 0.91416 1.0371
vn -0.408342 0.912829 0
vt 0.88934 1.0329
vn -0.408342 0.912829 0
vt 0.88918 1.0421
vn -0.408342 0.912829 0
vt 0.90638 1.0463
vn -0.408342 0.912829 0
vt 0.90654 1.0371
vn 0.390966 0.920405 0
vt 0.87048 1.0329
vn 0.390966 0.920405 0
vt 0.87032 1.0421
vn 0 0 1
vt 0.88934 1.0329
vn 0 0 1
vt 0.88934 1.0329
vn 0 0 1
vt 0.90654 1.0371
vn 0 0 1
vt 0.91416 1.0371
vn 0 0 1
vt 0.86252 1.0329
vn 0 0 1
vt 0.87048 1.0329
vn 0 0 1
vt 0.87048 1.0329
vn 0 0 1
vt 0.90654 1.0371
vn -0.0689246 0 -0.997622
vt 0.90638 1.0463
vn -0.0689246 0 -0.997622
vt 0.87032 1.0421
vn -0.0689246 0 -0.997622
vt 0.86236 1.0421
vn -0.0689246 0 -0.997622
vt 0.87032 1.0421
vn -0.0836908 0.0328991 -0.995949
vt 0.90638 1.0463
vn -0.0836908 0.0328991 -0.995949
vt 0.88918 1.0421
vn 0 0 -1
vt 0.91398 1.0463
vn -0.0836399 -0.187141 -0.978766
vt 0.88918 1.0421
vn -0.0837913 0.0837911 0.992954
vt 1.07896 -3.97897
vn -0.546721 -0.459501 0.699968
vt 1.0403 -3.97855
vn 0.68395 -0.68395 0.253822
vt 0.969387 -3.41839
vn -0.605129 -0.756098 -0.24927
vt 0.850188 -3.97961
vn -0.110418 -0.408352 -0.906122
vt 0.856557 -3.97849
vn 0.408352 0.110418 -0.906122
vt 0.895728 -3.97896
vn 0.756097 0.605129 -0.24927
vt 0.970044 -3.97872
vn 0.459501 0.546721 0.699968
vt 1.08992 -3.97893
vn -0.928113 8.82182e-08 0.372299
vt 2.02468 -2.43682
vn -0.928113 8.82182e-08 0.372299
vt 2.06508 -2.43682
vn -0.928113 8.82182e-08 0.372299
vt 1.95776 -2.43682
vn -0.928113 8.82182e-08 0.372299
vt 2.02468 -2.43682
vn -0.928113 8.82182e-08 0.372299
vt 1.93388 -2.43682
vn -0.928113 8.82182e-08 0.372299
vt 1.86106 -2.43682
vn -0.928113 8.82182e-08 0.372299
vt 1.86106 -2.43682
vn -0.928113 8.82182e-08 0.372299
vt 1.93388 -2.43682
vn 0.305646 -1.01158e-07 0.952145
vt 1.07896 -3.97897
vn 0.233097 -0.720849 0.65272
vt 1.0403 -3.97855
vn 0.928113 -1.58432e-07 -0.372299
vt 0.969387 -3.41839
vn -0.00848031 -0.959689 -0.280938
vt 0.850188 -3.97961
vn -0.184035 -0.365836 -0.912302
vt 0.856557 -3.97849
vn -0.184035 0.365836 -0.912302
vt 0.895728 -3.97896
vn -0.00848014 0.959689 -0.280937
vt 0.970044 -3.97872
vn 0.233097 0.720848 0.65272
vt 1.08992 -3.97893
vn -0.967251 7.98087e-08 -0.253822
vt 2.02468 -2.43682
vn -0.967251 7.98087e-08 -0.253822
vt 2.06508 -2.43682
vn -0.967251 7.98087e-08 -0.253822
vt 1.95776 -2.43682
vn -0.967251 7.98087e-08 -0.253822
vt 2.02468 -2.43682
vn -0.967251 7.98087e-08 -0.253822
vt 1.93388 -2.43682
vn -0.967251 7.98087e-08 -0.253822
vt 1.86106 -2.43682
vn -0.967251 7.98087e-08 -0.253822
vt 1.86106 -2.43682
vn -0.967251 7.98087e-08 -0.253822
vt 1.93388 -2.43682
vn -0.118499 -1.26383e-07 0.992954
vt 1.07896 -3.97897
vn -0.0616738 -0.711506 0.699968
vt 1.0403 -3.97855
vn 0.967251 -2.39367e-07 0.253822
vt 0.969387 -3.41839
vn 0.106751 -0.962532 -0.24927
vt 0.850188 -3.97961
vn 0.210671 -0.366825 -0.906122
vt 0.856557 -3.97849
vn 0.210671 0.366825 -0.906122
vt 0.895728 -3.97896
vn 0.106751 0.962532 -0.24927
vt 0.970044 -3.97872
vn -0.0616738 0.711506 0.699968
vt 1.08992 -3.97893
vn -0.656275 -0.656275 0.372299
vt 2.02468 -2.43682
vn -0.656275 -0.656275 0.372299
vt 2.06508 -2.43682
vn -0.656275 -0.656275 0.372299
vt 1.95776 -2.43682
vn -0.656275 -0.656275 0.372299
vt 2.02468 -2.43682
vn -0.656275 -0.656275 0.372299
vt 1.93388 -2.43682
vn -0.656275 -0.656275 0.372299
vt 1.86106 -2.43682
vn -0.656275 -0.656275 0.372299
vt 1.86106 -2.43682
vn -0.656275 -0.656275 0.372299
vt 1.93388 -2.43682
vn 0.216125 0.216125 0.952145
vt 1.07896 -3.97897
vn 0.674541 -0.344893 0.65272
vt 1.0403 -3.97855
vn 0.656275 0.656275 -0.372299
vt 0.969387 -3.41839
vn 0.672606 -0.684599 -0.280938
vt 0.850188 -3.97961
vn 0.128553 -0.388818 -0.912302
vt 0.856557 -3.97849
vn -0.388818 0.128553 -0.912302
vt 0.895728 -3.97896
vn -0.684599 0.672606 -0.280937
vt 0.970044 -3.97872
vn -0.344892 0.674541 0.65272
vt 1.08992 -3.97893
vn -0.68395 -0.68395 -0.253822
vt 2.02468 -2.43682
vn -0.68395 -0.68395 -0.253822
vt 2.06508 -2.43682
vn -0.68395 -0.68395 -0.253822
vt 1.95776 -2.43682
vn -0.68395 -0.68395 -0.253822
vt 2.02468 -2.43682
vn -0.68395 -0.68395 -0.253822
vt 1.93388 -2.43682
vn -0.68395 -0.68395 -0.253822
vt 1.86106 -2.43682
vn -0.68395 -0.68395 -0.253822
vt 1.86106 -2.43682
vn -0.68395 -0.68395 -0.253822
vt 1.93388 -2.43682
vn -0.0837911 -0.0837913 0.992954
vt 1.07896 -3.97897
vn 0.459501 -0.546721 0.699968
vt 1.0403 -3.97855
vn 0.68395 0.68395 0.253822
vt 0.969387 -3.41839
vn 0.756098 -0.605129 -0.24927
vt 0.850188 -3.97961
vn 0.408351 -0.110418 -0.906122
vt 0.856557 -3.97849
vn -0.110418 0.408352 -0.906122
vt 0.895728 -3.97896
vn -0.605129 0.756097 -0.24927
vt 0.970044 -3.97872
vn -0.546721 0.459501 0.699968
vt 1.08992 -3.97893
vn 0.68395 -0.68395 -0.253822
vt 2.02468 -2.43682
vn 0.68395 -0.68395 -0.253822
vt 2.06508 -2.43682
vn 0.68395 -0.68395 -0.253822
vt 1.95776 -2.43682
vn 0.68395 -0.68395 -0.253822
vt 2.02468 -2.43682
vn 0.68395 -0.68395 -0.253822
vt 1.93388 -2.43682
vn 0.68395 -0.68395 -0.253822
vt 1.86106 -2.43682
vn 0.68395 -0.68395 -0.253822
vt 1.86106 -2.43682
vn 0.68395 -0.68395 -0.253822
vt 1.93388 -2.43682
vn 0.0837913 -0.0837911 0.992954
vt 1.07896 -3.97897
vn 0.546721 0.459501 0.699968
vt 1.0403 -3.97855
vn -0.68395 0.68395 0.253822
vt 0.969387 -3.41839
vn 0.605129 0.756098 -0.24927
vt 0.850188 -3.97961
vn 0.110418 0.408352 -0.906122
vt 0.856557 -3.97849
vn -0.408352 -0.110418 -0.906122
vt 0.895728 -3.97896
vn -0.756097 -0.605129 -0.24927
vt 0.970044 -3.97872
vn -0.459501 -0.546721 0.699968
vt 1.08992 -3.97893
vn 0.928113 -8.82182e-08 0.372299
vt 2.02468 -2.43682
vn 0.928113 -8.82182e-08 0.372299
vt 2.06508 -2.43682
vn 0.928113 -8.82182e-08 0.372299
vt 1.95776 -2.43682
vn 0.928113 -8.82182e-08 0.372299
vt 2.02468 -2.43682
vn 0.928113 -8.82182e-08 0.372299
vt 1.93388 -2.43682
vn 0.928113 -8.82182e-08 0.372299
vt 1.86106 -2.43682
vn 0.928113 -8.82182e-08 0.372299
vt 1.86106 -2.43682
vn 0.928113 -8.82182e-08 0.372299
vt 1.93388 -2.43682
vn -0.305647 1.1864e-07 0.952145
vt 1.07896 -3.97897
vn -0.233097 0.720849 0.65272
vt 1.0403 -3.97855
vn -0.928113 1.99562e-07 -0.372299
vt 0.969387 -3.41839
vn 0.00848023 0.959689 -0.280938
vt 0.850188 -3.97961
vn 0.184035 0.365836 -0.912302
vt 0.856557 -3.97849
vn 0.184035 -0.365836 -0.912302
vt 0.895728 -3.97896
vn 0.00848014 -0.959689 -0.280937
vt 0.970044 -3.97872
vn -0.233097 -0.720848 0.65272
vt 1.08992 -3.97893
vn 0.967251 -7.98087e-08 -0.253822
vt 2.02468 -2.43682
vn 0.967251 -7.98087e-08 -0.253822
vt 2.06508 -2.43682
vn 0.967251 -7.98087e-08 -0.253822
vt 1.95776 -2.43682
vn 0.967251 -7.98087e-08 -0.253822
vt 2.02468 -2.43682
vn 0.967251 -7.98087e-08 -0.253822
vt 1.93388 -2.43682
vn 0.967251 -7.98087e-08 -0.253822
vt 1.86106 -2.43682
vn 0.967251 -7.98087e-08 -0.253822
vt 1.86106 -2.43682
vn 0.967251 -7.98087e-08 -0.253822
vt 1.93388 -2.43682
vn 0.118499 1.26383e-07 0.992954
vt 1.07896 -3.97897
vn 0.0616738 0.711506 0.699968
vt 1.0403 -3.97855
vn -0.967251 2.09897e-07 0.253822
vt 0.969387 -3.41839
vn -0.106751 0.962532 -0.24927
vt 0.850188 -3.97961
vn -0.210671 0.366825 -0.906122
vt 0.856557 -3.97849
vn -0.210671 -0.366825 -0.906122
vt 0.895728 -3.97896
vn -0.106751 -0.962532 -0.24927
vt 0.970044 -3.97872
vn 0.0616738 -0.711506 0.699968
vt 1.08992 -3.97893
vn 0.656275 0.656275 0.372299
vt 2.02468 -2.43682
vn 0.656275 0.656275 0.372299
vt 2.06508 -2.43682
vn 0.656275 0.656275 0.372299
vt 1.95776 -2.43682
vn 0.656275 0.656275 0.372299
vt 2.02468 -2.43682
vn 0.656275 0.656275 0.372299
vt 1.93388 -2.43682
vn 0.656275 0.656275 0.372299
vt 1.86106 -2.43682
vn 0.656275 0.656275 0.372299
vt 1.86106 -2.43682
vn 0.656275 0.656275 0.372299
vt 1.93388 -2.43682
vn -0.216125 -0.216125 0.952145
vt 1.07896 -3.97897
vn -0.674541 0.344893 0.65272
vt 1.0403 -3.97855
vn -0.656275 -0.656275 -0.372299
vt 0.969387 -3.41839
vn -0.672606 0.684599 -0.280938
vt 0.850188 -3.97961
vn -0.128553 0.388818 -0.912302
vt 0.856557 -3.97849
vn 0.388818 -0.128553 -0.912302
vt 0.895728 -3.97896
vn 0.684599 -0.672606 -0.280937
vt 0.970044 -3.97872
vn 0.344892 -0.674541 0.65272
vt 1.08992 -3.97893
vn 0.68395 0.68395 -0.253822
vt 2.02468 -2.43682
vn 0.68395 0.68395 -0.253822
vt 2.06508 -2.43682
vn 0.68395 0.68395 -0.253822
vt 1.95776 -2.43682
vn 0.68395 0.68395 -0.253822
vt 2.02468 -2.43682
vn 0.68395 0.68395 -0.253822
vt 1.93388 -2.43682
vn 0.68395 0.68395 -0.253822
vt 1.86106 -2.43682
vn 0.68395 0.68395 -0.253822
vt 1.86106 -2.43682
vn 0.68395 0.68395 -0.253822
vt 1.93388 -2.43682
vn 0.0837911 0.0837913 0.992954
vt 1.07896 -3.97897
vn -0.459501 0.546721 0.699968
vt 1.0403 -3.97855
vn -0.68395 -0.68395 0.253822
vt 0.969387 -3.41839
vn -0.756098 0.605129 -0.24927
vt 0.850188 -3.97961
vn -0.408352 0.110418 -0.906122
vt 0.856557 -3.97849
vn 0.110418 -0.408352 -0.906122
vt 0.895728 -3.97896
vn 0.605129 -0.756097 -0.24927
vt 0.970044 -3.97872
vn 0.546721 -0.459501 0.699968
vt 1.08992 -3.97893
vn 8.12921e-08 0.928113 0.372299
vt 2.02468 -2.43682
vn 8.12921e-08 0.928113 0.372299
vt 2.06508 -2.43682
vn 8.12921e-08 0.928113 0.372299
vt 1.95776 -2.43682
vn 8.12921e-08 0.928113 0.372299
vt 2.02468 -2.43682
vn 8.12921e-08 0.928113 0.372299
vt 1.93388 -2.43682
vn 8.12921e-08 0.928113 0.372299
vt 1.86106 -2.43682
vn 8.12921e-08 0.928113 0.372299
vt 1.86106 -2.43682
vn 8.12921e-08 0.928113 0.372299
vt 1.93388 -2.43682
vn -1.02632e-07 -0.305646 0.952145
vt 1.07896 -3.97897
vn -0.720849 -0.233097 0.65272
vt 1.0403 -3.97855
vn -1.51506e-07 -0.928113 -0.372299
vt 0.969387 -3.41839
vn -0.959689 0.00848027 -0.280938
vt 0.850188 -3.97961
vn -0.365836 0.184035 -0.912302
vt 0.856557 -3.97849
vn 0.365836 0.184035 -0.912302
vt 0.895728 -3.97896
vn 0.959689 0.00848013 -0.280937
vt 0.970044 -3.97872
vn 0.720848 -0.233097 0.65272
vt 1.08992 -3.97893
vn 9.19569e-08 0.967251 -0.253822
vt 2.02468 -2.43682
vn 9.19569e-08 0.967251 -0.253822
vt 2.06508 -2.43682
vn 9.19569e-08 0.967251 -0.253822
vt 1.95776 -2.43682
vn 9.19569e-08 0.967251 -0.253822
vt 2.02468 -2.43682
vn 9.19569e-08 0.967251 -0.253822
vt 1.93388 -2.43682
vn 9.19569e-08 0.967251 -0.253822
vt 1.86106 -2.43682
vn 9.19569e-08 0.967251 -0.253822
vt 1.86106 -2.43682
vn 9.19569e-08 0.967251 -0.253822
vt 1.93388 -2.43682
vn -1.29308e-07 0.118499 0.992954
vt 1.07896 -3.97897
vn -0.711506 0.0616738 0.699968
vt 1.0403 -3.97855
vn -2.46459e-07 -0.967251 0.253822
vt 0.969387 -3.41839
vn -0.962532 -0.106751 -0.24927
vt 0.850188 -3.97961
vn -0.366825 -0.210671 -0.906122
vt 0.856557 -3.97849
vn 0.366825 -0.210671 -0.906122
vt 0.895728 -3.97896
vn 0.962532 -0.106751 -0.24927
vt 0.970044 -3.97872
vn 0.711506 0.0616738 0.699968
vt 1.08992 -3.97893
vn -0.656275 0.656275 0.372299
vt 2.02468 -2.43682
vn -0.656275 0.656275 0.372299
vt 2.06508 -2.43682
vn -0.656275 0.656275 0.372299
vt 1.95776 -2.43682
vn -0.656275 0.656275 0.372299
vt 2.02468 -2.43682
vn -0.656275 0.656275 0.372299
vt 1.93388 -2.43682
vn -0.656275 0.656275 0.372299
vt 1.86106 -2.43682
vn -0.656275 0.656275 0.372299
vt 1.86106 -2.43682
vn -0.656275 0.656275 0.372299
vt 1.93388 -2.43682
vn 0.216125 -0.216125 0.952145
vt 1.07896 -3.97897
vn -0.344893 -0.674541 0.65272
vt 1.0403 -3.97855
vn 0.656275 -0.656275 -0.372299
vt 0.969387 -3.41839
vn -0.684599 -0.672606 -0.280938
vt 0.850188 -3.97961
vn -0.388818 -0.128553 -0.912302
vt 0.856557 -3.97849
vn 0.128553 0.388818 -0.912302
vt 0.895728 -3.97896
vn 0.672606 0.684599 -0.280937
vt 0.970044 -3.97872
vn 0.674541 0.344892 0.65272
vt 1.08992 -3.97893
vn -0.68395 0.68395 -0.253822
vt 2.02468 -2.43682
vn -0.68395 0.68395 -0.253822
vt 2.06508 -2.43682
vn -0.68395 0.68395 -0.253822
vt 1.95776 -2.43682
vn -0.68395 0.68395 -0.253822
vt 2.02468 -2.43682
vn -0.68395 0.68395 -0.253822
vt 1.93388 -2.43682
vn -0.68395 0.68395 -0.253822
vt 1.86106 -2.43682
vn -0.68395 0.68395 -0.253822
vt 1.86106 -2.43682
vn -0.68395 0.68395 -0.253822
vt 1.93388 -2.43682
vn -1.13777e-07 -0.928113 0.372299
vt 2.02468 -2.43682
vn -1.13777e-07 -0.928113 0.372299
vt 2.06508 -2.43682
vn -1.13777e-07 -0.928113 0.372299
vt 1.95776 -2.43682
vn -1.13777e-07 -0.928113 0.372299
vt 2.02468 -2.43682
vn -1.13777e-07 -0.928113 0.372299
vt 1.93388 -2.43682
vn -1.13777e-07 -0.928113 0.372299
vt 1.86106 -2.43682
vn -1.13777e-07 -0.928113 0.372299
vt 1.86106 -2.43682
vn -1.13777e-07 -0.928113 0.372299
vt 1.93388 -2.43682
vn 1.33277e-07 0.305647 0.952145
vt 1.07896 -3.97897
vn 0.720849 0.233097 0.65272
vt 1.0403 -3.97855
vn 2.14887e-07 0.928113 -0.372299
vt 0.969387 -3.41839
vn 0.959689 -0.00848022 -0.280938
vt 0.850188 -3.97961
vn 0.365836 -0.184035 -0.912302
vt 0.856557 -3.97849
vn -0.365836 -0.184035 -0.912302
vt 0.895728 -3.97896
vn -0.959689 -0.00848014 -0.280937
vt 0.970044 -3.97872
vn -0.720848 0.233097 0.65272
vt 1.08992 -3.97893
vn -1.15291e-07 -0.967251 -0.253822
vt 2.02468 -2.43682
vn -1.15291e-07 -0.967251 -0.253822
vt 2.06508 -2.43682
vn -1.15291e-07 -0.967251 -0.253822
vt 1.95776 -2.43682
vn -1.15291e-07 -0.967251 -0.253822
vt 2.02468 -2.43682
vn -1.15291e-07 -0.967251 -0.253822
vt 1.93388 -2.43682
vn -1.15291e-07 -0.967251 -0.253822
vt 1.86106 -2.43682
vn -1.15291e-07 -0.967251 -0.253822
vt 1.86106 -2.43682
vn -1.15291e-07 -0.967251 -0.253822
vt 1.93388 -2.43682
vn 1.30607e-07 -0.118499 0.992954
vt 1.07896 -3.97897
vn 0.711506 -0.0616738 0.699968
vt 1.0403 -3.97855
vn 2.17747e-07 0.967251 0.253822
vt 0.969387 -3.41839
vn 0.962532 0.106751 -0.24927
vt 0.850188 -3.97961
vn 0.366825 0.210671 -0.906122
vt 0.856557 -3.97849
vn -0.366825 0.210671 -0.906122
vt 0.895728 -3.97896
vn -0.962532 0.106751 -0.24927
vt 0.970044 -3.97872
vn -0.711506 -0.0616738 0.699968
vt 1.08992 -3.97893
vn 0.656275 -0.656275 0.372299
vt 2.02468 -2.43682
vn 0.656275 -0.656275 0.372299
vt 2.06508 -2.43682
vn 0.656275 -0.656275 0.372299
vt 1.95776 -2.43682
vn 0.656275 -0.656275 0.372299
vt 2.02468 -2.43682
vn 0.656275 -0.656275 0.372299
vt 1.93388 -2.43682
vn 0.656275 -0.656275 0.372299
vt 1.86106 -2.43682
vn 0.656275 -0.656275 0.372299
vt 1.86106 -2.43682
vn 0.656275 -0.656275 0.372299
vt 1.93388 -2.43682
vn -0.216125 0.216125 0.952145
vt 1.07896 -3.97897
vn 0.344893 0.674541 0.65272
vt 1.0403 -3.97855
vn -0.656275 0.656275 -0.372299
vt 0.969387 -3.41839
vn 0.684599 0.672606 -0.280938
vt 0.850188 -3.97961
vn 0.388818 0.128553 -0.912302
vt 0.856557 -3.97849
vn -0.128553 -0.388818 -0.912302
vt 0.895728 -3.97896
vn -0.672606 -0.684599 -0.280937
vt 0.970044 -3.97872
vn -0.674541 -0.344892 0.65272
vt 1.08992 -3.97893
f 1/1/1 2/2/2 3/3/3
f 3/3/3 4/4/4 1/1/1
f 2/2/2 1/1/1 5/5/5
f 5/5/5 6/6/6 2/2/2
f 6/6/6 5/5/5 7/7/7
f 7/7/7 8/8/8 6/6/6
f 7/7/7 5/5/5 9/9/9
f 6/6/6 8/8/8 10/10/10
f 10/10/10 11/11/11 6/6/6
f 11/11/11 10/10/10 12/12/12
f 12/12/12 13/13/13 11/11/11
f 14/14/14 13/13/13 12/12/12
f 12/12/12 15/15/15 14/14/14
f 15/15/15 16/16/16 17/17/17
f 17/17/17 14/14/14 15/15/15
f 18/18/18 19/19/19 20/20/20
f 20/20/20 21/21/21 18/18/18
f 16/16/16 19/19/19 18/18/18
f 18/18/18 17/17/17 16/16/16
f 4/22/22 3/23/23 22/24/24
f 22/24/24 23/25/25 4/22/22
f 3/23/23 2/26/26 24/27/27
f 24/27/27 22/24/24 3/23/23
f 2/26/26 6/28/28 25/29/29
f 25/29/29 24/27/27 2/26/26
f 7/30/30 9/31/31 26/32/32
f 26/32/32 27/33/33 7/30/30
f 11/34/34 13/35/35 28/36/36
f 28/36/36 29/37/37 11/34/34
f 13/35/35 14/38/38 30/39/39
f 30/39/39 28/36/36 13/35/35
f 12/40/40 31/41/41 32/42/42
f 32/42/42 15/43/43 12/40/40
f 17/44/44 18/45/45 33/46/46
f 33/46/46 34/47/47 17/44/44
f 16/48/48 15/43/43 32/42/42
f 32/42/42 35/49/49 16/48/48
f 21/50/50 36/51/51 33/46/46
f 33/46/46 18/45/45 21/50/50
f 20/52/52 19/53/53 37/54/54
f 37/54/54 38/55/55 20/52/52
f 14/38/38 17/44/44 34/47/47
f 34/47/47 30/39/39 14/38/38
f 19/53/53 16/48/48 35/49/49
f 35/49/49 37/54/54 19/53/53
f 39/56/56 23/57/57 22/58/58
f 22/58/58 24/59/59 39/56/56
f 24/59/59 25/60/60 40/61/61
f 40/61/61 39/56/56 24/59/59
f 25/60/60 41/62/62 27/63/63
f 27/63/63 40/61/61 25/60/60
f 27/63/63 26/64/64 40/61/61
f 25/60/60 29/65/65 42/66/66
f 42/66/66 41/62/62 25/60/60
f 29/65/65 28/67/67 31/68/68
f 31/68/68 42/66/66 29/65/65
f 30/69/69 32/70/70 31/68/68
f 31/68/68 28/67/67 30/69/69
f 32/70/70 30/69/69 34/71/71
f 34/71/71 35/72/72 32/70/70
f 33/73/73 36/74/74 38/75/75
f 38/75/75 37/76/76 33/73/73
f 35/72/72 34/71/71 33/73/73
f 33/73/73 37/76/76 35/72/72
f 8/77/77 7/30/30 27/33/33
f 27/33/33 41/78/78 8/77/77
f 25/29/29 6/28/28 11/34/34
f 11/34/34 29/37/37 25/29/29
f 42/79/79 10/80/80 8/77/77
f 8/77/77 41/78/78 42/79/79
f 31/41/41 12/40/40 10/80/80
f 10/80/80 42/79/79 31/41/41
f 21/81/81 20/52/52 38/55/55
f 38/55/55 36/82/82 21/81/81
f 1/1/1 4/4/4 43/83/83
f 43/83/83 44/84/84 1/1/1
f 44/84/84 45/85/85 5/5/5
f 5/5/5 1/1/1 44/84/84
f 45/85/85 46/86/86 47/87/87
f 47/87/87 5/5/5 45/85/85
f 47/87/87 9/9/9 5/5/5
f 45/85/85 48/88/88 49/89/89
f 49/89/89 46/86/86 45/85/85
f 48/88/88 50/90/90 51/91/91
f 51/91/91 49/89/89 48/88/88
f 52/92/92 53/93/93 51/91/91
f 51/91/91 50/90/90 52/92/92
f 53/93/93 52/92/92 54/94/94
f 54/94/94 55/95/95 53/93/93
f 56/96/96 57/97/97 58/98/98
f 58/98/98 59/99/99 56/96/96
f 55/95/95 54/94/94 56/96/96
f 56/96/96 59/99/99 55/95/95
f 4/22/22 23/25/25 60/100/100
f 60/100/100 43/101/101 4/22/22
f 43/101/101 60/100/100 61/102/102
f 61/102/102 44/103/103 43/101/101
f 44/103/103 61/102/102 62/104/104
f 62/104/104 45/105/105 44/103/103
f 47/106/106 63/107/107 26/32/32
f 26/32/32 9/31/31 47/106/106
f 48/108/108 64/109/109 65/110/110
f 65/110/110 50/111/111 48/108/108
f 50/111/111 65/110/110 66/112/112
f 66/112/112 52/113/113 50/111/111
f 51/114/114 53/115/115 67/116/116
f 67/116/116 68/117/117 51/114/114
f 54/118/118 69/119/119 70/120/120
f 70/120/120 56/121/121 54/118/118
f 55/122/122 71/123/123 67/116/116
f 67/116/116 53/115/115 55/122/122
f 57/124/124 56/121/121 70/120/120
f 70/120/120 72/125/125 57/124/124
f 58/126/126 73/127/127 74/128/128
f 74/128/128 59/129/129 58/126/126
f 52/113/113 66/112/112 69/119/119
f 69/119/119 54/118/118 52/113/113
f 59/129/129 74/128/128 71/123/123
f 71/123/123 55/122/122 59/129/129
f 39/56/56 61/130/130 60/131/131
f 60/131/131 23/57/57 39/56/56
f 61/130/130 39/56/56 40/61/61
f 40/61/61 62/132/132 61/130/130
f 62/132/132 40/61/61 63/133/133
f 63/133/133 75/134/134 62/132/132
f 63/133/133 40/61/61 26/64/64
f 62/132/132 75/134/134 76/135/135
f 76/135/135 64/136/136 62/132/132
f 64/136/136 76/135/135 68/137/137
f 68/137/137 65/138/138 64/136/136
f 66/139/139 65/138/138 68/137/137
f 68/137/137 67/140/140 66/139/139
f 67/140/140 71/141/141 69/142/142
f 69/142/142 66/139/139 67/140/140
f 70/143/143 74/144/144 73/145/145
f 73/145/145 72/146/146 70/143/143
f 71/141/141 74/144/144 70/143/143
f 70/143/143 69/142/142 71/141/141
f 46/147/147 75/148/148 63/107/107
f 63/107/107 47/106/106 46/147/147
f 62/104/104 64/109/109 48/108/108
f 48/108/108 45/105/105 62/104/104
f 76/149/149 75/148/148 46/147/147
f 46/147/147 49/150/150 76/149/149
f 68/117/117 76/149/149 49/150/150
f 49/150/150 51/114/114 68/117/117
f 57/151/151 72/152/152 73/127/127
f 73/127/127 58/126/126 57/151/151
f 77/153/153 78/154/154 79/155/155
f 79/155/155 80/156/156 77/153/153
f 79/155/155 78/154/154 81/157/157
f 81/157/157 82/158/158 79/155/155
f 83/159/159 84/160/160 82/158/158
f 82/158/158 81/157/157 83/159/159
f 84/160/160 83/159/159 85/161/161
f 85/161/161 86/162/162 84/160/160
f 80/163/163 79/164/164 87/165/165
f 87/165/165 88/166/166 80/163/163
f 78/154/154 77/153/153 89/167/167
f 89/167/167 90/168/168 78/154/154
f 81/157/157 78/154/154 90/168/168
f 90/168/168 91/169/169 81/157/157
f 83/159/159 81/157/157 91/169/169
f 91/169/169 92/170/170 83/159/159
f 85/161/161 83/159/159 92/170/170
f 92/170/170 93/171/171 85/161/161
f 86/162/162 85/161/161 93/171/171
f 93/171/171 94/172/172 86/162/162
f 95/173/173 88/174/174 87/175/175
f 87/175/175 96/176/176 95/173/173
f 87/175/175 97/177/177 98/178/178
f 98/178/178 96/176/176 87/175/175
f 99/179/179 98/178/178 97/177/177
f 97/177/177 100/180/180 99/179/179
f 100/180/180 101/181/181 102/182/182
f 102/182/182 99/179/179 100/180/180
f 96/176/176 90/168/168 89/167/167
f 89/167/167 95/173/173 96/176/176
f 98/178/178 91/169/169 90/168/168
f 90/168/168 96/176/176 98/178/178
f 97/183/183 82/184/184 84/185/185
f 84/185/185 100/186/186 97/183/183
f 99/179/179 92/170/170 91/169/169
f 91/169/169 98/178/178 99/179/179
f 87/165/165 79/164/164 82/184/184
f 82/184/184 97/183/183 87/165/165
f 102/182/182 93/171/171 92/170/170
f 92/170/170 99/179/179 102/182/182
f 84/185/185 86/187/187 101/188/188
f 101/188/188 100/186/186 84/185/185
f 101/181/181 94/172/172 93/171/171
f 93/171/171 102/182/182 101/181/181
f 86/189/189 94/190/190 101/191/191
f 77/153/153 80/156/156 103/192/192
f 103/192/192 104/193/193 77/153/153
f 103/192/192 105/194/194 106/195/195
f 106/195/195 104/193/193 103/192/192
f 107/196/196 106/195/195 105/194/194
f 105/194/194 108/197/197 107/196/196
f 108/197/197 109/198/198 110/199/199
f 110/199/199 107/196/196 108/197/197
f 80/163/163 88/166/166 111/200/200
f 111/200/200 103/201/201 80/163/163
f 104/193/193 112/202/202 89/167/167
f 89/167/167 77/153/153 104/193/193
f 106/195/195 113/203/203 112/202/202
f 112/202/202 104/193/193 106/195/195
f 107/196/196 114/204/204 113/203/203
f 113/203/203 106/195/195 107/196/196
f 110/199/199 115/205/205 114/204/204
f 114/204/204 107/196/196 110/199/199
f 109/198/198 116/206/206 115/205/205
f 115/205/205 110/199/199 109/198/198
f 95/173/173 117/207/207 111/208/208
f 111/208/208 88/174/174 95/173/173
f 111/208/208 117/207/207 118/209/209
f 118/209/209 119/210/210 111/208/208
f 120/211/211 121/212/212 119/210/210
f 119/210/210 118/209/209 120/211/211
f 121/212/212 120/211/211 122/213/213
f 122/213/213 123/214/214 121/212/212
f 117/207/207 95/173/173 89/167/167
f 89/167/167 112/202/202 117/207/207
f 118/209/209 117/207/207 112/202/202
f 112/202/202 113/203/203 118/209/209
f 119/215/215 121/216/216 108/217/217
f 108/217/217 105/218/218 119/215/215
f 120/211/211 118/209/209 113/203/203
f 113/203/203 114/204/204 120/211/211
f 111/200/200 119/215/215 105/218/218
f 105/218/218 103/201/201 111/200/200
f 122/213/213 120/211/211 114/204/204
f 114/204/204 115/205/205 122/213/213
f 108/217/217 121/216/216 123/219/219
f 123/219/219 109/220/220 108/217/217
f 123/214/214 122/213/213 115/205/205
f 115/205/205 116/206/206 123/214/214
f 109/221/221 123/222/222 116/223/223
f 124/224/224 125/225/225 126/226/226
f 125/225/225 127/227/227 128/228/228
f 128/228/228 126/226/226 125/225/225
f 127/227/227 129/229/229 130/230/230
f 130/230/230 128/228/228 127/227/227
f 129/229/229 131/231/231 132/232/232
f 132/232/232 130/230/230 129/229/229
f 133/233/233 134/234/234 135/235/235
f 135/235/235 134/234/234 136/236/236
f 136/236/236 137/237/237 135/235/235
f 137/237/237 136/236/236 138/238/238
f 138/238/238 139/239/239 137/237/237
f 139/239/239 138/238/238 132/232/232
f 132/232/232 131/231/231 139/239/239
f 140/240/240 141/241/241 142/242/242
f 141/241/241 143/243/243 144/244/244
f 144/244/244 142/242/242 141/241/241
f 143/243/243 145/245/245 146/246/246
f 146/246/246 144/244/244 143/243/243
f 145/245/245 147/247/247 148/248/248
f 148/248/248 146/246/246 145/245/245
f 149/249/249 150/250/250 151/251/251
f 151/251/251 150/250/250 152/252/252
f 152/252/252 153/253/253 151/251/251
f 153/253/253 152/252/252 154/254/254
f 154/254/254 155/255/255 153/253/253
f 155/255/255 154/254/254 148/248/248
f 148/248/248 147/247/247 155/255/255
f 156/256/256 157/257/257 158/258/258
f 156/256/256 158/258/258 159/259/259
f 157/257/257 160/260/260 161/261/261
f 157/257/257 161/261/261 158/258/258
f 160/260/260 162/262/262 163/263/263
f 160/260/260 163/263/263 161/261/261
f 162/262/262 164/264/264 165/265/265
f 162/262/262 165/265/265 163/263/263
f 164/264/264 166/266/266 167/267/267
f 164/264/264 167/267/267 165/265/265
f 166/266/266 168/268/268 169/269/269
f 166/266/266 169/269/269 167/267/267
f 168/268/268 170/270/270 171/271/271
f 168/268/268 171/271/271 169/269/269
f 170/270/270 156/272/272 159/273/273
f 170/270/270 159/273/273 171/271/271
f 159/259/259 158/258/258 172/274/274
f 159/259/259 172/274/274 173/275/275
f 158/258/258 161/261/261 174/276/276
f 158/258/258 174/276/276 172/274/274
f 161/261/261 163/263/263 175/277/277
f 161/261/261 175/277/277 174/276/276
f 163/263/263 165/265/265 176/278/278
f 163/263/263 176/278/278 175/277/277
f 165/265/265 167/267/267 177/279/279
f 165/265/265 177/279/279 176/278/278
f 167/267/267 169/269/269 178/280/280
f 167/267/267 178/280/280 177/279/279
f 169/269/269 171/271/271 179/281/281
f 169/269/269 179/281/281 178/280/280
f 171/271/271 159/273/273 173/282/282
f 171/271/271 173/282/282 179/281/281
f 173/275/275 172/274/274 180/283/283
f 173/275/275 180/283/283 181/284/284
f 172/274/274 174/276/276 182/285/285
f 172/274/274 182/285/285 180/283/283
f 174/276/276 175/277/277 183/286/286
f 174/276/276 183/286/286 182/285/285
f 175/277/277 176/278/278 184/287/287
f 175/277/277 184/287/287 183/286/286
f 176/278/278 177/279/279 185/288/288
f 176/278/278 185/288/288 184/287/287
f 177/279/279 178/280/280 186/289/289
f 177/279/279 186/289/289 185/288/288
f 178/280/280 179/281/281 187/290/290
f 178/280/280 187/290/290 186/289/289
f 179/281/281 173/282/282 181/291/291
f 179/281/281 181/291/291 187/290/290
f 181/284/284 180/283/283 188/292/292
f 181/284/284 188/292/292 189/293/293
f 180/283/283 182/285/285 190/294/294
f 180/283/283 190/294/294 188/292/292
f 182/285/285 183/286/286 191/295/295
f 182/285/285 191/295/295 190/294/294
f 183/286/286 184/287/287 192/296/296
f 183/286/286 192/296/296 191/295/295
f 184/287/287 185/288/288 193/297/297
f 184/287/287 193/297/297 192/296/296
f 185/288/288 186/289/289 194/298/298
f 185/288/288 194/298/298 193/297/297
f 186/289/289 187/290/290 195/299/299
f 186/289/289 195/299/299 194/298/298
f 187/290/290 181/291/291 189/300/300
f 187/290/290 189/300/300 195/299/299
f 189/293/293 188/292/292 196/301/301
f 189/293/293 196/301/301 197/302/302
f 188/292/292 190/294/294 198/303/303
f 188/292/292 198/303/303 196/301/301
f 190/294/294 191/295/295 199/304/304
f 190/294/294 199/304/304 198/303/303
f 191/295/295 192/296/296 200/305/305
f 191/295/295 200/305/305 199/304/304
f 192/296/296 193/297/297 201/306/306
f 192/296/296 201/306/306 200/305/305
f 193/297/297 194/298/298 202/307/307
f 193/297/297 202/307/307 201/306/306
f 194/298/298 195/299/299 203/308/308
f 194/298/298 203/308/308 202/307/307
f 195/299/299 189/300/300 197/309/309
f 195/299/299 197/309/309 203/308/308
f 197/302/302 196/301/301 204/310/310
f 197/302/302 204/310/310 205/311/311
f 196/301/301 198/303/303 206/312/312
f 196/301/301 206/312/312 204/310/310
f 198/303/303 199/304/304 207/313/313
f 198/303/303 207/313/313 206/312/312
f 199/304/304 200/305/305 208/314/314
f 199/304/304 208/314/314 207/313/313
f 200/305/305 201/306/306 209/315/315
f 200/305/305 209/315/315 208/314/314
f 201/306/306 202/307/307 210/316/316
f 201/306/306 210/316/316 209/315/315
f 202/307/307 203/308/308 211/317/317
f 202/307/307 211/317/317 210/316/316
f 203/308/308 197/309/309 205/318/318
f 203/308/308 205/318/318 211/317/317
f 205/311/311 204/310/310 212/319/319
f 205/311/311 212/319/319 213/320/320
f 204/310/310 206/312/312 214/321/321
f 204/310/310 214/321/321 212/319/319
f 206/312/312 207/313/313 215/322/322
f 206/312/312 215/322/322 214/321/321
f 207/313/313 208/314/314 216/323/323
f 207/313/313 216/323/323 215/322/322
f 208/314/314 209/315/315 217/324/324
f 208/314/314 217/324/324 216/323/323
f 209/315/315 210/316/316 218/325/325
f 209/315/315 218/325/325 217/324/324
f 210/316/316 211/317/317 219/326/326
f 210/316/316 219/326/326 218/325/325
f 211/317/317 205/318/318 213/327/327
f 211/317/317 213/327/327 219/326/326
f 213/320/320 212/319/319 157/328/328
f 213/320/320 157/328/328 156/329/329
f 212/319/319 214/321/321 160/330/330
f 212/319/319 160/330/330 157/328/328
f 214/321/321 215/322/322 162/331/331
f 214/321/321 162/331/331 160/330/330
f 215/322/322 216/323/323 164/332/332
f 215/322/322 164/332/332 162/331/331
f 216/323/323 217/324/324 166/333/333
f 216/323/323 166/333/333 164/332/332
f 217/324/324 218/325/325 168/334/334
f 217/324/324 168/334/334 166/333/333
f 218/325/325 219/326/326 170/335/335
f 218/325/325 170/335/335 168/334/334
f 219/326/326 213/327/327 156/336/336
f 219/326/326 156/336/336 170/335/335
f 220/337/337 231/338/338 221/339/339
f 220/340/340 244/341/341 231/342/342
f 221/339/339 231/338/338 222/343/343
f 221/344/344 244/341/341 220/340/340
f 221/344/344 248/345/345 246/346/346
f 222/343/343 230/347/347 223/348/348
f 222/349/349 248/345/345 221/344/344
f 223/348/348 229/350/350 224/351/351
f 223/352/352 248/345/345 222/349/349
f 223/352/352 252/353/353 250/354/354
f 224/351/351 228/355/355 225/356/356
f 224/357/357 252/353/353 223/352/352
f 225/356/356 227/358/358 226/359/359
f 225/360/360 252/353/353 224/357/357
f 225/360/360 256/361/361 254/362/362
f 226/363/363 256/361/361 225/360/360
f 227/358/358 225/356/356 228/355/355
f 227/364/364 256/365/365 226/366/366
f 227/364/364 260/367/367 258/368/368
f 228/355/355 224/351/351 229/350/350
f 228/369/369 260/367/367 227/364/364
f 229/350/350 223/348/348 230/347/347
f 229/370/370 260/367/367 228/369/369
f 229/370/370 264/371/371 262/372/372
f 230/347/347 222/343/343 231/338/338
f 230/373/373 264/371/371 229/370/370
f 231/342/342 244/341/341 266/374/374
f 231/342/342 264/371/371 230/373/373
f 232/375/375 247/376/376 233/377/377
f 232/375/375 267/378/378 245/379/379
f 233/380/380 243/381/381 232/382/382
f 233/377/377 247/376/376 234/383/383
f 234/384/384 242/385/385 233/380/380
f 234/383/383 247/376/376 249/386/386
f 234/383/383 251/387/387 235/388/388
f 235/389/389 241/390/390 234/384/384
f 235/388/388 251/387/387 236/391/391
f 236/392/392 240/393/393 235/389/389
f 236/391/391 251/387/387 253/394/394
f 236/391/391 255/395/395 237/396/396
f 237/397/397 239/398/398 236/392/392
f 237/396/396 255/395/395 238/399/399
f 238/400/400 239/398/398 237/397/397
f 238/399/399 255/395/395 257/401/401
f 238/402/402 259/403/403 239/404/404
f 239/404/404 259/403/403 240/405/405
f 240/393/393 236/392/392 239/398/398
f 240/405/405 259/403/403 261/406/406
f 240/405/405 263/407/407 241/408/408
f 241/390/390 235/389/389 240/393/393
f 241/408/408 263/407/407 242/409/409
f 242/385/385 234/384/384 241/390/390
f 242/409/409 263/407/407 265/410/410
f 242/409/409 267/378/378 243/411/411
f 243/381/381 233/380/380 242/385/385
f 243/411/411 267/378/378 232/375/375
f 244/341/341 247/376/376 245/379/379
f 245/379/379 247/376/376 232/375/375
f 245/379/379 267/378/378 244/341/341
f 246/346/346 244/341/341 221/344/344
f 246/346/346 248/345/345 247/376/376
f 247/376/376 244/341/341 246/346/346
f 248/345/345 251/387/387 249/386/386
f 249/386/386 247/376/376 248/345/345
f 249/386/386 251/387/387 234/383/383
f 250/354/354 248/345/345 223/352/352
f 250/354/354 252/353/353 251/387/387
f 251/387/387 248/345/345 250/354/354
f 252/353/353 255/395/395 253/394/394
f 253/394/394 251/387/387 252/353/353
f 253/394/394 255/395/395 236/391/391
f 254/362/362 252/353/353 225/360/360
f 254/362/362 256/361/361 255/395/395
f 255/395/395 252/353/353 254/362/362
f 256/365/365 259/403/403 257/412/412
f 257/401/401 255/395/395 256/361/361
f 257/412/412 259/403/403 238/402/402
f 258/368/368 256/365/365 227/364/364
f 258/368/368 260/367/367 259/403/403
f 259/403/403 256/365/365 258/368/368
f 260/367/367 263/407/407 261/406/406
f 261/406/406 259/403/403 260/367/367
f 261/406/406 263/407/407 240/405/405
f 262/372/372 260/367/367 229/370/370
f 262/372/372 264/371/371 263/407/407
f 263/407/407 260/367/367 262/372/372
f 264/371/371 267/378/378 265/410/410
f 265/410/410 263/407/407 264/371/371
f 265/410/410 267/378/378 242/409/409
f 266/374/374 244/341/341 267/378/378
f 266/374/374 264/371/371 231/342/342
f 267/378/378 264/371/371 266/374/374
f 268/413/413 269/414/414 270/415/415
f 268/413/413 270/415/415 271/416/416
f 269/414/414 272/417/417 273/418/418
f 269/414/414 273/418/418 270/415/415
f 272/417/417 274/419/419 275/420/420
f 272/417/417 275/420/420 273/418/418
f 274/419/419 276/421/421 277/422/422
f 274/419/419 277/422/422 275/420/420
f 276/421/421 278/423/423 279/424/424
f 276/421/421 279/424/424 277/422/422
f 278/423/423 280/425/425 281/426/426
f 278/423/423 281/426/426 279/424/424
f 280/425/425 282/427/427 283/428/428
f 280/425/425 283/428/428 281/426/426
f 282/427/427 268/429/429 271/430/430
f 282/427/427 271/430/430 283/428/428
f 271/416/416 270/415/415 284/431/431
f 271/416/416 284/431/431 285/432/432
f 270/415/415 273/418/418 286/433/433
f 270/415/415 286/433/433 284/431/431
f 273/418/418 275/420/420 287/434/434
f 273/418/418 287/434/434 286/433/433
f 275/420/420 277/422/422 288/435/435
f 275/420/420 288/435/435 287/434/434
f 277/422/422 279/424/424 289/436/436
f 277/422/422 289/436/436 288/435/435
f 279/424/424 281/426/426 290/437/437
f 279/424/424 290/437/437 289/436/436
f 281/426/426 283/428/428 291/438/438
f 281/426/426 291/438/438 290/437/437
f 283/428/428 271/430/430 285/439/439
f 283/428/428 285/439/439 291/438/438
f 285/432/432 284/431/431 292/440/440
f 285/432/432 292/440/440 293/441/441
f 284/431/431 286/433/433 294/442/442
f 284/431/431 294/442/442 292/440/440
f 286/433/433 287/434/434 295/443/443
f 286/433/433 295/443/443 294/442/442
f 287/434/434 288/435/435 296/444/444
f 287/434/434 296/444/444 295/443/443
f 288/435/435 289/436/436 297/445/445
f 288/435/435 297/445/445 296/444/444
f 289/436/436 290/437/437 298/446/446
f 289/436/436 298/446/446 297/445/445
f 290/437/437 291/438/438 299/447/447
f 290/437/437 299/447/447 298/446/446
f 291/438/438 285/439/439 293/448/448
f 291/438/438 293/448/448 299/447/447
f 293/441/441 292/440/440 300/449/449
f 293/441/441 300/449/449 301/450/450
f 292/440/440 294/442/442 302/451/451
f 292/440/440 302/451/451 300/449/449
f 294/442/442 295/443/443 303/452/452
f 294/442/442 303/452/452 302/451/451
f 295/443/443 296/444/444 304/453/453
f 295/443/443 304/453/453 303/452/452
f 296/444/444 297/445/445 305/454/454
f 296/444/444 305/454/454 304/453/453
f 297/445/445 298/446/446 306/455/455
f 297/445/445 306/455/455 305/454/454
f 298/446/446 299/447/447 307/456/456
f 298/446/446 307/456/456 306/455/455
f 299/447/447 293/448/448 301/457/457
f 299/447/447 301/457/457 307/456/456
f 301/450/450 300/449/449 308/458/458
f 301/450/450 308/458/458 309/459/459
f 300/449/449 302/451/451 310/460/460
f 300/449/449 310/460/460 308/458/458
f 302/451/451 303/452/452 311/461/461
f 302/451/451 311/461/461 310/460/460
f 303/452/452 304/453/453 312/462/462
f 303/452/452 312/462/462 311/461/461
f 304/453/453 305/454/454 313/463/463
f 304/453/453 313/463/463 312/462/462
f 305/454/454 306/455/455 314/464/464
f 305/454/454 314/464/464 313/463/463
f 306/455/455 307/456/456 315/465/465
f 306/455/455 315/465/465 314/464/464
f 307/456/456 301/457/457 309/466/466
f 307/456/456 309/466/466 315/465/465
f 309/459/459 308/458/458 316/467/467
f 309/459/459 316/467/467 317/468/468
f 308/458/458 310/460/460 318/469/469
f 308/458/458 318/469/469 316/467/467
f 310/460/460 311/461/461 319/470/470
f 310/460/460 319/470/470 318/469/469
f 311/461/461 312/462/462 320/471/471
f 311/461/461 320/471/471 319/470/470
f 312/462/462 313/463/463 321/472/472
f 312/462/462 321/472/472 320/471/471
f 313/463/463 314/464/464 322/473/473
f 313/463/463 322/473/473 321/472/472
f 314/464/464 315/465/465 323/474/474
f 314/464/464 323/474/474 322/473/473
f 315/465/465 309/466/466 317/475/475
f 315/465/465 317/475/475 323/474/474
f 317/468/468 316/467/467 324/476/476
f 317/468/468 324/476/476 325/477/477
f 316/467/467 318/469/469 326/478/478
f 316/467/467 326/478/478 324/476/476
f 318/469/469 319/470/470 327/479/479
f 318/469/469 327/479/479 326/478/478
f 319/470/470 320/471/471 328/480/480
f 319/470/470 328/480/480 327/479/479
f 320/471/471 321/472/472 329/481/481
f 320/471/471 329/481/481 328/480/480
f 321/472/472 322/473/473 330/482/482
f 321/472/472 330/482/482 329/481/481
f 322/473/473 323/474/474 331/483/483
f 322/473/473 331/483/483 330/482/482
f 323/474/474 317/475/475 325/484/484
f 323/474/474 325/484/484 331/483/483
f 325/477/477 324/476/476 269/485/485
f 325/477/477 269/485/485 268/486/486
f 324/476/476 326/478/478 272/487/487
f 324/476/476 272/487/487 269/485/485
f 326/478/478 327/479/479 274/488/488
f 326/478/478 274/488/488 272/487/487
f 327/479/479 328/480/480 276/489/489
f 327/479/479 276/489/489 274/488/488
f 328/480/480 329/481/481 278/490/490
f 328/480/480 278/490/490 276/489/489
f 329/481/481 330/482/482 280/491/491
f 329/481/481 280/491/491 278/490/490
f 330/482/482 331/483/483 282/492/492
f 330/482/482 282/492/492 280/491/491
f 331/483/483 325/484/484 268/493/493
f 331/483/483 268/493/493 282/492/492
f 335/494/494 334/495/495 333/496/496
f 335/494/494 333/496/496 332/497/497
f 334/495/495 337/498/498 336/499/499
f 334/495/495 336/499/499 333/496/496
f 337/498/498 339/500/500 338/501/501
f 337/498/498 338/501/501 336/499/499
f 341/502/502 335/494/494 332/497/497
f 341/502/502 332/497/497 340/503/503
f 345/504/504 344/505/505 343/506/506
f 345/504/504 343/506/506 342/507/507
f 347/508/508 346/509/509 344/505/505
f 347/508/508 344/505/505 345/504/504
f 338/501/501 339/500/500 346/509/509
f 338/501/501 346/509/509 347/508/508
f 342/507/507 343/506/506 341/502/502
f 342/507/507 341/502/502 340/503/503
f 333/510/510 345/511/511 342/512/512
f 333/510/510 342/512/512 340/513/513
f 333/510/510 338/514/514 347/515/515
f 333/510/510 347/515/515 345/511/511
f 333/510/510 336/516/516 338/514/514
f 333/510/510 340/513/513 332/517/517
f 335/518/518 346/519/519 339/520/520
f 335/518/518 339/520/520 337/521/521
f 335/518/518 343/522/522 344/523/523
f 335/518/518 344/523/523 346/519/519
f 335/518/518 341/524/524 343/522/522
f 335/518/518 337/521/521 334/525/525
f 351/526/526 350/527/527 349/528/528
f 351/526/526 349/528/528 348/529/529
f 350/527/527 353/530/530 352/531/531
f 350/527/527 352/531/531 349/528/528
f 353/530/530 355/532/532 354/533/533
f 353/530/530 354/533/533 352/531/531
f 357/534/534 351/526/526 348/529/529
f 357/534/534 348/529/529 356/535/535
f 361/536/536 360/537/537 359/538/538
f 361/536/536 359/538/538 358/539/539
f 363/540/540 362/541/541 360/537/537
f 363/540/540 360/537/537 361/536/536
f 354/533/533 355/532/532 362/541/541
f 354/533/533 362/541/541 363/540/540
f 358/539/539 359/538/538 357/534/534
f 358/539/539 357/534/534 356/535/535
f 349/542/542 361/543/543 358/544/544
f 349/542/542 358/544/544 356/545/545
f 349/542/542 354/546/546 363/547/547
f 349/542/542 363/547/547 361/543/543
f 349/542/542 352/548/548 354/546/546
f 349/542/542 356/545/545 348/549/549
f 351/550/550 362/551/551 355/552/552
f 351/550/550 355/552/552 353/553/553
f 351/550/550 359/554/554 360/555/555
f 351/550/550 360/555/555 362/551/551
f 351/550/550 357/556/556 359/554/554
f 351/550/550 353/553/553 350/557/557
f 367/558/558 366/559/559 365/560/560
f 367/558/558 365/560/560 364/561/561
f 366/559/559 369/562/562 368/563/563
f 366/559/559 368/563/563 365/560/560
f 369/562/562 371/564/564 370/565/565
f 369/562/562 370/565/565 368/563/563
f 373/566/566 367/558/558 364/561/561
f 373/566/566 364/561/561 372/567/567
f 377/568/568 376/569/569 375/570/570
f 377/568/568 375/570/570 374/571/571
f 379/572/572 378/573/573 376/569/569
f 379/572/572 376/569/569 377/568/568
f 370/565/565 371/564/564 378/573/573
f 370/565/565 378/573/573 379/572/572
f 374/571/571 375/570/570 373/566/566
f 374/571/571 373/566/566 372/567/567
f 367/574/574 378/575/575 371/576/576
f 367/574/574 371/576/576 369/577/577
f 367/574/574 375/578/578 376/579/579
f 367/574/574 376/579/579 378/575/575
f 367/574/574 373/580/580 375/578/578
f 367/574/574 369/577/577 366/581/581
f 370/582/582 377/583/583 374/584/584
f 370/582/582 374/584/584 372/585/585
f 370/582/582 379/586/586 377/583/583
f 372/585/585 365/587/587 368/588/588
f 372/585/585 368/588/588 370/582/582
f 365/587/587 372/585/585 364/589/589
f 383/590/590 382/591/591 381/592/592
f 383/590/590 381/592/592 380/593/593
f 382/591/591 385/594/594 384/595/595
f 382/591/591 384/595/595 381/592/592
f 385/594/594 387/596/596 386/597/597
f 385/594/594 386/597/597 384/595/595
f 389/598/598 383/590/590 380/593/593
f 389/598/598 380/593/593 388/599/599
f 393/600/600 392/601/601 391/602/602
f 393/600/600 391/602/602 390/603/603
f 395/604/604 394/605/605 392/601/601
f 395/604/604 392/601/601 393/600/600
f 386/597/597 387/596/596 394/605/605
f 386/597/597 394/605/605 395/604/604
f 390/603/603 391/602/602 389/598/598
f 390/603/603 389/598/598 388/599/599
f 381/606/606 393/607/607 390/608/608
f 381/606/606 390/608/608 388/609/609
f 381/606/606 386/610/610 395/611/611
f 381/606/606 395/611/611 393/607/607
f 381/606/606 384/612/612 386/610/610
f 381/606/606 388/609/609 380/613/613
f 383/614/614 394/615/615 387/616/616
f 383/614/614 387/616/616 385/617/617
f 383/614/614 391/618/618 392/619/619
f 383/614/614 392/619/619 394/615/615
f 383/614/614 389/620/620 391/618/618
f 383/614/614 385/617/617 382/621/621
f 396/622/622 397/623/623 398/624/624
f 397/623/623 399/625/625 398/624/624
f 399/625/625 400/626/626 398/624/624
f 400/626/626 401/627/627 398/624/624
f 401/627/627 402/628/628 398/624/624
f 402/628/628 403/629/629 398/624/624
f 398/624/624 403/629/629 396/622/622
f 405/630/630 406/631/631 404/632/632
f 406/631/631 411/633/633 404/632/632
f 411/633/633 410/634/634 404/632/632
f 410/634/634 409/635/635 404/632/632
f 409/635/635 408/636/636 404/632/632
f 408/636/636 407/637/637 404/632/632
f 404/632/632 407/637/637 405/630/630
f 412/638/638 413/639/639 414/640/640
f 413/639/639 415/641/641 414/640/640
f 415/641/641 416/642/642 414/640/640
f 416/642/642 417/643/643 414/640/640
f 417/643/643 418/644/644 414/640/640
f 418/644/644 419/645/645 414/640/640
f 414/640/640 419/645/645 412/638/638
f 421/646/646 422/647/647 420/648/648
f 422/647/647 427/649/649 420/648/648
f 427/649/649 426/650/650 420/648/648
f 426/650/650 425/651/651 420/648/648
f 425/651/651 424/652/652 420/648/648
f 424/652/652 423/653/653 420/648/648
f 420/648/648 423/653/653 421/646/646
f 428/654/654 429/655/655 430/656/656
f 429/655/655 431/657/657 430/656/656
f 431/657/657 432/658/658 430/656/656
f 432/658/658 433/659/659 430/656/656
f 433/659/659 434/660/660 430/656/656
f 434/660/660 435/661/661 430/656/656
f 430/656/656 435/661/661 428/654/654
f 437/662/662 438/663/663 436/664/664
f 438/663/663 443/665/665 436/664/664
f 443/665/665 442/666/666 436/664/664
f 442/666/666 441/667/667 436/664/664
f 441/667/667 440/668/668 436/664/664
f 440/668/668 439/669/669 436/664/664
f 436/664/664 439/669/669 437/662/662
f 444/670/670 445/671/671 446/672/672
f 445/671/671 447/673/673 446/672/672
f 447/673/673 448/674/674 446/672/672
f 448/674/674 449/675/675 446/672/672
f 449/675/675 450/676/676 446/672/672
f 450/676/676 451/677/677 446/672/672
f 446/672/672 451/677/677 444/670/670
f 453/678/678 454/679/679 452/680/680
f 454/679/679 459/681/681 452/680/680
f 459/681/681 458/682/682 452/680/680
f 458/682/682 457/683/683 452/680/680
f 457/683/683 456/684/684 452/680/680
f 456/684/684 455/685/685 452/680/680
f 452/680/680 455/685/685 453/678/678
f 460/686/686 461/687/687 462/688/688
f 461/687/687 463/689/689 462/688/688
f 463/689/689 464/690/690 462/688/688
f 464/690/690 465/691/691 462/688/688
f 465/691/691 466/692/692 462/688/688
f 466/692/692 467/693/693 462/688/688
f 462/688/688 467/693/693 460/686/686
f 469/694/694 470/695/695 468/696/696
f 470/695/695 475/697/697 468/696/696
f 475/697/697 474/698/698 468/696/696
f 474/698/698 473/699/699 468/696/696
f 473/699/699 472/700/700 468/696/696
f 472/700/700 471/701/701 468/696/696
f 468/696/696 471/701/701 469/694/694
f 476/702/702 477/703/703 478/704/704
f 477/703/703 479/705/705 478/704/704
f 479/705/705 480/706/706 478/704/704
f 480/706/706 481/707/707 478/704/704
f 481/707/707 482/708/708 478/704/704
f 482/708/708 483/709/709 478/704/704
f 478/704/704 483/709/709 476/702/702
f 485/710/710 486/711/711 484/712/712
f 486/711/711 491/713/713 484/712/712
f 491/713/713 490/714/714 484/712/712
f 490/714/714 489/715/715 484/712/712
f 489/715/715 488/716/716 484/712/712
f 488/716/716 487/717/717 484/712/712
f 484/712/712 487/717/717 485/710/710
f 492/718/718 493/719/719 494/720/720
f 493/719/719 495/721/721 494/720/720
f 495/721/721 496/722/722 494/720/720
f 496/722/722 497/723/723 494/720/720
f 497/723/723 498/724/724 494/720/720
f 498/724/724 499/725/725 494/720/720
f 494/720/720 499/725/725 492/718/718
f 501/726/726 502/727/727 500/728/728
f 502/727/727 507/729/729 500/728/728
f 507/729/729 506/730/730 500/728/728
f 506/730/730 505/731/731 500/728/728
f 505/731/731 504/732/732 500/728/728
f 504/732/732 503/733/733 500/728/728
f 500/728/728 503/733/733 501/726/726
f 508/734/734 509/735/735 510/736/736
f 509/735/735 511/737/737 510/736/736
f 511/737/737 512/738/738 510/736/736
f 512/738/738 513/739/739 510/736/736
f 513/739/739 514/740/740 510/736/736
f 514/740/740 515/741/741 510/736/736
f 510/736/736 515/741/741 508/734/734
f 517/742/742 518/743/743 516/744/744
f 518/743/743 523/745/745 516/744/744
f 523/745/745 522/746/746 516/744/744
f 522/746/746 521/747/747 516/744/744
f 521/747/747 520/748/748 516/744/744
f 520/748/748 519/749/749 516/744/744
f 516/744/744 519/749/749 517/742/742
f 524/750/750 525/751/751 526/752/752
f 525/751/751 527/753/753 526/752/752
f 527/753/753 528/754/754 526/752/752
f 528/754/754 529/755/755 526/752/752
f 529/755/755 530/756/756 526/752/752
f 530/756/756 531/757/757 526/752/752
f 526/752/752 531/757/757 524/750/750
f 533/758/758 534/759/759 532/760/760
f 534/759/759 539/761/761 532/760/760
f 539/761/761 538/762/762 532/760/760
f 538/762/762 537/763/763 532/760/760
f 537/763/763 536/764/764 532/760/760
f 536/764/764 535/765/765 532/760/760
f 532/760/760 535/765/765 533/758/758
f 540/766/766 541/767/767 542/768/768
f 541/767/767 543/769/769 542/768/768
f 543/769/769 544/770/770 542/768/768
f 544/770/770 545/771/771 542/768/768
f 545/771/771 546/772/772 542/768/768
f 546/772/772 547/773/773 542/768/768
f 542/768/768 547/773/773 540/766/766
f 549/774/774 550/775/775 548/776/776
f 550/775/775 555/777/777 548/776/776
f 555/777/777 554/778/778 548/776/776
f 554/778/778 553/779/779 548/776/776
f 553/779/779 552/780/780 548/776/776
f 552/780/780 551/781/781 548/776/776
f 548/776/776 551/781/781 549/774/774
f 556/782/782 557/783/783 558/784/784
f 557/783/783 559/785/785 558/784/784
f 559/785/785 560/786/786 558/784/784
f 560/786/786 561/787/787 558/784/784
f 561/787/787 562/788/788 558/784/784
f 562/788/788 563/789/789 558/784/784
f 558/784/784 563/789/789 556/782/782
f 565/790/790 566/791/791 564/792/792
f 566/791/791 571/793/793 564/792/792
f 571/793/793 570/794/794 564/792/792
f 570/794/794 569/795/795 564/792/792
f 569/795/795 568/796/796 564/792/792
f 568/796/796 567/797/797 564/792/792
f 564/792/792 567/797/797 565/790/790
f 572/798/798 573/799/799 574/800/800
f 573/799/799 575/801/801 574/800/800
f 575/801/801 576/802/802 574/800/800
f 576/802/802 577/803/803 574/800/800
f 577/803/803 578/804/804 574/800/800
f 578/804/804 579/805/805 574/800/800
f 574/800/800 579/805/805 572/798/798
f 581/806/806 582/807/807 580/808/808
f 582/807/807 587/809/809 580/808/808
f 587/809/809 586/810/810 580/808/808
f 586/810/810 585/811/811 580/808/808
f 585/811/811 584/812/812 580/808/808
f 584/812/812 583/813/813 580/808/808
f 580/808/808 583/813/813 581/806/806
f 588/814/814 589/815/815 590/816/816
f 589/815/815 591/817/817 590/816/816
f 591/817/817 592/818/818 590/816/816
f 592/818/818 593/819/819 590/816/816
f 593/819/819 594/820/820 590/816/816
f 594/820/820 595/821/821 590/816/816
f 590/816/816 595/821/821 588/814/814
f 597/822/822 598/823/823 596/824/824
f 598/823/823 603/825/825 596/824/824
f 603/825/825 602/826/826 596/824/824
f 602/826/826 601/827/827 596/824/824
f 601/827/827 600/828/828 596/824/824
f 600/828/828 599/829/829 596/824/824
f 596/824/824 599/829/829 597/822/822
f 605/830/830 606/831/831 604/832/832
f 606/831/831 611/833/833 604/832/832
f 611/833/833 610/834/834 604/832/832
f 610/834/834 609/835/835 604/832/832
f 609/835/835 608/836/836 604/832/832
f 608/836/836 607/837/837 604/832/832
f 604/832/832 607/837/837 605/830/830
f 612/838/838 613/839/839 614/840/840
f 613/839/839 615/841/841 614/840/840
f 615/841/841 616/842/842 614/840/840
f 616/842/842 617/843/843 614/840/840
f 617/843/843 618/844/844 614/840/840
f 618/844/844 619/845/845 614/840/840
f 614/840/840 619/845/845 612/838/838
f 621/846/846 622/847/847 620/848/848
f 622/847/847 627/849/849 620/848/848
f 627/849/849 626/850/850 620/848/848
f 626/850/850 625/851/851 620/848/848
f 625/851/851 624/852/852 620/848/848
f 624/852/852 623/853/853 620/848/848
f 620/848/848 623/853/853 621/846/846
f 628/854/854 629/855/855 630/856/856
f 629/855/855 631/857/857 630/856/856
f 631/857/857 632/858/858 630/856/856
f 632/858/858 633/859/859 630/856/856
f 633/859/859 634/860/860 630/856/856
f 634/860/860 635/861/861 630/856/856
f 630/856/856 635/861/861 628/854/854
f 637/862/862 638/863/863 636/864/864
f 638/863/863 643/865/865 636/864/864
f 643/865/865 642/866/866 636/864/864
f 642/866/866 641/867/867 636/864/864
f 641/867/867 640/868/868 636/864/864
f 640/868/868 639/869/869 636/864/864
f 636/864/864 639/869/869 637/862/862
f 644/870/870 645/871/871 646/872/872
f 645/871/871 647/873/873 646/872/872
f 647/873/873 648/874/874 646/872/872
f 648/874/874 649/875/875 646/872/872
f 649/875/875 650/876/876 646/872/872
f 650/876/876 651/877/877 646/872/872
f 646/872/872 651/877/877 644/870/870
