#
# Exported by OpenBRF -- marco tarini
#
s dragon_spear.4
newmtl dragoon_spear_neck_4
Ka 0.8 0.8 0.8
Kd 0.2 0.2 0.2
usemtl dragoon_spear_neck_4
v 0.0649676 0.0123345 1.5234
v 0.0551573 0.00993123 1.52
v 0.0576501 0.00142745 1.5197
v 0.0546748 0.0188047 1.5316
v 0.0680233 0.00142745 1.5233
v 0.0552377 -0.00679903 1.5196
v 0.045749 0.0160318 1.5274
v 0.047116 0.025275 1.536
v 0.0651284 -0.00883254 1.523
v 0.054916 -0.0162271 1.5309
v 0.0501717 0.000965289 1.5394
v 0.0476789 -0.0228823 1.535
v 0.0459902 -0.0130844 1.5268
v 0.0334458 0.000503126 1.5582
v 0.0398788 -0.0187228 1.5303
v 0.0384314 -0.0320331 1.5365
v 0.0320788 -0.0261174 1.5317
v 0.0395572 0.0209307 1.5311
v 0.0315963 0.0283253 1.5328
v 0.024118 -0.0200169 1.5577
v 0.0212231 -0.000236335 1.5869
v 0.0149509 0.0129815 1.5875
v 0.0154334 -0.012992 1.5869
v 0.0237159 0.0213004 1.5585
v 0.0285407 -0.0407217 1.5347
v 0.0242788 -0.0333271 1.5302
v -0.0600742 -0.0107736 1.5239
v -0.0501834 -0.00892498 1.5206
v -0.0529979 4.09617e-05 1.5207
v -0.0501834 -0.0178909 1.5317
v -0.0631299 -0.000143905 1.5245
v -0.0505855 0.00909933 1.5208
v -0.041338 -0.0150255 1.5276
v -0.0427854 -0.0248233 1.5358
v -0.046002 -0.000143905 1.54
v -0.060235 0.0105782 1.5243
v -0.0416597 0.0153847 1.5282
v -0.0505051 0.0176955 1.5324
v -0.0431875 0.0249053 1.5368
v -0.0301606 -0.000328769 1.5588
v -0.0357091 0.0206534 1.5317
v -0.0279895 0.0278631 1.5333
v -0.0353071 -0.0202017 1.5309
v -0.0333772 -0.0333271 1.537
v -0.0211544 0.0207458 1.559
v -0.0341813 0.0335015 1.5385
v -0.0205111 -0.0209412 1.5583
v -0.019707 -0.000698499 1.5873
v -0.013274 -0.0133617 1.5873
v 0.0016828 -0.0290752 1.558
v -0.0233256 -0.0415536 1.5354
v -0.027507 -0.027319 1.5322
v -0.0191441 -0.0340666 1.5306
v 0.00103949 -0.019185 1.5868
v 0.00120032 0.0294344 1.5592
v 0.000717842 0.0185274 1.5876
v 0.0183282 0.0160318 1.595
v 0.0267716 -0.000236333 1.5946
v 0.0186499 -0.0162271 1.5943
v 0.0176849 0.0153847 1.6063
v 0.0256458 -0.0004212 1.6057
v 0.000959081 -0.0242687 1.5945
v 0.00224569 -0.0434022 1.5388
v 0.0375469 0.0339636 1.5377
v 0.0278169 0.0426523 1.5364
v 0.00152197 0.0445933 1.5405
v 0.000154952 0.0233339 1.5954
v 0.000235365 0.0226869 1.6064
v -0.0171338 0.0155696 1.5954
v -0.0172142 0.0149226 1.6065
v 0.0180066 -0.0160423 1.6057
v -0.0254967 -0.000883363 1.595
v -0.0168121 -0.0171515 1.5947
v -0.0135152 0.0126118 1.5878
v -0.016973 -0.0165044 1.6059
v -0.0250946 -0.00106823 1.6061
v 0.000637431 -0.0238066 1.6055
v -0.0242905 0.0420977 1.5369
v -0.0140781 0.0404339 1.5283
v -0.016973 0.0487528 1.5329
v -0.0200286 0.0348879 1.5318
v -0.0161688 -0.047839 1.5309
v 0.0186499 -0.0389655 1.5266
v 0.0217056 -0.0473768 1.5307
v 0.0119756 -0.0473768 1.519
v 0.0142272 -0.0563428 1.5225
v 0.00313023 -0.0592082 1.5225
v 0.0029694 -0.0495028 1.5191
v -0.00820797 -0.0566201 1.5225
v -0.00627806 -0.0475617 1.5194
v -0.0134348 -0.0394276 1.5267
v -0.00732344 0.0490301 1.5214
v -0.00933375 0.057996 1.5248
v 0.00184362 0.0610463 1.525
v 0.00192403 0.0514333 1.5212
v 0.0205798 0.0491225 1.5325
v 0.013021 0.0584582 1.5246
v 0.0109303 0.049215 1.5211
v 0.0233942 0.0353501 1.5315
v 0.0178458 0.0410809 1.528
vn 0.133439 0.407552 -0.90338
vt 1.69648 0.0174501
vn 0.0828789 0.566907 -0.819602
vt 1.69405 -0.0222399
vn 0.214077 0.0179653 -0.976652
vt 1.73212 -0.0103599
vn 0.0442202 0.705818 -0.707012
vt 1.63519 0.05093
vn 0.518268 0.185314 0.8349
vt 1.69648 0.0174501
vn 0.508555 -0.00882314 0.860984
vt 1.7305 0.0341901
vn 0.476947 0.165703 0.863171
vt 1.63519 0.05093
vn 0.215916 0.0194506 -0.976218
vt 1.7305 0.0341901
vn 0.106654 -0.531168 -0.840527
vt 1.69405 -0.0219699
vn 0.0588044 0.671234 -0.738909
vt 1.62925 0.00935006
vn 0.128217 0.529203 -0.838752
vt 1.5901 0.0630801
vn 0.529494 -0.217873 0.819858
vt 1.69648 0.01799
vn 0.483331 -0.187754 0.855067
vt 1.63519 0.0512
vn 0.145391 -0.352137 -0.924587
vt 1.69648 0.01799
vn 0.553495 -0.00718114 0.832821
vt 1.65409 0.1376
vn 0.502601 -0.300519 0.810605
vt 1.5901 0.0633501
vn 0.0629634 -0.638811 -0.766783
vt 1.62925 0.00962001
vn 0.0450519 -0.663 -0.747263
vt 1.63519 0.0512
vn 0.496056 0.28659 0.819631
vt 1.5901 0.0630801
vn 0.650311 -0.00362602 0.759659
vt 1.56715 0.25856
vn 0.153533 -0.452771 -0.878308
vt 1.58821 0.0212301
vn 0.139341 -0.48708 -0.86217
vt 1.5901 0.0633501
vn 0.227182 -0.329769 -0.916319
vt 1.53718 0.0611901
vn 0.234046 -0.307351 -0.922366
vt 1.54123 0.01907
vn 0.140711 0.499982 -0.854528
vt 1.58821 0.0209599
vn 0.236407 0.351037 -0.906027
vt 1.54123 0.0188001
vn 0.434921 -0.605515 0.66648
vt 1.4848 0.22373
vn 0.969205 0.0320797 0.244156
vt 1.44997 0.47483
vn 0.524716 0.808897 0.265252
vt 1.42108 0.46565
vn 0.578023 -0.785429 0.22134
vt 1.42108 0.46592
vn 0.419007 0.598126 0.683139
vt 1.4848 0.22346
vn 0.381647 -0.535231 0.753574
vt 1.53718 0.0611901
vn 0.207885 -0.655012 0.726459
vt 1.49128 0.0350001
vn 0.353672 -0.200371 -0.913656
vt 1.50073 -0.0038799
vn 0.351895 -0.213646 -0.911332
vt 1.49128 0.0350001
vn -0.158584 -0.363266 -0.91809
vt 1.0825 0.0144801
vn -0.0993388 -0.539668 -0.835996
vt 1.0852 -0.0252099
vn -0.22703 0.0132801 -0.973797
vt 1.04524 -0.0122499
vn -0.0593649 -0.676911 -0.733667
vt 1.1446 0.0479599
vn -0.543006 -0.244989 0.803196
vt 1.0825 0.0144801
vn -0.51324 -0.0206084 0.857998
vt 1.0474 0.03203
vn -0.481492 -0.195883 0.854281
vt 1.1446 0.0479599
vn -0.231421 0.0139498 -0.972754
vt 1.0474 0.03203
vn -0.134197 0.546743 -0.826477
vt 1.0852 -0.02548
vn -0.0672304 -0.637512 -0.767502
vt 1.15081 0.00637996
vn -0.14454 -0.487358 -0.861156
vt 1.19077 0.06065
vn -0.567416 -0.0200625 0.823187
vt 1.12327 0.13625
vn -0.169592 0.365385 -0.915277
vt 1.0825 0.01421
vn -0.0897153 0.684367 -0.723598
vt 1.15081 0.00611013
vn -0.550825 0.209375 0.807932
vt 1.0825 0.01421
vn -0.485843 0.155671 0.860072
vt 1.1446 0.0476901
vn -0.0734484 0.703192 -0.707196
vt 1.1446 0.0476901
vn -0.515164 0.274736 0.811866
vt 1.19077 0.06038
vn -0.506934 -0.320946 0.800007
vt 1.19077 0.06065
vn -0.686751 -0.0243595 0.726484
vt 1.2094 0.25775
vn -0.163428 0.50359 -0.848345
vt 1.19212 0.01772
vn -0.147379 0.514222 -0.844899
vt 1.19077 0.06038
vn -0.25327 0.355589 -0.899673
vt 1.2391 0.0166401
vn -0.151737 -0.456707 -0.876581
vt 1.19212 0.01799
vn -0.226371 -0.34596 -0.910531
vt 1.24261 0.05849
vn -0.42957 0.594372 0.679847
vt 1.29283 0.22238
vn -0.377665 0.531483 0.758218
vt 1.24261 0.0582201
vn -0.23671 0.365763 -0.900104
vt 1.24261 0.0582201
vn -0.41059 -0.64163 0.647864
vt 1.29283 0.22265
vn -0.97298 -0.0326044 0.228574
vt 1.32523 0.47483
vn -0.369553 -0.570462 0.733487
vt 1.24261 0.05849
vn -0.503882 -0.847319 0.167791
vt 1.35439 0.46592
vn 0.0242087 -0.816031 0.577501
vt 1.38868 0.21212
vn -0.185922 -0.674471 0.714508
vt 1.28824 0.03392
vn -0.232605 -0.32534 -0.916542
vt 1.2391 0.01691
vn -0.3647 -0.228199 -0.902729
vt 1.27906 -0.00495994
vn -0.353143 -0.235383 -0.905475
vt 1.28824 0.03392
vn 0.0394258 -0.986376 0.159713
vt 1.38787 0.46268
vn -0.00886095 0.794713 0.606921
vt 1.38868 0.21185
vn -0.0413708 0.978611 0.201516
vt 1.38787 0.46241
vn 0.552756 0.804515 -0.217292
vt 1.41892 0.50048
vn 0.96226 0.0336592 -0.27004
vt 1.45051 0.50858
vn 0.57498 -0.782597 -0.238621
vt 1.41892 0.50075
vn 0.558641 0.822261 0.108659
vt 1.40812 0.54503
vn 0.989008 -0.00622021 0.147733
vt 1.42729 0.54611
vn 0.026003 -0.969253 -0.244688
vt 1.38733 0.49805
vn 0.012989 -0.717593 0.696342
vt 1.38949 0.05984
vn 0.377161 0.52572 0.762475
vt 1.53718 0.06092
vn 0.1987 0.635473 0.746118
vt 1.49128 0.03473
vn 0.223097 0.361166 -0.905421
vt 1.53718 0.06092
vn 0.346722 0.239801 -0.906796
vt 1.49128 0.03473
vn -0.000243752 0.688708 0.725039
vt 1.38949 0.05957
vn -0.0268603 0.976048 -0.21589
vt 1.38733 0.49778
vn -0.00736832 0.99731 0.0729281
vt 1.38733 0.54449
vn -0.570093 0.781461 -0.253599
vt 1.35628 0.50021
vn -0.58707 0.808001 0.0498303
vt 1.36654 0.54476
vn 0.571477 -0.81781 0.0678293
vt 1.40812 0.5453
vn -0.941916 -0.0164091 -0.335447
vt 1.32442 0.50804
vn -0.532278 -0.798502 -0.281201
vt 1.35628 0.50048
vn -0.562685 0.803282 0.19525
vt 1.35439 0.46565
vn -0.56958 -0.820706 0.0449502
vt 1.36654 0.54503
vn -0.998726 0.00271214 0.0503974
vt 1.34737 0.54584
vn 0.00448581 -0.998582 0.0530515
vt 1.38733 0.54476
vn -0.195975 0.643188 0.740205
vt 1.28824 0.03365
vn -0.366102 0.254215 -0.895178
vt 1.28824 0.03365
vn -0.534196 0.141889 -0.833368
vt 1.30741 -0.0365498
vn -0.542993 0.137617 -0.828384
vt 1.31983 -0.000909925
vn -0.378233 0.244227 -0.892913
vt 1.27906 -0.00523007
vn -0.554781 -0.106223 -0.825188
vt 1.31983 -0.000639915
vn -0.0950952 -0.646952 0.756578
vt 1.31983 -0.000639915
vn 0.537303 -0.0841879 -0.839177
vt 1.47238 -0.03601
vn 0.547334 -0.0899541 -0.832066
vt 1.45969 -9.98974e-05
vn 0.373273 -0.17161 -0.911711
vt 1.43566 -0.0972999
vn 0.115194 -0.621798 0.774659
vt 1.45969 -9.98974e-05
vn 0.13661 -0.699035 0.701918
vt 1.42756 -0.0605801
vn 0.011273 -0.665906 0.74595
vt 1.3903 -0.0646299
vn -0.00834957 -0.282518 -0.959226
vt 1.39003 -0.10675
vn -0.0019203 -0.29011 -0.956991
vt 1.3903 -0.0646299
vn 0.334142 -0.196565 -0.921798
vt 1.42756 -0.0605801
vn -0.123043 -0.712224 0.691084
vt 1.35223 -0.0608499
vn -0.325962 -0.189213 -0.926254
vt 1.35223 -0.0608499
vn -0.370981 -0.162875 -0.914246
vt 1.3444 -0.09784
vn -0.553392 -0.110641 -0.825539
vt 1.30741 -0.03628
vn -0.378442 0.190978 -0.905709
vt 1.3444 -0.09811
vn -0.109864 0.607497 0.786688
vt 1.31983 -0.000909925
vn -0.151283 0.692973 0.704913
vt 1.35223 -0.0611199
vn 0.00240186 0.633774 0.773515
vt 1.3903 -0.0648999
vn -0.0150863 0.314814 -0.949033
vt 1.39003 -0.10702
vn -0.0115306 0.313844 -0.949404
vt 1.3903 -0.0648999
vn -0.318629 0.205397 -0.925358
vt 1.35223 -0.0611199
vn 0.108145 0.605683 0.788322
vt 1.45969 -0.000370026
vn 0.134468 0.671017 0.729147
vt 1.42756 -0.0608499
vn 0.316803 0.217281 -0.923269
vt 1.42756 -0.0608499
vn 0.367264 0.185122 -0.911508
vt 1.43566 -0.0975701
vn 0.363897 0.241162 -0.899677
vt 1.50073 -0.00415003
vn 0.555781 0.128062 -0.821406
vt 1.45969 -0.000370026
vn 0.559104 0.133018 -0.818358
vt 1.47238 -0.03628
f 1/1/1 3/3/3 2/2/2
f 1/1/1 2/2/2 4/4/4
f 1/5/5 4/7/7 5/6/6
f 3/3/3 1/1/1 5/8/8
f 3/3/3 5/8/8 6/9/9
f 4/4/4 2/2/2 7/10/10
f 4/4/4 7/10/10 8/11/11
f 5/6/6 10/13/13 9/12/12
f 5/8/8 9/14/14 6/9/9
f 5/6/6 4/7/7 11/15/15
f 10/13/13 5/6/6 11/15/15
f 10/13/13 11/15/15 12/16/16
f 9/14/14 10/18/18 13/17/17
f 6/9/9 9/14/14 13/17/17
f 11/15/15 4/7/7 8/19/19
f 11/15/15 8/19/19 14/20/20
f 13/17/17 10/18/18 15/21/21
f 15/21/21 10/18/18 12/22/22
f 15/21/21 12/22/22 16/23/23
f 15/21/21 16/23/23 17/24/24
f 8/11/11 7/10/10 18/25/25
f 8/11/11 18/25/25 19/26/26
f 12/16/16 11/15/15 14/20/20
f 12/16/16 14/20/20 20/27/27
f 14/20/20 22/29/29 21/28/28
f 14/20/20 21/28/28 23/30/30
f 14/20/20 8/19/19 24/31/31
f 16/32/32 12/16/16 20/27/27
f 16/32/32 20/27/27 25/33/33
f 16/23/23 25/35/35 26/34/34
f 17/24/24 16/23/23 26/34/34
f 27/36/36 29/38/38 28/37/37
f 27/36/36 28/37/37 30/39/39
f 27/40/40 30/42/42 31/41/41
f 29/38/38 27/36/36 31/43/43
f 29/38/38 31/43/43 32/44/44
f 30/39/39 28/37/37 33/45/45
f 30/39/39 33/45/45 34/46/46
f 31/41/41 30/42/42 35/47/47
f 32/44/44 31/43/43 36/48/48
f 32/44/44 36/48/48 37/49/49
f 36/50/50 31/41/41 38/51/51
f 36/48/48 38/52/52 37/49/49
f 38/51/51 31/41/41 35/47/47
f 38/51/51 35/47/47 39/53/53
f 35/47/47 30/42/42 34/54/54
f 35/47/47 34/54/54 40/55/55
f 37/49/49 38/52/52 41/56/56
f 41/56/56 38/52/52 39/57/57
f 41/56/56 39/57/57 42/58/58
f 34/46/46 33/45/45 43/59/59
f 34/46/46 43/59/59 44/60/60
f 39/53/53 35/47/47 40/55/55
f 39/53/53 40/55/55 45/61/61
f 39/53/53 45/61/61 46/62/62
f 39/57/57 46/63/63 42/58/58
f 40/55/55 34/54/54 47/64/64
f 40/55/55 47/64/64 48/65/65
f 40/55/55 48/65/65 45/61/61
f 47/64/64 34/54/54 44/66/66
f 47/64/64 50/68/68 49/67/67
f 47/64/64 44/66/66 51/69/69
f 44/60/60 43/59/59 52/70/70
f 44/60/60 52/70/70 53/71/71
f 44/60/60 53/71/71 51/72/72
f 20/27/27 14/20/20 23/30/30
f 20/27/27 23/30/30 54/73/73
f 20/27/27 54/73/73 50/68/68
f 22/29/29 14/20/20 24/31/31
f 22/29/29 24/31/31 55/74/74
f 22/29/29 55/74/74 56/75/75
f 21/28/28 22/29/29 57/76/76
f 23/30/30 21/28/28 58/77/77
f 23/30/30 58/77/77 59/78/78
f 58/77/77 21/28/28 57/76/76
f 58/77/77 57/76/76 60/79/79
f 58/77/77 60/79/79 61/80/80
f 54/73/73 23/30/30 59/78/78
f 54/73/73 59/78/78 62/81/81
f 25/33/33 20/27/27 50/68/68
f 25/33/33 50/68/68 63/82/82
f 50/68/68 54/73/73 49/67/67
f 50/68/68 47/64/64 51/69/69
f 50/68/68 51/69/69 63/82/82
f 24/31/31 8/19/19 64/83/83
f 24/31/31 64/83/83 65/84/84
f 64/85/85 8/11/11 19/26/26
f 64/85/85 19/26/26 65/86/86
f 55/74/74 24/31/31 65/84/84
f 55/74/74 65/84/84 66/87/87
f 57/76/76 22/29/29 67/88/88
f 57/76/76 67/88/88 68/89/89
f 67/88/88 22/29/29 56/75/75
f 67/88/88 56/75/75 69/90/90
f 67/88/88 69/90/90 70/91/91
f 56/75/75 55/74/74 45/61/61
f 60/79/79 57/76/76 68/89/89
f 68/89/89 67/88/88 70/91/91
f 59/78/78 58/77/77 61/80/80
f 59/78/78 61/80/80 71/92/92
f 48/65/65 73/94/94 72/93/93
f 48/65/65 72/93/93 74/95/95
f 48/65/65 74/95/95 45/61/61
f 48/65/65 47/64/64 49/67/67
f 73/94/94 48/65/65 49/67/67
f 73/94/94 49/67/67 62/81/81
f 72/93/93 73/94/94 75/96/96
f 72/93/93 75/96/96 76/97/97
f 72/93/93 76/97/97 69/90/90
f 72/93/93 69/90/90 74/95/95
f 75/96/96 73/94/94 77/98/98
f 77/98/98 73/94/94 62/81/81
f 77/98/98 62/81/81 71/92/92
f 69/90/90 76/97/97 70/91/91
f 69/90/90 56/75/75 74/95/95
f 74/95/95 56/75/75 45/61/61
f 45/61/61 55/74/74 78/99/99
f 49/67/67 54/73/73 62/81/81
f 62/81/81 59/78/78 71/92/92
f 46/62/62 45/61/61 78/99/99
f 46/63/63 78/100/100 42/58/58
f 78/100/100 80/102/102 79/101/101
f 78/100/100 79/101/101 81/103/103
f 78/99/99 55/74/74 66/87/87
f 51/72/72 53/71/71 82/104/104
f 51/69/69 82/105/105 63/82/82
f 42/58/58 78/100/100 81/103/103
f 26/34/34 25/35/35 83/106/106
f 83/106/106 25/35/35 84/107/107
f 83/106/106 84/107/107 85/108/108
f 84/109/109 87/111/111 86/110/110
f 84/109/109 25/33/33 63/82/82
f 85/108/108 87/113/113 88/112/112
f 85/108/108 84/107/107 86/114/114
f 87/113/113 85/108/108 86/114/114
f 87/111/111 84/109/109 63/82/82
f 87/111/111 82/105/105 89/115/115
f 88/112/112 87/113/113 89/116/116
f 88/112/112 89/116/116 90/117/117
f 82/105/105 87/111/111 63/82/82
f 82/104/104 53/71/71 91/118/118
f 89/116/116 82/104/104 91/118/118
f 90/117/117 89/116/116 91/118/118
f 80/102/102 92/119/119 79/101/101
f 80/120/120 94/122/122 93/121/121
f 80/120/120 78/99/99 66/87/87
f 92/119/119 94/124/124 95/123/123
f 92/119/119 80/102/102 93/125/125
f 94/124/124 92/119/119 93/125/125
f 94/122/122 80/120/120 66/87/87
f 94/122/122 66/87/87 96/126/126
f 94/122/122 96/126/126 97/127/127
f 95/123/123 94/124/124 97/128/128
f 95/123/123 97/128/128 98/129/129
f 65/86/86 19/26/26 99/130/130
f 65/86/86 99/130/130 96/131/131
f 66/87/87 65/84/84 96/126/126
f 96/131/131 99/130/130 100/132/132
f 96/131/131 100/132/132 97/128/128
f 97/128/128 100/132/132 98/129/129
