#
# Exported by OpenBRF -- marco tarini
#
s dragon_spear.6
newmtl dragoon_spear_palo
Ka 0.8 0.8 0.8
Kd 0.2 0.2 0.2
usemtl dragoon_spear_palo
v 0.0172318 -0.000428651 1.08976  0.705882 0.705882 0.705882  1
v 0.0172318 -0.000428651 1.62083  0.705882 0.705882 0.705882  1
v 0.016203 -0.00634405 1.62083  0.705882 0.705882 0.705882  1
v 0.016203 -0.00634405 1.08976  0.705882 0.705882 0.705882  1
v 0.0132025 -0.0114021 1.62083  0.705882 0.705882 0.705882  1
v 0.0132025 -0.0114021 1.08976  0.705882 0.705882 0.705882  1
v 0.00865877 -0.01526 1.62083  0.705882 0.705882 0.705882  1
v 0.00865877 -0.01526 1.08976  0.705882 0.705882 0.705882  1
v 0.00300057 -0.0173175 1.62083  0.705882 0.705882 0.705882  1
v 0.00300057 -0.0173175 1.08976  0.705882 0.705882 0.705882  1
v -0.00291483 -0.0173175 1.62083  0.705882 0.705882 0.705882  1
v -0.00291483 -0.0173175 1.08976  0.705882 0.705882 0.705882  1
v -0.00857304 -0.01526 1.62083  0.705882 0.705882 0.705882  1
v -0.00857304 -0.01526 1.08976  0.705882 0.705882 0.705882  1
v -0.0131168 -0.0114021 1.62083  0.705882 0.705882 0.705882  1
v -0.0131168 -0.0114021 1.08976  0.705882 0.705882 0.705882  1
v -0.0161173 -0.00634405 1.62083  0.705882 0.705882 0.705882  1
v -0.0161173 -0.00634405 1.08976  0.705882 0.705882 0.705882  1
v -0.0171461 -0.000428654 1.62083  0.705882 0.705882 0.705882  1
v -0.0171461 -0.000428654 1.08976  0.705882 0.705882 0.705882  1
v -0.0161173 0.00540101 1.62083  0.705882 0.705882 0.705882  1
v -0.0161173 0.00540101 1.08976  0.705882 0.705882 0.705882  1
v -0.0131168 0.0106306 1.62083  0.705882 0.705882 0.705882  1
v -0.0131168 0.0106306 1.08976  0.705882 0.705882 0.705882  1
v -0.00857304 0.0144027 1.62083  0.705882 0.705882 0.705882  1
v -0.00857304 0.0144027 1.08976  0.705882 0.705882 0.705882  1
v -0.00291484 0.0163745 1.62083  0.705882 0.705882 0.705882  1
v -0.00291484 0.0163745 1.08976  0.705882 0.705882 0.705882  1
v 0.00300056 0.0163745 1.62083  0.705882 0.705882 0.705882  1
v 0.00300056 0.0163745 1.08976  0.705882 0.705882 0.705882  1
v 0.00865877 0.0144027 1.62083  0.705882 0.705882 0.705882  1
v 0.00865877 0.0144027 1.08976  0.705882 0.705882 0.705882  1
v 0.0132025 0.0106306 1.62083  0.705882 0.705882 0.705882  1
v 0.0132025 0.0106306 1.08976  0.705882 0.705882 0.705882  1
v 0.016203 0.00540102 1.62083  0.705882 0.705882 0.705882  1
v 0.016203 0.00540102 1.08976  0.705882 0.705882 0.705882  1
v 0.016203 -0.00634405 0.55868  0.705882 0.705882 0.705882  1
v 0.0172318 -0.000428651 0.55868  0.705882 0.705882 0.705882  1
v 0.0132025 -0.0114021 0.55868  0.705882 0.705882 0.705882  1
v 0.00865877 -0.01526 0.55868  0.705882 0.705882 0.705882  1
v 0.00300057 -0.0173175 0.55868  0.705882 0.705882 0.705882  1
v -0.00291483 -0.0173175 0.55868  0.705882 0.705882 0.705882  1
v -0.00857304 -0.01526 0.55868  0.705882 0.705882 0.705882  1
v -0.0131168 -0.0114021 0.55868  0.705882 0.705882 0.705882  1
v -0.0161173 -0.00634405 0.55868  0.705882 0.705882 0.705882  1
v -0.0171461 -0.000428654 0.55868  0.705882 0.705882 0.705882  1
v -0.0161173 0.00540101 0.55868  0.705882 0.705882 0.705882  1
v -0.0131168 0.0106306 0.55868  0.705882 0.705882 0.705882  1
v -0.00857304 0.0144027 0.55868  0.705882 0.705882 0.705882  1
v -0.00291484 0.0163745 0.55868  0.705882 0.705882 0.705882  1
v 0.00300056 0.0163745 0.55868  0.705882 0.705882 0.705882  1
v 0.00865877 0.0144027 0.55868  0.705882 0.705882 0.705882  1
v 0.0132025 0.0106306 0.55868  0.705882 0.705882 0.705882  1
v 0.016203 0.00540102 0.55868  0.705882 0.705882 0.705882  1
v 0.016203 -0.00634405 0.0277287  0.705882 0.705882 0.705882  1
v 0.0172318 -0.000428651 0.0277287  0.705882 0.705882 0.705882  1
v 0.0132025 -0.0114021 0.0277287  0.705882 0.705882 0.705882  1
v 0.00865877 -0.01526 0.0277287  0.705882 0.705882 0.705882  1
v 0.00300057 -0.0173175 0.0277287  0.705882 0.705882 0.705882  1
v -0.00291483 -0.0173175 0.0277287  0.705882 0.705882 0.705882  1
v -0.00857304 -0.01526 0.0277287  0.705882 0.705882 0.705882  1
v -0.0131168 -0.0114021 0.0277287  0.705882 0.705882 0.705882  1
v -0.0161173 -0.00634405 0.0277287  0.705882 0.705882 0.705882  1
v -0.0171461 -0.000428654 0.0277287  0.705882 0.705882 0.705882  1
v -0.0161173 0.00540101 0.0277287  0.705882 0.705882 0.705882  1
v -0.0131168 0.0106306 0.0277287  0.705882 0.705882 0.705882  1
v -0.00857304 0.0144027 0.0277287  0.705882 0.705882 0.705882  1
v -0.00291484 0.0163745 0.0277287  0.705882 0.705882 0.705882  1
v 0.00300056 0.0163745 0.0277287  0.705882 0.705882 0.705882  1
v 0.00865877 0.0144027 0.0277287  0.705882 0.705882 0.705882  1
v 0.0132025 0.0106306 0.0277287  0.705882 0.705882 0.705882  1
v 0.016203 0.00540102 0.0277287  0.705882 0.705882 0.705882  1
v 0.016203 -0.00634405 -0.503347  0.705882 0.705882 0.705882  1
v 0.0172318 -0.000428651 -0.503347  0.705882 0.705882 0.705882  1
v 0.0132025 -0.0114021 -0.503347  0.705882 0.705882 0.705882  1
v 0.00865877 -0.01526 -0.503347  0.705882 0.705882 0.705882  1
v 0.00300057 -0.0173175 -0.503347  0.705882 0.705882 0.705882  1
v -0.00291483 -0.0173175 -0.503347  0.705882 0.705882 0.705882  1
v -0.00857304 -0.01526 -0.503347  0.705882 0.705882 0.705882  1
v -0.0131168 -0.0114021 -0.503347  0.705882 0.705882 0.705882  1
v -0.0161173 -0.00634405 -0.503347  0.705882 0.705882 0.705882  1
v -0.0171461 -0.000428654 -0.503347  0.705882 0.705882 0.705882  1
v -0.0161173 0.00540101 -0.503347  0.705882 0.705882 0.705882  1
v -0.0131168 0.0106306 -0.503347  0.705882 0.705882 0.705882  1
v -0.00857304 0.0144027 -0.503347  0.705882 0.705882 0.705882  1
v -0.00291484 0.0163745 -0.503347  0.705882 0.705882 0.705882  1
v 0.00300056 0.0163745 -0.503347  0.705882 0.705882 0.705882  1
v 0.00865877 0.0144027 -0.503347  0.705882 0.705882 0.705882  1
v 0.0132025 0.0106306 -0.503347  0.705882 0.705882 0.705882  1
v 0.016203 0.00540102 -0.503347  0.705882 0.705882 0.705882  1
v 0.016203 -0.00634405 -1.03442  0.705882 0.705882 0.705882  1
v 0.0172318 -0.000428651 -1.03442  0.705882 0.705882 0.705882  1
v 0.0132025 -0.0114021 -1.03442  0.705882 0.705882 0.705882  1
v 0.00865877 -0.01526 -1.03442  0.705882 0.705882 0.705882  1
v 0.00300057 -0.0173175 -1.03442  0.705882 0.705882 0.705882  1
v -0.00291483 -0.0173175 -1.03442  0.705882 0.705882 0.705882  1
v -0.00857304 -0.01526 -1.03442  0.705882 0.705882 0.705882  1
v -0.0131168 -0.0114021 -1.03442  0.705882 0.705882 0.705882  1
v -0.0161173 -0.00634405 -1.03442  0.705882 0.705882 0.705882  1
v -0.0171461 -0.000428654 -1.03442  0.705882 0.705882 0.705882  1
v -0.0161173 0.00540101 -1.03442  0.705882 0.705882 0.705882  1
v -0.0131168 0.0106306 -1.03442  0.705882 0.705882 0.705882  1
v -0.00857304 0.0144027 -1.03442  0.705882 0.705882 0.705882  1
v -0.00291484 0.0163745 -1.03442  0.705882 0.705882 0.705882  1
v 0.00300056 0.0163745 -1.03442  0.705882 0.705882 0.705882  1
v 0.00865877 0.0144027 -1.03442  0.705882 0.705882 0.705882  1
v 0.0132025 0.0106306 -1.03442  0.705882 0.705882 0.705882  1
v 0.016203 0.00540102 -1.03442  0.705882 0.705882 0.705882  1
vn 1 8.74228e-08 0
vt 0.2111 -143.945
vn 1 8.74228e-08 0
vt 0.0241 -143.945
vn 0.983594 -0.180399 0
vt 0.0241 -144.02
vn 0.983594 -0.180399 0
vt 0.2111 -144.02
vn 0.919708 -0.392603 0
vt 0.0241 -144.245
vn 0.919708 -0.392603 0
vt 0.2111 -144.245
vn 0.74399 -0.668191 0
vt 0.0241 -144.59
vn 0.74399 -0.668191 0
vt 0.2111 -144.59
vn 0.313497 -0.949589 0
vt 0.0241 -145.01
vn 0.313497 -0.949589 0
vt 0.2111 -145.01
vn -0.313496 -0.949589 0
vt 0.0241 -145.46
vn -0.313496 -0.949589 0
vt 0.2111 -145.46
vn -0.74399 -0.668191 0
vt 0.0241 -145.88
vn -0.74399 -0.668191 0
vt 0.2111 -145.88
vn -0.919708 -0.392603 0
vt 0.0241 -146.21
vn -0.919708 -0.392603 0
vt 0.2111 -146.21
vn -0.983484 -0.180997 0
vt 0.0241 -146.435
vn -0.983484 -0.180997 0
vt 0.2111 -146.435
vn -1 -8.74228e-08 0
vt 0.0241 -146.525
vn -1 -8.74228e-08 0
vt 0.2111 -146.525
vn -0.983484 0.180997 0
vt 0.0241 -146.435
vn -0.983484 0.180997 0
vt 0.2111 -146.435
vn -0.919708 0.392603 0
vt 0.0241 -146.21
vn -0.919708 0.392603 0
vt 0.2111 -146.21
vn -0.74399 0.668191 0
vt 0.0241 -145.88
vn -0.74399 0.668191 0
vt 0.2111 -145.88
vn -0.313497 0.949589 0
vt 0.0241 -145.46
vn -0.313497 0.949589 0
vt 0.2111 -145.46
vn 0.313496 0.949589 0
vt 0.0241 -145.01
vn 0.313496 0.949589 0
vt 0.2111 -145.01
vn 0.74399 0.668191 0
vt 0.0241 -144.59
vn 0.74399 0.668191 0
vt 0.2111 -144.59
vn 0.919708 0.392603 0
vt 0.0241 -144.245
vn 0.919708 0.392603 0
vt 0.2111 -144.245
vn 0.983594 0.180399 0
vt 0.0241 -144.02
vn 0.983594 0.180399 0
vt 0.2111 -144.02
vn 0.983594 -0.180399 0
vt 0.3982 -144.02
vn 1 8.74228e-08 0
vt 0.3982 -143.945
vn 0.919708 -0.392603 0
vt 0.3982 -144.245
vn 0.74399 -0.668191 0
vt 0.3982 -144.59
vn 0.313497 -0.949589 0
vt 0.3982 -145.01
vn -0.313496 -0.949589 0
vt 0.3982 -145.46
vn -0.74399 -0.668191 0
vt 0.3982 -145.88
vn -0.919708 -0.392603 0
vt 0.3982 -146.21
vn -0.983484 -0.180997 0
vt 0.3982 -146.435
vn -1 -8.74228e-08 0
vt 0.3982 -146.525
vn -0.983484 0.180997 0
vt 0.3982 -146.435
vn -0.919708 0.392603 0
vt 0.3982 -146.21
vn -0.74399 0.668191 0
vt 0.3982 -145.88
vn -0.313497 0.949589 0
vt 0.3982 -145.46
vn 0.313496 0.949589 0
vt 0.3982 -145.01
vn 0.74399 0.668191 0
vt 0.3982 -144.59
vn 0.919708 0.392603 0
vt 0.3982 -144.245
vn 0.983594 0.180399 0
vt 0.3982 -144.02
vn 0.983594 -0.180399 0
vt 0.5852 -144.02
vn 1 8.74228e-08 0
vt 0.5852 -143.945
vn 0.919708 -0.392603 0
vt 0.5852 -144.245
vn 0.74399 -0.668191 0
vt 0.5852 -144.59
vn 0.313497 -0.949589 0
vt 0.5852 -145.01
vn -0.313496 -0.949589 0
vt 0.5852 -145.46
vn -0.74399 -0.668191 0
vt 0.5852 -145.88
vn -0.919708 -0.392603 0
vt 0.5852 -146.21
vn -0.983484 -0.180997 0
vt 0.5852 -146.435
vn -1 -8.74228e-08 0
vt 0.5852 -146.525
vn -0.983484 0.180997 0
vt 0.5852 -146.435
vn -0.919708 0.392603 0
vt 0.5852 -146.21
vn -0.74399 0.668191 0
vt 0.5852 -145.88
vn -0.313497 0.949589 0
vt 0.5852 -145.46
vn 0.313496 0.949589 0
vt 0.5852 -145.01
vn 0.74399 0.668191 0
vt 0.5852 -144.59
vn 0.919708 0.392603 0
vt 0.5852 -144.245
vn 0.983594 0.180399 0
vt 0.5852 -144.02
vn 0.983594 -0.180399 0
vt 0.7723 -144.02
vn 1 8.74228e-08 0
vt 0.7723 -143.945
vn 0.919708 -0.392603 0
vt 0.7723 -144.245
vn 0.74399 -0.668191 0
vt 0.7723 -144.59
vn 0.313497 -0.949589 0
vt 0.7723 -145.01
vn -0.313496 -0.949589 0
vt 0.7723 -145.46
vn -0.74399 -0.668191 0
vt 0.7723 -145.88
vn -0.919708 -0.392603 0
vt 0.7723 -146.21
vn -0.983484 -0.180997 0
vt 0.7723 -146.435
vn -1 -8.74228e-08 0
vt 0.7723 -146.525
vn -0.983484 0.180997 0
vt 0.7723 -146.435
vn -0.919708 0.392603 0
vt 0.7723 -146.21
vn -0.74399 0.668191 0
vt 0.7723 -145.88
vn -0.313497 0.949589 0
vt 0.7723 -145.46
vn 0.313496 0.949589 0
vt 0.7723 -145.01
vn 0.74399 0.668191 0
vt 0.7723 -144.59
vn 0.919708 0.392603 0
vt 0.7723 -144.245
vn 0.983594 0.180399 0
vt 0.7723 -144.02
vn 0.983594 -0.180399 0
vt 0.9594 -144.02
vn 1 8.74228e-08 0
vt 0.9594 -143.945
vn 0.919708 -0.392603 0
vt 0.9594 -144.245
vn 0.74399 -0.668191 0
vt 0.9594 -144.59
vn 0.313497 -0.949589 0
vt 0.9594 -145.01
vn -0.313496 -0.949589 0
vt 0.9594 -145.46
vn -0.74399 -0.668191 0
vt 0.9594 -145.88
vn -0.919708 -0.392603 0
vt 0.9594 -146.21
vn -0.983484 -0.180997 0
vt 0.9594 -146.435
vn -1 -8.74228e-08 0
vt 0.9594 -146.525
vn -0.983484 0.180997 0
vt 0.9594 -146.435
vn -0.919708 0.392603 0
vt 0.9594 -146.21
vn -0.74399 0.668191 0
vt 0.9594 -145.88
vn -0.313497 0.949589 0
vt 0.9594 -145.46
vn 0.313496 0.949589 0
vt 0.9594 -145.01
vn 0.74399 0.668191 0
vt 0.9594 -144.59
vn 0.919708 0.392603 0
vt 0.9594 -144.245
vn 0.983594 0.180399 0
vt 0.9594 -144.02
vn 0 0 1
vt 0.0241 -143.945
vn 0 0 1
vt 0.0241 -144.245
vn 0 0 1
vt 0.0241 -144.59
vn 0 0 1
vt 0.0241 -145.01
vn 0 0 1
vt 0.0241 -145.88
vn 0 0 1
vt 0.0241 -146.435
vn 0 0 1
vt 0.0241 -145.46
vn 0 0 1
vt 0.0241 -146.21
vn 0 0 1
vt 0.0241 -145.88
vn 0 0 1
vt 0.0241 -146.525
vn 0 0 1
vt 0.0241 -146.435
vn 0 0 1
vt 0.0241 -146.21
vn 0 0 1
vt 0.0241 -145.01
vn 0 0 1
vt 0.0241 -144.245
vn 0 0 1
vt 0.0241 -145.46
vn 0 0 1
vt 0.0241 -144.59
vn 0 0 1
vt 0.0241 -144.02
vn 0 0 1
vt 0.0241 -144.02
vn 0 0 -1
vt 0.9594 -144.245
vn 0 0 -1
vt 0.9594 -144.59
vn 0 0 -1
vt 0.9594 -144.02
vn 0 0 -1
vt 0.9594 -144.02
vn 0 0 -1
vt 0.9594 -145.46
vn 0 0 -1
vt 0.9594 -146.21
vn 0 0 -1
vt 0.9594 -145.01
vn 0 0 -1
vt 0.9594 -145.88
vn 0 0 -1
vt 0.9594 -146.435
vn 0 0 -1
vt 0.9594 -146.525
vn 0 0 -1
vt 0.9594 -146.21
vn 0 0 -1
vt 0.9594 -146.435
vn 0 0 -1
vt 0.9594 -145.46
vn 0 0 -1
vt 0.9594 -144.59
vn 0 0 -1
vt 0.9594 -145.88
vn 0 0 -1
vt 0.9594 -145.01
vn 0 0 -1
vt 0.9594 -144.245
vn 0 0 -1
vt 0.9594 -143.945
f 1/1/1 2/2/2 3/3/3
f 1/1/1 3/3/3 4/4/4
f 5/5/5 6/6/6 4/4/4
f 5/5/5 4/4/4 3/3/3
f 6/6/6 5/5/5 7/7/7
f 6/6/6 7/7/7 8/8/8
f 8/8/8 7/7/7 9/9/9
f 8/8/8 9/9/9 10/10/10
f 10/10/10 9/9/9 11/11/11
f 10/10/10 11/11/11 12/12/12
f 12/12/12 11/11/11 13/13/13
f 12/12/12 13/13/13 14/14/14
f 14/14/14 13/13/13 15/15/15
f 14/14/14 15/15/15 16/16/16
f 16/16/16 15/15/15 17/17/17
f 16/16/16 17/17/17 18/18/18
f 18/18/18 17/17/17 19/19/19
f 18/18/18 19/19/19 20/20/20
f 20/20/20 19/19/19 21/21/21
f 20/20/20 21/21/21 22/22/22
f 22/22/22 21/21/21 23/23/23
f 22/22/22 23/23/23 24/24/24
f 24/24/24 23/23/23 25/25/25
f 24/24/24 25/25/25 26/26/26
f 26/26/26 25/25/25 27/27/27
f 26/26/26 27/27/27 28/28/28
f 28/28/28 27/27/27 29/29/29
f 28/28/28 29/29/29 30/30/30
f 30/30/30 29/29/29 31/31/31
f 30/30/30 31/31/31 32/32/32
f 32/32/32 31/31/31 33/33/33
f 32/32/32 33/33/33 34/34/34
f 34/34/34 33/33/33 35/35/35
f 34/34/34 35/35/35 36/36/36
f 35/35/35 2/2/2 1/1/1
f 35/35/35 1/1/1 36/36/36
f 37/37/37 38/38/38 1/1/1
f 37/37/37 1/1/1 4/4/4
f 37/37/37 4/4/4 6/6/6
f 37/37/37 6/6/6 39/39/39
f 40/40/40 39/39/39 6/6/6
f 40/40/40 6/6/6 8/8/8
f 40/40/40 8/8/8 10/10/10
f 40/40/40 10/10/10 41/41/41
f 42/42/42 41/41/41 10/10/10
f 42/42/42 10/10/10 12/12/12
f 43/43/43 42/42/42 12/12/12
f 43/43/43 12/12/12 14/14/14
f 44/44/44 43/43/43 14/14/14
f 44/44/44 14/14/14 16/16/16
f 45/45/45 44/44/44 16/16/16
f 45/45/45 16/16/16 18/18/18
f 46/46/46 45/45/45 18/18/18
f 46/46/46 18/18/18 20/20/20
f 46/46/46 20/20/20 22/22/22
f 46/46/46 22/22/22 47/47/47
f 48/48/48 47/47/47 22/22/22
f 48/48/48 22/22/22 24/24/24
f 24/24/24 26/26/26 49/49/49
f 24/24/24 49/49/49 48/48/48
f 50/50/50 49/49/49 26/26/26
f 50/50/50 26/26/26 28/28/28
f 51/51/51 50/50/50 28/28/28
f 51/51/51 28/28/28 30/30/30
f 52/52/52 51/51/51 30/30/30
f 52/52/52 30/30/30 32/32/32
f 53/53/53 52/52/52 32/32/32
f 53/53/53 32/32/32 34/34/34
f 54/54/54 53/53/53 34/34/34
f 54/54/54 34/34/34 36/36/36
f 38/38/38 54/54/54 36/36/36
f 38/38/38 36/36/36 1/1/1
f 38/38/38 37/37/37 55/55/55
f 38/38/38 55/55/55 56/56/56
f 55/55/55 37/37/37 39/39/39
f 55/55/55 39/39/39 57/57/57
f 58/58/58 57/57/57 39/39/39
f 58/58/58 39/39/39 40/40/40
f 58/58/58 40/40/40 41/41/41
f 58/58/58 41/41/41 59/59/59
f 59/59/59 41/41/41 42/42/42
f 59/59/59 42/42/42 60/60/60
f 60/60/60 42/42/42 43/43/43
f 60/60/60 43/43/43 61/61/61
f 44/44/44 62/62/62 61/61/61
f 44/44/44 61/61/61 43/43/43
f 44/44/44 45/45/45 63/63/63
f 44/44/44 63/63/63 62/62/62
f 45/45/45 46/46/46 64/64/64
f 45/45/45 64/64/64 63/63/63
f 46/46/46 47/47/47 65/65/65
f 46/46/46 65/65/65 64/64/64
f 48/48/48 66/66/66 65/65/65
f 48/48/48 65/65/65 47/47/47
f 48/48/48 49/49/49 67/67/67
f 48/48/48 67/67/67 66/66/66
f 49/49/49 50/50/50 68/68/68
f 49/49/49 68/68/68 67/67/67
f 51/51/51 69/69/69 68/68/68
f 51/51/51 68/68/68 50/50/50
f 51/51/51 52/52/52 70/70/70
f 51/51/51 70/70/70 69/69/69
f 71/71/71 70/70/70 52/52/52
f 71/71/71 52/52/52 53/53/53
f 72/72/72 71/71/71 53/53/53
f 72/72/72 53/53/53 54/54/54
f 56/56/56 72/72/72 54/54/54
f 56/56/56 54/54/54 38/38/38
f 55/55/55 73/73/73 74/74/74
f 55/55/55 74/74/74 56/56/56
f 75/75/75 73/73/73 55/55/55
f 75/75/75 55/55/55 57/57/57
f 76/76/76 75/75/75 57/57/57
f 76/76/76 57/57/57 58/58/58
f 58/58/58 59/59/59 77/77/77
f 58/58/58 77/77/77 76/76/76
f 77/77/77 59/59/59 60/60/60
f 77/77/77 60/60/60 78/78/78
f 60/60/60 61/61/61 79/79/79
f 60/60/60 79/79/79 78/78/78
f 79/79/79 61/61/61 62/62/62
f 79/79/79 62/62/62 80/80/80
f 62/62/62 63/63/63 81/81/81
f 62/62/62 81/81/81 80/80/80
f 82/82/82 81/81/81 63/63/63
f 82/82/82 63/63/63 64/64/64
f 64/64/64 65/65/65 83/83/83
f 64/64/64 83/83/83 82/82/82
f 84/84/84 83/83/83 65/65/65
f 84/84/84 65/65/65 66/66/66
f 66/66/66 67/67/67 85/85/85
f 66/66/66 85/85/85 84/84/84
f 85/85/85 67/67/67 68/68/68
f 85/85/85 68/68/68 86/86/86
f 68/68/68 69/69/69 87/87/87
f 68/68/68 87/87/87 86/86/86
f 69/69/69 70/70/70 88/88/88
f 69/69/69 88/88/88 87/87/87
f 70/70/70 71/71/71 89/89/89
f 70/70/70 89/89/89 88/88/88
f 72/72/72 90/90/90 89/89/89
f 72/72/72 89/89/89 71/71/71
f 74/74/74 90/90/90 72/72/72
f 74/74/74 72/72/72 56/56/56
f 91/91/91 92/92/92 74/74/74
f 91/91/91 74/74/74 73/73/73
f 75/75/75 93/93/93 91/91/91
f 75/75/75 91/91/91 73/73/73
f 93/93/93 75/75/75 76/76/76
f 93/93/93 76/76/76 94/94/94
f 77/77/77 95/95/95 94/94/94
f 77/77/77 94/94/94 76/76/76
f 95/95/95 77/77/77 78/78/78
f 95/95/95 78/78/78 96/96/96
f 79/79/79 97/97/97 96/96/96
f 79/79/79 96/96/96 78/78/78
f 97/97/97 79/79/79 80/80/80
f 97/97/97 80/80/80 98/98/98
f 81/81/81 99/99/99 98/98/98
f 81/81/81 98/98/98 80/80/80
f 99/99/99 81/81/81 82/82/82
f 99/99/99 82/82/82 100/100/100
f 100/100/100 82/82/82 83/83/83
f 100/100/100 83/83/83 101/101/101
f 101/101/101 83/83/83 84/84/84
f 101/101/101 84/84/84 102/102/102
f 85/85/85 103/103/103 102/102/102
f 85/85/85 102/102/102 84/84/84
f 86/86/86 104/104/104 103/103/103
f 86/86/86 103/103/103 85/85/85
f 87/87/87 105/105/105 104/104/104
f 87/87/87 104/104/104 86/86/86
f 87/87/87 88/88/88 106/106/106
f 87/87/87 106/106/106 105/105/105
f 89/89/89 107/107/107 106/106/106
f 89/89/89 106/106/106 88/88/88
f 107/107/107 89/89/89 90/90/90
f 107/107/107 90/90/90 108/108/108
f 92/92/92 108/108/108 90/90/90
f 92/92/92 90/90/90 74/74/74
f 2/109/109 33/110/110 31/111/111
f 2/109/109 31/111/111 29/112/112
f 25/113/113 21/114/114 29/112/112
f 25/113/113 29/112/112 27/115/115
f 25/113/113 23/116/116 21/114/114
f 13/117/117 21/114/114 19/118/118
f 13/117/117 19/118/118 17/119/119
f 17/119/119 15/120/120 13/117/117
f 9/121/121 5/122/122 13/117/117
f 9/121/121 13/117/117 11/123/123
f 9/121/121 7/124/124 5/122/122
f 5/122/122 29/112/112 21/114/114
f 5/122/122 21/114/114 13/117/117
f 2/109/109 29/112/112 5/122/122
f 2/109/109 5/122/122 3/125/125
f 35/126/126 33/110/110 2/109/109
f 93/127/127 94/128/128 108/129/129
f 93/127/127 108/129/129 91/130/130
f 96/131/131 98/132/132 94/128/128
f 96/131/131 94/128/128 95/133/133
f 96/131/131 97/134/134 98/132/132
f 98/132/132 99/135/135 100/136/136
f 98/132/132 100/136/136 102/137/137
f 100/136/136 101/138/138 102/137/137
f 104/139/139 106/140/140 102/137/137
f 104/139/139 102/137/137 103/141/141
f 104/139/139 105/142/142 106/140/140
f 94/128/128 98/132/132 102/137/137
f 94/128/128 102/137/137 106/140/140
f 108/129/129 94/128/128 106/140/140
f 108/129/129 106/140/140 107/143/143
f 92/144/144 91/130/130 108/129/129
