#
# Exported by OpenBRF -- marco tarini
#
s dragon_spear.2
newmtl dragoon_spear_neck_2
Ka 0.8 0.8 0.8
Kd 0.2 0.2 0.2
usemtl dragoon_spear_neck_2
v -0.0115808 -0.0115137 1.77326
v -0.000289791 -0.0160518 1.77326
v -0.000289791 -0.0160518 1.76686
v -0.0115808 -0.0115137 1.76686
v 0.0112183 -0.01172 1.77326
v 0.0112183 -0.01172 1.76686
v 0.0159953 -0.00078732 1.77326
v 0.0159953 -0.00078732 1.76686
v -0.0162491 -0.00078732 1.77326
v -0.0162491 -0.00078732 1.76686
v -0.0115808 0.0099391 1.77326
v -0.0115808 0.0099391 1.76686
v -0.000289791 0.0144772 1.76686
v -0.000289791 0.0144772 1.77326
v 0.0112183 0.0101454 1.76686
v 0.0112183 0.0101454 1.77326
v -0.0115808 -0.0115137 1.76168
v -0.000289791 -0.0160518 1.76168
v -0.000289791 -0.0217245 1.61126
v -0.0149463 -0.015433 1.61126
v 0.0112183 -0.01172 1.76168
v 0.0143668 -0.0157424 1.61126
v 0.0159953 -0.00078732 1.76168
v 0.0206636 -0.00078732 1.61126
v -0.0162491 -0.00078732 1.76168
v -0.0209175 -0.00078732 1.61126
v -0.0115808 0.0099391 1.76168
v -0.0149463 0.0138584 1.61126
v -0.000289791 0.0201498 1.61126
v -0.000289791 0.0144772 1.76168
v 0.0143668 0.0141678 1.61126
v 0.0112183 0.0101454 1.76168
v -0.0115808 -0.0115137 1.79304
v -0.000289791 -0.0160518 1.79304
v -0.000289791 -0.0160518 1.787
v -0.0115808 -0.0115137 1.787
v 0.0112183 -0.01172 1.79304
v 0.0112183 -0.01172 1.787
v 0.0159953 -0.00078732 1.79157
v 0.0159953 -0.00078732 1.787
v -0.0162491 -0.00078732 1.79304
v -0.0162491 -0.00078732 1.787
v -0.0115808 0.0099391 1.79304
v -0.0115808 0.0099391 1.787
v -0.000289791 0.0144772 1.787
v -0.000289791 0.0144772 1.79304
v 0.0112183 0.0101454 1.787
v 0.0112183 0.0101454 1.79304
vn -0.408342 -0.912829 0
vt 2.28464 -1.1495
vn -0.408342 -0.912829 0
vt 2.6768 -1.1495
vn -0.408342 -0.912829 0
vt 2.6768 -0.8345
vn -0.408342 -0.912829 0
vt 2.28464 -0.8345
vn 0.390966 -0.920405 0
vt 3.07136 -1.1495
vn 0.390966 -0.920405 0
vt 3.07136 -0.8345
vn 0.928955 -0.370192 0
vt 3.23792 -1.1495
vn 0.928955 -0.370192 0
vt 3.23792 -0.8345
vn -0.932166 -0.36203 0
vt 2.12576 -1.1495
vn -0.932166 -0.36203 0
vt 2.12576 -0.8345
vn -0.408342 0.912829 0
vt 2.6768 -0.8345
vn -0.408342 0.912829 0
vt 2.6768 -1.1495
vn -0.408342 0.912829 0
vt 2.28464 -1.1495
vn -0.408342 0.912829 0
vt 2.28464 -0.8345
vn 0.390966 0.920405 0
vt 3.07136 -0.8345
vn 0.390966 0.920405 0
vt 3.07136 -1.1495
vn -0.419985 -0.907235 0.0231737
vt 1.0852 -1.4235
vn -0.419985 -0.907235 0.0231737
vt 1.33744 -1.4235
vn -0.419985 -0.907235 0.0231737
vt 1.3384 0.25
vn -0.419985 -0.907235 0.0231737
vt 1.14232 0.25
vn 0.402312 -0.915207 0.0232728
vt 1.5916 -1.4235
vn 0.402312 -0.915207 0.0232728
vt 1.53568 0.25
vn 0.93302 -0.359331 0.0188334
vt 1.69864 -1.4235
vn 0.93302 -0.359331 0.0188334
vt 1.61896 0.25
vn -0.936076 -0.35129 0.0189081
vt 0.98272 -1.4235
vn -0.936076 -0.35129 0.0189081
vt 1.06288 0.25
vn -0.419985 0.907235 0.0231737
vt 1.3384 0.25
vn -0.419985 0.907235 0.0231737
vt 1.33744 -1.4235
vn -0.419985 0.907235 0.0231737
vt 1.0852 -1.4235
vn -0.419985 0.907235 0.0231737
vt 1.14232 0.25
vn 0.402312 0.915207 0.0232728
vt 1.53568 0.25
vn 0.402312 0.915207 0.0232728
vt 1.5916 -1.4235
vn -0.408342 -0.912829 0
vt 2.7962 0.4915
vn -0.408342 -0.912829 0
vt 3.2858 0.513
vn -0.408342 -0.912829 0
vt 3.3008 0.7395
vn -0.408342 -0.912829 0
vt 2.8568 0.7185
vn 0.390966 -0.920405 0
vt 3.779 0.513
vn 0.390966 -0.920405 0
vt 3.794 0.7395
vn 0.928955 -0.370192 0
vt 3.992 0.5045
vn 0.928955 -0.370192 0
vt 4.0022 0.7395
vn -0.932166 -0.36203 0
vt 2.597 0.4875
vn -0.932166 -0.36203 0
vt 2.6576 0.7185
vn -0.408342 0.912829 0
vt 3.3008 0.7395
vn -0.408342 0.912829 0
vt 3.2858 0.513
vn -0.408342 0.912829 0
vt 2.7962 0.4915
vn -0.408342 0.912829 0
vt 2.8568 0.7185
vn 0.390966 0.920405 0
vt 3.794 0.7395
vn 0.390966 0.920405 0
vt 3.779 0.513
f 4/1/1 3/2/2 2/3/3
f 4/1/1 2/3/3 1/4/4
f 3/2/2 6/5/5 5/6/6
f 3/2/2 5/6/6 2/3/3
f 6/5/5 8/7/7 7/8/8
f 6/5/5 7/8/8 5/6/6
f 10/9/9 4/1/1 1/4/4
f 10/9/9 1/4/4 9/10/10
f 14/11/11 13/12/12 12/13/13
f 14/11/11 12/13/13 11/14/14
f 16/15/15 15/16/16 13/12/12
f 16/15/15 13/12/12 14/11/11
f 7/8/8 8/7/7 15/16/16
f 7/8/8 15/16/16 16/15/15
f 11/14/14 12/13/13 10/9/9
f 11/14/14 10/9/9 9/10/10
f 20/17/17 19/18/18 18/19/19
f 20/17/17 18/19/19 17/20/20
f 19/18/18 22/21/21 21/22/22
f 19/18/18 21/22/22 18/19/19
f 22/21/21 24/23/23 23/24/24
f 22/21/21 23/24/24 21/22/22
f 26/25/25 20/17/17 17/20/20
f 26/25/25 17/20/20 25/26/26
f 30/27/27 29/28/28 28/29/29
f 30/27/27 28/29/29 27/30/30
f 32/31/31 31/32/32 29/28/28
f 32/31/31 29/28/28 30/27/27
f 23/24/24 24/23/23 31/32/32
f 23/24/24 31/32/32 32/31/31
f 27/30/30 28/29/29 26/25/25
f 27/30/30 26/25/25 25/26/26
f 36/33/33 35/34/34 34/35/35
f 36/33/33 34/35/35 33/36/36
f 35/34/34 38/37/37 37/38/38
f 35/34/34 37/38/38 34/35/35
f 38/37/37 40/39/39 39/40/40
f 38/37/37 39/40/40 37/38/38
f 42/41/41 36/33/33 33/36/36
f 42/41/41 33/36/36 41/42/42
f 46/43/43 45/44/44 44/45/45
f 46/43/43 44/45/45 43/46/46
f 48/47/47 47/48/48 45/44/44
f 48/47/47 45/44/44 46/43/43
f 39/40/40 40/39/39 47/48/48
f 39/40/40 47/48/48 48/47/47
f 43/46/46 44/45/45 42/41/41
f 43/46/46 42/41/41 41/42/42
