#
# Exported by OpenBRF -- marco tarini
#
s dragon_spear
newmtl dragoon_spear_head
Ka 0.8 0.8 0.8
Kd 0.2 0.2 0.2
usemtl dragoon_spear_head
v 0.0172013 -0.000761295 1.91678
v -0.0131021 -0.000761317 2.30495
v 0.0132882 -0.000761317 2.30495
v -0.0170152 -0.000761295 1.91678
v 9.3017e-05 -0.000761317 2.33441
v 9.3017e-05 0.0103246 1.91678
v 9.3017e-05 -0.0118472 1.91678
v -0.0321142 -0.000761306 1.99622
v 0.0396225 -0.000761306 2.08825
v 0.0323002 -0.000761306 1.99622
v -0.0394364 -0.000761306 2.08825
v 9.3017e-05 0.0103246 2.08825
v 9.3017e-05 0.0103246 1.99622
v 9.3017e-05 -0.0118472 1.99622
v 9.3017e-05 -0.0118472 2.08825
v 0.0198201 -0.000761317 2.28053
v -0.0196341 -0.000761317 2.28053
v 9.3017e-05 0.0103246 2.28058
v 9.3017e-05 -0.0118472 2.28058
v 9.3017e-05 -0.0118472 2.10511
v 0.029174 -0.000761306 2.10509
v -0.0289879 -0.000761306 2.10509
v 9.3017e-05 0.0103246 2.10511
v -0.0211117 -0.000761306 2.0269
v 0.0212157 -0.000761306 2.05758
v 0.0212977 -0.000761306 2.0269
v -0.0210297 -0.000761306 2.05758
v 9.3017e-05 0.0103246 2.05758
v 9.3017e-05 0.0103246 2.0269
v 9.3017e-05 -0.0118472 2.0269
v 9.3017e-05 -0.0118472 2.05758
v -0.0175064 -0.000761295 1.94326
v 0.0176925 -0.000761295 1.94326
v 9.3017e-05 -0.0118472 1.94326
v 9.3017e-05 -0.0118472 1.96974
v 0.0203009 -0.000761295 1.96974
v -0.0201149 -0.000761295 1.96974
v 9.3017e-05 0.0103246 1.96974
v 9.3017e-05 0.0103246 1.94326
vn 0 1 0.000576925
vt 0.887557 0.758582
vn 0 0.997843 0.0656427
vt 0.887557 0.733927
vn -0.464011 0.885829 0.000766117
vt 0.86632 0.733927
vn -0.375128 0.922375 -0.0922127
vt 0.866402 0.758582
vn -0.463306 -0.886198 0
vt 0.86632 0.733927
vn 7.33417e-09 -0.997843 0.0656427
vt 0.887557 0.733927
vn -8.61473e-09 -1 0.000576925
vt 0.887557 0.758582
vn -0.464718 -0.885458 0.00153457
vt 0.86632 0.733927
vn -0.464718 -0.885458 0.00153457
vt 0.866402 0.758582
vn 0.375128 0.922375 -0.0922131
vt 0.908712 0.758582
vn 0.464011 0.885829 0.000766117
vt 0.908794 0.733927
vn 0.463306 -0.886198 0
vt 0.908794 0.733927
vn 0.464718 -0.885458 0.00153457
vt 0.908794 0.733927
vn 0.464718 -0.885458 0.00153457
vt 0.908712 0.758582
vn -1.10595e-08 0.999349 -0.0360875
vt 0.887557 0.783237
vn -0.269608 0.961355 -0.0557547
vt 0.847967 0.783237
vn -0.347141 0.936935 0.0405797
vt 0.858431 0.796766
vn 7.45058e-09 0.9999 0.0141387
vt 0.887557 0.796785
vn -0.494195 0.862083 -0.112181
vt 0.867318 0.687989
vn 0 0.996374 -0.0850809
vt 0.887557 0.687989
vn -0.281333 0.959458 -0.0171052
vt 0.887557 0.666705
vn -0.536368 0.843589 -0.0258358
vt 0.86993 0.666705
vn -0.264426 -0.942876 0.202642
vt 0.858431 0.796766
vn -0.264426 -0.942876 0.202642
vt 0.847967 0.783237
vn 1.10595e-08 -0.999349 -0.0360875
vt 0.887557 0.783237
vn -0.356135 -0.93419 0.0213861
vt 0.858431 0.796766
vn -7.45058e-09 -0.9999 0.0141386
vt 0.887557 0.796785
vn -0.281333 -0.959458 -0.0171059
vt 0.887557 0.666705
vn 0 -0.996374 -0.0850818
vt 0.887557 0.687989
vn -0.494196 -0.862082 -0.112182
vt 0.867318 0.687989
vn -0.531862 -0.844358 -0.0646766
vt 0.86993 0.666705
vn 0.494195 0.862083 -0.112181
vt 0.907796 0.687989
vn 0.532696 0.845686 -0.0323881
vt 0.887557 0.666705
vn 0.536366 0.84359 -0.0258351
vt 0.905183 0.666705
vn 0.34714 0.936935 0.0405798
vt 0.916683 0.796766
vn 0.269608 0.961355 -0.0557552
vt 0.927147 0.783237
vn 0.264426 -0.942876 0.202641
vt 0.927147 0.783237
vn 0.347141 -0.936935 0.0405797
vt 0.916683 0.796766
vn 0.494195 -0.862083 -0.112181
vt 0.907796 0.687989
vn 0.532696 -0.845686 -0.0323886
vt 0.887557 0.666705
vn 0.53186 -0.844359 -0.0646743
vt 0.905183 0.666705
vn 0 0.998321 0.0579258
vt 0.887557 0.93781
vn -0.417831 0.908262 0.0218325
vt 0.8678 0.937771
vn -0.439135 0.876212 0.198528
vt 0.874342 0.957397
vn 0 0.969158 0.24644
vt 0.887557 0.981067
vn -0.439136 -0.876211 0.198529
vt 0.874342 0.957397
vn -0.483849 -0.860441 0.159786
vt 0.8678 0.937771
vn 0 -0.998321 0.0579257
vt 0.887557 0.93781
vn 0 -0.969158 0.24644
vt 0.887557 0.981067
vn 0.439134 0.876212 0.198528
vt 0.900772 0.957397
vn 0.41783 0.908263 0.0218325
vt 0.907314 0.937771
vn 0.483849 -0.860441 0.159784
vt 0.907314 0.937771
vn 0.439135 -0.876212 0.198528
vt 0.900772 0.957397
vn -0.413567 -0.910372 0.0136095
vt 0.8678 0.937771
vn 0.413566 -0.910372 0.0136095
vt 0.907314 0.937771
vn -0.386232 0.922392 -0.00415769
vt 0.8553 0.709273
vn -0.453854 0.86812 0.200959
vt 0.86632 0.733927
vn 0 1 2.49594e-07
vt 0.887557 0.709273
vn -0.340593 -0.93171 -0.126147
vt 0.866402 0.758582
vn -0.264784 -0.94415 -0.196139
vt 0.847967 0.783237
vn -0.453856 -0.868119 0.20096
vt 0.86632 0.733927
vn -0.453856 -0.868119 0.20096
vt 0.8553 0.709273
vn -0.362786 -0.929655 -0.064254
vt 0.8553 0.709273
vn 0 -1 0
vt 0.887557 0.709273
vn 0.453855 0.868119 0.200959
vt 0.908794 0.733927
vn 0.386232 0.922392 -0.00415769
vt 0.919814 0.709273
vn 0.340592 -0.93171 -0.126148
vt 0.908712 0.758582
vn 0.264783 -0.94415 -0.196139
vt 0.927147 0.783237
vn 0.453856 -0.868119 0.20096
vt 0.919814 0.709273
vn 0.453856 -0.868119 0.20096
vt 0.908794 0.733927
vn 0.362786 -0.929655 -0.064254
vt 0.919814 0.709273
vn -0.538336 0.842708 -0.00616384
vt 0.887557 0.645422
vn -0.543758 0.83915 -0.012452
vt 0.870422 0.645422
vn -0.538335 -0.842708 -0.00616429
vt 0.887557 0.645422
vn -0.538335 -0.842708 -0.00616429
vt 0.86993 0.666705
vn -0.543757 -0.83915 -0.0124519
vt 0.870422 0.645422
vn 0.532976 0.84613 0
vt 0.887557 0.645422
vn 0.543756 0.839151 -0.0124519
vt 0.887557 0.645422
vn 0.543756 0.839151 -0.0124519
vt 0.904691 0.645422
vn 0.538333 -0.84271 -0.00616429
vt 0.905183 0.666705
vn 0.538333 -0.84271 -0.00616429
vt 0.887557 0.645422
vn 0.543755 -0.839151 -0.0124518
vt 0.904691 0.645422
f 28/1/1 29/2/2 24/3/3
f 28/1/1 24/3/3 27/4/4
f 24/5/5 30/6/6 31/7/7
f 24/8/8 31/7/7 27/9/9
f 28/1/1 25/10/10 26/11/11
f 28/1/1 26/11/11 29/2/2
f 31/7/7 30/6/6 26/12/12
f 31/7/7 26/13/13 25/14/14
f 12/15/15 11/16/16 22/17/17
f 12/15/15 22/17/17 23/18/18
f 37/19/19 38/20/20 39/21/21
f 37/19/19 39/21/21 32/22/22
f 22/23/23 11/24/24 15/25/25
f 22/26/26 15/25/25 20/27/27
f 34/28/28 35/29/29 37/30/30
f 34/28/28 37/30/30 32/31/31
f 39/21/21 38/20/20 36/32/32
f 39/33/33 36/32/32 33/34/34
f 21/35/35 9/36/36 12/15/15
f 21/35/35 12/15/15 23/18/18
f 15/25/25 9/37/37 21/38/38
f 15/25/25 21/38/38 20/27/27
f 36/39/39 35/29/29 34/28/28
f 36/39/39 34/40/40 33/41/41
f 18/42/42 17/43/43 2/44/44
f 18/42/42 2/44/44 5/45/45
f 2/46/46 17/47/47 19/48/48
f 2/46/46 19/48/48 5/49/49
f 3/50/50 16/51/51 18/42/42
f 3/50/50 18/42/42 5/45/45
f 19/48/48 16/52/52 3/53/53
f 19/48/48 3/53/53 5/49/49
f 23/18/18 22/17/17 17/43/43
f 23/18/18 17/43/43 18/42/42
f 17/54/54 22/26/26 20/27/27
f 17/54/54 20/27/27 19/48/48
f 16/51/51 21/35/35 23/18/18
f 16/51/51 23/18/18 18/42/42
f 20/27/27 21/38/38 16/55/55
f 20/27/27 16/55/55 19/48/48
f 12/15/15 28/1/1 27/4/4
f 12/15/15 27/4/4 11/16/16
f 8/56/56 24/57/57 29/2/2
f 8/56/56 29/2/2 13/58/58
f 27/59/59 31/7/7 15/25/25
f 27/59/59 15/25/25 11/60/60
f 30/6/6 24/61/61 8/62/62
f 30/6/6 8/63/63 14/64/64
f 29/2/2 26/65/65 10/66/66
f 29/2/2 10/66/66 13/58/58
f 25/10/10 28/1/1 12/15/15
f 25/10/10 12/15/15 9/36/36
f 15/25/25 31/7/7 25/67/67
f 15/25/25 25/67/67 9/68/68
f 10/69/69 26/70/70 30/6/6
f 10/71/71 30/6/6 14/64/64
f 32/22/22 39/21/21 6/72/72
f 32/22/22 6/72/72 4/73/73
f 38/20/20 37/19/19 8/56/56
f 38/20/20 8/56/56 13/58/58
f 7/74/74 34/28/28 32/75/75
f 7/74/74 32/75/75 4/76/76
f 8/63/63 37/30/30 35/29/29
f 8/63/63 35/29/29 14/64/64
f 6/77/77 39/33/33 33/34/34
f 6/78/78 33/34/34 1/79/79
f 10/66/66 36/32/32 38/20/20
f 10/66/66 38/20/20 13/58/58
f 33/80/80 34/40/40 7/81/81
f 33/80/80 7/81/81 1/82/82
f 35/29/29 36/39/39 10/71/71
f 35/29/29 10/71/71 14/64/64
