#
# Exported by OpenBRF -- marco tarini
#
s dragon_spear.3
newmtl dragoon_spear_neck_3
Ka 0.8 0.8 0.8
Kd 0.2 0.2 0.2
usemtl dragoon_spear_neck_3
v 0.0132837 -0.00632461 1.79762
v 0.00550967 -0.0141238 1.79762
v -0.0055023 -0.014106 1.79762
v 0.0133015 0.00468736 1.79762
v -0.0133015 -0.00633198 1.79762
v -0.0132837 0.00467999 1.79762
v -0.00550967 0.0124792 1.79762
v 0.0055023 0.0124614 1.79762
v 0.00550967 -0.0141238 1.85303
v 0.00958317 -0.0239581 1.84184
v 0.0230905 -0.0103867 1.84184
v 0.0132837 -0.00632461 1.85303
v -0.0055023 -0.014106 1.85303
v -0.0095644 -0.0239128 1.84184
v -0.0133015 -0.00633198 1.85303
v -0.0231358 -0.0104055 1.84184
v -0.0132837 0.00467999 1.85303
v -0.0230905 0.00874209 1.84184
v -0.00550967 0.0124792 1.85303
v -0.00958317 0.0223135 1.84184
v 0.0055023 0.0124614 1.85303
v 0.0095644 0.0222682 1.84184
v 0.0133015 0.00468736 1.85303
v 0.0231358 0.00876085 1.84184
v 0.00903481 -0.0226343 1.80781
v 0.0217532 -0.00983279 1.80781
v 0.0257651 -0.0114946 1.82528
v 0.0106538 -0.0265428 1.82528
v -0.00901048 -0.0225755 1.80781
v -0.0106722 -0.0265874 1.82528
v -0.021812 -0.00985712 1.80781
v -0.0257205 -0.0114761 1.82528
v -0.0217532 0.00818816 1.80781
v -0.0257651 0.00984993 1.82528
v -0.00903481 0.0209897 1.80781
v -0.0106538 0.0248982 1.82528
v 0.00901048 0.0209309 1.80781
v 0.0106722 0.0249428 1.82528
v 0.021812 0.0082125 1.80781
v 0.0257205 0.00983145 1.82528
vn 0 0 -1
vt 0 1
vn 0 0 -1
vt 0 1
vn 0 0 -1
vt 0 1
vn 0 0 -1
vt 0 1
vn 0 0 -1
vt 0 1
vn 0 0 -1
vt 0 1
vn 0 0 -1
vt 0 1
vn 0 0 -1
vt 0 1
vn 0.396514 -0.396448 0.828013
vt 0 1
vn 0.396514 -0.396448 0.828013
vt 0 1
vn 0.396514 -0.396448 0.828013
vt 0 1
vn 0.396514 -0.396448 0.828013
vt 0 1
vn -4.66766e-05 -0.560709 0.828013
vt 0 1
vn -4.66766e-05 -0.560709 0.828013
vt 0 1
vn -4.66766e-05 -0.560709 0.828013
vt 0 1
vn -4.66766e-05 -0.560709 0.828013
vt 0 1
vn -0.396448 -0.396514 0.828013
vt 0 1
vn -0.396448 -0.396514 0.828013
vt 0 1
vn -0.396448 -0.396514 0.828013
vt 0 1
vn -0.396448 -0.396514 0.828013
vt 0 1
vn -0.560709 4.66536e-05 0.828013
vt 0 1
vn -0.560709 4.66536e-05 0.828013
vt 0 1
vn -0.560709 4.66536e-05 0.828013
vt 0 1
vn -0.560709 4.66536e-05 0.828013
vt 0 1
vn -0.396514 0.396448 0.828013
vt 0 1
vn -0.396514 0.396448 0.828013
vt 0 1
vn -0.396514 0.396448 0.828013
vt 0 1
vn -0.396514 0.396448 0.828013
vt 0 1
vn 4.66766e-05 0.560709 0.828013
vt 0 1
vn 4.66766e-05 0.560709 0.828013
vt 0 1
vn 4.66766e-05 0.560709 0.828013
vt 0 1
vn 4.66766e-05 0.560709 0.828013
vt 0 1
vn 0.396448 0.396514 0.828013
vt 0 1
vn 0.396448 0.396514 0.828013
vt 0 1
vn 0.396448 0.396514 0.828013
vt 0 1
vn 0.396448 0.396514 0.828013
vt 0 1
vn 0.560709 -4.66538e-05 0.828013
vt 0 1
vn 0.560709 -4.66538e-05 0.828013
vt 0 1
vn 0.560709 -4.66538e-05 0.828013
vt 0 1
vn 0.560709 -4.66538e-05 0.828013
vt 0 1
vn 0.660694 -0.660752 -0.356215
vt 0 1
vn 0.660694 -0.660752 -0.356215
vt 0 1
vn 0.660694 -0.660752 -0.356215
vt 0 1
vn 0.660694 -0.660752 -0.356215
vt 0 1
vn 4.12215e-05 -0.934404 -0.356215
vt 0 1
vn 4.12215e-05 -0.934404 -0.356215
vt 0 1
vn 4.12215e-05 -0.934404 -0.356215
vt 0 1
vn 4.12215e-05 -0.934404 -0.356215
vt 0 1
vn -0.660753 -0.660694 -0.356215
vt 0 1
vn -0.660753 -0.660694 -0.356215
vt 0 1
vn -0.660753 -0.660694 -0.356215
vt 0 1
vn -0.660753 -0.660694 -0.356215
vt 0 1
vn -0.934404 -4.12192e-05 -0.356215
vt 0 1
vn -0.934404 -4.12192e-05 -0.356215
vt 0 1
vn -0.934404 -4.12192e-05 -0.356215
vt 0 1
vn -0.934404 -4.12192e-05 -0.356215
vt 0 1
vn -0.660694 0.660752 -0.356215
vt 0 1
vn -0.660694 0.660752 -0.356215
vt 0 1
vn -0.660694 0.660752 -0.356215
vt 0 1
vn -0.660694 0.660752 -0.356215
vt 0 1
vn -4.12215e-05 0.934404 -0.356215
vt 0 1
vn -4.12215e-05 0.934404 -0.356215
vt 0 1
vn -4.12215e-05 0.934404 -0.356215
vt 0 1
vn -4.12215e-05 0.934404 -0.356215
vt 0 1
vn 0.660753 0.660694 -0.356215
vt 0 1
vn 0.660753 0.660694 -0.356215
vt 0 1
vn 0.660753 0.660694 -0.356215
vt 0 1
vn 0.660753 0.660694 -0.356215
vt 0 1
vn 0.934404 4.12192e-05 -0.356215
vt 0 1
vn 0.934404 4.12192e-05 -0.356215
vt 0 1
vn 0.934404 4.12192e-05 -0.356215
vt 0 1
vn 0.934404 4.12192e-05 -0.356215
vt 0 1
vn 0.410211 -0.410236 -0.814515
vt 0 1
vn 0.410211 -0.410236 -0.814515
vt 0 1
vn 1.76604e-05 -0.580143 -0.814515
vt 0 1
vn 1.76604e-05 -0.580143 -0.814515
vt 0 1
vn -0.410236 -0.410211 -0.814515
vt 0 1
vn -0.410236 -0.410211 -0.814515
vt 0 1
vn -0.580143 -1.76719e-05 -0.814515
vt 0 1
vn -0.580143 -1.76719e-05 -0.814515
vt 0 1
vn -0.410211 0.410236 -0.814515
vt 0 1
vn -0.410211 0.410236 -0.814515
vt 0 1
vn -1.76604e-05 0.580143 -0.814515
vt 0 1
vn -1.76604e-05 0.580143 -0.814515
vt 0 1
vn 0.410236 0.410211 -0.814515
vt 0 1
vn 0.410236 0.410211 -0.814515
vt 0 1
vn 0.580143 1.76719e-05 -0.814515
vt 0 1
vn 0.580143 1.76719e-05 -0.814515
vt 0 1
vn 0 0 1
vt 0 1
vn 0 0 1
vt 0 1
vn 0 0 1
vt 0 1
vn 0 0 1
vt 0 1
vn 0 0 1
vt 0 1
vn 0 0 1
vt 0 1
vn 0 0 1
vt 0 1
vn 0 0 1
vt 0 1
f 1/1/1 2/2/2 3/3/3
f 1/1/1 3/3/3 4/4/4
f 3/3/3 5/5/5 6/6/6
f 3/3/3 6/6/6 7/7/7
f 3/3/3 7/7/7 8/8/8
f 3/3/3 8/8/8 4/4/4
f 9/9/9 10/10/10 11/11/11
f 9/9/9 11/11/11 12/12/12
f 13/13/13 14/14/14 10/15/15
f 13/13/13 10/15/15 9/16/16
f 15/17/17 16/18/18 14/19/19
f 15/17/17 14/19/19 13/20/20
f 17/21/21 18/22/22 16/23/23
f 17/21/21 16/23/23 15/24/24
f 19/25/25 20/26/26 18/27/27
f 19/25/25 18/27/27 17/28/28
f 21/29/29 22/30/30 20/31/31
f 21/29/29 20/31/31 19/32/32
f 23/33/33 24/34/34 22/35/35
f 23/33/33 22/35/35 21/36/36
f 12/37/37 11/38/38 24/39/39
f 12/37/37 24/39/39 23/40/40
f 25/41/41 26/42/42 27/43/43
f 25/41/41 27/43/43 28/44/44
f 29/45/45 25/46/46 28/47/47
f 29/45/45 28/47/47 30/48/48
f 31/49/49 29/50/50 30/51/51
f 31/49/49 30/51/51 32/52/52
f 33/53/53 31/54/54 32/55/55
f 33/53/53 32/55/55 34/56/56
f 35/57/57 33/58/58 34/59/59
f 35/57/57 34/59/59 36/60/60
f 37/61/61 35/62/62 36/63/63
f 37/61/61 36/63/63 38/64/64
f 39/65/65 37/66/66 38/67/67
f 39/65/65 38/67/67 40/68/68
f 26/69/69 39/70/70 40/71/71
f 26/69/69 40/71/71 27/72/72
f 2/73/73 1/74/74 26/42/42
f 2/73/73 26/42/42 25/41/41
f 3/75/75 2/76/76 25/46/46
f 3/75/75 25/46/46 29/45/45
f 5/77/77 3/78/78 29/50/50
f 5/77/77 29/50/50 31/49/49
f 6/79/79 5/80/80 31/54/54
f 6/79/79 31/54/54 33/53/53
f 7/81/81 6/82/82 33/58/58
f 7/81/81 33/58/58 35/57/57
f 8/83/83 7/84/84 35/62/62
f 8/83/83 35/62/62 37/61/61
f 4/85/85 8/86/86 37/66/66
f 4/85/85 37/66/66 39/65/65
f 1/87/87 4/88/88 39/70/70
f 1/87/87 39/70/70 26/69/69
f 28/44/44 27/43/43 11/11/11
f 28/44/44 11/11/11 10/10/10
f 30/48/48 28/47/47 10/15/15
f 30/48/48 10/15/15 14/14/14
f 32/52/52 30/51/51 14/19/19
f 32/52/52 14/19/19 16/18/18
f 34/56/56 32/55/55 16/23/23
f 34/56/56 16/23/23 18/22/22
f 36/60/60 34/59/59 18/27/27
f 36/60/60 18/27/27 20/26/26
f 38/64/64 36/63/63 20/31/31
f 38/64/64 20/31/31 22/30/30
f 40/68/68 38/67/67 22/35/35
f 40/68/68 22/35/35 24/34/34
f 27/72/72 40/71/71 24/39/39
f 27/72/72 24/39/39 11/38/38
f 23/89/89 21/90/90 19/91/91
f 23/89/89 19/91/91 9/92/92
f 19/91/91 17/93/93 15/94/94
f 19/91/91 15/94/94 9/92/92
f 15/94/94 13/95/95 9/92/92
f 12/96/96 23/89/89 9/92/92
