#
# Exported by OpenBRF -- marco tarini
#
s ylyq_zaoyun_qiang
newmtl ylyq_zaoyun
Ka 0.8 0.8 0.8
Kd 0.2 0.2 0.2
usemtl ylyq_zaoyun
v -0.037531 -0.004616 -0.894613
v -0.001676 -0.030335 -0.929532
v -0.001522 -0.018809 -0.810009
v -0.001486 -0.024602 -0.795141
v -0.001602 -0.03891 -0.894506
v 0.012955 -0.004092 -0.8101
v 0.016816 0.004386 0.864483
v 0.001051 -0.010853 0.864577
v 0.018655 0.005445 1.13671
v -0.031897 0.007116 1.46652
v -0.03878 0.006861 1.41658
v 0.002289 -0.000146 1.7345
v 0.001478 -0.006391 1.18883
v 0.001542 -0.002919 1.23678
v 0.055735 0.007206 1.43741
v 0.050593 0.006934 1.38277
v -0.012245 0.005799 1.17737
v -0.027222 0.005827 1.19107
v -0.022686 0.0098 1.18649
v -0.022133 0.005879 1.19946
v 0.001608 0.02367 1.32274
v -0.023933 0.008559 1.76554
v -0.035786 0.00832 1.72118
v 0.021569 0.005747 1.14901
v 0.02287 0.005831 1.16602
v 0.001368 0.02267 1.1633
v 0.036427 0.006196 1.23619
v 0.033681 0.006131 1.22388
v 0.001418 0.018164 1.18871
v 0.044515 0.011637 1.39399
v -0.023324 -0.003607 -0.689192
v -0.001325 -0.024678 -0.689126
v -0.001486 -0.024602 -0.795141
v -0.001375 -0.003545 -0.687926
v 0.012955 -0.004092 -0.8101
v 0.019892 -0.004004 -0.795269
v 0.016816 0.004386 0.864483
v 0.001051 -0.010853 0.864577
v 0.000488 -0.012589 0.490478
v -0.022667 0.001833 1.18652
v 0.002289 -0.000146 1.7345
v 0.025575 0.001951 1.18645
v 0.001478 -0.006391 1.18883
v 0.002416 0.003142 1.82375
v -0.012245 0.005799 1.17737
v -0.027222 0.005827 1.19107
v -0.014608 0.006176 1.2582
v -0.023933 0.008559 1.76554
v 0.002247 0.017097 1.73442
v 0.001395 0.014661 1.16788
v 0.030124 0.005967 1.19099
v 0.03271 0.005911 1.17794
v 0.036427 0.006196 1.23619
v 0.031425 0.006239 1.2478
v 0.001418 0.018164 1.18871
v 0.001498 0.015147 1.2367
v 0.001553 0.0204 1.2816
v 0.040281 0.008505 1.72106
v 0.030764 0.008274 1.67728
v -0.023014 -0.004345 -0.844831
v -0.001676 -0.030335 -0.929532
v -0.001557 -0.026212 -0.844757
v -0.001559 -0.035593 -0.861459
v -0.001602 -0.03891 -0.894506
v 0.034159 -0.004442 -0.894722
v 0.016221 0.002611 0.490381
v 0.016816 0.004386 0.864483
v 0.000488 -0.012589 0.490478
v -0.046376 0.002181 1.29772
v -0.023191 -0.006506 1.31032
v -0.060528 0.006341 1.31881
v 0.002135 -0.000627 1.63182
v 0.001478 -0.006391 1.18883
v -0.012245 0.005799 1.17737
v -0.012008 0.005762 1.16941
v -0.013945 0.006213 1.26575
v -0.014608 0.006176 1.2582
v -0.023831 0.007841 1.61412
v 0.002247 0.017097 1.73442
v -0.0264 0.008135 1.67736
v 0.001395 0.014661 1.16788
v 0.030124 0.005967 1.19099
v 0.020855 0.006072 1.21802
v 0.01812 0.006014 1.20706
v 0.025061 0.005994 1.19939
v 0.001418 0.018164 1.18871
v 0.001553 0.0204 1.2816
v 0.028563 0.008687 1.76546
v 0.040281 0.008505 1.72106
v -0.023014 -0.004345 -0.844831
v -0.034159 -0.004451 -0.861555
v -0.001676 -0.030335 -0.929532
v -0.001559 -0.035593 -0.861459
v 0.02551 -0.004629 -0.929695
v 0.034159 -0.004442 -0.894722
v -0.014946 0.005364 1.13676
v 0.000976 0.019549 0.864433
v 0.001815 0.021585 1.13656
v 0.001691 -0.010626 1.3229
v -0.023191 -0.006506 1.31032
v -0.050172 0.006527 1.35235
v 0.002135 -0.000627 1.63182
v 0.002289 -0.000146 1.7345
v 0.001478 -0.006391 1.18883
v 0.001542 -0.002919 1.23678
v -0.012245 0.005799 1.17737
v -0.021777 0.005796 1.18174
v -0.022686 0.0098 1.18649
v -0.014035 0.006337 1.2919
v -0.023254 0.01931 1.3102
v 0.002247 0.017097 1.73442
v -0.0264 0.008135 1.67736
v 0.030124 0.005967 1.19099
v 0.025555 0.009917 1.18641
v 0.020855 0.006072 1.21802
v 0.001418 0.018164 1.18871
v 0.001553 0.0204 1.2816
v 0.002388 0.014656 1.8237
v 0.028563 0.008687 1.76546
v -0.028986 -0.004761 -0.929612
v -0.001676 -0.030335 -0.929532
v -0.001325 -0.024678 -0.689126
v -0.001816 -0.00494 -0.981285
v -0.001375 -0.003545 -0.687926
v 0.020571 -0.0035 -0.689258
v -0.014789 0.004309 0.864527
v -0.014946 0.005364 1.13676
v 0.000976 0.019549 0.864433
v -0.068106 0.006121 1.27662
v -0.046376 0.002181 1.29772
v -0.023191 -0.006506 1.31032
v -0.060528 0.006341 1.31881
v -0.050172 0.006527 1.35235
v 0.001451 -0.011139 1.16346
v 0.064154 0.006665 1.31862
v -0.007807 0.009166 1.88539
v 0.001608 0.02367 1.32274
v -0.023254 0.01931 1.3102
v 0.002093 0.016603 1.63174
v 0.002578 0.009455 1.94088
v 0.049939 0.010624 1.29753
v 0.02287 0.005831 1.16602
v 0.014846 0.005827 1.16937
v 0.026452 0.019431 1.31012
v 0.001553 0.0204 1.2816
v 0.028005 0.007967 1.61404
v 0.002388 0.014656 1.8237
v 0.030764 0.008274 1.67728
v 0.031773 0.007656 1.54655
v 0.001964 0.016189 1.54583
v -0.001559 -0.035593 -0.861459
v 0.019792 -0.004241 -0.844895
v 0.030887 -0.004293 -0.861654
v -0.014789 0.004309 0.864527
v 0.000414 0.017734 0.490334
v 0.000976 0.019549 0.864433
v -0.024556 0.006377 1.30571
v -0.023191 -0.006506 1.31032
v -0.03878 0.006861 1.41658
v -0.051753 0.006927 1.43757
v -0.040663 0.002084 1.39416
v 0.001438 -0.003087 1.16796
v 0.001451 -0.011139 1.16346
v 0.053899 0.006797 1.35219
v -0.013363 0.008864 1.82452
v -0.020297 0.006306 1.28847
v 0.001608 0.02367 1.32274
v -0.014035 0.006337 1.2919
v 0.002093 0.016603 1.63174
v -0.023933 0.008559 1.76554
v 0.002247 0.017097 1.73442
v 0.014846 0.005827 1.16937
v 0.026452 0.019431 1.31012
v 0.001553 0.0204 1.2816
v 0.028005 0.007967 1.61404
v 0.002388 0.014656 1.8237
v 0.030764 0.008274 1.67728
v 0.002006 -0.001028 1.54592
v 0.001964 0.016189 1.54583
v -0.001557 -0.026212 -0.844757
v -0.001559 -0.035593 -0.861459
v 0.019792 -0.004241 -0.844895
v -0.014789 0.004309 0.864527
v -0.015319 0.002534 0.490428
v 0.000414 0.017734 0.490334
v -0.044768 0.006267 1.29457
v -0.068106 0.006121 1.27662
v -0.046376 0.002181 1.29772
v 0.001691 -0.010626 1.3229
v -0.031897 0.007116 1.46652
v 0.071606 0.006484 1.2764
v 0.025575 0.001951 1.18645
v 0.064154 0.006665 1.31862
v 0.053899 0.006797 1.35219
v -0.013363 0.008864 1.82452
v -0.007807 0.009166 1.88539
v -0.020282 0.006217 1.26978
v -0.020297 0.006306 1.28847
v 0.002093 0.016603 1.63174
v 0.049939 0.010624 1.29753
v 0.024651 0.005909 1.18167
v 0.03271 0.005911 1.17794
v 0.026452 0.019431 1.31012
v 0.001553 0.0204 1.2816
v 0.028005 0.007967 1.61404
v 0.002388 0.014656 1.8237
v -0.027802 0.007512 1.54664
v 0.001964 0.016189 1.54583
v -0.001676 -0.030335 -0.929532
v -0.001816 -0.00494 -0.981285
v 0.02551 -0.004629 -0.929695
v -0.014789 0.004309 0.864527
v -0.014946 0.005364 1.13676
v 0.001894 -0.010776 1.13671
v -0.024556 0.006377 1.30571
v -0.044768 0.006267 1.29457
v -0.046376 0.002181 1.29772
v 0.001691 -0.010626 1.3229
v -0.031897 0.007116 1.46652
v -0.046774 0.006681 1.38292
v -0.040663 0.002084 1.39416
v 0.027803 0.006505 1.30563
v 0.001451 -0.011139 1.16346
v 0.042699 0.007073 1.41646
v 0.055735 0.007206 1.43741
v -0.020282 0.006217 1.26978
v -0.013945 0.006213 1.26575
v -0.023831 0.007841 1.61412
v 0.021569 0.005747 1.14901
v 0.01724 0.006414 1.29185
v 0.026452 0.019431 1.31012
v 0.001553 0.0204 1.2816
v 0.044515 0.011637 1.39399
v 0.001964 0.016189 1.54583
v -0.034159 -0.004451 -0.861555
v -0.001712 0.026849 -0.861753
v -0.00177 0.029852 -0.894833
v -0.014789 0.004309 0.864527
v 0.001051 -0.010853 0.864577
v 0.001894 -0.010776 1.13671
v 0.018655 0.005445 1.13671
v -0.024556 0.006377 1.30571
v -0.046376 0.002181 1.29772
v 0.001691 -0.010626 1.3229
v -0.023191 -0.006506 1.31032
v -0.03878 0.006861 1.41658
v -0.050172 0.006527 1.35235
v -0.046774 0.006681 1.38292
v -0.040663 0.002084 1.39416
v 0.048322 0.006509 1.29443
v 0.071606 0.006484 1.2764
v 0.035967 0.007292 1.46642
v -0.015169 0.005933 1.20711
v -0.022133 0.005879 1.19946
v 0.001608 0.02367 1.32274
v -0.023831 0.007841 1.61412
v 0.002093 0.016603 1.63174
v 0.049939 0.010624 1.29753
v 0.021569 0.005747 1.14901
v 0.001418 0.018164 1.18871
v 0.002006 -0.001028 1.54592
v 0.031773 0.007656 1.54655
v -0.037531 -0.004616 -0.894613
v -0.034159 -0.004451 -0.861555
v -0.00177 0.029852 -0.894833
v -0.014789 0.004309 0.864527
v -0.015319 0.002534 0.490428
v 0.001051 -0.010853 0.864577
v -0.022667 0.001833 1.18652
v 0.001691 -0.010626 1.3229
v -0.031897 0.007116 1.46652
v -0.03878 0.006861 1.41658
v 0.027803 0.006505 1.30563
v 0.048322 0.006509 1.29443
v 0.001451 -0.011139 1.16346
v 0.001478 -0.006391 1.18883
v 0.055735 0.007206 1.43741
v 0.044537 0.002306 1.39403
v 0.050593 0.006934 1.38277
v -0.012245 0.005799 1.17737
v -0.030679 0.005975 1.22398
v -0.017871 0.005978 1.21808
v 0.001608 0.02367 1.32274
v 0.049939 0.010624 1.29753
v 0.021569 0.005747 1.14901
v 0.02287 0.005831 1.16602
v 0.001498 0.015147 1.2367
v 0.028005 0.007967 1.61404
v 0.044515 0.011637 1.39399
v 0.002006 -0.001028 1.54592
v -0.023324 -0.003607 -0.689192
v -0.001428 0.017569 -0.689323
v -0.001586 0.016487 -0.795334
v -0.015319 0.002534 0.490428
v 0.001051 -0.010853 0.864577
v 0.000488 -0.012589 0.490478
v 0.002135 -0.000627 1.63182
v 0.002289 -0.000146 1.7345
v 0.027803 0.006505 1.30563
v 0.001438 -0.003087 1.16796
v 0.001622 -0.007746 1.28173
v 0.001542 -0.002919 1.23678
v 0.042699 0.007073 1.41646
v -0.012245 0.005799 1.17737
v -0.012008 0.005762 1.16941
v -0.028352 0.006094 1.24789
v 0.001608 0.02367 1.32274
v -0.013945 0.006213 1.26575
v -0.014608 0.006176 1.2582
v 0.049939 0.010624 1.29753
v 0.036427 0.006196 1.23619
v 0.031425 0.006239 1.2478
v 0.026452 0.019431 1.31012
v 0.001498 0.015147 1.2367
v 0.028005 0.007967 1.61404
v 0.040281 0.008505 1.72106
v 0.030764 0.008274 1.67728
v 0.044515 0.011637 1.39399
v 0.002006 -0.001028 1.54592
v -0.027802 0.007512 1.54664
v -0.022965 -0.004108 -0.795203
v -0.023324 -0.003607 -0.689192
v -0.001586 0.016487 -0.795334
v 0.030887 -0.004293 -0.861654
v 0.034159 -0.004442 -0.894722
v -0.00177 0.029852 -0.894833
v 0.002289 -0.000146 1.7345
v 0.001438 -0.003087 1.16796
v 0.001478 -0.006391 1.18883
v 0.001622 -0.007746 1.28173
v 0.001542 -0.002919 1.23678
v 0.035967 0.007292 1.46642
v 0.042699 0.007073 1.41646
v -0.012245 0.005799 1.17737
v -0.033388 0.006026 1.23629
v -0.030679 0.005975 1.22398
v 0.001608 0.02367 1.32274
v -0.014608 0.006176 1.2582
v -0.023831 0.007841 1.61412
v 0.015106 0.005865 1.17733
v 0.030124 0.005967 1.19099
v 0.025555 0.009917 1.18641
v 0.025061 0.005994 1.19939
v 0.001418 0.018164 1.18871
v 0.001498 0.015147 1.2367
v 0.028563 0.008687 1.76546
v 0.040281 0.008505 1.72106
v 0.002006 -0.001028 1.54592
v -0.016072 -0.004163 -0.810056
v -0.001594 0.010554 -0.810148
v -0.001664 0.017627 -0.844967
v -0.001712 0.026849 -0.861753
v 0.030887 -0.004293 -0.861654
v -0.00177 0.029852 -0.894833
v -0.022667 0.001833 1.18652
v 0.001691 -0.010626 1.3229
v -0.023191 -0.006506 1.31032
v 0.002135 -0.000627 1.63182
v 0.002289 -0.000146 1.7345
v 0.025575 0.001951 1.18645
v 0.001478 -0.006391 1.18883
v 0.001622 -0.007746 1.28173
v 0.002416 0.003142 1.82375
v -0.012245 0.005799 1.17737
v -0.021777 0.005796 1.18174
v -0.027222 0.005827 1.19107
v -0.022686 0.0098 1.18649
v -0.029847 0.005759 1.17804
v -0.023831 0.007841 1.61412
v 0.015106 0.005865 1.17733
v 0.001395 0.014661 1.16788
v 0.014846 0.005827 1.16937
v 0.030124 0.005967 1.19099
v 0.001553 0.0204 1.2816
v 0.017072 0.006289 1.2657
v 0.017712 0.006255 1.25816
v 0.028563 0.008687 1.76546
v -0.023014 -0.004345 -0.844831
v -0.016072 -0.004163 -0.810056
v -0.001664 0.017627 -0.844967
v 0.020571 -0.0035 -0.689258
v 0.019892 -0.004004 -0.795269
v -0.001586 0.016487 -0.795334
v -0.023191 -0.006506 1.31032
v 0.002135 -0.000627 1.63182
v 0.002289 -0.000146 1.7345
v 0.049958 0.002431 1.29757
v 0.026515 -0.006385 1.31024
v 0.001622 -0.007746 1.28173
v 0.064154 0.006665 1.31862
v 0.002416 0.003142 1.82375
v -0.007807 0.009166 1.88539
v -0.017871 0.005978 1.21808
v -0.015169 0.005933 1.20711
v -0.014035 0.006337 1.2919
v 0.002578 0.009455 1.94088
v 0.015106 0.005865 1.17733
v 0.001395 0.014661 1.16788
v 0.001418 0.018164 1.18871
v 0.001498 0.015147 1.2367
v 0.001553 0.0204 1.2816
v 0.017712 0.006255 1.25816
v 0.030764 0.008274 1.67728
v -0.016072 -0.004163 -0.810056
v -0.001594 0.010554 -0.810148
v -0.001428 0.017569 -0.689323
v 0.020571 -0.0035 -0.689258
v -0.001586 0.016487 -0.795334
v 0.001691 -0.010626 1.3229
v 0.002135 -0.000627 1.63182
v 0.026515 -0.006385 1.31024
v 0.001622 -0.007746 1.28173
v 0.053899 0.006797 1.35219
v 0.002416 0.003142 1.82375
v -0.013363 0.008864 1.82452
v -0.017871 0.005978 1.21808
v -0.020297 0.006306 1.28847
v 0.001608 0.02367 1.32274
v -0.014035 0.006337 1.2919
v -0.023933 0.008559 1.76554
v 0.015106 0.005865 1.17733
v 0.024651 0.005909 1.18167
v 0.025555 0.009917 1.18641
v 0.001418 0.018164 1.18871
v 0.026452 0.019431 1.31012
v 0.001498 0.015147 1.2367
v 0.001553 0.0204 1.2816
v 0.028005 0.007967 1.61404
v 0.030764 0.008274 1.67728
v -0.016072 -0.004163 -0.810056
v -0.022965 -0.004108 -0.795203
v 0.012955 -0.004092 -0.8101
v 0.019792 -0.004241 -0.844895
v -0.001664 0.017627 -0.844967
v -0.001586 0.016487 -0.795334
v 0.071606 0.006484 1.2764
v 0.049958 0.002431 1.29757
v 0.026515 -0.006385 1.31024
v 0.001622 -0.007746 1.28173
v 0.064154 0.006665 1.31862
v 0.053899 0.006797 1.35219
v 0.002416 0.003142 1.82375
v -0.013363 0.008864 1.82452
v -0.007807 0.009166 1.88539
v -0.020043 0.005726 1.16609
v -0.012008 0.005762 1.16941
v -0.020282 0.006217 1.26978
v -0.020297 0.006306 1.28847
v 0.002578 0.009455 1.94088
v 0.012797 0.009217 1.88535
v 0.001368 0.02267 1.1633
v 0.01724 0.006414 1.29185
v 0.026452 0.019431 1.31012
v 0.001553 0.0204 1.2816
v 0.002388 0.014656 1.8237
v 0.002006 -0.001028 1.54592
v -0.027802 0.007512 1.54664
v -0.037531 -0.004616 -0.894613
v -0.001801 0.020944 -0.929775
v -0.001594 0.010554 -0.810148
v 0.012955 -0.004092 -0.8101
v -0.001664 0.017627 -0.844967
v -0.00177 0.029852 -0.894833
v -0.031897 0.007116 1.46652
v 0.027803 0.006505 1.30563
v 0.026515 -0.006385 1.31024
v 0.001622 -0.007746 1.28173
v 0.042699 0.007073 1.41646
v 0.055735 0.007206 1.43741
v 0.044537 0.002306 1.39403
v -0.012008 0.005762 1.16941
v -0.020282 0.006217 1.26978
v -0.013945 0.006213 1.26575
v 0.01817 0.008941 1.82447
v 0.001368 0.02267 1.1633
v 0.001395 0.014661 1.16788
v 0.023492 0.006412 1.2884
v 0.01724 0.006414 1.29185
v 0.001553 0.0204 1.2816
v 0.002388 0.014656 1.8237
v 0.028563 0.008687 1.76546
v 0.002006 -0.001028 1.54592
v -0.028986 -0.004761 -0.929612
v -0.037531 -0.004616 -0.894613
v -0.001801 0.020944 -0.929775
v 0.012955 -0.004092 -0.8101
v 0.019892 -0.004004 -0.795269
v -0.001586 0.016487 -0.795334
v 0.001691 -0.010626 1.3229
v -0.050172 0.006527 1.35235
v -0.046774 0.006681 1.38292
v 0.048322 0.006509 1.29443
v 0.071606 0.006484 1.2764
v 0.049958 0.002431 1.29757
v 0.001478 -0.006391 1.18883
v 0.035967 0.007292 1.46642
v -0.021777 0.005796 1.18174
v -0.022686 0.0098 1.18649
v -0.029847 0.005759 1.17804
v -0.015169 0.005933 1.20711
v -0.022133 0.005879 1.19946
v 0.01817 0.008941 1.82447
v 0.012797 0.009217 1.88535
v 0.023421 0.006323 1.26972
v 0.023492 0.006412 1.2884
v 0.001553 0.0204 1.2816
v 0.002388 0.014656 1.8237
v 0.031773 0.007656 1.54655
v 0.001964 0.016189 1.54583
v -0.023324 -0.003607 -0.689192
v -0.001375 -0.003545 -0.687926
v -0.001594 0.010554 -0.810148
v 0.012955 -0.004092 -0.8101
v -0.001428 0.017569 -0.689323
v -0.001586 0.016487 -0.795334
v 0.016221 0.002611 0.490381
v 0.000414 0.017734 0.490334
v 0.001815 0.021585 1.13656
v -0.00134 0.011697 -0.693293
v 0.001691 -0.010626 1.3229
v 0.027803 0.006505 1.30563
v 0.049958 0.002431 1.29757
v 0.026515 -0.006385 1.31024
v 0.001542 -0.002919 1.23678
v 0.035967 0.007292 1.46642
v 0.044537 0.002306 1.39403
v 0.050593 0.006934 1.38277
v -0.018793 0.005648 1.14907
v -0.030679 0.005975 1.22398
v -0.017871 0.005978 1.21808
v 0.001368 0.02267 1.1633
v 0.023421 0.006323 1.26972
v 0.001553 0.0204 1.2816
v 0.017072 0.006289 1.2657
v -0.023014 -0.004345 -0.844831
v -0.034159 -0.004451 -0.861555
v 0.02551 -0.004629 -0.929695
v -0.001801 0.020944 -0.929775
v -0.001712 0.026849 -0.861753
v 0.034159 -0.004442 -0.894722
v -0.014946 0.005364 1.13676
v 0.016221 0.002611 0.490381
v 0.001815 0.021585 1.13656
v 0.014625 -0.003531 -0.693247
v -0.00134 0.011697 -0.693293
v 0.001691 -0.010626 1.3229
v 0.027803 0.006505 1.30563
v 0.048322 0.006509 1.29443
v 0.049958 0.002431 1.29757
v 0.001542 -0.002919 1.23678
v 0.042699 0.007073 1.41646
v 0.053899 0.006797 1.35219
v 0.044537 0.002306 1.39403
v 0.050593 0.006934 1.38277
v -0.018793 0.005648 1.14907
v -0.028352 0.006094 1.24789
v 0.001608 0.02367 1.32274
v -0.014608 0.006176 1.2582
v 0.01812 0.006014 1.20706
v 0.025061 0.005994 1.19939
v 0.001418 0.018164 1.18871
v -0.023014 -0.004345 -0.844831
v -0.001801 0.020944 -0.929775
v -0.001664 0.017627 -0.844967
v -0.001712 0.026849 -0.861753
v 0.034159 -0.004442 -0.894722
v -0.00177 0.029852 -0.894833
v 0.016221 0.002611 0.490381
v -0.001265 -0.018843 -0.693147
v 0.014625 -0.003531 -0.693247
v 0.001691 -0.010626 1.3229
v -0.051753 0.006927 1.43757
v -0.046774 0.006681 1.38292
v 0.025575 0.001951 1.18645
v 0.001478 -0.006391 1.18883
v 0.001542 -0.002919 1.23678
v 0.035967 0.007292 1.46642
v 0.042699 0.007073 1.41646
v -0.018793 0.005648 1.14907
v -0.020043 0.005726 1.16609
v -0.033388 0.006026 1.23629
v -0.030679 0.005975 1.22398
v -0.040684 0.011415 1.39412
v 0.015106 0.005865 1.17733
v 0.001368 0.02267 1.1633
v 0.033681 0.006131 1.22388
v 0.020855 0.006072 1.21802
v 0.001498 0.015147 1.2367
v -0.028986 -0.004761 -0.929612
v -0.001816 -0.00494 -0.981285
v -0.001375 -0.003545 -0.687926
v -0.001801 0.020944 -0.929775
v -0.001428 0.017569 -0.689323
v 0.020571 -0.0035 -0.689258
v 0.016221 0.002611 0.490381
v 0.000488 -0.012589 0.490478
v -0.001265 -0.018843 -0.693147
v -0.022667 0.001833 1.18652
v 0.001438 -0.003087 1.16796
v 0.001478 -0.006391 1.18883
v 0.001622 -0.007746 1.28173
v 0.001542 -0.002919 1.23678
v -0.027222 0.005827 1.19107
v -0.029847 0.005759 1.17804
v -0.033388 0.006026 1.23629
v -0.028352 0.006094 1.24789
v -0.035786 0.00832 1.72118
v 0.002247 0.017097 1.73442
v -0.0264 0.008135 1.67736
v 0.015106 0.005865 1.17733
v 0.031425 0.006239 1.2478
v 0.001498 0.015147 1.2367
v 0.017712 0.006255 1.25816
v -0.037531 -0.004616 -0.894613
v -0.034159 -0.004451 -0.861555
v -0.001602 -0.03891 -0.894506
v 0.019792 -0.004241 -0.844895
v -0.001664 0.017627 -0.844967
v -0.001712 0.026849 -0.861753
v -0.015319 0.002534 0.490428
v -0.017231 -0.003609 -0.693199
v -0.00134 0.011697 -0.693293
v 0.001438 -0.003087 1.16796
v 0.001478 -0.006391 1.18883
v 0.001622 -0.007746 1.28173
v 0.001542 -0.002919 1.23678
v -0.027222 0.005827 1.19107
v -0.017871 0.005978 1.21808
v -0.022133 0.005879 1.19946
v -0.023933 0.008559 1.76554
v -0.035786 0.00832 1.72118
v 0.002247 0.017097 1.73442
v 0.015106 0.005865 1.17733
v 0.014846 0.005827 1.16937
v 0.036427 0.006196 1.23619
v 0.033681 0.006131 1.22388
v 0.001418 0.018164 1.18871
v 0.001498 0.015147 1.2367
v 0.017072 0.006289 1.2657
v 0.017712 0.006255 1.25816
v -0.034159 -0.004451 -0.861555
v -0.001559 -0.035593 -0.861459
v -0.001602 -0.03891 -0.894506
v 0.019792 -0.004241 -0.844895
v -0.001712 0.026849 -0.861753
v 0.030887 -0.004293 -0.861654
v -0.015319 0.002534 0.490428
v 0.000414 0.017734 0.490334
v -0.00134 0.011697 -0.693293
v 0.025575 0.001951 1.18645
v 0.001478 -0.006391 1.18883
v 0.026515 -0.006385 1.31024
v 0.001622 -0.007746 1.28173
v -0.027222 0.005827 1.19107
v -0.022686 0.0098 1.18649
v -0.017871 0.005978 1.21808
v -0.015169 0.005933 1.20711
v -0.023933 0.008559 1.76554
v 0.002247 0.017097 1.73442
v 0.015106 0.005865 1.17733
v 0.024651 0.005909 1.18167
v 0.030124 0.005967 1.19099
v 0.03271 0.005911 1.17794
v 0.025555 0.009917 1.18641
v 0.001418 0.018164 1.18871
v 0.01724 0.006414 1.29185
v 0.002388 0.014656 1.8237
v -0.022965 -0.004108 -0.795203
v -0.023324 -0.003607 -0.689192
v -0.001486 -0.024602 -0.795141
v -0.001816 -0.00494 -0.981285
v 0.02551 -0.004629 -0.929695
v -0.001801 0.020944 -0.929775
v 0.000488 -0.012589 0.490478
v -0.017231 -0.003609 -0.693199
v -0.001265 -0.018843 -0.693147
v 0.001691 -0.010626 1.3229
v -0.060528 0.006341 1.31881
v 0.001438 -0.003087 1.16796
v 0.001451 -0.011139 1.16346
v 0.026515 -0.006385 1.31024
v 0.001622 -0.007746 1.28173
v 0.002416 0.003142 1.82375
v -0.046394 0.010374 1.29768
v -0.012008 0.005762 1.16941
v -0.023254 0.01931 1.3102
v 0.002093 0.016603 1.63174
v 0.002247 0.017097 1.73442
v -0.0264 0.008135 1.67736
v 0.002578 0.009455 1.94088
v 0.012797 0.009217 1.88535
v 0.020855 0.006072 1.21802
v 0.001418 0.018164 1.18871
v 0.001498 0.015147 1.2367
v -0.023324 -0.003607 -0.689192
v -0.001325 -0.024678 -0.689126
v -0.001486 -0.024602 -0.795141
v -0.001559 -0.035593 -0.861459
v -0.001602 -0.03891 -0.894506
v 0.030887 -0.004293 -0.861654
v -0.015319 0.002534 0.490428
v 0.000488 -0.012589 0.490478
v -0.017231 -0.003609 -0.693199
v -0.050172 0.006527 1.35235
v 0.001451 -0.011139 1.16346
v 0.001622 -0.007746 1.28173
v 0.002416 0.003142 1.82375
v -0.020043 0.005726 1.16609
v -0.012008 0.005762 1.16941
v 0.001608 0.02367 1.32274
v -0.023254 0.01931 1.3102
v -0.023831 0.007841 1.61412
v 0.002093 0.016603 1.63174
v -0.0264 0.008135 1.67736
v 0.01817 0.008941 1.82447
v 0.020855 0.006072 1.21802
v 0.01812 0.006014 1.20706
v 0.001418 0.018164 1.18871
v 0.023492 0.006412 1.2884
v 0.01724 0.006414 1.29185
v 0.028563 0.008687 1.76546
v -0.023014 -0.004345 -0.844831
v -0.016072 -0.004163 -0.810056
v -0.001557 -0.026212 -0.844757
v -0.001602 -0.03891 -0.894506
v 0.030887 -0.004293 -0.861654
v 0.034159 -0.004442 -0.894722
v 0.016816 0.004386 0.864483
v 0.001815 0.021585 1.13656
v 0.018655 0.005445 1.13671
v -0.068106 0.006121 1.27662
v -0.022667 0.001833 1.18652
v -0.060528 0.006341 1.31881
v -0.050172 0.006527 1.35235
v 0.001622 -0.007746 1.28173
v 0.002416 0.003142 1.82375
v -0.046394 0.010374 1.29768
v -0.021777 0.005796 1.18174
v -0.029847 0.005759 1.17804
v -0.023254 0.01931 1.3102
v 0.01817 0.008941 1.82447
v 0.012797 0.009217 1.88535
v 0.001368 0.02267 1.1633
v 0.001395 0.014661 1.16788
v 0.014846 0.005827 1.16937
v 0.023421 0.006323 1.26972
v 0.023492 0.006412 1.2884
v 0.002006 -0.001028 1.54592
v 0.031773 0.007656 1.54655
v -0.016072 -0.004163 -0.810056
v -0.001522 -0.018809 -0.810009
v -0.001557 -0.026212 -0.844757
v -0.001325 -0.024678 -0.689126
v -0.001486 -0.024602 -0.795141
v 0.020571 -0.0035 -0.689258
v -0.014946 0.005364 1.13676
v 0.016816 0.004386 0.864483
v 0.001894 -0.010776 1.13671
v 0.000976 0.019549 0.864433
v 0.001815 0.021585 1.13656
v -0.024556 0.006377 1.30571
v -0.03878 0.006861 1.41658
v -0.051753 0.006927 1.43757
v 0.001622 -0.007746 1.28173
v 0.035967 0.007292 1.46642
v -0.018793 0.005648 1.14907
v -0.014035 0.006337 1.2919
v -0.023254 0.01931 1.3102
v -0.040684 0.011415 1.39412
v 0.02287 0.005831 1.16602
v 0.001368 0.02267 1.1633
v 0.014846 0.005827 1.16937
v 0.023421 0.006323 1.26972
v 0.017072 0.006289 1.2657
v 0.001964 0.016189 1.54583
v -0.016072 -0.004163 -0.810056
v -0.022965 -0.004108 -0.795203
v -0.001486 -0.024602 -0.795141
v 0.020571 -0.0035 -0.689258
v 0.019892 -0.004004 -0.795269
v 0.016221 0.002611 0.490381
v 0.016816 0.004386 0.864483
v 0.001894 -0.010776 1.13671
v 0.000976 0.019549 0.864433
v -0.044768 0.006267 1.29457
v -0.068106 0.006121 1.27662
v 0.001691 -0.010626 1.3229
v -0.031897 0.007116 1.46652
v 0.001451 -0.011139 1.16346
v 0.001478 -0.006391 1.18883
v 0.053899 0.006797 1.35219
v 0.050593 0.006934 1.38277
v -0.046394 0.010374 1.29768
v -0.018793 0.005648 1.14907
v 0.001608 0.02367 1.32274
v 0.024651 0.005909 1.18167
v 0.03271 0.005911 1.17794
v 0.025555 0.009917 1.18641
v 0.01812 0.006014 1.20706
v 0.025061 0.005994 1.19939
v -0.016072 -0.004163 -0.810056
v -0.001522 -0.018809 -0.810009
v -0.001557 -0.026212 -0.844757
v -0.001486 -0.024602 -0.795141
v 0.012955 -0.004092 -0.8101
v 0.016221 0.002611 0.490381
v 0.000414 0.017734 0.490334
v 0.000976 0.019549 0.864433
v 0.001815 0.021585 1.13656
v 0.018655 0.005445 1.13671
v -0.024556 0.006377 1.30571
v -0.051753 0.006927 1.43757
v -0.046774 0.006681 1.38292
v -0.040663 0.002084 1.39416
v 0.001451 -0.011139 1.16346
v 0.001542 -0.002919 1.23678
v -0.046394 0.010374 1.29768
v -0.018793 0.005648 1.14907
v -0.020043 0.005726 1.16609
v 0.001608 0.02367 1.32274
v -0.023254 0.01931 1.3102
v -0.040684 0.011415 1.39412
v 0.021569 0.005747 1.14901
v 0.033681 0.006131 1.22388
v 0.020855 0.006072 1.21802
v -0.028986 -0.004761 -0.929612
v -0.037531 -0.004616 -0.894613
v -0.001676 -0.030335 -0.929532
v -0.001557 -0.026212 -0.844757
v 0.012955 -0.004092 -0.8101
v 0.019792 -0.004241 -0.844895
v 0.001051 -0.010853 0.864577
v 0.001894 -0.010776 1.13671
v 0.001815 0.021585 1.13656
v 0.018655 0.005445 1.13671
v -0.024556 0.006377 1.30571
v -0.044768 0.006267 1.29457
v -0.03878 0.006861 1.41658
v 0.002289 -0.000146 1.7345
v 0.001542 -0.002919 1.23678
v -0.046394 0.010374 1.29768
v -0.033388 0.006026 1.23629
v -0.028352 0.006094 1.24789
v 0.001608 0.02367 1.32274
v -0.035786 0.00832 1.72118
v -0.0264 0.008135 1.67736
v -0.040684 0.011415 1.39412
v 0.021569 0.005747 1.14901
v 0.001368 0.02267 1.1633
v 0.031425 0.006239 1.2478
v 0.017712 0.006255 1.25816
vn 0.008176 0.012549 -0.000832
vt 0.020984 -0.27163
vn 0.008176 0.012549 -0.000832
vt 0.027197 -0.40025
vn 0.008176 0.012549 -0.000832
vt 0.034631 -0.373823
vn 0.00493 0.013459 0.004426
vt 0.252981 -0.259271
vn 0.00208 0.014095 -0.004695
vt 0.298348 -0.193585
vn 0.003705 0.014508 -0.000904
vt 0.302187 -0.170587
vn 0.003361 0.007266 0.012686
vt 0.252978 -0.306719
vn 0.00486 0.008094 0.011658
vt 0.284898 -0.301708
vn 0.010225 0.010644 -0.002682
vt 0.278157 -0.333494
vn -0.003127 0.014653 -0.000732
vt 0.271179 -0.439739
vn -0.003664 0.014519 0.000901
vt 0.293566 -0.350097
vn 0.004157 0.014191 0.002524
vt 0.138543 -0.320988
vn -0.004925 0.014161 0.000483
vt 0.128523 -0.203418
vn -0.004925 0.014161 0.000483
vt 0.088492 -0.541539
vn -0.004981 0.013435 0.004441
vt 0.288074 -0.239371
vn -0.008803 0.012026 0.00171
vt 0.295608 -0.25505
vn -0.008803 0.012026 0.00171
vt 0.288852 -0.26358
vn -0.003236 0.011681 -0.008838
vt 0.273349 -0.280607
vn 0.003125 -0.01466 -0.000602
vt 0.333864 -0.414927
vn 0.008658 -0.012179 -0.001323
vt 0.252992 -0.169658
vn 0.004995 -0.013392 0.004553
vt 0.252981 -0.259271
vn 0.01038 0.01083 -0.000112
vt 0.254859 -0.505747
vn 0.01038 0.01083 -0.000112
vt 0.254851 -0.553852
vn 0.010433 -0.010779 -2.9e-05
vt 0.265659 -0.553852
vn 0.010605 0.010412 0.00204
vt 0.021188 -0.1094
vn 0.010392 -0.010766 0.001067
vt 0.005912 -0.182419
vn 0.010429 -0.010783 -2.4e-05
vt 0.005908 -0.082607
vn 0.010585 -0.010399 0.002205
vt 0.005898 -0.1094
vn 0.010241 -0.010642 -0.002627
vt 0.005905 -0.216884
vn -0.010384 0.01078 0.001005
vt 0.036517 -0.182419
vn 0.003053 0.014668 -0.000741
vt 0.271179 -0.439739
vn 0.003053 0.014668 -0.000741
vt 0.286952 -0.508652
vn 0.003053 0.014668 -0.000741
vt 0.333864 -0.415311
vn 0.010541 0.01064 0.000846
vt 0.253026 -0.085712
vn 0.008599 0.012207 -0.001439
vt 0.252992 -0.169658
vn 0.00493 0.013459 0.004426
vt 0.252981 -0.259271
vn 0.002849 0.014243 0.003749
vt 0.295122 -0.14891
vn 0.003705 0.014508 -0.000904
vt 0.302187 -0.170587
vn 0.008749 0.012068 0.001684
vt 0.295608 -0.25505
vn 0.008749 0.012068 0.001684
vt 0.299476 -0.279415
vn 0.003361 0.007266 0.012686
vt 0.252979 -0.298235
vn -0.003664 0.014519 0.000901
vt 0.293566 -0.350097
vn -0.008663 0.012165 -0.001412
vt 0.277036 -0.129596
vn -0.008803 0.012026 0.00171
vt 0.295608 -0.25505
vn -0.003236 0.011681 -0.008838
vt 0.273349 -0.280607
vn 0.003125 -0.01466 -0.000602
vt 0.333864 -0.414927
vn 0.004219 -0.014386 0.000524
vt 0.333864 -0.242003
vn 0.004995 -0.013392 0.004553
vt 0.252981 -0.259271
vn 0.008808 -0.01201 0.001797
vt 0.288852 -0.26358
vn -0.008744 -0.012052 0.001824
vt 0.288852 -0.26358
vn 0.010426 -0.010786 3.4e-05
vt 0.212116 -0.00518203
vn 0.010426 -0.010786 3.4e-05
vt 0.22887 -0.00518203
vn 0.010426 -0.010786 3.4e-05
vt 0.22887 -0.645777
vn 0.010355 0.010854 -0.000118
vt 0.031355 -0.082607
vn 0.010605 0.010412 0.00204
vt 0.021188 -0.1094
vn 0.000905 0.000991 0.014941
vt 0.005888 -0.00875902
vn 0.010429 -0.010783 -2.4e-05
vt 0.005909 -0.0106241
vn 0.010429 -0.010783 -2.4e-05
vt 0.005908 -0.082607
vn -0.010429 0.010783 -9.5e-05
vt 0.031878 -0.0106241
vn 0.003053 0.014668 -0.000741
vt 0.271179 -0.439739
vn 0.003053 0.014668 -0.000741
vt 0.333864 -0.415311
vn 0.003596 0.014537 0.00089
vt 0.293566 -0.350097
vn 0.010541 0.01064 0.000846
vt 0.253026 -0.085712
vn 0.00493 0.013459 0.004426
vt 0.277756 -0.225057
vn 0.00493 0.013459 0.004426
vt 0.288074 -0.239371
vn 0.00493 0.013459 0.004426
vt 0.252981 -0.259271
vn 0.00208 0.014095 -0.004695
vt 0.28179 -0.204563
vn 0.008749 0.012068 0.001684
vt 0.295608 -0.25505
vn 0.003361 0.007266 0.012686
vt 0.252979 -0.298235
vn -0.003127 0.014653 -0.000732
vt 0.286952 -0.508652
vn -0.004647 0.014261 -0.000255
vt 0.290475 -0.57899
vn -0.00463 0.014205 0.001351
vt 0.165062 -0.551194
vn -0.008663 0.012165 -0.001412
vt 0.277036 -0.129596
vn -0.01059 0.010588 0.000878
vt 0.27607 -0.115501
vn -0.004864 0.008071 0.011672
vt 0.27298 -0.295477
vn -0.003236 0.011681 -0.008838
vt 0.273349 -0.280607
vn 0.004365 -0.014352 6.1e-05
vt 0.333864 -0.532467
vn 0.004995 -0.013392 0.004553
vt 0.252981 -0.259271
vn -0.004554 -0.014216 0.001485
vt 0.117132 -0.571202
vn -0.004991 -0.014135 -0.000561
vt 0.147661 -0.600845
vn 0.010426 -0.010786 3.4e-05
vt 0.212116 -0.00518203
vn 0.010426 -0.010786 3.4e-05
vt 0.22887 -0.645777
vn 0.010423 -0.010789 3.5e-05
vt 0.212105 -0.645777
vn 0.010334 0.01083 0.000974
vt 0.036517 -0.182419
vn 0.010392 -0.010766 0.001067
vt 0.005909 -0.149847
vn 0.010392 -0.010766 0.001067
vt 0.005912 -0.182419
vn 0.010585 -0.010399 0.002205
vt 0.005899 -0.143632
vn 0.010241 -0.010642 -0.002627
vt 0.005905 -0.216884
vn -0.010649 0.010361 0.002072
vt 0.022302 -0.143632
vn 0.003053 0.014668 -0.000741
vt 0.333864 -0.415311
vn 0.003596 0.014537 0.00089
vt 0.293566 -0.350097
vn 0.004148 0.014411 0.000387
vt 0.333864 -0.242003
vn 0.010541 0.01064 0.000846
vt 0.253026 -0.085712
vn 0.00493 0.013459 0.004426
vt 0.252981 -0.259271
vn 0.00208 0.014095 -0.004695
vt 0.28179 -0.204563
vn 0.008749 0.012068 0.001684
vt 0.295608 -0.25505
vn 0.008749 0.012068 0.001684
vt 0.288852 -0.26358
vn -0.003127 0.014653 -0.000732
vt 0.286952 -0.508652
vn -0.00463 0.014205 0.001351
vt 0.152411 -0.472218
vn -0.010722 0.005218 -0.009103
vt 0.276261 -0.066642
vn -0.010722 0.005218 -0.009103
vt 0.289939 -0.032373
vn -0.008803 0.012026 0.00171
vt 0.288852 -0.26358
vn 0.004017 0.011414 -0.008867
vt 0.287506 -0.272469
vn -0.003236 0.011681 -0.008838
vt 0.273349 -0.280607
vn 0.003125 -0.01466 -0.000602
vt 0.333864 -0.414927
vn 0.004365 -0.014352 6.1e-05
vt 0.333864 -0.532467
vn 0.008658 -0.012179 -0.001323
vt 0.252992 -0.169658
vn 0.004995 -0.013392 0.004553
vt 0.252981 -0.259271
vn -0.004554 -0.014216 0.001485
vt 0.117132 -0.571202
vn -0.004852 -0.014182 0.000617
vt 0.088527 -0.541539
vn 0.01038 0.01083 -0.000112
vt 0.265659 -0.505747
vn 0.010373 0.010836 -0.000113
vt 0.265659 -0.553852
vn -0.010433 0.010779 -4.9e-05
vt 0.27646 -0.505747
vn 0.010334 0.01083 0.000974
vt 0.036517 -0.182419
vn 0.010107 0.010786 -0.002557
vt 0.030118 -0.216884
vn 0.010392 -0.010766 0.001067
vt 0.005909 -0.149847
vn 0.010241 -0.010642 -0.002627
vt 0.005905 -0.216884
vn -0.010389 0.010776 0.000996
vt 0.034056 -0.149847
vn -0.010649 0.010361 0.002072
vt 0.022302 -0.143632
vn 0.003053 0.014668 -0.000741
vt 0.286952 -0.508652
vn 0.004148 0.014411 0.000387
vt 0.333864 -0.242003
vn 0.004577 0.014283 -0.000269
vt 0.290475 -0.57899
vn 0.004577 0.014283 -0.000269
vt 0.333864 -0.532371
vn 0.004524 0.014241 0.001326
vt 0.01043 -0.551194
vn 0.004524 0.014241 0.001326
vt 0.058325 -0.571202
vn 0.010541 0.01064 0.000846
vt 0.253026 -0.085712
vn 0.003361 0.007266 0.012686
vt 0.27298 -0.295477
vn 0.00486 0.008094 0.011658
vt 0.284898 -0.301708
vn 0.004943 0.014147 -0.000675
vt 0.027796 -0.600845
vn 0.003801 0.014498 0.000637
vt 0.333864 -0.00679004
vn -0.00463 0.014205 0.001351
vt 0.165062 -0.551194
vn -0.00463 0.014205 0.001351
vt 0.152411 -0.472218
vn -0.010722 0.005218 -0.009103
vt 0.289939 -0.032373
vn -0.002006 0.01482 -0.001175
vt 0.253051 -0.00883806
vn -0.003376 0.014607 0.00053
vt 0.169848 -0.650545
vn -0.003869 0.014479 0.000649
vt 0.314729 -0.0972739
vn 0.004899 -0.007959 0.011734
vt 0.252978 -0.306719
vn -0.004554 -0.014216 0.001485
vt 0.117132 -0.571202
vn -0.004991 -0.014135 -0.000561
vt 0.147661 -0.600845
vn 0.010373 0.010836 -0.000113
vt 0.265659 -0.553852
vn -0.010433 0.010779 -4.9e-05
vt 0.27646 -0.505747
vn -0.010426 0.010786 -4.8e-05
vt 0.276467 -0.553852
vn 0.010355 0.010854 -0.000118
vt 0.031878 -0.0106241
vn 0.000905 0.000991 0.014941
vt 0.005888 -0.00875902
vn 0.009634 0.010273 -0.005165
vt 0.005887 -0.267752
vn 0.010429 -0.010783 -2.4e-05
vt 0.005909 -0.0106241
vn 0.010241 -0.010642 -0.002627
vt 0.005905 -0.216884
vn -0.010167 0.010737 -0.002527
vt 0.030118 -0.216884
vn 0.003053 0.014668 -0.000741
vt 0.286952 -0.508652
vn 0.003053 0.014668 -0.000741
vt 0.333864 -0.415311
vn 0.004148 0.014411 0.000387
vt 0.333864 -0.242003
vn 0.004577 0.014283 -0.000269
vt 0.290475 -0.57899
vn 0.004577 0.014283 -0.000269
vt 0.333864 -0.532371
vn 0.004524 0.014241 0.001326
vt 0.058325 -0.571202
vn 0.004524 0.014241 0.001326
vt 0.023082 -0.472218
vn 0.00481 0.014201 0.000469
vt 0.08693 -0.541539
vn 0.010541 0.01064 0.000846
vt 0.253026 -0.085712
vn 0.003361 0.007266 0.012686
vt 0.27298 -0.295477
vn -0.008241 0.012508 -0.000807
vt 0.154508 -0.27163
vn -0.003664 0.014519 0.000901
vt 0.293566 -0.350097
vn 0.004157 0.014191 0.002524
vt 0.138543 -0.320988
vn -0.010722 0.005218 -0.009103
vt 0.276261 -0.066642
vn -0.004707 0.011436 0.008491
vt 0.285548 -0.0730669
vn -0.011452 0.004186 -0.008739
vt 0.291908 -0.0408781
vn -0.005129 0.014072 0.000846
vt 0.309242 -0.240589
vn 0.004899 -0.007959 0.011734
vt 0.252978 -0.306719
vn 0.003394 -0.007128 0.012756
vt 0.252979 -0.298235
vn -0.008179 -0.012557 -0.000689
vt 0.140827 -0.373823
vn -0.001934 -0.01484 -0.001035
vt 0.289939 -0.032373
vn 0.010373 0.010836 -6.8e-05
vt 0.191241 -0.00720096
vn 0.01037 0.010839 -6.8e-05
vt 0.191241 -0.647796
vn -0.010426 0.010786 -3.7e-05
vt 0.207995 -0.00720096
vn 0.010334 0.01083 0.000974
vt 0.034056 -0.149847
vn 0.010605 0.010412 0.00204
vt 0.022302 -0.143632
vn 0.010392 -0.010766 0.001067
vt 0.005909 -0.149847
vn 0.004124 0.014422 0.000164
vt 0.293997 -0.649328
vn 0.004124 0.014422 0.000164
vt 0.333864 -0.649431
vn 0.004148 0.014411 0.000387
vt 0.333864 -0.242003
vn 0.004577 0.014283 -0.000269
vt 0.290475 -0.57899
vn 0.004577 0.014283 -0.000269
vt 0.333864 -0.532371
vn 0.004524 0.014241 0.001326
vt 0.01043 -0.551194
vn 0.004524 0.014241 0.001326
vt 0.058325 -0.571202
vn 0.004524 0.014241 0.001326
vt 0.023082 -0.472218
vn 0.010541 0.01064 0.000846
vt 0.253026 -0.085712
vn 0.008749 0.012068 0.001684
vt 0.299476 -0.279415
vn -0.0041 0.011394 -0.008855
vt 0.287506 -0.272469
vn 0.004943 0.014147 -0.000675
vt 0.027796 -0.600845
vn 0.003302 0.014624 0.00052
vt 0.005645 -0.650545
vn -0.004925 0.014161 0.000483
vt 0.128523 -0.203418
vn -0.004707 0.011436 0.008491
vt 0.285548 -0.0730669
vn -0.008146 0.012596 -6.6e-05
vt 0.285484 -0.107984
vn -0.003376 0.014607 0.00053
vt 0.169848 -0.650545
vn 0.006958 0.009663 -0.009124
vt 0.14567 -0.608204
vn -0.003869 0.014479 0.000649
vt 0.314729 -0.0972739
vn -0.005129 0.014072 0.000846
vt 0.309242 -0.240589
vn 0.008808 -0.01201 0.001797
vt 0.288852 -0.26358
vn -0.004852 -0.014182 0.000617
vt 0.088527 -0.541539
vn -0.004852 -0.014182 0.000617
vt 0.088527 -0.016523
vn -0.004991 -0.014135 -0.000561
vt 0.147661 -0.600845
vn 0.01037 0.010839 -6.8e-05
vt 0.191241 -0.647796
vn -0.010426 0.010786 -3.7e-05
vt 0.207995 -0.00720096
vn -0.010423 0.010789 -3.6e-05
vt 0.208006 -0.647795
vn 0.010605 0.010412 0.00204
vt 0.022302 -0.143632
vn 0.010392 -0.010766 0.001067
vt 0.005909 -0.149847
vn 0.010585 -0.010399 0.002205
vt 0.005899 -0.143632
vn 0.004124 0.014422 0.000164
vt 0.333864 -0.649431
vn 0.008176 0.012549 -0.000832
vt 0.020984 -0.27163
vn 0.008176 0.012549 -0.000832
vt 0.034631 -0.373823
vn -0.004222 0.01417 0.002537
vt 0.03695 -0.320988
vn 0.010541 0.01064 0.000846
vt 0.253026 -0.085712
vn 0.00193 0.01483 -0.001181
vt 0.289939 -0.032373
vn 0.010668 0.00527 -0.009135
vt 0.276261 -0.066642
vn 0.010225 0.010644 -0.002682
vt 0.278157 -0.333494
vn 0.011405 0.004241 -0.008773
vt 0.291908 -0.0408781
vn -0.008241 0.012508 -0.000807
vt 0.148295 -0.40025
vn -0.004647 0.014261 -0.000255
vt 0.290475 -0.57899
vn -0.004925 0.014161 0.000483
vt 0.128523 -0.203418
vn -0.004925 0.014161 0.000483
vt 0.088492 -0.016523
vn -0.01059 0.010588 0.000878
vt 0.27607 -0.115501
vn -0.008146 0.012596 -6.6e-05
vt 0.285484 -0.107984
vn 0.006958 0.009663 -0.009124
vt 0.14567 -0.608204
vn -0.004195 0.014402 0.000143
vt 0.121586 -0.014832
vn 0.004899 -0.007959 0.011734
vt 0.252978 -0.306719
vn 0.009646 -0.011489 4e-06
vt 0.252975 -0.359003
vn -0.008179 -0.012557 -0.000689
vt 0.140827 -0.373823
vn -0.004852 -0.014182 0.000617
vt 0.088527 -0.541539
vn -0.004991 -0.014135 -0.000561
vt 0.147661 -0.600845
vn 0.005517 -0.009812 -0.009915
vt 0.118659 -0.581918
vn 0.010433 -0.010779 -2.9e-05
vt 0.265659 -0.505747
vn -0.010433 0.010779 -4.9e-05
vt 0.27646 -0.505747
vn -0.010426 0.010786 -4.8e-05
vt 0.276467 -0.553852
vn 0.010107 0.010786 -0.002557
vt 0.030118 -0.216884
vn 0.009634 0.010273 -0.005165
vt 0.005887 -0.267752
vn 0.010241 -0.010642 -0.002627
vt 0.005905 -0.216884
vn 0.004124 0.014422 0.000164
vt 0.333864 -0.649431
vn -0.004194 0.014402 0.000176
vt 0.293997 -0.649328
vn 0.004577 0.014283 -0.000269
vt 0.333864 -0.532371
vn 0.00481 0.014201 0.000469
vt 0.046969 -0.203418
vn 0.00481 0.014201 0.000469
vt 0.08693 -0.541539
vn 0.00481 0.014201 0.000469
vt 0.08693 -0.016523
vn 0.00493 0.013459 0.004426
vt 0.252981 -0.259271
vn 0.010225 0.010644 -0.002682
vt 0.278157 -0.333494
vn 0.010225 0.010644 -0.002682
vt 0.266861 -0.358801
vn 0.004943 0.014147 -0.000675
vt 0.027796 -0.600845
vn 0.003302 0.014624 0.00052
vt 0.005645 -0.650545
vn -0.007035 0.009629 -0.009101
vt 0.029822 -0.608204
vn -0.008241 0.012508 -0.000807
vt 0.148295 -0.40025
vn -0.004647 0.014261 -0.000255
vt 0.290475 -0.57899
vn -0.00463 0.014205 0.001351
vt 0.152411 -0.472218
vn 0.004157 0.014191 0.002524
vt 0.138543 -0.320988
vn -0.004925 0.014161 0.000483
vt 0.088492 -0.541539
vn -0.004981 0.013435 0.004441
vt 0.277756 -0.225057
vn -0.004981 0.013435 0.004441
vt 0.288074 -0.239371
vn 0.009646 -0.011489 4e-06
vt 0.252975 -0.359003
vn -0.008179 -0.012557 -0.000689
vt 0.140827 -0.373823
vn -0.004554 -0.014216 0.001485
vt 0.117132 -0.571202
vn -0.004852 -0.014182 0.000617
vt 0.088527 -0.541539
vn -0.004991 -0.014135 -0.000561
vt 0.147661 -0.600845
vn 0.005517 -0.009812 -0.009915
vt 0.118659 -0.581918
vn 0.010433 -0.010779 -2.9e-05
vt 0.265659 -0.505747
vn 0.010433 -0.010779 -2.9e-05
vt 0.265659 -0.553852
vn -0.010426 0.010786 -4.8e-05
vt 0.276467 -0.553852
vn 0.010334 0.01083 0.000974
vt 0.005912 -0.182419
vn 0.010339 0.010826 0.000965
vt 0.005909 -0.149847
vn -0.010389 0.010776 0.000996
vt 0.034056 -0.149847
vn 0.004124 0.014422 0.000164
vt 0.333864 -0.649431
vn 0.008176 0.012549 -0.000832
vt 0.020984 -0.27163
vn 0.008176 0.012549 -0.000832
vt 0.027197 -0.40025
vn 0.008176 0.012549 -0.000832
vt 0.034631 -0.373823
vn 0.004577 0.014283 -0.000269
vt 0.290475 -0.57899
vn 0.00481 0.014201 0.000469
vt 0.08693 -0.541539
vn 0.008599 0.012207 -0.001439
vt 0.252992 -0.169658
vn 0.00486 0.008094 0.011658
vt 0.284898 -0.301708
vn 0.010225 0.010644 -0.002682
vt 0.278157 -0.333494
vn 0.004943 0.014147 -0.000675
vt 0.027796 -0.600845
vn -0.007035 0.009629 -0.009101
vt 0.029822 -0.608204
vn -0.005477 0.009718 -0.01003
vt 0.056799 -0.581918
vn 0.004157 0.014191 0.002524
vt 0.138543 -0.320988
vn -0.004925 0.014161 0.000483
vt 0.128523 -0.203418
vn -0.002162 0.014085 -0.004688
vt 0.298348 -0.193585
vn -0.002162 0.014085 -0.004688
vt 0.28179 -0.204563
vn -0.003236 0.011681 -0.008838
vt 0.273349 -0.280607
vn 0.008239 -0.012516 -0.000713
vt 0.034666 -0.373823
vn 0.004995 -0.013392 0.004553
vt 0.252981 -0.259271
vn 0.004899 -0.007959 0.011734
vt 0.252978 -0.306719
vn -0.004852 -0.014182 0.000617
vt 0.088527 -0.541539
vn -0.008744 -0.012052 0.001824
vt 0.288852 -0.26358
vn 0.010426 -0.010786 3.4e-05
vt 0.22887 -0.00518203
vn -0.010373 -0.010837 6.6e-05
vt 0.245624 -0.00518203
vn -0.010373 -0.010837 6.6e-05
vt 0.245636 -0.645777
vn 0.010334 0.01083 0.000974
vt 0.005912 -0.182419
vn -0.010389 0.010776 0.000996
vt 0.034056 -0.149847
vn -0.010384 0.01078 0.001005
vt 0.036517 -0.182419
vn 0.004124 0.014422 0.000164
vt 0.293997 -0.649328
vn 0.004195 -0.0144 0.000301
vt 0.333864 -0.649431
vn 0.008176 0.012549 -0.000832
vt 0.034631 -0.373823
vn 0.003053 0.014668 -0.000741
vt 0.271179 -0.439739
vn 0.003053 0.014668 -0.000741
vt 0.286952 -0.508652
vn 0.004577 0.014283 -0.000269
vt 0.290475 -0.57899
vn 0.004524 0.014241 0.001326
vt 0.058325 -0.571202
vn -0.004222 0.01417 0.002537
vt 0.03695 -0.320988
vn 0.00481 0.014201 0.000469
vt 0.08693 -0.541539
vn 0.008599 0.012207 -0.001439
vt 0.252992 -0.169658
vn 0.002849 0.014243 0.003749
vt 0.295122 -0.14891
vn 0.003705 0.014508 -0.000904
vt 0.302187 -0.170587
vn 0.004943 0.014147 -0.000675
vt 0.027796 -0.600845
vn -0.005477 0.009718 -0.01003
vt 0.056799 -0.581918
vn -0.008663 0.012165 -0.001412
vt 0.277036 -0.129596
vn -0.01059 0.010588 0.000878
vt 0.27607 -0.115501
vn -0.002907 0.014229 0.003758
vt 0.295122 -0.14891
vn -0.004864 0.008071 0.011672
vt 0.27298 -0.295477
vn -0.003236 0.011681 -0.008838
vt 0.273349 -0.280607
vn 0.003125 -0.01466 -0.000602
vt 0.333864 -0.414927
vn 0.004365 -0.014352 6.1e-05
vt 0.333864 -0.532467
vn 0.008658 -0.012179 -0.001323
vt 0.253026 -0.085712
vn 0.008658 -0.012179 -0.001323
vt 0.252992 -0.169658
vn 0.003394 -0.007128 0.012756
vt 0.252979 -0.298235
vn 0.010426 -0.010786 3.4e-05
vt 0.22887 -0.00518203
vn 0.010426 -0.010786 3.4e-05
vt 0.22887 -0.645777
vn -0.010373 -0.010837 6.6e-05
vt 0.245636 -0.645777
vn 0.010355 0.010854 -0.000118
vt 0.005908 -0.082607
vn 0.010376 0.010833 -0.000126
vt 0.005909 -0.0106241
vn -0.010429 0.010783 -9.5e-05
vt 0.031878 -0.0106241
vn 0.004195 -0.0144 0.000301
vt 0.333864 -0.649431
vn 0.003053 0.014668 -0.000741
vt 0.271179 -0.439739
vn 0.003596 0.014537 0.00089
vt 0.293566 -0.350097
vn -0.004222 0.01417 0.002537
vt 0.03695 -0.320988
vn 0.00481 0.014201 0.000469
vt 0.046969 -0.203418
vn 0.00481 0.014201 0.000469
vt 0.08693 -0.541539
vn 0.008599 0.012207 -0.001439
vt 0.252992 -0.169658
vn 0.00493 0.013459 0.004426
vt 0.288074 -0.239371
vn 0.00493 0.013459 0.004426
vt 0.252981 -0.259271
vn 0.008749 0.012068 0.001684
vt 0.295608 -0.25505
vn 0.008749 0.012068 0.001684
vt 0.288852 -0.26358
vn 0.003152 0.011697 -0.008848
vt 0.273349 -0.280607
vn -0.004647 0.014261 -0.000255
vt 0.290475 -0.57899
vn -0.008663 0.012165 -0.001412
vt 0.277036 -0.129596
vn -0.002162 0.014085 -0.004688
vt 0.298348 -0.193585
vn -0.003778 0.01449 -0.000892
vt 0.302187 -0.170587
vn -0.003236 0.011681 -0.008838
vt 0.273349 -0.280607
vn 0.003125 -0.01466 -0.000602
vt 0.333864 -0.414927
vn 0.008658 -0.012179 -0.001323
vt 0.253026 -0.085712
vn 0.008658 -0.012179 -0.001323
vt 0.252992 -0.169658
vn 0.004995 -0.013392 0.004553
vt 0.252981 -0.259271
vn 0.003394 -0.007128 0.012756
vt 0.252979 -0.298235
vn 0.010334 0.01083 0.000974
vt 0.034056 -0.149847
vn 0.010334 0.01083 0.000974
vt 0.036517 -0.182419
vn 0.010334 0.01083 0.000974
vt 0.005912 -0.182419
vn 0.010355 0.010854 -0.000118
vt 0.005908 -0.082607
vn -0.010429 0.010783 -9.5e-05
vt 0.031878 -0.0106241
vn -0.010408 0.010803 -8.6e-05
vt 0.031355 -0.082607
vn -0.004194 0.014402 0.000176
vt 0.293997 -0.649328
vn 0.004195 -0.0144 0.000301
vt 0.333864 -0.649431
vn 0.003596 0.014537 0.00089
vt 0.293566 -0.350097
vn 0.010541 0.01064 0.000846
vt 0.253026 -0.085712
vn 0.010541 0.01064 0.000846
vt 0.27607 -0.115501
vn 0.010541 0.01064 0.000846
vt 0.277036 -0.129596
vn 0.008749 0.012068 0.001684
vt 0.295608 -0.25505
vn 0.003361 0.007266 0.012686
vt 0.252979 -0.298235
vn 0.003361 0.007266 0.012686
vt 0.27298 -0.295477
vn 0.003152 0.011697 -0.008848
vt 0.273349 -0.280607
vn -0.004647 0.014261 -0.000255
vt 0.290475 -0.57899
vn -0.008803 0.012026 0.00171
vt 0.295608 -0.25505
vn -0.008803 0.012026 0.00171
vt 0.288852 -0.26358
vn -0.008803 0.012026 0.00171
vt 0.299476 -0.279415
vn 0.004017 0.011414 -0.008867
vt 0.287506 -0.272469
vn -0.003236 0.011681 -0.008838
vt 0.273349 -0.280607
vn 0.003125 -0.01466 -0.000602
vt 0.333864 -0.414927
vn 0.004219 -0.014386 0.000524
vt 0.333864 -0.242003
vn 0.004365 -0.014352 6.1e-05
vt 0.333864 -0.532467
vn 0.008658 -0.012179 -0.001323
vt 0.253026 -0.085712
vn 0.004995 -0.013392 0.004553
vt 0.252981 -0.259271
vn 0.008808 -0.01201 0.001797
vt 0.288852 -0.26358
vn -0.001934 -0.01484 -0.001035
vt 0.253051 -0.00924098
vn -0.001934 -0.01484 -0.001035
vt 0.289939 -0.032373
vn -0.008744 -0.012052 0.001824
vt 0.288852 -0.26358
vn 0.010334 0.01083 0.000974
vt 0.034056 -0.149847
vn 0.010334 0.01083 0.000974
vt 0.005912 -0.182419
vn 0.010339 0.010826 0.000965
vt 0.005909 -0.149847
vn 0.010605 0.010412 0.00204
vt 0.005899 -0.143632
vn 0.010534 0.010471 0.002106
vt 0.005898 -0.1094
vn -0.010578 0.01042 0.002138
vt 0.021188 -0.1094
vn 0.004195 -0.0144 0.000301
vt 0.333864 -0.649431
vn 0.003053 0.014668 -0.000741
vt 0.286952 -0.508652
vn 0.004524 0.014241 0.001326
vt 0.01043 -0.551194
vn 0.010541 0.01064 0.000846
vt 0.253026 -0.085712
vn 0.010541 0.01064 0.000846
vt 0.277036 -0.129596
vn 0.008599 0.012207 -0.001439
vt 0.252992 -0.169658
vn 0.00493 0.013459 0.004426
vt 0.252981 -0.259271
vn 0.003361 0.007266 0.012686
vt 0.252979 -0.298235
vn 0.003152 0.011697 -0.008848
vt 0.273349 -0.280607
vn 0.003801 0.014498 0.000637
vt 0.333864 -0.00679004
vn -0.010722 0.005218 -0.009103
vt 0.276261 -0.066642
vn -0.004981 0.013435 0.004441
vt 0.277756 -0.225057
vn -0.002162 0.014085 -0.004688
vt 0.28179 -0.204563
vn -0.003869 0.014479 0.000649
vt 0.314729 -0.0972739
vn 0.003125 -0.01466 -0.000602
vt 0.333864 -0.414927
vn 0.004219 -0.014386 0.000524
vt 0.333864 -0.242003
vn 0.004365 -0.014352 6.1e-05
vt 0.333864 -0.532467
vn 0.004599 -0.014204 0.001461
vt 0.05836 -0.571202
vn 0.008658 -0.012179 -0.001323
vt 0.253026 -0.085712
vn 0.005019 -0.014126 -0.000543
vt 0.027831 -0.600845
vn -0.001934 -0.01484 -0.001035
vt 0.289939 -0.032373
vn 0.010355 0.010854 -0.000118
vt 0.031878 -0.0106241
vn 0.010355 0.010854 -0.000118
vt 0.031355 -0.082607
vn 0.010355 0.010854 -0.000118
vt 0.005908 -0.082607
vn 0.010605 0.010412 0.00204
vt 0.005899 -0.143632
vn -0.010578 0.01042 0.002138
vt 0.021188 -0.1094
vn -0.010649 0.010361 0.002072
vt 0.022302 -0.143632
vn 0.003053 0.014668 -0.000741
vt 0.286952 -0.508652
vn 0.004577 0.014283 -0.000269
vt 0.290475 -0.57899
vn 0.004524 0.014241 0.001326
vt 0.023082 -0.472218
vn 0.010541 0.01064 0.000846
vt 0.253026 -0.085712
vn 0.008599 0.012207 -0.001439
vt 0.252992 -0.169658
vn 0.00193 0.01483 -0.001181
vt 0.253051 -0.00924098
vn 0.00193 0.01483 -0.001181
vt 0.289939 -0.032373
vn 0.00493 0.013459 0.004426
vt 0.252981 -0.259271
vn 0.008749 0.012068 0.001684
vt 0.288852 -0.26358
vn -0.0041 0.011394 -0.008855
vt 0.287506 -0.272469
vn 0.003152 0.011697 -0.008848
vt 0.273349 -0.280607
vn -0.003664 0.014519 0.000901
vt 0.293566 -0.350097
vn -0.010722 0.005218 -0.009103
vt 0.276261 -0.066642
vn -0.004707 0.011436 0.008491
vt 0.285548 -0.0730669
vn -0.002162 0.014085 -0.004688
vt 0.28179 -0.204563
vn -0.005129 0.014072 0.000846
vt 0.309242 -0.240589
vn 0.004219 -0.014386 0.000524
vt 0.333864 -0.242003
vn 0.004365 -0.014352 6.1e-05
vt 0.333864 -0.532467
vn 0.004599 -0.014204 0.001461
vt 0.05836 -0.571202
vn 0.004883 -0.014171 0.000603
vt 0.086965 -0.541539
vn 0.008658 -0.012179 -0.001323
vt 0.253026 -0.085712
vn 0.010355 0.010854 -0.000118
vt 0.031878 -0.0106241
vn 0.010355 0.010854 -0.000118
vt 0.005908 -0.082607
vn 0.010376 0.010833 -0.000126
vt 0.005909 -0.0106241
vn 0.010534 0.010471 0.002106
vt 0.005898 -0.1094
vn -0.010578 0.01042 0.002138
vt 0.021188 -0.1094
vn 0.004148 0.014411 0.000387
vt 0.333864 -0.242003
vn 0.004524 0.014241 0.001326
vt 0.01043 -0.551194
vn 0.004524 0.014241 0.001326
vt 0.023082 -0.472218
vn 0.010541 0.01064 0.000846
vt 0.253026 -0.085712
vn 0.00193 0.01483 -0.001181
vt 0.289939 -0.032373
vn 0.010668 0.00527 -0.009135
vt 0.276261 -0.066642
vn 0.003361 0.007266 0.012686
vt 0.252978 -0.306719
vn 0.003302 0.014624 0.00052
vt 0.005645 -0.650545
vn 0.003801 0.014498 0.000637
vt 0.333864 -0.00679004
vn 0.003801 0.014498 0.000637
vt 0.314729 -0.0972739
vn -0.004707 0.011436 0.008491
vt 0.285548 -0.0730669
vn -0.008146 0.012596 -6.6e-05
vt 0.285484 -0.107984
vn -0.004864 0.008071 0.011672
vt 0.284898 -0.301708
vn -0.004864 0.008071 0.011672
vt 0.27298 -0.295477
vn -0.003869 0.014479 0.000649
vt 0.314729 -0.0972739
vn -0.005129 0.014072 0.000846
vt 0.309242 -0.240589
vn 0.004219 -0.014386 0.000524
vt 0.333864 -0.242003
vn 0.004599 -0.014204 0.001461
vt 0.05836 -0.571202
vn 0.008658 -0.012179 -0.001323
vt 0.253026 -0.085712
vn 0.005019 -0.014126 -0.000543
vt 0.027831 -0.600845
vn 0.010355 0.010854 -0.000118
vt 0.005908 -0.082607
vn 0.010605 0.010412 0.00204
vt 0.021188 -0.1094
vn 0.010605 0.010412 0.00204
vt 0.022302 -0.143632
vn 0.010605 0.010412 0.00204
vt 0.005899 -0.143632
vn -0.010408 0.010803 -8.6e-05
vt 0.031355 -0.082607
vn -0.010578 0.01042 0.002138
vt 0.021188 -0.1094
vn 0.008176 0.012549 -0.000832
vt 0.020984 -0.27163
vn 0.003596 0.014537 0.00089
vt 0.293566 -0.350097
vn 0.004148 0.014411 0.000387
vt 0.333864 -0.242003
vn -0.004222 0.01417 0.002537
vt 0.03695 -0.320988
vn 0.010541 0.01064 0.000846
vt 0.253026 -0.085712
vn 0.010668 0.00527 -0.009135
vt 0.276261 -0.066642
vn 0.004678 0.011459 0.008476
vt 0.285548 -0.0730669
vn 0.003361 0.007266 0.012686
vt 0.252978 -0.306719
vn 0.003361 0.007266 0.012686
vt 0.252979 -0.298235
vn 0.011405 0.004241 -0.008773
vt 0.291908 -0.0408781
vn 0.005063 0.014096 0.000831
vt 0.309242 -0.240589
vn -0.004925 0.014161 0.000483
vt 0.128523 -0.203418
vn -0.01059 0.010588 0.000878
vt 0.27607 -0.115501
vn -0.008146 0.012596 -6.6e-05
vt 0.285484 -0.107984
vn -0.004864 0.008071 0.011672
vt 0.27298 -0.295477
vn -0.004195 0.014402 0.000143
vt 0.121586 -0.014832
vn 0.008239 -0.012516 -0.000713
vt 0.034666 -0.373823
vn 0.008658 -0.012179 -0.001323
vt 0.253026 -0.085712
vn 0.010694 -0.005304 -0.009085
vt 0.289939 -0.032373
vn -0.004852 -0.014182 0.000617
vt 0.088527 -0.016523
vn 0.010334 0.01083 0.000974
vt 0.005912 -0.182419
vn 0.010605 0.010412 0.00204
vt 0.021188 -0.1094
vn 0.010605 0.010412 0.00204
vt 0.005899 -0.143632
vn 0.010534 0.010471 0.002106
vt 0.005898 -0.1094
vn 0.010107 0.010786 -0.002557
vt 0.005905 -0.216884
vn -0.010384 0.01078 0.001005
vt 0.036517 -0.182419
vn 0.004148 0.014411 0.000387
vt 0.333864 -0.242003
vn 0.00481 0.014201 0.000469
vt 0.046969 -0.203418
vn 0.010541 0.01064 0.000846
vt 0.253026 -0.085712
vn 0.004678 0.011459 0.008476
vt 0.285548 -0.0730669
vn 0.008085 0.012636 -9.1e-05
vt 0.285484 -0.107984
vn 0.003302 0.014624 0.00052
vt 0.005645 -0.650545
vn -0.007035 0.009629 -0.009101
vt 0.029822 -0.608204
vn 0.003801 0.014498 0.000637
vt 0.314729 -0.0972739
vn 0.005063 0.014096 0.000831
vt 0.309242 -0.240589
vn -0.008241 0.012508 -0.000807
vt 0.148295 -0.40025
vn -0.00463 0.014205 0.001351
vt 0.152411 -0.472218
vn -0.004981 0.013435 0.004441
vt 0.277756 -0.225057
vn -0.004981 0.013435 0.004441
vt 0.288074 -0.239371
vn -0.008803 0.012026 0.00171
vt 0.288852 -0.26358
vn -0.008803 0.012026 0.00171
vt 0.299476 -0.279415
vn 0.004017 0.011414 -0.008867
vt 0.287506 -0.272469
vn 0.004883 -0.014171 0.000603
vt 0.086965 -0.016523
vn 0.004883 -0.014171 0.000603
vt 0.086965 -0.541539
vn 0.004995 -0.013392 0.004553
vt 0.252981 -0.259271
vn 0.005019 -0.014126 -0.000543
vt 0.027831 -0.600845
vn -0.004852 -0.014182 0.000617
vt 0.088527 -0.541539
vn 0.010355 0.010854 -0.000118
vt 0.031355 -0.082607
vn 0.010355 0.010854 -0.000118
vt 0.005908 -0.082607
vn 0.010605 0.010412 0.00204
vt 0.021188 -0.1094
vn 0.010107 0.010786 -0.002557
vt 0.005905 -0.216884
vn -0.010384 0.01078 0.001005
vt 0.036517 -0.182419
vn -0.010167 0.010737 -0.002527
vt 0.030118 -0.216884
vn 0.008176 0.012549 -0.000832
vt 0.027197 -0.40025
vn 0.00481 0.014201 0.000469
vt 0.046969 -0.203418
vn 0.00481 0.014201 0.000469
vt 0.08693 -0.016523
vn 0.010541 0.01064 0.000846
vt 0.253026 -0.085712
vn 0.010541 0.01064 0.000846
vt 0.27607 -0.115501
vn 0.008085 0.012636 -9.1e-05
vt 0.285484 -0.107984
vn 0.003361 0.007266 0.012686
vt 0.252978 -0.306719
vn 0.010225 0.010644 -0.002682
vt 0.252975 -0.359003
vn 0.004125 0.014422 0.00015
vt 0.053911 -0.014832
vn -0.002162 0.014085 -0.004688
vt 0.298348 -0.193585
vn -0.002162 0.014085 -0.004688
vt 0.28179 -0.204563
vn -0.009407 0.011669 -0.000631
vt 0.278157 -0.333494
vn 0.008239 -0.012516 -0.000713
vt 0.034666 -0.373823
vn 0.004599 -0.014204 0.001461
vt 0.05836 -0.571202
vn 0.004883 -0.014171 0.000603
vt 0.086965 -0.541539
vn 0.008658 -0.012179 -0.001323
vt 0.252992 -0.169658
vn 0.005019 -0.014126 -0.000543
vt 0.027831 -0.600845
vn -0.005597 -0.004193 -0.013272
vt 0.056833 -0.581918
vn 0.01037 0.010839 -7.1e-05
vt 0.265474 -0.648383
vn 0.01037 0.010839 -7.1e-05
vt 0.265474 -0.558964
vn 0.01037 0.010839 -7.1e-05
vt 0.254966 -0.558964
vn 0.010355 0.010854 -0.000118
vt 0.005908 -0.082607
vn 0.010376 0.010833 -0.000126
vt 0.005909 -0.0106241
vn 0.010605 0.010412 0.00204
vt 0.021188 -0.1094
vn 0.010534 0.010471 0.002106
vt 0.005898 -0.1094
vn 0.000905 0.000991 0.014941
vt 0.005888 -0.00875902
vn -0.010429 0.010783 -9.5e-05
vt 0.031878 -0.0106241
vn 0.008176 0.012549 -0.000832
vt 0.027197 -0.40025
vn 0.004524 0.014241 0.001326
vt 0.023082 -0.472218
vn -0.004222 0.01417 0.002537
vt 0.03695 -0.320988
vn 0.00481 0.014201 0.000469
vt 0.08693 -0.541539
vn 0.00493 0.013459 0.004426
vt 0.277756 -0.225057
vn 0.00493 0.013459 0.004426
vt 0.288074 -0.239371
vn 0.00493 0.013459 0.004426
vt 0.252981 -0.259271
vn 0.010225 0.010644 -0.002682
vt 0.252975 -0.359003
vn -0.007035 0.009629 -0.009101
vt 0.029822 -0.608204
vn -0.008663 0.012165 -0.001412
vt 0.277036 -0.129596
vn -0.002907 0.014229 0.003758
vt 0.295122 -0.14891
vn -0.009407 0.011669 -0.000631
vt 0.278157 -0.333494
vn -0.010178 0.010475 -0.003421
vt 0.266861 -0.358801
vn 0.008239 -0.012516 -0.000713
vt 0.034666 -0.373823
vn 0.004883 -0.014171 0.000603
vt 0.086965 -0.541539
vn 0.008658 -0.012179 -0.001323
vt 0.252992 -0.169658
vn 0.005019 -0.014126 -0.000543
vt 0.027831 -0.600845
vn -0.005597 -0.004193 -0.013272
vt 0.056833 -0.581918
vn 0.01037 0.010839 -7.1e-05
vt 0.265474 -0.648383
vn 0.01037 0.010839 -7.1e-05
vt 0.254966 -0.558964
vn 0.010354 0.010855 -7e-05
vt 0.254931 -0.648383
vn 0.010334 0.01083 0.000974
vt 0.036517 -0.182419
vn 0.010339 0.010826 0.000965
vt 0.005909 -0.149847
vn 0.010107 0.010786 -0.002557
vt 0.030118 -0.216884
vn 0.010107 0.010786 -0.002557
vt 0.005905 -0.216884
vn -0.010389 0.010776 0.000996
vt 0.034056 -0.149847
vn -0.010649 0.010361 0.002072
vt 0.022302 -0.143632
vn -0.004222 0.01417 0.002537
vt 0.03695 -0.320988
vn 0.00481 0.014201 0.000469
vt 0.046969 -0.203418
vn 0.008599 0.012207 -0.001439
vt 0.252992 -0.169658
vn 0.00208 0.014095 -0.004695
vt 0.298348 -0.193585
vn 0.00208 0.014095 -0.004695
vt 0.28179 -0.204563
vn 0.003361 0.007266 0.012686
vt 0.252978 -0.306719
vn 0.003152 0.011697 -0.008848
vt 0.273349 -0.280607
vn -0.008241 0.012508 -0.000807
vt 0.154508 -0.27163
vn -0.008241 0.012508 -0.000807
vt 0.140792 -0.373823
vn -0.008241 0.012508 -0.000807
vt 0.148295 -0.40025
vn -0.002162 0.014085 -0.004688
vt 0.298348 -0.193585
vn -0.003778 0.01449 -0.000892
vt 0.302187 -0.170587
vn -0.004864 0.008071 0.011672
vt 0.284898 -0.301708
vn -0.009407 0.011669 -0.000631
vt 0.278157 -0.333494
vn 0.004883 -0.014171 0.000603
vt 0.086965 -0.541539
vn 0.008658 -0.012179 -0.001323
vt 0.252992 -0.169658
vn 0.004995 -0.013392 0.004553
vt 0.252981 -0.259271
vn 0.008808 -0.01201 0.001797
vt 0.288852 -0.26358
vn 0.01037 0.010839 -7.1e-05
vt 0.254966 -0.558964
vn 0.010354 0.010855 -7e-05
vt 0.254931 -0.648383
vn 0.010409 -0.010802 4.2e-05
vt 0.265474 -0.648383
vn 0.010334 0.01083 0.000974
vt 0.036517 -0.182419
vn 0.010334 0.01083 0.000974
vt 0.005912 -0.182419
vn 0.010339 0.010826 0.000965
vt 0.005909 -0.149847
vn 0.010605 0.010412 0.00204
vt 0.005899 -0.143632
vn 0.010107 0.010786 -0.002557
vt 0.005905 -0.216884
vn -0.010649 0.010361 0.002072
vt 0.022302 -0.143632
vn 0.003053 0.014668 -0.000741
vt 0.333864 -0.415311
vn 0.010541 0.01064 0.000846
vt 0.277036 -0.129596
vn 0.008599 0.012207 -0.001439
vt 0.252992 -0.169658
vn 0.002849 0.014243 0.003749
vt 0.295122 -0.14891
vn 0.003152 0.011697 -0.008848
vt 0.273349 -0.280607
vn -0.003127 0.014653 -0.000732
vt 0.271179 -0.439739
vn -0.003127 0.014653 -0.000732
vt 0.286952 -0.508652
vn -0.002907 0.014229 0.003758
vt 0.295122 -0.14891
vn -0.003778 0.01449 -0.000892
vt 0.302187 -0.170587
vn -0.008803 0.012026 0.00171
vt 0.295608 -0.25505
vn -0.008803 0.012026 0.00171
vt 0.299476 -0.279415
vn 0.008658 -0.012179 -0.001323
vt 0.253026 -0.085712
vn 0.008658 -0.012179 -0.001323
vt 0.252992 -0.169658
vn 0.004995 -0.013392 0.004553
vt 0.252981 -0.259271
vn 0.003394 -0.007128 0.012756
vt 0.252979 -0.298235
vn -0.008744 -0.012052 0.001824
vt 0.288852 -0.26358
vn 0.01037 0.010839 -7.1e-05
vt 0.254966 -0.558964
vn 0.010409 -0.010802 4.2e-05
vt 0.265474 -0.648383
vn 0.010423 -0.010789 4.2e-05
vt 0.265474 -0.558964
vn 0.010355 0.010854 -0.000118
vt 0.031878 -0.0106241
vn 0.010376 0.010833 -0.000126
vt 0.005909 -0.0106241
vn 0.010107 0.010786 -0.002557
vt 0.005905 -0.216884
vn 0.000905 0.000991 0.014941
vt 0.005888 -0.00875902
vn 0.009634 0.010273 -0.005165
vt 0.005887 -0.267752
vn -0.010167 0.010737 -0.002527
vt 0.030118 -0.216884
vn 0.003053 0.014668 -0.000741
vt 0.333864 -0.415311
vn 0.010541 0.01064 0.000846
vt 0.27607 -0.115501
vn 0.010541 0.01064 0.000846
vt 0.277036 -0.129596
vn 0.008599 0.012207 -0.001439
vt 0.252992 -0.169658
vn 0.00493 0.013459 0.004426
vt 0.252981 -0.259271
vn 0.00208 0.014095 -0.004695
vt 0.298348 -0.193585
vn 0.003705 0.014508 -0.000904
vt 0.302187 -0.170587
vn 0.003361 0.007266 0.012686
vt 0.27298 -0.295477
vn 0.003152 0.011697 -0.008848
vt 0.273349 -0.280607
vn -0.003127 0.014653 -0.000732
vt 0.271179 -0.439739
vn -0.003664 0.014519 0.000901
vt 0.293566 -0.350097
vn -0.004981 0.013435 0.004441
vt 0.288074 -0.239371
vn -0.002162 0.014085 -0.004688
vt 0.28179 -0.204563
vn -0.008803 0.012026 0.00171
vt 0.295608 -0.25505
vn 0.008658 -0.012179 -0.001323
vt 0.253026 -0.085712
vn 0.008658 -0.012179 -0.001323
vt 0.252992 -0.169658
vn 0.004995 -0.013392 0.004553
vt 0.252981 -0.259271
vn 0.003394 -0.007128 0.012756
vt 0.252979 -0.298235
vn 0.01037 0.010839 -7.1e-05
vt 0.265474 -0.648383
vn -0.010407 0.010804 -3.9e-05
vt 0.276016 -0.648383
vn -0.010407 0.010804 -3.9e-05
vt 0.275981 -0.558964
vn 0.010339 0.010826 0.000965
vt 0.005909 -0.149847
vn 0.010605 0.010412 0.00204
vt 0.022302 -0.143632
vn 0.010605 0.010412 0.00204
vt 0.005899 -0.143632
vn 0.010392 -0.010766 0.001067
vt 0.005912 -0.182419
vn -0.010389 0.010776 0.000996
vt 0.034056 -0.149847
vn -0.010384 0.01078 0.001005
vt 0.036517 -0.182419
vn 0.003053 0.014668 -0.000741
vt 0.333864 -0.415311
vn 0.004148 0.014411 0.000387
vt 0.333864 -0.242003
vn 0.010668 0.00527 -0.009135
vt 0.276261 -0.066642
vn 0.00493 0.013459 0.004426
vt 0.252981 -0.259271
vn 0.008749 0.012068 0.001684
vt 0.295608 -0.25505
vn 0.008749 0.012068 0.001684
vt 0.299476 -0.279415
vn 0.008749 0.012068 0.001684
vt 0.288852 -0.26358
vn -0.0041 0.011394 -0.008855
vt 0.287506 -0.272469
vn 0.003152 0.011697 -0.008848
vt 0.273349 -0.280607
vn -0.003664 0.014519 0.000901
vt 0.293566 -0.350097
vn -0.004981 0.013435 0.004441
vt 0.277756 -0.225057
vn -0.002162 0.014085 -0.004688
vt 0.28179 -0.204563
vn -0.008803 0.012026 0.00171
vt 0.295608 -0.25505
vn -0.008803 0.012026 0.00171
vt 0.288852 -0.26358
vn 0.008658 -0.012179 -0.001323
vt 0.253026 -0.085712
vn 0.010694 -0.005304 -0.009085
vt 0.289939 -0.032373
vn 0.004995 -0.013392 0.004553
vt 0.252981 -0.259271
vn 0.008808 -0.01201 0.001797
vt 0.288852 -0.26358
vn 0.01037 0.010839 -7.1e-05
vt 0.265474 -0.648383
vn 0.01037 0.010839 -7.1e-05
vt 0.265474 -0.558964
vn -0.010407 0.010804 -3.9e-05
vt 0.275981 -0.558964
vn 0.010334 0.01083 0.000974
vt 0.034056 -0.149847
vn 0.010339 0.010826 0.000965
vt 0.005909 -0.149847
vn 0.010605 0.010412 0.00204
vt 0.022302 -0.143632
vn 0.010392 -0.010766 0.001067
vt 0.005909 -0.149847
vn 0.010392 -0.010766 0.001067
vt 0.005912 -0.182419
vn -0.010389 0.010776 0.000996
vt 0.034056 -0.149847
vn 0.003053 0.014668 -0.000741
vt 0.333864 -0.415311
vn 0.004577 0.014283 -0.000269
vt 0.333864 -0.532371
vn 0.008599 0.012207 -0.001439
vt 0.252992 -0.169658
vn 0.00493 0.013459 0.004426
vt 0.252981 -0.259271
vn 0.00208 0.014095 -0.004695
vt 0.28179 -0.204563
vn 0.003801 0.014498 0.000637
vt 0.333864 -0.00679004
vn 0.003801 0.014498 0.000637
vt 0.314729 -0.0972739
vn -0.003127 0.014653 -0.000732
vt 0.286952 -0.508652
vn -0.00463 0.014205 0.001351
vt 0.165062 -0.551194
vn -0.00463 0.014205 0.001351
vt 0.117097 -0.571202
vn -0.004864 0.008071 0.011672
vt 0.27298 -0.295477
vn -0.005068 0.014102 -0.000698
vt 0.147626 -0.600845
vn 0.004219 -0.014386 0.000524
vt 0.333864 -0.242003
vn 0.008658 -0.012179 -0.001323
vt 0.253026 -0.085712
vn 0.010694 -0.005304 -0.009085
vt 0.289939 -0.032373
vn 0.002003 -0.01483 -0.001041
vt 0.253051 -0.00883806
vn 0.004899 -0.007959 0.011734
vt 0.252978 -0.306719
vn 0.003394 -0.007128 0.012756
vt 0.252979 -0.298235
vn 0.010409 -0.010802 4.2e-05
vt 0.265474 -0.648383
vn 0.010423 -0.010789 4.2e-05
vt 0.265474 -0.558964
vn -0.010407 0.010804 -3.9e-05
vt 0.276016 -0.648383
vn 0.010107 0.010786 -0.002557
vt 0.030118 -0.216884
vn 0.010107 0.010786 -0.002557
vt 0.005905 -0.216884
vn 0.009634 0.010273 -0.005165
vt 0.005887 -0.267752
vn 0.010429 -0.010783 -2.4e-05
vt 0.005908 -0.082607
vn -0.010429 0.010783 -9.5e-05
vt 0.031878 -0.0106241
vn -0.010408 0.010803 -8.6e-05
vt 0.031355 -0.082607
vn 0.003596 0.014537 0.00089
vt 0.293566 -0.350097
vn 0.004577 0.014283 -0.000269
vt 0.333864 -0.532371
vn 0.010668 0.00527 -0.009135
vt 0.276261 -0.066642
vn 0.004678 0.011459 0.008476
vt 0.285548 -0.0730669
vn 0.00493 0.013459 0.004426
vt 0.277756 -0.225057
vn 0.00493 0.013459 0.004426
vt 0.252981 -0.259271
vn 0.00208 0.014095 -0.004695
vt 0.28179 -0.204563
vn 0.005063 0.014096 0.000831
vt 0.309242 -0.240589
vn -0.003127 0.014653 -0.000732
vt 0.286952 -0.508652
vn -0.004647 0.014261 -0.000255
vt 0.290475 -0.57899
vn -0.00463 0.014205 0.001351
vt 0.152411 -0.472218
vn -0.00463 0.014205 0.001351
vt 0.117097 -0.571202
vn -0.004925 0.014161 0.000483
vt 0.088492 -0.541539
vn -0.004864 0.008071 0.011672
vt 0.284898 -0.301708
vn -0.004864 0.008071 0.011672
vt 0.27298 -0.295477
vn 0.004219 -0.014386 0.000524
vt 0.333864 -0.242003
vn 0.008658 -0.012179 -0.001323
vt 0.253026 -0.085712
vn 0.004899 -0.007959 0.011734
vt 0.252978 -0.306719
vn 0.010423 -0.010789 4.2e-05
vt 0.265474 -0.558964
vn -0.010407 0.010804 -3.9e-05
vt 0.276016 -0.648383
vn -0.010407 0.010804 -3.9e-05
vt 0.275981 -0.558964
vn 0.010334 0.01083 0.000974
vt 0.034056 -0.149847
vn 0.010392 -0.010766 0.001067
vt 0.005909 -0.149847
vn 0.010392 -0.010766 0.001067
vt 0.005912 -0.182419
vn 0.010429 -0.010783 -2.4e-05
vt 0.005909 -0.0106241
vn 0.010429 -0.010783 -2.4e-05
vt 0.005908 -0.082607
vn -0.010429 0.010783 -9.5e-05
vt 0.031878 -0.0106241
vn 0.004678 0.011459 0.008476
vt 0.285548 -0.0730669
vn 0.008085 0.012636 -9.1e-05
vt 0.285484 -0.107984
vn 0.003361 0.007266 0.012686
vt 0.252978 -0.306719
vn 0.003361 0.007266 0.012686
vt 0.252979 -0.298235
vn 0.003361 0.007266 0.012686
vt 0.27298 -0.295477
vn 0.003801 0.014498 0.000637
vt 0.314729 -0.0972739
vn 0.005063 0.014096 0.000831
vt 0.309242 -0.240589
vn -0.00463 0.014205 0.001351
vt 0.165062 -0.551194
vn -0.00463 0.014205 0.001351
vt 0.152411 -0.472218
vn -0.00463 0.014205 0.001351
vt 0.117097 -0.571202
vn -0.008803 0.012026 0.00171
vt 0.299476 -0.279415
vn 0.004017 0.011414 -0.008867
vt 0.287506 -0.272469
vn -0.005068 0.014102 -0.000698
vt 0.147626 -0.600845
vn -0.003376 0.014607 0.00053
vt 0.169848 -0.650545
vn 0.004219 -0.014386 0.000524
vt 0.333864 -0.242003
vn 0.008658 -0.012179 -0.001323
vt 0.253026 -0.085712
vn -0.008744 -0.012052 0.001824
vt 0.288852 -0.26358
vn 0.01038 0.01083 -0.000112
vt 0.265659 -0.505747
vn 0.01038 0.01083 -0.000112
vt 0.254859 -0.505747
vn 0.01038 0.01083 -0.000112
vt 0.254851 -0.553852
vn 0.010334 0.01083 0.000974
vt 0.034056 -0.149847
vn 0.010334 0.01083 0.000974
vt 0.036517 -0.182419
vn 0.010392 -0.010766 0.001067
vt 0.005912 -0.182419
vn 0.010585 -0.010399 0.002205
vt 0.005899 -0.143632
vn -0.010578 0.01042 0.002138
vt 0.021188 -0.1094
vn -0.010649 0.010361 0.002072
vt 0.022302 -0.143632
vn 0.00481 0.014201 0.000469
vt 0.046969 -0.203418
vn 0.010541 0.01064 0.000846
vt 0.27607 -0.115501
vn 0.008085 0.012636 -9.1e-05
vt 0.285484 -0.107984
vn 0.003361 0.007266 0.012686
vt 0.252978 -0.306719
vn 0.003361 0.007266 0.012686
vt 0.27298 -0.295477
vn 0.00486 0.008094 0.011658
vt 0.284898 -0.301708
vn 0.004125 0.014422 0.00015
vt 0.053911 -0.014832
vn -0.008241 0.012508 -0.000807
vt 0.154508 -0.27163
vn -0.008241 0.012508 -0.000807
vt 0.140792 -0.373823
vn 0.004157 0.014191 0.002524
vt 0.138543 -0.320988
vn -0.010722 0.005218 -0.009103
vt 0.276261 -0.066642
vn -0.010722 0.005218 -0.009103
vt 0.289939 -0.032373
vn -0.009407 0.011669 -0.000631
vt 0.278157 -0.333494
vn -0.010178 0.010475 -0.003421
vt 0.266861 -0.358801
vn -0.011452 0.004186 -0.008739
vt 0.291908 -0.0408781
vn 0.004883 -0.014171 0.000603
vt 0.086965 -0.016523
vn 0.008658 -0.012179 -0.001323
vt 0.253026 -0.085712
vn 0.009646 -0.011489 4e-06
vt 0.252975 -0.359003
vn 0.01038 0.01083 -0.000112
vt 0.265659 -0.505747
vn 0.01038 0.01083 -0.000112
vt 0.254851 -0.553852
vn 0.010373 0.010836 -0.000113
vt 0.265659 -0.553852
vn 0.010355 0.010854 -0.000118
vt 0.031878 -0.0106241
vn 0.010429 -0.010783 -2.4e-05
vt 0.005909 -0.0106241
vn 0.010429 -0.010783 -2.4e-05
vt 0.005908 -0.082607
vn 0.010585 -0.010399 0.002205
vt 0.005898 -0.1094
vn 0.010585 -0.010399 0.002205
vt 0.005899 -0.143632
vn -0.010578 0.01042 0.002138
vt 0.021188 -0.1094
vn 0.008176 0.012549 -0.000832
vt 0.027197 -0.40025
vn 0.004524 0.014241 0.001326
vt 0.023082 -0.472218
vn 0.00493 0.013459 0.004426
vt 0.277756 -0.225057
vn 0.00493 0.013459 0.004426
vt 0.288074 -0.239371
vn 0.008749 0.012068 0.001684
vt 0.299476 -0.279415
vn 0.008749 0.012068 0.001684
vt 0.288852 -0.26358
vn -0.0041 0.011394 -0.008855
vt 0.287506 -0.272469
vn -0.004925 0.014161 0.000483
vt 0.128523 -0.203418
vn -0.004925 0.014161 0.000483
vt 0.088492 -0.016523
vn -0.004925 0.014161 0.000483
vt 0.088492 -0.541539
vn -0.009407 0.011669 -0.000631
vt 0.278157 -0.333494
vn -0.005068 0.014102 -0.000698
vt 0.147626 -0.600845
vn -0.003376 0.014607 0.00053
vt 0.169848 -0.650545
vn 0.006958 0.009663 -0.009124
vt 0.14567 -0.608204
vn 0.004883 -0.014171 0.000603
vt 0.086965 -0.541539
vn 0.004995 -0.013392 0.004553
vt 0.252981 -0.259271
vn 0.004899 -0.007959 0.011734
vt 0.252978 -0.306719
vn 0.009646 -0.011489 4e-06
vt 0.252975 -0.359003
vn 0.010373 0.010836 -6.8e-05
vt 0.191241 -0.00720096
vn 0.010373 0.010836 -6.8e-05
vt 0.174487 -0.00720096
vn 0.010373 0.010836 -6.8e-05
vt 0.174476 -0.647795
vn 0.010355 0.010854 -0.000118
vt 0.031878 -0.0106241
vn 0.010355 0.010854 -0.000118
vt 0.031355 -0.082607
vn 0.010429 -0.010783 -2.4e-05
vt 0.005908 -0.082607
vn -0.010408 0.010803 -8.6e-05
vt 0.031355 -0.082607
vn -0.010578 0.01042 0.002138
vt 0.021188 -0.1094
vn 0.00208 0.014095 -0.004695
vt 0.298348 -0.193585
vn 0.00208 0.014095 -0.004695
vt 0.28179 -0.204563
vn 0.010225 0.010644 -0.002682
vt 0.278157 -0.333494
vn 0.010225 0.010644 -0.002682
vt 0.266861 -0.358801
vn 0.010225 0.010644 -0.002682
vt 0.252975 -0.359003
vn -0.008241 0.012508 -0.000807
vt 0.154508 -0.27163
vn -0.008241 0.012508 -0.000807
vt 0.140792 -0.373823
vn -0.008241 0.012508 -0.000807
vt 0.148295 -0.40025
vn -0.00463 0.014205 0.001351
vt 0.117097 -0.571202
vn -0.004925 0.014161 0.000483
vt 0.088492 -0.541539
vn -0.004864 0.008071 0.011672
vt 0.284898 -0.301708
vn -0.009407 0.011669 -0.000631
vt 0.278157 -0.333494
vn -0.005068 0.014102 -0.000698
vt 0.147626 -0.600845
vn 0.005631 0.00405 -0.013301
vt 0.118624 -0.581918
vn 0.008658 -0.012179 -0.001323
vt 0.252992 -0.169658
vn 0.004899 -0.007959 0.011734
vt 0.252978 -0.306719
vn -0.008179 -0.012557 -0.000689
vt 0.140827 -0.373823
vn 0.010373 0.010836 -6.8e-05
vt 0.191241 -0.00720096
vn 0.010373 0.010836 -6.8e-05
vt 0.174476 -0.647795
vn 0.01037 0.010839 -6.8e-05
vt 0.191241 -0.647796
vn 0.010605 0.010412 0.00204
vt 0.021188 -0.1094
vn 0.010429 -0.010783 -2.4e-05
vt 0.005908 -0.082607
vn 0.010585 -0.010399 0.002205
vt 0.005898 -0.1094
vn 0.010585 -0.010399 0.002205
vt 0.005899 -0.143632
vn -0.010578 0.01042 0.002138
vt 0.021188 -0.1094
vn 0.010541 0.01064 0.000846
vt 0.277036 -0.129596
vn 0.002849 0.014243 0.003749
vt 0.295122 -0.14891
vn 0.003361 0.007266 0.012686
vt 0.252978 -0.306719
vn 0.010225 0.010644 -0.002682
vt 0.278157 -0.333494
vn 0.010225 0.010644 -0.002682
vt 0.252975 -0.359003
vn -0.008241 0.012508 -0.000807
vt 0.140792 -0.373823
vn -0.003127 0.014653 -0.000732
vt 0.271179 -0.439739
vn -0.003127 0.014653 -0.000732
vt 0.286952 -0.508652
vn 0.004157 0.014191 0.002524
vt 0.138543 -0.320988
vn -0.004925 0.014161 0.000483
vt 0.088492 -0.541539
vn -0.002907 0.014229 0.003758
vt 0.295122 -0.14891
vn -0.003778 0.01449 -0.000892
vt 0.302187 -0.170587
vn -0.005068 0.014102 -0.000698
vt 0.147626 -0.600845
vn 0.006958 0.009663 -0.009124
vt 0.14567 -0.608204
vn 0.005631 0.00405 -0.013301
vt 0.118624 -0.581918
vn 0.003125 -0.01466 -0.000602
vt 0.333864 -0.414927
vn 0.008658 -0.012179 -0.001323
vt 0.252992 -0.169658
vn 0.01038 0.01083 -0.000112
vt 0.254859 -0.505747
vn 0.010433 -0.010779 -2.9e-05
vt 0.265659 -0.505747
vn 0.010433 -0.010779 -2.9e-05
vt 0.265659 -0.553852
vn 0.010605 0.010412 0.00204
vt 0.021188 -0.1094
vn 0.010605 0.010412 0.00204
vt 0.022302 -0.143632
vn 0.010585 -0.010399 0.002205
vt 0.005899 -0.143632
vn 0.010241 -0.010642 -0.002627
vt 0.005905 -0.216884
vn -0.010384 0.01078 0.001005
vt 0.036517 -0.182419
vn -0.010167 0.010737 -0.002527
vt 0.030118 -0.216884
f 15/1/1 16/2/2 30/3/3
f 26/7/7 25/8/8 24/9/9
f 10/13/13 21/14/14 11/12/12
f 19/17/17 29/4/4 17/18/18
f 14/20/20 28/5/5 27/6/6
f 23/10/10 12/19/19 22/11/11
f 13/21/21 20/15/15 18/16/16
f 8/24/24 7/23/23 9/22/22
f 4/27/27 3/28/28 6/25/25
f 2/29/29 5/26/26 1/30/30
f 58/31/31 59/32/32 49/33/33
f 56/35/35 54/37/37 53/38/38
f 57/34/34 56/35/35 47/43/43
f 45/45/45 55/36/36 50/41/41
f 51/39/39 42/49/49 52/40/40
f 48/42/42 41/46/46 44/47/47
f 40/50/50 43/48/48 46/44/44
f 37/51/51 38/52/52 39/53/53
f 35/55/55 36/54/54 33/58/58
f 32/57/57 34/56/56 31/59/59
f 89/60/60 79/61/61 88/62/62
f 86/66/66 85/65/65 82/68/68
f 77/73/73 76/74/74 87/63/63
f 81/69/69 75/75/75 74/76/76
f 73/78/78 84/64/64 83/67/67
f 80/70/70 78/71/71 72/77/77
f 71/72/72 69/80/80 70/79/79
f 68/82/82 66/83/83 67/81/81
f 65/84/84 64/86/86 61/88/88
f 63/85/85 62/87/87 60/89/89
f 119/91/91 111/90/90 118/92/92
f 114/97/97 116/94/94 113/96/96
f 117/93/93 109/100/100 110/101/101
f 108/102/102 106/104/104 107/103/103
f 115/95/95 105/107/107 104/108/108
f 102/106/106 103/105/105 112/98/98
f 100/109/109 99/110/110 101/99/99
f 96/113/113 98/111/111 97/112/112
f 92/117/117 94/115/115 95/114/114
f 90/119/119 91/118/118 93/116/116
f 148/120/120 146/122/122 139/123/123
f 135/124/124 141/129/129 144/125/125
f 138/133/133 137/134/134 145/126/126
f 140/130/130 147/121/121 136/136/136
f 134/137/137 142/128/128 143/127/127
f 132/131/131 131/138/138 133/132/132
f 132/131/131 129/135/135 130/139/139
f 128/140/140 126/142/142 127/141/141
f 122/146/146 125/143/143 124/144/144
f 123/145/145 121/147/147 120/148/148
f 169/153/153 171/150/150 177/149/149
f 173/154/154 167/156/156 164/155/155
f 174/157/157 166/163/163 168/162/162
f 176/151/151 170/160/160 165/165/165
f 172/158/158 162/167/167 163/166/166
f 159/161/161 160/159/159 161/168/168
f 168/162/162 158/169/169 157/164/164
f 154/172/172 156/170/170 155/171/171
f 151/175/175 153/173/173 152/174/174
f 175/152/152 149/176/176 150/177/177
f 193/181/181 203/182/182 194/183/183
f 193/181/181 191/188/188 200/187/187
f 204/184/184 197/191/191 198/190/190
f 206/178/178 195/195/195 196/194/194
f 192/196/196 201/186/186 202/185/185
f 190/189/189 189/197/197 178/198/198
f 188/199/199 187/192/192 186/193/193
f 185/200/200 184/202/202 183/201/201
f 182/203/203 180/205/205 181/204/204
f 179/206/206 199/180/180 205/179/179
f 224/209/209 225/207/207 233/208/208
f 230/212/212 231/211/211 222/214/214
f 232/210/210 227/219/219 226/220/220
f 208/218/218 219/217/217 207/222/222
f 229/213/213 223/223/223 214/224/224
f 220/215/215 218/226/226 221/225/225
f 217/227/227 216/221/221 215/228/228
f 214/229/229 213/230/230 212/231/231
f 210/233/233 211/232/232 209/234/234
f 208/235/235 207/236/236 228/216/216
f 252/238/238 255/239/239 234/240/240
f 258/244/244 251/245/245 250/246/246
f 253/252/252 260/241/241 254/253/253
f 255/251/251 247/249/249 248/247/247
f 240/254/254 241/243/243 259/242/242
f 249/255/255 244/257/257 246/250/250
f 242/259/259 245/256/256 243/258/258
f 238/262/262 239/261/261 240/260/260
f 235/265/265 236/264/264 237/263/263
f 256/248/248 257/237/237 234/266/266
f 279/268/268 283/271/271 289/269/269
f 284/275/275 274/276/276 273/277/277
f 281/280/280 287/272/272 282/281/281
f 277/267/267 278/283/283 279/268/268
f 275/285/285 285/274/274 286/273/273
f 271/279/279 272/278/278 270/286/286
f 269/287/287 280/282/282 276/284/284
f 268/288/288 266/289/289 267/290/290
f 265/291/291 263/293/293 264/292/292
f 261/295/295 262/294/294 288/270/270
f 318/296/296 307/302/302 303/301/301
f 299/307/307 313/300/300 310/306/306
f 309/308/308 314/303/303 306/310/310
f 316/297/297 298/313/313 317/298/298
f 302/316/316 311/305/305 312/304/304
f 301/315/315 308/309/309 309/308/308
f 304/312/312 305/311/311 300/317/317
f 294/320/320 296/319/319 295/318/318
f 291/323/323 292/322/322 293/321/321
f 315/299/299 297/314/314 290/324/324
f 332/328/328 333/327/327 337/329/329
f 342/334/334 340/335/335 344/332/332
f 345/330/330 336/338/338 335/339/339
f 347/325/325 346/326/326 327/341/341
f 329/344/344 341/333/333 343/331/331
f 338/337/337 331/343/343 330/342/342
f 328/345/345 329/344/344 334/340/340
f 324/346/346 325/347/347 326/348/348
f 323/349/349 321/351/351 322/350/350
f 339/336/336 320/352/352 319/353/353
f 374/355/355 375/356/356 376/357/357
f 370/361/361 372/360/360 371/359/359
f 366/363/363 367/364/364 368/365/365
f 377/354/354 363/369/369 359/368/368
f 360/373/373 373/358/358 361/372/372
f 362/371/371 356/374/374 357/375/375
f 355/376/376 365/366/366 364/367/367
f 354/378/378 352/379/379 353/377/377
f 349/382/382 350/381/381 351/380/380
f 348/383/383 358/370/370 369/362/362
f 402/387/387 400/388/388 401/386/386
f 398/390/390 399/389/389 397/391/391
f 399/389/389 394/394/394 393/395/395
f 403/384/384 386/397/397 385/399/399
f 390/385/385 388/400/400 387/402/402
f 384/403/403 395/393/393 389/401/401
f 396/392/392 392/396/396 391/398/398
f 381/404/404 382/405/405 383/406/406
f 380/407/407 378/409/409 379/408/408
f 427/413/413 418/415/415 425/416/416
f 423/418/418 422/419/419 421/420/420
f 416/424/424 426/414/414 424/417/417
f 410/427/427 428/411/411 429/410/410
f 411/428/428 413/412/412 409/429/429
f 412/430/430 419/422/422 417/423/423
f 415/425/425 420/421/421 414/426/426
f 408/432/432 406/433/433 407/431/431
f 408/432/432 405/434/434 404/435/435
f 453/440/440 452/441/441 454/439/439
f 449/444/444 450/445/445 455/436/436
f 451/442/442 445/448/448 446/449/449
f 440/437/437 441/438/438 438/453/453
f 440/437/437 437/455/455 436/443/443
f 439/454/454 448/446/446 447/447/447
f 444/450/450 443/451/451 442/452/452
f 432/457/457 433/458/458 434/459/459
f 430/461/461 431/460/460 435/456/456
f 479/466/466 478/467/467 477/468/468
f 480/464/464 474/472/472 481/463/463
f 471/476/476 476/470/470 475/469/469
f 468/465/465 470/478/478 469/462/462
f 478/467/467 465/471/471 466/480/480
f 467/479/479 472/475/475 473/474/474
f 457/477/477 464/473/473 456/481/481
f 462/484/484 460/485/485 461/483/483
f 458/487/487 463/482/482 459/486/486
f 506/490/490 505/491/491 504/492/492
f 507/488/488 503/495/495 502/496/496
f 498/501/501 497/503/503 499/502/502
f 496/489/489 482/504/504 489/505/505
f 494/507/507 492/494/494 493/493/493
f 500/499/499 501/500/500 495/506/506
f 489/508/508 491/497/497 490/498/498
f 488/510/510 487/509/509 486/511/511
f 485/512/512 483/514/514 484/513/513
f 533/518/518 532/520/520 534/519/519
f 508/523/523 525/516/516 509/517/517
f 528/526/526 531/521/521 518/522/522
f 527/515/515 526/527/527 520/529/529
f 522/531/531 523/528/528 521/532/532
f 529/524/524 530/525/525 524/530/530
f 519/533/533 517/534/534 516/535/535
f 513/538/538 512/539/539 515/536/536
f 514/537/537 510/541/541 511/540/540
f 559/546/546 560/547/547 561/548/548
f 557/545/545 554/542/542 552/543/543
f 543/549/549 541/554/554 555/553/553
f 553/555/555 551/544/544 546/556/556
f 547/559/559 548/550/550 549/558/558
f 558/551/551 556/552/552 550/557/557
f 542/561/561 544/562/562 545/560/560
f 540/563/563 537/565/565 538/566/566
f 539/564/564 536/567/567 535/568/568
f 586/572/572 587/573/573 588/571/571
f 572/576/576 583/577/577 573/578/578
f 585/574/574 579/582/582 580/581/581
f 577/570/570 571/583/583 578/569/569
f 574/586/586 575/585/585 584/575/575
f 576/584/584 581/580/580 582/579/579
f 569/589/589 570/588/588 568/587/587
f 563/594/594 567/591/591 566/590/590
f 562/595/595 564/593/593 565/592/592
f 613/597/597 611/599/599 612/598/598
f 607/601/601 608/596/596 609/602/602
f 612/598/598 605/604/604 606/603/603
f 601/607/607 602/608/608 613/597/597
f 610/600/600 600/609/609 599/610/610
f 603/605/605 604/606/606 598/611/611
f 595/612/612 596/614/614 597/613/613
f 593/616/616 591/618/618 594/615/615
f 590/619/619 589/620/620 592/617/617
f 638/624/624 635/627/627 636/626/626
f 631/630/630 630/631/631 632/621/621
f 637/625/625 627/634/634 629/632/632
f 640/623/623 639/622/622 625/635/635
f 623/638/638 634/628/628 633/629/629
f 624/637/637 626/636/636 628/633/633
f 622/639/639 621/640/640 620/641/641
f 619/642/642 618/644/644 617/643/643
f 615/646/646 614/647/647 616/645/645
f 662/652/652 663/653/653 664/654/654
f 658/657/657 667/649/649 659/648/648
f 655/661/661 654/660/660 665/651/651
f 653/662/662 666/650/650 652/663/663
f 650/665/665 660/656/656 661/655/655
f 656/659/659 657/658/658 651/664/664
f 647/668/668 648/667/667 649/666/666
f 644/671/671 646/669/669 645/670/670
f 643/673/673 642/672/672 641/674/674
f 693/678/678 694/677/677 692/679/679
f 689/682/682 688/675/675 687/676/676
f 678/683/683 686/684/684 684/686/686
f 681/689/689 677/690/690 682/688/688
f 690/680/680 683/687/687 691/681/681
f 680/691/691 679/692/692 685/685/685
f 675/695/695 676/693/693 674/694/694
f 671/698/698 673/697/697 672/696/696
f 669/700/700 668/701/701 670/699/699
f 716/708/708 717/706/706 718/707/707
f 713/703/703 712/711/711 714/710/710
f 711/713/713 704/712/712 710/714/714
f 706/718/718 719/705/705 720/704/704
f 707/717/717 721/702/702 715/709/709
f 709/716/716 708/715/715 705/719/719
f 702/720/720 701/722/722 703/721/721
f 700/723/723 698/724/724 699/725/725
f 697/727/727 696/726/726 695/728/728
f 743/731/731 744/732/732 745/733/733
f 733/736/736 734/737/737 740/738/738
f 733/736/736 737/741/741 731/742/742
f 735/744/744 746/730/730 747/729/729
f 736/743/743 741/735/735 742/734/734
f 732/745/745 739/739/739 738/740/740
f 729/746/746 730/747/747 728/748/748
f 725/751/751 727/750/750 726/749/749
f 723/753/753 722/754/754 724/752/752
f 772/759/759 770/760/760 771/758/758
f 762/764/764 769/763/763 763/762/762
f 767/765/765 761/769/769 768/766/766
f 764/771/771 774/756/756 773/757/757
f 748/770/770 765/755/755 749/761/761
f 766/767/767 756/768/768 758/772/772
f 757/774/774 759/775/775 760/773/773
f 755/776/776 753/777/777 754/778/778
f 752/780/780 751/779/779 750/781/781
f 798/787/787 797/786/786 796/788/788
f 788/789/789 775/790/790 795/791/791
f 793/793/793 785/795/795 786/794/794
f 799/784/784 790/797/797 800/785/785
f 787/796/796 791/783/783 792/782/782
f 783/799/799 789/798/798 794/792/792
f 784/800/800 782/801/801 781/802/802
f 778/805/805 780/804/804 779/803/803
f 778/805/805 777/806/806 776/807/807
f 823/810/810 810/811/811 809/812/812
f 813/815/815 822/814/814 820/817/817
f 817/820/820 821/816/816 811/821/821
f 824/808/808 816/822/822 825/809/809
f 812/813/813 813/815/815 814/824/824
f 815/823/823 819/818/818 818/819/819
f 806/826/826 807/827/827 808/825/825
f 805/828/828 802/830/830 803/831/831
f 801/832/832 802/830/830 804/829/829
f 834/837/837 849/835/835 848/836/836
f 847/838/838 838/841/841 844/842/842
f 836/847/847 837/846/846 841/845/845
f 851/833/833 840/849/849 850/834/834
f 845/839/839 846/840/840 839/848/848
f 840/849/849 843/843/843 842/844/844
f 835/850/850 833/851/851 832/852/852
f 829/855/855 831/854/854 830/853/853
f 827/857/857 826/858/858 828/856/856
